<svg xmlns="http://www.w3.org/2000/svg" xmlns:xlink="http://www.w3.org/1999/xlink" width="108" height="108" viewBox="0 0 108 108">
  <defs>
    <filter id="Trazado_982547" x="0" y="0" width="108" height="108" filterUnits="userSpaceOnUse">
      <feOffset dy="3" input="SourceAlpha"/>
      <feGaussianBlur stdDeviation="3" result="blur"/>
      <feFlood flood-opacity="0.161"/>
      <feComposite operator="in" in2="blur"/>
      <feComposite in="SourceGraphic"/>
    </filter>
  </defs>
  <g id="Grupo_1159930" data-name="Grupo 1159930" transform="translate(-274 -407)">
    <g id="Grupo_1149835" data-name="Grupo 1149835" transform="translate(0 -4452)">
      <g id="Grupo_1149673" data-name="Grupo 1149673" transform="translate(-52 -2821)">
        <g id="Grupo_1148532" data-name="Grupo 1148532" transform="translate(51 4253)">
          <g id="Grupo_1147065" data-name="Grupo 1147065" transform="translate(-341 -556)">
            <g transform="matrix(1, 0, 0, 1, 616, 3983)" filter="url(#Trazado_982547)">
              <g id="Trazado_982547-2" data-name="Trazado 982547" transform="translate(9 6)" fill="#fef4f5">
                <path d="M 45 88.5 C 39.12687683105469 88.5 33.43022537231445 87.35007476806641 28.06830024719238 85.08217620849609 C 22.88852500915527 82.89131164550781 18.23629951477051 79.75458526611328 14.2408504486084 75.75914764404297 C 10.24541282653809 71.76370239257812 7.108687400817871 67.11147308349609 4.917825222015381 61.93170166015625 C 2.649924993515015 56.56977462768555 1.5 50.87312316894531 1.5 45 C 1.5 39.12687683105469 2.649924993515015 33.43022537231445 4.917825222015381 28.06830024719238 C 7.108687400817871 22.88852500915527 10.24541282653809 18.23629951477051 14.2408504486084 14.2408504486084 C 18.23629951477051 10.24541282653809 22.88852500915527 7.108687400817871 28.06830024719238 4.917825222015381 C 33.43022537231445 2.649924993515015 39.12687683105469 1.5 45 1.5 C 50.87312316894531 1.5 56.56977462768555 2.649924993515015 61.93170166015625 4.917825222015381 C 67.11147308349609 7.108687400817871 71.76370239257812 10.24541282653809 75.75914764404297 14.2408504486084 C 79.75458526611328 18.23629951477051 82.89131164550781 22.88852500915527 85.08217620849609 28.06830024719238 C 87.35007476806641 33.43022537231445 88.5 39.12687683105469 88.5 45 C 88.5 50.87312316894531 87.35007476806641 56.56977462768555 85.08217620849609 61.93170166015625 C 82.89131164550781 67.11147308349609 79.75458526611328 71.76370239257812 75.75914764404297 75.75914764404297 C 71.76370239257812 79.75458526611328 67.11147308349609 82.89131164550781 61.93170166015625 85.08217620849609 C 56.56977462768555 87.35007476806641 50.87312316894531 88.5 45 88.5 Z" stroke="none"/>
                <path d="M 45 3 C 39.32871246337891 3 33.82865524291992 4.110054016113281 28.65262985229492 6.299339294433594 C 23.65165710449219 8.414573669433594 19.15968322753906 11.44334411621094 15.301513671875 15.301513671875 C 11.44334411621094 19.15968322753906 8.414573669433594 23.65165710449219 6.299339294433594 28.65262985229492 C 4.110054016113281 33.82865524291992 3 39.32871246337891 3 45 C 3 50.67128753662109 4.110054016113281 56.17134475708008 6.299339294433594 61.34737396240234 C 8.414573669433594 66.34834289550781 11.44334411621094 70.84031677246094 15.301513671875 74.698486328125 C 19.15968322753906 78.55665588378906 23.65165710449219 81.58542633056641 28.65262985229492 83.70066070556641 C 33.82865524291992 85.88994598388672 39.32871246337891 87 45 87 C 50.67128753662109 87 56.17134475708008 85.88994598388672 61.34737396240234 83.70066070556641 C 66.34834289550781 81.58542633056641 70.84031677246094 78.55665588378906 74.698486328125 74.698486328125 C 78.55665588378906 70.84031677246094 81.58542633056641 66.34834289550781 83.70066070556641 61.34737396240234 C 85.88994598388672 56.17134475708008 87 50.67128753662109 87 45 C 87 39.32871246337891 85.88994598388672 33.82865524291992 83.70066070556641 28.65262985229492 C 81.58542633056641 23.65165710449219 78.55665588378906 19.15968322753906 74.698486328125 15.301513671875 C 70.84031677246094 11.44334411621094 66.34834289550781 8.414573669433594 61.34737396240234 6.299339294433594 C 56.17134475708008 4.110054016113281 50.67128753662109 3 45 3 M 45 0 C 69.85281372070312 0 90 20.14718627929688 90 45 C 90 69.85281372070312 69.85281372070312 90 45 90 C 20.14718627929688 90 0 69.85281372070312 0 45 C 0 20.14718627929688 20.14718627929688 0 45 0 Z" stroke="none" fill="#ff7f8f"/>
              </g>
            </g>
          </g>
        </g>
      </g>
    </g>
    <g id="unidad" transform="translate(300 429.165)">
      <path id="Trazado_996664" data-name="Trazado 996664" d="M26.442,168.852a1.572,1.572,0,0,0-1.572-1.572H13.88v17.3a3.916,3.916,0,0,1-.766,2.331,6.569,6.569,0,0,0-1.292,3.921v8.759a1.471,1.471,0,0,0,1.471,1.471h.749a1.471,1.471,0,0,0,1.471-1.471v1.735a1.846,1.846,0,0,0,1.846,1.846h.681a1.846,1.846,0,0,0,1.846-1.846v.681a1.846,1.846,0,0,0,1.846,1.846h.682a1.846,1.846,0,0,0,1.846-1.846v-.682a1.846,1.846,0,0,0,1.846,1.846h.682a1.846,1.846,0,0,0,1.846-1.846V190.335a1.572,1.572,0,0,1,1.572-1.572h2.643v-.032a4.533,4.533,0,0,0-3.36-4.381l-.566-.152a3.348,3.348,0,0,1-2.482-3.234V168.852Z" transform="translate(-10.538 -148.349)" fill="#a55e4d"/>
      <path id="Trazado_996665" data-name="Trazado 996665" d="M59.754,184.351l-.566-.152a3.348,3.348,0,0,1-2.482-3.234V168.852a1.572,1.572,0,0,0-1.572-1.572H52.357v11.511a3.344,3.344,0,0,0,.743,2.1,6.565,6.565,0,0,1,1.449,4.125v11.711A4.267,4.267,0,0,1,50.282,201h-4.5v.329a1.846,1.846,0,0,0,1.846,1.846h.681a1.846,1.846,0,0,0,1.846-1.846v.681A1.846,1.846,0,0,0,52,203.852h.682a1.846,1.846,0,0,0,1.846-1.846v-.682a1.846,1.846,0,0,0,1.846,1.846h.682a1.846,1.846,0,0,0,1.846-1.846V190.335a1.572,1.572,0,0,1,1.572-1.572h2.643v-.032A4.533,4.533,0,0,0,59.754,184.351Z" transform="translate(-40.802 -148.349)" fill="#904f40"/>
      <path id="Trazado_996666" data-name="Trazado 996666" d="M226.568,29.335a1.419,1.419,0,0,1-1.419-1.419V14.078a1.419,1.419,0,1,1,2.839,0V27.915A1.42,1.42,0,0,1,226.568,29.335Z" transform="translate(-200.671 -10.538)" fill="#ffd064"/>
      <circle id="Elipse_11720" data-name="Elipse 11720" cx="6.281" cy="6.281" r="6.281" transform="translate(39.58 21.23)" fill="#86a0af"/>
      <path id="Trazado_996667" data-name="Trazado 996667" d="M392.535,220.483a3.572,3.572,0,1,1,3.572-3.572A3.576,3.576,0,0,1,392.535,220.483Z" transform="translate(-346.674 -189.4)" fill="#f1f4f6"/>
      <path id="Trazado_996668" data-name="Trazado 996668" d="M324.668,11.126h-.749a1.471,1.471,0,0,0-1.471,1.471V10.863A1.846,1.846,0,0,0,320.6,9.017h-.681a1.846,1.846,0,0,0-1.846,1.846v-.681a1.846,1.846,0,0,0-1.846-1.846h-.682a1.846,1.846,0,0,0-1.846,1.846v.682a1.846,1.846,0,0,0-1.846-1.846h-.682a1.846,1.846,0,0,0-1.846,1.846V21.853a1.572,1.572,0,0,1-1.572,1.572h-2.643v.032a4.533,4.533,0,0,0,3.36,4.381l.566.152a3.349,3.349,0,0,1,2.381,2.419h1.371a6.282,6.282,0,0,1,10.021,0h1.27v-2.8a3.916,3.916,0,0,1,.766-2.331,6.569,6.569,0,0,0,1.292-3.921V12.6a1.471,1.471,0,0,0-1.471-1.471Z" transform="translate(-271.941 -6.685)" fill="#dfaca0"/>
      <path id="Trazado_996669" data-name="Trazado 996669" d="M375.337,281.033a6.282,6.282,0,0,1-10.021,0h-1.27v5.352a1.572,1.572,0,0,0,1.572,1.572h10.989v-6.924Z" transform="translate(-324.467 -249.734)" fill="#dfaca0"/>
      <g id="Grupo_1159929" data-name="Grupo 1159929" transform="translate(39.58 4.441)">
        <path id="Trazado_996670" data-name="Trazado 996670" d="M453.431,34h-.749a1.466,1.466,0,0,0-1.041.432v7.624a6.568,6.568,0,0,1-1.292,3.921,3.916,3.916,0,0,0-.766,2.331v3.253a6.311,6.311,0,0,1,1.991,1.721h1.27v-2.8a3.917,3.917,0,0,1,.766-2.331,6.569,6.569,0,0,0,1.292-3.921V35.473A1.472,1.472,0,0,0,453.431,34Z" transform="translate(-440.284 -34.002)" fill="#d59b8b"/>
        <path id="Trazado_996671" data-name="Trazado 996671" d="M373.91,281.125l-.071-.092h-.231Q373.757,281.082,373.91,281.125Z" transform="translate(-372.569 -254.175)" fill="#d59b8b"/>
        <path id="Trazado_996672" data-name="Trazado 996672" d="M375.338,281.033a6.309,6.309,0,0,1-2.21,1.836,4.269,4.269,0,0,1-4.048,2.914h-5.033v.6a1.572,1.572,0,0,0,1.572,1.572h10.99v-6.924h-1.271Z" transform="translate(-364.047 -254.175)" fill="#d59b8b"/>
      </g>
      <path id="Trazado_996673" data-name="Trazado 996673" d="M341.84,215.14a6.252,6.252,0,0,1,1.27-3.788h-3.06a.919.919,0,0,0-.919.919v5.738a.919.919,0,0,0,.919.919h3.06A6.253,6.253,0,0,1,341.84,215.14Z" transform="translate(-302.26 -187.629)" fill="#617881"/>
      <path id="Trazado_996674" data-name="Trazado 996674" d="M470.959,211.352H467.9a6.283,6.283,0,0,1,0,7.576h3.06a.919.919,0,0,0,.919-.919v-5.738A.919.919,0,0,0,470.959,211.352Z" transform="translate(-417.029 -187.629)" fill="#617881"/>
      <path id="Trazado_996675" data-name="Trazado 996675" d="M31.164,14.716h-4.39a3.916,3.916,0,0,1-2.331-.766,6.569,6.569,0,0,0-3.921-1.292H11.763a1.471,1.471,0,0,0-1.471,1.471v.749a1.471,1.471,0,0,0,1.471,1.471H10.028A1.846,1.846,0,0,0,8.182,18.2v.681a1.846,1.846,0,0,0,1.846,1.846H9.347A1.846,1.846,0,0,0,7.5,22.569v.682A1.846,1.846,0,0,0,9.347,25.1h.682a1.846,1.846,0,0,0-1.846,1.846v.682a1.846,1.846,0,0,0,1.846,1.846H21.018a1.572,1.572,0,0,1,1.572,1.572v2.643h.032A4.533,4.533,0,0,0,27,30.325l.152-.566a3.348,3.348,0,0,1,3.234-2.482h.776V14.716Z" transform="translate(-6.686 -10.538)" fill="#fff1dd"/>
      <path id="Trazado_996676" data-name="Trazado 996676" d="M251.26,31.581V44.142h8.5a1.572,1.572,0,0,0,1.572-1.572V31.581Z" transform="translate(-223.943 -27.403)" fill="#fff1dd"/>
      <path id="Trazado_996677" data-name="Trazado 996677" d="M32.713,127.117a3.341,3.341,0,0,0-1.8.526,10.2,10.2,0,0,1-5.484,1.666H13.769v.329a1.846,1.846,0,0,0,1.846,1.846H26.6a1.572,1.572,0,0,1,1.572,1.572V135.7h.032a4.533,4.533,0,0,0,4.381-3.36l.152-.566a3.348,3.348,0,0,1,3.234-2.482h.776v-2.174H32.713Z" transform="translate(-12.272 -112.552)" fill="#ffe4c1"/>
      <path id="Trazado_996678" data-name="Trazado 996678" d="M258.069,31.581V37.7a4.267,4.267,0,0,1-4.267,4.267H251.26v2.174h8.5a1.572,1.572,0,0,0,1.572-1.572V31.581Z" transform="translate(-223.943 -27.403)" fill="#ffe4c1"/>
      <path id="Trazado_996679" data-name="Trazado 996679" d="M241.647,374.221H245.4a.353.353,0,0,0,.353-.353V361.117a.353.353,0,0,0-.353-.353h-3.758a.353.353,0,0,0-.353.353v12.751A.353.353,0,0,0,241.647,374.221Z" transform="translate(-215.06 -320.797)" fill="#b1e4f9"/>
      <path id="Trazado_996680" data-name="Trazado 996680" d="M174.583,364.882h-6.566a1.572,1.572,0,0,0-1.572,1.572v10.989h8.138Z" transform="translate(-148.349 -324.467)" fill="#9dc6fb"/>
      <path id="Trazado_996681" data-name="Trazado 996681" d="M304.476,314.536h-.682a1.846,1.846,0,0,0,1.846-1.846v-.682a1.846,1.846,0,0,0-1.846-1.846H292.8a1.572,1.572,0,0,1-1.572-1.572l-.032-2.643a4.533,4.533,0,0,0-4.381,3.36l-.152.566a3.348,3.348,0,0,1-3.234,2.482h-1.084v12.561h4.7a3.916,3.916,0,0,1,2.331.766,6.569,6.569,0,0,0,3.921,1.292h8.759a1.471,1.471,0,0,0,1.471-1.471v-.749a1.471,1.471,0,0,0-1.471-1.471h1.735a1.846,1.846,0,0,0,1.846-1.846v-.681a1.846,1.846,0,0,0-1.846-1.846h.681a1.846,1.846,0,0,0,1.846-1.846v-.682A1.845,1.845,0,0,0,304.476,314.536Z" transform="translate(-251.654 -271.941)" fill="#ffece4"/>
      <path id="Trazado_996682" data-name="Trazado 996682" d="M170.234,364.882V371a4.268,4.268,0,0,1-3.789,4.24v2.2h8.138V364.882Z" transform="translate(-148.349 -324.467)" fill="#80b4fb"/>
      <path id="Trazado_996683" data-name="Trazado 996683" d="M304.476,349.092h-.682a1.846,1.846,0,0,0,1.846-1.846v-.682a1.846,1.846,0,0,0-1.846-1.846h-4.612v10.369a4.267,4.267,0,0,1-4.267,4.267h-5.964a6.568,6.568,0,0,1-3.933-1.3,3.884,3.884,0,0,0-2.319-.757h-.349v2.174h4.7a3.916,3.916,0,0,1,2.331.766,6.569,6.569,0,0,0,3.921,1.292h8.759a1.471,1.471,0,0,0,1.471-1.471v-.749a1.471,1.471,0,0,0-1.471-1.471h1.735a1.846,1.846,0,0,0,1.846-1.846v-.681a1.846,1.846,0,0,0-1.846-1.846h.681a1.846,1.846,0,0,0,1.846-1.846v-.682A1.845,1.845,0,0,0,304.476,349.092Z" transform="translate(-251.654 -306.496)" fill="#ffddce"/>
      <path id="Trazado_996684" data-name="Trazado 996684" d="M385.849,214.614a4.387,4.387,0,1,0-4.387-4.387A4.392,4.392,0,0,0,385.849,214.614Zm0-7.144a2.756,2.756,0,1,1-2.756,2.756A2.76,2.76,0,0,1,385.849,207.47Z" transform="translate(-339.989 -182.716)"/>
      <path id="Trazado_996685" data-name="Trazado 996685" d="M53.931,22.907h-.975V20.924a3.123,3.123,0,0,1,.605-1.846,7.356,7.356,0,0,0,1.452-4.406V5.912a2.289,2.289,0,0,0-2.287-2.287h-.749a2.279,2.279,0,0,0-.693.107,2.665,2.665,0,0,0-2.624-2.216h-.682a2.647,2.647,0,0,0-1.5.466A2.66,2.66,0,0,0,44.288.835h-.682a2.66,2.66,0,0,0-2.188,1.148,2.647,2.647,0,0,0-1.5-.466h-.682A2.666,2.666,0,0,0,36.7,3.362H28.126a2.235,2.235,0,0,0-4.456,0H20.088a3.123,3.123,0,0,1-1.846-.605,7.356,7.356,0,0,0-4.406-1.452H11.211a.815.815,0,1,0,0,1.631h2.626a5.735,5.735,0,0,1,3.436,1.132,4.764,4.764,0,0,0,2.816.925h3.575V15.924A4.17,4.17,0,0,0,19.68,19.01l-.152.566a3.724,3.724,0,0,1-2.81,2.672V20.5a2.39,2.39,0,0,0-2.387-2.387H3.343a1.031,1.031,0,0,1-1.03-1.03V16.4a1.031,1.031,0,0,1,1.03-1.03H7.116a.815.815,0,0,0,0-1.631H2.661a1.031,1.031,0,0,1-1.03-1.03v-.682A1.031,1.031,0,0,1,2.661,11H7.116a.815.815,0,1,0,0-1.631H3.343a1.031,1.031,0,0,1-1.03-1.03V7.658a1.032,1.032,0,0,1,1.03-1.03H7.116A.815.815,0,0,0,7.116,5H5.077a.657.657,0,0,1-.656-.656V3.592a.657.657,0,0,1,.656-.656H7.406a.815.815,0,0,0,0-1.631H5.077A2.289,2.289,0,0,0,2.79,3.592v.749a2.28,2.28,0,0,0,.107.693A2.666,2.666,0,0,0,.681,7.658v.682a2.647,2.647,0,0,0,.466,1.5A2.66,2.66,0,0,0,0,12.031v.682A2.661,2.661,0,0,0,1.148,14.9a2.647,2.647,0,0,0-.466,1.5v.682a2.666,2.666,0,0,0,1.846,2.533v10.76a.815.815,0,0,0,1.631,0V19.747H14.332a.757.757,0,0,1,.756.756V32.616a4.17,4.17,0,0,0,3.086,4.022l.566.152a3.724,3.724,0,0,1,2.672,2.81H19.668a2.39,2.39,0,0,0-2.387,2.387v10.99a1.032,1.032,0,0,1-1.03,1.03h-.682a1.031,1.031,0,0,1-1.03-1.03V49.2a.815.815,0,0,0-1.631,0v4.454a1.031,1.031,0,0,1-1.03,1.03H11.2a1.032,1.032,0,0,1-1.03-1.03V49.2a.815.815,0,0,0-1.631,0v3.773a1.031,1.031,0,0,1-1.03,1.03H6.822a1.031,1.031,0,0,1-1.03-1.03c0-3.737,0,.055,0-3.773a.815.815,0,0,0-1.631,0c0,1.555,0,2.06,0,2.044a.657.657,0,0,1-.656.65H2.756a.657.657,0,0,1-.656-.656V42.483a5.735,5.735,0,0,1,1.132-3.436,4.765,4.765,0,0,0,.925-2.816V34.185a.815.815,0,0,0-1.631,0v2.046a3.123,3.123,0,0,1-.605,1.846A7.355,7.355,0,0,0,.47,42.483v8.759a2.289,2.289,0,0,0,2.287,2.287h.749a2.279,2.279,0,0,0,.693-.107,2.665,2.665,0,0,0,2.624,2.216H7.5a2.646,2.646,0,0,0,1.5-.466A2.66,2.66,0,0,0,11.2,56.319h.682a2.66,2.66,0,0,0,2.188-1.148,2.646,2.646,0,0,0,1.5.466h.682a2.666,2.666,0,0,0,2.533-1.846h6.884a1.167,1.167,0,0,0,.919.448h3.758a1.167,1.167,0,0,0,.919-.448h4.131a3.122,3.122,0,0,1,1.846.605,7.356,7.356,0,0,0,4.406,1.452h8.759a2.289,2.289,0,0,0,2.287-2.287v-.749a2.28,2.28,0,0,0-.107-.693A2.665,2.665,0,0,0,54.8,49.5v-.682a2.647,2.647,0,0,0-.466-1.5,2.66,2.66,0,0,0,1.148-2.188v-.682a2.66,2.66,0,0,0-1.148-2.188,2.647,2.647,0,0,0,.466-1.5v-.682a2.666,2.666,0,0,0-1.846-2.533V32.114h.975a1.736,1.736,0,0,0,1.734-1.734V24.642a1.736,1.736,0,0,0-1.734-1.734ZM40.4,27.511a5.465,5.465,0,1,1,5.465,5.465A5.472,5.472,0,0,1,40.4,27.511ZM39.233,3.147h.682a1.032,1.032,0,0,1,1.03,1.03V7.951a.815.815,0,0,0,1.631,0V3.5a1.031,1.031,0,0,1,1.03-1.03h.682a1.031,1.031,0,0,1,1.03,1.03V7.951a.815.815,0,0,0,1.631,0V4.178a1.032,1.032,0,0,1,1.03-1.03h.682a1.031,1.031,0,0,1,1.03,1.03V7.951a.815.815,0,1,0,1.631,0V5.912a.657.657,0,0,1,.656-.656h.749a.657.657,0,0,1,.656.656v8.759a5.736,5.736,0,0,1-1.132,3.436,4.764,4.764,0,0,0-.926,2.816v1.984h-.069a7.087,7.087,0,0,0-10.793,0h-.4a4.167,4.167,0,0,0-2.754-2.392l-.566-.152a3.724,3.724,0,0,1-2.672-2.81h1.745A2.39,2.39,0,0,0,38.2,15.167V4.178a1.031,1.031,0,0,1,1.03-1.03Zm-11.1,1.846h8.439V15.167a.757.757,0,0,1-.756.756H28.133ZM25.294,3.54a.6.6,0,0,1,1.208,0V17.377a.6.6,0,0,1-1.208,0ZM19.163,35.214l-.566-.152a2.537,2.537,0,0,1-1.878-2.447V23.9A5.357,5.357,0,0,0,21.1,20l.152-.566a2.537,2.537,0,0,1,2.414-1.877,2.235,2.235,0,0,0,4.456,0h4.289a5.358,5.358,0,0,0,3.907,4.385l.566.152a2.533,2.533,0,0,1,1.283.816h-.38a1.736,1.736,0,0,0-1.734,1.734v.851a.815.815,0,0,0,1.631,0v-.851a.1.1,0,0,1,.1-.1h1.628a7.089,7.089,0,0,0,0,5.945H37.79a.1.1,0,0,1-.1-.1V29.3a.815.815,0,0,0-1.631,0V30.38a1.736,1.736,0,0,0,1.734,1.734h.975v1.135a5.357,5.357,0,0,0-4.385,3.907l-.152.566A2.537,2.537,0,0,1,31.781,39.6h-.518a1.167,1.167,0,0,0-.919-.448H26.587a1.167,1.167,0,0,0-.919.448h-2.6a5.358,5.358,0,0,0-3.907-4.385Zm6.256,6.016V52.161H18.911V41.986a.757.757,0,0,1,.756-.756h5.75Zm1.631-.448h2.833V52.608H27.049Zm25.092,1H48.368a.815.815,0,0,0,0,1.631h4.455a1.031,1.031,0,0,1,1.03,1.03v.682a1.032,1.032,0,0,1-1.03,1.03H48.368a.815.815,0,0,0,0,1.631h3.773a1.031,1.031,0,0,1,1.03,1.03V49.5a1.031,1.031,0,0,1-1.03,1.03H48.368a.815.815,0,0,0,0,1.631h2.038a.657.657,0,0,1,.656.656v.749a.657.657,0,0,1-.656.656H41.647a5.735,5.735,0,0,1-3.436-1.132,4.764,4.764,0,0,0-2.816-.925H31.513V41.23h.268A4.169,4.169,0,0,0,35.8,38.144l.152-.566a3.724,3.724,0,0,1,2.788-2.668l.021,1.74a2.39,2.39,0,0,0,2.387,2.387H52.141a1.031,1.031,0,0,1,1.03,1.03v.682A1.032,1.032,0,0,1,52.141,41.78Zm-.815-4.373H41.152a.759.759,0,0,1-.756-.758V32.114h.069a7.087,7.087,0,0,0,10.793,0h.069v5.293Zm2.709-7.028a.1.1,0,0,1-.1.1H52.3a7.09,7.09,0,0,0,0-5.945h1.628a.1.1,0,0,1,.1.1Z"/>
    </g>
  </g>
</svg>
