<svg xmlns="http://www.w3.org/2000/svg" xmlns:xlink="http://www.w3.org/1999/xlink" width="108" height="108" viewBox="0 0 108 108">
  <defs>
    <filter id="Trazado_982547" x="0" y="0" width="108" height="108" filterUnits="userSpaceOnUse">
      <feOffset dy="3" input="SourceAlpha"/>
      <feGaussianBlur stdDeviation="3" result="blur"/>
      <feFlood flood-opacity="0.161"/>
      <feComposite operator="in" in2="blur"/>
      <feComposite in="SourceGraphic"/>
    </filter>
  </defs>
  <g id="Grupo_1160007" data-name="Grupo 1160007" transform="translate(-188 -2593)">
    <g id="Grupo_1158940" data-name="Grupo 1158940" transform="translate(-428 -1317)">
      <g id="Grupo_1153177" data-name="Grupo 1153177" transform="translate(362 3397)">
        <g id="Grupo_1149598" data-name="Grupo 1149598" transform="translate(80 315)">
          <g id="Grupo_1148770" data-name="Grupo 1148770" transform="translate(-27 -2583)">
            <g id="Grupo_1146954" data-name="Grupo 1146954" transform="translate(-415 -1202)">
              <g transform="matrix(1, 0, 0, 1, 616, 3983)" filter="url(#Trazado_982547)">
                <g id="Trazado_982547-2" data-name="Trazado 982547" transform="translate(9 6)" fill="#fef4f5">
                  <path d="M 45 88.5 C 39.12687683105469 88.5 33.43022537231445 87.35007476806641 28.06830024719238 85.08217620849609 C 22.88852500915527 82.89131164550781 18.23629951477051 79.75458526611328 14.2408504486084 75.75914764404297 C 10.24541282653809 71.76370239257812 7.108687400817871 67.11147308349609 4.917825222015381 61.93170166015625 C 2.649924993515015 56.56977462768555 1.5 50.87312316894531 1.5 45 C 1.5 39.12687683105469 2.649924993515015 33.43022537231445 4.917825222015381 28.06830024719238 C 7.108687400817871 22.88852500915527 10.24541282653809 18.23629951477051 14.2408504486084 14.2408504486084 C 18.23629951477051 10.24541282653809 22.88852500915527 7.108687400817871 28.06830024719238 4.917825222015381 C 33.43022537231445 2.649924993515015 39.12687683105469 1.5 45 1.5 C 50.87312316894531 1.5 56.56977462768555 2.649924993515015 61.93170166015625 4.917825222015381 C 67.11147308349609 7.108687400817871 71.76370239257812 10.24541282653809 75.75914764404297 14.2408504486084 C 79.75458526611328 18.23629951477051 82.89131164550781 22.88852500915527 85.08217620849609 28.06830024719238 C 87.35007476806641 33.43022537231445 88.5 39.12687683105469 88.5 45 C 88.5 50.87312316894531 87.35007476806641 56.56977462768555 85.08217620849609 61.93170166015625 C 82.89131164550781 67.11147308349609 79.75458526611328 71.76370239257812 75.75914764404297 75.75914764404297 C 71.76370239257812 79.75458526611328 67.11147308349609 82.89131164550781 61.93170166015625 85.08217620849609 C 56.56977462768555 87.35007476806641 50.87312316894531 88.5 45 88.5 Z" stroke="none"/>
                  <path d="M 45 3 C 39.32871246337891 3 33.82865524291992 4.110054016113281 28.65262985229492 6.299339294433594 C 23.65165710449219 8.414573669433594 19.15968322753906 11.44334411621094 15.301513671875 15.301513671875 C 11.44334411621094 19.15968322753906 8.414573669433594 23.65165710449219 6.299339294433594 28.65262985229492 C 4.110054016113281 33.82865524291992 3 39.32871246337891 3 45 C 3 50.67128753662109 4.110054016113281 56.17134475708008 6.299339294433594 61.34737396240234 C 8.414573669433594 66.34834289550781 11.44334411621094 70.84031677246094 15.301513671875 74.698486328125 C 19.15968322753906 78.55665588378906 23.65165710449219 81.58542633056641 28.65262985229492 83.70066070556641 C 33.82865524291992 85.88994598388672 39.32871246337891 87 45 87 C 50.67128753662109 87 56.17134475708008 85.88994598388672 61.34737396240234 83.70066070556641 C 66.34834289550781 81.58542633056641 70.84031677246094 78.55665588378906 74.698486328125 74.698486328125 C 78.55665588378906 70.84031677246094 81.58542633056641 66.34834289550781 83.70066070556641 61.34737396240234 C 85.88994598388672 56.17134475708008 87 50.67128753662109 87 45 C 87 39.32871246337891 85.88994598388672 33.82865524291992 83.70066070556641 28.65262985229492 C 81.58542633056641 23.65165710449219 78.55665588378906 19.15968322753906 74.698486328125 15.301513671875 C 70.84031677246094 11.44334411621094 66.34834289550781 8.414573669433594 61.34737396240234 6.299339294433594 C 56.17134475708008 4.110054016113281 50.67128753662109 3 45 3 M 45 0 C 69.85281372070312 0 90 20.14718627929688 90 45 C 90 69.85281372070312 69.85281372070312 90 45 90 C 20.14718627929688 90 0 69.85281372070312 0 45 C 0 20.14718627929688 20.14718627929688 0 45 0 Z" stroke="none" fill="#ff7f8f"/>
                </g>
              </g>
            </g>
          </g>
        </g>
      </g>
    </g>
    <g id="apoyo-tecnico_1_" data-name="apoyo-tecnico (1)" transform="translate(212 2608.847)">
      <g id="Grupo_1159975" data-name="Grupo 1159975" transform="translate(40.192 11.176)">
        <g id="Grupo_1159973" data-name="Grupo 1159973" transform="translate(0 0)">
          <path id="Trazado_996809" data-name="Trazado 996809" d="M366.3,58.694A9.014,9.014,0,1,0,355,67.415a1.188,1.188,0,0,1,.784.676l1.172,2.674a.36.36,0,0,0,.659,0l1.172-2.674a1.187,1.187,0,0,1,.783-.676A9.017,9.017,0,0,0,366.3,58.694Z" transform="translate(-348.274 -49.68)" fill="#ffe177"/>
        </g>
        <g id="Grupo_1159974" data-name="Grupo 1159974" transform="translate(2.03 0.404)">
          <path id="Trazado_996810" data-name="Trazado 996810" d="M375.52,53.18a8.654,8.654,0,0,1-9.652,14.307,9.019,9.019,0,0,0,4.7,3.024,1.188,1.188,0,0,1,.784.676l1.172,2.674a.36.36,0,0,0,.659,0l1.172-2.674a1.187,1.187,0,0,1,.783-.676,9.015,9.015,0,0,0,.384-17.332Z" transform="translate(-365.868 -53.18)" fill="#ffd15b"/>
        </g>
      </g>
      <g id="Grupo_1159990" data-name="Grupo 1159990" transform="translate(1.895 7.019)">
        <g id="Grupo_1159976" data-name="Grupo 1159976" transform="translate(9.028 0)">
          <path id="Trazado_996811" data-name="Trazado 996811" d="M96.417,29.041h1.135v-.778a3.059,3.059,0,0,1,3.059-3.059h13.516a3.059,3.059,0,0,1,3.059,3.059v.778h1.135a3.33,3.33,0,0,1,1.764.5V25.151a11.5,11.5,0,0,0-11.5-11.5h-2.434a11.5,11.5,0,0,0-11.5,11.5v4.393A3.329,3.329,0,0,1,96.417,29.041Z" transform="translate(-94.654 -13.653)" fill="#bb5d4c"/>
        </g>
        <g id="Grupo_1159978" data-name="Grupo 1159978" transform="translate(21.961 0)">
          <g id="Grupo_1159977" data-name="Grupo 1159977">
            <path id="Trazado_996812" data-name="Trazado 996812" d="M207.723,13.653h-1a11.493,11.493,0,0,1,5.687,9.923V25.2h.853a3.059,3.059,0,0,1,3.059,3.059v.778h1.135a3.33,3.33,0,0,1,1.764.5V25.151A11.5,11.5,0,0,0,207.723,13.653Z" transform="translate(-206.724 -13.653)" fill="#a44f3e"/>
          </g>
        </g>
        <path id="Trazado_996813" data-name="Trazado 996813" d="M37.689,311.906l-.115-.282-6.252,5.531a.555.555,0,0,1-.922-.415v-6.8L23.785,312.1a1.773,1.773,0,0,1,.038.329,1.848,1.848,0,0,1-1.334,1.807,1.847,1.847,0,0,1,0,3.55,1.847,1.847,0,0,1,0,3.55,1.848,1.848,0,0,1,1.334,1.807,1.889,1.889,0,0,1-1.91,1.817H18.55a3.145,3.145,0,0,1-2.127-.824v5.743a1.8,1.8,0,0,0,1.8,1.8H37.689Z" transform="translate(-16.423 -275.745)" fill="#26a6fe"/>
        <g id="Grupo_1159989" data-name="Grupo 1159989" transform="translate(7.32 11.431)">
          <g id="Grupo_1159988" data-name="Grupo 1159988">
            <g id="Grupo_1159987" data-name="Grupo 1159987">
              <g id="Grupo_1159986" data-name="Grupo 1159986">
                <g id="Grupo_1159985" data-name="Grupo 1159985">
                  <g id="Grupo_1159981" data-name="Grupo 1159981" transform="translate(0 3.837)">
                    <g id="Grupo_1159979" data-name="Grupo 1159979">
                      <path id="Trazado_996814" data-name="Trazado 996814" d="M84.339,153.207v-7.25H83.324a3.471,3.471,0,0,0-3.472,3.472v1.045a3.472,3.472,0,0,0,3.472,3.472h1.051C84.351,153.7,84.339,153.456,84.339,153.207Z" transform="translate(-79.852 -145.957)" fill="#ffcebf"/>
                    </g>
                    <g id="Grupo_1159980" data-name="Grupo 1159980" transform="translate(24.324)">
                      <path id="Trazado_996815" data-name="Trazado 996815" d="M291.679,145.957h-1.015v7.25c0,.249-.013.5-.036.739h1.051a3.472,3.472,0,0,0,3.472-3.472v-1.045A3.472,3.472,0,0,0,291.679,145.957Z" transform="translate(-290.628 -145.957)" fill="#ffb09e"/>
                    </g>
                  </g>
                  <g id="Grupo_1159984" data-name="Grupo 1159984" transform="translate(4.487)">
                    <g id="Grupo_1159983" data-name="Grupo 1159983">
                      <path id="Trazado_996816" data-name="Trazado 996816" d="M144.711,270.568a1.207,1.207,0,0,1,.024-.238H143a7.478,7.478,0,0,1-2.6-.466l-2.076,1.513a1.907,1.907,0,0,0-.784,1.542v8.373a.555.555,0,0,0,.922.415l6.251-5.531Z" transform="translate(-135.366 -251.728)" fill="#fff"/>
                      <path id="Trazado_996817" data-name="Trazado 996817" d="M168.062,271.134a1.207,1.207,0,0,1,.022-.229h-1.732a7.492,7.492,0,0,1-2.418-.4v2.877a.555.555,0,0,0,.18.409l3.947,3.617Z" transform="translate(-158.718 -252.294)" fill="#ffcebf"/>
                      <path id="Trazado_996818" data-name="Trazado 996818" d="M129.279,130.343H134.9A7.63,7.63,0,0,0,138.6,123.8v-7.908a3.179,3.179,0,0,0-3.179-3.179H121.908a3.179,3.179,0,0,0-3.179,3.179V123.8a7.635,7.635,0,0,0,7.635,7.635h1.715A1.206,1.206,0,0,1,129.279,130.343Z" transform="translate(-118.729 -112.709)" fill="#ffdfcf"/>
                      <g id="Grupo_1159982" data-name="Grupo 1159982" transform="translate(12.019)">
                        <path id="Trazado_996819" data-name="Trazado 996819" d="M226.587,115.887v7.908a7.63,7.63,0,0,1-3.707,6.547h4.148a7.63,7.63,0,0,0,3.707-6.547v-7.908a3.179,3.179,0,0,0-3.179-3.179h-4.148A3.179,3.179,0,0,1,226.587,115.887Z" transform="translate(-222.88 -112.708)" fill="#ffcebf"/>
                      </g>
                    </g>
                  </g>
                </g>
              </g>
            </g>
          </g>
        </g>
      </g>
      <g id="Grupo_1159996" data-name="Grupo 1159996" transform="translate(11.443 36.084)">
        <g id="Grupo_1159991" data-name="Grupo 1159991" transform="translate(0 22.714)">
          <path id="Trazado_996820" data-name="Trazado 996820" d="M110.882,462.337h-9.914a1.809,1.809,0,0,0-1.809,1.809v2.347h11.723Z" transform="translate(-99.159 -462.337)" fill="#465a61"/>
        </g>
        <g id="Grupo_1159992" data-name="Grupo 1159992" transform="translate(11.603)">
          <path id="Trazado_996821" data-name="Trazado 996821" d="M233.066,292.384H199.7V266.72a1.206,1.206,0,0,1,1.206-1.206h32.763a1.206,1.206,0,0,1,1.206,1.206v23.855A1.809,1.809,0,0,1,233.066,292.384Z" transform="translate(-199.7 -265.514)" fill="#596c76"/>
        </g>
        <g id="Grupo_1159993" data-name="Grupo 1159993" transform="translate(41.103 0)">
          <path id="Trazado_996822" data-name="Trazado 996822" d="M459.8,265.514H455.93a1.206,1.206,0,0,1,1.206,1.206v23.855a1.809,1.809,0,0,1-1.809,1.809h3.866A1.809,1.809,0,0,0,461,290.575V266.72A1.206,1.206,0,0,0,459.8,265.514Z" transform="translate(-455.327 -265.514)" fill="#465a61"/>
        </g>
        <g id="Grupo_1159994" data-name="Grupo 1159994" transform="translate(23.938 11.358)">
          <path id="Trazado_996823" data-name="Trazado 996823" d="M315.019,368.091h-6.351a2.076,2.076,0,0,1,0-4.153h6.351a2.076,2.076,0,0,1,0,4.153Z" transform="translate(-306.592 -363.938)" fill="#6cf5c2"/>
        </g>
        <g id="Grupo_1159995" data-name="Grupo 1159995" transform="translate(28.487 11.359)">
          <path id="Trazado_996824" data-name="Trazado 996824" d="M349.887,363.939h-3.878a2.076,2.076,0,1,1,0,4.153h3.878a2.076,2.076,0,0,0,0-4.153Z" transform="translate(-346.009 -363.939)" fill="#00f2a6"/>
        </g>
      </g>
      <g id="Grupo_1160005" data-name="Grupo 1160005" transform="translate(0.866 35.209)">
        <g id="Grupo_1159997" data-name="Grupo 1159997" transform="translate(1.214 0)">
          <path id="Trazado_996825" data-name="Trazado 996825" d="M19.961,264.73h2.483v-3.761A3.039,3.039,0,0,0,19.4,257.93a1.386,1.386,0,0,0-1.386,1.386v6.119A3.023,3.023,0,0,1,19.961,264.73Z" transform="translate(-18.018 -257.93)" fill="#ffcebf"/>
        </g>
        <g id="Grupo_1159999" data-name="Grupo 1159999" transform="translate(1.778 0)">
          <g id="Grupo_1159998" data-name="Grupo 1159998" transform="translate(0)">
            <path id="Trazado_996826" data-name="Trazado 996826" d="M23.726,257.929a1.378,1.378,0,0,0-.822.272,3.039,3.039,0,0,1,1.783,2.767v3.761h2.079v-3.761A3.039,3.039,0,0,0,23.726,257.929Z" transform="translate(-22.904 -257.929)" fill="#ffb09e"/>
          </g>
        </g>
        <g id="Grupo_1160003" data-name="Grupo 1160003" transform="translate(0 6.68)">
          <g id="Grupo_1160002" data-name="Grupo 1160002">
            <g id="Grupo_1160001" data-name="Grupo 1160001">
              <g id="Grupo_1160000" data-name="Grupo 1160000">
                <path id="Trazado_996827" data-name="Trazado 996827" d="M15.93,321.214A1.848,1.848,0,0,0,14.6,319.44a1.848,1.848,0,0,0,1.334-1.807,1.889,1.889,0,0,0-1.91-1.817H10.657A3.157,3.157,0,0,0,7.5,318.973v8.032a3.157,3.157,0,0,0,3.157,3.157H14.02a1.889,1.889,0,0,0,1.91-1.817,1.848,1.848,0,0,0-1.334-1.807,1.847,1.847,0,0,0,0-3.55A1.849,1.849,0,0,0,15.93,321.214Z" transform="translate(-7.5 -315.816)" fill="#ffdfcf"/>
              </g>
            </g>
          </g>
        </g>
        <g id="Grupo_1160004" data-name="Grupo 1160004" transform="translate(2.455 6.68)">
          <path id="Trazado_996828" data-name="Trazado 996828" d="M34.75,324.764a1.848,1.848,0,0,0-1.335-1.775,1.847,1.847,0,0,0,0-3.55,1.848,1.848,0,0,0,1.334-1.807,1.889,1.889,0,0,0-1.91-1.817H29.477a3.16,3.16,0,0,0-.7.079,3.158,3.158,0,0,1,2.455,3.078v8.032a3.157,3.157,0,0,1-2.455,3.078,3.168,3.168,0,0,0,.7.079H32.84a1.889,1.889,0,0,0,1.91-1.817,1.848,1.848,0,0,0-1.334-1.807A1.849,1.849,0,0,0,34.75,324.764Z" transform="translate(-28.775 -315.816)" fill="#ffcebf"/>
        </g>
      </g>
      <g id="Grupo_1160006" data-name="Grupo 1160006" transform="translate(0 6.153)">
        <path id="Trazado_996829" data-name="Trazado 996829" d="M343.976,53.647a.866.866,0,1,0-1.7.335,9.924,9.924,0,0,0,7.188,7.636.324.324,0,0,1,.21.186l1.172,2.674a1.226,1.226,0,0,0,2.245,0l1.172-2.674a.323.323,0,0,1,.209-.185,9.88,9.88,0,1,0-12.058-12.064.866.866,0,0,0,1.674.442,8.2,8.2,0,0,1,7.684-6.084,8.149,8.149,0,0,1,2.263,16.03,2.04,2.04,0,0,0-1.357,1.166l-.709,1.617-.709-1.618a2.041,2.041,0,0,0-1.358-1.166,8.183,8.183,0,0,1-5.927-6.3Z" transform="translate(-302.763 -38.022)"/>
        <path id="Trazado_996830" data-name="Trazado 996830" d="M398.761,133.909a1.875,1.875,0,0,1-1.873-1.873.866.866,0,0,0-1.731,0,3.6,3.6,0,1,0,7.208,0,.866.866,0,0,0-1.731,0A1.875,1.875,0,0,1,398.761,133.909Z" transform="translate(-349.555 -116.743)"/>
        <path id="Trazado_996831" data-name="Trazado 996831" d="M394.3,95.574a.865.865,0,0,0-.865.866v.913a.866.866,0,1,0,1.731,0V96.44A.866.866,0,0,0,394.3,95.574Z" transform="translate(-348.03 -85.255)"/>
        <path id="Trazado_996832" data-name="Trazado 996832" d="M445.2,98.218a.866.866,0,0,0,.866-.866V96.44a.866.866,0,1,0-1.731,0v.913A.865.865,0,0,0,445.2,98.218Z" transform="translate(-393.061 -85.255)"/>
        <path id="Trazado_996833" data-name="Trazado 996833" d="M170.369,211.773a3.866,3.866,0,0,0,3.861-3.861.866.866,0,0,0-1.731,0,2.133,2.133,0,0,1-2.13,2.13h-1.461a2.133,2.133,0,0,1-2.13-2.13.866.866,0,0,0-1.731,0,3.866,3.866,0,0,0,3.861,3.861Z" transform="translate(-145.999 -183.862)"/>
        <path id="Trazado_996834" data-name="Trazado 996834" d="M154.937,144.656v-1.863a.866.866,0,0,0-1.731,0v1.863a.866.866,0,0,0,1.731,0Z" transform="translate(-135.526 -126.258)"/>
        <path id="Trazado_996835" data-name="Trazado 996835" d="M242.33,145.521a.865.865,0,0,0,.865-.866v-1.863a.866.866,0,1,0-1.731,0v1.863a.865.865,0,0,0,.866.866Z" transform="translate(-213.598 -126.258)"/>
        <path id="Trazado_996836" data-name="Trazado 996836" d="M187.251,158.2a.866.866,0,0,0,0-1.731.563.563,0,1,1,0-1.126.866.866,0,0,0,0-1.731,2.294,2.294,0,1,0,0,4.588Z" transform="translate(-163.612 -136.598)"/>
        <path id="Trazado_996837" data-name="Trazado 996837" d="M308.385,356.438h-6.351a2.942,2.942,0,1,0,0,5.884h6.351a2.942,2.942,0,1,0,0-5.884Zm0,4.153h-6.351a1.211,1.211,0,1,1,0-2.422h6.351a1.211,1.211,0,1,1,0,2.422Z" transform="translate(-264.576 -316.014)"/>
        <path id="Trazado_996838" data-name="Trazado 996838" d="M57.015,35.219H32.257a8.482,8.482,0,0,0,2.032-4.078h.3A4.342,4.342,0,0,0,38.927,26.8V25.758a4.332,4.332,0,0,0-1.708-3.446v-3.8A12.378,12.378,0,0,0,24.856,6.153H22.421a12.3,12.3,0,0,0-6.888,2.1A.865.865,0,1,0,16.5,9.685a10.579,10.579,0,0,1,5.922-1.8h2.434A10.645,10.645,0,0,1,35.488,18.517v3a4.338,4.338,0,0,0-.9-.094h-.155A4.05,4.05,0,0,0,30.4,17.584H16.881a4.049,4.049,0,0,0-4.039,3.837h-.155a4.338,4.338,0,0,0-.9.094v-3A10.553,10.553,0,0,1,13.81,12.28a.866.866,0,0,0-1.4-1.017,12.273,12.273,0,0,0-2.351,7.253v3.8A4.332,4.332,0,0,0,8.35,25.758V26.8a4.342,4.342,0,0,0,4.337,4.337h.3a8.525,8.525,0,0,0,3.96,5.674l-.8.585a2.781,2.781,0,0,0-1.14,2.241v.943L9.741,42.308a2.8,2.8,0,0,0-2.355-1.284H7.371V38.248a3.909,3.909,0,0,0-3.9-3.9A2.254,2.254,0,0,0,1.214,36.6V42.17A4.01,4.01,0,0,0,0,45.046v8.032a4.006,4.006,0,0,0,1.03,2.684v5.391A2.668,2.668,0,0,0,3.7,63.819H56.412a2.677,2.677,0,0,0,2.674-2.674V37.29a2.073,2.073,0,0,0-2.071-2.071ZM34.441,23.152h.149A2.609,2.609,0,0,1,37.2,25.758V26.8A2.609,2.609,0,0,1,34.59,29.41h-.149Zm-21.6,6.257h-.149A2.609,2.609,0,0,1,10.081,26.8V25.758a2.609,2.609,0,0,1,2.606-2.606h.149Zm1.731.127V21.629a2.316,2.316,0,0,1,2.313-2.313H30.4a2.316,2.316,0,0,1,2.313,2.313v7.908a6.768,6.768,0,0,1-3.1,5.682H24.252a2.073,2.073,0,0,0-1.822,1.088H21.337a6.777,6.777,0,0,1-6.77-6.77Zm7.613,8.5V41.6l-2.4-2.2V37.893a8.5,8.5,0,0,0,1.553.145h.844Zm-5.443,1.6a1.045,1.045,0,0,1,.428-.842l.887-.646v1.385a1.424,1.424,0,0,0,.461,1.047l2.869,2.629-4.645,4.11V39.64ZM2.945,36.6a.521.521,0,0,1,.521-.521A2.176,2.176,0,0,1,5.64,38.248v2.775H4.023a4.007,4.007,0,0,0-1.078.148ZM1.731,53.078V45.046a2.294,2.294,0,0,1,2.291-2.291H7.386a1.02,1.02,0,0,1,1.045.966.985.985,0,0,1-.709.961.866.866,0,0,0,0,1.663.982.982,0,0,1,0,1.887.866.866,0,0,0,0,1.663.982.982,0,0,1,0,1.887.866.866,0,0,0,0,1.663.984.984,0,0,1,.709.961,1.02,1.02,0,0,1-1.045.966H4.023a2.294,2.294,0,0,1-2.291-2.291Zm20.449,9.01H12.309V60.607a.944.944,0,0,1,.943-.943h8.929Zm35.175-.943a.944.944,0,0,1-.943.943h-32.5V54.72a.866.866,0,0,0-1.731,0v3.212H13.252a2.677,2.677,0,0,0-2.674,2.674v1.481H3.7a.935.935,0,0,1-.934-.934V56.9a4,4,0,0,0,1.262.2H7.386a2.759,2.759,0,0,0,2.775-2.668A2.713,2.713,0,0,0,9.5,52.611a2.7,2.7,0,0,0,0-3.548,2.7,2.7,0,0,0,0-3.548A2.717,2.717,0,0,0,10.147,44l4.86-1.592v5.609a1.42,1.42,0,0,0,2.361,1.064l4.812-4.258v5.862a.866.866,0,0,0,1.731,0V37.29a.341.341,0,0,1,.34-.34H57.015a.341.341,0,0,1,.34.34Z" transform="translate(0 -6.153)"/>
      </g>
    </g>
  </g>
</svg>
