<svg xmlns="http://www.w3.org/2000/svg" xmlns:xlink="http://www.w3.org/1999/xlink" width="108" height="108" viewBox="0 0 108 108">
  <defs>
    <filter id="Trazado_982547" x="0" y="0" width="108" height="108" filterUnits="userSpaceOnUse">
      <feOffset dy="3" input="SourceAlpha"/>
      <feGaussianBlur stdDeviation="3" result="blur"/>
      <feFlood flood-opacity="0.161"/>
      <feComposite operator="in" in2="blur"/>
      <feComposite in="SourceGraphic"/>
    </filter>
  </defs>
  <g id="Grupo_1160062" data-name="Grupo 1160062" transform="translate(-171 -4952)">
    <g id="Grupo_1158954" data-name="Grupo 1158954" transform="translate(0 3392)">
      <g id="Grupo_1153955" data-name="Grupo 1153955" transform="translate(-83 1047)">
        <g id="Grupo_1149598" data-name="Grupo 1149598" transform="translate(80 315)">
          <g id="Grupo_1148770" data-name="Grupo 1148770" transform="translate(-27 -2583)">
            <g id="Grupo_1146954" data-name="Grupo 1146954" transform="translate(-415 -1202)">
              <g transform="matrix(1, 0, 0, 1, 616, 3983)" filter="url(#Trazado_982547)">
                <g id="Trazado_982547-2" data-name="Trazado 982547" transform="translate(9 6)" fill="#fef4f5">
                  <path d="M 45 88.5 C 39.12687683105469 88.5 33.43022537231445 87.35007476806641 28.06830024719238 85.08217620849609 C 22.88852500915527 82.89131164550781 18.23629951477051 79.75458526611328 14.2408504486084 75.75914764404297 C 10.24541282653809 71.76370239257812 7.108687400817871 67.11147308349609 4.917825222015381 61.93170166015625 C 2.649924993515015 56.56977462768555 1.5 50.87312316894531 1.5 45 C 1.5 39.12687683105469 2.649924993515015 33.43022537231445 4.917825222015381 28.06830024719238 C 7.108687400817871 22.88852500915527 10.24541282653809 18.23629951477051 14.2408504486084 14.2408504486084 C 18.23629951477051 10.24541282653809 22.88852500915527 7.108687400817871 28.06830024719238 4.917825222015381 C 33.43022537231445 2.649924993515015 39.12687683105469 1.5 45 1.5 C 50.87312316894531 1.5 56.56977462768555 2.649924993515015 61.93170166015625 4.917825222015381 C 67.11147308349609 7.108687400817871 71.76370239257812 10.24541282653809 75.75914764404297 14.2408504486084 C 79.75458526611328 18.23629951477051 82.89131164550781 22.88852500915527 85.08217620849609 28.06830024719238 C 87.35007476806641 33.43022537231445 88.5 39.12687683105469 88.5 45 C 88.5 50.87312316894531 87.35007476806641 56.56977462768555 85.08217620849609 61.93170166015625 C 82.89131164550781 67.11147308349609 79.75458526611328 71.76370239257812 75.75914764404297 75.75914764404297 C 71.76370239257812 79.75458526611328 67.11147308349609 82.89131164550781 61.93170166015625 85.08217620849609 C 56.56977462768555 87.35007476806641 50.87312316894531 88.5 45 88.5 Z" stroke="none"/>
                  <path d="M 45 3 C 39.32871246337891 3 33.82865524291992 4.110054016113281 28.65262985229492 6.299339294433594 C 23.65165710449219 8.414573669433594 19.15968322753906 11.44334411621094 15.301513671875 15.301513671875 C 11.44334411621094 19.15968322753906 8.414573669433594 23.65165710449219 6.299339294433594 28.65262985229492 C 4.110054016113281 33.82865524291992 3 39.32871246337891 3 45 C 3 50.67128753662109 4.110054016113281 56.17134475708008 6.299339294433594 61.34737396240234 C 8.414573669433594 66.34834289550781 11.44334411621094 70.84031677246094 15.301513671875 74.698486328125 C 19.15968322753906 78.55665588378906 23.65165710449219 81.58542633056641 28.65262985229492 83.70066070556641 C 33.82865524291992 85.88994598388672 39.32871246337891 87 45 87 C 50.67128753662109 87 56.17134475708008 85.88994598388672 61.34737396240234 83.70066070556641 C 66.34834289550781 81.58542633056641 70.84031677246094 78.55665588378906 74.698486328125 74.698486328125 C 78.55665588378906 70.84031677246094 81.58542633056641 66.34834289550781 83.70066070556641 61.34737396240234 C 85.88994598388672 56.17134475708008 87 50.67128753662109 87 45 C 87 39.32871246337891 85.88994598388672 33.82865524291992 83.70066070556641 28.65262985229492 C 81.58542633056641 23.65165710449219 78.55665588378906 19.15968322753906 74.698486328125 15.301513671875 C 70.84031677246094 11.44334411621094 66.34834289550781 8.414573669433594 61.34737396240234 6.299339294433594 C 56.17134475708008 4.110054016113281 50.67128753662109 3 45 3 M 45 0 C 69.85281372070312 0 90 20.14718627929688 90 45 C 90 69.85281372070312 69.85281372070312 90 45 90 C 20.14718627929688 90 0 69.85281372070312 0 45 C 0 20.14718627929688 20.14718627929688 0 45 0 Z" stroke="none" fill="#ff7f8f"/>
                </g>
              </g>
            </g>
          </g>
        </g>
      </g>
    </g>
    <g id="educacion-a-distancia_1_" data-name="educacion-a-distancia (1)" transform="translate(197 4975)">
      <g id="Grupo_1160060" data-name="Grupo 1160060" transform="translate(0.903 0.903)">
        <g id="Grupo_1160044" data-name="Grupo 1160044" transform="translate(10.839 45.459)">
          <path id="Trazado_997112" data-name="Trazado 997112" d="M21.734,60.064H13V51.33A8.735,8.735,0,0,0,21.734,60.064Z" transform="translate(-13 -51.33)" fill="#fcd770"/>
        </g>
        <g id="Grupo_1160045" data-name="Grupo 1160045" transform="translate(10.839 41.548)">
          <path id="Trazado_997113" data-name="Trazado 997113" d="M21.129,52.419h6.323v7.226H21.734A8.735,8.735,0,0,1,13,50.911a3.91,3.91,0,0,1,7.768-.641Z" transform="translate(-13 -47)" fill="#fcd770"/>
        </g>
        <g id="Grupo_1160046" data-name="Grupo 1160046" transform="translate(7.226 43.355)">
          <path id="Trazado_997114" data-name="Trazado 997114" d="M12.613,51.1v8.734H9V49.9a.906.906,0,0,1,.9-.9H11.71a.906.906,0,0,1,.9.9Z" transform="translate(-9 -49)" fill="#838f9b"/>
        </g>
        <g id="Grupo_1160047" data-name="Grupo 1160047" transform="translate(25.29 50.581)">
          <path id="Trazado_997115" data-name="Trazado 997115" d="M45.258,57l-.56,2.249a1.8,1.8,0,0,1-1.752,1.364H29V57H45.258Z" transform="translate(-29 -57)" fill="#aab2bd"/>
        </g>
        <g id="Grupo_1160048" data-name="Grupo 1160048" transform="translate(37.032 34.323)">
          <path id="Trazado_997116" data-name="Trazado 997116" d="M50.129,40.608a1.828,1.828,0,0,1-.045.388L46.516,55.258H42l4.191-15.084a1.586,1.586,0,0,1,.569-.849A1.624,1.624,0,0,1,47.735,39h.786A1.611,1.611,0,0,1,50.129,40.608Z" transform="translate(-42 -39)" fill="#ccd1d9"/>
        </g>
        <g id="Grupo_1160049" data-name="Grupo 1160049" transform="translate(23.484)">
          <path id="Trazado_997117" data-name="Trazado 997117" d="M41.452,1a16.259,16.259,0,0,1,3.288,32.182,16.434,16.434,0,0,1-3.288.334,16.217,16.217,0,0,1-9.2-2.854A1.8,1.8,0,0,0,30.613,28.1V22.677A9.026,9.026,0,0,0,27,15.452V11.839h2.71a.906.906,0,0,0,.9-.9V9.129a.906.906,0,0,0-.9-.9H27.93A16.255,16.255,0,0,1,41.452,1Z" transform="translate(-27 -1)" fill="#69d6f4"/>
        </g>
        <g id="Grupo_1160050" data-name="Grupo 1160050" transform="translate(11.742 3.613)">
          <path id="Trazado_997118" data-name="Trazado 997118" d="M18.959,6.752l.461,1.861H14l.461-1.861a2.319,2.319,0,0,1,4.5,0Z" transform="translate(-14 -5)" fill="#969faa"/>
        </g>
        <g id="Grupo_1160051" data-name="Grupo 1160051" transform="translate(1.806 7.226)">
          <path id="Trazado_997119" data-name="Trazado 997119" d="M28.29,9.9V11.71a.906.906,0,0,1-.9.9H3.9a.906.906,0,0,1-.9-.9V9.9A.906.906,0,0,1,3.9,9H27.387a.906.906,0,0,1,.9.9Z" transform="translate(-3 -9)" fill="#aab2bd"/>
        </g>
        <g id="Grupo_1160052" data-name="Grupo 1160052" transform="translate(5.419 10.839)">
          <path id="Trazado_997120" data-name="Trazado 997120" d="M7,13H25.065v3.613H7Z" transform="translate(-7 -13)" fill="#ccd1d9"/>
        </g>
        <g id="Grupo_1160053" data-name="Grupo 1160053" transform="translate(1.806 14.452)">
          <path id="Trazado_997121" data-name="Trazado 997121" d="M14.643,25.3a9.234,9.234,0,0,1-3.595.732,2.606,2.606,0,0,1-1.861-.768L8.654,24.5l-2.141.858a2.7,2.7,0,0,0-1.707,2.511v1.779H3V24.226a9.3,9.3,0,0,1,.181-1.815,1.811,1.811,0,0,0,1.626-1.8,1.79,1.79,0,0,0-.434-1.174A8.979,8.979,0,0,1,6.613,17H24.677a9.026,9.026,0,0,1,3.613,7.226v5.419H26.484V27.866a2.7,2.7,0,0,0-1.707-2.511l-2.809-1.129-.388.253a9.2,9.2,0,0,1-5.112,1.554,2.581,2.581,0,0,1-1.825-.732Z" transform="translate(-3 -17)" fill="#b27946"/>
        </g>
        <g id="Grupo_1160054" data-name="Grupo 1160054" transform="translate(25.29 46.968)">
          <path id="Trazado_997122" data-name="Trazado 997122" d="M32.613,56.613H29V53A3.612,3.612,0,0,1,32.613,56.613Z" transform="translate(-29 -53)" fill="#f0d0b4"/>
        </g>
        <g id="Grupo_1160055" data-name="Grupo 1160055" transform="translate(25.29 27.097)">
          <path id="Trazado_997123" data-name="Trazado 997123" d="M32.613,32.806a1.8,1.8,0,0,1-.172.759,1.566,1.566,0,0,1-.361.515,1.766,1.766,0,0,1-1.274.533H29V31h1.806A1.812,1.812,0,0,1,32.613,32.806Z" transform="translate(-29 -31)" fill="#f0d0b4"/>
        </g>
        <g id="Grupo_1160056" data-name="Grupo 1160056" transform="translate(0 27.097)">
          <path id="Trazado_997124" data-name="Trazado 997124" d="M4.613,31v3.613H2.806a1.766,1.766,0,0,1-1.274-.533A1.766,1.766,0,0,1,1,32.806,1.812,1.812,0,0,1,2.806,31Z" transform="translate(-1 -31)" fill="#f0d0b4"/>
        </g>
        <g id="Grupo_1160057" data-name="Grupo 1160057" transform="translate(3.613 21.677)">
          <path id="Trazado_997125" data-name="Trazado 997125" d="M8.848,25.271l.533.768a2.606,2.606,0,0,0,1.861.768,9.234,9.234,0,0,0,3.595-.732,2.581,2.581,0,0,0,1.825.732,9.2,9.2,0,0,0,5.112-1.554L22.161,25l2.809,1.129a2.7,2.7,0,0,1,1.707,2.511v5.392a10.815,10.815,0,0,1-10.541,10.83c-.1.009-.2.009-.3.009A10.836,10.836,0,0,1,5,34.032V28.64a2.7,2.7,0,0,1,1.707-2.511Z" transform="translate(-5 -25)" fill="#f0d0b4"/>
        </g>
        <g id="Grupo_1160058" data-name="Grupo 1160058" transform="translate(10.839 34.323)">
          <path id="Trazado_997126" data-name="Trazado 997126" d="M20.226,39l-.244.985a3.473,3.473,0,0,1-6.738,0L13,39Z" transform="translate(-13 -39)" fill="#ff826e"/>
        </g>
        <g id="Grupo_1160059" data-name="Grupo 1160059" transform="translate(0 16.258)">
          <path id="Trazado_997127" data-name="Trazado 997127" d="M4.179,19.632a1.79,1.79,0,0,1,.434,1.174,1.811,1.811,0,0,1-1.626,1.8,1.151,1.151,0,0,1-.181.009,1.806,1.806,0,1,1,1.373-2.981Z" transform="translate(-1 -19)" fill="#fcd770"/>
        </g>
      </g>
      <g id="Grupo_1160061" data-name="Grupo 1160061" transform="translate(0)">
        <path id="Trazado_997128" data-name="Trazado 997128" d="M12.246,40.106a4.373,4.373,0,0,0,8.485,0L21.259,38h-9.54Zm6.695-.3a2.568,2.568,0,0,1-4.9,0Z" transform="translate(-1.134 -3.677)"/>
        <path id="Trazado_997129" data-name="Trazado 997129" d="M11.613,33.613h1.806v-.9A2.71,2.71,0,0,0,8,32.71v.9H9.806v-.9a.9.9,0,0,1,1.806,0Z" transform="translate(-0.774 -2.903)"/>
        <path id="Trazado_997130" data-name="Trazado 997130" d="M22.71,30A2.713,2.713,0,0,0,20,32.71v.9h1.806v-.9a.9.9,0,0,1,1.806,0v.9h1.806v-.9A2.713,2.713,0,0,0,22.71,30Z" transform="translate(-1.935 -2.903)"/>
        <path id="Trazado_997131" data-name="Trazado 997131" d="M30,44h1.806v1.806H30Z" transform="translate(-2.903 -4.258)"/>
        <path id="Trazado_997132" data-name="Trazado 997132" d="M34,44h1.806v1.806H34Z" transform="translate(-3.29 -4.258)"/>
        <path id="Trazado_997133" data-name="Trazado 997133" d="M38,44h1.806v1.806H38Z" transform="translate(-3.677 -4.258)"/>
        <path id="Trazado_997134" data-name="Trazado 997134" d="M56,17.161A17.156,17.156,0,0,0,24.854,7.226H18.769L18.475,6.05a3.217,3.217,0,0,0-6.241,0l-.294,1.176H3.613A1.808,1.808,0,0,0,1.806,9.032v7.392a2.693,2.693,0,0,0,.058,5.105,9.962,9.962,0,0,0-.058,1.051v4.682a2.7,2.7,0,0,0,.9,5.253h.949a11.751,11.751,0,0,0,8.625,10.417,4.786,4.786,0,0,0-.558.664,1.787,1.787,0,0,0-.887-.242H9.032a1.808,1.808,0,0,0-1.806,1.806V56H40.138a2.706,2.706,0,0,0,2.628-2.052l4.127-16.506a2.463,2.463,0,0,0,.075-.608,2.515,2.515,0,0,0-2.512-2.512h-.781a2.519,2.519,0,0,0-2.421,1.84l-4,14.418H30.618a4.524,4.524,0,0,0-4.425-3.613H20.637l-.233-1.4a4.8,4.8,0,0,0-1.513-2.764,11.761,11.761,0,0,0,8.161-10.292H28a2.693,2.693,0,0,0,1.853-.743A17.149,17.149,0,0,0,56,17.161Zm-27.1,10.1V25.29H32.33a21.474,21.474,0,0,0,3.091,5.3L36.85,32.38a15.231,15.231,0,0,1-6.175-2.224,2.634,2.634,0,0,0,.035-.35A2.706,2.706,0,0,0,28.9,27.263ZM5.419,14.93a9.841,9.841,0,0,0-1.554,1.6,2.471,2.471,0,0,0-.253-.1V12.645H5.419Zm1.806-2.285H23.484v1.806H7.226Zm18.065,0H27.1A1.808,1.808,0,0,0,28.9,10.839h2.781a21.483,21.483,0,0,0-.936,5.419H26.625a9.86,9.86,0,0,0-1.335-1.32Zm18.816-1.806a19.7,19.7,0,0,1,1.016,5.419H32.555a19.7,19.7,0,0,1,1.016-5.419ZM34.28,9.032a19.642,19.642,0,0,1,2.553-4.175l2.006-2.508,2.007,2.507A19.626,19.626,0,0,1,43.4,9.032Zm19.867,7.226H46.929a21.523,21.523,0,0,0-.936-5.419h6.823A15.226,15.226,0,0,1,54.147,16.258ZM33.571,23.484a19.7,19.7,0,0,1-1.016-5.419H45.122a19.7,19.7,0,0,1-1.016,5.419ZM43.4,25.29a19.642,19.642,0,0,1-2.553,4.175l-2.006,2.508-2.007-2.507a19.626,19.626,0,0,1-2.553-4.176Zm3.532-7.226h7.219a15.227,15.227,0,0,1-1.332,5.419H45.992A21.484,21.484,0,0,0,46.929,18.065Zm-16.18,0a21.523,21.523,0,0,0,.936,5.419H28.9v-.9a9.928,9.928,0,0,0-1.1-4.516ZM40.835,32.371l1.422-1.778a21.475,21.475,0,0,0,3.091-5.3h6.493a15.352,15.352,0,0,1-11.006,7.081ZM51.842,9.032H45.348a21.474,21.474,0,0,0-3.091-5.3L40.835,1.952A15.357,15.357,0,0,1,51.842,9.032Zm-14.987-7.1L35.42,3.729a21.5,21.5,0,0,0-3.09,5.3H28.9a1.806,1.806,0,0,0-1.771-1.8,15.331,15.331,0,0,1,9.722-5.293ZM13.986,6.488a1.412,1.412,0,0,1,2.739,0l.184.738H13.8ZM3.613,9.032H27.1v1.806H3.613V9.032Zm-.9,9.032a.9.9,0,1,1-.9.9A.9.9,0,0,1,2.71,18.065Zm-.9,11.742a.9.9,0,0,1,.9-.9h.9V30.71h-.9A.9.9,0,0,1,1.806,29.806Zm9.032,24.387H9.032V45.161h1.806Zm1.806,0V51.959a9.7,9.7,0,0,0,2.235,2.235Zm27.492,0H27.1V52.387H41.3l-.281,1.122A.9.9,0,0,1,40.138,54.194ZM43,36.645a.705.705,0,0,1,.679-.516h.781a.706.706,0,0,1,.705.705.761.761,0,0,1-.02.171L41.747,50.581H39.124ZM28.737,50.581H27.1V48.94A2.707,2.707,0,0,1,28.737,50.581ZM25.29,48.774v5.419H20.475a7.839,7.839,0,0,1-7.83-7.83,3.009,3.009,0,0,1,5.977-.495l.3,1.8-1.609,2.413,1.5,1,1.539-2.307Zm0-17.161a9.935,9.935,0,1,1-19.871,0V26.222a1.8,1.8,0,0,1,1.135-1.677l1.461-.584a3.5,3.5,0,0,0,2.737,1.33,10.074,10.074,0,0,0,3.437-.613,3.5,3.5,0,0,0,1.983.613A10.107,10.107,0,0,0,21.783,23.6l2.372.948a1.8,1.8,0,0,1,1.135,1.677Zm-.465-8.746-3.254-1.3-.779.519a8.307,8.307,0,0,1-4.619,1.4,1.721,1.721,0,0,1-.543-3.355l.915-.305-.572-1.713-.915.305a3.515,3.515,0,0,0-2.11,4.765,8.262,8.262,0,0,1-2.195.3,1.721,1.721,0,0,1-.543-3.355l.915-.305-.572-1.713-.915.305a3.43,3.43,0,0,0-2.357,3.892l-1.4.559a3.6,3.6,0,0,0-2.272,3.355V22.581a8.237,8.237,0,0,1,.083-1.1,2.682,2.682,0,0,0,1.461-3.661,8.1,8.1,0,0,1,1.488-1.566H24.058A8.164,8.164,0,0,1,27.1,22.581v3.641A3.6,3.6,0,0,0,24.825,22.867ZM28,30.71h-.9V28.9H28a.9.9,0,0,1,0,1.806Z" transform="translate(0)"/>
      </g>
    </g>
  </g>
</svg>
