<svg xmlns="http://www.w3.org/2000/svg" xmlns:xlink="http://www.w3.org/1999/xlink" width="108" height="108" viewBox="0 0 108 108">
  <defs>
    <filter id="Trazado_982547" x="0" y="0" width="108" height="108" filterUnits="userSpaceOnUse">
      <feOffset dy="3" input="SourceAlpha"/>
      <feGaussianBlur stdDeviation="3" result="blur"/>
      <feFlood flood-opacity="0.161"/>
      <feComposite operator="in" in2="blur"/>
      <feComposite in="SourceGraphic"/>
    </filter>
  </defs>
  <g id="Grupo_1160110" data-name="Grupo 1160110" transform="translate(-161 -6907)">
    <g id="Grupo_1158957" data-name="Grupo 1158957" transform="translate(-10 5347)">
      <g id="Grupo_1153955" data-name="Grupo 1153955" transform="translate(-83 1047)">
        <g id="Grupo_1149598" data-name="Grupo 1149598" transform="translate(80 315)">
          <g id="Grupo_1148770" data-name="Grupo 1148770" transform="translate(-27 -2583)">
            <g id="Grupo_1146954" data-name="Grupo 1146954" transform="translate(-415 -1202)">
              <g transform="matrix(1, 0, 0, 1, 616, 3983)" filter="url(#Trazado_982547)">
                <g id="Trazado_982547-2" data-name="Trazado 982547" transform="translate(9 6)" fill="#fef6e8">
                  <path d="M 45 88.5 C 39.12687683105469 88.5 33.43022537231445 87.35007476806641 28.06830024719238 85.08217620849609 C 22.88852500915527 82.89131164550781 18.23629951477051 79.75458526611328 14.2408504486084 75.75914764404297 C 10.24541282653809 71.76370239257812 7.108687400817871 67.11147308349609 4.917825222015381 61.93170166015625 C 2.649924993515015 56.56977462768555 1.5 50.87312316894531 1.5 45 C 1.5 39.12687683105469 2.649924993515015 33.43022537231445 4.917825222015381 28.06830024719238 C 7.108687400817871 22.88852500915527 10.24541282653809 18.23629951477051 14.2408504486084 14.2408504486084 C 18.23629951477051 10.24541282653809 22.88852500915527 7.108687400817871 28.06830024719238 4.917825222015381 C 33.43022537231445 2.649924993515015 39.12687683105469 1.5 45 1.5 C 50.87312316894531 1.5 56.56977462768555 2.649924993515015 61.93170166015625 4.917825222015381 C 67.11147308349609 7.108687400817871 71.76370239257812 10.24541282653809 75.75914764404297 14.2408504486084 C 79.75458526611328 18.23629951477051 82.89131164550781 22.88852500915527 85.08217620849609 28.06830024719238 C 87.35007476806641 33.43022537231445 88.5 39.12687683105469 88.5 45 C 88.5 50.87312316894531 87.35007476806641 56.56977462768555 85.08217620849609 61.93170166015625 C 82.89131164550781 67.11147308349609 79.75458526611328 71.76370239257812 75.75914764404297 75.75914764404297 C 71.76370239257812 79.75458526611328 67.11147308349609 82.89131164550781 61.93170166015625 85.08217620849609 C 56.56977462768555 87.35007476806641 50.87312316894531 88.5 45 88.5 Z" stroke="none"/>
                  <path d="M 45 3 C 39.32871246337891 3 33.82865524291992 4.110054016113281 28.65262985229492 6.299339294433594 C 23.65165710449219 8.414573669433594 19.15968322753906 11.44334411621094 15.301513671875 15.301513671875 C 11.44334411621094 19.15968322753906 8.414573669433594 23.65165710449219 6.299339294433594 28.65262985229492 C 4.110054016113281 33.82865524291992 3 39.32871246337891 3 45 C 3 50.67128753662109 4.110054016113281 56.17134475708008 6.299339294433594 61.34737396240234 C 8.414573669433594 66.34834289550781 11.44334411621094 70.84031677246094 15.301513671875 74.698486328125 C 19.15968322753906 78.55665588378906 23.65165710449219 81.58542633056641 28.65262985229492 83.70066070556641 C 33.82865524291992 85.88994598388672 39.32871246337891 87 45 87 C 50.67128753662109 87 56.17134475708008 85.88994598388672 61.34737396240234 83.70066070556641 C 66.34834289550781 81.58542633056641 70.84031677246094 78.55665588378906 74.698486328125 74.698486328125 C 78.55665588378906 70.84031677246094 81.58542633056641 66.34834289550781 83.70066070556641 61.34737396240234 C 85.88994598388672 56.17134475708008 87 50.67128753662109 87 45 C 87 39.32871246337891 85.88994598388672 33.82865524291992 83.70066070556641 28.65262985229492 C 81.58542633056641 23.65165710449219 78.55665588378906 19.15968322753906 74.698486328125 15.301513671875 C 70.84031677246094 11.44334411621094 66.34834289550781 8.414573669433594 61.34737396240234 6.299339294433594 C 56.17134475708008 4.110054016113281 50.67128753662109 3 45 3 M 45 0 C 69.85281372070312 0 90 20.14718627929688 90 45 C 90 69.85281372070312 69.85281372070312 90 45 90 C 20.14718627929688 90 0 69.85281372070312 0 45 C 0 20.14718627929688 20.14718627929688 0 45 0 Z" stroke="none" fill="#fdaf2f"/>
                </g>
              </g>
            </g>
          </g>
        </g>
      </g>
    </g>
    <g id="personas_1_" data-name="personas (1)" transform="translate(187 6930)">
      <path id="Trazado_997295" data-name="Trazado 997295" d="M64.2,256A27.1,27.1,0,1,1,10,256Z" transform="translate(-8.898 -227.796)" fill="#ccf5fc"/>
      <path id="Trazado_997296" data-name="Trazado 997296" d="M16.018,273.027l2.759-4.917a2.139,2.139,0,0,0,.274-1.047V264.23a2.139,2.139,0,0,1,.629-1.515l1.485-1.48a2.139,2.139,0,0,0,.2-2.794L19.548,256H10A26.987,26.987,0,0,0,16.018,273.027Z" transform="translate(-8.898 -227.796)" fill="#a0e5a5"/>
      <g id="Grupo_1160108" data-name="Grupo 1160108" transform="translate(5.729 1.102)">
        <path id="XMLID_1072_" d="M197.749,120.7h-4.513A5.235,5.235,0,0,0,188,125.936v5.093h14.983v-5.093A5.235,5.235,0,0,0,197.749,120.7Z" transform="translate(-173.017 -108.505)" fill="#ff7d97"/>
        <path id="XMLID_1071_" d="M228.627,48.574a3.389,3.389,0,0,0-3.389,3.389v1.168a3.389,3.389,0,1,0,6.778,0V51.963A3.389,3.389,0,0,0,228.627,48.574Z" transform="translate(-206.152 -44.324)" fill="#cc9081"/>
        <path id="XMLID_1069_" d="M160.627,10a3.389,3.389,0,0,0-3.389,3.389v1.168a3.389,3.389,0,1,0,6.778,0V13.389A3.389,3.389,0,0,0,160.627,10Z" transform="translate(-145.644 -10)" fill="#f2b394"/>
        <path id="XMLID_1067_" d="M296.627,10a3.389,3.389,0,0,1,3.389,3.389v1.168a3.389,3.389,0,1,1-6.778,0V13.389A3.389,3.389,0,0,1,296.627,10Z" transform="translate(-266.66 -10)" fill="#ffd0c7"/>
        <path id="XMLID_1064_" d="M61.748,120.7H57.235A5.235,5.235,0,0,0,52,125.936v5.093H66.983v-5.093A5.235,5.235,0,0,0,61.748,120.7Z" transform="translate(-52 -108.505)" fill="#66e0f7"/>
        <path id="XMLID_1063_" d="M92.627,48.574a3.389,3.389,0,0,0-3.389,3.389v1.168a3.389,3.389,0,0,0,6.778,0V51.963A3.389,3.389,0,0,0,92.627,48.574Z" transform="translate(-85.135 -44.324)" fill="#ffd0c7"/>
        <path id="XMLID_1060_" d="M329.235,120.7h4.513a5.235,5.235,0,0,1,5.235,5.235v5.093H324v-5.093A5.235,5.235,0,0,1,329.235,120.7Z" transform="translate(-294.033 -108.505)" fill="#ffda8f"/>
        <path id="XMLID_1059_" d="M364.627,48.574a3.389,3.389,0,0,1,3.389,3.389v1.168a3.389,3.389,0,1,1-6.778,0V51.963A3.389,3.389,0,0,1,364.627,48.574Z" transform="translate(-327.169 -44.324)" fill="#f2b394"/>
      </g>
      <path id="Trazado_997297" data-name="Trazado 997297" d="M300.179,256.633l2.257,3.444a1.4,1.4,0,0,0,.519.472l1.981,1.043a1.4,1.4,0,0,1,.689,1.64l-1.148,3.848a1.4,1.4,0,0,1-1.342,1h-.265a1.4,1.4,0,0,0-1.226.723l-2.633,4.766a1.4,1.4,0,0,0-.175.677v.1a1.353,1.353,0,0,1-2.228,1.033l-.57-.482a1.4,1.4,0,0,1-.486-.9l-.936-7.828a1.4,1.4,0,0,0-.522-.932l-1.946-1.538a1.4,1.4,0,0,1-.532-1.1v-5.2a1.4,1.4,0,0,1,1.4-1.4h5.991A1.4,1.4,0,0,1,300.179,256.633Z" transform="translate(-259.488 -227.796)" fill="#a0e5a5"/>
      <path id="Trazado_997298" data-name="Trazado 997298" d="M157.115,343.567c-.357,0-.792-.005-1.109-.01a1.834,1.834,0,0,0-.823.183l-2.6,1.256a1.834,1.834,0,0,0-1.036,1.652v1.044a1.835,1.835,0,0,0,1.835,1.835h2.476a1.835,1.835,0,0,1,1.31.55,1.835,1.835,0,0,0,2.6.023L161,348.887a1.835,1.835,0,0,0-.109-2.714l-2.6-2.177A1.833,1.833,0,0,0,157.115,343.567Z" transform="translate(-134.853 -305.707)" fill="#a0e5a5"/>
      <g id="Grupo_1160109" data-name="Grupo 1160109" transform="translate(0 0)">
        <path id="Trazado_997299" data-name="Trazado 997299" d="M55.306,246H26.652a1.1,1.1,0,1,0,0,2.2h4.393a2.5,2.5,0,0,0-.019.3v5.2a2.489,2.489,0,0,0,.951,1.963l1.946,1.538a.3.3,0,0,1,.111.2l.936,7.828a2.494,2.494,0,0,0,.868,1.613l.57.482a2.438,2.438,0,0,0,1.579.585,2.469,2.469,0,0,0,1.04-.232,2.432,2.432,0,0,0,1.422-2.227v-.1a.3.3,0,0,1,.037-.145l2.633-4.766a.3.3,0,0,1,.262-.154h.265a2.518,2.518,0,0,0,2.4-1.787l1.148-3.848a2.508,2.508,0,0,0-1.232-2.929l-1.981-1.043a.3.3,0,0,1-.111-.1L42.316,248.2H54.182A26,26,0,0,1,9.819,265.487q-.716-.716-1.369-1.479l2.389-4.257a3.248,3.248,0,0,0,.415-1.586v-2.833a1.044,1.044,0,0,1,.305-.735l1.485-1.48a3.257,3.257,0,0,0,.31-4.233l-.508-.681h3.891a1.1,1.1,0,1,0,0-2.2H1.1A1.1,1.1,0,0,0,0,247.1a28.2,28.2,0,0,0,48.147,19.943A28.019,28.019,0,0,0,56.408,247.1a1.1,1.1,0,0,0-1.1-1.1ZM39.77,248.339l2.257,3.444a2.508,2.508,0,0,0,.927.842l1.981,1.043a.3.3,0,0,1,.147.35l-1.148,3.848a.3.3,0,0,1-.287.214h-.265a2.5,2.5,0,0,0-2.19,1.292l-2.633,4.766a2.509,2.509,0,0,0-.312,1.21v.1a.252.252,0,0,1-.414.192l-.57-.482a.3.3,0,0,1-.1-.193l-.936-7.828a2.487,2.487,0,0,0-.933-1.666l-1.946-1.538a.3.3,0,0,1-.114-.234v-5.2a.3.3,0,0,1,.3-.3h5.991A.3.3,0,0,1,39.77,248.339ZM10.1,248.2l1.49,2a1.043,1.043,0,0,1-.1,1.355L10,253.037a3.263,3.263,0,0,0-.953,2.3v2.833a1.04,1.04,0,0,1-.133.508l-1.939,3.455A25.773,25.773,0,0,1,2.226,248.2Z" transform="translate(0 -218.898)"/>
        <path id="Trazado_997300" data-name="Trazado 997300" d="M43.1,24.728h44.95a1.1,1.1,0,0,0,1.1-1.1V18.533a6.347,6.347,0,0,0-4.844-6.158,4.463,4.463,0,0,0,.741-2.467V8.741A4.488,4.488,0,0,0,77.559,5.4V4.491a4.491,4.491,0,0,0-8.982,0V5.4a4.481,4.481,0,0,0-6,0V4.491a4.491,4.491,0,1,0-8.982,0V5.4A4.488,4.488,0,0,0,46.1,8.741V9.909a4.464,4.464,0,0,0,.741,2.467A6.347,6.347,0,0,0,42,18.533v5.093a1.1,1.1,0,0,0,1.1,1.1ZM54.343,12.376a4.463,4.463,0,0,0,.741-2.467V9a4.481,4.481,0,0,0,6,0v.912a4.464,4.464,0,0,0,.741,2.467,6.356,6.356,0,0,0-3.742,2.592A6.354,6.354,0,0,0,54.343,12.376Zm4.844,6.158A4.138,4.138,0,0,1,63.321,14.4h4.513a4.138,4.138,0,0,1,4.134,4.134v3.992H59.187ZM70.068,9.909V9a4.481,4.481,0,0,0,6,0v.912a4.464,4.464,0,0,0,.741,2.467,6.356,6.356,0,0,0-3.742,2.592,6.355,6.355,0,0,0-3.742-2.592,4.463,4.463,0,0,0,.741-2.467ZM86.95,18.533v3.992H74.17V18.533A4.138,4.138,0,0,1,78.3,14.4h4.513A4.138,4.138,0,0,1,86.95,18.533ZM78.273,8.741a2.287,2.287,0,0,1,4.575,0V9.909a2.287,2.287,0,0,1-4.575,0Zm-7.492-4.25a2.287,2.287,0,0,1,4.575,0V5.659a2.287,2.287,0,0,1-4.575,0Zm-7.492,4.25a2.287,2.287,0,1,1,4.575,0V9.909a2.287,2.287,0,1,1-4.575,0ZM55.8,4.491a2.287,2.287,0,1,1,4.575,0V5.659a2.287,2.287,0,1,1-4.575,0Zm-7.492,4.25a2.287,2.287,0,1,1,4.575,0V9.909a2.287,2.287,0,1,1-4.575,0Zm-4.1,9.793A4.138,4.138,0,0,1,48.337,14.4H52.85a4.138,4.138,0,0,1,4.134,4.134v3.992H44.2Z" transform="translate(-37.373 0)"/>
        <path id="Trazado_997301" data-name="Trazado 997301" d="M143.209,335.107a2.953,2.953,0,0,0-1.658,2.643v1.044a2.94,2.94,0,0,0,2.936,2.936h2.476a.737.737,0,0,1,.523.22,2.916,2.916,0,0,0,2.07.88h.026a2.917,2.917,0,0,0,2.059-.844l1.231-1.212a2.936,2.936,0,0,0-.175-4.344l-2.6-2.177a2.939,2.939,0,0,0-1.878-.685c-.353,0-.783-.005-1.1-.01a2.96,2.96,0,0,0-1.318.293Zm3.875.655h.01c.32,0,.76.009,1.122.01h0a.731.731,0,0,1,.467.171l2.6,2.177a.733.733,0,0,1,.044,1.084l-1.231,1.212a.745.745,0,0,1-.52.211.728.728,0,0,1-.517-.22,2.954,2.954,0,0,0-2.1-.88h-2.476a.734.734,0,0,1-.733-.733V337.75a.737.737,0,0,1,.414-.66l2.6-1.256A.739.739,0,0,1,147.084,335.762Z" transform="translate(-125.956 -296.809)"/>
        <circle id="Elipse_11730" data-name="Elipse 11730" cx="1.102" cy="1.102" r="1.102" transform="translate(20.592 27.102)"/>
      </g>
    </g>
  </g>
</svg>
