<svg xmlns="http://www.w3.org/2000/svg" xmlns:xlink="http://www.w3.org/1999/xlink" width="108" height="108" viewBox="0 0 108 108">
  <defs>
    <filter id="Trazado_982547" x="0" y="0" width="108" height="108" filterUnits="userSpaceOnUse">
      <feOffset dy="3" input="SourceAlpha"/>
      <feGaussianBlur stdDeviation="3" result="blur"/>
      <feFlood flood-opacity="0.161"/>
      <feComposite operator="in" in2="blur"/>
      <feComposite in="SourceGraphic"/>
    </filter>
  </defs>
  <g id="Grupo_1159944" data-name="Grupo 1159944" transform="translate(-903 -407)">
    <g id="Grupo_1149837" data-name="Grupo 1149837" transform="translate(0 -4452)">
      <g id="Grupo_1149675" data-name="Grupo 1149675" transform="translate(157 -2821)">
        <g id="Grupo_1148534" data-name="Grupo 1148534" transform="translate(156 4253)">
          <g id="Grupo_1147066" data-name="Grupo 1147066" transform="translate(-26 -556)">
            <g transform="matrix(1, 0, 0, 1, 616, 3983)" filter="url(#Trazado_982547)">
              <g id="Trazado_982547-2" data-name="Trazado 982547" transform="translate(9 6)" fill="#fef4f5">
                <path d="M 45 88.5 C 39.12687683105469 88.5 33.43022537231445 87.35007476806641 28.06830024719238 85.08217620849609 C 22.88852500915527 82.89131164550781 18.23629951477051 79.75458526611328 14.2408504486084 75.75914764404297 C 10.24541282653809 71.76370239257812 7.108687400817871 67.11147308349609 4.917825222015381 61.93170166015625 C 2.649924993515015 56.56977462768555 1.5 50.87312316894531 1.5 45 C 1.5 39.12687683105469 2.649924993515015 33.43022537231445 4.917825222015381 28.06830024719238 C 7.108687400817871 22.88852500915527 10.24541282653809 18.23629951477051 14.2408504486084 14.2408504486084 C 18.23629951477051 10.24541282653809 22.88852500915527 7.108687400817871 28.06830024719238 4.917825222015381 C 33.43022537231445 2.649924993515015 39.12687683105469 1.5 45 1.5 C 50.87312316894531 1.5 56.56977462768555 2.649924993515015 61.93170166015625 4.917825222015381 C 67.11147308349609 7.108687400817871 71.76370239257812 10.24541282653809 75.75914764404297 14.2408504486084 C 79.75458526611328 18.23629951477051 82.89131164550781 22.88852500915527 85.08217620849609 28.06830024719238 C 87.35007476806641 33.43022537231445 88.5 39.12687683105469 88.5 45 C 88.5 50.87312316894531 87.35007476806641 56.56977462768555 85.08217620849609 61.93170166015625 C 82.89131164550781 67.11147308349609 79.75458526611328 71.76370239257812 75.75914764404297 75.75914764404297 C 71.76370239257812 79.75458526611328 67.11147308349609 82.89131164550781 61.93170166015625 85.08217620849609 C 56.56977462768555 87.35007476806641 50.87312316894531 88.5 45 88.5 Z" stroke="none"/>
                <path d="M 45 3 C 39.32871246337891 3 33.82865524291992 4.110054016113281 28.65262985229492 6.299339294433594 C 23.65165710449219 8.414573669433594 19.15968322753906 11.44334411621094 15.301513671875 15.301513671875 C 11.44334411621094 19.15968322753906 8.414573669433594 23.65165710449219 6.299339294433594 28.65262985229492 C 4.110054016113281 33.82865524291992 3 39.32871246337891 3 45 C 3 50.67128753662109 4.110054016113281 56.17134475708008 6.299339294433594 61.34737396240234 C 8.414573669433594 66.34834289550781 11.44334411621094 70.84031677246094 15.301513671875 74.698486328125 C 19.15968322753906 78.55665588378906 23.65165710449219 81.58542633056641 28.65262985229492 83.70066070556641 C 33.82865524291992 85.88994598388672 39.32871246337891 87 45 87 C 50.67128753662109 87 56.17134475708008 85.88994598388672 61.34737396240234 83.70066070556641 C 66.34834289550781 81.58542633056641 70.84031677246094 78.55665588378906 74.698486328125 74.698486328125 C 78.55665588378906 70.84031677246094 81.58542633056641 66.34834289550781 83.70066070556641 61.34737396240234 C 85.88994598388672 56.17134475708008 87 50.67128753662109 87 45 C 87 39.32871246337891 85.88994598388672 33.82865524291992 83.70066070556641 28.65262985229492 C 81.58542633056641 23.65165710449219 78.55665588378906 19.15968322753906 74.698486328125 15.301513671875 C 70.84031677246094 11.44334411621094 66.34834289550781 8.414573669433594 61.34737396240234 6.299339294433594 C 56.17134475708008 4.110054016113281 50.67128753662109 3 45 3 M 45 0 C 69.85281372070312 0 90 20.14718627929688 90 45 C 90 69.85281372070312 69.85281372070312 90 45 90 C 20.14718627929688 90 0 69.85281372070312 0 45 C 0 20.14718627929688 20.14718627929688 0 45 0 Z" stroke="none" fill="#ff7f8f"/>
              </g>
            </g>
          </g>
        </g>
      </g>
    </g>
    <g id="estudiando" transform="translate(925.786 406.877)">
      <g id="Grupo_1159933" data-name="Grupo 1159933" transform="translate(35.943 56.33)">
        <path id="Trazado_996742" data-name="Trazado 996742" d="M296.819,311.167h-1.055a1.812,1.812,0,0,1-.981-.289v4.09A1.223,1.223,0,0,0,296,316.188h1.571a7.172,7.172,0,0,1,1.487-1.571A6.954,6.954,0,0,1,296.819,311.167Z" transform="translate(-294.783 -310.878)" fill="#d48748"/>
        <path id="Trazado_996743" data-name="Trazado 996743" d="M404.518,311.167h-1.055a6.953,6.953,0,0,1-2.242,3.449,7.178,7.178,0,0,1,1.487,1.571h1.571a1.223,1.223,0,0,0,1.219-1.219v-4.09A1.812,1.812,0,0,1,404.518,311.167Z" transform="translate(-388.243 -310.878)" fill="#d48748"/>
      </g>
      <path id="Trazado_996744" data-name="Trazado 996744" d="M28.227,449.189a.607.607,0,0,0-.019.144v3.432a.61.61,0,0,0,.61.61h54.33a.61.61,0,0,0,.61-.61v-3.432a.6.6,0,0,0-.019-.144Z" transform="translate(-24.769 -375.995)" fill="#fcdb80"/>
      <g id="Grupo_1159934" data-name="Grupo 1159934" transform="translate(3.439 73.194)" opacity="0.1">
        <path id="Trazado_996745" data-name="Trazado 996745" d="M32.013,452.765v-3.432a.6.6,0,0,1,.019-.144H28.227a.607.607,0,0,0-.019.144v3.432a.61.61,0,0,0,.61.61h3.805A.61.61,0,0,1,32.013,452.765Z" transform="translate(-28.208 -449.189)" fill="#37005e"/>
      </g>
      <circle id="Elipse_11722" data-name="Elipse 11722" cx="8.638" cy="8.638" r="8.638" transform="translate(44.238 21.898)" fill="#89c947"/>
      <circle id="Elipse_11723" data-name="Elipse 11723" cx="5.981" cy="5.981" r="5.981" transform="translate(46.895 24.555)" fill="#fff"/>
      <g id="Grupo_1159935" data-name="Grupo 1159935" transform="translate(46.895 24.555)" opacity="0.1">
        <path id="Trazado_996746" data-name="Trazado 996746" d="M387.1,56.261a5.982,5.982,0,0,1,4.737-5.85,5.98,5.98,0,1,0,0,11.7A5.982,5.982,0,0,1,387.1,56.261Z" transform="translate(-384.61 -50.281)" fill="#37005e"/>
      </g>
      <path id="Trazado_996747" data-name="Trazado 996747" d="M104.869,144.545a3.573,3.573,0,0,0-2.334.864,3.934,3.934,0,0,0-3.009-1.4H97.046a3.943,3.943,0,0,0-3.943,3.943v6.075c0-4.291,3.437-4.836,7.677-4.836s7.677.545,7.677,4.836v-5.9A3.588,3.588,0,0,0,104.869,144.545Z" transform="translate(-81.751 -108.03)" fill="#a75436"/>
      <g id="Grupo_1159936" data-name="Grupo 1159936" transform="translate(11.352 35.984)" opacity="0.1">
        <path id="Trazado_996748" data-name="Trazado 996748" d="M95.651,149.873v-1.915a3.943,3.943,0,0,1,3.909-3.942H97.046a3.943,3.943,0,0,0-3.943,3.943v6.075A4,4,0,0,1,95.651,149.873Z" transform="translate(-93.103 -144.014)" fill="#37005e"/>
      </g>
      <path id="Trazado_996749" data-name="Trazado 996749" d="M98.671,313.378a7.605,7.605,0,0,1-9.737,0,7.971,7.971,0,0,0-2.9,4.568l-.7,1.935a2.59,2.59,0,0,0,.27,2.4,2.445,2.445,0,0,0,.245.3v1.245H91.8a4.85,4.85,0,0,1,3.455,1.447,4.85,4.85,0,0,1,3.455-1.447h3.046v-4.162A7.944,7.944,0,0,0,98.671,313.378Z" transform="translate(-74.774 -256.744)" fill="#30a1d0"/>
      <g id="Grupo_1159937" data-name="Grupo 1159937" transform="translate(8.423 47.255)">
        <path id="Trazado_996750" data-name="Trazado 996750" d="M72.013,239.828v-3.372h-1.1a1.834,1.834,0,0,0-1.829,1.829v1.056a1.834,1.834,0,0,0,1.829,1.829H72.13A7.919,7.919,0,0,1,72.013,239.828Z" transform="translate(-69.085 -236.456)" fill="#ffb98a"/>
        <path id="Trazado_996751" data-name="Trazado 996751" d="M219.286,236.456h-1.1v3.372a7.9,7.9,0,0,1-.116,1.342h1.216a1.834,1.834,0,0,0,1.829-1.829v-1.056A1.834,1.834,0,0,0,219.286,236.456Z" transform="translate(-199.904 -236.456)" fill="#ffb98a"/>
      </g>
      <path id="Trazado_996752" data-name="Trazado 996752" d="M108.456,195.981a7.724,7.724,0,0,1-7.677,7.77h0a7.724,7.724,0,0,1-7.677-7.77v-4.625c0-4.291,3.437-4.836,7.677-4.836h0c4.24,0,7.677.545,7.677,4.836Z" transform="translate(-81.75 -145.353)" fill="#ffd5b3"/>
      <g id="Grupo_1159938" data-name="Grupo 1159938" transform="translate(11.352 41.167)" opacity="0.1">
        <path id="Trazado_996753" data-name="Trazado 996753" d="M95.65,195.981v-4.625c0-3.852,2.77-4.684,6.4-4.815-.415-.015-.84-.021-1.274-.021-4.24,0-7.677.545-7.677,4.836v4.625a7.724,7.724,0,0,0,7.677,7.77,7.619,7.619,0,0,0,1.274-.109A7.744,7.744,0,0,1,95.65,195.981Z" transform="translate(-93.102 -186.52)" fill="#37005e"/>
      </g>
      <path id="Trazado_996754" data-name="Trazado 996754" d="M307.677,347.271a1.617,1.617,0,0,1,.451,1.413h3.3a4.157,4.157,0,0,1,2.962,1.24,4.157,4.157,0,0,1,2.962-1.24H321.5v-1.53a7.1,7.1,0,0,0-2.758-5.615,6.795,6.795,0,0,1-8.7,0,7.1,7.1,0,0,0-2.753,5.447A1.619,1.619,0,0,1,307.677,347.271Z" transform="translate(-269.823 -281.47)" fill="#ff6a76"/>
      <g id="Grupo_1159939" data-name="Grupo 1159939" transform="translate(37.468 60.068)" opacity="0.1">
        <path id="Trazado_996755" data-name="Trazado 996755" d="M307.678,347.271a1.617,1.617,0,0,1,.451,1.413h1.688v-1.53a7.072,7.072,0,0,1,1.747-4.659,6.847,6.847,0,0,1-1.52-.956,7.1,7.1,0,0,0-2.753,5.447A1.621,1.621,0,0,1,307.678,347.271Z" transform="translate(-307.292 -341.538)" fill="#37005e"/>
      </g>
      <g id="Grupo_1159940" data-name="Grupo 1159940" transform="translate(35.095 52.407)">
        <path id="Trazado_996756" data-name="Trazado 996756" d="M354.06,353.081a6.791,6.791,0,0,1-1.595-.191v.888a1.595,1.595,0,0,0,3.19,0v-.888A6.785,6.785,0,0,1,354.06,353.081Z" transform="translate(-344.584 -343.845)" fill="#ffb98a"/>
        <path id="Trazado_996757" data-name="Trazado 996757" d="M290.447,281V278.71h-.787a1.834,1.834,0,0,0-1.829,1.829v.554a1.834,1.834,0,0,0,1.829,1.829h1.055A7.011,7.011,0,0,1,290.447,281Z" transform="translate(-287.831 -278.71)" fill="#ffb98a"/>
        <path id="Trazado_996758" data-name="Trazado 996758" d="M420.662,278.71h-.787V281a7.018,7.018,0,0,1-.267,1.918h1.055a1.834,1.834,0,0,0,1.829-1.829v-.554A1.834,1.834,0,0,0,420.662,278.71Z" transform="translate(-403.54 -278.71)" fill="#ffb98a"/>
      </g>
      <path id="Trazado_996759" data-name="Trazado 996759" d="M320.785,258.149a.291.291,0,0,1-.25-.141l-1.079-1.8a.194.194,0,0,0-.333,0l-1.062,1.8a.291.291,0,0,1-.25.143h-8.522v3.013a6.86,6.86,0,1,0,13.718,0v-3.013Z" transform="translate(-271.578 -206.461)" fill="#ffd5b3"/>
      <g id="Grupo_1159941" data-name="Grupo 1159941" transform="translate(37.711 51.688)" opacity="0.1">
        <path id="Trazado_996760" data-name="Trazado 996760" d="M311.837,275.823V272.81h-2.548v3.013a6.9,6.9,0,0,0,6.859,6.942,6.813,6.813,0,0,0,1.274-.121A6.921,6.921,0,0,1,311.837,275.823Z" transform="translate(-309.289 -272.81)" fill="#37005e"/>
      </g>
      <path id="Trazado_996761" data-name="Trazado 996761" d="M308.048,198.109a.291.291,0,0,1-.25-.141l-1.079-1.8a.194.194,0,0,0-.333,0l-1.062,1.8a.291.291,0,0,1-.25.143h-10a.291.291,0,0,1-.291-.291V196.17a8.443,8.443,0,0,1,8.434-8.434h.388a8.443,8.443,0,0,1,8.434,8.434v1.648a.291.291,0,0,1-.291.291h-3.7Z" transform="translate(-258.84 -146.421)" fill="#d48748"/>
      <path id="Trazado_996762" data-name="Trazado 996762" d="M311.289,400.143h-5.126a4.157,4.157,0,0,0-2.962,1.24,4.156,4.156,0,0,0-2.961-1.24h-3.3a1.611,1.611,0,0,1-.451.878l-.535.535a1.616,1.616,0,0,1-1.406.452v.926h17.314v-2.221A.57.57,0,0,0,311.289,400.143Z" transform="translate(-258.631 -332.929)" fill="#fff"/>
      <path id="Trazado_996763" data-name="Trazado 996763" d="M68.1,425.611a.611.611,0,0,1-.61.61H8.11a.611.611,0,0,1-.61-.61v-1.97a.611.611,0,0,1,.61-.61H67.489a.611.611,0,0,1,.61.61Z" transform="translate(-6.586 -353.027)" fill="#ffc12e"/>
      <g id="Grupo_1159942" data-name="Grupo 1159942" transform="translate(16.097 63.094)">
        <path id="Trazado_996764" data-name="Trazado 996764" d="M135.263,368.731a1.62,1.62,0,0,1-1.62,1.62h0a1.62,1.62,0,0,1-1.62-1.62v-.756a1.62,1.62,0,0,1,1.62-1.62h0a1.62,1.62,0,0,1,1.62,1.62Z" transform="translate(-132.023 -366.355)" fill="#ffd5b3"/>
        <path id="Trazado_996765" data-name="Trazado 996765" d="M286.159,387.965a1.62,1.62,0,0,1-2.291,0h0a1.62,1.62,0,0,1,0-2.291l.535-.535a1.62,1.62,0,0,1,2.291,0h0a1.62,1.62,0,0,1,0,2.291Z" transform="translate(-264.937 -382.432)" fill="#ffd5b3"/>
      </g>
      <path id="Trazado_996766" data-name="Trazado 996766" d="M105.356,401.977v-2.259a.664.664,0,0,0-.664-.664h-5.98a4.849,4.849,0,0,0-3.455,1.447,4.85,4.85,0,0,0-3.455-1.447h-5.98a.665.665,0,0,0-.665.664v2.259Z" transform="translate(-74.773 -331.972)" fill="#fff"/>
      <g id="Grupo_1159943" data-name="Grupo 1159943" transform="translate(0.914 70.004)" opacity="0.1">
        <path id="Trazado_996767" data-name="Trazado 996767" d="M11.219,425.611v-1.97a.611.611,0,0,1,.61-.61H8.11a.611.611,0,0,0-.61.61v1.97a.611.611,0,0,0,.61.61h3.719A.611.611,0,0,1,11.219,425.611Z" transform="translate(-7.5 -423.031)" fill="#37005e"/>
      </g>
      <path id="Trazado_996768" data-name="Trazado 996768" d="M364.864,40.088a9.552,9.552,0,1,0-9.552-9.552A9.563,9.563,0,0,0,364.864,40.088Zm0-17.276a7.723,7.723,0,1,1-7.723,7.723A7.732,7.732,0,0,1,364.864,22.812Z" transform="translate(-311.989 0)"/>
      <path id="Trazado_996769" data-name="Trazado 996769" d="M384,56.57a6.862,6.862,0,0,0,3.855-1.177.914.914,0,1,0-1.024-1.516A5.054,5.054,0,1,1,388.77,51.4a.914.914,0,0,0,1.72.622A6.9,6.9,0,1,0,384,56.57Z" transform="translate(-331.129 -19.14)"/>
      <path id="Trazado_996770" data-name="Trazado 996770" d="M415.788,70.215v2.327l-1.122.967A.914.914,0,0,0,415.86,74.9l1.162-1a1.808,1.808,0,0,0,.595-1.3V70.215a.915.915,0,0,0-1.829,0Z" transform="translate(-363.827 -42.427)"/>
      <path id="Trazado_996771" data-name="Trazado 996771" d="M145.73,254.913h.588a.914.914,0,0,0,0-1.829h-.1v-.874a.914.914,0,0,0-1.829,0v1.353A1.349,1.349,0,0,0,145.73,254.913Z" transform="translate(-126.78 -202.231)"/>
      <path id="Trazado_996772" data-name="Trazado 996772" d="M120.2,250.727a.914.914,0,0,0,.914-.914V248.8a.914.914,0,0,0-1.829,0v1.016A.914.914,0,0,0,120.2,250.727Z" transform="translate(-104.742 -199.233)"/>
      <path id="Trazado_996773" data-name="Trazado 996773" d="M178.757,250.727a.914.914,0,0,0,.914-.914V248.8a.914.914,0,0,0-1.829,0v1.016A.914.914,0,0,0,178.757,250.727Z" transform="translate(-156.159 -199.233)"/>
      <path id="Trazado_996774" data-name="Trazado 996774" d="M136.765,294.526h3.1a.914.914,0,1,0,0-1.829h-3.1a.914.914,0,1,0,0,1.829Z" transform="translate(-119.287 -238.584)"/>
      <path id="Trazado_996775" data-name="Trazado 996775" d="M355.609,288.7h.526a.914.914,0,0,0,0-1.829v-.683a.914.914,0,0,0-1.829,0v1.209A1.3,1.3,0,0,0,355.609,288.7Z" transform="translate(-311.109 -232.064)"/>
      <path id="Trazado_996776" data-name="Trazado 996776" d="M332.8,284.957a.915.915,0,0,0,.914-.914v-.908a.914.914,0,0,0-1.829,0v.908A.915.915,0,0,0,332.8,284.957Z" transform="translate(-291.418 -229.385)"/>
      <path id="Trazado_996777" data-name="Trazado 996777" d="M385.118,284.957a.915.915,0,0,0,.914-.914v-.908a.914.914,0,0,0-1.829,0v.908A.915.915,0,0,0,385.118,284.957Z" transform="translate(-337.358 -229.385)"/>
      <path id="Trazado_996778" data-name="Trazado 996778" d="M347.6,324.091h2.77a.914.914,0,1,0,0-1.829H347.6a.914.914,0,1,0,0,1.829Z" transform="translate(-304.414 -264.544)"/>
      <path id="Trazado_996779" data-name="Trazado 996779" d="M60.9,170.533H54.142v-1.307a1.486,1.486,0,0,0-1.484-1.484h-.065v-.616a7.97,7.97,0,0,0-.637-3.13h.023a2.136,2.136,0,0,0,2.134-2.134v-3.649a2.735,2.735,0,0,0,.848-1.98v-.554a2.735,2.735,0,0,0-.848-1.98V153c0-.033,0-.066,0-.1s0-.04,0-.06v-1.648a9.359,9.359,0,0,0-9.348-9.348h-.388a9.359,9.359,0,0,0-9.348,9.348v1.648c0,.021,0,.041,0,.062s0,.064,0,.1v.7a2.735,2.735,0,0,0-.848,1.98v.554a2.735,2.735,0,0,0,.848,1.98v3.649A2.136,2.136,0,0,0,37.162,164h.026a7.952,7.952,0,0,0-.538,1.861,2.516,2.516,0,0,0-1.735.739l-.534.535a2.534,2.534,0,0,0-.166,3.4H31.5v-1.345a1.581,1.581,0,0,0-1.579-1.579H27.9v-3.247a8.838,8.838,0,0,0-2.648-6.312,8.706,8.706,0,0,0,2.074-3.723h.481a2.746,2.746,0,0,0,2.743-2.743v-1.056a2.746,2.746,0,0,0-2.743-2.743H27.62v-6.237a4.5,4.5,0,0,0-6.738-3.906,4.836,4.836,0,0,0-3.108-1.128H15.3a4.863,4.863,0,0,0-4.858,4.858v6.414h-.185a2.746,2.746,0,0,0-2.743,2.743v1.056a2.746,2.746,0,0,0,2.743,2.743h.481a8.706,8.706,0,0,0,2.075,3.724,8.873,8.873,0,0,0-2.361,4.07L9.7,164.269a3.492,3.492,0,0,0,.381,3.24c.025.036.053.071.079.106v.269a1.578,1.578,0,0,0-.691,1.3v1.345H1.524A1.526,1.526,0,0,0,0,172.057v1.97a1.526,1.526,0,0,0,1.524,1.524h1v2.662a1.526,1.526,0,0,0,1.524,1.524H49.5a.914.914,0,1,0,0-1.829H4.354v-2.357h8.815a.914.914,0,0,0,0-1.829H1.829v-1.36H60.6v1.36H17.8a.914.914,0,1,0,0,1.829H58.074v2.357H53.893a.914.914,0,0,0,0,1.829h4.486a1.526,1.526,0,0,0,1.524-1.524v-2.662h1a1.526,1.526,0,0,0,1.524-1.524v-1.97A1.526,1.526,0,0,0,60.9,170.533Zm-8.591-.962v.962H45.228a3.263,3.263,0,0,1,2.3-.962Zm-4.781-1.829a5.107,5.107,0,0,0-2.962.956,5.106,5.106,0,0,0-2.962-.956H39.155A2.515,2.515,0,0,0,38.5,166.6c-.029-.029-.06-.054-.09-.082a6.173,6.173,0,0,1,1.857-3.833,7.716,7.716,0,0,0,1.795.9v.2a2.509,2.509,0,0,0,5.019,0v-.2a7.721,7.721,0,0,0,1.794-.9,6.169,6.169,0,0,1,1.889,4.444v.616ZM36.009,156.234v-.554a.915.915,0,0,1,.787-.9v1.369a7.967,7.967,0,0,0,.065,1A.915.915,0,0,1,36.009,156.234Zm2.616-2.188h7.607a1.21,1.21,0,0,0,1.038-.592l.447-.755.456.761a1.211,1.211,0,0,0,1.034.587h1.308v2.1a5.945,5.945,0,1,1-11.889,0v-2.1Zm13.718,2.1v-1.369a.915.915,0,0,1,.787.9v.554a.915.915,0,0,1-.853.911A7.947,7.947,0,0,0,52.344,156.144Zm-7.12,7.827a.68.68,0,0,1-1.307,0c.216.018.433.03.653.03S45.008,163.989,45.224,163.971Zm7.06-2.108a.309.309,0,0,1-.3.3h-1.11a8.114,8.114,0,0,0-.6-.683,7.884,7.884,0,0,0,1.554-2.508h.4l.067,0v2.888ZM36.857,151.193a7.528,7.528,0,0,1,7.519-7.52h.388a7.528,7.528,0,0,1,7.519,7.52v1.024H49.561l-.9-1.5a1.108,1.108,0,0,0-1.906,0l-.881,1.491h-9.02v-1.024Zm.3,10.976a.309.309,0,0,1-.3-.3v-2.888l.067,0h.4a7.882,7.882,0,0,0,1.555,2.508,8.1,8.1,0,0,0-.6.683Zm-1.487,6.257.534-.535a.705.705,0,0,1,1,1l-.535.535a.705.705,0,1,1-1-1Zm2.825,1.756a2.525,2.525,0,0,0,.45-.61h2.658a3.263,3.263,0,0,1,2.3.962H38.149Zm-8.832.352H21.217a3.961,3.961,0,0,1,2.721-1.095h5.73Zm-11.951-5.082a.706.706,0,0,1,.705.705v.756a.705.705,0,1,1-1.411,0v-.756A.706.706,0,0,1,17.717,165.452Zm-6.42,3.987h5.73a3.961,3.961,0,0,1,2.721,1.095H11.3Zm16.508-19.825a.916.916,0,0,1,.914.914v1.056a.916.916,0,0,1-.914.914h-.2c.007-.142.011-.284.011-.427v-2.457Zm-2.014-8.066v1.626a5.2,5.2,0,0,0-.936-.577,8.247,8.247,0,0,0-2.224-.667v-.558a4.827,4.827,0,0,0-.569-2.278,2.668,2.668,0,0,1,3.728,2.454Zm-10.5-3.205h2.479a3.032,3.032,0,0,1,3.029,3.029v.366c-.588-.031-1.184-.041-1.774-.041a13.822,13.822,0,0,0-5.827.9,5.2,5.2,0,0,0-.936.577v-1.8A3.032,3.032,0,0,1,15.3,138.342ZM10.253,152.5a.916.916,0,0,1-.914-.914v-1.056a.916.916,0,0,1,.914-.914h.185v2.457c0,.143,0,.286.011.427Zm2.014-5.052c0-2.932,1.706-3.921,6.762-3.921s6.762.989,6.762,3.921v4.625a6.763,6.763,0,1,1-13.525,0S12.266,147.446,12.266,147.446Zm-.848,17.448,1.256-3.552a7.088,7.088,0,0,1,1.526-2.093,8.5,8.5,0,0,0,9.658,0,7.015,7.015,0,0,1,2.212,5.113v3.247h-.951V164.4a.914.914,0,0,0-1.829,0v3.243a5.821,5.821,0,0,0-2.807,1.114,5.8,5.8,0,0,0-.668-.429,2.52,2.52,0,0,0,.436-1.42v-.756a2.536,2.536,0,0,0-1.477-2.3l-.608-2.029a.914.914,0,0,0-1.752.525l.428,1.428c-.037.014-.075.025-.111.041H15.343l.338-.93a.914.914,0,0,0-1.719-.625l-.784,2.157a.914.914,0,0,0,.859,1.227h1.2a2.535,2.535,0,0,0-.051.506v.756c0,.078,0,.155.012.231h-2.2a1.614,1.614,0,0,1-1.576-2.251Z" transform="translate(0 -101.444)"/>
    </g>
  </g>
</svg>
