<svg xmlns="http://www.w3.org/2000/svg" xmlns:xlink="http://www.w3.org/1999/xlink" width="505" height="304" viewBox="0 0 505 304">
  <defs>
    <clipPath id="clip-path">
      <rect id="Rectángulo_409901" data-name="Rectángulo 409901" width="505" height="304" transform="translate(180 2040)" fill="#fff" stroke="#707070" stroke-width="1"/>
    </clipPath>
    <clipPath id="clip-path-2">
      <rect id="Rectángulo_409889" data-name="Rectángulo 409889" width="666.25" height="614.856" fill="none"/>
    </clipPath>
    <clipPath id="clip-path-3">
      <rect id="Rectángulo_409897" data-name="Rectángulo 409897" width="482.895" height="482.894" fill="none"/>
    </clipPath>
    <clipPath id="clip-path-4">
      <rect id="Rectángulo_409895" data-name="Rectángulo 409895" width="5.259" height="5.26" fill="none"/>
    </clipPath>
    <clipPath id="clip-path-6">
      <path id="Trazado_996963" data-name="Trazado 996963" d="M200.682,120.976c2.645.539,3.892-2.746,3.892-2.746l-6.52-1.326s-.018,3.534,2.628,4.072" transform="translate(-198.054 -116.904)" fill="none"/>
    </clipPath>
  </defs>
  <g id="Enmascarar_grupo_1098759" data-name="Enmascarar grupo 1098759" transform="translate(-180 -2040)" clip-path="url(#clip-path)">
    <g id="Grupo_1160025" data-name="Grupo 1160025">
      <path id="Trazado_994916" data-name="Trazado 994916" d="M57.767,392.92C54.976,330.636,85.814,277.141,132.354,247a34.674,34.674,0,0,0,15.54-25.283q.094-.839.2-1.679c8.534-68.387,72.449-116.428,140.528-107.166,65.12,8.862,112,43.272,105.075,109.54-.033.312-.07.765-.108,1.339a31.645,31.645,0,0,0,31,33.668q5.674.138,11.421.734c77.69,8.118,134.047,77.936,125.773,155.881A141.308,141.308,0,0,1,516.6,503.451H111.628c-30.784-29.46-52.06-70.328-53.862-110.531" transform="translate(122.408 1840.549)" fill="#70e8ad"/>
      <g id="Grupo_1160024" data-name="Grupo 1160024" transform="translate(-8269.571 393.732)">
        <g id="Grupo_1160009" data-name="Grupo 1160009" transform="translate(8415.321 1582.927)">
          <g id="Grupo_1160023" data-name="Grupo 1160023" transform="translate(-5.369 13)">
            <line id="Línea_817" data-name="Línea 817" x2="496.015" transform="translate(7.675 513.212)" fill="none" stroke="#c5c6fc" stroke-miterlimit="10" stroke-width="0.2"/>
            <path id="Trazado_996839" data-name="Trazado 996839" d="M21.531,177.334c11.913,1.8,24.033,3.6,35.954,1.863s23.834-7.553,30.064-17.864,5-25.409-4.641-32.633c-9.861-7.387-26.419-6.282-31.314-17.743-2.27-5.314-.946-11.423,2.649-15.948,5.914-7.441,15.216-9.8,24.2-11.036,24.446-3.354,49.233.143,73.876,1.417s50.443.046,72.122-11.739c.216-.119.433-.238.648-.358,29.352-16.4,18.637-61.133-14.939-62.876L9.423,0C2.282,59.063,7.947,119.413,21.531,177.334" transform="translate(-6.321 0.001)" fill="#dcfcff"/>
            <path id="Trazado_996840" data-name="Trazado 996840" d="M670.134,372.559c-9.967,1.5-20.107,3.01-30.081,1.559S620.112,367.8,614.9,359.173s-4.186-21.26,3.882-27.3c8.25-6.181,22.1-5.256,26.2-14.845a13.252,13.252,0,0,0-2.216-13.343c-4.948-6.225-12.731-8.2-20.243-9.233-20.453-2.807-41.192.119-61.81,1.185s-42.2.04-60.341-9.822q-.272-.148-.543-.3c-24.558-13.717-15.593-51.147,12.5-52.6l167.937-8.716c5.974,49.417,1.235,99.908-10.13,148.368" transform="translate(-130.91 -7.669)" fill="#dcfcff"/>
            <path id="Trazado_996841" data-name="Trazado 996841" d="M474.023,156.731l-18.635,9.053L445.465,147.6l-20.707.691-1.668-20.651-19.2-7.791L410.77,100.3,396.4,85.379l14.231-15.058-7.056-19.479L422.7,42.874l1.477-20.665,20.712.5,9.754-18.278,18.718,8.881L489.708.583l13.486,15.726L523.3,11.329l5.924,19.853,20.4,3.629-2.663,20.546,17.158,11.612L553.333,84.655l10.952,17.587-17.051,11.769,2.852,20.521-20.364,3.816-5.741,19.907-20.155-4.8L490.485,169.31Z" transform="translate(-19.666 -0.019)" fill="#f9bd53"/>
          </g>
        </g>
        <g id="Grupo_1160011" data-name="Grupo 1160011" transform="translate(8451.711 1562.912)">
          <g id="Grupo_1160010" data-name="Grupo 1160010" clip-path="url(#clip-path-2)">
            <path id="Trazado_996842" data-name="Trazado 996842" d="M356.828,125.29a2.025,2.025,0,0,1-1.375-1.5l-1.241-5.708-1.24,5.708a2.027,2.027,0,0,1-1.375,1.5l-3.647,1.14,3.647,1.139a2.027,2.027,0,0,1,1.375,1.5l1.24,5.708,1.241-5.708a2.025,2.025,0,0,1,1.375-1.5l3.647-1.139Z" transform="translate(-11.904 -4.04)" fill="#8680f1"/>
            <path id="Trazado_996843" data-name="Trazado 996843" d="M156.706,237.105a1.823,1.823,0,0,1-1.237-1.352l-1.115-5.132-1.115,5.132A1.821,1.821,0,0,1,152,237.105l-3.279,1.025L152,239.154a1.822,1.822,0,0,1,1.237,1.352l1.115,5.132,1.115-5.132a1.824,1.824,0,0,1,1.237-1.352l3.279-1.024Z" transform="translate(-5.088 -7.89)" fill="#8680f1"/>
            <path id="Trazado_996844" data-name="Trazado 996844" d="M477.465,238.6a1.854,1.854,0,0,1-1.257-1.374l-1.134-5.218-1.135,5.218a1.85,1.85,0,0,1-1.257,1.374l-3.334,1.041,3.334,1.042a1.85,1.85,0,0,1,1.257,1.374l1.135,5.218,1.134-5.218a1.854,1.854,0,0,1,1.257-1.374l3.334-1.042Z" transform="translate(-16.057 -7.937)" fill="#8680f1"/>
          </g>
        </g>
        <g id="Grupo_1160016" data-name="Grupo 1160016" transform="translate(8472.051 1613.245)">
          <g id="Grupo_1160015" data-name="Grupo 1160015" transform="translate(0 0)" clip-path="url(#clip-path-3)">
            <path id="Trazado_996845" data-name="Trazado 996845" d="M94.571,297.733s15.833,9.086,28.119-.464c0,0-8.19-47.488-7.685-51.027s2.935-10.75-.264-14.024-7.654-2.176-9.347-5.985-2.3-8.1-10.514-6.951-27.616,6.881-25.875,19.247S55.606,262.5,56.939,269.1c.67,3.314-1.966,12.822-5.3,22.263a14.491,14.491,0,0,0,17.013,18.9c9.217-2.2,18.972-6,25.922-12.535" transform="translate(-22.078 -57.828)" fill="#2b3440"/>
            <path id="Trazado_996846" data-name="Trazado 996846" d="M132.56,362.691s8.822,26.6,16.062,68.953S172.511,571,172.511,571s-12.668,8.142-25.7,3.982l-43.8-126.685L88.9,575.52s-15.926,8.143-28.232,0c0,0-2.534-80.9-5.689-137-2.551-45.355,13.788-67.55,13.788-67.55Z" transform="translate(-22.212 -62.741)" fill="#fd715b"/>
            <path id="Trazado_996847" data-name="Trazado 996847" d="M104.727,448.433l3.982-22.8s13.658-25.412,10.448-58.855" transform="translate(-23.923 -62.881)" fill="none" stroke="#2b3440" stroke-miterlimit="10" stroke-width="0.9"/>
            <path id="Trazado_996848" data-name="Trazado 996848" d="M108.849,427.35s14.659-4.163,22.8-10.316" transform="translate(-24.064 -64.6)" fill="none" stroke="#2b3440" stroke-miterlimit="10" stroke-width="0.9"/>
            <path id="Trazado_996849" data-name="Trazado 996849" d="M80.143,381.055s-1.267,14.84-11.583,22.26" transform="translate(-22.686 -63.369)" fill="none" stroke="#2b3440" stroke-miterlimit="10" stroke-width="0.9"/>
            <path id="Trazado_996850" data-name="Trazado 996850" d="M123.892,365.774s1.649,12.406,0,21.455l-4.417,1.985" transform="translate(-24.428 -62.846)" fill="none" stroke="#2b3440" stroke-miterlimit="10" stroke-width="0.9"/>
            <path id="Trazado_996851" data-name="Trazado 996851" d="M55.682,292.916C60.025,280.292,82.3,271.449,82.3,271.449l17.69-3.237s11.936-2.16,19.816,0c11.81,3.237,25.654,30.223,50.086,52.665l-7.329,23.617c-16.559-3.529-30.269-19.138-30.269-19.138l-3.121,3.8,3.393,30.269a193.315,193.315,0,0,1-63.794,8.28s-17.436-62.166-13.092-74.79" transform="translate(-22.222 -59.476)" fill="#8680f1"/>
            <path id="Trazado_996852" data-name="Trazado 996852" d="M102.273,257.472l.814,10.406s12.115,13.525,1.719,18.007c-9.863,4.253-20.269-7.893-21.536-14.77l1.1-11.179" transform="translate(-23.189 -59.141)" fill="#ef9f7f"/>
            <path id="Trazado_996853" data-name="Trazado 996853" d="M131.8,330.678s8.416-6.153,1.357-18.957" transform="translate(-24.85 -60.997)" fill="none" stroke="#2b3440" stroke-miterlimit="10" stroke-width="0.9"/>
            <path id="Trazado_996854" data-name="Trazado 996854" d="M121.775,311.908s-2.624,48.684-26.152,60.447c0,0-4.712,1.158-7.062-4.4s-1.444-23.835,2.537-29.988,19.908-26.061,19.908-26.061" transform="translate(-23.326 -61.004)" fill="#ef9f7f"/>
            <line id="Línea_840" data-name="Línea 840" x1="15.922" y1="33.026" transform="translate(56.19 237.874)" fill="none" stroke="#2b3440" stroke-miterlimit="10" stroke-width="0.9"/>
            <path id="Trazado_996855" data-name="Trazado 996855" d="M214.88,335.008a9.875,9.875,0,0,1,5.882-2.729c5.248-.633,8.959.815,17.012-1.719s2.081,5.7-6.244,6.515c0,0,19.093,7.873,19.455,11.945,0,0,.724,1.719-1.086,1.538,0,0,2.262,1.266,2.081,2.443s-1.087,1-1.087,1,1.81,3.077-4.705,2.081c0,0,1.267,2.624-2.986,1.448s-10.134-4.343-14.3-4.434c-3.395-.073-10.1-1.112-14.026-3.405v.238s-32.033,0-48.593-3.528c-.865-.184-1.721-.409-2.57-.656,1.467-15.963,9.9-22.962,9.9-22.962l41.263,12.215Z" transform="translate(-25.941 -61.376)" fill="#ef9f7f"/>
            <path id="Trazado_996856" data-name="Trazado 996856" d="M216.625,335.426a8.166,8.166,0,0,0-1.9,4.683" transform="translate(-27.686 -61.808)" fill="none" stroke="#2b3440" stroke-miterlimit="10" stroke-width="0.9"/>
            <path id="Trazado_996857" data-name="Trazado 996857" d="M248.648,356.7a82.406,82.406,0,0,0-13.054-6.9s2.139-6.822,1.629-8.875" transform="translate(-28.4 -61.996)" fill="none" stroke="#2b3440" stroke-miterlimit="10" stroke-width="0.9"/>
            <path id="Trazado_996858" data-name="Trazado 996858" d="M253.389,354.818s-9.953-6.311-16.741-8.008" transform="translate(-28.436 -62.198)" fill="none" stroke="#2b3440" stroke-miterlimit="10" stroke-width="0.9"/>
            <path id="Trazado_996859" data-name="Trazado 996859" d="M252.416,351.271s-9.434-6.2-15.135-7.624" transform="translate(-28.458 -62.089)" fill="none" stroke="#2b3440" stroke-miterlimit="10" stroke-width="0.9"/>
            <path id="Trazado_996860" data-name="Trazado 996860" d="M233.794,337.541c-.567-.113-3.892-1.131-3.892-1.131" transform="translate(-28.206 -61.842)" fill="none" stroke="#2b3440" stroke-miterlimit="10" stroke-width="0.9"/>
            <path id="Trazado_996861" data-name="Trazado 996861" d="M232.431,348.39s-5.022-6.923-11.945-4.411" transform="translate(-27.883 -62.082)" fill="none" stroke="#2b3440" stroke-miterlimit="10" stroke-width="0.9"/>
            <path id="Trazado_996862" data-name="Trazado 996862" d="M102.96,272.16l.826-19.485H86.7l-2.807,20.062s12.054,8.422,19.071-.578" transform="translate(-23.21 -58.977)" fill="#ef9f7f"/>
            <path id="Trazado_996863" data-name="Trazado 996863" d="M93.971,228.312s6.77.578,9.742,4.293,3.964,9.578,3.964,9.578,4.54.825,4.954,6.357-4.046,8.5-13.045,9.082-14.7-5.285-15.439-10.238a8.313,8.313,0,0,1,4.623-5.2c3.715-1.569,5.284-9.247,5.2-13.871" transform="translate(-23.219 -58.144)" fill="#ef9f7f"/>
            <path id="Trazado_996864" data-name="Trazado 996864" d="M104.323,258.849a34.068,34.068,0,0,1-4.575.578,15.907,15.907,0,0,1-10.816-3.044" transform="translate(-23.383 -59.104)" fill="none" stroke="#2b3440" stroke-linecap="round" stroke-linejoin="round" stroke-width="0.9"/>
            <path id="Trazado_996865" data-name="Trazado 996865" d="M78.16,251.011c1.7,2.952,4.956,4.267,7.263,2.935s2.795-4.8,1.09-7.757-4.956-4.267-7.263-2.935-2.795,4.8-1.09,7.757" transform="translate(-22.98 -58.637)" fill="#ef9f7f"/>
            <line id="Línea_841" data-name="Línea 841" x1="5.284" y1="1.37" transform="translate(56.138 188.043)" fill="none" stroke="#2b3440" stroke-miterlimit="10" stroke-width="0.9"/>
            <path id="Trazado_996866" data-name="Trazado 996866" d="M81.587,247.443s-.419,2.834,1.892,3.411" transform="translate(-23.131 -58.798)" fill="none" stroke="#2b3440" stroke-miterlimit="10" stroke-width="0.9"/>
            <path id="Trazado_996867" data-name="Trazado 996867" d="M102.224,245.384s3.375-.5,3.38,1.073c0,1.61-2.247,1.965-2.247,1.965" transform="translate(-23.838 -58.725)" fill="none" stroke="#2b3440" stroke-miterlimit="10" stroke-width="0.9"/>
            <line id="Línea_842" data-name="Línea 842" x1="1.482" y1="4.561" transform="translate(77.622 182.036)" fill="none" stroke="#2b3440" stroke-miterlimit="10" stroke-width="0.9"/>
            <path id="Trazado_996868" data-name="Trazado 996868" d="M99.768,251.379l-2.414-.4s.185,2.633,1.207,2.695,1.207-2.291,1.207-2.291" transform="translate(-23.671 -58.919)" fill="#fff"/>
            <path id="Trazado_996869" data-name="Trazado 996869" d="M95.44,243.7c.193.66.675,1.1,1.076.982s.57-.747.377-1.407-.675-1.1-1.076-.982-.57.748-.377,1.407" transform="translate(-23.603 -58.622)" fill="#2b3440"/>
            <path id="Trazado_996870" data-name="Trazado 996870" d="M104.987,241.314c.16.668.62,1.131,1.027,1.033s.606-.719.444-1.387-.62-1.132-1.027-1.033-.606.719-.444,1.387" transform="translate(-23.93 -58.541)" fill="#2b3440"/>
            <line id="Línea_843" data-name="Línea 843" y2="5.791" transform="translate(79.898 208.737)" fill="none" stroke="#2b3440" stroke-miterlimit="10" stroke-width="0.9"/>
            <rect id="Rectángulo_409890" data-name="Rectángulo 409890" width="4.87" height="128.478" transform="translate(85.325 121.61) rotate(-10.04)" fill="#c5c6fc"/>
            <rect id="Rectángulo_409891" data-name="Rectángulo 409891" width="102.341" height="55.007" transform="translate(33.082 106.056) rotate(-10.036)" fill="#fd715b"/>
            <path id="Trazado_996871" data-name="Trazado 996871" d="M108.723,152.168l49.194-8.707,9.586,54.165" transform="translate(-24.06 -55.241)" fill="none" stroke="#2b3440" stroke-miterlimit="10" stroke-width="0.9"/>
            <path id="Trazado_996872" data-name="Trazado 996872" d="M111.847,310.94s5.474-10.3,6.831-12.239,5.441-12.372,8.868-13.859l1.83,4.957s11.812-2.559,17.371-4.944,6.287-.807,5.872.238-6.145,4.172-6.145,4.172a8.9,8.9,0,0,1-1.42,3.284,5.307,5.307,0,0,1-1.484,4.034s.249.885-1.245,3.137-10.645,8.053-10.645,8.053-8.927,7.859-9.255,7.566-8.446.566-10.577-4.4" transform="translate(-24.167 -60.035)" fill="#ef9f7f"/>
            <path id="Trazado_996873" data-name="Trazado 996873" d="M147.27,289.465s-8.568,3.9-12.133,6.046" transform="translate(-24.964 -60.236)" fill="none" stroke="#2b3440" stroke-linecap="round" stroke-linejoin="round" stroke-width="0.9"/>
            <line id="Línea_844" data-name="Línea 844" x1="10.02" y2="6.583" transform="translate(110.867 232.513)" fill="none" stroke="#2b3440" stroke-linecap="round" stroke-linejoin="round" stroke-width="0.9"/>
            <line id="Línea_845" data-name="Línea 845" x1="7.411" y2="5.036" transform="translate(111.992 236.547)" fill="none" stroke="#2b3440" stroke-linecap="round" stroke-linejoin="round" stroke-width="0.9"/>
            <path id="Trazado_996874" data-name="Trazado 996874" d="M355.78,239.763a14.683,14.683,0,0,0,9.429,5.08c7.27.982,12.573,8.448,7.138,19.645H347.12V239.763Z" transform="translate(-32.216 -58.536)" fill="#2b3440"/>
            <path id="Trazado_996875" data-name="Trazado 996875" d="M350.437,222.153s7.865-.373,8.146-8.737c.212-6.316-6.81-6.41-9.563-5.2-4.014,1.771-6.73-3.537-15.82-1.355s-10.39,10.328-9.8,20.717c.427,7.528-24.994-.248-34.71,6.847-10.507,7.674-11.334,25.619,4.368,32.939s25.186,8.619,32.014,4.25,6.356-12.4,6.356-12.4l3.069-28.778Z" transform="translate(-29.954 -57.392)" fill="#2b3440"/>
            <path id="Trazado_996876" data-name="Trazado 996876" d="M390.271,411.982,423.818,599.7a24.008,24.008,0,0,0,11.236,11.042c8.33,4.068,18.6,7.555,17.241,18.21H395.923s-.194-16.467.581-20.922c0,0-25.1-67.028-27.37-103.06,0,0-22.1-62.611-26.1-86.212Z" transform="translate(-32.076 -64.427)" fill="#bb583b"/>
            <path id="Trazado_996877" data-name="Trazado 996877" d="M297.646,424.757l9.986,180.609s-1.075,5.037-4.993,7.555-9.924,6.587-9.149,16.466H336.11s-.388-17.047-1.55-25.571L345.8,424.757Z" transform="translate(-30.379 -64.864)" fill="#bb583b"/>
            <path id="Trazado_996878" data-name="Trazado 996878" d="M375.867,344.586l2.325,9.88s18.4,55.4,19.76,72.064c0,0-30.221,11.042-55.211,12.592s-53.661-4.262-53.661-4.262,4.651-53.08,14.336-75.552l.58-10.46Z" transform="translate(-30.23 -62.122)" fill="#404f60"/>
            <path id="Trazado_996879" data-name="Trazado 996879" d="M378.7,354.816s-29.64,9.88-74.777,4.843" transform="translate(-30.738 -62.472)" fill="none" stroke="#2b3440" stroke-linecap="round" stroke-linejoin="round" stroke-width="0.9"/>
            <path id="Trazado_996880" data-name="Trazado 996880" d="M367.651,358.064s11.183,52.127,13.949,74.862" transform="translate(-32.918 -62.583)" fill="none" stroke="#2b3440" stroke-linecap="round" stroke-linejoin="round" stroke-width="0.9"/>
            <line id="Línea_846" data-name="Línea 846" x2="3.227" y2="30.097" transform="translate(325.481 344.844)" fill="none" stroke="#2b3440" stroke-linecap="round" stroke-linejoin="round" stroke-width="0.9"/>
            <line id="Línea_847" data-name="Línea 847" x2="3.284" y2="30.63" transform="translate(320.407 297.517)" fill="none" stroke="#2b3440" stroke-linecap="round" stroke-linejoin="round" stroke-width="0.9"/>
            <path id="Trazado_996881" data-name="Trazado 996881" d="M336.217,361.234s.208,62.675,1.557,78.7" transform="translate(-31.843 -62.691)" fill="none" stroke="#2b3440" stroke-linecap="round" stroke-linejoin="round" stroke-width="0.9"/>
            <line id="Línea_848" data-name="Línea 848" x1="1.484" y2="22.007" transform="translate(284.588 354.329)" fill="none" stroke="#2b3440" stroke-linecap="round" stroke-linejoin="round" stroke-width="0.9"/>
            <line id="Línea_849" data-name="Línea 849" x1="3.13" y2="46.4" transform="translate(286.712 298.443)" fill="none" stroke="#2b3440" stroke-linecap="round" stroke-linejoin="round" stroke-width="0.9"/>
            <line id="Línea_850" data-name="Línea 850" x1="9.986" y2="73.329" transform="translate(267.267 300.868)" fill="none" stroke="#2b3440" stroke-linecap="round" stroke-linejoin="round" stroke-width="0.9"/>
            <path id="Trazado_996882" data-name="Trazado 996882" d="M253.6,267.353a8.835,8.835,0,0,1-2.536-4.2c-1.162-3.971,0-8.814,0-8.814l-1.162-3.1c-1.065-4.649,2.228-5.093,2.228-5.093-.194-3.737,3.583-2.85,3.583-2.85s-.738-.678,2.265-1.387,4.225,3.808,4.225,3.808-.606-6.359,3.173-4.712c2.442,1.064,2.348,6.359,2.348,6.359a9.726,9.726,0,0,1,3.294,1.065c1.162.775,2.034,9.3,2.227,11.623s-6.005,6.587-6.005,6.587l3.875,34.1,20.109-33.7a23.244,23.244,0,0,1,15.5-10.9l20.178-4.169,20.7,1.671,1.688.512,16.472,4.434a31.383,31.383,0,0,1,16.012,10.838l13.225,16.815-15.989,21.667a19.947,19.947,0,0,1-5.424,14.142l.775,18.985s-34,7.071-71.871,4.262l-2.518-31.964-.194-3.112s-36.226,49.537-49.4,35.978c-12.643-13.015,2.015-73.963,3.214-78.844" transform="translate(-28.732 -58.569)" fill="#c5c6fc"/>
            <path id="Trazado_996883" data-name="Trazado 996883" d="M379.112,291.425c-.276-5.243-.65-20.272-.842-28.49a31.356,31.356,0,0,1,8.062,7.249L399.556,287l-15.989,21.667s-.291-3.487-4.455-17.241" transform="translate(-33.281 -59.328)" fill="#bb583b"/>
            <path id="Trazado_996884" data-name="Trazado 996884" d="M250.387,346.154c-12.643-13.014,2.015-73.962,3.214-78.843a8.836,8.836,0,0,1-2.536-4.2,17.894,17.894,0,0,1-.127-8.191L249.9,251.2c-1.066-4.649,2.227-5.094,2.227-5.094-.193-3.736,3.584-2.849,3.584-2.849s-.738-2.157,2.265-2.867,4.225,5.288,4.225,5.288-.007-7.59,3.77-5.944c2.443,1.065,1.75,7.592,1.75,7.592a9.718,9.718,0,0,1,3.293,1.065c1.163.776,2.034,9.3,2.228,11.623s-6.005,6.586-6.005,6.586l3.875,34.1L291.224,267a23.219,23.219,0,0,1,6.3-6.872c2.4,18.007,2.267,50.05,2.267,50.05s-36.227,49.537-49.4,35.976" transform="translate(-28.732 -58.527)" fill="#bb583b"/>
            <line id="Línea_851" data-name="Línea 851" x1="3.216" y2="5.389" transform="translate(242.383 236.781)" fill="#2b3440"/>
            <rect id="Rectángulo_409892" data-name="Rectángulo 409892" width="4.87" height="128.478" transform="translate(229.251 95.172)" fill="#ff9997"/>
            <rect id="Rectángulo_409893" data-name="Rectángulo 409893" width="110.847" height="59.58" transform="translate(175.66 68.431)" fill="#27cd6b"/>
            <path id="Trazado_996885" data-name="Trazado 996885" d="M261.689,122.971H315.8v59.58" transform="translate(-29.293 -54.54)" fill="none" stroke="#2b3440" stroke-miterlimit="10" stroke-width="0.9"/>
            <line id="Línea_852" data-name="Línea 852" x2="2.325" y2="17.241" transform="translate(242.383 242.17)" fill="none" stroke="#2b3440" stroke-linecap="round" stroke-linejoin="round" stroke-width="0.9"/>
            <path id="Trazado_996886" data-name="Trazado 996886" d="M268.175,247.561l-9.2-1.218s-1.549,1.314.581,3.737,7.265,3.2,7.265,3.2" transform="translate(-29.182 -58.761)" fill="#bb583b"/>
            <path id="Trazado_996887" data-name="Trazado 996887" d="M263.419,252.564s-3.069,3.249-.551,8.963" transform="translate(-29.299 -58.973)" fill="#bb583b"/>
            <line id="Línea_853" data-name="Línea 853" x2="2.269" y2="4.165" transform="translate(226.983 184.732)" fill="#bb583b"/>
            <path id="Trazado_996888" data-name="Trazado 996888" d="M252.373,246.342s.932,5.094,1.767,6.292a8.7,8.7,0,0,0,7.586,2.641s-.968,3.473.817,6.04l4.007-1.889,1.417-4.267v-4.289Z" transform="translate(-28.974 -58.761)" fill="#bb583b"/>
            <path id="Trazado_996889" data-name="Trazado 996889" d="M260.418,255.71a2.894,2.894,0,0,1-1.308,3.23c-1.925,1.2-7.974-3.467-7.974-3.467" transform="translate(-28.932 -59.073)" fill="#bb583b"/>
            <path id="Trazado_996890" data-name="Trazado 996890" d="M260.418,255.71a2.894,2.894,0,0,1-1.308,3.23c-1.925,1.2-7.974-3.467-7.974-3.467" transform="translate(-28.932 -59.073)" fill="none" stroke="#2b3440" stroke-linecap="round" stroke-linejoin="round" stroke-width="0.9"/>
            <line id="Línea_854" data-name="Línea 854" x1="1.865" y2="1.38" transform="translate(236.644 208.075)" fill="none" stroke="#2b3440" stroke-linecap="round" stroke-linejoin="round" stroke-width="0.9"/>
            <line id="Línea_855" data-name="Línea 855" x2="1.605" y2="1.616" transform="translate(224.869 208.784)" fill="none" stroke="#2b3440" stroke-linecap="round" stroke-linejoin="round" stroke-width="0.9"/>
            <path id="Trazado_996891" data-name="Trazado 996891" d="M268.175,247.561l-9.2-1.218s-1.549,1.314.581,3.737,7.265,3.2,7.265,3.2" transform="translate(-29.182 -58.761)" fill="none" stroke="#2b3440" stroke-linecap="round" stroke-linejoin="round" stroke-width="0.9"/>
            <path id="Trazado_996892" data-name="Trazado 996892" d="M263.419,252.564s-3.069,3.249-.551,8.963" transform="translate(-29.299 -58.973)" fill="none" stroke="#2b3440" stroke-linecap="round" stroke-linejoin="round" stroke-width="0.9"/>
            <line id="Línea_856" data-name="Línea 856" x2="2.269" y2="4.165" transform="translate(226.983 184.732)" fill="none" stroke="#2b3440" stroke-linecap="round" stroke-linejoin="round" stroke-width="0.9"/>
            <path id="Trazado_996893" data-name="Trazado 996893" d="M252.373,246.342s.932,5.094,1.767,6.292a8.7,8.7,0,0,0,7.586,2.641" transform="translate(-28.974 -58.761)" fill="none" stroke="#2b3440" stroke-linecap="round" stroke-linejoin="round" stroke-width="0.9"/>
            <path id="Trazado_996894" data-name="Trazado 996894" d="M377.71,324.929a34.992,34.992,0,0,1-12.107,3.293" transform="translate(-32.848 -61.449)" fill="none" stroke="#2b3440" stroke-linecap="round" stroke-linejoin="round" stroke-width="0.9"/>
            <path id="Trazado_996895" data-name="Trazado 996895" d="M329.472,251.726l4.164-18.1,17.339,1.9-.8,17.871,1.688.512,10.281,2.641c-.012.074-.023.15-.036.229-3.771,23.916-38.529,23.5-41.538-.525-.1-.828-.2-1.661-.292-2.505Z" transform="translate(-31.298 -58.326)" fill="#bb583b"/>
            <path id="Trazado_996896" data-name="Trazado 996896" d="M350.578,213.4a9.13,9.13,0,0,1,6.393,6.1,46.53,46.53,0,0,1,1.937,7.555s4.086,1.959,2.519,8.815c-1.623,7.095-19.275,11.008-27.315-2.94v-5.681a6.437,6.437,0,0,1,5.038-3c3.681-.387,11.72-2.035,11.429-10.849" transform="translate(-31.771 -57.634)" fill="#bb583b"/>
            <path id="Trazado_996897" data-name="Trazado 996897" d="M351.112,242.944a17.791,17.791,0,0,1-17-9.316" transform="translate(-31.771 -58.326)" fill="none" stroke="#2b3440" stroke-linecap="round" stroke-linejoin="round" stroke-width="0.9"/>
            <path id="Trazado_996898" data-name="Trazado 996898" d="M327.288,230.856c.951,2.5,3.487,3.854,5.66,3.027s3.167-3.526,2.215-6.026-3.486-3.854-5.66-3.027-3.167,3.526-2.215,6.026" transform="translate(-31.525 -58.016)" fill="#bb583b"/>
            <line id="Línea_857" data-name="Línea 857" x1="3.777" y1="2.228" transform="translate(298.176 169.573)" fill="none" stroke="#2b3440" stroke-linecap="round" stroke-linejoin="round" stroke-width="0.9"/>
            <path id="Trazado_996899" data-name="Trazado 996899" d="M331.364,228.627s-1.235,1.6.7,3.217" transform="translate(-31.663 -58.155)" fill="none" stroke="#2b3440" stroke-linecap="round" stroke-linejoin="round" stroke-width="0.9"/>
            <path id="Trazado_996900" data-name="Trazado 996900" d="M356.017,233.15s1.792-1.4,1.114-2.664-2.76.291-2.76.291" transform="translate(-32.464 -58.201)" fill="none" stroke="#2b3440" stroke-linecap="round" stroke-linejoin="round" stroke-width="0.9"/>
            <path id="Trazado_996901" data-name="Trazado 996901" d="M355.19,230.16a11.2,11.2,0,0,1-1.523-3.768" transform="translate(-32.44 -58.078)" fill="none" stroke="#2b3440" stroke-linecap="round" stroke-linejoin="round" stroke-width="0.9"/>
            <path id="Trazado_996902" data-name="Trazado 996902" d="M354.178,235.938s-5.975-1.928-7.085-2.31c-3.082-.434,4.037,8.063,7.085,2.31" transform="translate(-32.189 -58.325)" fill="#fff"/>
            <path id="Trazado_996903" data-name="Trazado 996903" d="M356.083,227.022a.63.63,0,1,0,.63-.63.63.63,0,0,0-.63.63" transform="translate(-32.522 -58.078)" fill="#2b3440"/>
            <path id="Trazado_996904" data-name="Trazado 996904" d="M349.606,228.32a.63.63,0,1,0,.63-.63.63.63,0,0,0-.63.63" transform="translate(-32.301 -58.122)" fill="#2b3440"/>
            <line id="Línea_858" data-name="Línea 858" x1="0.315" y2="5.594" transform="translate(318.564 195.072)" fill="none" stroke="#2b3440" stroke-linecap="round" stroke-linejoin="round" stroke-width="0.9"/>
            <path id="Trazado_996905" data-name="Trazado 996905" d="M340.028,294.34s2.325,12.689,2.034,19.275" transform="translate(-31.973 -60.403)" fill="none" stroke="#2b3440" stroke-linecap="round" stroke-linejoin="round" stroke-width="0.9"/>
            <line id="Línea_859" data-name="Línea 859" x1="2.449" y2="0.291" transform="translate(322.75 165.578)" fill="none" stroke="#2b3440" stroke-linecap="round" stroke-linejoin="round" stroke-width="0.9"/>
            <line id="Línea_860" data-name="Línea 860" x1="3.03" y2="1.109" transform="translate(314.822 166.549)" fill="none" stroke="#2b3440" stroke-linecap="round" stroke-linejoin="round" stroke-width="0.9"/>
            <path id="Trazado_996906" data-name="Trazado 996906" d="M328.961,235.146a1.518,1.518,0,1,0,1.518-1.518,1.518,1.518,0,0,0-1.518,1.518" transform="translate(-31.595 -58.326)" fill="#f9bd53"/>
            <path id="Trazado_996907" data-name="Trazado 996907" d="M163.087,391.831s-3.582,30.763-5.14,91.561-2.492,113.223-2.492,113.223,16.2,3.64,27.412,0l22.116-148.172,10.225,52.239a43.443,43.443,0,0,1,.786,7.013l2.7,88.557s18.378,5.42,26.476,1.982l6.651-112.164a42.431,42.431,0,0,0-.143-6.793l-9.156-89.9Z" transform="translate(-25.659 -63.654)" fill="#404f60"/>
            <path id="Trazado_996908" data-name="Trazado 996908" d="M206.737,448.442l1.9-16.2s14.217-20.388,14.022-42.869" transform="translate(-27.413 -63.654)" fill="none" stroke="#fff" stroke-linecap="round" stroke-linejoin="round" stroke-width="0.9"/>
            <path id="Trazado_996909" data-name="Trazado 996909" d="M215.89,419.578h2.667a3.1,3.1,0,0,0,2.818-2.161c1.729-4.649,5.433-16.11,4.832-27.571" transform="translate(-27.726 -63.67)" fill="none" stroke="#fff" stroke-linecap="round" stroke-linejoin="round" stroke-width="0.9"/>
            <path id="Trazado_996910" data-name="Trazado 996910" d="M208.708,433.654s9.937-1.092,14.024-3" transform="translate(-27.481 -65.066)" fill="none" stroke="#fff" stroke-linecap="round" stroke-linejoin="round" stroke-width="0.9"/>
            <path id="Trazado_996911" data-name="Trazado 996911" d="M164.566,417.71s10.279-13.652,12.382-22.117" transform="translate(-25.97 -63.867)" fill="none" stroke="#fff" stroke-linecap="round" stroke-linejoin="round" stroke-width="0.9"/>
            <path id="Trazado_996912" data-name="Trazado 996912" d="M226.068,256.984l23.786,8.92s11.374,4.789,14.517,16.312,16.911,56.57,16.911,56.57l-36.663-5.569-2.7-9.1-.117,60.725a142.235,142.235,0,0,1-41.974,5.871c-23.346-.3-37.457-3.414-37.457-3.414L165.3,331l-30.642,5.237,18.221-54.624s6.285-11.972,16.162-16.312a193.979,193.979,0,0,1,20.22-7.392Z" transform="translate(-24.947 -59.125)" fill="#c5c6fc"/>
            <path id="Trazado_996913" data-name="Trazado 996913" d="M134.6,339.56c.315,2.731,7.493,4.148,16.032,3.164s15.206-4,14.892-6.727-7.493-4.148-16.032-3.164-15.206,4-14.892,6.727" transform="translate(-24.945 -61.709)" fill="#2b3440"/>
            <line id="Línea_861" data-name="Línea 861" y1="26.564" x2="2.694" transform="translate(216.976 238.431)" fill="none" stroke="#2b3440" stroke-linecap="round" stroke-linejoin="round" stroke-width="0.9"/>
            <line id="Línea_862" data-name="Línea 862" y1="33.448" x2="1.871" transform="translate(140.353 238.431)" fill="none" stroke="#2b3440" stroke-linecap="round" stroke-linejoin="round" stroke-width="0.9"/>
            <path id="Trazado_996914" data-name="Trazado 996914" d="M248.513,335.793c-.518,3.175,7.265,7.085,17.381,8.734s18.738.412,19.256-2.762-7.265-7.085-17.381-8.734-18.738-.412-19.256,2.762" transform="translate(-28.841 -61.701)" fill="#2b3440"/>
            <path id="Trazado_996915" data-name="Trazado 996915" d="M191.195,257.8c4.767-1.565,8.266-2.634,8.266-2.634l20-1.5,8.539,3.2c-.678,8.621-8.67,15.43-18.453,15.43-9.429,0-17.2-6.326-18.354-14.5" transform="translate(-26.881 -59.011)" fill="#bb583b"/>
            <path id="Trazado_996916" data-name="Trazado 996916" d="M219.756,253.023,218.3,234.915l-17.921-.091-.622,19.7s1.145,6.435,10.724,6.435,9.278-7.932,9.278-7.932" transform="translate(-27.174 -58.367)" fill="#bb583b"/>
            <path id="Trazado_996917" data-name="Trazado 996917" d="M221.152,229.645s3.054-3.823,3.136-12.2a7.358,7.358,0,0,0,2.146-5.489c-.038-4.469-8.583-6.6-16.63-5.2s-13.249,4.457-13.577,7.1a3.481,3.481,0,0,0,1.321,3.591l.5,11.6Z" transform="translate(-27.052 -57.392)" fill="#2b3440"/>
            <path id="Trazado_996918" data-name="Trazado 996918" d="M222.155,218.217a83.017,83.017,0,0,1-.023,10.269c-.372,5.323,3.713,6.685.743,13.741-1.981,4.705-10.9,5.447-17.171,2.593a10.735,10.735,0,0,1-6.226-9.791v-7.41s6.19-2.848,6.685-9.781c0,0,9.182,2.847,15.992.378" transform="translate(-27.165 -57.785)" fill="#bb583b"/>
            <path id="Trazado_996919" data-name="Trazado 996919" d="M223.095,243.091c-1.981,4.705-10.9,5.447-17.171,2.593" transform="translate(-27.385 -58.649)" fill="none" stroke="#2b3440" stroke-linecap="round" stroke-linejoin="round" stroke-width="0.9"/>
            <path id="Trazado_996920" data-name="Trazado 996920" d="M219.35,227.378c.057.407.359.7.675.656a.677.677,0,0,0,.469-.816c-.057-.406-.359-.7-.675-.656a.677.677,0,0,0-.469.816" transform="translate(-27.844 -58.084)" fill="#2b3440"/>
            <path id="Trazado_996921" data-name="Trazado 996921" d="M209.694,227.378c.057.407.359.7.675.656a.677.677,0,0,0,.469-.816c-.057-.406-.359-.7-.675-.656a.677.677,0,0,0-.469.816" transform="translate(-27.514 -58.084)" fill="#2b3440"/>
            <path id="Trazado_996922" data-name="Trazado 996922" d="M212.977,236.656c-.37-1.77,3.548.165,3.548.165s-1.944,7.505-3.548-.165" transform="translate(-27.626 -58.404)" fill="#fff"/>
            <path id="Trazado_996923" data-name="Trazado 996923" d="M192.211,234.39c1.7,2.951,4.955,4.265,7.261,2.934s2.793-4.8,1.089-7.755-4.954-4.265-7.261-2.933-2.793,4.8-1.089,7.754" transform="translate(-26.881 -58.069)" fill="#bb583b"/>
            <line id="Línea_863" data-name="Línea 863" x1="4.481" y1="3.115" transform="translate(167.144 171.202)" fill="none" stroke="#2b3440" stroke-linecap="round" stroke-linejoin="round" stroke-width="0.9"/>
            <path id="Trazado_996924" data-name="Trazado 996924" d="M196.145,230.8s-1.374,2.512.594,3.854" transform="translate(-27.035 -58.229)" fill="none" stroke="#2b3440" stroke-linecap="round" stroke-linejoin="round" stroke-width="0.9"/>
            <line id="Línea_864" data-name="Línea 864" x2="0.187" y2="6.734" transform="translate(192.582 194.657)" fill="none" stroke="#2b3440" stroke-linecap="round" stroke-linejoin="round" stroke-width="0.9"/>
            <path id="Trazado_996925" data-name="Trazado 996925" d="M215.017,226.486s-.458,6.186,1.642,7.164H213.2" transform="translate(-27.634 -58.081)" fill="none" stroke="#2b3440" stroke-linecap="round" stroke-linejoin="round" stroke-width="0.9"/>
            <rect id="Rectángulo_409894" data-name="Rectángulo 409894" width="157.423" height="80.305" transform="translate(100.613 239.441)" fill="#f9bd53"/>
            <line id="Línea_865" data-name="Línea 865" x1="157.423" transform="translate(100.613 239.441)" fill="none" stroke="#2b3440" stroke-miterlimit="10" stroke-width="0.9"/>
            <path id="Trazado_996926" data-name="Trazado 996926" d="M286,353.782s3.42-3.235,4.15-6.083-1.309-3.707-1.309-3.707,2.024-3.247-.037-5.292a6.692,6.692,0,0,0-.758-4.335A6.149,6.149,0,0,0,286,329.342c-2.382-2.011-11.546-4.242-13.216-2.528s1.14,3.064,1.14,3.064-5.986-.3-6.394,1.691,4.219,3.053,4.219,3.053-4.832.955-.674,4.382l2.28,1.2s-4.882,1.431,2.634,5.578l7.735,3.3Z" transform="translate(-29.492 -61.493)" fill="#bb583b"/>
            <line id="Línea_866" data-name="Línea 866" x2="15.485" y2="3.789" transform="translate(243.86 278.712)" fill="none" stroke="#2b3440" stroke-linecap="round" stroke-linejoin="round" stroke-width="0.9"/>
            <line id="Línea_867" data-name="Línea 867" x2="17.056" y2="4.08" transform="translate(242.253 273.129)" fill="none" stroke="#2b3440" stroke-linecap="round" stroke-linejoin="round" stroke-width="0.9"/>
            <path id="Trazado_996927" data-name="Trazado 996927" d="M274.149,330.008s11.8,2.369,14.121,4.488" transform="translate(-29.719 -61.623)" fill="none" stroke="#2b3440" stroke-linecap="round" stroke-linejoin="round" stroke-width="0.9"/>
            <path id="Trazado_996928" data-name="Trazado 996928" d="M123.991,353.782s-3.42-3.235-4.15-6.083,1.309-3.707,1.309-3.707-2.024-3.247.037-5.292a6.692,6.692,0,0,1,.758-4.335,6.149,6.149,0,0,1,2.046-5.024c2.382-2.011,11.546-4.242,13.216-2.528s-1.14,3.064-1.14,3.064,5.986-.3,6.395,1.691-4.219,3.053-4.219,3.053,4.832.955.674,4.382l-2.28,1.2s4.882,1.431-2.634,5.578l-7.735,3.3Z" transform="translate(-24.435 -61.493)" fill="#bb583b"/>
            <line id="Línea_868" data-name="Línea 868" x1="15.486" y2="3.789" transform="translate(96.715 278.712)" fill="none" stroke="#2b3440" stroke-linecap="round" stroke-linejoin="round" stroke-width="0.9"/>
            <line id="Línea_869" data-name="Línea 869" x1="17.056" y2="4.08" transform="translate(96.752 273.129)" fill="none" stroke="#2b3440" stroke-linecap="round" stroke-linejoin="round" stroke-width="0.9"/>
            <path id="Trazado_996929" data-name="Trazado 996929" d="M136.147,330.008s-11.8,2.369-14.121,4.488" transform="translate(-24.515 -61.623)" fill="none" stroke="#2b3440" stroke-linecap="round" stroke-linejoin="round" stroke-width="0.9"/>
            <path id="Trazado_996930" data-name="Trazado 996930" d="M213.812,227.054c0,2.222-1.532,4.024-3.421,4.024s-3.422-1.8-3.422-4.024,1.532-4.024,3.422-4.024S213.812,224.832,213.812,227.054Z" transform="translate(-27.421 -57.963)" fill="none" stroke="#fff" stroke-linecap="round" stroke-linejoin="round" stroke-width="0.5"/>
            <path id="Trazado_996931" data-name="Trazado 996931" d="M223.239,226.841c0,2.222-1.532,4.024-3.421,4.024s-3.422-1.8-3.422-4.024,1.532-4.024,3.422-4.024S223.239,224.619,223.239,226.841Z" transform="translate(-27.744 -57.956)" fill="none" stroke="#fff" stroke-linecap="round" stroke-linejoin="round" stroke-width="0.5"/>
            <line id="Línea_870" data-name="Línea 870" x2="2.262" transform="translate(186.39 169.092)" fill="none" stroke="#fff" stroke-linecap="round" stroke-linejoin="round" stroke-width="0.5"/>
            <line id="Línea_871" data-name="Línea 871" x1="8.377" y2="0.911" transform="translate(171.171 169.092)" fill="none" stroke="#fff" stroke-linecap="round" stroke-linejoin="round" stroke-width="0.5"/>
            <path id="Trazado_996932" data-name="Trazado 996932" d="M461.238,353.793s18.246,35.35,27.368,122.585l9.123,87.235-36.49,9.334-35.255-91.955-6.794,91.955H379.134s-13.113-158.147-2.85-219.154Z" transform="translate(-33.079 -62.437)" fill="#f9bd53"/>
            <path id="Trazado_996933" data-name="Trazado 996933" d="M427.108,481.164s-19.1-62.01-21-85.2,0-37.156,0-37.156" transform="translate(-34.205 -62.608)" fill="none" stroke="#2b3440" stroke-miterlimit="10" stroke-width="0.9"/>
            <line id="Línea_872" data-name="Línea 872" x1="22.285" y1="10.569" transform="translate(357.058 357.38)" fill="none" stroke="#2b3440" stroke-miterlimit="10" stroke-width="0.9"/>
            <path id="Trazado_996934" data-name="Trazado 996934" d="M412.369,358.811s-.367,20.311.432,32.46a6.452,6.452,0,0,1-6.439,6.881" transform="translate(-34.242 -62.608)" fill="none" stroke="#2b3440" stroke-miterlimit="10" stroke-width="0.9"/>
            <path id="Trazado_996935" data-name="Trazado 996935" d="M476.587,391.6s-17.007-3.184-23.347-14.492" transform="translate(-35.846 -63.234)" fill="none" stroke="#2b3440" stroke-miterlimit="10" stroke-width="0.9"/>
            <line id="Línea_873" data-name="Línea 873" x1="40.76" y2="10.182" transform="translate(421.887 482.031)" fill="none" stroke="#2b3440" stroke-miterlimit="10" stroke-width="0.9"/>
            <path id="Trazado_996936" data-name="Trazado 996936" d="M496.513,328.476l-20.9-48.195A30.322,30.322,0,0,0,447.8,263.739l-55.165,1.582a30.339,30.339,0,0,0-25.975,16.32l-19.616,37.428-5.12-6.5-5.715,45.33s-2.132,6.5,9.425,6.784,26.213-20.811,26.213-20.811l-1.973,29.363a38.422,38.422,0,0,0,20.575,5.131V355.559H428.5v22.818s15.784.844,40.023-15.12l-1.691-16.249s-1.725,27.176,14.341,25.181,9.984-11,9.984-11l-.528-17.033Z" transform="translate(-31.837 -59.355)" fill="#ff9997"/>
            <path id="Trazado_996937" data-name="Trazado 996937" d="M392.375,355.572c-1.131-28.782,6.432-67.8,11.569-90.507l32.382-.928c-8.755,35.657-5.9,91.435-5.9,91.435Z" transform="translate(-33.76 -59.369)" fill="#fff"/>
            <path id="Trazado_996938" data-name="Trazado 996938" d="M373.117,345.255s3.664-33.924,4.791-41.052" transform="translate(-33.105 -60.74)" fill="none" stroke="#2b3440" stroke-miterlimit="10" stroke-width="0.9"/>
            <line id="Línea_874" data-name="Línea 874" x1="12.402" y1="23.662" transform="translate(422.596 263.989)" fill="none" stroke="#2b3440" stroke-miterlimit="10" stroke-width="0.9"/>
            <path id="Trazado_996939" data-name="Trazado 996939" d="M456.764,262.616s-10.669-4.717-15.23-11.939c0,0,7.6-5.321,6.937-12.734s-6.176-27.177-13.589-29.838-23.377-3.8-28.7,5.512c-2.639,4.617-6.272,16.345-4.751,24.517-4.371,5.322-5.132,17.675-5.132,17.675l-11.023,8.363s4.6,26.228,22.923,25.278l4.539-1.046s-5.511,18.246-7.127,31.74l24.041,1.14s2.376-38.105,7.793-47.609Z" transform="translate(-33.521 -57.388)" fill="#27cd6b"/>
            <line id="Línea_875" data-name="Línea 875" y1="14.729" x2="24.707" transform="translate(379.22 216.285)" fill="none" stroke="#2b3440" stroke-miterlimit="10" stroke-width="0.9"/>
            <line id="Línea_876" data-name="Línea 876" x1="10.928" y2="7.839" transform="translate(397.085 193.289)" fill="none" stroke="#2b3440" stroke-miterlimit="10" stroke-width="0.9"/>
            <path id="Trazado_996940" data-name="Trazado 996940" d="M404.756,241.428s-1.192,22.342,4.107,23.525,12.142-7.369,12.142-7.369" transform="translate(-34.184 -58.592)" fill="none" stroke="#2b3440" stroke-miterlimit="10" stroke-width="0.9"/>
            <path id="Trazado_996941" data-name="Trazado 996941" d="M396.689,257.565s-1.188,15.11,5.084,19.813" transform="translate(-33.908 -59.145)" fill="none" stroke="#2b3440" stroke-miterlimit="10" stroke-width="0.9"/>
            <path id="Trazado_996942" data-name="Trazado 996942" d="M426.912,240.424s5.416-24.421-5.7-27.842-14.254,11.4-15.774,16.248c0,0-6.842,2.377-5.8,9.314s15.11,9.6,27.273,2.279" transform="translate(-34.009 -57.588)" fill="#f9aa87"/>
            <g id="Grupo_1160014" data-name="Grupo 1160014" transform="translate(382.862 175.926)" opacity="0.5" style="mix-blend-mode: multiply;isolation: isolate">
              <g id="Grupo_1160013" data-name="Grupo 1160013">
                <g id="Grupo_1160012" data-name="Grupo 1160012" clip-path="url(#clip-path-4)">
                  <path id="Trazado_996943" data-name="Trazado 996943" d="M417.485,236.9a2.629,2.629,0,1,0,2.63-2.63,2.63,2.63,0,0,0-2.63,2.63" transform="translate(-417.485 -234.274)" fill="#f9aa87"/>
                </g>
              </g>
            </g>
            <path id="Trazado_996944" data-name="Trazado 996944" d="M409.013,219.522c2.321-4.779,6.08-8.923,12.521-6.94,4.273,1.314,6.1,5.733,6.733,10.673-3.821-1.711-11.809-4.694-19.255-3.733" transform="translate(-34.333 -57.588)" fill="#fff"/>
            <line id="Línea_877" data-name="Línea 877" x1="3.515" y2="11.308" transform="translate(389.388 182.836)" fill="none" stroke="#2b3440" stroke-miterlimit="10" stroke-width="0.9"/>
            <path id="Trazado_996945" data-name="Trazado 996945" d="M414.871,227.4l-1.378,3.39s-.964,1.315-2.032,1.315l2.63.9" transform="translate(-34.417 -58.113)" fill="none" stroke="#2b3440" stroke-linecap="round" stroke-linejoin="round" stroke-width="0.9"/>
            <path id="Trazado_996946" data-name="Trazado 996946" d="M420.207,228.987a.618.618,0,1,0,.618-.616.618.618,0,0,0-.618.616" transform="translate(-34.716 -58.146)" fill="#2b3440"/>
            <path id="Trazado_996947" data-name="Trazado 996947" d="M410.906,228.348a.618.618,0,1,0,.618-.618.617.617,0,0,0-.618.618" transform="translate(-34.398 -58.124)" fill="#2b3440"/>
            <line id="Línea_878" data-name="Línea 878" x1="2.138" y1="0.332" transform="translate(385.491 167.394)" fill="none" stroke="#2b3440" stroke-miterlimit="10" stroke-width="0.9"/>
            <line id="Línea_879" data-name="Línea 879" x1="2.28" transform="translate(376.084 166.777)" fill="none" stroke="#2b3440" stroke-miterlimit="10" stroke-width="0.9"/>
            <path id="Trazado_996948" data-name="Trazado 996948" d="M412.12,237.3s3.738,2.065,3.738-1.788" transform="translate(-34.439 -58.39)" fill="none" stroke="#2b3440" stroke-linecap="round" stroke-linejoin="round" stroke-width="0.9"/>
            <rect id="Rectángulo_409896" data-name="Rectángulo 409896" width="81.24" height="165.43" transform="translate(297.559 313.143) rotate(-86.073)" fill="#8680f1"/>
            <path id="Trazado_996949" data-name="Trazado 996949" d="M497.723,385.038l5.564-81.049L432.081,299.1" transform="translate(-35.122 -60.566)" fill="none" stroke="#2b3440" stroke-miterlimit="10" stroke-width="0.9"/>
            <path id="Trazado_996950" data-name="Trazado 996950" d="M329.862,346.945s-3.565-3.373-4.327-6.342,1.365-3.864,1.365-3.864-2.11-3.385.038-5.517a6.982,6.982,0,0,1,.791-4.521,6.409,6.409,0,0,1,2.132-5.237c2.483-2.1,12.038-4.422,13.779-2.636s-1.189,3.195-1.189,3.195,6.241-.315,6.668,1.763-4.4,3.182-4.4,3.182,5.037,1,.7,4.569l-2.379,1.252s5.091,1.492-2.745,5.816l-8.065,3.444Z" transform="translate(-31.472 -61.219)" fill="#f9aa87"/>
            <line id="Línea_880" data-name="Línea 880" x1="16.146" y2="3.95" transform="translate(295.428 271.571)" fill="none" stroke="#2b3440" stroke-linecap="round" stroke-linejoin="round" stroke-width="0.9"/>
            <line id="Línea_881" data-name="Línea 881" x1="17.783" y2="4.253" transform="translate(295.466 265.75)" fill="none" stroke="#2b3440" stroke-linecap="round" stroke-linejoin="round" stroke-width="0.9"/>
            <path id="Trazado_996951" data-name="Trazado 996951" d="M342.534,322.159s-12.3,2.469-14.722,4.678" transform="translate(-31.555 -61.354)" fill="none" stroke="#2b3440" stroke-linecap="round" stroke-linejoin="round" stroke-width="0.9"/>
            <path id="Trazado_996952" data-name="Trazado 996952" d="M502.6,360.945s3.566-3.373,4.327-6.342-1.365-3.864-1.365-3.864,2.11-3.385-.038-5.517a6.975,6.975,0,0,0-.791-4.521,6.409,6.409,0,0,0-2.132-5.237c-2.483-2.1-12.038-4.422-13.779-2.636s1.189,3.195,1.189,3.195-6.242-.315-6.668,1.763,4.4,3.182,4.4,3.182-5.037,1-.7,4.569l2.379,1.252s-5.091,1.492,2.745,5.816l8.065,3.444Z" transform="translate(-36.875 -61.698)" fill="#f9aa87"/>
            <line id="Línea_882" data-name="Línea 882" x2="16.145" y2="3.95" transform="translate(452.542 285.092)" fill="none" stroke="#2b3440" stroke-linecap="round" stroke-linejoin="round" stroke-width="0.9"/>
            <line id="Línea_883" data-name="Línea 883" x2="17.783" y2="4.253" transform="translate(450.866 279.271)" fill="none" stroke="#2b3440" stroke-linecap="round" stroke-linejoin="round" stroke-width="0.9"/>
            <path id="Trazado_996953" data-name="Trazado 996953" d="M490.248,336.159s12.3,2.469,14.723,4.678" transform="translate(-37.112 -61.833)" fill="none" stroke="#2b3440" stroke-linecap="round" stroke-linejoin="round" stroke-width="0.9"/>
          </g>
        </g>
        <g id="Grupo_1160018" data-name="Grupo 1160018" transform="translate(8451.711 1562.912)">
          <g id="Grupo_1160017" data-name="Grupo 1160017" clip-path="url(#clip-path-2)">
            <path id="Trazado_996954" data-name="Trazado 996954" d="M385.833,166.725c16.6-18.582,36.559,9.79,3.057,29.225-36.8-12.082-23.144-43.969-3.057-29.225" transform="translate(-12.516 -5.497)" fill="#fd715b"/>
            <path id="Trazado_996955" data-name="Trazado 996955" d="M388.89,196.029c-36.8-12.081-23.144-43.969-3.057-29.225" transform="translate(-12.516 -5.576)" fill="none" stroke="#2b3440" stroke-miterlimit="10" stroke-width="0.9"/>
            <path id="Trazado_996956" data-name="Trazado 996956" d="M386.541,166.725c5.111-5.721,10.541-6.991,14.63-5.441" transform="translate(-13.224 -5.497)" fill="none" stroke="#2b3440" stroke-miterlimit="10" stroke-width="0.9"/>
            <path id="Trazado_996957" data-name="Trazado 996957" d="M220.947,123.715a21,21,0,1,1-16.4-24.766,21,21,0,0,1,16.4,24.766" transform="translate(-6.136 -3.371)" fill="#f9bd53"/>
            <path id="Trazado_996958" data-name="Trazado 996958" d="M205.442,98.964a21,21,0,0,1,16.4,24.766" transform="translate(-7.028 -3.386)" fill="none" stroke="#2b3440" stroke-miterlimit="10" stroke-width="0.9"/>
            <path id="Trazado_996959" data-name="Trazado 996959" d="M207.563,118.254a2.54,2.54,0,1,0,3-1.984,2.542,2.542,0,0,0-3,1.984" transform="translate(-7.099 -3.976)" fill="#2b3440"/>
            <path id="Trazado_996960" data-name="Trazado 996960" d="M189.734,114.629a2.54,2.54,0,1,0,3-1.984,2.542,2.542,0,0,0-3,1.984" transform="translate(-6.489 -3.852)" fill="#2b3440"/>
            <path id="Trazado_996961" data-name="Trazado 996961" d="M204.574,118.229l-6.52-1.326s-.017,3.535,2.628,4.073,3.892-2.747,3.892-2.747" transform="translate(-6.776 -3.999)" fill="#2b3440"/>
          </g>
        </g>
        <g id="Grupo_1160020" data-name="Grupo 1160020" transform="translate(8642.989 1675.817)">
          <g id="Grupo_1160019" data-name="Grupo 1160019" transform="translate(0 0)" clip-path="url(#clip-path-6)">
            <path id="Trazado_996962" data-name="Trazado 996962" d="M198.483,121.375A4.237,4.237,0,0,1,205,120.352a5.2,5.2,0,0,1-3.126,1.459,8.265,8.265,0,0,1-3.386-.437" transform="translate(-198.069 -116.985)" fill="#fd715b"/>
          </g>
        </g>
        <g id="Grupo_1160022" data-name="Grupo 1160022" transform="translate(8451.711 1562.912)">
          <g id="Grupo_1160021" data-name="Grupo 1160021" clip-path="url(#clip-path-2)">
            <path id="Trazado_996964" data-name="Trazado 996964" d="M184.39,118.185a1.818,1.818,0,1,0,2.144-1.42,1.818,1.818,0,0,0-2.144,1.42" transform="translate(-6.307 -3.993)" fill="#fd715b"/>
            <path id="Trazado_996965" data-name="Trazado 996965" d="M212.569,123.915a1.818,1.818,0,1,0,2.143-1.42,1.818,1.818,0,0,0-2.143,1.42" transform="translate(-7.271 -4.189)" fill="#fd715b"/>
          </g>
        </g>
        <text id="Hola" transform="translate(8538.695 1745.841) rotate(-10.037)" fill="#fff" font-size="18" font-family="KleeOne-SemiBold, Klee One" font-weight="600"><tspan x="0" y="0">Hola</tspan></text>
        <text id="Olá" transform="translate(8687.105 1717.811)" fill="#fff" font-size="18" font-family="KleeOne-SemiBold, Klee One" font-weight="600"><tspan x="0" y="0">Olá</tspan></text>
        <text id="مرحبا" transform="matrix(0.998, 0.068, -0.068, 0.998, 8825.758, 1887.136)" fill="#fff" font-size="19" font-family="NotoNaskhArabic-Medium, Noto Naskh Arabic" font-weight="500"><tspan x="0" y="0">مرحبا</tspan></text>
        <text id="Salut" transform="translate(8625.592 1897.415)" fill="#2b3440" font-size="18" font-family="KleeOne-SemiBold, Klee One" font-weight="600"><tspan x="0" y="0">Salut</tspan></text>
        <rect id="Rectángulo_409900" data-name="Rectángulo 409900" width="666.25" height="614.856" transform="translate(8451.711 1562.912)" fill="none"/>
      </g>
    </g>
  </g>
</svg>
