<svg xmlns="http://www.w3.org/2000/svg" xmlns:xlink="http://www.w3.org/1999/xlink" width="110" height="110" viewBox="0 0 110 110">
  <defs>
    <filter id="Trazado_982547" x="0" y="0" width="110" height="110" filterUnits="userSpaceOnUse">
      <feOffset dy="3" input="SourceAlpha"/>
      <feGaussianBlur stdDeviation="3" result="blur"/>
      <feFlood flood-opacity="0.161"/>
      <feComposite operator="in" in2="blur"/>
      <feComposite in="SourceGraphic"/>
    </filter>
  </defs>
  <g id="Grupo_1159310" data-name="Grupo 1159310" transform="translate(-1612 -3256)">
    <g id="Grupo_1158894" data-name="Grupo 1158894" transform="translate(496 -550)">
      <g id="Grupo_1157406" data-name="Grupo 1157406" transform="translate(1 3016)">
        <g id="Grupo_1155793" data-name="Grupo 1155793" transform="translate(-0.999 -3894)">
          <g id="Grupo_1154704" data-name="Grupo 1154704" transform="translate(0 1466)">
            <g id="Grupo_1150790" data-name="Grupo 1150790" transform="translate(3 2320)">
              <g id="Grupo_1154214" data-name="Grupo 1154214" transform="translate(79 -5809)">
                <g id="Grupo_1152583" data-name="Grupo 1152583" transform="translate(1043 6713)">
                  <g id="Grupo_1146973" data-name="Grupo 1146973" transform="translate(0 0)">
                    <g id="Grupo_1146954" data-name="Grupo 1146954">
                      <g transform="matrix(1, 0, 0, 1, -9, -6)" filter="url(#Trazado_982547)">
                        <g id="Trazado_982547-2" data-name="Trazado 982547" transform="translate(9 6)" fill="#fef4f5">
                          <path d="M 46 90.49987030029297 C 39.99187850952148 90.49987030029297 34.16426849365234 89.32350921630859 28.67905426025391 87.00345611572266 C 23.38019943237305 84.76224517822266 18.62104034423828 81.55341339111328 14.53374671936035 77.46613311767578 C 10.44646644592285 73.37885284423828 7.237639904022217 68.61969757080078 4.996413230895996 63.32085418701172 C 2.676359891891479 57.83565521240234 1.5 52.008056640625 1.5 45.99993515014648 C 1.5 39.99181365966797 2.676359891891479 34.16421508789062 4.996413230895996 28.67901420593262 C 7.237639904022217 23.38017463684082 10.44646644592285 18.62101554870605 14.53374671936035 14.53373527526855 C 18.62104034423828 10.44645500183105 23.38019943237305 7.23762845993042 28.67905426025391 4.996415138244629 C 34.16426849365234 2.676361799240112 39.99187850952148 1.500001788139343 46 1.500001788139343 C 52.00812149047852 1.500001788139343 57.83573150634766 2.676361799240112 63.32094573974609 4.996415138244629 C 68.61979675292969 7.23762845993042 73.37895965576172 10.44645500183105 77.46625518798828 14.53373527526855 C 81.55353546142578 18.62101554870605 84.76235961914062 23.38017463684082 87.00358581542969 28.67901420593262 C 89.32363891601562 34.16421508789062 90.5 39.99181365966797 90.5 45.99993515014648 C 90.5 52.008056640625 89.32363891601562 57.83565521240234 87.00358581542969 63.32085418701172 C 84.76235961914062 68.61969757080078 81.55353546142578 73.37885284423828 77.46625518798828 77.46613311767578 C 73.37895965576172 81.55341339111328 68.61979675292969 84.76224517822266 63.32094573974609 87.00345611572266 C 57.83573150634766 89.32350921630859 52.00812149047852 90.49987030029297 46 90.49987030029297 Z" stroke="none"/>
                          <path d="M 46 2.999992370605469 C 40.1937141418457 2.999992370605469 34.56269836425781 4.136489868164062 29.26337051391602 6.377906799316406 C 24.14332580566406 8.543502807617188 19.54441070556641 11.64437866210938 15.59439849853516 15.59437561035156 C 11.64440155029297 19.54439544677734 8.54351806640625 24.14329528808594 6.377914428710938 29.26333618164062 C 4.136497497558594 34.56264877319336 3 40.19366455078125 3 45.99993515014648 C 3 51.80620574951172 4.136497497558594 57.43720626831055 6.377914428710938 62.73651885986328 C 8.54351806640625 67.8565673828125 11.64440155029297 72.45545959472656 15.59439849853516 76.40547943115234 C 19.54441070556641 80.35547637939453 24.14332580566406 83.45635223388672 29.26337051391602 85.6219482421875 C 34.56269836425781 87.86336517333984 40.1937141418457 88.99986267089844 46 88.99986267089844 C 51.8062858581543 88.99986267089844 57.43730163574219 87.86336517333984 62.73661422729492 85.6219482421875 C 67.85667419433594 83.45635223388672 72.45557403564453 80.35547637939453 76.40558624267578 76.40547943115234 C 80.35559844970703 72.45545959472656 83.45647430419922 67.8565673828125 85.6220703125 62.73651885986328 C 87.86350250244141 57.43720626831055 89 51.80620574951172 89 45.99993515014648 C 89 40.19366455078125 87.86350250244141 34.56264877319336 85.6220703125 29.26333618164062 C 83.45647430419922 24.14329528808594 80.35559844970703 19.54439544677734 76.40558624267578 15.59437561035156 C 72.45557403564453 11.64437866210938 67.85667419433594 8.543502807617188 62.73661422729492 6.377906799316406 C 57.43730163574219 4.136489868164062 51.8062858581543 2.999992370605469 46 2.999992370605469 M 46 -7.62939453125e-06 C 71.40509033203125 -7.62939453125e-06 92 20.59486389160156 92 45.99993515014648 C 92 71.40499114990234 71.40509033203125 91.99986267089844 46 91.99986267089844 C 20.59490203857422 91.99986267089844 0 71.40499114990234 0 45.99993515014648 C 0 20.59486389160156 20.59490203857422 -7.62939453125e-06 46 -7.62939453125e-06 Z" stroke="none" fill="#ff7f8f"/>
                        </g>
                      </g>
                    </g>
                  </g>
                </g>
              </g>
            </g>
          </g>
        </g>
      </g>
    </g>
    <g id="azteca" transform="translate(1631.5 3279)">
      <g id="Grupo_1159308" data-name="Grupo 1159308" transform="translate(8.349 0.849)">
        <path id="Trazado_994961" data-name="Trazado 994961" d="M153.194,104.251h23.274V111.4H153.194Z" transform="translate(-137.551 -93.299)" fill="#433f43"/>
        <g id="Grupo_1159295" data-name="Grupo 1159295" transform="translate(0 25.642)">
          <path id="Trazado_994962" data-name="Trazado 994962" d="M15,256.75a10.485,10.485,0,0,1,8.381-9.409c5.378-1.012,10.575-4.132,12.806-5.6a2.535,2.535,0,0,0,1.14-2.115v-5.593h9.907v5.593a2.535,2.535,0,0,0,1.14,2.115c2.231,1.473,7.428,4.592,12.806,5.6a10.485,10.485,0,0,1,8.381,9.409v7.895H15Z" transform="translate(-14.999 -234.028)" fill="#f69583"/>
          <path id="Trazado_994963" data-name="Trazado 994963" d="M274.35,256.752v7.894h-6.093v-7.894a10.486,10.486,0,0,0-8.381-9.41c-5.378-1.012-10.575-4.132-12.806-5.6a2.535,2.535,0,0,1-1.14-2.114V234.03h6.093v5.593a2.535,2.535,0,0,0,1.14,2.114c2.231,1.473,7.428,4.592,12.806,5.6A10.486,10.486,0,0,1,274.35,256.752Z" transform="translate(-219.79 -234.029)" fill="#ea806f"/>
          <path id="Trazado_994964" data-name="Trazado 994964" d="M166.2,245.46l-13.085,8.683-12.979-8.613a45.236,45.236,0,0,0,7.021-3.793,2.535,2.535,0,0,0,1.14-2.114V234.03h9.907v5.593a2.536,2.536,0,0,0,1.14,2.114A45.482,45.482,0,0,0,166.2,245.46Z" transform="translate(-125.975 -234.029)" fill="#fc9744"/>
          <path id="Trazado_994965" data-name="Trazado 994965" d="M112.636,331.894a1.312,1.312,0,0,1-.125.587c-5.479,11.754-20.993,13.96-20.993,13.96S76,344.236,70.524,332.482a1.31,1.31,0,0,1-.118-.689,9.846,9.846,0,0,1,2.1-.647,30.9,30.9,0,0,0,7.552-2.615c1.223,1.753,4.612,5.547,11.456,6.327,6.742-.769,10.132-4.461,11.4-6.247a30.661,30.661,0,0,0,7.388,2.536A9.837,9.837,0,0,1,112.636,331.894Z" transform="translate(-64.128 -317.832)" fill="#ea806f"/>
          <path id="Trazado_994966" data-name="Trazado 994966" d="M208.263,243.932a10.334,10.334,0,0,1-6.093-2.2,2.535,2.535,0,0,0,1.139-2.114v-5.594h9.907v5.594a2.535,2.535,0,0,0,1.139,2.114A9.163,9.163,0,0,1,208.263,243.932Z" transform="translate(-180.983 -234.025)" fill="#fb8627"/>
        </g>
        <g id="Grupo_1159306" data-name="Grupo 1159306" transform="translate(13.235 12.095)">
          <g id="Grupo_1159305" data-name="Grupo 1159305" transform="translate(0 3.209)">
            <circle id="Elipse_11686" data-name="Elipse 11686" cx="3.292" cy="3.292" r="3.292" transform="translate(21.505)" fill="#f69583"/>
            <circle id="Elipse_11687" data-name="Elipse 11687" cx="3.292" cy="3.292" r="3.292" fill="#f69583"/>
            <g id="Grupo_1159304" data-name="Grupo 1159304" transform="translate(0.959 5.403)">
              <g id="Grupo_1159299" data-name="Grupo 1159299" transform="translate(21.14)">
                <g id="Grupo_1159298" data-name="Grupo 1159298">
                  <g id="Grupo_1159296" data-name="Grupo 1159296" transform="translate(0 0)">
                    <circle id="Elipse_11688" data-name="Elipse 11688" cx="2.515" cy="2.515" r="2.515" fill="#d2f0a2"/>
                  </g>
                  <g id="Grupo_1159297" data-name="Grupo 1159297" transform="translate(1.068)">
                    <path id="Trazado_994967" data-name="Trazado 994967" d="M340.559,192.947A2.515,2.515,0,0,1,336.6,195a2.186,2.186,0,0,0,0-4.114,2.515,2.515,0,0,1,3.962,2.057Z" transform="translate(-336.597 -190.432)" fill="#a3e440"/>
                  </g>
                </g>
              </g>
              <g id="Grupo_1159303" data-name="Grupo 1159303">
                <g id="Grupo_1159302" data-name="Grupo 1159302">
                  <g id="Grupo_1159300" data-name="Grupo 1159300" transform="translate(0 0)">
                    <circle id="Elipse_11689" data-name="Elipse 11689" cx="2.515" cy="2.515" r="2.515" fill="#d2f0a2"/>
                  </g>
                  <g id="Grupo_1159301" data-name="Grupo 1159301" transform="translate(1.068)">
                    <path id="Trazado_994968" data-name="Trazado 994968" d="M153.8,192.947A2.515,2.515,0,0,1,149.838,195a2.186,2.186,0,0,0,0-4.114,2.515,2.515,0,0,1,3.962,2.057Z" transform="translate(-149.837 -190.432)" fill="#a3e440"/>
                  </g>
                </g>
              </g>
            </g>
          </g>
          <path id="Trazado_994969" data-name="Trazado 994969" d="M182.841,133.939a8.8,8.8,0,0,1-8.747-7.855l-.71-6.589A4.644,4.644,0,0,1,178,114.353h9.68a4.644,4.644,0,0,1,4.617,5.142l-.71,6.589A8.8,8.8,0,0,1,182.841,133.939Z" transform="translate(-168.666 -114.353)" fill="#fdb0a0"/>
        </g>
        <g id="Grupo_1159307" data-name="Grupo 1159307" transform="translate(13.235)">
          <path id="Trazado_994970" data-name="Trazado 994970" d="M158.829,20.171H133.111a1.186,1.186,0,0,1-1.186-1.186V18.14A10.64,10.64,0,0,1,142.565,7.5h6.809a10.64,10.64,0,0,1,10.64,10.64v.845A1.186,1.186,0,0,1,158.829,20.171Z" transform="translate(-131.925 -7.5)" fill="#9a5e5f"/>
          <path id="Trazado_994971" data-name="Trazado 994971" d="M264.332,18.141v.844a1.186,1.186,0,0,1-1.186,1.186h-4.134a1.186,1.186,0,0,0,1.186-1.186v-.844A10.64,10.64,0,0,0,249.558,7.5h4.134A10.64,10.64,0,0,1,264.332,18.141Z" transform="translate(-236.242 -7.501)" fill="#845152"/>
        </g>
      </g>
      <path id="Trazado_994972" data-name="Trazado 994972" d="M125.559,314.6a13.393,13.393,0,0,1-9.791,5.42,13.393,13.393,0,0,1-9.791-5.42,1.135,1.135,0,0,0-1.325-.422l-6.166,2.272A1.134,1.134,0,0,0,97.851,318c4.676,10.031,17.916,11.914,17.916,11.914s13.241-1.883,17.916-11.914a1.134,1.134,0,0,0-.634-1.544l-6.166-2.272a1.135,1.135,0,0,0-1.325.422Z" transform="translate(-80.029 -278.557)" fill="#fee265"/>
      <path id="Trazado_994973" data-name="Trazado 994973" d="M245.9,330.154c-4.676,10.031-17.917,11.914-17.917,11.914a26.678,26.678,0,0,1-3.7-.889c4.634-1.165,14.477-4.595,18.838-13.359l2.144.79A1.135,1.135,0,0,1,245.9,330.154Z" transform="translate(-192.242 -290.712)" fill="#fdd330"/>
      <g id="Grupo_1159309" data-name="Grupo 1159309" transform="translate(7.5 0)">
        <path id="Trazado_994974" data-name="Trazado 994974" d="M490.35,460.361a.849.849,0,0,0-.849.849v4.147a.849.849,0,1,0,1.7,0V461.21A.849.849,0,0,0,490.35,460.361Z" transform="translate(-434.941 -408.25)"/>
        <path id="Trazado_994975" data-name="Trazado 994975" d="M62.874,49.7a.865.865,0,0,0,.093-.005.849.849,0,0,0,.752-.936,11.342,11.342,0,0,0-9.034-9.791l-.077-.015A1.972,1.972,0,0,0,53.314,37.1l-6.166-2.272a1.981,1.981,0,0,0-2.049.426c-1.243-.693-2.255-1.332-2.909-1.764a1.683,1.683,0,0,1-.759-1.406v-.545a9.622,9.622,0,0,0,3.359-4.414A3.363,3.363,0,0,0,49.173,22.5a4.137,4.137,0,0,0-1.058-6.816V14.369h.373a2.037,2.037,0,0,0,2.035-2.035v-.845A11.5,11.5,0,0,0,39.033,0H32.224a11.417,11.417,0,0,0-6.6,2.083A.849.849,0,1,0,26.6,3.472,9.729,9.729,0,0,1,32.225,1.7h6.809a9.8,9.8,0,0,1,9.791,9.791v.845a.337.337,0,0,1-.337.337H45.074V8.865a.849.849,0,1,0-1.7,0v3.806H36.343V8.865a.849.849,0,1,0-1.7,0v3.806h-2.3V10.9a.849.849,0,1,0-1.7,0v1.766h-2.3V8.865a.849.849,0,1,0-1.7,0v3.806H22.77a.337.337,0,0,1-.337-.337v-.845A9.754,9.754,0,0,1,23.983,6.2a.849.849,0,0,0-1.428-.918,11.45,11.45,0,0,0-1.819,6.206v.845a2.037,2.037,0,0,0,2.035,2.035h.373v1.317A4.138,4.138,0,0,0,22.085,22.5a3.362,3.362,0,0,0,4.6,4.513,9.624,9.624,0,0,0,3.141,4.329v.741a1.683,1.683,0,0,1-.759,1.406c-.621.411-1.582,1.02-2.773,1.688a1.981,1.981,0,0,0-1.966-.35L18.163,37.1a1.968,1.968,0,0,0-1.292,1.808c-.1.02-.2.041-.3.06A11.324,11.324,0,0,0,7.5,49.152c0,.02,0,.041,0,.061v7.894a.849.849,0,1,0,1.7,0V49.244a9.6,9.6,0,0,1,7.689-8.606c.174-.033.351-.068.529-.106,2.084,3.958,5.791,7.2,10.774,9.405a31,31,0,0,0,7.429,2.26.857.857,0,0,0,.239,0,30.993,30.993,0,0,0,7.429-2.26c4.966-2.2,8.665-5.425,10.753-9.364l.331.065a9.677,9.677,0,0,1,7.66,8.307.849.849,0,0,0,.843.757ZM46.2,25.737a1.662,1.662,0,0,1-.948-.3c.04-.222.074-.446.1-.674l.242-2.245A1.646,1.646,0,0,1,46.2,22.4a1.666,1.666,0,1,1,0,3.332Zm1.828-4.488a3.342,3.342,0,0,0-2.243-.516l.275-2.555a5.426,5.426,0,0,0,0-1.153,2.441,2.441,0,0,1,1.967,4.224ZM46.417,15.3h-.036a4.137,4.137,0,0,0-.761.071,5.559,5.559,0,0,0-.576-1.006h1.373Zm-21.576-.936h1.632a5.557,5.557,0,0,0-.6,1.058,4.13,4.13,0,0,0-1-.122h-.036ZM24.877,17a2.432,2.432,0,0,1,.576.071,5.433,5.433,0,0,0,.005,1.1l.28,2.6a3.336,3.336,0,0,0-2.507.471A2.442,2.442,0,0,1,24.877,17Zm.182,8.735a1.666,1.666,0,0,1,0-3.333,1.645,1.645,0,0,1,.882.255l.227,2.106c.018.163.04.324.065.484A1.661,1.661,0,0,1,25.059,25.737Zm2.8-1.154L27.146,18a3.766,3.766,0,0,1,1.763-3.626h13.7A3.766,3.766,0,0,1,44.371,18l-.71,6.588a7.949,7.949,0,0,1-15.806,0Zm25.03,14.5a15.6,15.6,0,0,1-1.567,2.638l-3.511-2.385a.849.849,0,1,0-.954,1.4l3.388,2.3A19.636,19.636,0,0,1,47.147,45.8l-3-3.839A.849.849,0,1,0,42.812,43l2.919,3.738a26.26,26.26,0,0,1-3.089,1.623c-.4.179-.8.344-1.186.5l-1.815-5.033a.849.849,0,1,0-1.6.576l1.816,5.035A28.721,28.721,0,0,1,35.739,50.5a28.929,28.929,0,0,1-4.316-1.122L33.215,44.4a.849.849,0,1,0-1.6-.576L29.83,48.785q-.49-.2-.995-.42A26.185,26.185,0,0,1,25.6,46.65L28.447,43a.849.849,0,0,0-1.338-1.045L24.191,45.7a19.469,19.469,0,0,1-3.038-2.746L24.4,40.741a.849.849,0,1,0-.954-1.4l-3.365,2.286a15.575,15.575,0,0,1-1.494-2.539.284.284,0,0,1-.005-.231.28.28,0,0,1,.164-.158l6.166-2.272a.287.287,0,0,1,.334.109,14.29,14.29,0,0,0,10.393,5.78.852.852,0,0,0,.192,0,16.9,16.9,0,0,0,3.825-.882.849.849,0,0,0-.577-1.6,15.154,15.154,0,0,1-3.344.78,12.951,12.951,0,0,1-8.345-4.105c1.112-.634,2.013-1.206,2.611-1.6a3.376,3.376,0,0,0,1.5-2.51,9.685,9.685,0,0,0,8.252.117,3.377,3.377,0,0,0,1.493,2.393c.633.418,1.587,1.022,2.757,1.684A11.517,11.517,0,0,1,42.473,38a.849.849,0,1,0,1.03,1.35,12.689,12.689,0,0,0,2.724-2.817.287.287,0,0,1,.334-.109l6.166,2.272a.28.28,0,0,1,.163.158.285.285,0,0,1-.006.231Z" transform="translate(-7.5 0)"/>
        <path id="Trazado_994976" data-name="Trazado 994976" d="M284.575,174.959a.849.849,0,0,0-.849.849v.649a.849.849,0,1,0,1.7,0v-.649A.849.849,0,0,0,284.575,174.959Z" transform="translate(-252.459 -155.154)"/>
        <path id="Trazado_994977" data-name="Trazado 994977" d="M214.972,176.457v-.649a.849.849,0,0,0-1.7,0v.649a.849.849,0,0,0,1.7,0Z" transform="translate(-189.981 -155.154)"/>
        <path id="Trazado_994978" data-name="Trazado 994978" d="M230.74,239.8a3.358,3.358,0,0,1-4.224,0,.849.849,0,1,0-1.066,1.322,5.056,5.056,0,0,0,6.355,0,.849.849,0,1,0-1.066-1.322Z" transform="translate(-200.499 -212.49)"/>
        <path id="Trazado_994979" data-name="Trazado 994979" d="M269.84,152.62a.847.847,0,0,0,.347-.075,5.481,5.481,0,0,1,3.1-.162.849.849,0,0,0,.367-1.658,7.1,7.1,0,0,0-4.159.271.849.849,0,0,0,.348,1.624Z" transform="translate(-239.391 -133.503)"/>
        <path id="Trazado_994980" data-name="Trazado 994980" d="M200.093,152.548a.849.849,0,0,0,.69-1.551,7.1,7.1,0,0,0-4.159-.271.849.849,0,1,0,.367,1.658A5.506,5.506,0,0,1,200.093,152.548Z" transform="translate(-174.626 -133.503)"/>
        <path id="Trazado_994981" data-name="Trazado 994981" d="M244.953,183.486h.99a.849.849,0,0,0,0-1.7H245.8v-3.111a.849.849,0,1,0-1.7,0v3.96A.849.849,0,0,0,244.953,183.486Z" transform="translate(-217.322 -157.699)"/>
      </g>
    </g>
  </g>
</svg>
