<svg xmlns="http://www.w3.org/2000/svg" xmlns:xlink="http://www.w3.org/1999/xlink" width="108" height="108" viewBox="0 0 108 108">
  <defs>
    <filter id="Trazado_982547" x="0" y="0" width="108" height="108" filterUnits="userSpaceOnUse">
      <feOffset dy="3" input="SourceAlpha"/>
      <feGaussianBlur stdDeviation="3" result="blur"/>
      <feFlood flood-opacity="0.161"/>
      <feComposite operator="in" in2="blur"/>
      <feComposite in="SourceGraphic"/>
    </filter>
  </defs>
  <g id="Grupo_1158967" data-name="Grupo 1158967" transform="translate(-186 -316)">
    <g id="Grupo_1154354" data-name="Grupo 1154354" transform="translate(25 -1136)">
      <g id="Grupo_1153117" data-name="Grupo 1153117" transform="translate(-93 939)">
        <g id="Grupo_1149598" data-name="Grupo 1149598" transform="translate(80 315)">
          <g id="Grupo_1148770" data-name="Grupo 1148770" transform="translate(-27 -2583)">
            <g id="Grupo_1146954" data-name="Grupo 1146954" transform="translate(-415 -1202)">
              <g transform="matrix(1, 0, 0, 1, 616, 3983)" filter="url(#Trazado_982547)">
                <g id="Trazado_982547-2" data-name="Trazado 982547" transform="translate(9 6)" fill="#f4f8fc">
                  <path d="M 45 88.5 C 39.12687683105469 88.5 33.43022537231445 87.35007476806641 28.06830024719238 85.08217620849609 C 22.88852500915527 82.89131164550781 18.23629951477051 79.75458526611328 14.2408504486084 75.75914764404297 C 10.24541282653809 71.76370239257812 7.108687400817871 67.11147308349609 4.917825222015381 61.93170166015625 C 2.649924993515015 56.56977462768555 1.5 50.87312316894531 1.5 45 C 1.5 39.12687683105469 2.649924993515015 33.43022537231445 4.917825222015381 28.06830024719238 C 7.108687400817871 22.88852500915527 10.24541282653809 18.23629951477051 14.2408504486084 14.2408504486084 C 18.23629951477051 10.24541282653809 22.88852500915527 7.108687400817871 28.06830024719238 4.917825222015381 C 33.43022537231445 2.649924993515015 39.12687683105469 1.5 45 1.5 C 50.87312316894531 1.5 56.56977462768555 2.649924993515015 61.93170166015625 4.917825222015381 C 67.11147308349609 7.108687400817871 71.76370239257812 10.24541282653809 75.75914764404297 14.2408504486084 C 79.75458526611328 18.23629951477051 82.89131164550781 22.88852500915527 85.08217620849609 28.06830024719238 C 87.35007476806641 33.43022537231445 88.5 39.12687683105469 88.5 45 C 88.5 50.87312316894531 87.35007476806641 56.56977462768555 85.08217620849609 61.93170166015625 C 82.89131164550781 67.11147308349609 79.75458526611328 71.76370239257812 75.75914764404297 75.75914764404297 C 71.76370239257812 79.75458526611328 67.11147308349609 82.89131164550781 61.93170166015625 85.08217620849609 C 56.56977462768555 87.35007476806641 50.87312316894531 88.5 45 88.5 Z" stroke="none"/>
                  <path d="M 45 3 C 39.32871246337891 3 33.82865524291992 4.110054016113281 28.65262985229492 6.299339294433594 C 23.65165710449219 8.414573669433594 19.15968322753906 11.44334411621094 15.301513671875 15.301513671875 C 11.44334411621094 19.15968322753906 8.414573669433594 23.65165710449219 6.299339294433594 28.65262985229492 C 4.110054016113281 33.82865524291992 3 39.32871246337891 3 45 C 3 50.67128753662109 4.110054016113281 56.17134475708008 6.299339294433594 61.34737396240234 C 8.414573669433594 66.34834289550781 11.44334411621094 70.84031677246094 15.301513671875 74.698486328125 C 19.15968322753906 78.55665588378906 23.65165710449219 81.58542633056641 28.65262985229492 83.70066070556641 C 33.82865524291992 85.88994598388672 39.32871246337891 87 45 87 C 50.67128753662109 87 56.17134475708008 85.88994598388672 61.34737396240234 83.70066070556641 C 66.34834289550781 81.58542633056641 70.84031677246094 78.55665588378906 74.698486328125 74.698486328125 C 78.55665588378906 70.84031677246094 81.58542633056641 66.34834289550781 83.70066070556641 61.34737396240234 C 85.88994598388672 56.17134475708008 87 50.67128753662109 87 45 C 87 39.32871246337891 85.88994598388672 33.82865524291992 83.70066070556641 28.65262985229492 C 81.58542633056641 23.65165710449219 78.55665588378906 19.15968322753906 74.698486328125 15.301513671875 C 70.84031677246094 11.44334411621094 66.34834289550781 8.414573669433594 61.34737396240234 6.299339294433594 C 56.17134475708008 4.110054016113281 50.67128753662109 3 45 3 M 45 0 C 69.85281372070312 0 90 20.14718627929688 90 45 C 90 69.85281372070312 69.85281372070312 90 45 90 C 20.14718627929688 90 0 69.85281372070312 0 45 C 0 20.14718627929688 20.14718627929688 0 45 0 Z" stroke="none" fill="#526a7e"/>
                </g>
              </g>
            </g>
          </g>
        </g>
      </g>
    </g>
    <g id="diversidad_1_" data-name="diversidad (1)" transform="translate(237.774 364.72)">
      <circle id="Elipse_11649" data-name="Elipse 11649" cx="3.803" cy="3.803" r="3.803" transform="matrix(0.16, -0.987, 0.987, 0.16, 3.798, -11.756)" fill="#f5c956"/>
      <path id="Trazado_993942" data-name="Trazado 993942" d="M98.532,105a16.858,16.858,0,0,0-4.941,11.264,3.009,3.009,0,0,0,6.014.238,44.8,44.8,0,0,1,3.964-6.466c1.913-1.913,6.223-2.87,8.731-2.87l-1.8-2.017a4.34,4.34,0,0,0-5.836-4.072A16.858,16.858,0,0,0,98.532,105Z" transform="translate(-107.836 -114.259)" fill="#ff6e80"/>
      <ellipse id="Elipse_11650" data-name="Elipse 11650" cx="10.068" cy="8.252" rx="10.068" ry="8.252" transform="translate(-26.771 -12.485) rotate(-45)" fill="#fdd1a3"/>
      <path id="Trazado_993943" data-name="Trazado 993943" d="M247.306,98.531a16.858,16.858,0,0,0-11.264-4.941A3.009,3.009,0,0,0,235.8,99.6a44.8,44.8,0,0,1,6.466,3.964c1.913,1.913,2.87,6.223,2.87,8.731l2.017-1.8a4.34,4.34,0,0,0,4.072-5.836A16.857,16.857,0,0,0,247.306,98.531Z" transform="translate(-232.68 -107.786)" fill="#ffb25a"/>
      <ellipse id="Elipse_11651" data-name="Elipse 11651" cx="8.252" cy="10.068" rx="8.252" ry="10.068" transform="translate(6.18 -15.049) rotate(-45)" fill="#ffd3bc"/>
      <path id="Trazado_993944" data-name="Trazado 993944" d="M232.983,97.121A3,3,0,0,0,235.8,99.6a20.837,20.837,0,0,1,2.247,1.177,8.882,8.882,0,0,0,1.589-6.652,16.979,16.979,0,0,0-3.6-.538A3,3,0,0,0,232.983,97.121Z" transform="translate(-232.681 -107.786)" fill="#ffd3bc"/>
      <path id="Trazado_993945" data-name="Trazado 993945" d="M105,252.487a16.858,16.858,0,0,0,11.264,4.941,3.009,3.009,0,0,0,.238-6.014,44.8,44.8,0,0,1-6.466-3.964c-1.913-1.913-2.87-6.223-2.87-8.731l-2.017,1.8a4.34,4.34,0,0,0-4.072,5.836A16.859,16.859,0,0,0,105,252.487Z" transform="translate(-114.308 -237.813)" fill="#f7e969"/>
      <ellipse id="Elipse_11652" data-name="Elipse 11652" cx="8.252" cy="10.068" rx="8.252" ry="10.068" transform="translate(-26.774 17.899) rotate(-45)" fill="#da9d81"/>
      <path id="Trazado_993946" data-name="Trazado 993946" d="M20.987,388.5a9.318,9.318,0,0,0-1.349-1.7,8.933,8.933,0,0,0-2.4-1.737,1.556,1.556,0,0,1-.742-.759,8.841,8.841,0,0,0-1.819-2.578,8.841,8.841,0,0,0-2.578-1.819,1.556,1.556,0,0,1-.759-.742,8.934,8.934,0,0,0-1.737-2.4,9.312,9.312,0,0,0-1.7-1.349c-1.043,3.224.262,6.956,3.195,9.888S17.763,389.538,20.987,388.5Z" transform="translate(-30.75 -360.279)" fill="#4677d4"/>
      <path id="Trazado_993947" data-name="Trazado 993947" d="M97.122,220.793a3,3,0,0,0,2.483-2.82,20.835,20.835,0,0,1,1.177-2.247,8.882,8.882,0,0,0-6.652-1.589,16.978,16.978,0,0,0-.538,3.6A3,3,0,0,0,97.122,220.793Z" transform="translate(-107.836 -215.726)" fill="#fdd1a3"/>
      <path id="Trazado_993948" data-name="Trazado 993948" d="M252.488,247.3a16.858,16.858,0,0,0,4.941-11.264,3.009,3.009,0,0,0-6.014-.238,44.8,44.8,0,0,1-3.964,6.466c-1.913,1.913-6.223,2.87-8.731,2.87l1.8,2.017a4.34,4.34,0,0,0,5.836,4.072A16.858,16.858,0,0,0,252.488,247.3Z" transform="translate(-237.862 -232.631)" fill="#4677d4"/>
      <path id="Trazado_993949" data-name="Trazado 993949" d="M220.8,353.041a3,3,0,0,0-2.82-2.483,20.827,20.827,0,0,1-2.247-1.177,8.882,8.882,0,0,0-1.589,6.652,16.978,16.978,0,0,0,3.6.539A3,3,0,0,0,220.8,353.041Z" transform="translate(-215.776 -336.958)" fill="#da9d81"/>
      <ellipse id="Elipse_11653" data-name="Elipse 11653" cx="10.068" cy="8.252" rx="10.068" ry="8.252" transform="translate(6.177 20.47) rotate(-45)" fill="#ffdcce"/>
      <path id="Trazado_993950" data-name="Trazado 993950" d="M353.042,232.982a3,3,0,0,0-2.483,2.82,20.836,20.836,0,0,1-1.177,2.247,8.882,8.882,0,0,0,6.652,1.589,16.981,16.981,0,0,0,.539-3.6A3,3,0,0,0,353.042,232.982Z" transform="translate(-337.007 -232.631)" fill="#ffdcce"/>
      <circle id="Elipse_11654" data-name="Elipse 11654" cx="10.902" cy="10.902" r="10.902" transform="translate(-8.241 -8.193)" fill="#59d5ff"/>
      <path id="Trazado_993951" data-name="Trazado 993951" d="M171.79,179.284c-11.348.636-16.953-9.9-14.909-14.7a10.9,10.9,0,1,0,14.909,14.7Z" transform="translate(-159.537 -171.391)" fill="#00c4fc"/>
      <path id="Trazado_993952" data-name="Trazado 993952" d="M276.42,261.482h-6a3.78,3.78,0,0,0-3.78,3.78,2.037,2.037,0,0,0,2.037,2.037.738.738,0,0,1,.738.738,3.984,3.984,0,0,0,.992,2.634A10.9,10.9,0,0,0,276.42,261.482Z" transform="translate(-262.872 -258.207)" fill="#00cd8d"/>
      <path id="Trazado_993953" data-name="Trazado 993953" d="M270.4,294.594a10.951,10.951,0,0,0,4.722-4.572,15.128,15.128,0,0,1-8.353-1.839,3.779,3.779,0,0,0-.135,1,2.037,2.037,0,0,0,2.037,2.037.738.738,0,0,1,.738.738A3.984,3.984,0,0,0,270.4,294.594Z" transform="translate(-262.873 -282.129)" fill="#00b662"/>
      <path id="Trazado_993954" data-name="Trazado 993954" d="M388.4,7.6c1,3.512,2.539,5.76,5.065,6.206a.933.933,0,0,1,.759.759c.446,2.526,2.693,4.07,6.206,5.065.356-2.881-.962-6.006-3.493-8.537S391.279,7.247,388.4,7.6Z" transform="translate(-371.962 -30.7)" fill="#f5c956"/>
      <path id="Trazado_993955" data-name="Trazado 993955" d="M13.164,17.291a2.92,2.92,0,0,0,4.129-4.129c-1.14-1.14-4.206-2-5.169-1.04S12.023,16.151,13.164,17.291Z" transform="translate(-34.477 -34.427)" fill="#ff6e80"/>
      <path id="Trazado_993956" data-name="Trazado 993956" d="M157.7,195.712h-4.411a10.851,10.851,0,0,0-1.989,6.279c0,.142,0,.283.009.424h4.635a4.229,4.229,0,0,0,4.229-4.229A2.474,2.474,0,0,0,157.7,195.712Z" transform="translate(-159.537 -199.282)" fill="#00cd8d"/>
      <path id="Trazado_993957" data-name="Trazado 993957" d="M156.532,195.712h-3.247a10.851,10.851,0,0,0-1.989,6.279c0,.142,0,.283.009.424h4.635a4.214,4.214,0,0,0,2.906-1.158A12.244,12.244,0,0,1,156.532,195.712Z" transform="translate(-159.537 -199.282)" fill="#00b662"/>
      <path id="Trazado_993958" data-name="Trazado 993958" d="M43.22,13.344a.781.781,0,1,0-.107-1.558A1.49,1.49,0,0,1,41.522,10.2a.781.781,0,1,0-1.558-.107,3.052,3.052,0,0,0,3.256,3.256ZM37.333,7.565a.778.778,0,0,0,.552-.229l.883-.883a.781.781,0,1,0-1.1-1.1l-.883.883a.781.781,0,0,0,.552,1.333ZM15.76,6.581a.78.78,0,0,0,0-1.1l-.883-.883a.781.781,0,1,0-1.1,1.1l.883.883A.781.781,0,0,0,15.76,6.581Zm-6.332,4.45a.781.781,0,0,0-.107,1.558,3.052,3.052,0,0,0,3.256-3.256.781.781,0,1,0-1.558.107,1.49,1.49,0,0,1-1.591,1.591Zm38.3,26.409a.781.781,0,0,0-1.1,1.1l.883.883a.781.781,0,0,0,1.1-1.1Zm-.646-20.912.883-.883a.781.781,0,0,0-1.1-1.1l-.883.883a.781.781,0,0,0,1.1,1.1ZM9.98,40.074a.781.781,0,1,0,.107,1.558,1.49,1.49,0,0,1,1.591,1.591.781.781,0,0,0,.725.832l.054,0a.781.781,0,0,0,.778-.727A3.052,3.052,0,0,0,9.98,40.074Zm-3.412-24.3a.78.78,0,0,0,0-1.1l-.883-.883a.781.781,0,0,0-1.1,1.1l.883.883a.781.781,0,0,0,1.1,0Zm8.747,30.309-.883.883a.781.781,0,0,0,1.1,1.1l.883-.883a.781.781,0,0,0-1.1-1.1ZM6.124,36.89l-.883.883a.781.781,0,0,0,1.1,1.1l.883-.883a.781.781,0,0,0-1.1-1.1Zm31.3,9.742a.781.781,0,0,0,0,1.1l.883.883a.781.781,0,1,0,1.1-1.1l-.883-.883A.781.781,0,0,0,37.427,46.632Zm5.689-13.484a17.839,17.839,0,0,0,1.217-5.755,3.732,3.732,0,0,0-1.227-2.925,5.069,5.069,0,0,0,.161-3.912c-.047-.127-.1-.254-.146-.381a8.233,8.233,0,0,0,7.675-2.32c4.068-4.068,2.832-9.942-1.284-14.058S39.52-1.553,35.454,2.513A8.738,8.738,0,0,0,33.8,4.779a4.582,4.582,0,0,0-6.231,4.207l-.192-.01A3.736,3.736,0,0,0,24.456,10.2a5.07,5.07,0,0,0-3.913-.161c-.127.047-.254.1-.381.146a8.233,8.233,0,0,0-2.32-7.675C14.882-.446,10.628-.79,6.637,1.569,5.157.618,2.321-.144,1.082,1.1S.6,5.17,1.556,6.65A11.8,11.8,0,0,0,.494,8.978a.781.781,0,0,0,1.484.484,10.028,10.028,0,0,1,.705-1.633A3.7,3.7,0,0,0,7.816,2.7c3.093-1.664,6.438-1.563,8.921.92,3.445,3.445,2.194,8.372-1.284,11.85S7.05,20.2,3.6,16.751A6.665,6.665,0,0,1,1.614,12.77a.781.781,0,0,0-1.55.187,8.3,8.3,0,0,0,2.435,4.9,8.233,8.233,0,0,0,7.679,2.319,17.838,17.838,0,0,0-1.216,5.755,3.732,3.732,0,0,0,1.227,2.925,5.07,5.07,0,0,0-.161,3.913q.07.191.146.381A8.233,8.233,0,0,0,2.5,35.468C-6.031,44,9.32,59.33,17.841,50.809a8.233,8.233,0,0,0,2.319-7.679,17.833,17.833,0,0,0,5.755,1.216,3.731,3.731,0,0,0,2.924-1.225,5.071,5.071,0,0,0,3.914.159q.191-.07.381-.146a8.233,8.233,0,0,0,2.32,7.674c3.323,3.323,8.01,3.178,11.977.453a.781.781,0,1,0-.884-1.287c-3.271,2.246-7.161,2.558-9.99-.27-3.445-3.445-2.194-8.372,1.284-11.85s8.406-4.728,11.85-1.284c3.181,3.181,2.363,7.661-.565,11.075a.781.781,0,1,0,1.185,1.016c3.778-4.4,3.973-9.707.484-13.2a8.233,8.233,0,0,0-7.68-2.319ZM6.251,6.264a2.141,2.141,0,0,1-3.025,0,5.155,5.155,0,0,1-1.1-2.275c-.238-1.031-.094-1.636.06-1.791s.759-.3,1.791-.06a5.157,5.157,0,0,1,2.275,1.1A2.142,2.142,0,0,1,6.251,6.264ZM48.408,4.9a10.427,10.427,0,0,1,3.322,6.943c-2.88-.971-4.387-2.306-4.714-4.159a1.722,1.722,0,0,0-1.392-1.392c-1.854-.327-3.188-1.834-4.159-4.713A10.43,10.43,0,0,1,48.408,4.9ZM36.558,3.617a6.778,6.778,0,0,1,3.318-1.873c1.166,3.648,2.961,5.643,5.476,6.087a.152.152,0,0,1,.126.126c.444,2.515,2.438,4.311,6.087,5.477a6.78,6.78,0,0,1-1.874,3.317c-3.445,3.445-8.372,2.194-11.85-1.284s-4.728-8.406-1.284-11.85Zm4.593,15.959a16.023,16.023,0,0,1,.65,1.518,3.526,3.526,0,0,1-.049,2.578,3.779,3.779,0,0,0-3.648.7,11.725,11.725,0,0,0-7.135-8.566,10.645,10.645,0,0,0,.823-4.444,16.019,16.019,0,0,1,1.94.793,14.3,14.3,0,0,0,7.418,7.419ZM33.245,6.233a8.623,8.623,0,0,0-.11,3.957,17.9,17.9,0,0,0-4-1.053,3.022,3.022,0,0,1,4.111-2.9Zm-5.928,4.3a16.168,16.168,0,0,1,2.9.386,9.322,9.322,0,0,1-.738,4.4,11.671,11.671,0,0,0-2.332-.336,2.229,2.229,0,0,1,.173-4.454ZM12.144,19.576a14.3,14.3,0,0,0,7.419-7.418,16.04,16.04,0,0,1,1.518-.65,3.526,3.526,0,0,1,2.578.049,3.784,3.784,0,0,0,.7,3.648,11.725,11.725,0,0,0-8.565,7.134,10.649,10.649,0,0,0-4.444-.823A16.008,16.008,0,0,1,12.144,19.576Zm10,1.587a1.7,1.7,0,0,1,1.693,1.693A3.453,3.453,0,0,1,20.391,26.3H16.534a10.057,10.057,0,0,1,1.621-5.142Zm-11.624,4.83a16.161,16.161,0,0,1,.386-2.9,9.322,9.322,0,0,1,4.4.738,11.669,11.669,0,0,0-.336,2.332,2.229,2.229,0,0,1-4.454-.173ZM1.636,40.4a8.443,8.443,0,0,1,2.235,2.778,2.345,2.345,0,0,0,1.14,1.113A8.481,8.481,0,0,1,9.019,48.3a2.344,2.344,0,0,0,1.113,1.14,8.44,8.44,0,0,1,2.778,2.235C7.328,52.48.833,45.957,1.636,40.4Zm15.1,9.307a7.025,7.025,0,0,1-2.208,1.514,10.305,10.305,0,0,0-1.1-1.3,9.675,9.675,0,0,0-2.615-1.888.78.78,0,0,1-.371-.378,10.035,10.035,0,0,0-4.786-4.786.78.78,0,0,1-.378-.371,9.675,9.675,0,0,0-1.888-2.615,10.312,10.312,0,0,0-1.3-1.1A7.024,7.024,0,0,1,3.6,36.572c3.446-3.446,8.373-2.193,11.85,1.284S20.182,46.261,16.738,49.705ZM21.5,41.958a16.012,16.012,0,0,1-1.941-.793,14.3,14.3,0,0,0-7.418-7.419,16.052,16.052,0,0,1-.65-1.518,3.526,3.526,0,0,1,.049-2.578,3.779,3.779,0,0,0,3.648-.7,11.725,11.725,0,0,0,7.135,8.566A10.647,10.647,0,0,0,21.5,41.958Zm4.476.828a16.168,16.168,0,0,1-2.9-.386,9.322,9.322,0,0,1,.738-4.4,11.663,11.663,0,0,0,2.332.336,2.229,2.229,0,0,1-.173,4.454ZM16.6,27.866h3.792a5.016,5.016,0,0,0,5.01-5.01A3.258,3.258,0,0,0,22.146,19.6H19.4a10.116,10.116,0,0,1,17.364,6.845H31.531a4.566,4.566,0,0,0-4.561,4.561,2.821,2.821,0,0,0,2.775,2.818,4.771,4.771,0,0,0,.594,2.26,10.133,10.133,0,0,1-13.74-8.22Zm20.081.142A10.141,10.141,0,0,1,31.745,35.4a3.214,3.214,0,0,1-.439-1.62,1.52,1.52,0,0,0-1.518-1.518,1.258,1.258,0,0,1-1.257-1.257,3,3,0,0,1,3-3Zm4.473,5.738a14.3,14.3,0,0,0-7.419,7.418,16.013,16.013,0,0,1-1.518.65,3.526,3.526,0,0,1-2.578-.049,3.778,3.778,0,0,0-.7-3.648A11.725,11.725,0,0,0,37.5,30.983a10.653,10.653,0,0,0,4.444.823,16.044,16.044,0,0,1-.793,1.939Zm1.621-6.417a16.169,16.169,0,0,1-.386,2.9,9.322,9.322,0,0,1-4.4-.738,11.667,11.667,0,0,0,.336-2.332,2.229,2.229,0,0,1,4.454.173Zm.986,14.852a.781.781,0,0,0,.107-1.558,3.052,3.052,0,0,0-3.256,3.256.781.781,0,0,0,.778.727l.054,0a.781.781,0,0,0,.725-.832,1.491,1.491,0,0,1,1.591-1.591Z" transform="translate(-23.987 -23.952)"/>
    </g>
  </g>
</svg>
