<svg xmlns="http://www.w3.org/2000/svg" xmlns:xlink="http://www.w3.org/1999/xlink" width="110" height="110" viewBox="0 0 110 110">
  <defs>
    <filter id="Trazado_982547" x="0" y="0" width="110" height="110" filterUnits="userSpaceOnUse">
      <feOffset dy="3" input="SourceAlpha"/>
      <feGaussianBlur stdDeviation="3" result="blur"/>
      <feFlood flood-opacity="0.161"/>
      <feComposite operator="in" in2="blur"/>
      <feComposite in="SourceGraphic"/>
    </filter>
  </defs>
  <g id="Grupo_1159292" data-name="Grupo 1159292" transform="translate(-659 -3252)">
    <g id="Grupo_1158891" data-name="Grupo 1158891" transform="translate(-457 -554)">
      <g id="Grupo_1157406" data-name="Grupo 1157406" transform="translate(1 3016)">
        <g id="Grupo_1155793" data-name="Grupo 1155793" transform="translate(-0.999 -3894)">
          <g id="Grupo_1154704" data-name="Grupo 1154704" transform="translate(0 1466)">
            <g id="Grupo_1150790" data-name="Grupo 1150790" transform="translate(3 2320)">
              <g id="Grupo_1154214" data-name="Grupo 1154214" transform="translate(79 -5809)">
                <g id="Grupo_1152583" data-name="Grupo 1152583" transform="translate(1043 6713)">
                  <g id="Grupo_1146973" data-name="Grupo 1146973" transform="translate(0 0)">
                    <g id="Grupo_1146954" data-name="Grupo 1146954">
                      <g transform="matrix(1, 0, 0, 1, -9, -6)" filter="url(#Trazado_982547)">
                        <g id="Trazado_982547-2" data-name="Trazado 982547" transform="translate(9 6)" fill="#fef4f5">
                          <path d="M 46 90.49987030029297 C 39.99187850952148 90.49987030029297 34.16426849365234 89.32350921630859 28.67905426025391 87.00345611572266 C 23.38019943237305 84.76224517822266 18.62104034423828 81.55341339111328 14.53374671936035 77.46613311767578 C 10.44646644592285 73.37885284423828 7.237639904022217 68.61969757080078 4.996413230895996 63.32085418701172 C 2.676359891891479 57.83565521240234 1.5 52.008056640625 1.5 45.99993515014648 C 1.5 39.99181365966797 2.676359891891479 34.16421508789062 4.996413230895996 28.67901420593262 C 7.237639904022217 23.38017463684082 10.44646644592285 18.62101554870605 14.53374671936035 14.53373527526855 C 18.62104034423828 10.44645500183105 23.38019943237305 7.23762845993042 28.67905426025391 4.996415138244629 C 34.16426849365234 2.676361799240112 39.99187850952148 1.500001788139343 46 1.500001788139343 C 52.00812149047852 1.500001788139343 57.83573150634766 2.676361799240112 63.32094573974609 4.996415138244629 C 68.61979675292969 7.23762845993042 73.37895965576172 10.44645500183105 77.46625518798828 14.53373527526855 C 81.55353546142578 18.62101554870605 84.76235961914062 23.38017463684082 87.00358581542969 28.67901420593262 C 89.32363891601562 34.16421508789062 90.5 39.99181365966797 90.5 45.99993515014648 C 90.5 52.008056640625 89.32363891601562 57.83565521240234 87.00358581542969 63.32085418701172 C 84.76235961914062 68.61969757080078 81.55353546142578 73.37885284423828 77.46625518798828 77.46613311767578 C 73.37895965576172 81.55341339111328 68.61979675292969 84.76224517822266 63.32094573974609 87.00345611572266 C 57.83573150634766 89.32350921630859 52.00812149047852 90.49987030029297 46 90.49987030029297 Z" stroke="none"/>
                          <path d="M 46 2.999992370605469 C 40.1937141418457 2.999992370605469 34.56269836425781 4.136489868164062 29.26337051391602 6.377906799316406 C 24.14332580566406 8.543502807617188 19.54441070556641 11.64437866210938 15.59439849853516 15.59437561035156 C 11.64440155029297 19.54439544677734 8.54351806640625 24.14329528808594 6.377914428710938 29.26333618164062 C 4.136497497558594 34.56264877319336 3 40.19366455078125 3 45.99993515014648 C 3 51.80620574951172 4.136497497558594 57.43720626831055 6.377914428710938 62.73651885986328 C 8.54351806640625 67.8565673828125 11.64440155029297 72.45545959472656 15.59439849853516 76.40547943115234 C 19.54441070556641 80.35547637939453 24.14332580566406 83.45635223388672 29.26337051391602 85.6219482421875 C 34.56269836425781 87.86336517333984 40.1937141418457 88.99986267089844 46 88.99986267089844 C 51.8062858581543 88.99986267089844 57.43730163574219 87.86336517333984 62.73661422729492 85.6219482421875 C 67.85667419433594 83.45635223388672 72.45557403564453 80.35547637939453 76.40558624267578 76.40547943115234 C 80.35559844970703 72.45545959472656 83.45647430419922 67.8565673828125 85.6220703125 62.73651885986328 C 87.86350250244141 57.43720626831055 89 51.80620574951172 89 45.99993515014648 C 89 40.19366455078125 87.86350250244141 34.56264877319336 85.6220703125 29.26333618164062 C 83.45647430419922 24.14329528808594 80.35559844970703 19.54439544677734 76.40558624267578 15.59437561035156 C 72.45557403564453 11.64437866210938 67.85667419433594 8.543502807617188 62.73661422729492 6.377906799316406 C 57.43730163574219 4.136489868164062 51.8062858581543 2.999992370605469 46 2.999992370605469 M 46 -7.62939453125e-06 C 71.40509033203125 -7.62939453125e-06 92 20.59486389160156 92 45.99993515014648 C 92 71.40499114990234 71.40509033203125 91.99986267089844 46 91.99986267089844 C 20.59490203857422 91.99986267089844 0 71.40499114990234 0 45.99993515014648 C 0 20.59486389160156 20.59490203857422 -7.62939453125e-06 46 -7.62939453125e-06 Z" stroke="none" fill="#ff7f8f"/>
                        </g>
                      </g>
                    </g>
                  </g>
                </g>
              </g>
            </g>
          </g>
        </g>
      </g>
    </g>
    <g id="tribu" transform="translate(687 3277)">
      <g id="Grupo_1159291" data-name="Grupo 1159291" transform="translate(0.857 0.857)">
        <g id="Grupo_1159261" data-name="Grupo 1159261" transform="translate(12.728 40.589)">
          <path id="Trazado_994917" data-name="Trazado 994917" d="M131.581,386.9l-1.536,8.061-3.224-7.524A27.875,27.875,0,0,0,131.581,386.9Z" transform="translate(-126.82 -386.9)" fill="#d3a06c"/>
        </g>
        <g id="Grupo_1159262" data-name="Grupo 1159262" transform="translate(4.611 40.335)">
          <path id="Trazado_994918" data-name="Trazado 994918" d="M54.773,385.089l4.511,10.525H55l-3.959-9.236h0q.334-.94.762-1.847A27.763,27.763,0,0,0,54.773,385.089Z" transform="translate(-51.04 -384.53)" fill="#d3a06c"/>
        </g>
        <g id="Grupo_1159263" data-name="Grupo 1159263" transform="translate(3.428 42.183)">
          <path id="Trazado_994919" data-name="Trazado 994919" d="M41.183,401.78l3.959,9.236H40v-2.39a20.406,20.406,0,0,1,1.183-6.846Z" transform="translate(-40 -401.78)" fill="#cf9e76"/>
        </g>
        <g id="Grupo_1159264" data-name="Grupo 1159264" transform="translate(8.344 40.894)">
          <path id="Trazado_994920" data-name="Trazado 994920" d="M93.5,397.506l-.527,2.769H90.4L85.89,389.75l.317.04a27.773,27.773,0,0,0,3.337.2q.365,0,.731-.01Z" transform="translate(-85.89 -389.75)" fill="#cf9e76"/>
        </g>
        <g id="Grupo_1159265" data-name="Grupo 1159265" transform="translate(31.761 6.856)">
          <path id="Trazado_994921" data-name="Trazado 994921" d="M317.188,80.57A4.526,4.526,0,0,1,313.864,84v1.714l4.436.887a5.142,5.142,0,0,1,4.134,5.042v13.781l.827.827a3.029,3.029,0,0,1-2.142,5.172h-.585a20.376,20.376,0,0,0-2.071-6.577,20.148,20.148,0,0,0-1.171-1.992h-8.034a3.417,3.417,0,0,0,1.178-2.585V92.846a5.142,5.142,0,0,0-3.516-4.878l-1.626-.542-.8-.268A5.12,5.12,0,0,1,306,86.6l4.436-.887V84a4.525,4.525,0,0,1-3.428-4.39v-5.79c0-.031,0-.062,0-.093a1.818,1.818,0,0,1,3.1-1.192l.575.575a2.069,2.069,0,0,0,2.927,0l.575-.575a1.818,1.818,0,0,1,3.1,1.285v5.79A4.47,4.47,0,0,1,317.188,80.57Z" transform="translate(-304.49 -72)" fill="#f0d0b4"/>
        </g>
        <g id="Grupo_1159266" data-name="Grupo 1159266" transform="translate(32.863 0)">
          <path id="Trazado_994922" data-name="Trazado 994922" d="M329.887,13.59a3.429,3.429,0,0,1-.26,6.1h0a2.569,2.569,0,0,0-2.289-1.4h-.857v-1.61a1.818,1.818,0,0,0-3.1-1.285l-.575.575a2.069,2.069,0,0,1-2.927,0l-.575-.575a1.818,1.818,0,0,0-3.1,1.192h0V16.57a3.416,3.416,0,0,0-.46-1.714,3.427,3.427,0,0,0-.957-4.489,4.285,4.285,0,0,1,3.494-.475,3.427,3.427,0,0,1,6.127,0,4.284,4.284,0,0,1,5.486,3.7Z" transform="translate(-314.78 -8)" fill="#b27946"/>
        </g>
        <g id="Grupo_1159267" data-name="Grupo 1159267" transform="translate(34.273 39.699)">
          <path id="Trazado_994923" data-name="Trazado 994923" d="M341.658,387.929v2.39h-12l-1.72-9.028h.006a15.977,15.977,0,0,0,5.142,5.6A15.99,15.99,0,0,0,339.4,378.6a20.408,20.408,0,0,1,2.257,9.329Z" transform="translate(-327.94 -378.6)" fill="#f0d0b4"/>
        </g>
        <g id="Grupo_1159268" data-name="Grupo 1159268" transform="translate(44.459 10.284)">
          <path id="Trazado_994924" data-name="Trazado 994924" d="M426.28,105.4a2.57,2.57,0,0,1-2.289,3.74h-.961a4.472,4.472,0,0,0,.1-.962V104h.857A2.569,2.569,0,0,1,426.28,105.4Z" transform="translate(-423.03 -104)" fill="#f0d0b4"/>
        </g>
        <g id="Grupo_1159269" data-name="Grupo 1159269" transform="translate(33.604 37.706)">
          <path id="Trazado_994925" data-name="Trazado 994925" d="M332.659,359.991a20.158,20.158,0,0,1,1.171,1.992,15.989,15.989,0,0,1-6.313,8.291,15.977,15.977,0,0,1-5.142-5.6h-.006l-.668-3.511,1.616-.462a3.4,3.4,0,0,0,1.308-.711h8.034Z" transform="translate(-321.7 -359.99)" fill="#fcd770"/>
        </g>
        <g id="Grupo_1159270" data-name="Grupo 1159270" transform="translate(27.313 22.281)">
          <path id="Trazado_994926" data-name="Trazado 994926" d="M273.364,221.42v7.419a3.434,3.434,0,0,1-2.486,3.3l-1.616.462-5.205,1.487a2.571,2.571,0,0,0-1.086-4.262l.753-.753,4.5-1.928V216l1.626.542A5.142,5.142,0,0,1,273.364,221.42Z" transform="translate(-262.97 -216)" fill="#f0d0b4"/>
        </g>
        <g id="Grupo_1159271" data-name="Grupo 1159271" transform="translate(27.378 38.879)">
          <path id="Trazado_994927" data-name="Trazado 994927" d="M270.474,374.451l1.72,9.028h-8.57V373.2l-.045-.132a2.579,2.579,0,0,0,1.006-.621l.015-.016,5.205-1.487Z" transform="translate(-263.58 -370.94)" fill="#cf9e76"/>
        </g>
        <g id="Grupo_1159272" data-name="Grupo 1159272" transform="translate(17.14)">
          <path id="Trazado_994928" data-name="Trazado 994928" d="M185.14,16.57v.011a3.423,3.423,0,0,1-.908,2.314,2.565,2.565,0,0,0-1.663-.611h-.857a3.428,3.428,0,0,0-3.428-3.428h-3.428a3.428,3.428,0,0,0-3.428,3.428h-.857a2.565,2.565,0,0,0-1.663.611,3.427,3.427,0,0,1-.449-4.039,3.428,3.428,0,0,1,2.968-5.142,3.541,3.541,0,0,1,.442.029,3.428,3.428,0,0,1,4.7-1.283,3.428,3.428,0,0,1,4.7,1.283,3.541,3.541,0,0,1,.442-.029,3.427,3.427,0,0,1,2.968,5.142A3.416,3.416,0,0,1,185.14,16.57Z" transform="translate(-168 -8)" fill="#656d78"/>
        </g>
        <g id="Grupo_1159273" data-name="Grupo 1159273" transform="translate(30.747 10.284)">
          <path id="Trazado_994929" data-name="Trazado 994929" d="M297.653,104.611a2.571,2.571,0,0,1-1.663,4.531h-.961a4.472,4.472,0,0,0,.1-.962V104h.857A2.565,2.565,0,0,1,297.653,104.611Z" transform="translate(-295.03 -104)" fill="#f0d0b4"/>
        </g>
        <g id="Grupo_1159274" data-name="Grupo 1159274" transform="translate(25.709 23.995)">
          <path id="Trazado_994930" data-name="Trazado 994930" d="M254.856,232v9.427l-4.5,1.928.361-.361A2.424,2.424,0,0,0,249,238.856h-1A6.854,6.854,0,0,0,254.856,232Z" transform="translate(-248 -232)" fill="#cf9e76"/>
        </g>
        <g id="Grupo_1159275" data-name="Grupo 1159275" transform="translate(25.709 21.138)">
          <path id="Trazado_994931" data-name="Trazado 994931" d="M254.856,206.473v1.714A6.854,6.854,0,0,1,248,215.043a1.714,1.714,0,1,0,0-3.428,3.427,3.427,0,0,0,3.428-3.428V205.33l2.623.875Z" transform="translate(-248 -205.33)" fill="#ffeaa7"/>
        </g>
        <g id="Grupo_1159276" data-name="Grupo 1159276" transform="translate(20.567 6.856)">
          <path id="Trazado_994932" data-name="Trazado 994932" d="M210.18,80.57A4.523,4.523,0,0,1,206.856,84v1.714l1.714.571V89.14a3.428,3.428,0,0,1-6.856,0V86.283l1.714-.571V84A4.526,4.526,0,0,1,200.1,80.57a4.471,4.471,0,0,1-.1-.962v-4.18A3.428,3.428,0,0,1,203.428,72h3.428a3.428,3.428,0,0,1,3.428,3.428v4.18A4.472,4.472,0,0,1,210.18,80.57Z" transform="translate(-200 -72)" fill="#f0d0b4"/>
        </g>
        <g id="Grupo_1159277" data-name="Grupo 1159277" transform="translate(22.281 30.851)">
          <path id="Trazado_994933" data-name="Trazado 994933" d="M222.856,298.424a2.423,2.423,0,0,1-.71,1.714l-.361.361-.753.753a2.564,2.564,0,0,0-.747-.11h-1.714l-1.5-.643-.361-.361A2.424,2.424,0,0,1,218.424,296h2.007a2.425,2.425,0,0,1,2.424,2.424Z" transform="translate(-216 -296)" fill="#aab2bd"/>
        </g>
        <g id="Grupo_1159278" data-name="Grupo 1159278" transform="translate(13.712 22.281)">
          <path id="Trazado_994934" data-name="Trazado 994934" d="M150.672,230.465a2.569,2.569,0,0,1,.015,3.62l-.015.016a2.579,2.579,0,0,1-1.006.621,2.544,2.544,0,0,1-.812.132,6.106,6.106,0,0,1-1.681-.236l-.89-.254L140.1,232.6l-1.616-.462a3.434,3.434,0,0,1-2.486-3.3V221.42a5.142,5.142,0,0,1,3.516-4.878l1.626-.542v1.714a6.836,6.836,0,0,0,2.107,4.945l-2.107,1.054v3.428l4.5,1.928,1.5.643h1.714a2.565,2.565,0,0,1,1.818.753Z" transform="translate(-136 -216)" fill="#f0d0b4"/>
        </g>
        <g id="Grupo_1159279" data-name="Grupo 1159279" transform="translate(23.995 40.645)">
          <path id="Trazado_994935" data-name="Trazado 994935" d="M235.428,387.92V398.2H232V387.43l.89.254a6.106,6.106,0,0,0,1.681.236,2.544,2.544,0,0,0,.812-.132Z" transform="translate(-232 -387.43)" fill="#ccd1d9"/>
        </g>
        <g id="Grupo_1159280" data-name="Grupo 1159280" transform="translate(24.271 27.147)">
          <circle id="Elipse_11684" data-name="Elipse 11684" cx="1.745" cy="1.745" r="1.745" transform="translate(0 0)" fill="#fcd770"/>
        </g>
        <g id="Grupo_1159281" data-name="Grupo 1159281" transform="translate(18.853 28.94)">
          <path id="Trazado_994936" data-name="Trazado 994936" d="M190.856,280.071h-1a2.423,2.423,0,0,0-1.714,4.138l.361.361-4.5-1.928v-3.428l2.107-1.054A6.831,6.831,0,0,0,190.856,280.071Z" transform="translate(-184 -278.16)" fill="#cf9e76"/>
        </g>
        <g id="Grupo_1159282" data-name="Grupo 1159282" transform="translate(18.853 21.138)">
          <path id="Trazado_994937" data-name="Trazado 994937" d="M190.856,211.615a1.714,1.714,0,1,0,0,3.428A6.856,6.856,0,0,1,184,208.187v-1.714l.8-.268,2.623-.875v2.857A3.428,3.428,0,0,0,190.856,211.615Z" transform="translate(-184 -205.33)" fill="#ffeaa7"/>
        </g>
        <g id="Grupo_1159283" data-name="Grupo 1159283" transform="translate(15.426 38.879)">
          <path id="Trazado_994938" data-name="Trazado 994938" d="M160.57,372.706V383.48H152l.527-2.769,1.536-8.061.326-1.71Z" transform="translate(-152 -370.94)" fill="#cf9e76"/>
        </g>
        <g id="Grupo_1159284" data-name="Grupo 1159284" transform="translate(17.14 10.284)">
          <path id="Trazado_994939" data-name="Trazado 994939" d="M171.532,109.142h-.961a2.571,2.571,0,0,1,0-5.142h.857v4.18A4.471,4.471,0,0,0,171.532,109.142Z" transform="translate(-168 -104)" fill="#f0d0b4"/>
        </g>
        <g id="Grupo_1159285" data-name="Grupo 1159285" transform="translate(6.856 6.856)">
          <path id="Trazado_994940" data-name="Trazado 994940" d="M72.1,80.57a4.47,4.47,0,0,1-.1-.962v-4.18A3.428,3.428,0,0,1,75.428,72h3.428a3.425,3.425,0,0,1,3.428,3.428v4.18A4.525,4.525,0,0,1,78.856,84v1.714l4.436.887a5.12,5.12,0,0,1,1.51.559l-.8.268-1.626.542a5.142,5.142,0,0,0-3.516,4.878V96a19.626,19.626,0,0,1-6.313-9.706l2.885-.577V84A4.526,4.526,0,0,1,72.1,80.57Z" transform="translate(-72 -72)" fill="#f0d0b4"/>
        </g>
        <g id="Grupo_1159286" data-name="Grupo 1159286" transform="translate(11.998 37.706)">
          <path id="Trazado_994941" data-name="Trazado 994941" d="M125.817,361.163l-.326,1.71a27.875,27.875,0,0,1-4.761.537q-.366.01-.731.01a1.714,1.714,0,0,0,0-3.428h2.892a3.4,3.4,0,0,0,1.308.711Z" transform="translate(-120 -359.99)" fill="#ffeaa7"/>
        </g>
        <g id="Grupo_1159287" data-name="Grupo 1159287" transform="translate(0 21.145)">
          <path id="Trazado_994942" data-name="Trazado 994942" d="M14.856,221.952a20.311,20.311,0,0,0-1.484,2.628q-.427.9-.762,1.847h0a20.3,20.3,0,0,0-1,4.094h-.585a3.03,3.03,0,0,1-2.142-5.172l.827-.827V210.742a5.142,5.142,0,0,1,4.134-5.042l1.551-.31a19.626,19.626,0,0,0,6.313,9.706v4.27a3.417,3.417,0,0,0,1.178,2.585H14.856Z" transform="translate(-8 -205.39)" fill="#f0d0b4"/>
        </g>
        <g id="Grupo_1159288" data-name="Grupo 1159288" transform="translate(10.311 37.617)">
          <circle id="Elipse_11685" data-name="Elipse 11685" cx="1.745" cy="1.745" r="1.745" transform="translate(0 0)" fill="#fcd770"/>
        </g>
        <g id="Grupo_1159289" data-name="Grupo 1159289" transform="translate(5.372 37.707)">
          <path id="Trazado_994943" data-name="Trazado 994943" d="M59.634,360h5.142a1.714,1.714,0,0,0,0,3.428,27.773,27.773,0,0,1-3.337-.2l-.317-.04a27.755,27.755,0,0,1-2.972-.559A20.311,20.311,0,0,1,59.634,360Z" transform="translate(-58.15 -360)" fill="#ffeaa7"/>
        </g>
        <g id="Grupo_1159290" data-name="Grupo 1159290" transform="translate(3.428 10.284)">
          <path id="Trazado_994944" data-name="Trazado 994944" d="M43.532,109.142h-.961a2.571,2.571,0,0,1,0-5.142h.857v4.18A4.471,4.471,0,0,0,43.532,109.142Z" transform="translate(-40 -104)" fill="#f0d0b4"/>
        </g>
      </g>
      <path id="Trazado_994945" data-name="Trazado 994945" d="M53.133,44.1a3.861,3.861,0,0,0-1.138-2.748l-.576-.575V27.354A6.015,6.015,0,0,0,46.6,21.471l-3.747-.75v-.386a5.373,5.373,0,0,0,3.113-3.2h.315a3.426,3.426,0,0,0,3.334-4.22,4.281,4.281,0,0,0,.012-6.979,5.143,5.143,0,0,0-5.869-4.162,4.286,4.286,0,0,0-6.951,0,5.147,5.147,0,0,0-3.056.452,4.259,4.259,0,0,0-2.038-.516h0A4.283,4.283,0,0,0,26.566.358a4.283,4.283,0,0,0-5.141,1.356h0a4.284,4.284,0,0,0-3.927,6c-.032.073-.062.148-.089.223a4.266,4.266,0,0,0-2.839-1.08H11.141a4.292,4.292,0,0,0-4.2,3.428H6.856a3.428,3.428,0,1,0,0,6.856h.315a5.373,5.373,0,0,0,3.113,3.2v.386l-3.747.75a6.015,6.015,0,0,0-4.822,5.882V40.78l-.576.575a3.887,3.887,0,0,0,2.375,6.617q-.085.95-.085,1.913v3.247H49.7V49.885q0-.962-.085-1.913A3.892,3.892,0,0,0,53.133,44.1ZM6.856,15.426a1.714,1.714,0,1,1,0-3.428V15.32c0,.035,0,.07,0,.106Zm39.421,0h0c0-.035,0-.07,0-.106V12a1.714,1.714,0,1,1,0,3.428ZM36.97,3.57l.688.2.322-.641a2.571,2.571,0,0,1,4.6,0l.322.641.688-.2a3.428,3.428,0,0,1,4.389,2.958l.042.443.387.22a2.569,2.569,0,0,1,.39,4.2,3.419,3.419,0,0,0-2.517-1.1V9.531A2.675,2.675,0,0,0,41.71,7.639l-.575.576a1.212,1.212,0,0,1-1.714,0l-.575-.576a2.672,2.672,0,0,0-3-.544A4.272,4.272,0,0,0,35.2,3.522a3.409,3.409,0,0,1,1.769.048Zm7.984,35.851q.375.591.7,1.2a15.207,15.207,0,0,1-5.381,7.18,15.2,15.2,0,0,1-4.335-4.873l-.493-2.586.863-.247a4.249,4.249,0,0,0,1.369-.677Zm-36.776,0h2.253a2.566,2.566,0,0,0-.037,1.6,27.021,27.021,0,0,1-2.9-.427q.323-.6.689-1.174Zm12.391-24h0a1.714,1.714,0,0,1,0-3.428V15.32C20.567,15.355,20.569,15.39,20.569,15.426ZM18.7,16.586a3.407,3.407,0,0,0,1.864.553h.315A5.373,5.373,0,0,0,24,20.336v.471l-3.409,1.136a5.992,5.992,0,0,0-1.413-.472l-3.747-.749v-.386A5.373,5.373,0,0,0,18.7,16.586Zm13.862,7.17v1.1a6.006,6.006,0,0,1-3.444,5.426,2.6,2.6,0,0,0,.016-.284,2.556,2.556,0,0,0-.435-1.43,4.287,4.287,0,0,0,2.149-3.712V23.185Zm-12,0,1.714-.571v1.668a4.287,4.287,0,0,0,2.149,3.712A2.556,2.556,0,0,0,24,29.994a2.6,2.6,0,0,0,.016.284,6.006,6.006,0,0,1-3.444-5.426Zm6.856,6.238a.857.857,0,1,1-.857-.857A.858.858,0,0,1,27.423,29.994Zm-6.856,1.387,1.12-.56a7.729,7.729,0,0,0,1.557.991,3.271,3.271,0,0,0-.963,2.32q0,.163.016.323l-1.73-.741Zm4.131,4.1-.245-.245a1.567,1.567,0,0,1,1.108-2.675H27.57a1.567,1.567,0,0,1,1.108,2.675l-.786.786a3.44,3.44,0,0,0-.469-.033H25.885Zm5.189-3.673a7.758,7.758,0,0,0,2.677-2.119v4.021l-1.73.741q.016-.16.016-.323A3.271,3.271,0,0,0,29.888,31.812Zm-.751-9.2v2.239a2.571,2.571,0,0,1-5.142,0V22.613l1.714-.571v-3l-.649-.162a3.663,3.663,0,0,1-2.779-3.559V11.141A2.574,2.574,0,0,1,24.852,8.57H28.28a2.574,2.574,0,0,1,2.571,2.571V15.32a3.663,3.663,0,0,1-2.779,3.559l-.649.162v3ZM18.853,24.327v.525a7.672,7.672,0,0,0,1.585,4.677l-1.585.793v4.523l6.68,2.863h1.89a1.714,1.714,0,1,1,0,3.428,5.257,5.257,0,0,1-1.446-.2L17.29,38.45a2.582,2.582,0,0,1-1.865-2.472v-7.42a4.28,4.28,0,0,1,2.93-4.065ZM16.493,46.592l-1.635-3.814q1.212-.085,2.413-.272Zm-1.042-7.171a4.247,4.247,0,0,0,1.369.677l.863.247-.07.366q-1.14.2-2.3.309a2.566,2.566,0,0,0-.038-1.6Zm-1.739.857a.857.857,0,1,1-.857-.857A.858.858,0,0,1,13.712,40.278ZM6.72,42.185q.936.2,1.883.347l3.809,8.887H9.992l-3.6-8.408q.157-.416.332-.826Zm3.844.572q1.142.091,2.29.092l.169,0,2.9,6.757-.346,1.815h-1.3Zm8.773-1.939L24,42.148v9.27H17.318Zm6.372,1.817a6.969,6.969,0,0,0,1.714.214v8.57H25.709Zm3.428-.246a3.45,3.45,0,0,0,.552-.4L33.8,40.818l2.019,10.6H29.137Zm8.57-6.41a2.582,2.582,0,0,1-1.865,2.472L30.82,39.885a3.458,3.458,0,0,0,.031-.464,3.42,3.42,0,0,0-1.193-2.6l4.621-1.981V24.327l.5.166a4.28,4.28,0,0,1,2.93,4.065ZM33.96,21.471a5.992,5.992,0,0,0-1.413.472l-3.409-1.136v-.471a5.373,5.373,0,0,0,3.113-3.2h.315a3.407,3.407,0,0,0,1.864-.553,5.373,5.373,0,0,0,3.278,3.75v.386ZM32.565,15.32V12a1.714,1.714,0,0,1,0,3.428h0C32.564,15.39,32.565,15.355,32.565,15.32ZM19.2,7.284A2.568,2.568,0,0,1,21.757,3.45l.572.074.284-.5a2.57,2.57,0,0,1,3.524-.964l.429.248L27,2.058a2.569,2.569,0,0,1,3.524.964l.284.5.572-.074a2.57,2.57,0,0,1,2.56,3.833l-.248.429.248.429A2.568,2.568,0,0,1,34,10.6a3.407,3.407,0,0,0-1.431-.314h-.086a4.292,4.292,0,0,0-4.2-3.428H24.852a4.292,4.292,0,0,0-4.2,3.428h-.086a3.407,3.407,0,0,0-1.431.314A2.568,2.568,0,0,1,19.2,8.142l.248-.429ZM12,22.127V19.041l-.649-.162A3.663,3.663,0,0,1,8.57,15.32V11.141A2.574,2.574,0,0,1,11.141,8.57h3.428a2.574,2.574,0,0,1,2.571,2.571V15.32a3.663,3.663,0,0,1-2.779,3.559l-.649.162v3.086l3.958.792a5.99,5.99,0,0,0-3.958,5.64v1.194a18.663,18.663,0,0,1-4.354-7.1ZM1.714,44.1a2.159,2.159,0,0,1,.636-1.536L3.428,41.49V27.354a4.3,4.3,0,0,1,3.445-4.2l.791-.158a20.383,20.383,0,0,0,6.048,9.11v3.874a4.254,4.254,0,0,0,.368,1.729H8.57V32.565h1.714V30.851H8.57a1.716,1.716,0,0,1-1.714-1.714V25.709H5.142v3.428A3.429,3.429,0,0,0,6.856,32.1v6.2a21.2,21.2,0,0,0-3.119,7.962A2.174,2.174,0,0,1,1.714,44.1Zm3.428,5.782a19.583,19.583,0,0,1,.479-4.314l2.506,5.847H5.142Zm42.849,1.533H37.559L36.7,46.887A16.858,16.858,0,0,0,39.8,49.561l.475.317.475-.317a16.929,16.929,0,0,0,5.886-6.823,19.5,19.5,0,0,1,1.352,7.148ZM49.4,46.269a21.2,21.2,0,0,0-3.119-7.962V32.1a3.429,3.429,0,0,0,1.714-2.967V25.709H46.277v3.428a1.716,1.716,0,0,1-1.714,1.714H42.849v1.714h1.714v5.142h-5.51a4.254,4.254,0,0,0,.368-1.729v-7.42a5.99,5.99,0,0,0-3.958-5.64l3.958-.791V19.041l-.649-.162a3.663,3.663,0,0,1-2.779-3.559V9.531a.961.961,0,0,1,1.64-.68l.575.576a2.926,2.926,0,0,0,4.138,0l.575-.576a.961.961,0,0,1,1.64.68V15.32a3.663,3.663,0,0,1-2.779,3.559l-.649.162v3.086l5.125,1.025a4.3,4.3,0,0,1,3.445,4.2V41.49l1.078,1.078a2.171,2.171,0,0,1-1.386,3.7Z" transform="translate(0)"/>
    </g>
  </g>
</svg>
