<svg xmlns="http://www.w3.org/2000/svg" xmlns:xlink="http://www.w3.org/1999/xlink" width="505" height="430" viewBox="0 0 505 430">
  <defs>
    <clipPath id="clip-path">
      <rect id="Rectángulo_409859" data-name="Rectángulo 409859" width="505" height="430" transform="translate(915 3671)" fill="#fff" stroke="#707070" stroke-width="1" opacity="0.68"/>
    </clipPath>
    <clipPath id="clip-path-2">
      <rect id="Rectángulo_409836" data-name="Rectángulo 409836" width="505" height="505"/>
    </clipPath>
  </defs>
  <g id="Enmascarar_grupo_1098757" data-name="Enmascarar grupo 1098757" transform="translate(-915 -3671)" clip-path="url(#clip-path)">
    <g id="OBJECTS" transform="translate(1132 3671)">
      <g id="Grupo_1159844" data-name="Grupo 1159844" transform="translate(-217 -16)">
        <g id="Grupo_1159827" data-name="Grupo 1159827" clip-path="url(#clip-path-2)">
          <path id="Trazado_996300" data-name="Trazado 996300" d="M29.466,116.064s8.869-62.628,72.113-78.309C163.09,22.5,202.371,56.2,252.246,52.773,337.421,46.918,408.618,7.7,460.128,85.47c26.5,40-4.375,129.646,8.755,171.276s27.179,161.1-51.943,189.881c-42.042,15.294-90.211,5.891-151.067,16.151-65.229,11-182.667,18.027-213.684-34.33-42.418-71.6-14.748-107.893-13.634-131.532C43,202.63,15.326,203.934,29.466,116.064Z" transform="translate(0.254 0.338)" fill="#ff7f8f" opacity="0.54"/>
        </g>
        <g id="Grupo_1159828" data-name="Grupo 1159828" clip-path="url(#clip-path-2)">
          <path id="Trazado_996301" data-name="Trazado 996301" d="M199.723,134.442s26.118-16.875,67.251-11.978,72.217,41.447,72.718,76.843c.7,49.307-69.287,106.338-146,59.137C138.645,224.573,165.217,149.153,199.723,134.442Z" transform="translate(1.621 1.216)" fill="#fff"/>
        </g>
        <g id="Grupo_1159829" data-name="Grupo 1159829" clip-path="url(#clip-path-2)">
          <path id="Trazado_996302" data-name="Trazado 996302" d="M262.625,249.426c-17.539,0-32.865-4.184-41.2-11.219-7.453,2.913-13.693,4.389-18.554,4.39h0c-4.409,0-7.563-1.241-9.377-3.691-3.783-5.108-4.337-15.462-1.572-29.2-5.562-3.332-12.111-7.827-13.165-11.057a5.856,5.856,0,0,1,.512-4.888c2.264-3.984,9.211-7.337,20.652-9.969.441-1.075.9-2.15,1.361-3.213-6.661-4.789-10.383-9.617-11.069-14.361a10.539,10.539,0,0,1,1.169-8.99c3.64-5.215,12.685-6.865,26.727-4.839,7.839-9.3,16-14.2,23.617-14.2a19.68,19.68,0,0,1,11.638,4.011,50.448,50.448,0,0,1,7.474,6.651,30.877,30.877,0,0,1,14.279-3.883c6.909,0,13.208,2.975,18.718,8.844,6.453,6.87,6.442,16.44-.008,27.741,11.725,1.929,25.684,5.668,28.933,12.718,1.325,2.873,1.375,5.407.147,7.526-1.851,3.2-6.545,5.246-13.962,6.091,4.182,9.385,3.773,18.308-1.219,26.545C301.445,244.788,280.548,249.425,262.625,249.426Zm-39.056-12.083c8.148,6.325,22.559,10.063,39.056,10.063,20.531,0,38.368-5.767,43.373-14.025,4.736-7.81,5.011-16.318.82-25.293-2,.157-4.176.235-6.487.235a155.508,155.508,0,0,1-20.959-1.616v0h-.009C278.058,224.192,270.84,235,260.386,235h-.005a15.7,15.7,0,0,1-1.7-.093,109.2,109.2,0,0,1-20.49-4.681h0A147.326,147.326,0,0,1,223.569,237.344Zm-29.805-26.553c-2.459,12.655-1.979,22.418,1.35,26.913,1.411,1.906,4.02,2.872,7.753,2.872h0c4.346,0,10.164-1.345,16.9-3.9a19.15,19.15,0,0,1-5.847-15.738l-.011-.006A217.466,217.466,0,0,1,193.764,210.791Zm22.124,11.016a17.391,17.391,0,0,0,5.948,14.064,139.759,139.759,0,0,0,13.708-6.5C229.281,227.293,222.556,224.706,215.888,221.807Zm24.731,7.057A102.744,102.744,0,0,0,258.9,232.9a13.793,13.793,0,0,0,1.485.082h0c7.329,0,15.568-7,16.975-26.561-1.442-.213-2.911-.444-4.384-.691A197.7,197.7,0,0,1,240.619,228.864ZM216.1,219.7a232.825,232.825,0,0,0,21.872,8.343,196.535,196.535,0,0,0,32.446-22.749A248.1,248.1,0,0,1,225.5,192.944a106.608,106.608,0,0,0-9.2,25.645C216.223,218.959,216.157,219.329,216.1,219.7ZM194.191,208.7a211.684,211.684,0,0,0,20,10.148q.058-.33.125-.663a108.5,108.5,0,0,1,9.291-25.988,127.893,127.893,0,0,1-16.409-7.822c-2.028.361-3.977.746-5.808,1.151A144.111,144.111,0,0,0,194.191,208.7ZM199,186.084c-12.451,3.025-16.662,6.36-17.976,8.673a3.863,3.863,0,0,0-.348,3.263c.643,1.969,4.978,5.519,11.686,9.592A145.79,145.79,0,0,1,199,186.084Zm80.487,18.6a153.934,153.934,0,0,0,20.844,1.619c1.945,0,3.792-.058,5.508-.171-3.3-6.175-8.609-12.466-15.811-18.732a103.4,103.4,0,0,1-10.475,12.13C279.587,201.27,279.565,203,279.486,204.684ZM291.2,185.744c7.763,6.73,13.417,13.521,16.822,20.208,7.054-.715,11.591-2.5,13.138-5.171.892-1.539.815-3.394-.233-5.668-2.318-5.028-12.325-9.174-28.213-11.7-.477.766-.984,1.542-1.515,2.322l0,0ZM274.894,204c.867.139,1.73.273,2.584.4.042-.953.065-1.92.07-2.894Q276.255,202.748,274.894,204Zm-48.482-12.865a246.933,246.933,0,0,0,45.942,12.444c1.8-1.616,3.528-3.249,5.156-4.862a85.123,85.123,0,0,0-2.339-17.25c-6.745-.482-13.875-.725-21.207-.725-7.44,0-14.86.25-22.066.744C229.947,184.611,228.106,187.85,226.412,191.132Zm50.874-9.508a87.461,87.461,0,0,1,2.164,15.128,97.921,97.921,0,0,0,9.036-10.668c-1.546-1.3-3.179-2.595-4.867-3.869C281.572,181.995,279.449,181.8,277.286,181.624Zm-66.908,2.221a133.02,133.02,0,0,0,14.146,6.545c1.52-2.959,3.16-5.884,4.891-8.725C222.57,182.191,216.187,182.922,210.377,183.845Zm77.126-1.174q1.1.874,2.146,1.751.456-.673.884-1.339Q289.047,182.87,287.5,182.671Zm-84.53-.919q-.326.751-.646,1.511,1.08-.226,2.2-.443l-.03-.018.068-.012Q203.749,182.271,202.973,181.752Zm.83-1.878c1.177.8,2.442,1.6,3.778,2.386,6.916-1.2,14.7-2.112,23.153-2.72a116.285,116.285,0,0,1,14.336-18.428c-2.107-.767-4.113-1.423-5.981-1.955a171.113,171.113,0,0,0-20.156-4.6A115.571,115.571,0,0,0,203.8,179.875Zm80.586.393c2.521.279,4.972.6,7.3.945,6.436-10.893,6.664-19.646.676-26.022-8.422-8.966-18.76-10.568-30.14-4.786a70.433,70.433,0,0,1,12.879,23.47h0c3.251,2.063,6.372,4.212,9.286,6.391Zm-7.61-.71q1.833.141,3.627.307-2.123-1.507-4.361-2.976C276.3,177.771,276.546,178.663,276.779,179.558Zm-22.814-.838c7.139,0,14.09.23,20.685.684-.379-1.421-.794-2.83-1.24-4.207a157.987,157.987,0,0,0-26.271-13.309,111.889,111.889,0,0,0-13.893,17.483C240.03,178.939,246.99,178.719,253.965,178.719Zm-46.386-25.155c-7.415,0-12.308,1.621-14.541,4.82a8.589,8.589,0,0,0-.889,7.25l.053.212c.561,4.13,3.9,8.449,9.92,12.847a119.1,119.1,0,0,1,14.49-24.471A69.928,69.928,0,0,0,207.578,153.564Zm41.137,6.771a159.952,159.952,0,0,1,23.65,11.844A66.877,66.877,0,0,0,260.4,151.388,60.733,60.733,0,0,0,248.716,160.335Zm-28.26-7.581a178.278,178.278,0,0,1,19.187,4.46c2.171.619,4.521,1.4,6.992,2.322h0a64.229,64.229,0,0,1,12.377-9.679,48.265,48.265,0,0,0-6.835-6.022,17.714,17.714,0,0,0-10.458-3.629C234.97,140.205,227.641,144.536,220.456,152.754Z" transform="translate(1.784 1.382)" fill="#433552"/>
        </g>
        <g id="Grupo_1159831" data-name="Grupo 1159831" clip-path="url(#clip-path-2)">
          <path id="Trazado_996303" data-name="Trazado 996303" d="M81.457,198.537c13.519,6.641,44.968,20.989,54.627,29.2s-.974,13.495-16.7,5.874-37.832-16.184-39.6-14.834-1.079,13.135-10.55,25.226S53.09,257.9,37.169,253.313,17.117,235.2,5.944,229.6c-10.132-5.072-33.676-18.065-33.676-18.065s19.861-47.7,23.673-45.576c32.664,18.19,41.069,3.783,60.079,13.606C73.28,188.489,75.023,195.377,81.457,198.537Z" transform="translate(-0.277 1.659)" fill="#ca7856"/>
          <path id="Trazado_996304" data-name="Trazado 996304" d="M51.786,254.029c-.917-.533-22.5-13.166-24.693-21.537a4.628,4.628,0,0,1,.394-3.639,2.664,2.664,0,0,1,1.73-1.215c2.133-.541,6.2.642,10.864,2.577-6.119-4.841-8.663-8.633-7.753-11.507a3.347,3.347,0,0,1,2.09-2.149c2.431-.93,6.88.069,11.9,1.91-2.9-2.657-4.56-5.153-4.972-7.466a6.493,6.493,0,0,1,2.3-6.144c4.292-3.968,25.232,8.54,31.546,12.468l-1.068,1.715c-12.318-7.662-26.951-14.7-29.108-12.7a4.536,4.536,0,0,0-1.688,4.306c.621,3.478,5.058,7.4,10.414,10.922,8.524,3.912,16.722,8.687,18.325,9.632l-.9,1.8A138.913,138.913,0,0,1,57.1,226.019q-2.327-1.339-4.315-2.639c-7.483-3.44-14.757-6.048-17.65-4.936a1.327,1.327,0,0,0-.887.872c-.407,1.285.193,5.276,14.511,14.574,1.064.691,2.134,1.366,3.193,2.018,6.6,3.483,12.307,6.9,13.606,7.684l-.981,1.764c-.075-.037-6.534-3.332-13.583-7.667-9.171-4.824-18.3-8.848-21.286-8.1a.752.752,0,0,0-.484.28,2.662,2.662,0,0,0-.182,2.1c1.646,6.277,17.706,16.784,23.755,20.3Z" transform="translate(0.269 2.041)" fill="#261e35"/>
          <g id="Grupo_1159830" data-name="Grupo 1159830" transform="translate(14.172 190.754)">
            <path id="Trazado_996305" data-name="Trazado 996305" d="M51.411,189.088S63.53,242,49.875,237.56c-4.826-1.57-6.816-21.68-10.318-28.313s-4.446,14.872-25.239,8.679" transform="translate(-14.029 -188.863)" fill="#ca7856"/>
            <path id="Trazado_996306" data-name="Trazado 996306" d="M51.4,238.835a5.91,5.91,0,0,1-1.832-.312c-3.457-1.124-5.315-8.764-7.28-16.853-1.128-4.643-2.295-9.442-3.619-11.95a2.825,2.825,0,0,0-.482-.714,11.2,11.2,0,0,0-1.688,2.073c-2.986,4.181-8.547,11.96-22.465,7.817l.577-1.936c12.539,3.734,17.362-3.019,20.244-7.055,1.258-1.761,2.162-3.039,3.478-2.947,1.079.073,1.727,1.074,2.121,1.82,1.44,2.729,2.585,7.434,3.795,12.415,1.585,6.52,3.556,14.633,5.942,15.409a2.546,2.546,0,0,0,2.8-.4c5.548-5.072.034-35.564-2.557-46.885l1.968-.45c.982,4.283,9.371,42.043,1.952,48.827A4.275,4.275,0,0,1,51.4,238.835Z" transform="translate(-14.032 -188.865)" fill="#261e35"/>
          </g>
          <path id="Trazado_996307" data-name="Trazado 996307" d="M119.006,230.835l-1.786-.946c1.12-2.113,3.366-9.668,3.389-9.743l1.936.574C122.451,221.039,120.219,228.545,119.006,230.835Z" transform="translate(1.172 2.201)" fill="#261e35"/>
          <path id="Trazado_996308" data-name="Trazado 996308" d="M93.623,219.827l-1.948-.535c.668-2.427,3.687-10.272,3.815-10.6l1.885.726C97.344,209.495,94.264,217.5,93.623,219.827Z" transform="translate(0.917 2.087)" fill="#261e35"/>
        </g>
        <g id="Grupo_1159833" data-name="Grupo 1159833" clip-path="url(#clip-path-2)">
          <path id="Trazado_996309" data-name="Trazado 996309" d="M61.059,344.849c13.987-5.586,45.711-19.319,58.28-20.985s9.366,9.764-6.826,16.331S75.151,357.436,74.972,359.65s9.028,9.6,11.656,24.734-.509,21.3-14.581,30.043-26.882,2.748-38.519,7.294c-10.554,4.124-35.974,12.9-35.974,12.9s-22.1-46.7-17.972-48.11c35.388-12.06,30.325-27.952,50.355-35.483C48.121,344.187,54.4,347.508,61.059,344.849Z" transform="translate(-0.209 3.237)" fill="#dfa38b"/>
          <path id="Trazado_996310" data-name="Trazado 996310" d="M56.4,408.584a14.738,14.738,0,0,1-6.523-1.155,4.634,4.634,0,0,1-2.438-2.73,2.658,2.658,0,0,1,.258-2.1c1.029-1.946,4.628-4.17,9.191-6.338-7.692,1.3-12.213.647-13.736-1.954a3.348,3.348,0,0,1-.195-2.992c.937-2.428,4.661-5.063,9.392-7.554-3.913.372-6.88-.067-8.875-1.311a6.5,6.5,0,0,1-3.017-5.828c-.071-5.848,23.245-13.009,30.392-15.064l.559,1.941c-13.941,4.011-28.966,10.159-28.93,13.1a4.536,4.536,0,0,0,2.065,4.137c3,1.87,8.884,1.2,15.094-.415,8.612-3.7,17.645-6.589,19.42-7.146l.735,1.876a138.462,138.462,0,0,1-14.612,5.762q-2.553.829-4.848,1.434c-7.568,3.251-14.375,6.905-15.492,9.8a1.328,1.328,0,0,0,.054,1.242c.681,1.16,4.043,3.39,20.527-1,1.23-.327,2.452-.672,3.649-1.022,7.01-2.568,13.368-4.513,14.822-4.95l.652,1.91c-.078.029-6.85,2.617-14.79,4.945-9.726,3.575-18.832,7.652-20.273,10.378a.752.752,0,0,0-.117.546,2.657,2.657,0,0,0,1.44,1.543c5.767,2.987,24.324-1.9,30.989-4.029l.615,1.923C81.609,403.785,66.472,408.584,56.4,408.584Z" transform="translate(0.405 3.616)" fill="#261e35"/>
          <g id="Grupo_1159832" data-name="Grupo 1159832" transform="translate(30.187 363.02)">
            <path id="Trazado_996311" data-name="Trazado 996311" d="M33.854,360.3s47.4,26.457,34.954,33.618c-4.4,2.531-20.661-9.466-27.932-11.311s8.061,13.265-10.468,24.551" transform="translate(-29.883 -359.417)" fill="#dfa38b"/>
            <path id="Trazado_996312" data-name="Trazado 996312" d="M30.938,408.029l-1.05-1.726c11.174-6.805,9.392-14.912,8.327-19.756-.465-2.115-.8-3.642.142-4.557a2.908,2.908,0,0,1,2.772-.355c2.991.76,7.251,3.063,11.76,5.5,5.9,3.192,13.244,7.172,15.42,5.913a2.553,2.553,0,0,0,1.577-2.343c-.048-7.517-26.378-23.855-36.519-29.517l.985-1.763c3.837,2.141,37.489,21.214,37.555,31.267a4.572,4.572,0,0,1-2.589,4.109c-3.148,1.813-10.065-1.927-17.387-5.887-4.2-2.273-8.548-4.623-11.3-5.321a2.689,2.689,0,0,0-.852-.121,11.222,11.222,0,0,0,.407,2.64C41.291,391.132,43.344,400.472,30.938,408.029Z" transform="translate(-29.888 -359.426)" fill="#261e35"/>
          </g>
          <path id="Trazado_996313" data-name="Trazado 996313" d="M108.426,338.547c-.819-2.248-4.923-8.977-4.964-9.044l1.724-1.053c.173.284,4.25,6.97,5.137,9.405Z" transform="translate(1.035 3.284)" fill="#261e35"/>
          <path id="Trazado_996314" data-name="Trazado 996314" d="M83.441,350.412c-1.354-2.122-5.155-9.619-5.317-9.937l1.8-.913c.039.077,3.916,7.725,5.217,9.764Z" transform="translate(0.781 3.396)" fill="#261e35"/>
        </g>
        <g id="Grupo_1159835" data-name="Grupo 1159835" clip-path="url(#clip-path-2)">
          <path id="Trazado_996315" data-name="Trazado 996315" d="M232.262,55.094c-3.324,14.69-11.914,48.175-11.589,60.849s11.112,7.718,15.058-9.3,11.17-39.6,13.329-40.127,10.9,7.411,26.256,7.635S296.27,70.308,302.7,55.039s-1.5-26.98,1.166-39.187c2.418-11.071,7.1-37.551,7.1-37.551s-49.591-14.508-50.333-10.208c-6.363,36.842-22.852,34.332-27.15,55.294C229.578,42.421,233.843,48.1,232.262,55.094Z" transform="translate(2.207 -0.327)" fill="#dfa38b"/>
          <path id="Trazado_996316" data-name="Trazado 996316" d="M278.951,71.417l-1.99-.345c.205-1.5,1.128-8.088,2.566-15.415.159-1.236.307-2.5.437-3.764,1.755-16.969-.973-19.94-2.227-20.43a1.322,1.322,0,0,0-1.235.141c-2.68,1.556-5.222,8.849-7.246,16.831q-.238,2.365-.656,5.019a138.575,138.575,0,0,1-3.4,15.335l-1.967-.432c.272-1.841,1.7-11.215,4.014-20.3.62-6.387.362-12.3-1.956-14.971a4.536,4.536,0,0,0-4.41-1.392c-2.911.426-6.628,16.23-8.4,30.627l-2-.246c.909-7.382,4.327-31.532,10.114-32.379a6.493,6.493,0,0,1,6.227,2.065c1.54,1.774,2.437,4.637,2.686,8.559,1.719-5.063,3.737-9.152,5.989-10.459a3.348,3.348,0,0,1,2.985-.277c2.807,1.1,4.159,5.458,4.083,13.259,1.426-4.847,3.057-8.751,4.819-10.071a2.672,2.672,0,0,1,2.032-.584,4.636,4.636,0,0,1,3.079,1.98c5.135,6.966,1.409,31.693,1.247,32.742l-2-.307c1.062-6.917,2.972-26.014-.878-31.237a2.657,2.657,0,0,0-1.75-1.18.746.746,0,0,0-.522.2c-2.465,1.85-5.064,11.481-7.071,21.645C280.462,64.24,278.968,71.336,278.951,71.417Z" transform="translate(2.505 0.294)" fill="#261e35"/>
          <g id="Grupo_1159834" data-name="Grupo 1159834" transform="translate(245.111 14.793)">
            <path id="Trazado_996317" data-name="Trazado 996317" d="M243.47,25.776s33.56,42.666,38.682,29.252c1.81-4.741-12.588-18.921-15.55-25.813s14.365,5.882,22.607-14.187" transform="translate(-242.676 -14.643)" fill="#dfa38b"/>
            <path id="Trazado_996318" data-name="Trazado 996318" d="M278.7,58.647c-10.348,0-33.366-28.873-36.018-32.243l1.588-1.248c7.18,9.127,27.414,32.585,34.876,31.44.608-.093,1.483-.393,2.067-1.924.895-2.343-4.179-8.973-8.256-14.3-3.116-4.072-6.059-7.918-7.278-10.753a2.9,2.9,0,0,1-.084-2.794c.754-1.074,2.314-.984,4.478-.855,4.949.293,13.235.782,18.205-11.321l1.868.768c-5.517,13.437-15.063,12.871-20.193,12.57a11.306,11.306,0,0,0-2.672.011,2.809,2.809,0,0,0,.254.823c1.119,2.6,4.122,6.529,7.026,10.324C279.623,45.752,284.4,52,283.1,55.391a4.57,4.57,0,0,1-3.652,3.2A4.891,4.891,0,0,1,278.7,58.647Z" transform="translate(-242.684 -14.647)" fill="#261e35"/>
          </g>
          <path id="Trazado_996319" data-name="Trazado 996319" d="M233.294,104.748c-2.544-.495-9.787-3.472-10.094-3.6l.77-1.868c.074.03,7.363,3.028,9.71,3.484Z" transform="translate(2.232 0.993)" fill="#261e35"/>
          <path id="Trazado_996320" data-name="Trazado 996320" d="M240.674,78.08c-2.216-.966-10.377-3.6-10.459-3.621l.618-1.923c.339.109,8.34,2.688,10.647,3.693Z" transform="translate(2.302 0.725)" fill="#261e35"/>
        </g>
        <g id="Grupo_1159837" data-name="Grupo 1159837" clip-path="url(#clip-path-2)">
          <path id="Trazado_996321" data-name="Trazado 996321" d="M423.959,187.43c-12.868,7.827-42.9,24.941-51.785,33.99s2.181,13.352,17.156,4.352,36.227-19.514,38.1-18.327,2.253,12.985,12.772,24.176,17.333,12.386,32.779,6.389,18.345-19.841,28.97-26.415c9.636-5.961,31.919-21.014,31.919-21.014s-24.061-45.725-27.668-43.268c-30.9,21.048-40.563,7.454-58.615,18.944C431.2,176.688,430.082,183.705,423.959,187.43Z" transform="translate(3.69 1.472)" fill="#dfa298"/>
          <path id="Trazado_996322" data-name="Trazado 996322" d="M457.363,240.04l-1.168-1.648c5.709-4.048,20.761-15.954,21.836-22.354a2.662,2.662,0,0,0-.37-2.079.753.753,0,0,0-.507-.234c-3.031-.483-11.773,4.346-20.473,9.973-6.633,4.95-12.77,8.811-12.841,8.856l-1.134-1.67c1.223-.9,6.6-4.814,12.861-8.877,1-.746,2.008-1.517,3.009-2.3,13.415-10.539,13.653-14.566,13.133-15.809a1.327,1.327,0,0,0-.962-.789c-2.978-.843-9.992,2.4-17.134,6.5q-1.863,1.473-4.062,3.017a138.824,138.824,0,0,1-13.384,8.221l-1.058-1.715c1.512-1.086,9.244-6.574,17.38-11.234,5.022-4,9.092-8.3,9.4-11.817a4.538,4.538,0,0,0-2.067-4.137c-2.323-1.791-16.269,6.524-27.85,15.261l-1.217-1.613c5.938-4.48,25.672-18.818,30.3-15.249a6.49,6.49,0,0,1,2.846,5.912c-.2,2.34-1.637,4.975-4.281,7.882,4.832-2.286,9.176-3.682,11.68-2.97a3.349,3.349,0,0,1,2.275,1.952c1.164,2.78-1.03,6.785-6.688,12.155,4.475-2.346,8.413-3.883,10.588-3.541a2.66,2.66,0,0,1,1.831,1.054,4.634,4.634,0,0,1,.718,3.589C478.588,224.907,458.229,239.427,457.363,240.04Z" transform="translate(4.308 1.898)" fill="#261e35"/>
          <g id="Grupo_1159836" data-name="Grupo 1159836" transform="translate(453.26 176.928)">
            <path id="Trazado_996323" data-name="Trazado 996323" d="M451.829,175.31s-7.32,53.788,5.88,48.139c4.665-2,4.843-22.2,7.735-29.125s5.763,14.413,25.917,6.378" transform="translate(-448.762 -175.175)" fill="#dfa298"/>
            <path id="Trazado_996324" data-name="Trazado 996324" d="M455.9,224.873a4.268,4.268,0,0,1-2.621-.892c-8-6.09-3.031-44.451-2.439-48.805l2,.273c-1.566,11.508-4.32,42.372,1.661,46.926a2.55,2.55,0,0,0,2.821.147c2.306-.987,3.542-9.243,4.535-15.877.759-5.071,1.476-9.861,2.666-12.709.325-.779.882-1.834,1.949-2,1.311-.2,2.319.982,3.728,2.623,3.233,3.76,8.642,10.056,20.8,5.21l.747,1.876c-13.491,5.381-19.727-1.873-23.076-5.769a11.173,11.173,0,0,0-1.866-1.912,2.79,2.79,0,0,0-.415.754c-1.094,2.616-1.825,7.5-2.533,12.228-1.232,8.23-2.4,16.005-5.738,17.436A5.614,5.614,0,0,1,455.9,224.873Z" transform="translate(-448.772 -175.176)" fill="#261e35"/>
          </g>
          <path id="Trazado_996325" data-name="Trazado 996325" d="M387.921,222.986c-1.414-2.173-4.311-9.449-4.434-9.758l1.878-.745c.028.074,2.943,7.4,4.248,9.4Z" transform="translate(3.835 2.125)" fill="#261e35"/>
          <path id="Trazado_996326" data-name="Trazado 996326" d="M412.216,209.744c-.847-2.263-4.634-9.957-4.672-10.034l1.813-.893c.157.32,3.868,7.862,4.751,10.219Z" transform="translate(4.075 1.988)" fill="#261e35"/>
        </g>
        <g id="Grupo_1159838" data-name="Grupo 1159838" clip-path="url(#clip-path-2)">
          <path id="Trazado_996327" data-name="Trazado 996327" d="M110.894,39.117c3.757,5.719,49.517,11.108,44.8,17.953s-32.867-2.213-33.222,6.872,29.266,77.925,15.7,71.781-23.839-47.691-31.042-45.934-23.719,14.385-32.426,11S48.743,76.107,50.617,62.452,24.233,7.394,24.007-1.09,71.356-27.974,83.858-30.968,99.94,22.445,110.894,39.117Z" transform="translate(0.24 -0.311)" fill="#dfa298"/>
          <path id="Trazado_996328" data-name="Trazado 996328" d="M93.712,94.912c-2.2-2.462-5.141-9.33-5.265-9.621l1.858-.792c.029.068,2.933,6.852,4.913,9.068Z" transform="translate(0.884 0.845)" fill="#261e35"/>
          <path id="Trazado_996329" data-name="Trazado 996329" d="M105.331,90.286c-2.2-2.462-5.141-9.33-5.265-9.621l1.858-.792c.029.068,2.933,6.852,4.913,9.068Z" transform="translate(1.001 0.799)" fill="#261e35"/>
          <rect id="Rectángulo_409843" data-name="Rectángulo 409843" width="2.02" height="11.545" transform="translate(76.278 91.085) rotate(-32.873)" fill="#261e35"/>
          <rect id="Rectángulo_409844" data-name="Rectángulo 409844" width="8.378" height="2.02" transform="translate(122.316 103.392) rotate(-25.289)" fill="#261e35"/>
          <path id="Trazado_996330" data-name="Trazado 996330" d="M123.064,109.209l-.792-1.858a83.587,83.587,0,0,0,8.508-4.076l1.144,1.664A87.576,87.576,0,0,1,123.064,109.209Z" transform="translate(1.223 1.033)" fill="#261e35"/>
          <path id="Trazado_996331" data-name="Trazado 996331" d="M130.268,127.052c-.579-6.827.024-10,2.017-10.6,2.781-.838,6.255,4.832,7.617,7.309l-1.771.974c-2.075-3.772-4.566-6.558-5.262-6.35-.013,0-1.256.607-.588,8.5Z" transform="translate(1.301 1.164)" fill="#261e35"/>
          <path id="Trazado_996332" data-name="Trazado 996332" d="M146.66,57.427a3.578,3.578,0,0,1-1.761-2.661,5.268,5.268,0,0,1,1.608-3.793l1.42,1.437a3.3,3.3,0,0,0-1.017,2.164c.016.159.065.64.863,1.166Z" transform="translate(1.449 0.51)" fill="#261e35"/>
          <path id="Trazado_996333" data-name="Trazado 996333" d="M128.151,57.086c-1.322-2.451-.228-7.829-.1-8.433l1.976.421c-.427,2.006-.831,5.7-.1,7.053Z" transform="translate(1.275 0.487)" fill="#261e35"/>
        </g>
        <g id="Grupo_1159839" data-name="Grupo 1159839" clip-path="url(#clip-path-2)">
          <path id="Trazado_996334" data-name="Trazado 996334" d="M419.481,39.114c-4.422,5.221-50.5,5.029-46.645,12.394s32.894,1.784,32.145,10.845S366.492,136.159,380.7,131.7s29.439-44.452,36.377-41.836,21.8,17.153,30.854,14.847,28.761-21.355,28.553-35.137S509.345,18.12,510.6,9.726,466.853-22.7,454.807-27.181,432.374,23.892,419.481,39.114Z" transform="translate(3.726 -0.274)" fill="#ca7856"/>
          <path id="Trazado_996335" data-name="Trazado 996335" d="M428.452,96.509l-1.331-1.519c2.236-1.96,5.938-8.342,5.975-8.405l1.747,1.011C434.686,87.87,430.936,94.331,428.452,96.509Z" transform="translate(4.271 0.866)" fill="#261e35"/>
          <path id="Trazado_996336" data-name="Trazado 996336" d="M417.48,90.509l-1.331-1.519c2.233-1.958,5.938-8.341,5.975-8.405l1.747,1.011C423.714,81.871,419.963,88.332,417.48,90.509Z" transform="translate(4.161 0.806)" fill="#261e35"/>
          <rect id="Rectángulo_409846" data-name="Rectángulo 409846" width="11.545" height="2.02" transform="matrix(0.641, -0.768, 0.768, 0.641, 442.545, 102.551)" fill="#261e35"/>
          <rect id="Rectángulo_409847" data-name="Rectángulo 409847" width="2.02" height="8.377" transform="matrix(0.533, -0.846, 0.846, 0.533, 396.113, 98.851)" fill="#261e35"/>
          <path id="Trazado_996337" data-name="Trazado 996337" d="M397.6,107.153a87.585,87.585,0,0,1-8.278-5.312l1.337-1.514a83.355,83.355,0,0,0,7.953,5.076Z" transform="translate(3.893 1.003)" fill="#261e35"/>
          <path id="Trazado_996338" data-name="Trazado 996338" d="M388.3,123.985l-1.977-.413c1.619-7.75.457-8.5.444-8.5-.661-.285-3.477,2.172-5.993,5.665l-1.639-1.181c1.652-2.295,5.789-7.5,8.446-6.333C389.488,114.059,389.7,117.279,388.3,123.985Z" transform="translate(3.791 1.131)" fill="#261e35"/>
          <path id="Trazado_996339" data-name="Trazado 996339" d="M380.393,52.886l-.9-1.809c.859-.426.964-.9,1-1.057a3.315,3.315,0,0,0-.745-2.264l1.58-1.257a5.264,5.264,0,0,1,1.137,3.96A3.571,3.571,0,0,1,380.393,52.886Z" transform="translate(3.795 0.465)" fill="#261e35"/>
          <path id="Trazado_996340" data-name="Trazado 996340" d="M398.8,54.789l-1.649-1.167c.892-1.259.937-4.97.756-7.013l2.012-.179C399.979,47.045,400.413,52.515,398.8,54.789Z" transform="translate(3.972 0.464)" fill="#261e35"/>
        </g>
        <g id="Grupo_1159840" data-name="Grupo 1159840" clip-path="url(#clip-path-2)">
          <path id="Trazado_996341" data-name="Trazado 996341" d="M477.713,368.153c-4.991-4.679-2.482-50.687-10.031-47.209s-3.437,32.762-12.449,31.558-71.776-42.154-68.041-27.738S430.106,356.4,427.144,363.2s-18.227,20.911-16.381,30.069,19.881,29.8,33.655,30.285,49.738,35.406,58.059,37.079,34.58-42.057,39.668-53.863S492.267,381.8,477.713,368.153Z" transform="translate(3.87 3.208)" fill="#ca7856"/>
          <path id="Trazado_996342" data-name="Trazado 996342" d="M427.039,381.023c-.266-.173-6.53-4.243-8.58-6.833l1.584-1.254c1.844,2.33,8.032,6.351,8.1,6.391Z" transform="translate(4.185 3.729)" fill="#261e35"/>
          <path id="Trazado_996343" data-name="Trazado 996343" d="M433.583,370.366c-.267-.173-6.531-4.242-8.58-6.832l1.584-1.254c1.845,2.332,8.03,6.35,8.093,6.389Z" transform="translate(4.25 3.623)" fill="#261e35"/>
          <rect id="Rectángulo_409849" data-name="Rectángulo 409849" width="2.02" height="11.545" transform="matrix(0.678, -0.735, 0.735, 0.678, 415.636, 388.928)" fill="#261e35"/>
          <rect id="Rectángulo_409850" data-name="Rectángulo 409850" width="8.377" height="2.021" transform="matrix(0.575, -0.818, 0.818, 0.575, 418.185, 348.151)" fill="#261e35"/>
          <path id="Trazado_996344" data-name="Trazado 996344" d="M411.048,343.942l-1.695-1.1a87.95,87.95,0,0,1,5.722-8l1.444,1.412A83.885,83.885,0,0,0,411.048,343.942Z" transform="translate(4.094 3.348)" fill="#261e35"/>
          <path id="Trazado_996345" data-name="Trazado 996345" d="M400.412,333.97a31.362,31.362,0,0,1-7.361-1.263l.513-1.955c7.658,2.009,8.464.887,8.47.873.322-.641-2-3.581-5.357-6.27l1.261-1.579c2.21,1.766,7.206,6.155,5.9,8.755C403.357,333.492,402.265,333.97,400.412,333.97Z" transform="translate(3.931 3.238)" fill="#261e35"/>
          <path id="Trazado_996346" data-name="Trazado 996346" d="M467.663,330.7a3.528,3.528,0,0,1-.933-.122,3.576,3.576,0,0,1-2.321-2.191l1.852-.807c.383.878.852,1.007,1.006,1.05a3.324,3.324,0,0,0,2.3-.631l1.176,1.641A5.843,5.843,0,0,1,467.663,330.7Z" transform="translate(4.644 3.276)" fill="#261e35"/>
          <path id="Trazado_996347" data-name="Trazado 996347" d="M469.038,348.231c-1.777,0-5.672-.168-7.435-1.553l1.248-1.588c1.215.955,4.918,1.183,6.965,1.109l.079,2.018C469.774,348.221,469.469,348.231,469.038,348.231Z" transform="translate(4.616 3.451)" fill="#261e35"/>
        </g>
        <g id="Grupo_1159843" data-name="Grupo 1159843" clip-path="url(#clip-path-2)">
          <path id="Trazado_996348" data-name="Trazado 996348" d="M125.257,505.189s39.032-2.214,51.5-12.794,28.87-141.826,11.234-140.557S123.561,388.857,125.257,505.189Z" transform="translate(1.252 3.518)" fill="#a55450"/>
          <path id="Trazado_996349" data-name="Trazado 996349" d="M273.51,230.489s25.237,3.557,28.267,64.879c1.359,27.524,31.7,69.339-13,74.911-16.066,2-23.676-29.052-37.789-32.935s-16.631,31.227-30.335,31.21c-16.017-.019-23.307.706-28.007-10.108-7.824-18,8.12-67.369,8.539-83.194C201.617,258.7,220.321,210.582,273.51,230.489Z" transform="translate(1.905 2.257)" fill="#261e35"/>
          <path id="Trazado_996350" data-name="Trazado 996350" d="M266.047,286.176s-.65,42.265-.01,48.166,38.553,3.057,50.079,13.831-27.182,42.6-50.7,56.316C247.386,415,185.9,345.823,200.628,345.318s38.987-5,38.323-15.8-1.052-20.625-1.052-20.625S263.908,287.821,266.047,286.176Z" transform="translate(1.984 2.862)" fill="#a55450"/>
          <path id="Trazado_996351" data-name="Trazado 996351" d="M278.3,255.833s9.677,65.368-27.382,67.741c-25.493,1.632-38.536-40.963-32.474-61.431S262.541,240.491,278.3,255.833Z" transform="translate(2.17 2.454)" fill="#a55450"/>
          <path id="Trazado_996352" data-name="Trazado 996352" d="M223.315,287.11s-4.955-11.992-10.087-6.317,1.845,20.011,7.085,19.618S226.1,291.958,223.315,287.11Z" transform="translate(2.114 2.793)" fill="#a55450"/>
          <path id="Trazado_996353" data-name="Trazado 996353" d="M276.822,287.078s1.053-11.225,6.847-6.228-.987,19.52-6.235,19.779S274.657,292.232,276.822,287.078Z" transform="translate(2.743 2.796)" fill="#a55450"/>
          <circle id="Elipse_11712" data-name="Elipse 11712" cx="6.666" cy="6.666" r="6.666" transform="translate(263.149 293.643)" fill="#8f4244"/>
          <circle id="Elipse_11713" data-name="Elipse 11713" cx="6.666" cy="6.666" r="6.666" transform="translate(227.021 294.579)" fill="#8f4244"/>
          <path id="Trazado_996354" data-name="Trazado 996354" d="M205.58,344.5s20.406,34.319,52.173,32.317c29.538-1.861,46.135-36.865,46.135-36.865,12.638,3.208,13.143,8.143,24.387,39.457s21.672,92.765,13.533,138.819c-1.35,7.644-31.654-6.423-85.371-4.346s-59.1,7.909-88.276,1.241c-7.621-1.741-1.032-6.986,1.01-38.69,2.779-43.139-13.952-113.914.8-123.3C189.94,340.43,205.58,344.5,205.58,344.5Z" transform="translate(1.638 3.4)" fill="#d27878"/>
          <path id="Trazado_996355" data-name="Trazado 996355" d="M118.3,453.549s23.741,20.774,40.874,18.031,25.727-64.024,27.982-88.267-5.366-36.019-5.366-36.019C175.36,351.97,138.384,352.064,118.3,453.549Z" transform="translate(1.183 3.473)" fill="#d27878"/>
          <path id="Trazado_996356" data-name="Trazado 996356" d="M385.47,453.616S361.729,474.39,344.6,471.647s-25.727-64.024-27.982-88.267-4.559-37.521-10.79-42.463C302.916,338.608,368.2,345.332,385.47,453.616Z" transform="translate(3.057 3.406)" fill="#d27878"/>
          <path id="Trazado_996357" data-name="Trazado 996357" d="M166.784,495.9s50.978,11.982,88.564,10.211,86.17-9.3,89.237-6.041S344,520.9,344,520.9s-70.087,8.359-97.276,6.339-78.586-3.76-81.738-6.339S163.211,495.277,166.784,495.9Z" transform="translate(1.632 4.959)" fill="#6c858a"/>
          <path id="Trazado_996358" data-name="Trazado 996358" d="M173.242,418.47s42.235,7.794,79.822,6.025,82.048-9.3,85.115-6.041,2.972,21.2,2.972,21.2-69.524,7.988-96.714,5.968-71.949-5.5-75.1-8.081C169.335,437.54,169.669,417.85,173.242,418.47Z" transform="translate(1.693 4.176)" fill="#658183"/>
          <path id="Trazado_996359" data-name="Trazado 996359" d="M185.6,377.934a427.28,427.28,0,0,0,71.821,7.7c32.97.485,63.36-8.831,66.427-5.576s9.77,20.607,9.77,20.607-58.7,8.323-85.893,6.3-67.646-3.725-70.8-6.3S182.027,377.314,185.6,377.934Z" transform="translate(1.762 3.779)" fill="#658183"/>
          <path id="Trazado_996360" data-name="Trazado 996360" d="M214.3,343.424s20.4,20.4,40.736,19.134c24.265-1.515,33.646-24.434,39.3-24.434,0,0,5.8-2.028,12.607,2.821,3.212,2.287-21.819,37.378-55.918,35.963-30.8-1.278-56.448-32.792-56.448-32.792S206.57,339.977,214.3,343.424Z" transform="translate(1.946 3.377)" fill="#658183"/>
          <path id="Trazado_996361" data-name="Trazado 996361" d="M157.871,360.812s29.574,15.926,29.306,19.146-1.886,16.273-5.579,17.549-40.077-15.521-38.339-18.821C148.391,368.935,157.871,360.812,157.871,360.812Z" transform="translate(1.432 3.608)" fill="#658183"/>
          <path id="Trazado_996362" data-name="Trazado 996362" d="M132.282,401.946s41.639,11.137,41.4,16.681-3.141,13.81-3.141,13.81-42.874-5.846-45.285-9.081C125.257,423.356,129.674,403.813,132.282,401.946Z" transform="translate(1.253 4.019)" fill="#658183"/>
          <path id="Trazado_996363" data-name="Trazado 996363" d="M120.167,443.82s53.273,9.255,53.273,14.048c0,8.566-4.787,17.545-4.787,17.545s-54.682-9.873-54.189-11.5S120.167,443.82,120.167,443.82Z" transform="translate(1.145 4.438)" fill="#658183"/>
          <path id="Trazado_996364" data-name="Trazado 996364" d="M371.83,403.69s-40.124,9.376-39.887,14.92,3.141,13.81,3.141,13.81,41.669-4.526,44.08-7.762C379.165,424.659,374.438,405.556,371.83,403.69Z" transform="translate(3.319 4.037)" fill="#658183"/>
          <path id="Trazado_996365" data-name="Trazado 996365" d="M383.723,444.143s-51.433,8.928-51.433,13.722c0,8.566,4.787,17.545,4.787,17.545s50.9-8.566,51.02-10.265C388.821,454.873,383.723,444.143,383.723,444.143Z" transform="translate(3.323 4.441)" fill="#658183"/>
          <path id="Trazado_996366" data-name="Trazado 996366" d="M344.23,361.284s-23.275,15.449-23.008,18.669,1.886,16.273,5.579,17.549,36.175-9.923,35.088-13.492C359.078,374.779,344.23,361.284,344.23,361.284Z" transform="translate(3.212 3.613)" fill="#658183"/>
          <path id="Trazado_996367" data-name="Trazado 996367" d="M171.3,456.13s46.428,9.438,84.014,7.668,84.173-11.632,87.24-8.377,1.409,24.207,1.409,24.207-70.087,7.316-97.276,5.3-75.4-7.044-78.555-9.622S167.727,455.51,171.3,456.13Z" transform="translate(1.667 4.548)" fill="#6c858a"/>
          <circle id="Elipse_11714" data-name="Elipse 11714" cx="4.092" cy="4.092" r="4.092" transform="translate(234.413 287.457)" fill="#261e35"/>
          <circle id="Elipse_11715" data-name="Elipse 11715" cx="4.092" cy="4.092" r="4.092" transform="translate(262.203 287.457)" fill="#261e35"/>
          <path id="Trazado_996368" data-name="Trazado 996368" d="M211.432,275.888a13.868,13.868,0,0,0,13.54,5.706c9.105-1.337,17.628-21.132,21.716-26.978,5.061-7.238,16.591,27.32,32.572,26.975,6.163-.132,10.967-18.633,9.587-24.876s-15.973-32.127-39.1-28.982S210.359,245.123,211.432,275.888Z" transform="translate(2.114 2.275)" fill="#261e35"/>
          <path id="Trazado_996369" data-name="Trazado 996369" d="M251.173,300.065a13.83,13.83,0,0,1-4.834-1.32l.771-1.868a17.27,17.27,0,0,0,3.9,1.176,110.386,110.386,0,0,0-.058-11.165l2.018-.083c.474,11.51-.105,12.347-.3,12.621C252.517,299.648,252.228,300.064,251.173,300.065Z" transform="translate(2.463 2.868)" fill="#261e35"/>
          <path id="Trazado_996370" data-name="Trazado 996370" d="M218.405,294.948a28.563,28.563,0,0,0-4.28-10.234l1.652-1.16a30.107,30.107,0,0,1,4.624,11.08Z" transform="translate(2.141 2.836)" fill="#261e35"/>
          <path id="Trazado_996371" data-name="Trazado 996371" d="M278.844,294.948l-1.995-.316a30.113,30.113,0,0,1,4.623-11.08l1.653,1.16A28.576,28.576,0,0,0,278.844,294.948Z" transform="translate(2.768 2.836)" fill="#261e35"/>
          <path id="Trazado_996372" data-name="Trazado 996372" d="M279.832,276.28l-2-.284c1.039-7.337-2.212-10.864-6.712-15.745a63.854,63.854,0,0,1-8.081-10.216c-6.528-10.6-9.778-9.93-9.8-9.922l-.87-1.82c.735-.388,4.777-1.689,12.394,10.684a62.21,62.21,0,0,0,7.846,9.905C277.3,263.975,281.006,268,279.832,276.28Z" transform="translate(2.524 2.381)" fill="#433552"/>
          <path id="Trazado_996373" data-name="Trazado 996373" d="M220.314,275.151c-1.145-8.081,1.284-10.495,4.96-14.149a45.1,45.1,0,0,0,7.373-9.041c7.892-12.826,9.473-12.433,10.066-12.288,0,0-.064,2.982-.011,2.958-.189.086-2.022.129-8.335,10.388a46.9,46.9,0,0,1-7.669,9.414c-3.588,3.564-5.387,5.354-4.383,12.432Z" transform="translate(2.2 2.396)" fill="#433552"/>
          <path id="Trazado_996374" data-name="Trazado 996374" d="M206.873,283.759c-.051-.2-1.2-5.11,2.162-19.209,2.158-9.037,8.563-17.434,18.521-24.28a69.726,69.726,0,0,1,14.492-7.677l.681,1.9c-.267.1-26.784,9.818-31.729,30.525-3.216,13.465-2.177,18.209-2.165,18.256Z" transform="translate(2.066 2.326)" fill="#433552"/>
          <path id="Trazado_996375" data-name="Trazado 996375" d="M297.312,333.1l-2.012-.186c.016-.166,1.506-16.62-.046-25.955-.742-4.461-1.664-9.032-2.478-13.066-.94-4.66-1.683-8.342-1.81-10.167l2.016-.14c.117,1.7.885,5.5,1.774,9.908.817,4.049,1.742,8.639,2.491,13.134C298.842,316.226,297.375,332.419,297.312,333.1Z" transform="translate(2.91 2.836)" fill="#433552"/>
          <path id="Trazado_996376" data-name="Trazado 996376" d="M284.3,262.17c-2.754-17.643-26.758-28.254-27-28.359l.8-1.853a69.034,69.034,0,0,1,12.931,7.789c8.769,6.681,14.046,14.327,15.261,22.111Z" transform="translate(2.573 2.32)" fill="#433552"/>
          <path id="Trazado_996377" data-name="Trazado 996377" d="M242.993,307.94l-1.436-1.42c.2-.205,5.027-5.06,9.139-4.969,4.162.048,7.529,3.963,7.67,4.13l-1.539,1.307c-.028-.033-2.92-3.379-6.154-3.417h-.041C247.918,303.571,244.2,306.72,242.993,307.94Z" transform="translate(2.416 3.015)" fill="#261e35"/>
          <path id="Trazado_996378" data-name="Trazado 996378" d="M230.391,282.378c-.646,0-1.071-.024-1.131-.027l.144-2.467c1.395.081,5.454.026,7.449-1.175l1.276,2.118C235.864,282.19,232.227,282.378,230.391,282.378Z" transform="translate(2.293 2.787)" fill="#261e35"/>
          <path id="Trazado_996379" data-name="Trazado 996379" d="M267.8,281.452a24.3,24.3,0,0,1-6.12-.941l.71-2.368c1.34.4,5.306,1.28,7.518.575l.753,2.354A9.534,9.534,0,0,1,267.8,281.452Z" transform="translate(2.617 2.781)" fill="#261e35"/>
          <path id="Trazado_996380" data-name="Trazado 996380" d="M251.18,324.861a24.674,24.674,0,0,1-11.453-3.112l1.051-1.725a22.925,22.925,0,0,0,7.11,2.551c5.32.943,9.867-.341,13.5-3.822l1.4,1.459A16.3,16.3,0,0,1,251.18,324.861Z" transform="translate(2.397 3.188)" fill="#261e35"/>
          <path id="Trazado_996381" data-name="Trazado 996381" d="M171.264,456.13s46.428,9.438,84.014,7.668,84.173-11.632,87.24-8.377,1.409,24.207,1.409,24.207-70.087,7.316-97.276,5.3-75.4-7.044-78.555-9.622S167.692,455.51,171.264,456.13Z" transform="translate(1.667 4.548)" fill="#658183"/>
          <g id="Grupo_1159841" data-name="Grupo 1159841" transform="translate(111.028 345.989)">
            <path id="Trazado_996382" data-name="Trazado 996382" d="M195.085,344.068S180.932,392.13,143.2,513.251l9.491,1s46.318-73.823,55.267-169.967C207.958,344.287,203.32,340.56,195.085,344.068Z" transform="translate(-109.596 -342.564)" fill="#e9b977"/>
            <path id="Trazado_996383" data-name="Trazado 996383" d="M164.6,393.824s4.235-13.814,17.829-14.344,17.027,5.117,17.027,5.117-.792,34.994-4.142,39.259-23.819,2.909-30.713,4.486S160.915,406.557,164.6,393.824Z" transform="translate(-109.423 -342.195)" fill="#a55450"/>
            <rect id="Rectángulo_409852" data-name="Rectángulo 409852" width="2.02" height="12.689" transform="translate(77.311 50.524) rotate(-85.423)" fill="#261e35"/>
            <rect id="Rectángulo_409853" data-name="Rectángulo 409853" width="2.02" height="12.689" transform="translate(77.355 60.245) rotate(-85.423)" fill="#261e35"/>
            <rect id="Rectángulo_409854" data-name="Rectángulo 409854" width="2.02" height="12.689" transform="translate(75.88 72.466) rotate(-85.423)" fill="#261e35"/>
            <path id="Trazado_996384" data-name="Trazado 996384" d="M172.618,423.093s2.971,50.27-5.3,70.914-23.959,33.766-38.773,30.166-20.673-35.377-17.98-56.452,55.719-88.3,66.322-85.774C182.623,383.313,173.032,412.066,172.618,423.093Z" transform="translate(-109.929 -342.171)" fill="#a55450"/>
          </g>
          <g id="Grupo_1159842" data-name="Grupo 1159842" transform="translate(293.4 338.34)">
            <path id="Trazado_996385" data-name="Trazado 996385" d="M307.311,340s20.954,67.4,49.365,174.325h-8.21s-41.223-77.135-57.971-179.339A87.32,87.32,0,0,1,307.311,340Z" transform="translate(-290.495 -334.99)" fill="#e9b977"/>
            <path id="Trazado_996386" data-name="Trazado 996386" d="M335.781,393.824s-4.235-13.814-17.829-14.344-17.027,5.117-17.027,5.117.792,34.994,4.142,39.259,23.819,2.909,30.713,4.486S339.471,406.557,335.781,393.824Z" transform="translate(-290.391 -334.545)" fill="#a55450"/>
            <rect id="Rectángulo_409855" data-name="Rectángulo 409855" width="12.689" height="2.021" transform="translate(10.475 57.141) rotate(-4.594)" fill="#261e35"/>
            <rect id="Rectángulo_409856" data-name="Rectángulo 409856" width="12.689" height="2.021" transform="translate(10.432 66.863) rotate(-4.594)" fill="#261e35"/>
            <rect id="Rectángulo_409857" data-name="Rectángulo 409857" width="12.689" height="2.021" transform="translate(11.906 79.083) rotate(-4.594)" fill="#261e35"/>
            <path id="Trazado_996387" data-name="Trazado 996387" d="M328.063,423.093s-2.971,50.27,5.3,70.914,23.959,33.766,38.773,30.166,20.673-35.377,17.98-56.452-55.719-88.3-66.322-85.774C318.058,383.313,327.649,412.066,328.063,423.093Z" transform="translate(-290.18 -334.521)" fill="#a55450"/>
          </g>
          <path id="Trazado_996388" data-name="Trazado 996388" d="M238.961,329.091a58.961,58.961,0,0,1,3.755,29c-1.993,16.442-5.226,45.06-16.268,44.587-17.779-.761-19.021-33.336-19.021-33.336s-5.4-20.151-9.046-26.182,5.423-13.15,13.191-14.065S229.387,343.854,238.961,329.091Z" transform="translate(1.976 3.291)" fill="#261e35"/>
          <path id="Trazado_996389" data-name="Trazado 996389" d="M227.126,389.273l-1.844-.823a81.331,81.331,0,0,0,5.182-37.821c-1.218-11.232-3.407-16.6-5.339-21.338-1.684-4.129-3.137-7.7-3.3-13.946l2.019-.054c.153,5.882,1.476,9.127,3.151,13.236a71.043,71.043,0,0,1,5.476,21.884A83.464,83.464,0,0,1,227.126,389.273Z" transform="translate(2.218 3.153)" fill="#433552"/>
          <path id="Trazado_996390" data-name="Trazado 996390" d="M217.019,378.744l-2.007-.231c.022-.19,2.148-19.2-1-32.616-3.216-13.69-4.084-38.442-4.094-38.689l2.019-.069c.008.246.872,24.8,4.041,38.3C219.209,359.2,217.11,377.952,217.019,378.744Z" transform="translate(2.099 3.071)" fill="#433552"/>
          <path id="Trazado_996391" data-name="Trazado 996391" d="M202.134,338.451l-2.014-.158c.024-.309,2.443-31.112,4.683-45.731l2,.306C204.571,307.415,202.158,338.142,202.134,338.451Z" transform="translate(2.001 2.926)" fill="#433552"/>
          <path id="Trazado_996392" data-name="Trazado 996392" d="M265.367,333.871a215.467,215.467,0,0,1,1.869,27.215c-.111,12.859,16.946,18.637,22.668,14.834,4.88-3.242,10.91-33.07,11.333-39.381S273.149,335.75,265.367,333.871Z" transform="translate(2.654 3.334)" fill="#261e35"/>
          <path id="Trazado_996393" data-name="Trazado 996393" d="M274.738,355.981l-2.02,0C272.744,328.4,275.963,311.168,276,311l1.985.377C277.948,311.543,274.764,328.608,274.738,355.981Z" transform="translate(2.727 3.11)" fill="#433552"/>
          <path id="Trazado_996394" data-name="Trazado 996394" d="M284.024,366.217c-.044-1.67-1.07-41.008,1.263-50.695a43.5,43.5,0,0,0,0-18.406l1.958-.494a44.747,44.747,0,0,1,0,19.374c-2.27,9.429-1.218,49.763-1.207,50.169Z" transform="translate(2.838 2.966)" fill="#433552"/>
        </g>
      </g>
    </g>
  </g>
</svg>
