<svg xmlns="http://www.w3.org/2000/svg" xmlns:xlink="http://www.w3.org/1999/xlink" width="110" height="110" viewBox="0 0 110 110">
  <defs>
    <filter id="Trazado_982547" x="0" y="0" width="110" height="110" filterUnits="userSpaceOnUse">
      <feOffset dy="3" input="SourceAlpha"/>
      <feGaussianBlur stdDeviation="3" result="blur"/>
      <feFlood flood-opacity="0.161"/>
      <feComposite operator="in" in2="blur"/>
      <feComposite in="SourceGraphic"/>
    </filter>
  </defs>
  <g id="Grupo_1159294" data-name="Grupo 1159294" transform="translate(-1297 -3255)">
    <g id="Grupo_1158893" data-name="Grupo 1158893" transform="translate(496 -550)">
      <g id="Grupo_1157405" data-name="Grupo 1157405" transform="translate(1 3016)">
        <g id="Grupo_1155792" data-name="Grupo 1155792" transform="translate(-1 -3894.666)">
          <g id="Grupo_1154703" data-name="Grupo 1154703" transform="translate(0 1465.666)">
            <g id="Grupo_1150789" data-name="Grupo 1150789" transform="translate(3 2320)">
              <g id="Grupo_1154212" data-name="Grupo 1154212" transform="translate(-236 -5809)">
                <g id="Grupo_1152583" data-name="Grupo 1152583" transform="translate(1043 6713)">
                  <g id="Grupo_1146973" data-name="Grupo 1146973" transform="translate(0 0)">
                    <g id="Grupo_1146954" data-name="Grupo 1146954">
                      <g transform="matrix(1, 0, 0, 1, -9, -6)" filter="url(#Trazado_982547)">
                        <g id="Trazado_982547-2" data-name="Trazado 982547" transform="translate(9 6)" fill="#fef4f5">
                          <path d="M 46 90.49987030029297 C 39.99187850952148 90.49987030029297 34.16426849365234 89.32350921630859 28.67905426025391 87.00345611572266 C 23.38019943237305 84.76224517822266 18.62104034423828 81.55341339111328 14.53374671936035 77.46613311767578 C 10.44646644592285 73.37885284423828 7.237639904022217 68.61969757080078 4.996413230895996 63.32085418701172 C 2.676359891891479 57.83565521240234 1.5 52.008056640625 1.5 45.99993515014648 C 1.5 39.99181365966797 2.676359891891479 34.16421508789062 4.996413230895996 28.67901420593262 C 7.237639904022217 23.38017463684082 10.44646644592285 18.62101554870605 14.53374671936035 14.53373527526855 C 18.62104034423828 10.44645500183105 23.38019943237305 7.23762845993042 28.67905426025391 4.996415138244629 C 34.16426849365234 2.676361799240112 39.99187850952148 1.500001788139343 46 1.500001788139343 C 52.00812149047852 1.500001788139343 57.83573150634766 2.676361799240112 63.32094573974609 4.996415138244629 C 68.61979675292969 7.23762845993042 73.37895965576172 10.44645500183105 77.46625518798828 14.53373527526855 C 81.55353546142578 18.62101554870605 84.76235961914062 23.38017463684082 87.00358581542969 28.67901420593262 C 89.32363891601562 34.16421508789062 90.5 39.99181365966797 90.5 45.99993515014648 C 90.5 52.008056640625 89.32363891601562 57.83565521240234 87.00358581542969 63.32085418701172 C 84.76235961914062 68.61969757080078 81.55353546142578 73.37885284423828 77.46625518798828 77.46613311767578 C 73.37895965576172 81.55341339111328 68.61979675292969 84.76224517822266 63.32094573974609 87.00345611572266 C 57.83573150634766 89.32350921630859 52.00812149047852 90.49987030029297 46 90.49987030029297 Z" stroke="none"/>
                          <path d="M 46 2.999992370605469 C 40.1937141418457 2.999992370605469 34.56269836425781 4.136489868164062 29.26337051391602 6.377906799316406 C 24.14332580566406 8.543502807617188 19.54441070556641 11.64437866210938 15.59439849853516 15.59437561035156 C 11.64440155029297 19.54439544677734 8.54351806640625 24.14329528808594 6.377914428710938 29.26333618164062 C 4.136497497558594 34.56264877319336 3 40.19366455078125 3 45.99993515014648 C 3 51.80620574951172 4.136497497558594 57.43720626831055 6.377914428710938 62.73651885986328 C 8.54351806640625 67.8565673828125 11.64440155029297 72.45545959472656 15.59439849853516 76.40547943115234 C 19.54441070556641 80.35547637939453 24.14332580566406 83.45635223388672 29.26337051391602 85.6219482421875 C 34.56269836425781 87.86336517333984 40.1937141418457 88.99986267089844 46 88.99986267089844 C 51.8062858581543 88.99986267089844 57.43730163574219 87.86336517333984 62.73661422729492 85.6219482421875 C 67.85667419433594 83.45635223388672 72.45557403564453 80.35547637939453 76.40558624267578 76.40547943115234 C 80.35559844970703 72.45545959472656 83.45647430419922 67.8565673828125 85.6220703125 62.73651885986328 C 87.86350250244141 57.43720626831055 89 51.80620574951172 89 45.99993515014648 C 89 40.19366455078125 87.86350250244141 34.56264877319336 85.6220703125 29.26333618164062 C 83.45647430419922 24.14329528808594 80.35559844970703 19.54439544677734 76.40558624267578 15.59437561035156 C 72.45557403564453 11.64437866210938 67.85667419433594 8.543502807617188 62.73661422729492 6.377906799316406 C 57.43730163574219 4.136489868164062 51.8062858581543 2.999992370605469 46 2.999992370605469 M 46 -7.62939453125e-06 C 71.40509033203125 -7.62939453125e-06 92 20.59486389160156 92 45.99993515014648 C 92 71.40499114990234 71.40509033203125 91.99986267089844 46 91.99986267089844 C 20.59490203857422 91.99986267089844 0 71.40499114990234 0 45.99993515014648 C 0 20.59486389160156 20.59490203857422 -7.62939453125e-06 46 -7.62939453125e-06 Z" stroke="none" fill="#ff7f8f"/>
                        </g>
                      </g>
                    </g>
                  </g>
                </g>
              </g>
            </g>
          </g>
        </g>
      </g>
    </g>
    <g id="mujer-africana" transform="translate(1261.137 3275.002)">
      <g id="Filled_16_" transform="translate(68.773 0.92)">
        <path id="Trazado_994946" data-name="Trazado 994946" d="M116.879,155.726a3.436,3.436,0,0,0-3.053,5,3.436,3.436,0,0,0-1.468,5.355,3.682,3.682,0,0,0,2.835,6.192,4.906,4.906,0,0,0,9.656-1.222h8.338a4.906,4.906,0,0,0,9.656,1.222,3.683,3.683,0,0,0,2.835-6.192,3.436,3.436,0,0,0-1.468-5.355,3.436,3.436,0,0,0-3.053-5Z" transform="translate(-106.937 -137.552)" fill="#616161"/>
        <path id="Trazado_994947" data-name="Trazado 994947" d="M142.928,247.564a2.514,2.514,0,0,0-2.4,1.789,2.24,2.24,0,0,1-2.457,1.89,4.9,4.9,0,0,1-4.9-4.9h-8.338a4.905,4.905,0,0,1-4.9,4.9,2.24,2.24,0,0,1-2.457-1.89,2.533,2.533,0,0,0-2.448-1.789,3.677,3.677,0,0,1-3.186-1.84,3.681,3.681,0,0,0,3.339,5.515,4.906,4.906,0,0,0,9.656-1.222h8.338a4.906,4.906,0,0,0,9.656,1.222,3.682,3.682,0,0,0,3.339-5.515A3.677,3.677,0,0,1,142.928,247.564Z" transform="translate(-106.917 -216.514)" fill="#424242"/>
        <path id="Trazado_994948" data-name="Trazado 994948" d="M75.363,326.477v-7.989a6.131,6.131,0,0,1,3.854-5.693L91.3,307.961v-7.235h12.262v7.235l12.087,4.835a6.131,6.131,0,0,1,3.854,5.693v7.989Z" transform="translate(-75.354 -264.771)" fill="#a0804c"/>
        <path id="Trazado_994949" data-name="Trazado 994949" d="M165.363,146.726v9.687a11.036,11.036,0,1,0,22.072,0v-9.687Z" transform="translate(-154.318 -129.655)" fill="#a0804c"/>
        <path id="Trazado_994950" data-name="Trazado 994950" d="M176.4,206.762a11.036,11.036,0,0,1-11.036-11.036V199.4a11.036,11.036,0,1,0,22.072,0v-3.679A11.036,11.036,0,0,1,176.4,206.762Z" transform="translate(-154.318 -172.647)" fill="#876c3e"/>
        <path id="Trazado_994951" data-name="Trazado 994951" d="M145.363,480.726H172.34V484.4H145.363Z" transform="translate(-136.77 -422.699)" fill="#feef8f"/>
        <path id="Trazado_994952" data-name="Trazado 994952" d="M157.669,23.359l.15.451a2.453,2.453,0,0,1-2.327,3.228h-2.851c-9.246-1.316-10.931-2.562-14.058-1.326l-3.355,1.326c-2.453-.209-4.515.634-5.623-1.167a4.236,4.236,0,0,1-.836-3.55l1.064-3.99c.068-2.136-1.064-4.7,1.1-6.478,4.33-3.543,4.85-4.313,6.585-4.313,13.94.222,14.52-.526,16.21.707,1,.944,3.6,1.8,3.48,4.575l-.158,3.546c.483.638,3.283,2.071,2.029,4.381Z" transform="translate(-122.099 -7.515)" fill="#f88fa4"/>
        <path id="Trazado_994953" data-name="Trazado 994953" d="M157.7,122.752l.281-.518c-1.115.83-2.112.4-4.643.518-9.643-1.35-11.7-2.791-15.314-1.361l-3.442,1.361c-2.966-.191-4.564.529-5.81-.921a3.678,3.678,0,0,0,.45,2.758,2.941,2.941,0,0,0,2.5,1.841h3.535l3.355-1.326c3.126-1.236,4.82.012,14.058,1.326h2.851a2.453,2.453,0,0,0,2.327-3.228Z" transform="translate(-122.134 -106.908)" fill="#f05475"/>
        <path id="Trazado_994954" data-name="Trazado 994954" d="M200.691,344.4H187.2a1.839,1.839,0,0,1,0-3.679h13.489A1.839,1.839,0,0,1,200.691,344.4Z" transform="translate(-171.865 -299.866)" fill="#d6c496"/>
        <path id="Trazado_994955" data-name="Trazado 994955" d="M118.631,420.726H76.108c-1.251,2.183-.655,3.887-.811,7.357h44.145C119.286,424.619,119.882,422.91,118.631,420.726Z" transform="translate(-75.288 -370.056)" fill="#cda0e1"/>
        <path id="Trazado_994956" data-name="Trazado 994956" d="M75.363,450.726h44.145V454.4H75.363Z" transform="translate(-75.354 -396.378)" fill="#b071d2"/>
      </g>
      <g id="Grupo_1159293" data-name="Grupo 1159293" transform="translate(72.768 8.855)">
        <path id="Trazado_994957" data-name="Trazado 994957" d="M296.363,72.226H298.2v1.839h-1.839Z" transform="translate(-273.248 -72.226)" fill="#fff"/>
        <path id="Trazado_994958" data-name="Trazado 994958" d="M275.363,252.226H277.2v1.839h-1.839Z" transform="translate(-254.823 -230.154)" fill="#fff"/>
        <path id="Trazado_994959" data-name="Trazado 994959" d="M144.037,446.065H142.2v-1.839h1.839Zm-4.292,0h-1.839v-1.839h1.839Zm-4.292,0h-1.839v-1.839h1.839Zm-4.292,0h-1.839v-1.839h1.839Zm-4.292,0H125.03v-1.839h1.839Zm-4.292,0h-1.839v-1.839h1.839Zm-4.292,0h-1.839v-1.839h1.839Zm-4.292,0h-1.839v-1.839h1.839Zm-4.292,0h-1.839v-1.839H109.7Z" transform="translate(-107.863 -398.61)" fill="#fff"/>
      </g>
      <g id="Outline_16_" transform="translate(67.863 -0.002)">
        <path id="Trazado_994960" data-name="Trazado 994960" d="M109.415,48.091,100.24,44.42a2.762,2.762,0,0,0-2.333-3.543v-.991a5.832,5.832,0,0,0,7.452-3.348A4.605,4.605,0,0,0,108.65,29.4a4.355,4.355,0,0,0-1.451-5.747,4.363,4.363,0,0,0-1.784-4.745,3.486,3.486,0,0,0-.072-2.059l1.226-2.258c1.6-2.947-1.629-4.815-1.9-5.208l.139-3.118c.15-3.374-2.954-4.481-3.857-5.359C98.874-.605,97.911.288,84.2.026c-2.59,0-3.58,1.866-7.167,4.521-2.624,2.147-1.358,5.193-1.451,7.1-.495,2.725-2.046,4.921-.5,7.436l.357.581a4.352,4.352,0,0,0-.929,3.991A4.355,4.355,0,0,0,73.06,29.4a4.6,4.6,0,0,0,3.292,7.135A5.832,5.832,0,0,0,83.8,39.886v.991a2.762,2.762,0,0,0-2.333,3.543L72.3,48.091a7.016,7.016,0,0,0-4.432,6.546v7.989H69.7V59.867h6.744v2.759h1.839V59.867h25.138v2.759h1.839V59.867h6.744v2.759h1.839V54.637A7.016,7.016,0,0,0,109.415,48.091ZM80.739,27.678V21.363h1.34L85.6,19.972c2.775-1.1,4.374.043,13.641,1.391h1.734v5.886H98.948v1.839h1.923a10.026,10.026,0,0,1-.438,1.839H96.986v1.839h2.607c-5.224,8.935-18.854,5.152-18.854-5.089ZM96.067,38.437V40.86H85.644V38.437A11.939,11.939,0,0,0,96.067,38.437Zm9.164-14.76-.473.918.966.364A2.515,2.515,0,0,1,106.8,28.88l-.5.623.546.581a2.762,2.762,0,0,1-2.12,4.643l-.749-.037-.186.727a3.985,3.985,0,0,1-5.884,2.437v-.526a11.947,11.947,0,0,0,4.9-9.649V21.3a3.309,3.309,0,0,0,1.635-.824,2.515,2.515,0,0,1,.785,3.2ZM77.307,12.311c2.108-1.108,4.879-4.335,9.956-3.69,3.918.5,6.478-1.09,7.6-1.423L94.2,5.484c-1.161.349-3.334,1.742-6.706,1.313-5.663-.721-8.946,2.693-10.179,3.3L77.19,8.3c-.16-2.291,2.023-2.818,5.26-5.809,1.349-1.1,1.681-.419,15.789-.624,1.386,0,1.951.892,3.6,1.971a2.752,2.752,0,0,1,.986,1.34h-2.038V7.016h2.145l-.082,1.839h-3.29v1.839h3.812c.5.628,2.4,1.515,1.579,3.023l-.976,1.8A15.378,15.378,0,0,0,94.432,13.4a15.189,15.189,0,0,1-7.551-1.3l-.636,1.726a16.9,16.9,0,0,0,8.39,1.4,14.038,14.038,0,0,1,8.951,2.172,1.55,1.55,0,0,1-.175,1.488c-.731,1.013-1.8.5-4.016.637-8.968-1.249-11-2.637-14.474-1.262l-3.192,1.262H78.368c-1.171,0-1.46-1.1-1.72-1.4a2.734,2.734,0,0,1-.217-.438c.582-.136,3.08-1.815,6.179-.333l.794-1.659a8.264,8.264,0,0,0-7,.021Zm4.474,26.1c-3.57,0-3.989-3.62-4.047-3.718-.763.036-.761.039-.858.039a2.762,2.762,0,0,1-2.759-2.759A3.462,3.462,0,0,1,75.41,29.5l-.5-.623a2.515,2.515,0,0,1,1.073-3.921l.966-.364c-.045-.261-1.536-1.993-.194-3.646a3.965,3.965,0,0,0,2.14.414v6.315a11.947,11.947,0,0,0,4.9,9.649v.526a3.948,3.948,0,0,1-2.023.555Zm2.33,4.292H97.6a.92.92,0,0,1,0,1.839H84.111A.92.92,0,0,1,84.111,42.7ZM82.623,45.94c1.212.779,1.153.284,14.977.438a2.743,2.743,0,0,0,1.488-.438c9.708,3.976,9.961,3.769,11.092,4.729H71.53c1.136-.965,1.411-.764,11.092-4.729Zm29.385,12.087H69.7c.091-2.8-.257-3.929.45-5.518h41.406C112.26,54.087,111.915,55.169,112.008,58.027Z" transform="translate(-67.863 0.002)"/>
      </g>
    </g>
  </g>
</svg>
