<svg xmlns="http://www.w3.org/2000/svg" xmlns:xlink="http://www.w3.org/1999/xlink" width="108" height="108" viewBox="0 0 108 108">
  <defs>
    <filter id="Trazado_982547" x="0" y="0" width="108" height="108" filterUnits="userSpaceOnUse">
      <feOffset dy="3" input="SourceAlpha"/>
      <feGaussianBlur stdDeviation="3" result="blur"/>
      <feFlood flood-opacity="0.161"/>
      <feComposite operator="in" in2="blur"/>
      <feComposite in="SourceGraphic"/>
    </filter>
  </defs>
  <g id="Grupo_1159863" data-name="Grupo 1159863" transform="translate(-171 -6098)">
    <g id="Grupo_1158935" data-name="Grupo 1158935" transform="translate(0 4538)">
      <g id="Grupo_1153955" data-name="Grupo 1153955" transform="translate(-83 1047)">
        <g id="Grupo_1149598" data-name="Grupo 1149598" transform="translate(80 315)">
          <g id="Grupo_1148770" data-name="Grupo 1148770" transform="translate(-27 -2583)">
            <g id="Grupo_1146954" data-name="Grupo 1146954" transform="translate(-415 -1202)">
              <g transform="matrix(1, 0, 0, 1, 616, 3983)" filter="url(#Trazado_982547)">
                <g id="Trazado_982547-2" data-name="Trazado 982547" transform="translate(9 6)" fill="#f4f8fc">
                  <path d="M 45 88.5 C 39.12687683105469 88.5 33.43022537231445 87.35007476806641 28.06830024719238 85.08217620849609 C 22.88852500915527 82.89131164550781 18.23629951477051 79.75458526611328 14.2408504486084 75.75914764404297 C 10.24541282653809 71.76370239257812 7.108687400817871 67.11147308349609 4.917825222015381 61.93170166015625 C 2.649924993515015 56.56977462768555 1.5 50.87312316894531 1.5 45 C 1.5 39.12687683105469 2.649924993515015 33.43022537231445 4.917825222015381 28.06830024719238 C 7.108687400817871 22.88852500915527 10.24541282653809 18.23629951477051 14.2408504486084 14.2408504486084 C 18.23629951477051 10.24541282653809 22.88852500915527 7.108687400817871 28.06830024719238 4.917825222015381 C 33.43022537231445 2.649924993515015 39.12687683105469 1.5 45 1.5 C 50.87312316894531 1.5 56.56977462768555 2.649924993515015 61.93170166015625 4.917825222015381 C 67.11147308349609 7.108687400817871 71.76370239257812 10.24541282653809 75.75914764404297 14.2408504486084 C 79.75458526611328 18.23629951477051 82.89131164550781 22.88852500915527 85.08217620849609 28.06830024719238 C 87.35007476806641 33.43022537231445 88.5 39.12687683105469 88.5 45 C 88.5 50.87312316894531 87.35007476806641 56.56977462768555 85.08217620849609 61.93170166015625 C 82.89131164550781 67.11147308349609 79.75458526611328 71.76370239257812 75.75914764404297 75.75914764404297 C 71.76370239257812 79.75458526611328 67.11147308349609 82.89131164550781 61.93170166015625 85.08217620849609 C 56.56977462768555 87.35007476806641 50.87312316894531 88.5 45 88.5 Z" stroke="none"/>
                  <path d="M 45 3 C 39.32871246337891 3 33.82865524291992 4.110054016113281 28.65262985229492 6.299339294433594 C 23.65165710449219 8.414573669433594 19.15968322753906 11.44334411621094 15.301513671875 15.301513671875 C 11.44334411621094 19.15968322753906 8.414573669433594 23.65165710449219 6.299339294433594 28.65262985229492 C 4.110054016113281 33.82865524291992 3 39.32871246337891 3 45 C 3 50.67128753662109 4.110054016113281 56.17134475708008 6.299339294433594 61.34737396240234 C 8.414573669433594 66.34834289550781 11.44334411621094 70.84031677246094 15.301513671875 74.698486328125 C 19.15968322753906 78.55665588378906 23.65165710449219 81.58542633056641 28.65262985229492 83.70066070556641 C 33.82865524291992 85.88994598388672 39.32871246337891 87 45 87 C 50.67128753662109 87 56.17134475708008 85.88994598388672 61.34737396240234 83.70066070556641 C 66.34834289550781 81.58542633056641 70.84031677246094 78.55665588378906 74.698486328125 74.698486328125 C 78.55665588378906 70.84031677246094 81.58542633056641 66.34834289550781 83.70066070556641 61.34737396240234 C 85.88994598388672 56.17134475708008 87 50.67128753662109 87 45 C 87 39.32871246337891 85.88994598388672 33.82865524291992 83.70066070556641 28.65262985229492 C 81.58542633056641 23.65165710449219 78.55665588378906 19.15968322753906 74.698486328125 15.301513671875 C 70.84031677246094 11.44334411621094 66.34834289550781 8.414573669433594 61.34737396240234 6.299339294433594 C 56.17134475708008 4.110054016113281 50.67128753662109 3 45 3 M 45 0 C 69.85281372070312 0 90 20.14718627929688 90 45 C 90 69.85281372070312 69.85281372070312 90 45 90 C 20.14718627929688 90 0 69.85281372070312 0 45 C 0 20.14718627929688 20.14718627929688 0 45 0 Z" stroke="none" fill="#97c2e6"/>
                </g>
              </g>
            </g>
          </g>
        </g>
      </g>
    </g>
    <g id="discriminacion_1_" data-name="discriminacion (1)" transform="translate(197 6120.86)">
      <g id="Grupo_1159861" data-name="Grupo 1159861" transform="translate(0.83 0.964)">
        <g id="Grupo_1159851" data-name="Grupo 1159851" transform="translate(9.071)">
          <path id="Trazado_996395" data-name="Trazado 996395" d="M100.1,40.535a10.155,10.155,0,0,1-4.587-1.049,2.374,2.374,0,0,1-.617-.433c-.829-.83-.826-2.357-1.481-3.336s-2.063-1.55-2.516-2.642c-.445-1.074.141-2.482-.089-3.649-.224-1.133-1.308-2.208-1.308-3.407s1.084-2.274,1.308-3.407c.231-1.167-.355-2.575.089-3.649.453-1.092,1.867-1.671,2.516-2.642s.652-2.506,1.481-3.336,2.355-.827,3.333-1.482,1.549-2.065,2.64-2.518c1.073-.445,2.48.141,3.646-.089,1.132-.224,2.207-1.309,3.4-1.309s2.272,1.085,3.4,1.309c1.166.231,2.573-.356,3.646.089,1.092.453,1.67,1.868,2.64,2.518s2.5.652,3.333,1.482.826,2.357,1.481,3.336,2.063,1.55,2.516,2.642c.445,1.074-.141,2.482.089,3.649.224,1.133,1.308,2.208,1.308,3.407s-1.084,2.274-1.308,3.407c-.231,1.167.355,2.575-.089,3.649-.453,1.092-1.867,1.671-2.516,2.642s-.652,2.506-1.481,3.336a2.374,2.374,0,0,1-.617.433,10.155,10.155,0,0,1-4.587,1.049Z" transform="translate(-89.504 -7.587)" fill="#964f09"/>
          <path id="Trazado_996396" data-name="Trazado 996396" d="M255.322,29.426c.224-1.133,1.308-2.209,1.308-3.407s-1.084-2.274-1.308-3.407c-.231-1.167.356-2.575-.089-3.649-.453-1.092-1.867-1.671-2.516-2.642s-.652-2.506-1.481-3.336-2.355-.827-3.333-1.482-1.549-2.065-2.64-2.518c-1.073-.445-2.48.141-3.646-.089-1.132-.224-2.207-1.309-3.4-1.309A5.029,5.029,0,0,0,236,8.419a4.487,4.487,0,0,0,1.192.477c1.166.231,2.573-.356,3.646.089,1.092.453,1.67,1.868,2.64,2.518s2.5.652,3.333,1.482.826,2.357,1.481,3.336,2.063,1.55,2.516,2.642c.445,1.074-.141,2.482.089,3.649.224,1.133,1.308,2.208,1.308,3.407s-1.084,2.274-1.308,3.407c-.231,1.167.355,2.575-.089,3.649-.453,1.092-1.867,1.671-2.516,2.642s-.652,2.506-1.481,3.336a2.371,2.371,0,0,1-.617.433,10.154,10.154,0,0,1-4.586,1.049h4.424a10.155,10.155,0,0,0,4.587-1.049,2.374,2.374,0,0,0,.617-.433c.829-.83.826-2.357,1.481-3.336s2.063-1.55,2.516-2.642C255.677,32,255.091,30.593,255.322,29.426Z" transform="translate(-219.795 -7.587)" fill="#804102"/>
          <g id="Grupo_1159850" data-name="Grupo 1159850" transform="translate(7.588 15.669)">
            <g id="Grupo_1159849" data-name="Grupo 1159849">
              <g id="Grupo_1159847" data-name="Grupo 1159847" transform="translate(0.622 16.223)">
                <path id="Trazado_996397" data-name="Trazado 996397" d="M184.134,374.02v-6.027a10.208,10.208,0,0,0-10.2-10.212h-.008a10.208,10.208,0,0,0-10.2,10.212v6.027h20.416Z" transform="translate(-163.718 -350.935)" fill="#f0f3fa"/>
                <path id="Trazado_996398" data-name="Trazado 996398" d="M238.217,357.781h-.008a10.234,10.234,0,0,0-2.208.24,10.214,10.214,0,0,1,8,9.972v6.027h4.425v-6.027A10.208,10.208,0,0,0,238.217,357.781Z" transform="translate(-228.004 -350.935)" fill="#e8ecf5"/>
                <g id="Grupo_1159846" data-name="Grupo 1159846" transform="translate(8.624)">
                  <g id="Grupo_1159845" data-name="Grupo 1159845">
                    <path id="Trazado_996399" data-name="Trazado 996399" d="M243.262,305.495a1.585,1.585,0,0,1-1.584-1.585v-8.015h3.168v8.015A1.585,1.585,0,0,1,243.262,305.495Z" transform="translate(-241.678 -295.894)" fill="#e68d35"/>
                  </g>
                </g>
              </g>
              <g id="Grupo_1159848" data-name="Grupo 1159848">
                <path id="Trazado_996400" data-name="Trazado 996400" d="M178.041,159.622c-5.758-.135-11.449-3.482-12.184-9.38a1.138,1.138,0,0,0-1.621-.889,10.831,10.831,0,0,0,4.721,20.592c5.236,0,9.773-3.123,10.7-8.371A1.671,1.671,0,0,0,178.041,159.622Z" transform="translate(-158.099 -149.24)" fill="#e68d35"/>
              </g>
            </g>
          </g>
        </g>
        <g id="Grupo_1159860" data-name="Grupo 1159860" transform="translate(0 0)">
          <g id="Grupo_1159854" data-name="Grupo 1159854">
            <g id="Grupo_1159852" data-name="Grupo 1159852">
              <path id="Trazado_996401" data-name="Trazado 996401" d="M23.374,24.4H8.973A1.473,1.473,0,0,1,7.5,22.923V13.4a1.473,1.473,0,0,1,1.473-1.473h1.871V7.587l4.337,4.337h8.193A1.473,1.473,0,0,1,24.847,13.4v9.526A1.473,1.473,0,0,1,23.374,24.4Z" transform="translate(-7.5 -7.587)" fill="#d9a5fa"/>
            </g>
            <g id="Grupo_1159853" data-name="Grupo 1159853" transform="translate(11.449 4.337)">
              <path id="Trazado_996402" data-name="Trazado 996402" d="M115.428,46.792H111a1.473,1.473,0,0,1,1.473,1.473v9.526A1.473,1.473,0,0,1,111,59.265h4.425a1.473,1.473,0,0,0,1.473-1.473V48.265A1.473,1.473,0,0,0,115.428,46.792Z" transform="translate(-111.003 -46.792)" fill="#d294fa"/>
            </g>
          </g>
          <g id="Grupo_1159856" data-name="Grupo 1159856" transform="translate(40.136 13.106)">
            <g id="Grupo_1159855" data-name="Grupo 1159855">
              <path id="Trazado_996403" data-name="Trazado 996403" d="M371.594,126.068h12.32a1.261,1.261,0,0,1,1.26,1.26v8.15a1.261,1.261,0,0,1-1.26,1.261h-1.6v3.71l-3.71-3.71h-7.01a1.261,1.261,0,0,1-1.26-1.26v-8.15A1.26,1.26,0,0,1,371.594,126.068Z" transform="translate(-370.333 -126.068)" fill="#ffd52b"/>
            </g>
            <path id="Trazado_996404" data-name="Trazado 996404" d="M450.406,126.068h-4.425a1.261,1.261,0,0,1,1.26,1.26v8.15a1.261,1.261,0,0,1-1.26,1.261h-.886l3.71,3.71v-3.71h1.6a1.261,1.261,0,0,0,1.26-1.26v-8.15A1.26,1.26,0,0,0,450.406,126.068Z" transform="translate(-436.825 -126.068)" fill="#fcca00"/>
          </g>
          <g id="Grupo_1159859" data-name="Grupo 1159859" transform="translate(2.212 35.376)">
            <g id="Grupo_1159857" data-name="Grupo 1159857">
              <path id="Trazado_996405" data-name="Trazado 996405" d="M39.056,327.393H28.573a1.073,1.073,0,0,0-1.073,1.073V335.4a1.073,1.073,0,0,0,1.073,1.073h1.362v3.157l3.157-3.157h5.965a1.073,1.073,0,0,0,1.073-1.073v-6.935A1.073,1.073,0,0,0,39.056,327.393Z" transform="translate(-27.5 -327.393)" fill="#73a4ff"/>
            </g>
            <g id="Grupo_1159858" data-name="Grupo 1159858" transform="translate(7.132)">
              <path id="Trazado_996406" data-name="Trazado 996406" d="M96.4,327.393H91.971a1.073,1.073,0,0,1,1.073,1.073V335.4a1.073,1.073,0,0,1-1.073,1.073H96.4a1.073,1.073,0,0,0,1.073-1.073v-6.935A1.073,1.073,0,0,0,96.4,327.393Z" transform="translate(-91.971 -327.393)" fill="#5c95ff"/>
            </g>
          </g>
        </g>
      </g>
      <g id="Grupo_1159862" data-name="Grupo 1159862" transform="translate(0 0.14)">
        <path id="Trazado_996407" data-name="Trazado 996407" d="M325.187,390.828a.83.83,0,0,0-.219,1.153,9.336,9.336,0,0,1,1.621,5.276v6.027a.83.83,0,0,0,1.659,0v-6.027a10.99,10.99,0,0,0-1.909-6.21.83.83,0,0,0-1.153-.219Z" transform="translate(-288.892 -347.482)" fill="#060606"/>
        <path id="Trazado_996408" data-name="Trazado 996408" d="M187.911,447.5a.83.83,0,0,0-.83.83v5.485a.83.83,0,0,0,1.659,0v-5.485A.83.83,0,0,0,187.911,447.5Z" transform="translate(-166.386 -398.012)" fill="#060606"/>
        <path id="Trazado_996409" data-name="Trazado 996409" d="M310.749,447.5a.83.83,0,0,0-.83.83v5.485a.83.83,0,0,0,1.659,0v-5.485A.83.83,0,0,0,310.749,447.5Z" transform="translate(-275.636 -398.012)" fill="#060606"/>
        <path id="Trazado_996410" data-name="Trazado 996410" d="M224.775,260.735a3.889,3.889,0,0,0-3.884,3.886.83.83,0,0,0,1.659,0,2.224,2.224,0,1,1,4.449,0,.83.83,0,0,0,1.659,0A3.889,3.889,0,0,0,224.775,260.735Z" transform="translate(-196.456 -231.908)" fill="#060606"/>
        <path id="Trazado_996411" data-name="Trazado 996411" d="M193.317,210.614v-.965a2.238,2.238,0,1,0-4.476,0v.965a.83.83,0,1,0,1.659,0v-.965a.579.579,0,1,1,1.157,0v.965a.83.83,0,0,0,1.659,0Z" transform="translate(-167.952 -184.483)" fill="#060606"/>
        <path id="Trazado_996412" data-name="Trazado 996412" d="M55.983,79.874a.83.83,0,0,0,1.173,0l1.919-1.919,1.919,1.919A.83.83,0,0,0,62.167,78.7l-1.919-1.919,1.919-1.919a.83.83,0,0,0-1.173-1.173l-1.919,1.919-1.919-1.919a.83.83,0,0,0-1.173,1.173L57.9,76.782,55.983,78.7A.83.83,0,0,0,55.983,79.874Z" transform="translate(-49.572 -65.335)" fill="#060606"/>
        <path id="Trazado_996413" data-name="Trazado 996413" d="M54.546,13.241H46.339a3.349,3.349,0,0,0-.234-1.217c-.523-1.263-1.871-1.707-2.593-2.786a4.989,4.989,0,0,1-.5-1.285A4.247,4.247,0,0,0,39.754,4.7a3.978,3.978,0,0,1-2.228-1.49,4.17,4.17,0,0,0-4.247-1.772A3.973,3.973,0,0,1,30.653.92a4.306,4.306,0,0,0-4.67,0,3.971,3.971,0,0,1-2.625.514,4.17,4.17,0,0,0-4.247,1.772,4.937,4.937,0,0,1-.945.985,1.417,1.417,0,0,1-1.463.28H8.854L4.76.377A.836.836,0,0,0,3.344.964V4.471H2.3A2.305,2.305,0,0,0,0,6.774V9.208a.83.83,0,0,0,1.659,0V6.774A.644.644,0,0,1,2.3,6.131H4.174A.83.83,0,0,0,5,5.3V2.967L7.924,5.887a.829.829,0,0,0,.587.243H16.7a.644.644,0,0,1,.644.644V16.3a.644.644,0,0,1-.644.644H2.3a.644.644,0,0,1-.644-.644V13.628a.83.83,0,0,0-1.659,0V16.3a2.306,2.306,0,0,0,2.3,2.3H9.178a4.21,4.21,0,0,0,.678,3.13,3.983,3.983,0,0,1,.514,2.628,4.176,4.176,0,0,0,1.77,4.25,3.983,3.983,0,0,1,1.489,2.231A4.109,4.109,0,0,0,15.537,33.6a10.794,10.794,0,0,0,4.451,1.127c.151.007.052-.03.249.16a11.672,11.672,0,0,0,5.667,3.02v1.227A11.029,11.029,0,0,0,17.28,49.914v6.027a.83.83,0,0,0,1.659,0V49.914A9.371,9.371,0,0,1,25.9,40.846c-.02,3.126,4.847,3.165,4.828,0a9.277,9.277,0,0,1,2.576,1.121.831.831,0,0,0,.885-1.4,10.923,10.923,0,0,0-3.461-1.425V37.961a11.454,11.454,0,0,0,6.307-3.253,10.718,10.718,0,0,0,4.06-1.1,4.105,4.105,0,0,0,1.907-2.763A3.984,3.984,0,0,1,44.5,28.61a4,4,0,0,0,1.842-3.04h2.554l3.467,3.467a.834.834,0,0,0,1.416-.587V25.571h.771a2.092,2.092,0,0,0,2.09-2.09v-8.15A2.092,2.092,0,0,0,54.546,13.241ZM29.073,40.871a.755.755,0,0,1-1.509,0v-2.73a12.1,12.1,0,0,0,1.509.006Zm-.727-4.362a10,10,0,0,1-4.361-19.015.313.313,0,0,1,.437.244,10.572,10.572,0,0,0,4.55,7.425,15.268,15.268,0,0,0,8.437,2.682.842.842,0,0,1,.817.978c-.81,4.6-4.781,7.686-9.881,7.686ZM44.572,26.135a3.652,3.652,0,0,1-1.121,1.187,5.666,5.666,0,0,0-2.034,3.045,2.618,2.618,0,0,1-1.066,1.757A8.676,8.676,0,0,1,38.5,32.8a10.83,10.83,0,0,0,1.362-3.691,2.538,2.538,0,0,0-2.412-2.925,13.594,13.594,0,0,1-7.514-2.375,8.953,8.953,0,0,1-3.866-6.278A2,2,0,0,0,23.265,16a11.678,11.678,0,0,0-6.6,10.915A11.521,11.521,0,0,0,18.577,32.9a8.766,8.766,0,0,1-2.292-.778,2.619,2.619,0,0,1-1.066-1.757,5.665,5.665,0,0,0-2.034-3.045A2.591,2.591,0,0,1,12.02,24.53a5.652,5.652,0,0,0-.705-3.587,2.445,2.445,0,0,1-.382-2.34H16.7a2.305,2.305,0,0,0,2.3-2.3V6.774a2.285,2.285,0,0,0-.238-1.014A5.483,5.483,0,0,0,20.4,4.251a2.586,2.586,0,0,1,2.788-1.166,5.641,5.641,0,0,0,3.585-.706,2.655,2.655,0,0,1,3.089,0,5.641,5.641,0,0,0,3.585.706,2.586,2.586,0,0,1,2.788,1.166,5.66,5.66,0,0,0,3.043,2.036,2.6,2.6,0,0,1,2.139,2.141,6.234,6.234,0,0,0,.716,1.733c.623.931,2.009,1.461,2.439,2.5a1.7,1.7,0,0,1,.106.582H42.226a2.092,2.092,0,0,0-2.09,2.09v8.15a2.093,2.093,0,0,0,2.09,2.09h2.452a1.657,1.657,0,0,1-.106.564Zm10.406-2.654a.431.431,0,0,1-.431.431h-1.6a.83.83,0,0,0-.83.83v1.708l-2.294-2.294a.83.83,0,0,0-.587-.243h-7.01a.431.431,0,0,1-.431-.431v-8.15a.431.431,0,0,1,.431-.431h12.32a.431.431,0,0,1,.431.431Z" transform="translate(0 -0.14)" fill="#060606"/>
        <path id="Trazado_996414" data-name="Trazado 996414" d="M416.221,147.261a.83.83,0,0,0-1.173,0l-1.557,1.557-1.557-1.557a.83.83,0,0,0-1.173,1.173l1.557,1.557-1.557,1.557a.83.83,0,0,0,1.173,1.173l1.557-1.557,1.557,1.557a.83.83,0,0,0,1.173-1.173l-1.557-1.557,1.557-1.557A.83.83,0,0,0,416.221,147.261Z" transform="translate(-365.104 -130.768)" fill="#060606"/>
        <path id="Trazado_996415" data-name="Trazado 996415" d="M32.386,319.893H21.9a1.9,1.9,0,0,0-1.9,1.9v6.935a1.9,1.9,0,0,0,1.9,1.9h.532v2.328a.83.83,0,0,0,1.416.587l2.914-2.914h5.621a1.9,1.9,0,0,0,1.9-1.9V321.8A1.9,1.9,0,0,0,32.386,319.893Zm.243,8.837a.243.243,0,0,1-.243.243H26.421a.829.829,0,0,0-.587.243l-1.741,1.741V329.8a.83.83,0,0,0-.83-.83H21.9a.243.243,0,0,1-.243-.243V321.8a.243.243,0,0,1,.243-.243H32.386a.243.243,0,0,1,.243.243Z" transform="translate(-17.788 -284.522)" fill="#060606"/>
        <path id="Trazado_996416" data-name="Trazado 996416" d="M65.658,344.361a.83.83,0,0,0-1.173,0L63.247,345.6l-1.238-1.238a.83.83,0,0,0-1.173,1.173l1.238,1.238-1.238,1.238a.83.83,0,1,0,1.173,1.173l1.238-1.238,1.238,1.238a.83.83,0,0,0,1.173-1.173l-1.238-1.238,1.238-1.238a.83.83,0,0,0,0-1.173Z" transform="translate(-53.891 -306.068)" fill="#060606"/>
      </g>
    </g>
  </g>
</svg>
