<svg xmlns="http://www.w3.org/2000/svg" xmlns:xlink="http://www.w3.org/1999/xlink" width="110" height="110" viewBox="0 0 110 110">
  <defs>
    <filter id="Trazado_982547" x="0" y="0" width="110" height="110" filterUnits="userSpaceOnUse">
      <feOffset dy="3" input="SourceAlpha"/>
      <feGaussianBlur stdDeviation="3" result="blur"/>
      <feFlood flood-opacity="0.161"/>
      <feComposite operator="in" in2="blur"/>
      <feComposite in="SourceGraphic"/>
    </filter>
  </defs>
  <g id="Grupo_1159315" data-name="Grupo 1159315" transform="translate(-1297 -3573)">
    <g id="Grupo_1158895" data-name="Grupo 1158895" transform="translate(496 -232)">
      <g id="Grupo_1157405" data-name="Grupo 1157405" transform="translate(1 3016)">
        <g id="Grupo_1155792" data-name="Grupo 1155792" transform="translate(-1 -3894.666)">
          <g id="Grupo_1154703" data-name="Grupo 1154703" transform="translate(0 1465.666)">
            <g id="Grupo_1150789" data-name="Grupo 1150789" transform="translate(3 2320)">
              <g id="Grupo_1154212" data-name="Grupo 1154212" transform="translate(-236 -5809)">
                <g id="Grupo_1152583" data-name="Grupo 1152583" transform="translate(1043 6713)">
                  <g id="Grupo_1146973" data-name="Grupo 1146973" transform="translate(0 0)">
                    <g id="Grupo_1146954" data-name="Grupo 1146954">
                      <g transform="matrix(1, 0, 0, 1, -9, -6)" filter="url(#Trazado_982547)">
                        <g id="Trazado_982547-2" data-name="Trazado 982547" transform="translate(9 6)" fill="#fef4f5">
                          <path d="M 46 90.49987030029297 C 39.99187850952148 90.49987030029297 34.16426849365234 89.32350921630859 28.67905426025391 87.00345611572266 C 23.38019943237305 84.76224517822266 18.62104034423828 81.55341339111328 14.53374671936035 77.46613311767578 C 10.44646644592285 73.37885284423828 7.237639904022217 68.61969757080078 4.996413230895996 63.32085418701172 C 2.676359891891479 57.83565521240234 1.5 52.008056640625 1.5 45.99993515014648 C 1.5 39.99181365966797 2.676359891891479 34.16421508789062 4.996413230895996 28.67901420593262 C 7.237639904022217 23.38017463684082 10.44646644592285 18.62101554870605 14.53374671936035 14.53373527526855 C 18.62104034423828 10.44645500183105 23.38019943237305 7.23762845993042 28.67905426025391 4.996415138244629 C 34.16426849365234 2.676361799240112 39.99187850952148 1.500001788139343 46 1.500001788139343 C 52.00812149047852 1.500001788139343 57.83573150634766 2.676361799240112 63.32094573974609 4.996415138244629 C 68.61979675292969 7.23762845993042 73.37895965576172 10.44645500183105 77.46625518798828 14.53373527526855 C 81.55353546142578 18.62101554870605 84.76235961914062 23.38017463684082 87.00358581542969 28.67901420593262 C 89.32363891601562 34.16421508789062 90.5 39.99181365966797 90.5 45.99993515014648 C 90.5 52.008056640625 89.32363891601562 57.83565521240234 87.00358581542969 63.32085418701172 C 84.76235961914062 68.61969757080078 81.55353546142578 73.37885284423828 77.46625518798828 77.46613311767578 C 73.37895965576172 81.55341339111328 68.61979675292969 84.76224517822266 63.32094573974609 87.00345611572266 C 57.83573150634766 89.32350921630859 52.00812149047852 90.49987030029297 46 90.49987030029297 Z" stroke="none"/>
                          <path d="M 46 2.999992370605469 C 40.1937141418457 2.999992370605469 34.56269836425781 4.136489868164062 29.26337051391602 6.377906799316406 C 24.14332580566406 8.543502807617188 19.54441070556641 11.64437866210938 15.59439849853516 15.59437561035156 C 11.64440155029297 19.54439544677734 8.54351806640625 24.14329528808594 6.377914428710938 29.26333618164062 C 4.136497497558594 34.56264877319336 3 40.19366455078125 3 45.99993515014648 C 3 51.80620574951172 4.136497497558594 57.43720626831055 6.377914428710938 62.73651885986328 C 8.54351806640625 67.8565673828125 11.64440155029297 72.45545959472656 15.59439849853516 76.40547943115234 C 19.54441070556641 80.35547637939453 24.14332580566406 83.45635223388672 29.26337051391602 85.6219482421875 C 34.56269836425781 87.86336517333984 40.1937141418457 88.99986267089844 46 88.99986267089844 C 51.8062858581543 88.99986267089844 57.43730163574219 87.86336517333984 62.73661422729492 85.6219482421875 C 67.85667419433594 83.45635223388672 72.45557403564453 80.35547637939453 76.40558624267578 76.40547943115234 C 80.35559844970703 72.45545959472656 83.45647430419922 67.8565673828125 85.6220703125 62.73651885986328 C 87.86350250244141 57.43720626831055 89 51.80620574951172 89 45.99993515014648 C 89 40.19366455078125 87.86350250244141 34.56264877319336 85.6220703125 29.26333618164062 C 83.45647430419922 24.14329528808594 80.35559844970703 19.54439544677734 76.40558624267578 15.59437561035156 C 72.45557403564453 11.64437866210938 67.85667419433594 8.543502807617188 62.73661422729492 6.377906799316406 C 57.43730163574219 4.136489868164062 51.8062858581543 2.999992370605469 46 2.999992370605469 M 46 -7.62939453125e-06 C 71.40509033203125 -7.62939453125e-06 92 20.59486389160156 92 45.99993515014648 C 92 71.40499114990234 71.40509033203125 91.99986267089844 46 91.99986267089844 C 20.59490203857422 91.99986267089844 0 71.40499114990234 0 45.99993515014648 C 0 20.59486389160156 20.59490203857422 -7.62939453125e-06 46 -7.62939453125e-06 Z" stroke="none" fill="#ff7f8f"/>
                        </g>
                      </g>
                    </g>
                  </g>
                </g>
              </g>
            </g>
          </g>
        </g>
      </g>
    </g>
    <g id="hombre" transform="translate(1231.513 3590.002)">
      <path id="Trazado_994982" data-name="Trazado 994982" d="M147.014,319.478v5.958a1.367,1.367,0,0,1-1.368,1.367h-38.29a1.367,1.367,0,0,1-1.367-1.367v-5.958a12.349,12.349,0,0,1,12.349-12.349h1.457a2.6,2.6,0,0,0,2.6-2.6v-5.867H130.6v5.867a2.6,2.6,0,0,0,2.6,2.6h1.457A12.349,12.349,0,0,1,147.014,319.478Z" transform="translate(-6.476 -257.818)" fill="#d78878"/>
      <path id="Trazado_994983" data-name="Trazado 994983" d="M264.153,307.13H262.7a2.6,2.6,0,0,1-2.6-2.6v-5.867h-4.1v5.867a2.6,2.6,0,0,0,2.6,2.6h1.457A12.349,12.349,0,0,1,272.4,319.478v5.958a1.367,1.367,0,0,1-1.368,1.367h4.1a1.367,1.367,0,0,0,1.367-1.367v-5.958A12.349,12.349,0,0,0,264.153,307.13Z" transform="translate(-135.964 -257.818)" fill="#ca6e59"/>
      <g id="Grupo_1159311" data-name="Grupo 1159311" transform="translate(101.006 21.777)">
        <path id="Trazado_994984" data-name="Trazado 994984" d="M124.56,164.676c0,2.992-1.83,5.417-4.087,5.417s-3.568-2.785-3.568-5.777,1.311-5.057,3.568-5.057S124.56,161.685,124.56,164.676Z" transform="translate(-116.905 -159.259)" fill="#ca6e59"/>
        <path id="Trazado_994985" data-name="Trazado 994985" d="M339.1,164.676c0,2.992,1.83,5.417,4.087,5.417s3.568-2.785,3.568-5.777-1.311-5.057-3.568-5.057S339.1,161.685,339.1,164.676Z" transform="translate(-308.711 -159.259)" fill="#ca6e59"/>
      </g>
      <path id="Trazado_994986" data-name="Trazado 994986" d="M159.535,81.526V72.551a13.19,13.19,0,1,1,26.38,0v8.926a13.19,13.19,0,1,1-26.38.05Z" transform="translate(-52.7 -51.245)" fill="#d78878"/>
      <path id="Trazado_994987" data-name="Trazado 994987" d="M242.9,59.36a13.293,13.293,0,0,0-2.051.159A13.193,13.193,0,0,1,251.985,72.55v8.926a13.218,13.218,0,0,1-11.162,13.056,13.22,13.22,0,0,0,15.264-13.056V72.55A13.19,13.19,0,0,0,242.9,59.36Z" transform="translate(-122.872 -51.244)" fill="#ca6e59"/>
      <path id="Trazado_994988" data-name="Trazado 994988" d="M171.185,238.9l-3.977,2.679a13.034,13.034,0,0,1-1.99-3.607l3.673-2.474a.475.475,0,0,1,.659.128l1.762,2.615A.475.475,0,0,1,171.185,238.9Z" transform="translate(-57.607 -203.223)" fill="#fef1da"/>
      <path id="Trazado_994989" data-name="Trazado 994989" d="M307.76,237.963a13.174,13.174,0,0,1-1.992,3.6l-3.962-2.669a.475.475,0,0,1-.128-.659l1.762-2.615a.475.475,0,0,1,.659-.128Z" transform="translate(-175.334 -203.223)" fill="#fef1da"/>
      <path id="Trazado_994990" data-name="Trazado 994990" d="M316.054,239.2l-3.491-2.353a13.122,13.122,0,0,1-1.359,4.032l2.857,1.925A13.176,13.176,0,0,0,316.054,239.2Z" transform="translate(-183.628 -204.458)" fill="#fae2c0"/>
      <path id="Trazado_994991" data-name="Trazado 994991" d="M163.724,25.52c-18.393,0-14.287,20.592-14.094,20.967a19.357,19.357,0,0,1,.9,2.98s2.81-2.049,2.72-2.831c-.145-1.25-.942-8.926,2.537-8.2s4.91,1.25,7.818,1.25,4.34-.526,7.818-1.25,2.682,6.953,2.537,8.2c-.091.782,2.952,2.838,2.952,2.838a13.348,13.348,0,0,1,.671-2.987C177.741,46.185,182.117,25.52,163.724,25.52Z" transform="translate(-43.699 -22.032)" fill="#7a6d79"/>
      <path id="Trazado_994992" data-name="Trazado 994992" d="M243.024,25.52q-1.078,0-2.054.092c10.914,1.015,12.506,10.213,12.368,16.057a23.438,23.438,0,0,1-.076,4.967c-.091.782,2.952,2.838,2.952,2.838a13.351,13.351,0,0,1,.671-2.987c.155-.3,4.531-20.967-13.862-20.967Z" transform="translate(-122.999 -22.032)" fill="#685e68"/>
      <path id="Trazado_994993" data-name="Trazado 994993" d="M236.507,7.631a.519.519,0,0,0-.734,0c-1.336,1.336-5.569,6.226.094,9.685a.525.525,0,0,0,.546,0C242.078,13.857,237.843,8.967,236.507,7.631Z" transform="translate(-116.115 -6.457)" fill="#f3f0f3"/>
      <path id="Trazado_994994" data-name="Trazado 994994" d="M168.937,69.077h-27.9a2.051,2.051,0,0,1,0-4.1h27.9a2.051,2.051,0,0,1,0,4.1Z" transform="translate(-34.963 -56.091)" fill="#fe646f"/>
      <path id="Trazado_994995" data-name="Trazado 994995" d="M332.092,64.975h-4.1a2.051,2.051,0,1,1,0,4.1h4.1a2.051,2.051,0,0,0,0-4.1Z" transform="translate(-198.118 -56.091)" fill="#fd4755"/>
      <g id="Grupo_1159312" data-name="Grupo 1159312" transform="translate(109.643 4.508)">
        <path id="Trazado_994996" data-name="Trazado 994996" d="M184.169,41.453h-4.1V35.026a2.051,2.051,0,0,1,4.1,0Z" transform="translate(-180.066 -32.975)" fill="#f3f0f3"/>
        <path id="Trazado_994997" data-name="Trazado 994997" d="M306.015,41.453h-4.1V35.026a2.051,2.051,0,0,1,4.1,0Z" transform="translate(-285.25 -32.975)" fill="#f3f0f3"/>
      </g>
      <ellipse id="Elipse_11690" data-name="Elipse 11690" cx="3.119" cy="4.18" rx="3.119" ry="4.18" transform="translate(116.906 55.986)" fill="#fe646f"/>
      <path id="Trazado_994998" data-name="Trazado 994998" d="M241.954,409.414a2.4,2.4,0,0,0-.9.176,4.977,4.977,0,0,1,.9,2.931,4.209,4.209,0,0,1-2.223,4,2.791,2.791,0,0,0,2.223,1.249c1.723,0,3.119-1.871,3.119-4.18S243.677,409.414,241.954,409.414Z" transform="translate(-121.929 -353.428)" fill="#fd4755"/>
      <g id="Grupo_1159313" data-name="Grupo 1159313" transform="translate(111.17 52.241)">
        <path id="Trazado_994999" data-name="Trazado 994999" d="M193.286,382.113c-.826.362-2.306,1.424-2.018,4.35a.5.5,0,0,0,.814.346,11.828,11.828,0,0,1,2.855-1.975,1.016,1.016,0,0,0,.4-1.522,4.714,4.714,0,0,0-1.067-1.09A.993.993,0,0,0,193.286,382.113Z" transform="translate(-191.231 -382.031)" fill="#fef1da"/>
        <path id="Trazado_995000" data-name="Trazado 995000" d="M291.565,382.113c.826.362,2.306,1.424,2.018,4.35a.5.5,0,0,1-.814.346,11.828,11.828,0,0,0-2.855-1.975,1.016,1.016,0,0,1-.4-1.522,4.714,4.714,0,0,1,1.067-1.09A.993.993,0,0,1,291.565,382.113Z" transform="translate(-275.908 -382.031)" fill="#fef1da"/>
      </g>
      <g id="Grupo_1159314" data-name="Grupo 1159314" transform="translate(98.487 -0.002)">
        <path id="Trazado_995001" data-name="Trazado 995001" d="M140.1,55.566a1.026,1.026,0,0,0-1.825.936,11.2,11.2,0,0,1,1.24,5.158v5.958a.342.342,0,0,1-.342.342h-5.076a11.423,11.423,0,0,0,1.4-4.244,1.026,1.026,0,0,0-2.041-.2,8.086,8.086,0,0,1-1.934,4.445H108.534a8.264,8.264,0,0,1-1.935-4.446,1.026,1.026,0,0,0-2.041.2,11.423,11.423,0,0,0,1.4,4.244H100.88a.342.342,0,0,1-.342-.342V61.66a11.337,11.337,0,0,1,10.7-11.3c.12.545.269,1.137.452,1.752a5.173,5.173,0,0,0-1.5,4.667,1.536,1.536,0,0,0,.976,1.289,1.511,1.511,0,0,0,.547.1,1.488,1.488,0,0,0,1-.384,14.725,14.725,0,0,1,1.149-.936,9.021,9.021,0,0,0,2.122,2.205c-.611,2.962,1.391,6.407,4.048,6.319,2.656.088,4.66-3.357,4.048-6.319a9.022,9.022,0,0,0,2.122-2.206,14.708,14.708,0,0,1,1.149.936,1.488,1.488,0,0,0,1,.384,1.51,1.51,0,0,0,.547-.1,1.536,1.536,0,0,0,.976-1.289,5.172,5.172,0,0,0-1.5-4.667c.182-.614.331-1.206.452-1.75a11.323,11.323,0,0,1,6.719,2.685,1.026,1.026,0,0,0,1.331-1.561,13.373,13.373,0,0,0-7.681-3.154c.08-.563.109-.915.113-.953a1.026,1.026,0,0,0-2.044-.167c0,.01-.036.421-.137,1.08h-.38a1.581,1.581,0,0,1-1.579-1.579v-3.2A14.3,14.3,0,0,0,133.9,33.329c7.253,2.691,8.525-12.914,1.519-12.576a26.129,26.129,0,0,0-.46-6.9,3.046,3.046,0,0,0,1.188-.737,3.085,3.085,0,0,0-2.174-5.253h-1.6a12.546,12.546,0,0,0-.943-1.137V6.559a3.093,3.093,0,0,0-4.317-2.815,16.339,16.339,0,0,0-4.234-1.1A13.266,13.266,0,0,0,121.117.448a1.551,1.551,0,0,0-2.185,0,13.25,13.25,0,0,0-1.762,2.191,16.526,16.526,0,0,0-4.248,1.1,3.094,3.094,0,0,0-4.305,2.82v.1a12.727,12.727,0,0,0-1.018,1.2h-1.523a3.054,3.054,0,0,0-2.174.9,3.09,3.09,0,0,0,1.059,5.045,25.922,25.922,0,0,0-.536,6.953c-6.792-.034-5.44,15.231,1.711,12.579a14.247,14.247,0,0,0,8.759,10.2v3.176a1.581,1.581,0,0,1-1.579,1.579h-.38c-.1-.658-.136-1.07-.137-1.08a1.026,1.026,0,0,0-2.045.167c0,.037.033.388.112.95A13.392,13.392,0,0,0,98.487,61.66v5.958a2.4,2.4,0,0,0,2.393,2.393h38.29a2.4,2.4,0,0,0,2.393-2.393V61.66a13.41,13.41,0,0,0-1.466-6.094Zm-26.461-2.3h0Zm-1.423,2.253a2.467,2.467,0,0,1,1.4-2.244,3.644,3.644,0,0,1,.82.846,10.893,10.893,0,0,0-2.223,1.4Zm7.812,7.8c-1.135,0-2.094-1.444-2.094-3.154.154-4.182,4.034-4.181,4.187,0C122.119,61.875,121.16,63.319,120.025,63.319Zm5.588-9.2a3.674,3.674,0,0,1,.821-.846,2.468,2.468,0,0,1,1.4,2.244A10.892,10.892,0,0,0,125.613,54.117Zm.8-.854h0Zm3.761-16.329-2.674-1.8,1.147-1.7,2.514,1.694a12.176,12.176,0,0,1-.987,1.809Zm5.3-14.132c4.224.02,2.805,11.03-1.268,8.378.021-.313.032-.629.032-.948V27.511a11.625,11.625,0,0,1,.559-2.588,10.543,10.543,0,0,0,.424-2.1A2.069,2.069,0,0,1,135.477,22.8ZM135,10.935a1.029,1.029,0,0,1-1.026,1.026h-2.54V9.91h2.54A1.027,1.027,0,0,1,135,10.935ZM114.771,9.91H125.28v2.051H114.771Zm14.611-3.351V8.876a.106.106,0,0,0,0,.016v3.069h-2.051v-5.4a1.026,1.026,0,0,1,2.051,0Zm-3.848-1.224a3.058,3.058,0,0,0-.254,1.224v1.3h-1.241a5.5,5.5,0,0,0-.1-2.961A13.985,13.985,0,0,1,125.534,5.335Zm-5.509-3.061c1,1.1,2.789,3.473,1.84,5.584h-3.679c-.951-2.108.84-4.488,1.839-5.584Zm-4.012,5.584h-1.242v-1.3a3.059,3.059,0,0,0-.257-1.23,14.214,14.214,0,0,1,1.6-.435A5.513,5.513,0,0,0,116.013,7.859Zm-4.319-2.325a1.027,1.027,0,0,1,1.026,1.026v5.4h-2.051V8.892a.1.1,0,0,0,0-.016V6.559A1.027,1.027,0,0,1,111.694,5.533Zm-6.342,4.676a1.017,1.017,0,0,1,.724-.3h2.54v2.051h-2.54A1.03,1.03,0,0,1,105.352,10.21Zm-.779,21.376c-3-.013-3.805-8.8.031-8.782a10.4,10.4,0,0,0,.413,2.119,16.762,16.762,0,0,1,.792,2.632v2.727c0,.3.01.6.029.9A2.272,2.272,0,0,1,104.574,31.586Zm4.3,3.55,2.532-1.7,1.147,1.7-2.7,1.816A12,12,0,0,1,108.871,35.136Zm2.258,3.426,3.023-2.036a1.5,1.5,0,0,0,.406-2.083L112.8,31.828a1.5,1.5,0,0,0-2.082-.406l-2.518,1.7a12.224,12.224,0,0,1-.334-2.836V27.949c2.859-2.175,2.754-3.1,2.712-3.463-.391-3.371-.11-6.232.683-6.956a.625.625,0,0,1,.626-.123c.595.124,1.113.238,1.5.325a1.026,1.026,0,1,0,.448-2c-.392-.088-.92-.2-1.528-.331a2.655,2.655,0,0,0-2.428.618c-1.8,1.649-1.639,5.975-1.357,8.53a6.787,6.787,0,0,1-1.081,1.1,11.286,11.286,0,0,0-.548-1.57,17.264,17.264,0,0,1-.327-2.233v-.009a24.645,24.645,0,0,1,.462-7.823h25.871a24.8,24.8,0,0,1,.386,7.818,1.033,1.033,0,0,0-.016.153,16.878,16.878,0,0,1-.334,2.1,7.7,7.7,0,0,0-.455,1.538,7.361,7.361,0,0,1-1.169-1.1c.28-2.558.439-6.863-1.359-8.507a2.655,2.655,0,0,0-2.428-.618c-.827.172-1.545.334-2.179.478a20.683,20.683,0,0,1-6.875.7,1.026,1.026,0,0,0-.155,2.045,22.73,22.73,0,0,0,7.483-.743c.626-.141,1.334-.3,2.144-.47a.623.623,0,0,1,.626.123c.793.725,1.074,3.586.683,6.956-.046.4-.15,1.316,2.945,3.494v2.252a12.178,12.178,0,0,1-.344,2.879l-2.507-1.689a1.5,1.5,0,0,0-2.083.406l-1.763,2.615a1.5,1.5,0,0,0,.406,2.083l3,2.024a12.225,12.225,0,0,1-17.485.315c-.1-.1-.194-.2-.289-.3Zm5.82,8.144V44.144a14.367,14.367,0,0,0,6.154-.013v2.576a3.635,3.635,0,0,0,3.61,3.63c-.068.285-.144.58-.229.881a2.041,2.041,0,0,0-1.239.383,5.712,5.712,0,0,0-1.3,1.327,2.05,2.05,0,0,0-.311,1.742,2.012,2.012,0,0,0,.8,1.124,7.388,7.388,0,0,1-1.1,1.232,3.685,3.685,0,0,0-6.607,0,7.389,7.389,0,0,1-1.1-1.232,2.054,2.054,0,0,0,.485-2.866,5.709,5.709,0,0,0-1.3-1.327,2.042,2.042,0,0,0-1.239-.383c-.085-.3-.161-.6-.229-.881A3.635,3.635,0,0,0,116.948,46.706Z" transform="translate(-98.487 0.002)"/>
        <path id="Trazado_995002" data-name="Trazado 995002" d="M243.254,233.679a3.72,3.72,0,0,0,2.159,0,1.026,1.026,0,0,0-.518-1.985,1.731,1.731,0,0,1-1.123,0,1.026,1.026,0,1,0-.518,1.985Z" transform="translate(-222.795 -199.981)"/>
        <path id="Trazado_995003" data-name="Trazado 995003" d="M202.677,153.065a1.026,1.026,0,0,0,.518-1.985,6.9,6.9,0,0,0-4.048,0,1.026,1.026,0,1,0,.518,1.985A4.848,4.848,0,0,1,202.677,153.065Z" transform="translate(-184.72 -130.157)"/>
        <path id="Trazado_995004" data-name="Trazado 995004" d="M273.806,153.1a1.031,1.031,0,0,0,.26-.034,4.848,4.848,0,0,1,3.012,0,1.026,1.026,0,0,0,.518-1.985,6.9,6.9,0,0,0-4.048,0,1.026,1.026,0,0,0,.258,2.018Z" transform="translate(-248.946 -130.157)"/>
        <path id="Trazado_995005" data-name="Trazado 995005" d="M236.316,258.5a1.026,1.026,0,0,0-1-1.792,4.3,4.3,0,0,1-4.158,0,1.026,1.026,0,0,0-1,1.792A6.371,6.371,0,0,0,236.316,258.5Z" transform="translate(-211.701 -221.486)"/>
        <path id="Trazado_995006" data-name="Trazado 995006" d="M207.515,187.683a1.026,1.026,0,0,0-1.026,1.026v.821a1.026,1.026,0,0,0,2.051,0v-.821A1.026,1.026,0,0,0,207.515,187.683Z" transform="translate(-191.72 -162.017)"/>
        <path id="Trazado_995007" data-name="Trazado 995007" d="M291.515,187.683a1.026,1.026,0,0,0-1.026,1.026v.821a1.026,1.026,0,0,0,2.051,0v-.821A1.026,1.026,0,0,0,291.515,187.683Z" transform="translate(-264.233 -162.017)"/>
      </g>
    </g>
  </g>
</svg>
