<svg xmlns="http://www.w3.org/2000/svg" xmlns:xlink="http://www.w3.org/1999/xlink" width="110" height="110" viewBox="0 0 110 110">
  <defs>
    <filter id="Trazado_982547" x="0" y="0" width="110" height="110" filterUnits="userSpaceOnUse">
      <feOffset dy="3" input="SourceAlpha"/>
      <feGaussianBlur stdDeviation="3" result="blur"/>
      <feFlood flood-opacity="0.161"/>
      <feComposite operator="in" in2="blur"/>
      <feComposite in="SourceGraphic"/>
    </filter>
  </defs>
  <g id="Grupo_1159319" data-name="Grupo 1159319" transform="translate(-1612 -3574)">
    <g id="Grupo_1158896" data-name="Grupo 1158896" transform="translate(496 -232)">
      <g id="Grupo_1157406" data-name="Grupo 1157406" transform="translate(1 3016)">
        <g id="Grupo_1155793" data-name="Grupo 1155793" transform="translate(-0.999 -3894)">
          <g id="Grupo_1154704" data-name="Grupo 1154704" transform="translate(0 1466)">
            <g id="Grupo_1150790" data-name="Grupo 1150790" transform="translate(3 2320)">
              <g id="Grupo_1154214" data-name="Grupo 1154214" transform="translate(79 -5809)">
                <g id="Grupo_1152583" data-name="Grupo 1152583" transform="translate(1043 6713)">
                  <g id="Grupo_1146973" data-name="Grupo 1146973" transform="translate(0 0)">
                    <g id="Grupo_1146954" data-name="Grupo 1146954">
                      <g transform="matrix(1, 0, 0, 1, -9, -6)" filter="url(#Trazado_982547)">
                        <g id="Trazado_982547-2" data-name="Trazado 982547" transform="translate(9 6)" fill="#fef4f5">
                          <path d="M 46 90.49987030029297 C 39.99187850952148 90.49987030029297 34.16426849365234 89.32350921630859 28.67905426025391 87.00345611572266 C 23.38019943237305 84.76224517822266 18.62104034423828 81.55341339111328 14.53374671936035 77.46613311767578 C 10.44646644592285 73.37885284423828 7.237639904022217 68.61969757080078 4.996413230895996 63.32085418701172 C 2.676359891891479 57.83565521240234 1.5 52.008056640625 1.5 45.99993515014648 C 1.5 39.99181365966797 2.676359891891479 34.16421508789062 4.996413230895996 28.67901420593262 C 7.237639904022217 23.38017463684082 10.44646644592285 18.62101554870605 14.53374671936035 14.53373527526855 C 18.62104034423828 10.44645500183105 23.38019943237305 7.23762845993042 28.67905426025391 4.996415138244629 C 34.16426849365234 2.676361799240112 39.99187850952148 1.500001788139343 46 1.500001788139343 C 52.00812149047852 1.500001788139343 57.83573150634766 2.676361799240112 63.32094573974609 4.996415138244629 C 68.61979675292969 7.23762845993042 73.37895965576172 10.44645500183105 77.46625518798828 14.53373527526855 C 81.55353546142578 18.62101554870605 84.76235961914062 23.38017463684082 87.00358581542969 28.67901420593262 C 89.32363891601562 34.16421508789062 90.5 39.99181365966797 90.5 45.99993515014648 C 90.5 52.008056640625 89.32363891601562 57.83565521240234 87.00358581542969 63.32085418701172 C 84.76235961914062 68.61969757080078 81.55353546142578 73.37885284423828 77.46625518798828 77.46613311767578 C 73.37895965576172 81.55341339111328 68.61979675292969 84.76224517822266 63.32094573974609 87.00345611572266 C 57.83573150634766 89.32350921630859 52.00812149047852 90.49987030029297 46 90.49987030029297 Z" stroke="none"/>
                          <path d="M 46 2.999992370605469 C 40.1937141418457 2.999992370605469 34.56269836425781 4.136489868164062 29.26337051391602 6.377906799316406 C 24.14332580566406 8.543502807617188 19.54441070556641 11.64437866210938 15.59439849853516 15.59437561035156 C 11.64440155029297 19.54439544677734 8.54351806640625 24.14329528808594 6.377914428710938 29.26333618164062 C 4.136497497558594 34.56264877319336 3 40.19366455078125 3 45.99993515014648 C 3 51.80620574951172 4.136497497558594 57.43720626831055 6.377914428710938 62.73651885986328 C 8.54351806640625 67.8565673828125 11.64440155029297 72.45545959472656 15.59439849853516 76.40547943115234 C 19.54441070556641 80.35547637939453 24.14332580566406 83.45635223388672 29.26337051391602 85.6219482421875 C 34.56269836425781 87.86336517333984 40.1937141418457 88.99986267089844 46 88.99986267089844 C 51.8062858581543 88.99986267089844 57.43730163574219 87.86336517333984 62.73661422729492 85.6219482421875 C 67.85667419433594 83.45635223388672 72.45557403564453 80.35547637939453 76.40558624267578 76.40547943115234 C 80.35559844970703 72.45545959472656 83.45647430419922 67.8565673828125 85.6220703125 62.73651885986328 C 87.86350250244141 57.43720626831055 89 51.80620574951172 89 45.99993515014648 C 89 40.19366455078125 87.86350250244141 34.56264877319336 85.6220703125 29.26333618164062 C 83.45647430419922 24.14329528808594 80.35559844970703 19.54439544677734 76.40558624267578 15.59437561035156 C 72.45557403564453 11.64437866210938 67.85667419433594 8.543502807617188 62.73661422729492 6.377906799316406 C 57.43730163574219 4.136489868164062 51.8062858581543 2.999992370605469 46 2.999992370605469 M 46 -7.62939453125e-06 C 71.40509033203125 -7.62939453125e-06 92 20.59486389160156 92 45.99993515014648 C 92 71.40499114990234 71.40509033203125 91.99986267089844 46 91.99986267089844 C 20.59490203857422 91.99986267089844 0 71.40499114990234 0 45.99993515014648 C 0 20.59486389160156 20.59490203857422 -7.62939453125e-06 46 -7.62939453125e-06 Z" stroke="none" fill="#ff7f8f"/>
                        </g>
                      </g>
                    </g>
                  </g>
                </g>
              </g>
            </g>
          </g>
        </g>
      </g>
    </g>
    <g id="masai" transform="translate(1586.365 3594)">
      <g id="Grupo_1159317" data-name="Grupo 1159317" transform="translate(56.566 0.931)">
        <path id="Trazado_995008" data-name="Trazado 995008" d="M98.074,296.093H94.952a3.724,3.724,0,0,1-3.724-3.724v-4.906H82.936v4.906a3.724,3.724,0,0,1-3.724,3.724H76.09a12.954,12.954,0,0,0-12.954,12.954v4.473a.891.891,0,0,0,.891.891h46.111a.891.891,0,0,0,.891-.891v-4.473a12.954,12.954,0,0,0-12.954-12.954Z" transform="translate(-63.136 -252.703)" fill="#f6a96c"/>
        <path id="Trazado_995009" data-name="Trazado 995009" d="M269.961,325.581h-3.122a3.724,3.724,0,0,1-3.724-3.724v-.725H259.39v4.45a3.724,3.724,0,0,0,3.724,3.724h3.122A12.954,12.954,0,0,1,279.19,342.26V343.9h2.834a.891.891,0,0,0,.891-.891v-4.473A12.954,12.954,0,0,0,269.961,325.581Z" transform="translate(-235.023 -282.191)" fill="#ea9b58"/>
        <g id="Grupo_1159316" data-name="Grupo 1159316" transform="translate(6.212 0)">
          <path id="Trazado_995010" data-name="Trazado 995010" d="M117.57,137.905a4.4,4.4,0,0,1-4.4-4.4v-2.553a2.734,2.734,0,0,1,2.734-2.734h1.665Z" transform="translate(-113.171 -113.231)" fill="#ffbd86"/>
          <path id="Trazado_995011" data-name="Trazado 995011" d="M363.4,137.905a4.4,4.4,0,0,0,4.4-4.4v-2.553a2.734,2.734,0,0,0-2.734-2.734H363.4Z" transform="translate(-332.332 -113.231)" fill="#ffbd86"/>
          <path id="Trazado_995012" data-name="Trazado 995012" d="M161.934,7.5A13.334,13.334,0,0,0,148.6,20.834v8.289a18.868,18.868,0,0,0,7.427,15,9.742,9.742,0,0,0,11.814,0,18.868,18.868,0,0,0,7.427-15V20.834A13.335,13.335,0,0,0,161.934,7.5Z" transform="translate(-144.201 -7.5)" fill="#ffbd86"/>
        </g>
        <path id="Trazado_995013" data-name="Trazado 995013" d="M242.859,7.5A13.43,13.43,0,0,0,241,7.63a13.337,13.337,0,0,1,11.472,13.2v8.289a18.868,18.868,0,0,1-7.427,15A9.74,9.74,0,0,1,241,45.942a9.721,9.721,0,0,0,7.769-1.814,18.868,18.868,0,0,0,7.427-15V20.835A13.334,13.334,0,0,0,242.859,7.5Z" transform="translate(-218.914 -7.5)" fill="#f6a96c"/>
        <path id="Trazado_995014" data-name="Trazado 995014" d="M106.329,345.414l18.042,19.22H99.335v-14.75a5.078,5.078,0,0,1,5.078-5.078h.439A2.1,2.1,0,0,1,106.329,345.414Z" transform="translate(-94.841 -302.926)" fill="#fd4755"/>
        <path id="Trazado_995015" data-name="Trazado 995015" d="M229.057,345.414l-18.042,19.22h25.037v-14.75a5.078,5.078,0,0,0-5.078-5.078h-.439A2.1,2.1,0,0,0,229.057,345.414Z" transform="translate(-192.654 -302.926)" fill="#fe646f"/>
        <path id="Trazado_995016" data-name="Trazado 995016" d="M359.792,344.806h-.439a2.1,2.1,0,0,0-1.259.422,5.078,5.078,0,0,1,3.051,4.656v14.75h3.725v-14.75A5.078,5.078,0,0,0,359.792,344.806Z" transform="translate(-321.472 -302.926)" fill="#fd4755"/>
        <circle id="Elipse_11691" data-name="Elipse 11691" cx="2.912" cy="2.912" r="2.912" transform="translate(5.952 32.376)" fill="#ffd15b"/>
        <circle id="Elipse_11692" data-name="Elipse 11692" cx="2.912" cy="2.912" r="2.912" transform="translate(36.116 32.376)" fill="#ffd15b"/>
        <path id="Trazado_995017" data-name="Trazado 995017" d="M161.934,7.5A13.334,13.334,0,0,0,148.6,20.834v1.654a12.8,12.8,0,0,0,6.421-4.566,2.331,2.331,0,0,1,3.386-.379,5.457,5.457,0,0,0,7.1,0,2.331,2.331,0,0,1,3.386.379,12.8,12.8,0,0,0,6.375,4.551V20.834A13.334,13.334,0,0,0,161.934,7.5Z" transform="translate(-137.989 -7.5)" fill="#678d98"/>
        <path id="Trazado_995018" data-name="Trazado 995018" d="M242.859,7.5A13.43,13.43,0,0,0,241,7.63a13.336,13.336,0,0,1,11.469,12.93,12.809,12.809,0,0,0,3.728,1.913V20.835A13.334,13.334,0,0,0,242.859,7.5Z" transform="translate(-218.914 -7.5)" fill="#537983"/>
      </g>
      <g id="Grupo_1159318" data-name="Grupo 1159318" transform="translate(55.635)">
        <path id="Trazado_995019" data-name="Trazado 995019" d="M120.955,384.622a6.284,6.284,0,1,0-.914-.756A.931.931,0,0,0,120.955,384.622Z" transform="translate(-111.382 -333.942)"/>
        <path id="Trazado_995020" data-name="Trazado 995020" d="M157.321,420.432a.931.931,0,1,0,.756.914A.931.931,0,0,0,157.321,420.432Z" transform="translate(-142.432 -367.569)"/>
        <path id="Trazado_995021" data-name="Trazado 995021" d="M125.454,457.674a.931.931,0,1,0,.756.914A.931.931,0,0,0,125.454,457.674Z" transform="translate(-114.522 -400.187)"/>
        <path id="Trazado_995022" data-name="Trazado 995022" d="M198.069,458.588a6.286,6.286,0,1,0-.756.914A.931.931,0,0,0,198.069,458.588Z" transform="translate(-177.459 -400.187)"/>
        <path id="Trazado_995023" data-name="Trazado 995023" d="M368.4,382.038a.931.931,0,1,0,.756.914A.931.931,0,0,0,368.4,382.038Z" transform="translate(-327.301 -333.942)"/>
        <path id="Trazado_995024" data-name="Trazado 995024" d="M332.945,420.432a.931.931,0,1,0,.756.914A.931.931,0,0,0,332.945,420.432Z" transform="translate(-296.251 -367.569)"/>
        <path id="Trazado_995025" data-name="Trazado 995025" d="M364.812,457.674a.931.931,0,1,0,.756.914A.931.931,0,0,0,364.812,457.674Z" transform="translate(-324.161 -400.187)"/>
        <path id="Trazado_995026" data-name="Trazado 995026" d="M292.953,457.674a.931.931,0,1,0,.756.914A.931.931,0,0,0,292.953,457.674Z" transform="translate(-261.224 -400.187)"/>
        <path id="Trazado_995027" data-name="Trazado 995027" d="M100.913,47.064a.934.934,0,0,0-.085-.069,6.018,6.018,0,0,0-5.942-5.115h-.439a3.014,3.014,0,0,0-2.133.877l-.614.654c-.063-.014-3.317-.021-3.317-.021A2.8,2.8,0,0,1,85.589,40.6V39.2a10.566,10.566,0,0,0,1.394-.9,19.769,19.769,0,0,0,7.392-11.789c.1-.01.192-.021.287-.036v6.016a3.843,3.843,0,1,0,1.862,0V25.812a5.332,5.332,0,0,0,2.652-4.605V18.654a3.669,3.669,0,0,0-3.665-3.665h-.735v-.723a14.266,14.266,0,0,0-25.414-8.9.931.931,0,0,0,1.455,1.163,12.351,12.351,0,0,1,9.694-4.665,12.666,12.666,0,0,1,12.4,12.691,11.814,11.814,0,0,1-4.7-3.756,3.263,3.263,0,0,0-4.739-.53,4.5,4.5,0,0,1-5.888,0,3.262,3.262,0,0,0-4.739.53,11.819,11.819,0,0,1-4.743,3.778,13.756,13.756,0,0,1,1.106-5.439.931.931,0,0,0-1.7-.771,14.155,14.155,0,0,0-1.273,5.9v.723h-.734a3.669,3.669,0,0,0-3.665,3.665v2.553A5.332,5.332,0,0,0,64.5,25.812v6.678a3.843,3.843,0,1,0,1.862,0V26.475c.095.015.19.026.287.036A19.769,19.769,0,0,0,74.04,38.3a10.573,10.573,0,0,0,1.4.9v1.4a2.8,2.8,0,0,1-2.793,2.793s-3.263,0-3.334,0l-.574-.611-.024-.025a3.014,3.014,0,0,0-2.133-.877h-.439A6.018,6.018,0,0,0,60.2,47a.932.932,0,0,0-.1.082,13.93,13.93,0,0,0-4.456,10.193v4.473a1.824,1.824,0,0,0,1.822,1.822h46.111a1.824,1.824,0,0,0,1.822-1.822V57.276a13.926,13.926,0,0,0-4.477-10.212ZM97.575,36.219a1.981,1.981,0,1,1-1.981-1.981A1.983,1.983,0,0,1,97.575,36.219Zm-30.164,0a1.981,1.981,0,1,1-1.981-1.981A1.983,1.983,0,0,1,67.411,36.219ZM94.778,16.851h.734a1.8,1.8,0,0,1,1.8,1.8v2.553a3.474,3.474,0,0,1-2.537,3.341Zm-28.532,7.7a3.474,3.474,0,0,1-2.537-3.341V18.654a1.8,1.8,0,0,1,1.8-1.8h.734v7.7Zm1.862-1.993V16.582a13.678,13.678,0,0,0,6.237-4.673,1.4,1.4,0,0,1,2.034-.227,6.356,6.356,0,0,0,8.311,0,1.4,1.4,0,0,1,2.034.227,13.676,13.676,0,0,0,6.191,4.655v5.991a18.04,18.04,0,0,1-7.061,14.264,8.811,8.811,0,0,1-10.685,0A18.04,18.04,0,0,1,68.109,22.555ZM57.5,57.276a12.064,12.064,0,0,1,2.632-7.5V61.708H57.5Zm4.494,4.432V47.889a4.151,4.151,0,0,1,4.146-4.146h.439a1.163,1.163,0,0,1,.812.328L79.235,56.689l-4.711,5.019Zm15.086,0,7.319-7.8a.931.931,0,1,0-1.358-1.275l-2.527,2.692L71.054,45.253h1.588A4.661,4.661,0,0,0,77.3,40.6v-.613a10.559,10.559,0,0,0,6.429,0V40.6a4.661,4.661,0,0,0,4.656,4.656h1.589l-4.816,5.13a.931.931,0,0,0,1.358,1.275l7.122-7.587a1.163,1.163,0,0,1,.812-.328h.439a4.151,4.151,0,0,1,4.147,4.146V61.708Zm26.449,0H100.9V49.771a12.062,12.062,0,0,1,2.632,7.5Z" transform="translate(-55.635)"/>
        <path id="Trazado_995028" data-name="Trazado 995028" d="M227.491,242.945a.931.931,0,0,0-1.312-1.321,4.487,4.487,0,0,1-6.214,0,.931.931,0,1,0-1.312,1.321,6.348,6.348,0,0,0,8.838,0Z" transform="translate(-198.171 -211.386)"/>
        <path id="Trazado_995029" data-name="Trazado 995029" d="M209.6,163.555v-.788a.931.931,0,1,0-1.862,0v.788a.931.931,0,1,0,1.862,0Z" transform="translate(-188.856 -141.742)"/>
        <path id="Trazado_995030" data-name="Trazado 995030" d="M290.183,161.836a.931.931,0,0,0-.931.931v.788a.931.931,0,0,0,1.862,0v-.788A.931.931,0,0,0,290.183,161.836Z" transform="translate(-260.246 -141.742)"/>
        <path id="Trazado_995031" data-name="Trazado 995031" d="M234.72,194.381a.931.931,0,0,0,.931-.931.9.9,0,0,1,1.791,0,.931.931,0,0,0,1.862,0,2.758,2.758,0,0,0-5.516,0A.931.931,0,0,0,234.72,194.381Z" transform="translate(-211.669 -167.016)"/>
        <path id="Trazado_995032" data-name="Trazado 995032" d="M197.6,132.6a.931.931,0,1,0,.475-1.8,4.07,4.07,0,0,0-3.361.613.931.931,0,0,0,1.141,1.472A2.171,2.171,0,0,1,197.6,132.6Z" transform="translate(-177.132 -114.442)"/>
        <path id="Trazado_995033" data-name="Trazado 995033" d="M283.245,132.6a2.172,2.172,0,0,1,1.745.285.931.931,0,1,0,1.141-1.472,4.07,4.07,0,0,0-3.361-.613.931.931,0,0,0,.475,1.8Z" transform="translate(-253.961 -114.442)"/>
      </g>
    </g>
  </g>
</svg>
