<svg xmlns="http://www.w3.org/2000/svg" xmlns:xlink="http://www.w3.org/1999/xlink" width="108" height="108" viewBox="0 0 108 108">
  <defs>
    <filter id="Trazado_982547" x="0" y="0" width="108" height="108" filterUnits="userSpaceOnUse">
      <feOffset dy="3" input="SourceAlpha"/>
      <feGaussianBlur stdDeviation="3" result="blur"/>
      <feFlood flood-opacity="0.161"/>
      <feComposite operator="in" in2="blur"/>
      <feComposite in="SourceGraphic"/>
    </filter>
  </defs>
  <g id="Grupo_1160043" data-name="Grupo 1160043" transform="translate(-163 -3892)">
    <g id="Grupo_1158941" data-name="Grupo 1158941" transform="translate(-8 2332)">
      <g id="Grupo_1153955" data-name="Grupo 1153955" transform="translate(-83 1047)">
        <g id="Grupo_1149598" data-name="Grupo 1149598" transform="translate(80 315)">
          <g id="Grupo_1148770" data-name="Grupo 1148770" transform="translate(-27 -2583)">
            <g id="Grupo_1146954" data-name="Grupo 1146954" transform="translate(-415 -1202)">
              <g transform="matrix(1, 0, 0, 1, 616, 3983)" filter="url(#Trazado_982547)">
                <g id="Trazado_982547-2" data-name="Trazado 982547" transform="translate(9 6)" fill="#effcf6">
                  <path d="M 45 88.5 C 39.12687683105469 88.5 33.43022537231445 87.35007476806641 28.06830024719238 85.08217620849609 C 22.88852500915527 82.89131164550781 18.23629951477051 79.75458526611328 14.2408504486084 75.75914764404297 C 10.24541282653809 71.76370239257812 7.108687400817871 67.11147308349609 4.917825222015381 61.93170166015625 C 2.649924993515015 56.56977462768555 1.5 50.87312316894531 1.5 45 C 1.5 39.12687683105469 2.649924993515015 33.43022537231445 4.917825222015381 28.06830024719238 C 7.108687400817871 22.88852500915527 10.24541282653809 18.23629951477051 14.2408504486084 14.2408504486084 C 18.23629951477051 10.24541282653809 22.88852500915527 7.108687400817871 28.06830024719238 4.917825222015381 C 33.43022537231445 2.649924993515015 39.12687683105469 1.5 45 1.5 C 50.87312316894531 1.5 56.56977462768555 2.649924993515015 61.93170166015625 4.917825222015381 C 67.11147308349609 7.108687400817871 71.76370239257812 10.24541282653809 75.75914764404297 14.2408504486084 C 79.75458526611328 18.23629951477051 82.89131164550781 22.88852500915527 85.08217620849609 28.06830024719238 C 87.35007476806641 33.43022537231445 88.5 39.12687683105469 88.5 45 C 88.5 50.87312316894531 87.35007476806641 56.56977462768555 85.08217620849609 61.93170166015625 C 82.89131164550781 67.11147308349609 79.75458526611328 71.76370239257812 75.75914764404297 75.75914764404297 C 71.76370239257812 79.75458526611328 67.11147308349609 82.89131164550781 61.93170166015625 85.08217620849609 C 56.56977462768555 87.35007476806641 50.87312316894531 88.5 45 88.5 Z" stroke="none"/>
                  <path d="M 45 3 C 39.32871246337891 3 33.82865524291992 4.110054016113281 28.65262985229492 6.299339294433594 C 23.65165710449219 8.414573669433594 19.15968322753906 11.44334411621094 15.301513671875 15.301513671875 C 11.44334411621094 19.15968322753906 8.414573669433594 23.65165710449219 6.299339294433594 28.65262985229492 C 4.110054016113281 33.82865524291992 3 39.32871246337891 3 45 C 3 50.67128753662109 4.110054016113281 56.17134475708008 6.299339294433594 61.34737396240234 C 8.414573669433594 66.34834289550781 11.44334411621094 70.84031677246094 15.301513671875 74.698486328125 C 19.15968322753906 78.55665588378906 23.65165710449219 81.58542633056641 28.65262985229492 83.70066070556641 C 33.82865524291992 85.88994598388672 39.32871246337891 87 45 87 C 50.67128753662109 87 56.17134475708008 85.88994598388672 61.34737396240234 83.70066070556641 C 66.34834289550781 81.58542633056641 70.84031677246094 78.55665588378906 74.698486328125 74.698486328125 C 78.55665588378906 70.84031677246094 81.58542633056641 66.34834289550781 83.70066070556641 61.34737396240234 C 85.88994598388672 56.17134475708008 87 50.67128753662109 87 45 C 87 39.32871246337891 85.88994598388672 33.82865524291992 83.70066070556641 28.65262985229492 C 81.58542633056641 23.65165710449219 78.55665588378906 19.15968322753906 74.698486328125 15.301513671875 C 70.84031677246094 11.44334411621094 66.34834289550781 8.414573669433594 61.34737396240234 6.299339294433594 C 56.17134475708008 4.110054016113281 50.67128753662109 3 45 3 M 45 0 C 69.85281372070312 0 90 20.14718627929688 90 45 C 90 69.85281372070312 69.85281372070312 90 45 90 C 20.14718627929688 90 0 69.85281372070312 0 45 C 0 20.14718627929688 20.14718627929688 0 45 0 Z" stroke="none" fill="#3d7e5e"/>
                </g>
              </g>
            </g>
          </g>
        </g>
      </g>
    </g>
    <g id="rompecabezas_1_" data-name="rompecabezas (1)" transform="translate(185.923 3912)">
      <path id="Trazado_997092" data-name="Trazado 997092" d="M216.666,442.422H204.257V447.4a2.469,2.469,0,0,0,2.469,2.469H214.2a2.469,2.469,0,0,0,2.469-2.469Z" transform="translate(-179.708 -389.396)" fill="#d8ecfe"/>
      <path id="Trazado_997093" data-name="Trazado 997093" d="M210.319,449.864h-3.6a2.469,2.469,0,0,1-2.469-2.469v-4.977h3.6V447.4A2.469,2.469,0,0,0,210.319,449.864Z" transform="translate(-179.706 -389.393)" fill="#b3dafe"/>
      <path id="Trazado_997094" data-name="Trazado 997094" d="M195.121,414.982H180.229a1.861,1.861,0,0,1,0-3.723h14.892a1.861,1.861,0,0,1,0,3.723Z" transform="translate(-156.922 -361.968)" fill="#eaf6ff"/>
      <path id="Trazado_997095" data-name="Trazado 997095" d="M183.822,414.981h-3.6a1.861,1.861,0,1,1,0-3.723h3.6a1.861,1.861,0,1,0,0,3.723Z" transform="translate(-156.919 -361.967)" fill="#d8ecfe"/>
      <path id="Trazado_997096" data-name="Trazado 997096" d="M122.43,234.265a3.1,3.1,0,0,1-3.1,3.1V246.4h-6.2v-1.817a3.083,3.083,0,0,0-1.753-2.789,18.617,18.617,0,0,1-10.656-16.83v-.022h6.2v.02a3.1,3.1,0,1,0,6.2,0v-.02h6.2v6.225A3.1,3.1,0,0,1,122.43,234.265Z" transform="translate(-88.575 -197.979)" fill="#aee69c"/>
      <path id="Trazado_997097" data-name="Trazado 997097" d="M115.521,244.578V246.4h-2.4v-1.817a3.083,3.083,0,0,0-1.753-2.789,18.617,18.617,0,0,1-10.656-16.83v-.022h2.4v.022a18.617,18.617,0,0,0,10.656,16.83A3.083,3.083,0,0,1,115.521,244.578Z" transform="translate(-88.575 -197.979)" fill="#89daa4"/>
      <path id="Trazado_997098" data-name="Trazado 997098" d="M274.638,202.3v.02a18.615,18.615,0,0,1-10.649,16.827,3.088,3.088,0,0,0-1.761,2.793v2.7h-6.2v-9.907a3.1,3.1,0,0,0,0-6.2V202.3h6.2a3.1,3.1,0,0,1,6.2,0Z" transform="translate(-225.271 -175.341)" fill="#8ac9fe"/>
      <path id="Trazado_997099" data-name="Trazado 997099" d="M251.86,88.392h-6.2a3.1,3.1,0,0,0-6.2,0h-6.2V82.208a3.1,3.1,0,0,1,0-6.2V69.8A18.614,18.614,0,0,1,251.86,88.392Z" transform="translate(-202.493 -61.433)" fill="#ffe177"/>
      <path id="Trazado_997100" data-name="Trazado 997100" d="M116.227,79.1a3.1,3.1,0,0,0,3.1,3.1v6.184h-6.2v.02a3.1,3.1,0,1,1-6.2,0v-.02h-6.2A18.579,18.579,0,0,1,119.328,69.8V76A3.1,3.1,0,0,0,116.227,79.1Z" transform="translate(-88.575 -61.432)" fill="#fe646f"/>
      <path id="Trazado_997101" data-name="Trazado 997101" d="M119.328,69.8v.152a18.575,18.575,0,0,0-16.217,18.442h-2.4A18.579,18.579,0,0,1,119.328,69.8Z" transform="translate(-88.575 -61.432)" fill="#fd4755"/>
      <g id="Grupo_1160042" data-name="Grupo 1160042" transform="translate(0.077)">
        <path id="Trazado_997102" data-name="Trazado 997102" d="M129.314,71.585a.9.9,0,1,0-1.53.943,17.653,17.653,0,0,1,2.6,8.361h-4.487a4,4,0,0,0-7.789,0H113.59V75.6a.9.9,0,0,0-.9-.9,2.2,2.2,0,0,1,0-4.407.9.9,0,0,0,.9-.9V64.115a17.552,17.552,0,0,1,11.895,5.438.9.9,0,0,0,1.3-1.244A19.349,19.349,0,0,0,112.7,62.3h-.024a19.516,19.516,0,0,0-12.856,4.824.9.9,0,0,0,1.185,1.352,17.706,17.706,0,0,1,10.784-4.355V68.6a4,4,0,0,0,0,7.8v4.488h-5.306a.9.9,0,0,0-.9.9v.021a2.2,2.2,0,0,1-4.408,0v-.021a.9.9,0,0,0-.9-.9H95a17.562,17.562,0,0,1,3.476-9.676.9.9,0,1,0-1.441-1.075,19.38,19.38,0,0,0-3.857,11.65,19.632,19.632,0,0,0,11.17,17.664,2.192,2.192,0,0,1,1.24,1.977v1.792c-1.845,0-3.1.989-3.1,2.76s1.218,2.762,3.1,2.76v4.091a3.482,3.482,0,0,0,3.368,3.368h7.472a3.482,3.482,0,0,0,3.368-3.368v-4.091c2.105,0,3.1-1.117,3.1-2.76,0-1.713-1.078-2.76-3.1-2.76v-1.792a2.2,2.2,0,0,1,1.247-1.98A19.839,19.839,0,0,0,132.2,81.788a19.467,19.467,0,0,0-2.89-10.2Zm-24.2,26.243A17.813,17.813,0,0,1,95,82.687h4.479a4,4,0,0,0,7.809,0h4.5v5.326a.9.9,0,0,0,.9.9,2.2,2.2,0,1,1,0,4.407.9.9,0,0,0-.9.9v9h-4.407v-1.792A4,4,0,0,0,105.118,97.827ZM116.427,114.4h-7.472a1.647,1.647,0,0,1-1.57-1.918H118C118,113.442,117.695,114.4,116.427,114.4Zm3.709-7.458H114.58a.9.9,0,0,0-.9.9s0,0,0,.006,0,0,0,.006a.9.9,0,0,0,.9.9H118v1.933H107.385v-1.933h3.278a.9.9,0,0,0,.9-.9s0,0,0-.006,0,0,0-.006a.9.9,0,0,0-.9-.9h-5.417a.969.969,0,1,1,0-1.925h14.891A.963.963,0,1,1,120.136,106.943Zm.135-9.119a4,4,0,0,0-2.275,3.6v1.792H113.59V95.015a4,4,0,0,0,0-7.8V82.687H118.9a.9.9,0,0,0,.9-.893,2.2,2.2,0,0,1,4.408,0,.9.9,0,0,0,.9.893h5.281A17.813,17.813,0,0,1,120.271,97.824Z" transform="translate(-82.015 -54.829)"/>
        <g id="Grupo_1160041" data-name="Grupo 1160041" transform="translate(0)">
          <g id="Grupo_1160029" data-name="Grupo 1160029" transform="translate(29.777)">
            <path id="Trazado_997103" data-name="Trazado 997103" d="M249.423,5.521a.9.9,0,0,1-.9-.9V.9a.9.9,0,1,1,1.8,0V4.622A.9.9,0,0,1,249.423,5.521Z" transform="translate(-248.524)"/>
          </g>
          <g id="Grupo_1160030" data-name="Grupo 1160030" transform="translate(42.804 3.989)">
            <path id="Trazado_997104" data-name="Trazado 997104" d="M357.663,38.186a.9.9,0,0,1-.329-1.228l1.861-3.224a.9.9,0,1,1,1.557.9l-1.861,3.224a.968.968,0,0,1-1.228.329Z" transform="translate(-357.213 -33.284)"/>
          </g>
          <g id="Grupo_1160033" data-name="Grupo 1160033" transform="translate(3.997 14.888)">
            <g id="Grupo_1160031" data-name="Grupo 1160031" transform="translate(48.343)">
              <path id="Trazado_997105" data-name="Trazado 997105" d="M436.9,127.432a.9.9,0,0,1,.329-1.228l3.224-1.861a.9.9,0,1,1,.9,1.557l-3.224,1.861A.936.936,0,0,1,436.9,127.432Z" transform="translate(-436.784 -124.222)"/>
            </g>
            <g id="Grupo_1160032" data-name="Grupo 1160032" transform="translate(0 27.916)">
              <path id="Trazado_997106" data-name="Trazado 997106" d="M33.542,360.348a.913.913,0,0,1,.329-1.228l3.224-1.861a.9.9,0,0,1,.9,1.557l-3.224,1.861A.844.844,0,0,1,33.542,360.348Z" transform="translate(-33.429 -357.138)"/>
            </g>
          </g>
          <g id="Grupo_1160034" data-name="Grupo 1160034" transform="translate(14.888 3.989)">
            <path id="Trazado_997107" data-name="Trazado 997107" d="M126.281,37.857l-1.861-3.224a.9.9,0,1,1,1.557-.9l1.861,3.224a.912.912,0,0,1-.329,1.228A.937.937,0,0,1,126.281,37.857Z" transform="translate(-124.299 -33.284)"/>
          </g>
          <g id="Grupo_1160037" data-name="Grupo 1160037" transform="translate(3.989 14.888)">
            <g id="Grupo_1160035" data-name="Grupo 1160035">
              <path id="Trazado_997108" data-name="Trazado 997108" d="M37.036,127.761,33.812,125.9a.9.9,0,1,1,.9-1.557l3.224,1.861a.856.856,0,0,1,.329,1.228.916.916,0,0,1-1.228.329Z" transform="translate(-33.362 -124.222)"/>
            </g>
            <g id="Grupo_1160036" data-name="Grupo 1160036" transform="translate(48.351 27.916)">
              <path id="Trazado_997109" data-name="Trazado 997109" d="M440.458,360.678l-3.224-1.861a.9.9,0,1,1,.9-1.557l3.224,1.861a.885.885,0,0,1,.329,1.228A.828.828,0,0,1,440.458,360.678Z" transform="translate(-436.784 -357.139)"/>
            </g>
          </g>
          <g id="Grupo_1160040" data-name="Grupo 1160040" transform="translate(0 29.777)">
            <g id="Grupo_1160038" data-name="Grupo 1160038">
              <path id="Trazado_997110" data-name="Trazado 997110" d="M4.7,250.245H.976a.9.9,0,1,1,0-1.8H4.7a.9.9,0,1,1,0,1.8Z" transform="translate(-0.077 -248.447)"/>
            </g>
            <g id="Grupo_1160039" data-name="Grupo 1160039" transform="translate(55.831)">
              <path id="Trazado_997111" data-name="Trazado 997111" d="M470.53,250.245h-3.723a.9.9,0,1,1,0-1.8h3.723a.9.9,0,0,1,0,1.8Z" transform="translate(-465.908 -248.447)"/>
            </g>
          </g>
        </g>
      </g>
    </g>
  </g>
</svg>
