<svg xmlns="http://www.w3.org/2000/svg" xmlns:xlink="http://www.w3.org/1999/xlink" width="110" height="110" viewBox="0 0 110 110">
  <defs>
    <filter id="Trazado_982547" x="0" y="0" width="110" height="110" filterUnits="userSpaceOnUse">
      <feOffset dy="3" input="SourceAlpha"/>
      <feGaussianBlur stdDeviation="3" result="blur"/>
      <feFlood flood-opacity="0.161"/>
      <feComposite operator="in" in2="blur"/>
      <feComposite in="SourceGraphic"/>
    </filter>
  </defs>
  <g id="Grupo_1159328" data-name="Grupo 1159328" transform="translate(-1297 -3890.649)">
    <g id="Grupo_1158897" data-name="Grupo 1158897" transform="translate(496 85.649)">
      <g id="Grupo_1157405" data-name="Grupo 1157405" transform="translate(1 3016)">
        <g id="Grupo_1155792" data-name="Grupo 1155792" transform="translate(-1 -3894.666)">
          <g id="Grupo_1154703" data-name="Grupo 1154703" transform="translate(0 1465.666)">
            <g id="Grupo_1150789" data-name="Grupo 1150789" transform="translate(3 2320)">
              <g id="Grupo_1154212" data-name="Grupo 1154212" transform="translate(-236 -5809)">
                <g id="Grupo_1152583" data-name="Grupo 1152583" transform="translate(1043 6713)">
                  <g id="Grupo_1146973" data-name="Grupo 1146973" transform="translate(0 0)">
                    <g id="Grupo_1146954" data-name="Grupo 1146954">
                      <g transform="matrix(1, 0, 0, 1, -9, -6)" filter="url(#Trazado_982547)">
                        <g id="Trazado_982547-2" data-name="Trazado 982547" transform="translate(9 6)" fill="#fef4f5">
                          <path d="M 46 90.49987030029297 C 39.99187850952148 90.49987030029297 34.16426849365234 89.32350921630859 28.67905426025391 87.00345611572266 C 23.38019943237305 84.76224517822266 18.62104034423828 81.55341339111328 14.53374671936035 77.46613311767578 C 10.44646644592285 73.37885284423828 7.237639904022217 68.61969757080078 4.996413230895996 63.32085418701172 C 2.676359891891479 57.83565521240234 1.5 52.008056640625 1.5 45.99993515014648 C 1.5 39.99181365966797 2.676359891891479 34.16421508789062 4.996413230895996 28.67901420593262 C 7.237639904022217 23.38017463684082 10.44646644592285 18.62101554870605 14.53374671936035 14.53373527526855 C 18.62104034423828 10.44645500183105 23.38019943237305 7.23762845993042 28.67905426025391 4.996415138244629 C 34.16426849365234 2.676361799240112 39.99187850952148 1.500001788139343 46 1.500001788139343 C 52.00812149047852 1.500001788139343 57.83573150634766 2.676361799240112 63.32094573974609 4.996415138244629 C 68.61979675292969 7.23762845993042 73.37895965576172 10.44645500183105 77.46625518798828 14.53373527526855 C 81.55353546142578 18.62101554870605 84.76235961914062 23.38017463684082 87.00358581542969 28.67901420593262 C 89.32363891601562 34.16421508789062 90.5 39.99181365966797 90.5 45.99993515014648 C 90.5 52.008056640625 89.32363891601562 57.83565521240234 87.00358581542969 63.32085418701172 C 84.76235961914062 68.61969757080078 81.55353546142578 73.37885284423828 77.46625518798828 77.46613311767578 C 73.37895965576172 81.55341339111328 68.61979675292969 84.76224517822266 63.32094573974609 87.00345611572266 C 57.83573150634766 89.32350921630859 52.00812149047852 90.49987030029297 46 90.49987030029297 Z" stroke="none"/>
                          <path d="M 46 2.999992370605469 C 40.1937141418457 2.999992370605469 34.56269836425781 4.136489868164062 29.26337051391602 6.377906799316406 C 24.14332580566406 8.543502807617188 19.54441070556641 11.64437866210938 15.59439849853516 15.59437561035156 C 11.64440155029297 19.54439544677734 8.54351806640625 24.14329528808594 6.377914428710938 29.26333618164062 C 4.136497497558594 34.56264877319336 3 40.19366455078125 3 45.99993515014648 C 3 51.80620574951172 4.136497497558594 57.43720626831055 6.377914428710938 62.73651885986328 C 8.54351806640625 67.8565673828125 11.64440155029297 72.45545959472656 15.59439849853516 76.40547943115234 C 19.54441070556641 80.35547637939453 24.14332580566406 83.45635223388672 29.26337051391602 85.6219482421875 C 34.56269836425781 87.86336517333984 40.1937141418457 88.99986267089844 46 88.99986267089844 C 51.8062858581543 88.99986267089844 57.43730163574219 87.86336517333984 62.73661422729492 85.6219482421875 C 67.85667419433594 83.45635223388672 72.45557403564453 80.35547637939453 76.40558624267578 76.40547943115234 C 80.35559844970703 72.45545959472656 83.45647430419922 67.8565673828125 85.6220703125 62.73651885986328 C 87.86350250244141 57.43720626831055 89 51.80620574951172 89 45.99993515014648 C 89 40.19366455078125 87.86350250244141 34.56264877319336 85.6220703125 29.26333618164062 C 83.45647430419922 24.14329528808594 80.35559844970703 19.54439544677734 76.40558624267578 15.59437561035156 C 72.45557403564453 11.64437866210938 67.85667419433594 8.543502807617188 62.73661422729492 6.377906799316406 C 57.43730163574219 4.136489868164062 51.8062858581543 2.999992370605469 46 2.999992370605469 M 46 -7.62939453125e-06 C 71.40509033203125 -7.62939453125e-06 92 20.59486389160156 92 45.99993515014648 C 92 71.40499114990234 71.40509033203125 91.99986267089844 46 91.99986267089844 C 20.59490203857422 91.99986267089844 0 71.40499114990234 0 45.99993515014648 C 0 20.59486389160156 20.59490203857422 -7.62939453125e-06 46 -7.62939453125e-06 Z" stroke="none" fill="#ff7f8f"/>
                        </g>
                      </g>
                    </g>
                  </g>
                </g>
              </g>
            </g>
          </g>
        </g>
      </g>
    </g>
    <g id="mujer-mexicana" transform="translate(1281 3910.932)">
      <g id="Grupo_1159326" data-name="Grupo 1159326" transform="translate(45.767 0.929)">
        <circle id="Elipse_11693" data-name="Elipse 11693" cx="8.323" cy="8.323" r="8.323" transform="translate(4.456 37.75)" fill="#4f4c5f"/>
        <circle id="Elipse_11694" data-name="Elipse 11694" cx="8.323" cy="8.323" r="8.323" transform="translate(29.363 37.75)" fill="#5c586f"/>
        <g id="Grupo_1159320" data-name="Grupo 1159320" transform="translate(8.402 41.658)">
          <path id="Trazado_995034" data-name="Trazado 995034" d="M120.152,352.236a34.292,34.292,0,0,1,5.434-8.5h22.793a34.287,34.287,0,0,1,5.434,8.5l-16.831,3.354Z" transform="translate(-120.152 -343.739)" fill="#ffbd86"/>
        </g>
        <path id="Trazado_995035" data-name="Trazado 995035" d="M102.727,440.2a30.178,30.178,0,0,0-.842,7.254h38.188a30.179,30.179,0,0,0-.842-7.254l-18.252-.813Z" transform="translate(-95.747 -385.882)" fill="#fff3e4"/>
        <path id="Trazado_995036" data-name="Trazado 995036" d="M109.765,443.682c0-.087,0-.173,0-.26l-7.041.314a30.178,30.178,0,0,0-.842,7.254h9.422A17.976,17.976,0,0,1,109.765,443.682Z" transform="translate(-95.747 -389.414)" fill="#ffe9cc"/>
        <path id="Trazado_995037" data-name="Trazado 995037" d="M140.543,410.254h-31.28a2.9,2.9,0,0,0-2.9,2.9,4.222,4.222,0,0,0,2.317,3.768,5.136,5.136,0,0,0,4.635,0,5.136,5.136,0,0,1,4.635,0,5.136,5.136,0,0,0,4.635,0,5.136,5.136,0,0,1,4.635,0,5.136,5.136,0,0,0,4.635,0,5.136,5.136,0,0,1,4.635,0,5.136,5.136,0,0,0,4.635,0,4.222,4.222,0,0,0,2.317-3.768A2.9,2.9,0,0,0,140.543,410.254Z" transform="translate(-99.671 -360.355)" fill="#ff889e"/>
        <path id="Trazado_995038" data-name="Trazado 995038" d="M56.574,45.09a24.708,24.708,0,1,1,49.416,0Z" transform="translate(-56.049 -18.786)" fill="#5c586f"/>
        <path id="Trazado_995039" data-name="Trazado 995039" d="M68.816,99.461H61.594a24.576,24.576,0,0,0-5.021,14.91h8.511c0-.105,0-.21,0-.316A30.2,30.2,0,0,1,68.816,99.461Z" transform="translate(-56.049 -88.068)" fill="#4f4c5f"/>
        <circle id="Elipse_11695" data-name="Elipse 11695" cx="4.599" cy="4.599" r="4.599" transform="translate(41.266 22.341)" fill="#ffbd86"/>
        <path id="Trazado_995040" data-name="Trazado 995040" d="M130.91,343.739h-5.323a34.288,34.288,0,0,0-5.434,8.5l5.857,1.167A17.989,17.989,0,0,1,130.91,343.739Z" transform="translate(-111.751 -302.081)" fill="#f8af79"/>
        <path id="Trazado_995041" data-name="Trazado 995041" d="M132.778,103.577a5.238,5.238,0,0,0-3.37-4.086c-3.2-1.152-3.974-4.982-7.136-4.982a9.973,9.973,0,0,1-7.754-2.928,2.5,2.5,0,0,0-3.452,0,9.974,9.974,0,0,1-7.754,2.928c-3.162,0-3.939,3.83-7.136,4.982a5.238,5.238,0,0,0-3.37,4.086,20.4,20.4,0,0,0-.265,3.286c0,11.184,9.068,18.977,20.252,18.977s20.252-7.793,20.252-18.977a20.371,20.371,0,0,0-.265-3.286Z" transform="translate(-87.559 -80.559)" fill="#fed2a4"/>
        <circle id="Elipse_11696" data-name="Elipse 11696" cx="2.392" cy="2.392" r="2.392" transform="translate(43.053 29.916)" fill="#f9f097"/>
        <g id="Grupo_1159324" data-name="Grupo 1159324" transform="translate(10.27 26.031)">
          <g id="Grupo_1159323" data-name="Grupo 1159323">
            <g id="Grupo_1159321" data-name="Grupo 1159321">
              <ellipse id="Elipse_11697" data-name="Elipse 11697" cx="4.033" cy="3.211" rx="4.033" ry="3.211" fill="#ff889e"/>
            </g>
            <g id="Grupo_1159322" data-name="Grupo 1159322" transform="translate(21.859)">
              <ellipse id="Elipse_11698" data-name="Elipse 11698" cx="4.033" cy="3.211" rx="4.033" ry="3.211" fill="#ff889e"/>
            </g>
          </g>
        </g>
        <path id="Trazado_995042" data-name="Trazado 995042" d="M65.968,177.859A30.41,30.41,0,0,1,62.4,153.954a5.54,5.54,0,0,1-1.441.787,5.226,5.226,0,0,0-3.231,3.476A4.6,4.6,0,1,0,58,167.225,18.2,18.2,0,0,0,65.968,177.859Z" transform="translate(-52.34 -135.809)" fill="#ffbd86"/>
        <path id="Trazado_995043" data-name="Trazado 995043" d="M84.995,14.114l0-.009a3.3,3.3,0,0,0-4.4-4.4l-.009,0a3.3,3.3,0,0,0-6.222,0l-.009,0a3.3,3.3,0,0,0-4.4,4.4l0,.009a3.3,3.3,0,0,0,0,6.222l0,.009a3.3,3.3,0,0,0,4.4,4.4l.009,0a3.3,3.3,0,0,0,6.222,0l.009,0a3.3,3.3,0,0,0,4.4-4.4l0-.009a3.3,3.3,0,0,0,0-6.222Z" transform="translate(-65.846 -7.501)" fill="#ff889e"/>
        <circle id="Elipse_11699" data-name="Elipse 11699" cx="3.221" cy="3.221" r="3.221" transform="translate(8.413 6.503)" fill="#f9f097"/>
        <circle id="Elipse_11700" data-name="Elipse 11700" cx="2.392" cy="2.392" r="2.392" transform="translate(2.628 29.916)" fill="#f9f097"/>
        <path id="Trazado_995044" data-name="Trazado 995044" d="M77.18,253.912a2.391,2.391,0,0,1-2.193-3.346,2.392,2.392,0,1,0,3.147,3.147A2.381,2.381,0,0,1,77.18,253.912Z" transform="translate(-70.921 -220.452)" fill="#ffca8a"/>
        <path id="Trazado_995045" data-name="Trazado 995045" d="M403.468,253.912a2.391,2.391,0,0,1-2.193-3.346,2.392,2.392,0,1,0,3.147,3.147A2.381,2.381,0,0,1,403.468,253.912Z" transform="translate(-356.784 -220.452)" fill="#ffca8a"/>
        <g id="Grupo_1159325" data-name="Grupo 1159325" transform="translate(1.91 1.866)">
          <path id="Trazado_995046" data-name="Trazado 995046" d="M113.688,414.624a18.081,18.081,0,0,1,.534-4.37h-4.959a2.9,2.9,0,0,0-2.9,2.9,4.223,4.223,0,0,0,2.317,3.768,5.136,5.136,0,0,0,4.635,0,5.151,5.151,0,0,1,.492-.216A18.228,18.228,0,0,1,113.688,414.624Z" transform="translate(-101.581 -362.221)" fill="#ff748f"/>
          <path id="Trazado_995047" data-name="Trazado 995047" d="M71.725,28.251a10.671,10.671,0,0,1,1.616-5.662,3.3,3.3,0,0,0-3.38,4.709l0,.009a3.3,3.3,0,0,0,0,6.222l0,.009a3.3,3.3,0,0,0,4.4,4.4l.009,0a3.3,3.3,0,0,0,5.819.8,10.726,10.726,0,0,1-8.463-10.484Z" transform="translate(-67.756 -22.56)" fill="#ff748f"/>
        </g>
      </g>
      <g id="Grupo_1159327" data-name="Grupo 1159327" transform="translate(44.838 0)">
        <path id="Trazado_995048" data-name="Trazado 995048" d="M166.611,192.324a2.852,2.852,0,0,0-2.849,2.849.929.929,0,0,0,1.858,0,.99.99,0,0,1,1.981,0,.929.929,0,0,0,1.858,0A2.852,2.852,0,0,0,166.611,192.324Z" transform="translate(-149.028 -168.496)"/>
        <path id="Trazado_995049" data-name="Trazado 995049" d="M303.182,196.1a.929.929,0,0,0,.929-.929.99.99,0,0,1,1.981,0,.929.929,0,1,0,1.858,0,2.849,2.849,0,1,0-5.7,0A.929.929,0,0,0,303.182,196.1Z" transform="translate(-270.361 -168.496)"/>
        <path id="Trazado_995050" data-name="Trazado 995050" d="M233.7,226.244a.929.929,0,1,0-1.4,1.221,3.628,3.628,0,0,0,5.473,0,.929.929,0,0,0-1.4-1.221,1.769,1.769,0,0,1-2.671,0Z" transform="translate(-208.869 -197.934)"/>
        <path id="Trazado_995051" data-name="Trazado 995051" d="M116.9,60.792a4.15,4.15,0,1,0-4.15-4.15A4.155,4.155,0,0,0,116.9,60.792Zm0-6.441a2.291,2.291,0,1,1-2.291,2.291A2.294,2.294,0,0,1,116.9,54.35Z" transform="translate(-104.334 -45.989)"/>
        <path id="Trazado_995052" data-name="Trazado 995052" d="M97.162,27.87a5.491,5.491,0,0,0-.594-2.489A25.644,25.644,0,0,0,89.521,9.527a.929.929,0,1,0-1.343,1.284,23.82,23.82,0,0,1,6.236,12.282,5.541,5.541,0,0,0-2.937-.749,6.151,6.151,0,0,0-3.545-3.357,7.418,7.418,0,0,1-2.924-2.354c-1.116-1.257-2.381-2.683-4.527-2.683l-.074,0a8.967,8.967,0,0,1-6.751-2.408c-.293-.261-.338-.326-.546-.489a3.424,3.424,0,0,0-3.365-.49c-.857.338-1.053.727-1.89,1.39a4.517,4.517,0,0,0,.2-1.3,4.171,4.171,0,0,0-1.984-3.586,4.111,4.111,0,0,0-.41-3.008A23.777,23.777,0,0,1,71,3.454,23.526,23.526,0,0,1,85.515,8.413a.929.929,0,1,0,1.137-1.47A25.611,25.611,0,0,0,64.188,2.515a4.141,4.141,0,0,0-3.2-.529,4.232,4.232,0,0,0-7.174,0,4.231,4.231,0,0,0-5.081,5.081,4.233,4.233,0,0,0,0,7.174,4.2,4.2,0,0,0-.081.447,25.286,25.286,0,0,0-3.22,10.693,5.523,5.523,0,0,0,2.092,7.233,3.319,3.319,0,0,0,4.47,3.717,18.849,18.849,0,0,0,1.756,2.762,9.246,9.246,0,0,0-2.166,14,3.833,3.833,0,0,0-.053.634,5.179,5.179,0,0,0,.249,1.583,31.409,31.409,0,0,0-.8,7.195.929.929,0,0,0,.929.929H90.094a.929.929,0,0,0,.929-.929,31.414,31.414,0,0,0-.8-7.195,4.858,4.858,0,0,0,.2-2.217,9.246,9.246,0,0,0-2.166-14A18.847,18.847,0,0,0,90,36.33a3.319,3.319,0,0,0,4.47-3.717,5.5,5.5,0,0,0,2.688-4.743ZM80.514,15.809c1.228.014,1.981.793,3.1,2.058A9.1,9.1,0,0,0,87.3,20.735a4.3,4.3,0,0,1,2.653,2.86,16.061,16.061,0,0,1,.16,6.44l-.011.071a3.317,3.317,0,0,0-1.59,5.062C85.345,41.567,78.506,45.282,71,45.282c-7.371,0-14.295-3.612-17.514-10.112a3.317,3.317,0,0,0-1.59-5.062,19.054,19.054,0,0,1-.219-2.873,19.57,19.57,0,0,1,.253-3.136A4.324,4.324,0,0,1,54.7,20.736c.132-.048.33-.13.343-.136a4.247,4.247,0,0,0,2.36.707,4.174,4.174,0,0,0,3.589-1.985,4.242,4.242,0,0,0,5.2-4.243,11.969,11.969,0,0,0,3.73-2.455,1.567,1.567,0,0,1,2.169,0,10.89,10.89,0,0,0,8.43,3.185ZM86.23,49.9H64.57a.929.929,0,0,0,0,1.858c23.392.021,21.972-.031,22.347.022a1.973,1.973,0,0,1,1.693,1.948c0,2.694-3.082,4.214-5.6,2.939a6.088,6.088,0,0,0-5.473,0,4.223,4.223,0,0,1-3.8,0,6.088,6.088,0,0,0-5.473,0,4.221,4.221,0,0,1-3.8,0,6.1,6.1,0,0,0-5.473,0c-2.534,1.282-5.6-.248-5.6-2.939a1.976,1.976,0,0,1,1.97-1.97h5.493a.929.929,0,0,0,0-1.858H55.77a35.2,35.2,0,0,1,3.741-5.765,23.457,23.457,0,0,0,22.978,0A35.143,35.143,0,0,1,86.23,49.9ZM48.607,10.653A2.314,2.314,0,0,1,50.193,8.42a.93.93,0,0,0,.532-1.278l-.006-.013a2.366,2.366,0,0,1,3.169-3.153.93.93,0,0,0,1.28-.531,2.366,2.366,0,0,1,4.467,0,.938.938,0,0,0,1.29.526A2.366,2.366,0,0,1,64.08,7.138v0a.93.93,0,0,0,.531,1.28,2.366,2.366,0,0,1,0,4.467.933.933,0,0,0-.614.97.975.975,0,0,0,.089.322,2.363,2.363,0,0,1-3.174,3.149.93.93,0,0,0-1.275.533,2.364,2.364,0,0,1-4.467,0h0a.939.939,0,0,0-1.29-.526,2.363,2.363,0,0,1-3.153-3.169.93.93,0,0,0-.531-1.28,2.314,2.314,0,0,1-1.586-2.234Zm.7,6.851a4.237,4.237,0,0,0,3.808,1.925,6.141,6.141,0,0,0-2.589,2.914,5.526,5.526,0,0,0-2.942.752A23.317,23.317,0,0,1,49.3,17.5Zm-.929,13.449a3.67,3.67,0,0,1,1.657-6.737,21.909,21.909,0,0,0-.213,3.017A21.356,21.356,0,0,0,50,30.009,3.352,3.352,0,0,0,48.375,30.954Zm.949,2.283a1.467,1.467,0,0,1,1.463-1.463,1.463,1.463,0,1,1-1.463,1.463Zm3.147,17.981a7.394,7.394,0,0,1,2.5-10.688l.012.013a19.973,19.973,0,0,0,2.954,2.579,36.518,36.518,0,0,0-4.483,7.285A3.933,3.933,0,0,0,52.471,51.218Zm.377,10.358a30.173,30.173,0,0,1,.378-4.028,5.994,5.994,0,0,0,6.606.777,4.223,4.223,0,0,1,3.8,0,6.106,6.106,0,0,0,5.473,0,4.223,4.223,0,0,1,3.8,0,6.087,6.087,0,0,0,5.473,0,4.223,4.223,0,0,1,3.8,0,5.99,5.99,0,0,0,6.606-.777,30.21,30.21,0,0,1,.378,4.028h-36.3ZM87.027,40.53a7.4,7.4,0,0,1,2.5,10.688,3.952,3.952,0,0,0-.985-.811,36.128,36.128,0,0,0-4.483-7.285A19.951,19.951,0,0,0,87.027,40.53Zm4.186-5.83a1.463,1.463,0,1,1,1.463-1.463A1.469,1.469,0,0,1,91.213,34.7Zm2.412-3.746A3.353,3.353,0,0,0,92,30.009a21.35,21.35,0,0,0-.029-5.792,3.67,3.67,0,0,1,1.657,6.737Z" transform="translate(-44.838 0)"/>
      </g>
    </g>
  </g>
</svg>
