<svg xmlns="http://www.w3.org/2000/svg" xmlns:xlink="http://www.w3.org/1999/xlink" width="505" height="361" viewBox="0 0 505 361">
  <defs>
    <clipPath id="clip-path">
      <rect id="Rectángulo_409949" data-name="Rectángulo 409949" width="505" height="361" transform="translate(915 7676)" fill="#fcd7db" stroke="#707070" stroke-width="1"/>
    </clipPath>
    <filter id="Trazado_997091" x="-9" y="-4.348" width="523" height="374.074" filterUnits="userSpaceOnUse">
      <feOffset dy="3" input="SourceAlpha"/>
      <feGaussianBlur stdDeviation="3" result="blur"/>
      <feFlood flood-opacity="0.161"/>
      <feComposite operator="in" in2="blur"/>
      <feComposite in="SourceGraphic"/>
    </filter>
    <clipPath id="clip-path-2">
      <rect id="Rectángulo_409925" data-name="Rectángulo 409925" width="436" height="436" transform="translate(0.454 0)" fill="none"/>
    </clipPath>
  </defs>
  <g id="Enmascarar_grupo_1098760" data-name="Enmascarar grupo 1098760" transform="translate(-915 -7676)" clip-path="url(#clip-path)">
    <g id="Grupo_1160028" data-name="Grupo 1160028" transform="translate(0 -3.552)">
      <g transform="matrix(1, 0, 0, 1, 915, 7679.55)" filter="url(#Trazado_997091)">
        <path id="Trazado_997091-2" data-name="Trazado 997091" d="M57.767,367.328c-2.79-56.615,28.047-105.242,74.588-132.644a31.276,31.276,0,0,0,15.54-22.982q.094-.763.2-1.526c8.534-62.163,72.449-105.832,140.528-97.413,65.12,8.056,112,39.333,105.075,99.57-.033.284-.07.7-.108,1.217-1.209,16.415,12.964,30.215,31,30.6q5.674.125,11.421.667c77.69,7.379,134.047,70.842,125.773,141.693C558,418.921,541.175,447.3,516.6,467.8H111.628c-30.784-26.779-52.06-63.927-53.862-100.471" transform="translate(-57.59 -110.07)" fill="#f9e6e9"/>
      </g>
      <g id="Grupo_1160027" data-name="Grupo 1160027" transform="translate(956.833 7664)">
        <g id="Grupo_1160026" data-name="Grupo 1160026" transform="translate(-0.287 0)" clip-path="url(#clip-path-2)">
          <path id="Trazado_996967" data-name="Trazado 996967" d="M86.183,494.226A39.688,39.688,0,0,0,74.92,508.649c-4.128,9.183-1.026,17.656,2.024,20.848l-9.93,40.311,61.976-1.854,6.582-76.134Z" transform="translate(-8.191 -123.612)" fill="#5757ce"/>
          <path id="Trazado_996968" data-name="Trazado 996968" d="M155.156,273.859l-.387,13.562-15.464-1.089,1.993-9.841Z" transform="translate(-17.372 -95.932)" fill="#f4b9a4"/>
          <path id="Trazado_996969" data-name="Trazado 996969" d="M148.45,261.136c-4.26-2.684-16.166-6.794-19.918-7.874s-5.7-1.253-4.941-.064,15.774,7.944,15.774,7.944-14.159-5.245-16.8-5.23-3.139.844-1.685,1.846,17.561,6.419,17.561,6.419c-4.651-1.535-17.749-4.628-18.9-4.668s-1.991.883-.537,1.885,18.71,6.458,18.71,6.458-18.592-3.705-19.638-3.424-1.09,1.337,2.313,2.512,18.651,5.082,18.651,5.082-2.935,1.485-6.568,3.158-5.564,3.933-4.11,4.934,13.746-4.391,14.793-4.672,9.272-1.8,10.3-4.51-.746-7.111-5.006-9.794" transform="translate(-14.596 -93.203)" fill="#f4b9a4"/>
          <path id="Trazado_996970" data-name="Trazado 996970" d="M97.107,389.562s-4.92-1-8.611,1.738a10.092,10.092,0,0,0-3.955,6.883s-4.219-2.9-9.384,1.006-3.9,8.763-3.9,8.763-4.554-1.383-10.472,2.541a12.377,12.377,0,0,0-4.86,15.188c2,4.463,9.546,5.013,9.546,5.013l54.544-15.4-3.293-24.379Z" transform="translate(-6.662 -110.603)" fill="#262525"/>
          <path id="Trazado_996971" data-name="Trazado 996971" d="M134.273,421.287s9.621,4.7,7.526,10.777a5.993,5.993,0,0,1-5.907,4.3s1.473,40.615,1.523,42.5l.051,1.88s-17.618,2.734-32.248,4.635-27.013,3.364-27.013,3.364,3.194-35.094,5.045-50.2S98.959,406.87,98.959,406.87l14.278,1.305Z" transform="translate(-9.613 -112.823)" fill="#8787e8"/>
          <path id="Trazado_996972" data-name="Trazado 996972" d="M116.256,393.112l4.483-1.25s6.775-83.7,15.609-105.07l15.8-.426s1.2,2.517,1.649,19.26-8.4,79.27-10.006,89.513-2.974,15.379-2.974,15.379Z" transform="translate(-14.445 -97.52)" fill="#8787e8"/>
          <path id="Trazado_996973" data-name="Trazado 996973" d="M104.817,384.253a11.957,11.957,0,0,1-3.309-5.718c-1.217-4.051-.428-7.185,1.616-9.318s6.306-1.472,6.306-1.472-.629-2.213,1.207-2.8,6.1.075,8.4,3.623,2.472,5.05,2.472,5.05l-13.005,11.25Z" transform="translate(-12.499 -107.475)" fill="#262525"/>
          <path id="Trazado_996974" data-name="Trazado 996974" d="M106.4,384.664a19.568,19.568,0,0,0,4.584-8.418c1.38-5.292.38-7.156.38-7.156s3,2.034,8.458,1.419a109.935,109.935,0,0,1,7.907,10.569c2.435,4.073,2.659,9.579-1.067,11.579s-7.8.879-10.711-.374-9.551-7.618-9.551-7.618" transform="translate(-13.193 -108.025)" fill="#f4b9a4"/>
          <path id="Trazado_996975" data-name="Trazado 996975" d="M123,373.458s-1.017-3.181,1.151-4.414,3.369,3.576,3.227,5.24-1.008,2.75-1.7,2.5S123,373.458,123,373.458" transform="translate(-15.272 -107.994)" fill="#f4b9a4"/>
          <path id="Trazado_996976" data-name="Trazado 996976" d="M107.7,387s-3.731-1.556-5.594-.555-1.6,3.341,1.351,4.984,6.765.424,6.589-1.137S107.7,387,107.7,387" transform="translate(-12.497 -110.186)" fill="#f4b9a4"/>
          <path id="Trazado_996977" data-name="Trazado 996977" d="M119.448,380.8l-.353-.6a26.152,26.152,0,0,0,2.7-1.774,46.824,46.824,0,0,0-4.8-1l.116-.689c5.5.921,5.534,1.268,5.565,1.545.025.22.065.588-3.227,2.52" transform="translate(-14.539 -108.996)" fill="#262525"/>
          <rect id="Rectángulo_409903" data-name="Rectángulo 409903" width="5.029" height="0.698" transform="translate(106.223 274.9) rotate(-45.102)" fill="#262525"/>
          <rect id="Rectángulo_409904" data-name="Rectángulo 409904" width="3.067" height="0.698" transform="translate(103.125 264.98) rotate(-46.267)" fill="#262525"/>
          <rect id="Rectángulo_409905" data-name="Rectángulo 409905" width="3.725" height="0.699" transform="translate(96.299 270.028) rotate(-24.806)" fill="#262525"/>
          <path id="Trazado_996978" data-name="Trazado 996978" d="M108.106,389.532a5.825,5.825,0,0,0-4.116-.262l-.175-.675a6.374,6.374,0,0,1,4.644.334Z" transform="translate(-12.865 -110.469)" fill="#262525"/>
          <path id="Trazado_996979" data-name="Trazado 996979" d="M124.894,373.6a14.839,14.839,0,0,1-.012-2.638l.7.059a14.275,14.275,0,0,0,.01,2.5Z" transform="translate(-15.534 -108.263)" fill="#262525"/>
          <path id="Trazado_996980" data-name="Trazado 996980" d="M114.987,380.325a1.535,1.535,0,0,0-.114-.215,1.177,1.177,0,0,0-.217-.249.521.521,0,0,0-.078-.061,1.5,1.5,0,0,0-.208-.121.434.434,0,0,0-.225-.045.529.529,0,0,0-.42.164c-.017.014-.024.038-.039.054l-.009.008-.011.02a.409.409,0,0,0-.072.1.627.627,0,0,0-.033.377,1.535,1.535,0,0,0,.055.266,1.274,1.274,0,0,0,.143.294,1.261,1.261,0,0,0,.483.431.589.589,0,0,0,.3.046.443.443,0,0,0,.22-.076.431.431,0,0,0,.175-.142.585.585,0,0,0,.121-.275,1.093,1.093,0,0,0-.01-.341,1.62,1.62,0,0,0-.065-.235" transform="translate(-14.101 -109.364)" fill="#262525"/>
          <path id="Trazado_996981" data-name="Trazado 996981" d="M122.615,374.04a1.534,1.534,0,0,0-.114-.215,1.177,1.177,0,0,0-.217-.249.521.521,0,0,0-.078-.061,1.491,1.491,0,0,0-.208-.121.434.434,0,0,0-.225-.045.529.529,0,0,0-.42.164c-.017.014-.024.038-.039.053l-.008.009a.156.156,0,0,0-.012.02.424.424,0,0,0-.072.1.63.63,0,0,0-.033.378,1.534,1.534,0,0,0,.055.266,1.291,1.291,0,0,0,.143.294,1.263,1.263,0,0,0,.483.431.6.6,0,0,0,.3.046.443.443,0,0,0,.22-.076.431.431,0,0,0,.175-.142.585.585,0,0,0,.121-.275,1.092,1.092,0,0,0-.01-.341,1.614,1.614,0,0,0-.065-.235" transform="translate(-15.069 -108.566)" fill="#262525"/>
          <path id="Trazado_996982" data-name="Trazado 996982" d="M108.847,388.464l-6.868,16.069,8.326,1.657,5.663.6,4.149-13.663Z" transform="translate(-12.632 -110.486)" fill="#f4b9a4"/>
          <path id="Trazado_996983" data-name="Trazado 996983" d="M121.911,397.615c-.179-.038-4.421-.97-6.67-2.513l.4-.576c2.134,1.467,6.379,2.4,6.422,2.408Z" transform="translate(-14.316 -111.255)" fill="#262525"/>
          <path id="Trazado_996984" data-name="Trazado 996984" d="M92.533,406.87a58.509,58.509,0,0,0-22.743,8.143C58.312,422.1,49.01,440.042,43.163,460.527S32.619,502.219,29.68,518.861s-1.893,41.459-1.893,41.459l20.292-1.3s6.386-28.4,16.6-68.206,22.063-75.129,22.063-75.129Z" transform="translate(-3.187 -112.823)" fill="#8787e8"/>
          <path id="Trazado_996985" data-name="Trazado 996985" d="M145.935,270.627l-.469-.518c2.648-2.4,8.239-2.2,8.473-2.194l-.028.7c-.058,0-5.541-.19-7.977,2.014" transform="translate(-18.154 -95.176)" fill="#262525"/>
          <path id="Trazado_996986" data-name="Trazado 996986" d="M141.052,280.61l-.242-.656c.327-.121,8.044-2.967,9.822-3.4l.165.679c-1.741.422-9.666,3.345-9.745,3.375" transform="translate(-17.563 -96.274)" fill="#262525"/>
          <path id="Trazado_996987" data-name="Trazado 996987" d="M112.736,442.492c-4.133,0-9.937-5.705-10.225-5.991L103,436c.079.079,7.949,7.82,11.359,5.3,3.438-2.547.752-10.087.724-10.164l.657-.238c.12.33,2.891,8.107-.964,10.962a3.344,3.344,0,0,1-2.043.631" transform="translate(-12.699 -115.875)" fill="#262525"/>
          <path id="Trazado_996988" data-name="Trazado 996988" d="M147.174,427.515c-1.2-1.736-7.36-4.554-7.421-4.582l.289-.636c.26.119,6.4,2.928,7.707,4.821Z" transform="translate(-17.429 -114.782)" fill="#262525"/>
          <rect id="Rectángulo_409906" data-name="Rectángulo 409906" width="30.682" height="0.699" transform="translate(71.378 340.908) rotate(-72.993)" fill="#262525"/>
          <rect id="Rectángulo_409907" data-name="Rectángulo 409907" width="68.34" height="0.699" transform="translate(104.458 444.795) rotate(-85.629)" fill="#262525"/>
          <path id="Trazado_996989" data-name="Trazado 996989" d="M232.029,378.931s-27.5,5.555-37.288,21.36-13.923,37.629-13.923,37.629l34.243-1.129Z" transform="translate(-22.644 -109.275)" fill="#5757ce"/>
          <path id="Trazado_996990" data-name="Trazado 996990" d="M271.324,442.191s7.526,50.424,8.655,66.228,2.634,47.413,2.634,47.413l-64.7-2.02,7.5-95.817Z" transform="translate(-27.355 -117.309)" fill="#8787e8"/>
          <path id="Trazado_996991" data-name="Trazado 996991" d="M271.218,380.133l2.059,5.43s7.15,2.258,9.031,7.9-3.387,8.279-4.892,7.9l.376,39.682L228.5,450.833l-1.129-67.152,14.3-6.773,12.772.647Z" transform="translate(-28.556 -109.018)" fill="#5757ce"/>
          <path id="Trazado_996992" data-name="Trazado 996992" d="M282.01,235.043l-.474,25.047-15.8-.376,1.129-16.934Z" transform="translate(-33.427 -91.002)" fill="#d1866f"/>
          <path id="Trazado_996993" data-name="Trazado 996993" d="M277.436,228.447c-1.949-1.742-16.014-8.764-18.936-10.029s-4.987-2.087-5.024-.883,3.469,3.262,6.12,4.875a61.69,61.69,0,0,0,6,3.1s-11.375-3.92-13.711-4.393-3.661.066-2.218,1.3,13.051,6.01,13.051,6.01-12.932-4.236-15.191-4.423-1.867,1.237.276,2.345,12.817,5.154,12.817,5.154-13.477-3.538-15.307-3.505-1.867,1.238,1.483,2.725,19.048,6.417,19.048,6.417-12.535,2.577-13.116,4.479,4.052,1.359,10.086.562,12.65-3.5,14.906-6a5.5,5.5,0,0,0-.283-7.731" transform="translate(-30.677 -88.704)" fill="#d1866f"/>
          <path id="Trazado_996994" data-name="Trazado 996994" d="M279.113,373.269s2.931-59.457,4.186-81.23,1.676-32.659,1.676-32.659-23.029-2.094-23.029-1.256-6.175,108.39-6.175,108.39Z" transform="translate(-32.162 -93.908)" fill="#5757ce"/>
          <path id="Trazado_996995" data-name="Trazado 996995" d="M242.165,352.443s-2.258-.376-2.258-1.881a3.312,3.312,0,0,1-2.634-2.634,4.37,4.37,0,0,1,1.881-4.516,5.986,5.986,0,0,1,.376-3.386,3.674,3.674,0,0,1,1.881-2.258,6.377,6.377,0,0,1,1.881-4.14,5.828,5.828,0,0,1,3.764-1.881s.752-1.881,3.763-2.258,4.139,2.258,4.515,3.763a3.506,3.506,0,0,1,0,2.258s2.635,3.386,2.635,6.02-10.536,11.289-10.536,11.289Z" transform="translate(-29.804 -102.992)" fill="#262525"/>
          <path id="Trazado_996996" data-name="Trazado 996996" d="M254.757,338.115a118.543,118.543,0,0,1,8.655,10.913c2.634,4.139,3.763,9.408,0,12.041s-10.16.376-12.794-1.505-6.115-6.571-6.115-6.571a13.444,13.444,0,0,0,.47-5.47,22.776,22.776,0,0,0,4.892-5.269,15.079,15.079,0,0,0,4.891-4.139" transform="translate(-30.732 -104.092)" fill="#d1866f"/>
          <path id="Trazado_996997" data-name="Trazado 996997" d="M260.559,343.639s0-2.634,2.258-3.386,3.01,2.258,2.258,4.515-2.634,3.763-3.01,3.386a31.6,31.6,0,0,1-1.505-4.515" transform="translate(-32.771 -104.348)" fill="#d1866f"/>
          <path id="Trazado_996998" data-name="Trazado 996998" d="M244.15,355.264s-2.634-1.129-4.515-.376a2.518,2.518,0,0,0-.376,4.515c1.881,1.13,6.02.376,6.773-1.129s-1.881-3.01-1.881-3.01" transform="translate(-29.908 -106.189)" fill="#d1866f"/>
          <path id="Trazado_996999" data-name="Trazado 996999" d="M256.032,349.975l-.221-.664a21.509,21.509,0,0,0,2.312-.9c-.709-.387-2.519-1.171-4.178-1.834l.259-.648c4.838,1.935,4.838,2.224,4.838,2.479,0,.236,0,.56-3.01,1.563" transform="translate(-31.931 -105.085)" fill="#262525"/>
          <path id="Trazado_997000" data-name="Trazado 997000" d="M255.537,354.8l-.351-.6,4.516-2.634.351.6Z" transform="translate(-32.088 -105.799)" fill="#262525"/>
          <rect id="Rectángulo_409908" data-name="Rectángulo 409908" width="3.874" height="0.698" transform="translate(216.331 243.127) rotate(-29.097)" fill="#262525"/>
          <rect id="Rectángulo_409909" data-name="Rectángulo 409909" width="2.939" height="0.699" transform="matrix(0.64, -0.769, 0.769, 0.64, 222.629, 239.068)" fill="#262525"/>
          <path id="Trazado_997001" data-name="Trazado 997001" d="M251.811,350.256a1.737,1.737,0,0,0-.036-.242,1.215,1.215,0,0,0-.134-.32,1.928,1.928,0,0,0-.141-.191.72.72,0,0,0-.071-.075,1.586,1.586,0,0,0-.187-.146.709.709,0,0,0-.094-.052.423.423,0,0,0-.21-.067.44.44,0,0,0-.225.01.435.435,0,0,0-.192.1.425.425,0,0,0-.146.159.7.7,0,0,0-.045.1.532.532,0,0,0-.052.228,1.5,1.5,0,0,0,.027.243.644.644,0,0,0,.024.1,1.621,1.621,0,0,0,.09.217.6.6,0,0,0,.051.088,1.181,1.181,0,0,0,.217.254,1.109,1.109,0,0,0,.409.238.566.566,0,0,0,.3,0,.429.429,0,0,0,.192-.1.438.438,0,0,0,.145-.159.564.564,0,0,0,.078-.285.687.687,0,0,0,0-.1" transform="translate(-31.465 -105.493)" fill="#262525"/>
          <path id="Trazado_997002" data-name="Trazado 997002" d="M258.891,345.375a1.74,1.74,0,0,0-.036-.242,1.22,1.22,0,0,0-.134-.32,1.946,1.946,0,0,0-.141-.191.7.7,0,0,0-.071-.075,1.575,1.575,0,0,0-.187-.146.627.627,0,0,0-.094-.052.413.413,0,0,0-.21-.067.429.429,0,0,0-.225.011.424.424,0,0,0-.192.1.432.432,0,0,0-.146.159.7.7,0,0,0-.045.1.53.53,0,0,0-.052.228,1.513,1.513,0,0,0,.027.243.648.648,0,0,0,.024.1,1.62,1.62,0,0,0,.09.217.677.677,0,0,0,.051.088,1.207,1.207,0,0,0,.217.254,1.109,1.109,0,0,0,.409.238.565.565,0,0,0,.3,0,.421.421,0,0,0,.192-.1.429.429,0,0,0,.145-.158.555.555,0,0,0,.077-.285.572.572,0,0,0,0-.1" transform="translate(-32.364 -104.874)" fill="#262525"/>
          <path id="Trazado_997003" data-name="Trazado 997003" d="M240.781,357.349l-.115-.689a10.315,10.315,0,0,1,3.9.006l-.168.677a9.891,9.891,0,0,0-3.621.005" transform="translate(-30.244 -106.425)" fill="#262525"/>
          <path id="Trazado_997004" data-name="Trazado 997004" d="M261.892,344.276a3.39,3.39,0,0,1,.8-2.953l.559.42a2.744,2.744,0,0,0-.7,2.317Z" transform="translate(-32.93 -104.499)" fill="#262525"/>
          <path id="Trazado_997005" data-name="Trazado 997005" d="M246.978,356.218l-3.229,18.062a14.641,14.641,0,0,0,7.176,2.634c4.306.376,5.382-.753,5.382-.753l2.87-16.557Z" transform="translate(-30.636 -106.391)" fill="#d1866f"/>
          <path id="Trazado_997006" data-name="Trazado 997006" d="M244.737,359.926a.505.505,0,0,0-.205-.3.576.576,0,0,0-.5-.206c-1.235.128-1.322,1.7-1.336,2.652a1.634,1.634,0,0,0,.148.923.834.834,0,0,0,1.138.258,1.264,1.264,0,0,0,.522-.627,4.682,4.682,0,0,0,.251-.8,4.624,4.624,0,0,0-.023-1.9" transform="translate(-30.502 -106.797)" fill="#ce4a4a"/>
          <path id="Trazado_997007" data-name="Trazado 997007" d="M267.23,347.23a2.18,2.18,0,0,0-.742-.729,3.536,3.536,0,0,0-1.8-.7.58.58,0,0,0-.541.406.481.481,0,0,0-.086.176.661.661,0,0,0,.057.436,3.276,3.276,0,0,0,2.708,1.9.57.57,0,0,0,.545-.415,1.4,1.4,0,0,0-.145-1.071" transform="translate(-33.214 -105.068)" fill="#ce4a4a"/>
          <path id="Trazado_997008" data-name="Trazado 997008" d="M259.241,365.619a17.12,17.12,0,0,1-7.979-3.132l.429-.551a16.72,16.72,0,0,0,7.617,2.987Z" transform="translate(-31.59 -107.117)" fill="#262525"/>
          <path id="Trazado_997009" data-name="Trazado 997009" d="M270.143,236.7l-.236-.657c5.328-1.9,8.391-.8,8.519-.751l-.244.654c-.029-.011-2.977-1.054-8.039.754" transform="translate(-33.958 -90.987)" fill="#262525"/>
          <path id="Trazado_997010" data-name="Trazado 997010" d="M266.437,246.348l-.177-.675c.065-.017,6.489-1.7,9.139-2.7l.245.654c-2.682,1.01-8.941,2.654-9.207,2.723" transform="translate(-33.495 -92.009)" fill="#262525"/>
          <path id="Trazado_997011" data-name="Trazado 997011" d="M261.458,415.288c-3.546,0-7.686-3.083-9.8-5.2l.495-.494c2.113,2.114,8.381,6.971,11.952,4.113,3.495-2.8-.8-11.146-.843-11.231l.618-.322c.19.363,4.6,8.946.662,12.1a4.8,4.8,0,0,1-3.081,1.035" transform="translate(-31.64 -112.224)" fill="#262525"/>
          <rect id="Rectángulo_409910" data-name="Rectángulo 409910" width="85.816" height="0.699" transform="translate(227.79 438.514) rotate(-88.709)" fill="#262525"/>
          <path id="Trazado_997012" data-name="Trazado 997012" d="M283.986,405.114a35.827,35.827,0,0,1-4.588-.767l.22-.663a36.043,36.043,0,0,0,4.444.737Z" transform="translate(-35.163 -112.419)" fill="#262525"/>
          <path id="Trazado_997013" data-name="Trazado 997013" d="M404.891,381.129s3.839-1.721,6.015.254.842,6.816,1.874,9.119,7.064,2.182,10.384,3.829,5.1,3.983,4.945,7.742a24.892,24.892,0,0,1-.6,5.248s7.191-.826,11.184,2.732,5.21,10.39,3.923,14.1-4.751,5.448-9.278,5.634-54.212-9.449-54.915-10.609-.9-14.349,1.483-17.262,13.2-18.274,13.2-18.274,2.43-4.039,6.254-5.385,5.968,1.383,5.528,2.87" transform="translate(-47.679 -109.144)" fill="#262525"/>
          <path id="Trazado_997014" data-name="Trazado 997014" d="M444.466,454.844s5.631,29.769,9.064,52.359c3.86,25.4,7.86,59.84,7.86,59.84L443.72,566.3,424.792,460.959Z" transform="translate(-53.627 -118.916)" fill="#d1866f"/>
          <path id="Trazado_997015" data-name="Trazado 997015" d="M379.5,390.273l-2.188-108.357-14.2-3.72L360.06,395.263Z" transform="translate(-45.407 -96.482)" fill="#d1866f"/>
          <path id="Trazado_997016" data-name="Trazado 997016" d="M384.29,418.353l-1.9-17.405-27.572,1.846s1,12.095,2.493,21.2l1.5,9.1a48.726,48.726,0,0,0-6.4,8.768,5.149,5.149,0,0,0,4.945,7.742l-2.077,40.211,52.93,4.122,8.8-47.836L404.624,418.46Z" transform="translate(-44.349 -112.071)" fill="#8787e8"/>
          <path id="Trazado_997017" data-name="Trazado 997017" d="M398.406,262.929c-2.656.145-15.9,4.605-15.9,4.605s10.645-4.99,12.268-6.228,2.494-2.533-.192-2.051-16.83,6.574-16.83,6.574,10.677-5.328,13.079-6.849,2.9-2.842.589-2.333-16.516,7.276-16.516,7.276,14.733-8.424,14.794-9.1-2.251-.165-5.779,1.274-17.824,9.215-19.944,11.775a8.584,8.584,0,0,0-1.675,5.987c-.092,1.011,1.509,4.183,4.823,5.1s20.78-.176,23.842-.63,3.559-1.776,2.12-2.56-10.724-1.8-11.909-1.89c-2.251-.165-1.814-.812-1.814-.812s13.768-6.119,16.516-7.275,5.181-3.014,2.526-2.87" transform="translate(-45.687 -93.477)" fill="#d1866f"/>
          <path id="Trazado_997018" data-name="Trazado 997018" d="M402.5,399.147l3.732,18.612,2.24.471s-11.115,13.465-15.362,15.923-7.63,2.313-9.822.714-1.218-6.831.821-10.511a52.727,52.727,0,0,1,4.03-6.232l3.4-.233.149-12.422Z" transform="translate(-48.199 -111.842)" fill="#d1866f"/>
          <path id="Trazado_997019" data-name="Trazado 997019" d="M408.442,397.122s3.415-.609,4.856.959-1.679,4.072-5.078,4.3-3.712-1.287-3.712-1.287Z" transform="translate(-51.051 -111.571)" fill="#d1866f"/>
          <path id="Trazado_997020" data-name="Trazado 997020" d="M394.6,383.877s.112-2.631-1.721-3.839-3.071,1.376-3.166,3.632.952,4.183,1.329,4.2,3.558-3.992,3.558-3.992" transform="translate(-49.172 -109.377)" fill="#d1866f"/>
          <path id="Trazado_997021" data-name="Trazado 997021" d="M395.52,382.4s5.184,2.1,9.023.382c0,0-1.679,4.073-.319,7.519s3.6,3.919,3.6,3.919-5.867,7-11.843,9.336-8.184,1.116-10.016-.092-2.409-5.375.853-11.263a33.825,33.825,0,0,1,8.7-9.8" transform="translate(-48.508 -109.716)" fill="#d1866f"/>
          <path id="Trazado_997022" data-name="Trazado 997022" d="M396.916,393.711c-3.238-.957-3.221-1.363-3.21-1.606s.025-.578,5.6-3.456l.321.621c-2.092,1.08-4.362,2.336-5.064,2.841a18.074,18.074,0,0,0,2.556.93Z" transform="translate(-49.679 -110.509)" fill="#262525"/>
          <rect id="Rectángulo_409911" data-name="Rectángulo 409911" width="0.699" height="6.668" transform="matrix(0.323, -0.947, 0.947, 0.323, 341.552, 283.71)" fill="#262525"/>
          <rect id="Rectángulo_409912" data-name="Rectángulo 409912" width="0.699" height="3.569" transform="matrix(0.356, -0.934, 0.934, 0.356, 351.914, 278.872)" fill="#262525"/>
          <rect id="Rectángulo_409913" data-name="Rectángulo 409913" width="0.698" height="2.409" transform="matrix(0.807, -0.591, 0.591, 0.807, 346.684, 274.018)" fill="#262525"/>
          <path id="Trazado_997023" data-name="Trazado 997023" d="M392.885,385.27l-.679-.165a3.069,3.069,0,0,0-.543-2.722l.515-.471a3.773,3.773,0,0,1,.707,3.358" transform="translate(-49.42 -109.654)" fill="#262525"/>
          <path id="Trazado_997024" data-name="Trazado 997024" d="M408.143,399.911l-.232-.658a7.651,7.651,0,0,1,3.974-.227l-.165.679a7.067,7.067,0,0,0-3.577.206" transform="translate(-51.483 -111.806)" fill="#262525"/>
          <path id="Trazado_997025" data-name="Trazado 997025" d="M393.089,407.9l-.163-.678c2.58-.622,7.157-3.389,7.2-3.417l.362.6c-.191.116-4.716,2.853-7.4,3.5" transform="translate(-49.58 -112.435)" fill="#262525"/>
          <path id="Trazado_997026" data-name="Trazado 997026" d="M396.758,387.077a.429.429,0,0,0-.109-.187.423.423,0,0,0-.176-.124.417.417,0,0,0-.215-.058.634.634,0,0,0-.3.072.558.558,0,0,0-.216.061.676.676,0,0,0-.078.045,2.24,2.24,0,0,0-.182.132.821.821,0,0,0-.067.066c-.05.056-.1.113-.144.173a1.386,1.386,0,0,0-.145.281,1.36,1.36,0,0,0-.074.317.636.636,0,0,0,.148.406l.111.093a.575.575,0,0,0,.281.089,1.438,1.438,0,0,0,.265-.031,1.373,1.373,0,0,0,.245-.09.647.647,0,0,0,.107-.062,1.445,1.445,0,0,0,.207-.157,1.163,1.163,0,0,0,.232-.3,1.357,1.357,0,0,0,.1-.24,3.374,3.374,0,0,0,.045-.264.427.427,0,0,0-.039-.219" transform="translate(-49.85 -110.263)" fill="#262525"/>
          <path id="Trazado_997027" data-name="Trazado 997027" d="M403.387,391.96a.506.506,0,0,0-.285-.311.417.417,0,0,0-.215-.058.635.635,0,0,0-.3.072.558.558,0,0,0-.216.061.7.7,0,0,0-.078.045,2.221,2.221,0,0,0-.182.132.806.806,0,0,0-.067.066c-.05.056-.1.113-.144.173a1.409,1.409,0,0,0-.145.281,1.318,1.318,0,0,0-.073.317.413.413,0,0,0,.039.22.418.418,0,0,0,.108.186l.111.093a.574.574,0,0,0,.281.089,1.432,1.432,0,0,0,.265-.031,1.374,1.374,0,0,0,.245-.09.6.6,0,0,0,.107-.062,1.443,1.443,0,0,0,.207-.157,1.183,1.183,0,0,0,.233-.3,1.418,1.418,0,0,0,.1-.24,3.362,3.362,0,0,0,.045-.264.427.427,0,0,0-.039-.219" transform="translate(-50.692 -110.883)" fill="#262525"/>
          <path id="Trazado_997028" data-name="Trazado 997028" d="M369.327,277.921l-.375-.589c2.609-1.659,7.775-1.921,7.994-1.931l.032.7c-.051,0-5.2.264-7.651,1.823" transform="translate(-46.536 -96.127)" fill="#262525"/>
          <path id="Trazado_997029" data-name="Trazado 997029" d="M373.439,284.1a14.176,14.176,0,0,1-6.851-1.466l.347-.607c4.094,2.341,11.087.959,11.156.945l.14.685a26.436,26.436,0,0,1-4.791.443" transform="translate(-46.236 -96.969)" fill="#262525"/>
          <path id="Trazado_997030" data-name="Trazado 997030" d="M392.749,463.32q-.466,0-.949-.045a3.607,3.607,0,0,1-3.179-1.876c-1.605-3.31,2.471-9.7,2.645-9.972l.587.379c-.04.063-4.039,6.331-2.6,9.288a2.925,2.925,0,0,0,2.618,1.485c6.819.667,11.206-6.428,11.25-6.5l.6.362c-.044.073-4.253,6.879-10.964,6.879" transform="translate(-48.986 -118.482)" fill="#262525"/>
          <path id="Trazado_997031" data-name="Trazado 997031" d="M412.319,421.007a68.718,68.718,0,0,1,20.407,7.266c10.3,5.709,18.453,26.768,18.453,26.768l-27.451,7.878-4.373-21.277Z" transform="translate(-52.043 -114.619)" fill="#8787e8"/>
          <path id="Trazado_997032" data-name="Trazado 997032" d="M423.492,461.756,419.987,444.7l.684-.14,3.505,17.052Z" transform="translate(-53.017 -117.61)" fill="#262525"/>
          <rect id="Rectángulo_409914" data-name="Rectángulo 409914" width="7.721" height="0.699" transform="translate(313.436 321.855) rotate(-40.642)" fill="#262525"/>
          <path id="Trazado_997033" data-name="Trazado 997033" d="M406.678,506.729a283.232,283.232,0,0,1,12.606,31.417c5.676,17.189,8.28,35.754,8.313,35s-87.943-4.473-87.943-4.473,7.517-43.744,14.142-67.006Z" transform="translate(-42.815 -124.862)" fill="#5757ce"/>
          <path id="Trazado_997034" data-name="Trazado 997034" d="M342.143,513.168s8.371,8.457,10.548,17.286a18.668,18.668,0,0,1-4.362,17.176l1.766,23.3-64.32.8L296,512.193Z" transform="translate(-35.973 -126.199)" fill="#f49292"/>
          <path id="Trazado_997035" data-name="Trazado 997035" d="M314.8,321.917l.408-20.6-15.58-.618-1.425,21.937Z" transform="translate(-37.552 -99.341)" fill="#f4b9a4"/>
          <path id="Trazado_997036" data-name="Trazado 997036" d="M315.131,435.582l-21.023,13.135s-7.634,2.942-7.493,8.328,6.567,5.823,6.567,5.823-.169,24.625.29,29.148a31.67,31.67,0,0,0,2.639,10.447l46.139.976s3.42-3.955,5.194-15.49c.927-6.025,1.143-32.709,1.143-32.709l-9.877-16.778L321,438.978Z" transform="translate(-36.079 -116.47)" fill="#ce4a4a"/>
          <path id="Trazado_997037" data-name="Trazado 997037" d="M317.319,421.937,315.8,315.2l-19.6-.921s-2.474,68.705-1.991,92.276,1.14,30.477,1.14,30.477Z" transform="translate(-37.035 -101.064)" fill="#ce4a4a"/>
          <path id="Trazado_997038" data-name="Trazado 997038" d="M343.93,402.766a3.254,3.254,0,0,1,3,1.746c1.336,2.005-1.235,23.7-1.235,23.7s-6.08-.753-14.2-2.55a50.164,50.164,0,0,1-14.959-6.349l9.024-19.635s-1.679-.931-1.206-1.174a24.974,24.974,0,0,1,10.074-3.108c5.232-.306,10.527,4.146,9.5,7.373" transform="translate(-39.88 -111.364)" fill="#262525"/>
          <path id="Trazado_997039" data-name="Trazado 997039" d="M325.281,400.3s-6.931,6.874-9.721,11.91-.592,9.29,3.58,9.83,9.976-1.559,15.276-5.794l5.3-4.235s-1.694-2.12-1.236-3.553a7.78,7.78,0,0,1,1.631-2.64,9.541,9.541,0,0,1-4.759.063c-2.151-.686-9.711-5.466-10.07-5.58" transform="translate(-39.597 -111.989)" fill="#f4b9a4"/>
          <path id="Trazado_997040" data-name="Trazado 997040" d="M325.033,403.942a4.339,4.339,0,0,0-1.839-4.141c-2.281-1.517-4.156.65-3.881,3.5a5.183,5.183,0,0,0,2.671,4.011Z" transform="translate(-40.228 -111.862)" fill="#f4b9a4"/>
          <path id="Trazado_997041" data-name="Trazado 997041" d="M339.852,414.563s3.325-.519,4.661,1.486-1.845,4.547-5.43,3.4-3.128-2.577-3.128-2.577Z" transform="translate(-42.343 -113.793)" fill="#f4b9a4"/>
          <path id="Trazado_997042" data-name="Trazado 997042" d="M327.553,409.752c-2.574-1.426-2.49-1.69-2.409-1.947.059-.183.132-.412,4.312-1.924l.237.656c-1.447.525-3.032,1.14-3.68,1.448a20.684,20.684,0,0,0,1.878,1.156Z" transform="translate(-40.969 -112.698)" fill="#262525"/>
          <path id="Trazado_997043" data-name="Trazado 997043" d="M337.063,408.194l-3.357-1.86.34-.61,3.357,1.86Z" transform="translate(-42.06 -112.678)" fill="#262525"/>
          <rect id="Rectángulo_409915" data-name="Rectángulo 409915" width="0.699" height="2.714" transform="matrix(0.781, -0.624, 0.624, 0.781, 285.174, 288.773)" fill="#262525"/>
          <rect id="Rectángulo_409916" data-name="Rectángulo 409916" width="0.699" height="6.127" transform="translate(280.989 297.369) rotate(-61.7)" fill="#262525"/>
          <path id="Trazado_997044" data-name="Trazado 997044" d="M323.224,403.748l-.694-.079a3.541,3.541,0,0,0-.3-1.9l.635-.29a4.235,4.235,0,0,1,.361,2.264" transform="translate(-40.602 -112.139)" fill="#262525"/>
          <path id="Trazado_997045" data-name="Trazado 997045" d="M343.037,417.161a4.319,4.319,0,0,0-3.172-.287l-.23-.66a4.961,4.961,0,0,1,3.741.336Z" transform="translate(-42.813 -113.98)" fill="#262525"/>
          <path id="Trazado_997046" data-name="Trazado 997046" d="M326.049,404.142a.559.559,0,0,0-.139-.382.549.549,0,0,0-.38-.179.6.6,0,0,0-.3.079l-.01,0a1.285,1.285,0,0,0-.23.087,1.035,1.035,0,0,0-.3.221,1.34,1.34,0,0,0-.155.193,1.4,1.4,0,0,0-.111.227.9.9,0,0,0-.044.18.928.928,0,0,0-.021.189.531.531,0,0,0,.06.269.4.4,0,0,0,.132.16.407.407,0,0,0,.183.107.545.545,0,0,0,.283.012,1.04,1.04,0,0,0,.362-.119,1.142,1.142,0,0,0,.31-.23,1.691,1.691,0,0,0,.162-.2,1.626,1.626,0,0,0,.118-.233.727.727,0,0,0,.04-.12,1.432,1.432,0,0,0,.04-.264" transform="translate(-40.873 -112.406)" fill="#262525"/>
          <path id="Trazado_997047" data-name="Trazado 997047" d="M333.09,409.3a.563.563,0,0,0-.139-.383.552.552,0,0,0-.38-.178.605.605,0,0,0-.3.079l-.01,0a1.276,1.276,0,0,0-.23.087,1.033,1.033,0,0,0-.3.221,1.389,1.389,0,0,0-.155.193,1.4,1.4,0,0,0-.111.227.909.909,0,0,0-.044.18.924.924,0,0,0-.021.189.531.531,0,0,0,.06.269.4.4,0,0,0,.132.16.406.406,0,0,0,.183.107.545.545,0,0,0,.283.012,1.042,1.042,0,0,0,.361-.119,1.142,1.142,0,0,0,.31-.23,1.7,1.7,0,0,0,.162-.2,1.63,1.63,0,0,0,.118-.233.728.728,0,0,0,.04-.12,1.432,1.432,0,0,0,.04-.264" transform="translate(-41.767 -113.061)" fill="#262525"/>
          <path id="Trazado_997048" data-name="Trazado 997048" d="M334.833,414.816,336.39,433.1l6.381,2.726a17.478,17.478,0,0,1-10.493,4.928c-6.634.673-11.974-1.475-13.177-3.231s.091-4.577.091-4.577l3.7.692-.675-12.76Z" transform="translate(-40.14 -113.832)" fill="#f4b9a4"/>
          <path id="Trazado_997049" data-name="Trazado 997049" d="M322.444,425.617l-.083-.694a23.584,23.584,0,0,0,7.106-2.515l.32.621a23.789,23.789,0,0,1-7.344,2.588" transform="translate(-40.619 -114.797)" fill="#262525"/>
          <path id="Trazado_997050" data-name="Trazado 997050" d="M346.288,438.881s20.064,7.461,27.514,16.633c10.268,12.639,8.452,38.715,9.341,62.616s1.752,45.883,1.752,45.883l-24.62-3.457-5.543-101.337Z" transform="translate(-43.658 -116.888)" fill="#ce4a4a"/>
          <path id="Trazado_997051" data-name="Trazado 997051" d="M323.025,475.367a5.437,5.437,0,0,1-3.088-.856c-4.965-3.323-1.313-10.548-1.275-10.62l.621.32c-.034.066-3.4,6.743,1.043,9.72,4.5,3.01,13.689-4.147,13.781-4.22l.432.548c-.321.253-6.556,5.108-11.514,5.108" transform="translate(-39.98 -120.064)" fill="#262525"/>
          <path id="Trazado_997052" data-name="Trazado 997052" d="M317.361,296.252s9.835-2.8,13.827-3.636,8.52-2.183,7.356-3.211-18.829,1.79-18.829,1.79,9.88-1.772,13.29-3.12,5.7-2.692,3.32-3.409-18.64,3.543-18.64,3.543,9.495-2.906,12.663-4.665,4.341-3.1,1.763-3.2-18.552,5.6-18.552,5.6,13.012-6.934,12.968-7.965-2.819-.51-7.2,1.561-17.3,8.7-20.037,12.62-1.487,7.015,3.176,8.759,15.849,1.722,19.545,1.818,8.806-.738,7.5-2.49-12.537-2.76-12.537-2.76c-.823-.926.394-1.238.394-1.238" transform="translate(-37.506 -96.39)" fill="#f4b9a4"/>
          <path id="Trazado_997053" data-name="Trazado 997053" d="M307.281,299.353l-.45-.533c3.561-3,8.782-1.536,9-1.471l-.195.671c-.05-.014-5.085-1.426-8.356,1.333" transform="translate(-38.647 -98.862)" fill="#262525"/>
          <rect id="Rectángulo_409917" data-name="Rectángulo 409917" width="51.276" height="0.698" transform="translate(269.758 446.632) rotate(-85.266)" fill="#262525"/>
          <path id="Trazado_997054" data-name="Trazado 997054" d="M342.8,569.479l-2.269-56.357.7-.027,2.269,56.357Z" transform="translate(-42.927 -126.313)" fill="#262525"/>
          <path id="Trazado_997055" data-name="Trazado 997055" d="M339.754,530.265c-.386,0-5.746-.051-9.813-2.713-4.214-2.76-3.518-14.275-3.486-14.764l.7.045c-.008.115-.7,11.6,3.17,14.134,3.932,2.574,9.315,2.6,9.442,2.6h0l0,.7Z" transform="translate(-41.131 -126.274)" fill="#262525"/>
          <path id="Trazado_997056" data-name="Trazado 997056" d="M295.464,528.345a3.9,3.9,0,0,1-1.049-.128l.2-.669a4.7,4.7,0,0,0,4.614-1.734c2.3-2.5,3.509-13.411,3.521-13.521l.694.075c-.05.459-1.248,11.251-3.7,13.918a5.753,5.753,0,0,1-4.28,2.058" transform="translate(-37.07 -126.212)" fill="#262525"/>
          <rect id="Rectángulo_409918" data-name="Rectángulo 409918" width="8.176" height="0.699" transform="translate(256.838 332.399) rotate(-17.892)" fill="#262525"/>
          <rect id="Rectángulo_409919" data-name="Rectángulo 409919" width="0.699" height="25.437" transform="translate(310.727 342.35) rotate(-3.13)" fill="#262525"/>
          <path id="Trazado_997057" data-name="Trazado 997057" d="M312.364,306.253a27.973,27.973,0,0,1-7.263-.7l.217-.664c3.023.987,10.618.578,10.7.574l.039.7c-.141.008-1.712.093-3.688.093" transform="translate(-38.427 -99.872)" fill="#262525"/>
          <path id="Trazado_997058" data-name="Trazado 997058" d="M164.121,511.838s-9.407,13.923-13.546,30.48-7.9,33.866-7.9,33.866l72.249.753s.753-53.058-.376-74.13Z" transform="translate(-17.8 -125.007)" fill="#ce4a4a"/>
          <path id="Trazado_997059" data-name="Trazado 997059" d="M154.214,495.473l-20.7,79.022H112.069l19.944-82.032Z" transform="translate(-13.913 -123.693)" fill="#843624"/>
          <path id="Trazado_997060" data-name="Trazado 997060" d="M214.162,434.738s9.408,1.881,11.665,7.526-1.881,9.407-5.644,10.536l-1.129,43.274-55.693,9.408s1.13-35.372.376-40.64,12.418-35.372,12.418-35.372l17.686-3.386s19.384,7.081,20.32,8.655" transform="translate(-20.427 -115.263)" fill="#f49292"/>
          <path id="Trazado_997061" data-name="Trazado 997061" d="M230.289,293.312,225.27,390.55l-20.691-1.582L214.7,296.121Z" transform="translate(-25.661 -98.402)" fill="#843624"/>
          <path id="Trazado_997062" data-name="Trazado 997062" d="M230.8,390.95,224.4,433.1l-24.835-7.9,2.634-35.748Z" transform="translate(-25.025 -110.61)" fill="#f49292"/>
          <path id="Trazado_997063" data-name="Trazado 997063" d="M227.155,283.661c-2.289-2.453-23.184-15.562-24.578-14.4s1.582,3.331,4.238,4.9,8.3,5,8.3,5-14.677-6.664-16.021-7-2.726.527-.746,2.074,14.3,7.852,14.3,7.852-16.358-7.008-18.07-6.454-.07,2.093,2.587,3.657,13.683,6.041,13.683,6.041-17.4-6.137-19.115-5.584-1.065,1.468,1.93,3.042,17.374,7.035,18.03,7.649.966,1.522-.05,1.495c0,0-10.17.333-10.588,2.717s13.852.959,17.255.449,9.583-3.042,10.667-5.107.469-3.877-1.82-6.33" transform="translate(-23.911 -95.338)" fill="#843624"/>
          <path id="Trazado_997064" data-name="Trazado 997064" d="M175.127,385.193a11.039,11.039,0,0,0-7.675-2.3c-4.6.383-3.837,4.988-3.837,4.988a7.414,7.414,0,0,0-6.14,0c-3.069,1.535-1.151,6.523-1.151,6.523s-4.221-.384-4.605,3.837,2.3,5.373,2.3,5.373a7.227,7.227,0,0,0,0,8.442c3.069,4.6,9.976,3.453,9.976,3.453s-1.535,4.221,4.221,5.372,9.209-4.221,9.977-6.523c0,0,6.14.767,10.361-2.3a17.4,17.4,0,0,0,5.756-7.291s3.069-.383,6.523-3.837a6.628,6.628,0,0,0,1.151-7.675,4.329,4.329,0,0,0,2.3-4.6,4.412,4.412,0,0,0-3.838-3.837,6.024,6.024,0,0,0-8.058-8.059,6.623,6.623,0,0,0-5.756-4.988c-4.988-.767-6.907,4.605-6.907,4.605s-1.747-1.839-4.6.383c-3.454,2.686,0,8.442,0,8.442" transform="translate(-18.944 -108.355)" fill="#262525"/>
          <path id="Trazado_997065" data-name="Trazado 997065" d="M181.366,403.919a6.3,6.3,0,0,0-1.124-5.1,4.118,4.118,0,0,0,3.5-1.708c1.447-1.923.106-4.969.106-4.969a4.187,4.187,0,0,0,3.371-.476,2.887,2.887,0,0,0,1.533-2.744s2.7,1.944,5.207,1.792c0,0,7.714,9.526,9.1,12.162s1.189,8.425-1.9,10.176-7.929.412-10.672-1.122-9.119-8.013-9.119-8.013" transform="translate(-22.571 -110.544)" fill="#843624"/>
          <path id="Trazado_997066" data-name="Trazado 997066" d="M196.675,394.435s-.554-2.628.869-4.314,3.771-.338,3.875,2.609-1.392,5.359-2.176,4.911-2.568-3.207-2.568-3.207" transform="translate(-24.644 -110.603)" fill="#843624"/>
          <path id="Trazado_997067" data-name="Trazado 997067" d="M182.156,405.307s-3.24-.34-4.809.74-2.5,3.057-.474,4.516,7.6.383,8.263-2.452-2.98-2.8-2.98-2.8" transform="translate(-21.995 -112.618)" fill="#843624"/>
          <path id="Trazado_997068" data-name="Trazado 997068" d="M193,400.462l-.273-.643a17.012,17.012,0,0,0,2.43-1.231c-.667-.265-2.588-.812-4.334-1.252l.171-.677c2.081.523,4.627,1.226,4.925,1.595l.11.135-.026.249c-.038.151-.152.609-3,1.823" transform="translate(-23.914 -111.527)" fill="#262525"/>
          <rect id="Rectángulo_409920" data-name="Rectángulo 409920" width="4.93" height="0.699" transform="translate(168.534 292.484) rotate(-30.829)" fill="#262525"/>
          <rect id="Rectángulo_409921" data-name="Rectángulo 409921" width="3.328" height="0.698" transform="translate(167.79 282.891) rotate(-54.263)" fill="#262525"/>
          <rect id="Rectángulo_409922" data-name="Rectángulo 409922" width="4.127" height="0.698" transform="translate(161.176 287.483) rotate(-30.829)" fill="#262525"/>
          <path id="Trazado_997069" data-name="Trazado 997069" d="M198.6,393.328a5,5,0,0,1,.494-2.63l.631.3a4.3,4.3,0,0,0-.43,2.266Z" transform="translate(-24.899 -110.77)" fill="#262525"/>
          <path id="Trazado_997070" data-name="Trazado 997070" d="M177.66,408.629l-.44-.542c1.457-1.181,4.762-.849,4.9-.833l-.072.694c-.032,0-3.157-.316-4.389.681" transform="translate(-22.187 -112.865)" fill="#262525"/>
          <path id="Trazado_997071" data-name="Trazado 997071" d="M188.7,401.019a.547.547,0,0,0-.018-.106,1.13,1.13,0,0,0-.214-.46.587.587,0,0,0-.067-.079,1.4,1.4,0,0,0-.189-.169,1.352,1.352,0,0,0-.228-.126,1.322,1.322,0,0,0-.257-.069.7.7,0,0,0-.455.135.458.458,0,0,0-.148.184.463.463,0,0,0-.078.232c0,.055,0,.11,0,.166a2.023,2.023,0,0,1,.076.318,1.694,1.694,0,0,0,.15.265.856.856,0,0,0,.094.123c.051.055.107.106.162.156.019.017.038.033.058.049a1.694,1.694,0,0,0,.269.157.622.622,0,0,0,.327.035.688.688,0,0,0,.4-.244.622.622,0,0,0,.117-.3,1.35,1.35,0,0,0,0-.265" transform="translate(-23.436 -111.951)" fill="#262525"/>
          <path id="Trazado_997072" data-name="Trazado 997072" d="M196.37,395.281a.628.628,0,0,0-.018-.106,1.131,1.131,0,0,0-.214-.46.585.585,0,0,0-.067-.079,1.392,1.392,0,0,0-.189-.169,1.349,1.349,0,0,0-.228-.126,1.328,1.328,0,0,0-.257-.069.7.7,0,0,0-.455.135.458.458,0,0,0-.148.184.473.473,0,0,0-.079.232l.005.166a2.007,2.007,0,0,1,.076.319,1.651,1.651,0,0,0,.15.264.815.815,0,0,0,.094.123c.051.055.107.106.161.156a.63.63,0,0,0,.058.049,1.789,1.789,0,0,0,.268.158.634.634,0,0,0,.327.034.471.471,0,0,0,.222-.088.466.466,0,0,0,.176-.156.619.619,0,0,0,.117-.3,1.351,1.351,0,0,0,0-.265" transform="translate(-24.409 -111.223)" fill="#262525"/>
          <path id="Trazado_997073" data-name="Trazado 997073" d="M183.733,406.937l-1.409,16.883-4.227,3.07a12.678,12.678,0,0,0,9.714,5.792c15.8,1.129,9.031-8.655,9.031-8.655l-1.132-.208.353-11.895Z" transform="translate(-22.298 -112.832)" fill="#843624"/>
          <path id="Trazado_997074" data-name="Trazado 997074" d="M197.224,417.224a18.687,18.687,0,0,1-8.814-3.454l.411-.565a18.3,18.3,0,0,0,8.453,3.321Z" transform="translate(-23.608 -113.628)" fill="#262525"/>
          <path id="Trazado_997075" data-name="Trazado 997075" d="M227.7,291.354c-.047-.016-4.769-1.587-7.6-.5l-.25-.652c3.065-1.172,7.868.427,8.072.495Z" transform="translate(-27.601 -97.952)" fill="#262525"/>
          <path id="Trazado_997076" data-name="Trazado 997076" d="M171.12,429.962s-18.062,9.031-27.093,17.686-20.32,43.65-20.32,43.65l33.49,4.515,9.784-39.135Z" transform="translate(-15.391 -115.756)" fill="#f49292"/>
          <path id="Trazado_997077" data-name="Trazado 997077" d="M196.671,466.869c-4.62,0-9.111-4.575-9.352-4.825l.5-.486c.072.075,7.278,7.414,12.394,3.371,5.1-4.028.333-10.585.128-10.862l.561-.417c.054.073,5.372,7.378-.257,11.826a6.251,6.251,0,0,1-3.977,1.393" transform="translate(-23.469 -118.764)" fill="#262525"/>
          <path id="Trazado_997078" data-name="Trazado 997078" d="M227.749,438.533c-.049-.018-4.95-1.807-7.491-1.807v-.7c2.666,0,7.526,1.776,7.732,1.852Z" transform="translate(-27.653 -116.526)" fill="#262525"/>
          <rect id="Rectángulo_409923" data-name="Rectángulo 409923" width="31.399" height="0.698" transform="translate(143.778 370.692) rotate(-76.034)" fill="#262525"/>
          <rect id="Rectángulo_409924" data-name="Rectángulo 409924" width="68.587" height="0.698" transform="translate(182.491 451.774) rotate(-88.711)" fill="#262525"/>
          <path id="Trazado_997079" data-name="Trazado 997079" d="M206.242,515.94a1.13,1.13,0,0,0,0,2.258,1.13,1.13,0,0,0,0-2.258" transform="translate(-25.734 -126.675)" fill="#262525"/>
          <path id="Trazado_997080" data-name="Trazado 997080" d="M206.609,538.754a.845.845,0,0,0-.233-.363,1.254,1.254,0,0,0-.8-.331l-.3.04a1.124,1.124,0,0,0-.5.291l-.176.228a1.129,1.129,0,0,0-.155.57v.288a.847.847,0,0,0,.1.435.855.855,0,0,0,.234.363,1.254,1.254,0,0,0,.8.33l.3-.04a1.13,1.13,0,0,0,.5-.29c.058-.076.117-.153.176-.229a1.117,1.117,0,0,0,.154-.57v-.288a.847.847,0,0,0-.1-.435" transform="translate(-25.645 -129.484)" fill="#262525"/>
          <path id="Trazado_997081" data-name="Trazado 997081" d="M204.922,562.822a1.129,1.129,0,0,0,0,2.258,1.129,1.129,0,0,0,0-2.258" transform="translate(-25.566 -132.628)" fill="#262525"/>
          <path id="Trazado_997082" data-name="Trazado 997082" d="M216.025,299.888l-.117-.689c.072-.012,7.214-1.234,10.484-2.55l.261.649c-3.34,1.344-10.332,2.54-10.628,2.59" transform="translate(-27.1 -98.826)" fill="#262525"/>
          <path id="Trazado_997083" data-name="Trazado 997083" d="M246.818,0s9.628,93.861,8.649,94.684-60.332.733-76.638,1.945-34.244,3.8-39.079,6.752-6.283,13.064-6.283,13.064-10.118,2.4-13.557,8.623-3.336,28.92-3.336,28.92a102.482,102.482,0,0,0-5.744,20.945c-1.463,10.4-.132,27.336,5.851,32.584s15.9,2.129,19.628-5.117c5.543-10.774,2.342-27.807,5.366-32.018s7.838-19.093,17.079-22.7a62.405,62.405,0,0,1,16.765-4.1s-13.645,10.364-18.165,19.444-7.167,24.363-6.565,37.193,2.547,17.582,7.655,21.622,17.333,3.2,20.855-10.872c3-11.993,1.928-25.792,1.928-25.792s17.2-18.911,21.977-20.706,56.775-16.911,74.551-16.3,26.887-.387,28.906,2.915,12.285,22.729,13.594,27.74-8.3,21.979-7.9,32.762,12.772,19.262,24.7,12.011,21.365-27.136,20.683-50.733a120.255,120.255,0,0,0-9.121-42.058s5.034-19.235,1.789-35.4S340.847.1,340.847.1Z" transform="translate(-13.686 -61.153)" fill="#c0c0f9"/>
          <path id="Trazado_997084" data-name="Trazado 997084" d="M183.35,162.037l-.373-.591c14.4-9.082,68.792-22.3,69.34-22.434l.163.679c-.546.132-54.824,13.326-69.131,22.346" transform="translate(-22.918 -78.807)" fill="#262525"/>
          <path id="Trazado_997085" data-name="Trazado 997085" d="M117.766,170.115l-.65-.253c.061-.157,6.189-15.821,11.821-22.77,5.682-7.007,82.658-20.527,85.933-21.1l.12.688c-.8.141-79.993,14.046-85.511,20.852-5.564,6.864-11.652,22.427-11.713,22.583" transform="translate(-14.554 -77.153)" fill="#262525"/>
          <path id="Trazado_997086" data-name="Trazado 997086" d="M138.164,130.909l-.478-.51c2.994-2.8,55.411-11.646,57.641-12.02l.116.688c-15.133,2.547-54.922,9.638-57.28,11.842" transform="translate(-17.166 -76.186)" fill="#262525"/>
          <path id="Trazado_997087" data-name="Trazado 997087" d="M160.147,245.691l-.039-.7c3.722-.21,7.909-.811,8.205-1.371.292-.9-.165-13.928-2.753-19.068-2.38-4.726-8.854-2.173-9.129-2.062l-.262-.647c.072-.031,7.346-2.906,10.015,2.4,2.622,5.207,3.19,18.371,2.792,19.6s-6.307,1.7-8.829,1.847" transform="translate(-19.514 -89.224)" fill="#262525"/>
          <path id="Trazado_997088" data-name="Trazado 997088" d="M113.609,228.854l-.057-.7c1.791-.147,6.66-.808,7.677-2.087,1.214-1.526.3-13.347-2.217-18.352-2.407-4.78-7.8-3.733-7.855-3.722l-.141-.684c.059-.012,5.974-1.161,8.62,4.092,2.568,5.1,3.636,17.218,2.138,19.1-1.388,1.745-7.476,2.292-8.166,2.348" transform="translate(-13.779 -86.958)" fill="#262525"/>
          <path id="Trazado_997089" data-name="Trazado 997089" d="M307.548,112.937c-13.453-2.4-30.828-4.165-31-4.183l.07-.694c.175.017,17.575,1.781,31.055,4.19Z" transform="translate(-34.801 -74.876)" fill="#262525"/>
          <path id="Trazado_997090" data-name="Trazado 997090" d="M372.5,249.09l-12.218-4.382.1-.321c.244-.766,6.087-18.8,14.756-22.46,8.771-3.7,12.053.647,12.188.834l-.565.41c-.124-.167-3.124-4.072-11.353-.6-7.758,3.274-13.42,19.238-14.254,21.708l11.58,4.153Z" transform="translate(-45.435 -89.148)" fill="#262525"/>
        </g>
      </g>
    </g>
  </g>
</svg>
