<svg xmlns="http://www.w3.org/2000/svg" xmlns:xlink="http://www.w3.org/1999/xlink" width="110" height="110" viewBox="0 0 110 110">
  <defs>
    <filter id="Trazado_982547" x="0" y="0" width="110" height="110" filterUnits="userSpaceOnUse">
      <feOffset dy="3" input="SourceAlpha"/>
      <feGaussianBlur stdDeviation="3" result="blur"/>
      <feFlood flood-opacity="0.161"/>
      <feComposite operator="in" in2="blur"/>
      <feComposite in="SourceGraphic"/>
    </filter>
  </defs>
  <g id="Grupo_1159329" data-name="Grupo 1159329" transform="translate(-1612 -3891.649)">
    <g id="Grupo_1158898" data-name="Grupo 1158898" transform="translate(496 85.649)">
      <g id="Grupo_1157406" data-name="Grupo 1157406" transform="translate(1 3016)">
        <g id="Grupo_1155793" data-name="Grupo 1155793" transform="translate(-0.999 -3894)">
          <g id="Grupo_1154704" data-name="Grupo 1154704" transform="translate(0 1466)">
            <g id="Grupo_1150790" data-name="Grupo 1150790" transform="translate(3 2320)">
              <g id="Grupo_1154214" data-name="Grupo 1154214" transform="translate(79 -5809)">
                <g id="Grupo_1152583" data-name="Grupo 1152583" transform="translate(1043 6713)">
                  <g id="Grupo_1146973" data-name="Grupo 1146973" transform="translate(0 0)">
                    <g id="Grupo_1146954" data-name="Grupo 1146954">
                      <g transform="matrix(1, 0, 0, 1, -9, -6)" filter="url(#Trazado_982547)">
                        <g id="Trazado_982547-2" data-name="Trazado 982547" transform="translate(9 6)" fill="#fef4f5">
                          <path d="M 46 90.49987030029297 C 39.99187850952148 90.49987030029297 34.16426849365234 89.32350921630859 28.67905426025391 87.00345611572266 C 23.38019943237305 84.76224517822266 18.62104034423828 81.55341339111328 14.53374671936035 77.46613311767578 C 10.44646644592285 73.37885284423828 7.237639904022217 68.61969757080078 4.996413230895996 63.32085418701172 C 2.676359891891479 57.83565521240234 1.5 52.008056640625 1.5 45.99993515014648 C 1.5 39.99181365966797 2.676359891891479 34.16421508789062 4.996413230895996 28.67901420593262 C 7.237639904022217 23.38017463684082 10.44646644592285 18.62101554870605 14.53374671936035 14.53373527526855 C 18.62104034423828 10.44645500183105 23.38019943237305 7.23762845993042 28.67905426025391 4.996415138244629 C 34.16426849365234 2.676361799240112 39.99187850952148 1.500001788139343 46 1.500001788139343 C 52.00812149047852 1.500001788139343 57.83573150634766 2.676361799240112 63.32094573974609 4.996415138244629 C 68.61979675292969 7.23762845993042 73.37895965576172 10.44645500183105 77.46625518798828 14.53373527526855 C 81.55353546142578 18.62101554870605 84.76235961914062 23.38017463684082 87.00358581542969 28.67901420593262 C 89.32363891601562 34.16421508789062 90.5 39.99181365966797 90.5 45.99993515014648 C 90.5 52.008056640625 89.32363891601562 57.83565521240234 87.00358581542969 63.32085418701172 C 84.76235961914062 68.61969757080078 81.55353546142578 73.37885284423828 77.46625518798828 77.46613311767578 C 73.37895965576172 81.55341339111328 68.61979675292969 84.76224517822266 63.32094573974609 87.00345611572266 C 57.83573150634766 89.32350921630859 52.00812149047852 90.49987030029297 46 90.49987030029297 Z" stroke="none"/>
                          <path d="M 46 2.999992370605469 C 40.1937141418457 2.999992370605469 34.56269836425781 4.136489868164062 29.26337051391602 6.377906799316406 C 24.14332580566406 8.543502807617188 19.54441070556641 11.64437866210938 15.59439849853516 15.59437561035156 C 11.64440155029297 19.54439544677734 8.54351806640625 24.14329528808594 6.377914428710938 29.26333618164062 C 4.136497497558594 34.56264877319336 3 40.19366455078125 3 45.99993515014648 C 3 51.80620574951172 4.136497497558594 57.43720626831055 6.377914428710938 62.73651885986328 C 8.54351806640625 67.8565673828125 11.64440155029297 72.45545959472656 15.59439849853516 76.40547943115234 C 19.54441070556641 80.35547637939453 24.14332580566406 83.45635223388672 29.26337051391602 85.6219482421875 C 34.56269836425781 87.86336517333984 40.1937141418457 88.99986267089844 46 88.99986267089844 C 51.8062858581543 88.99986267089844 57.43730163574219 87.86336517333984 62.73661422729492 85.6219482421875 C 67.85667419433594 83.45635223388672 72.45557403564453 80.35547637939453 76.40558624267578 76.40547943115234 C 80.35559844970703 72.45545959472656 83.45647430419922 67.8565673828125 85.6220703125 62.73651885986328 C 87.86350250244141 57.43720626831055 89 51.80620574951172 89 45.99993515014648 C 89 40.19366455078125 87.86350250244141 34.56264877319336 85.6220703125 29.26333618164062 C 83.45647430419922 24.14329528808594 80.35559844970703 19.54439544677734 76.40558624267578 15.59437561035156 C 72.45557403564453 11.64437866210938 67.85667419433594 8.543502807617188 62.73661422729492 6.377906799316406 C 57.43730163574219 4.136489868164062 51.8062858581543 2.999992370605469 46 2.999992370605469 M 46 -7.62939453125e-06 C 71.40509033203125 -7.62939453125e-06 92 20.59486389160156 92 45.99993515014648 C 92 71.40499114990234 71.40509033203125 91.99986267089844 46 91.99986267089844 C 20.59490203857422 91.99986267089844 0 71.40499114990234 0 45.99993515014648 C 0 20.59486389160156 20.59490203857422 -7.62939453125e-06 46 -7.62939453125e-06 Z" stroke="none" fill="#ff7f8f"/>
                        </g>
                      </g>
                    </g>
                  </g>
                </g>
              </g>
            </g>
          </g>
        </g>
      </g>
    </g>
    <g id="surface1" transform="translate(1643.918 3910.709)">
      <path id="Trazado_995053" data-name="Trazado 995053" d="M50.783,343.958a3.831,3.831,0,0,1-3.831,3.832H12.613a3.832,3.832,0,0,1-3.832-3.832,17.452,17.452,0,0,1,5.128-12.38c.038-.038.074-.074.111-.109,1.908-1.875,4.243-2.441,6.846-2.664a4.973,4.973,0,0,0,4.547-4.958v-5.339h8.738v5.339a4.973,4.973,0,0,0,4.547,4.958c2.521.217,4.792.752,6.667,2.49.061.057.121.114.18.173A17.458,17.458,0,0,1,50.783,343.958Zm0,0" transform="translate(-7.726 -282.882)" fill="#e3a76f"/>
      <path id="Trazado_995054" data-name="Trazado 995054" d="M90.625,343.958a3.831,3.831,0,0,1-3.831,3.832H57.472a3.832,3.832,0,0,1-3.832-3.832,17.454,17.454,0,0,1,5.128-12.38c.038-.038.074-.074.111-.109,1.909-1.875,4.243-2.441,6.846-2.664a4.973,4.973,0,0,0,4.547-4.958v-5.339h3.72v5.339a4.973,4.973,0,0,0,4.547,4.958c2.521.217,4.792.752,6.667,2.49.061.057.121.114.18.173A17.458,17.458,0,0,1,90.625,343.958Zm0,0" transform="translate(-47.568 -282.882)" fill="#f2bb88"/>
      <path id="Trazado_995055" data-name="Trazado 995055" d="M50.783,446.865a3.831,3.831,0,0,1-3.831,3.832H12.613a3.832,3.832,0,0,1-3.832-3.832,17.452,17.452,0,0,1,5.128-12.38c.038-.038.074-.074.111-.109,3.9,2.071,9.516,3.371,15.762,3.371s11.865-1.3,15.762-3.372A17.457,17.457,0,0,1,50.783,446.865Zm0,0" transform="translate(-7.726 -385.789)" fill="#a88ac8"/>
      <path id="Trazado_995056" data-name="Trazado 995056" d="M17.631,450.708H12.613a3.832,3.832,0,0,1-3.832-3.832,17.452,17.452,0,0,1,5.128-12.38c.038-.038.074-.074.111-.109a24.072,24.072,0,0,0,3.627,1.538A17.428,17.428,0,0,0,13.8,446.876,3.832,3.832,0,0,0,17.631,450.708Zm0,0" transform="translate(-7.726 -385.8)" fill="#9773bd"/>
      <path id="Trazado_995057" data-name="Trazado 995057" d="M51.757,202.425a4.937,4.937,0,1,1-4.937-4.937A4.937,4.937,0,0,1,51.757,202.425Zm0,0" transform="translate(-37.125 -175.399)" fill="#f2bb88"/>
      <path id="Trazado_995058" data-name="Trazado 995058" d="M272.785,202.433a4.937,4.937,0,1,1-4.937-4.937A4.937,4.937,0,0,1,272.785,202.433Zm0,0" transform="translate(-233.43 -175.406)" fill="#f2bb88"/>
      <path id="Trazado_995059" data-name="Trazado 995059" d="M107.447,21.541V38.274a12.837,12.837,0,1,1-25.674,0V21.541a12.837,12.837,0,1,1,25.674,0Zm0,0" transform="translate(-72.554 -7.73)" fill="#f2bb88"/>
      <path id="Trazado_995060" data-name="Trazado 995060" d="M52.327,204.9l3.263,12.033A21.149,21.149,0,0,1,54.93,230l-2,5.2a.992.992,0,0,1-1.907-.1l-1.746-6.145a21.186,21.186,0,0,1-.2-10.8Zm0,0" transform="translate(-42.982 -181.977)" fill="#644189"/>
      <path id="Trazado_995061" data-name="Trazado 995061" d="M107.447,21.536v8.038a.325.325,0,0,1-.22.314.315.315,0,0,1-.4-.206,12.838,12.838,0,0,0-21.165-5.272c-.045.043-.09.087-.134.131a12.806,12.806,0,0,0-3.476,6.388.143.143,0,0,1-.283-.03V21.681A12.932,12.932,0,0,1,94.491,8.7a13.085,13.085,0,0,1,2.066.146,12.84,12.84,0,0,1,10.89,12.691Zm0,0" transform="translate(-72.554 -7.725)" fill="#9773bd"/>
      <path id="Trazado_995062" data-name="Trazado 995062" d="M138.355,22.7v8.051a.316.316,0,0,1-.617.095,12.838,12.838,0,0,0-21.165-5.271V22.7a12.841,12.841,0,0,1,10.891-12.692A12.84,12.84,0,0,1,138.355,22.7Zm0,0" transform="translate(-103.462 -8.892)" fill="#a88ac8"/>
      <path id="Trazado_995063" data-name="Trazado 995063" d="M170.651,303.605a.973.973,0,0,0-.973.973,1.639,1.639,0,1,1-3.277,0,.973.973,0,0,0-.973-.973c-2,0-.832,4.558,2.612,4.558S172.65,303.605,170.651,303.605Zm0,0" transform="translate(-145.983 -269.646)"/>
      <path id="Trazado_995064" data-name="Trazado 995064" d="M245.771,238.521a1.552,1.552,0,1,1-1.552-1.552A1.552,1.552,0,0,1,245.771,238.521Zm0,0" transform="translate(-215.452 -210.464)"/>
      <path id="Trazado_995065" data-name="Trazado 995065" d="M235.742,197.614c-2.089-1.313-5.444-.664-5.82-.585a.973.973,0,0,0,.4,1.905c.753-.157,3.176-.434,4.387.328a.973.973,0,1,0,1.036-1.648Zm0,0" transform="translate(-203.444 -174.787)"/>
      <path id="Trazado_995066" data-name="Trazado 995066" d="M125.767,238.521a1.551,1.551,0,1,1-1.551-1.552A1.551,1.551,0,0,1,125.767,238.521Zm0,0" transform="translate(-108.871 -210.464)"/>
      <path id="Trazado_995067" data-name="Trazado 995067" d="M107.174,197.032c-.376-.078-3.731-.727-5.82.585a.973.973,0,1,0,1.036,1.648c1.21-.761,3.578-.495,4.389-.328a.973.973,0,0,0,.4-1.905Zm0,0" transform="translate(-89.54 -174.79)"/>
      <path id="Trazado_995068" data-name="Trazado 995068" d="M54.21,37.523c-1.844-1.628-.1-3.894-2.687-6.181a5,5,0,0,0-3.9-1.194,3.029,3.029,0,0,1-3.58-3.16,5,5,0,0,0-1.668-3.727c-1.792-1.582-3.475-1.122-4.742-1.192a5.826,5.826,0,0,0-1.763-.772V13.811a13.81,13.81,0,1,0-27.62,0V21.3a5.908,5.908,0,0,0-2.07,10.477L5.154,35.953a22.163,22.163,0,0,0-.63,4.938.974.974,0,0,0,.96.987H5.5a.973.973,0,0,0,.972-.959c.045-3.051.511-4.242,2.914-14.067a.069.069,0,0,0,.018,0c2.309,8.516,2.966,10.136,2.966,13.631a19.983,19.983,0,0,1-1.14,6.684c-.134.381-2.185,5.733-2.215,5.763-.013,0-1.957-6.54-2.258-8.309a.973.973,0,0,0-1.918.328A24.586,24.586,0,0,0,5.56,47.95a.343.343,0,0,0-.028.036H5.515A18.35,18.35,0,0,0,.082,61.076a4.8,4.8,0,0,0,4.8,4.8H39.225a4.783,4.783,0,0,0,2.611-.771.973.973,0,1,0-1.059-1.634c-1.105.717-2.005.364-4.253.458V57.382a.973.973,0,1,0-1.946,0v6.553H9.535V57.382a.973.973,0,0,0-1.946,0v6.553h-2.7a2.857,2.857,0,0,1-2.859-2.858A16.4,16.4,0,0,1,6.177,50.121l.93,3.274a1.966,1.966,0,0,0,3.751.18l.746-1.94c8.985,2.372,19.458,1.342,26.017-1.857a16.42,16.42,0,0,1,4.462,11.229.974.974,0,0,0,.973.97h0A.974.974,0,0,0,44.03,61a18.362,18.362,0,0,0-5.436-13.013h-.011a9.007,9.007,0,0,0-2.8-1.945.01.01,0,0,0-.007,0,11.292,11.292,0,0,0-2.385-.759c-2.337-.491-3.22-.08-4.617-1.286h0a4.094,4.094,0,0,1-.808-.97,13.892,13.892,0,0,0,6.376-6.183,7.613,7.613,0,0,0,.479,1.742c.959,2.383,2.374,2.063,3.069,3.789.711,1.767-.561,2.441.413,4.859A.973.973,0,0,0,40.11,46.5c-.712-1.767.561-2.442-.413-4.859-1.248-3.1-3.278-1.609-3.52-6.157A8.641,8.641,0,0,0,35.7,32.8h0a6.124,6.124,0,0,0,1.274-.442,5.138,5.138,0,0,0,.179.855,5.005,5.005,0,0,0,2.684,3.078,3.03,3.03,0,0,1,1.368,4.575,4.934,4.934,0,0,0,2.129,7.124,3.119,3.119,0,0,1,1.8,1.954A.973.973,0,1,0,47,49.384a5.005,5.005,0,0,0-2.684-3.078,3.119,3.119,0,0,1-1.8-1.954c-.7-2.357,1.976-3.357.987-6.667a5,5,0,0,0-2.684-3.078,3.12,3.12,0,0,1-1.8-1.954,2.846,2.846,0,0,1,.263-2.274,4.6,4.6,0,0,0,.629,1.77c1.747,2.954,4.3,1.659,5.537,3.757s-1.124,3.708.622,6.663a.973.973,0,0,0,1.676-.991c-1.24-2.1,1.125-3.708-.622-6.663A4.954,4.954,0,0,0,43.788,32.6a3.075,3.075,0,0,1-2.2-1.439c-1.212-2.052,1-3.585-.489-6.424a3.127,3.127,0,0,1,1,2.438,4.933,4.933,0,0,0,5.572,4.921,3.12,3.12,0,0,1,2.561.707c1.844,1.628.1,3.894,2.687,6.181a.973.973,0,0,0,1.289-1.459ZM6.7,29.625A3.966,3.966,0,0,1,8.24,23.339Zm3.49-15.813a11.864,11.864,0,1,1,23.727,0v5.02a13.815,13.815,0,0,0-23.727-.017Zm20.7,33.081a10.761,10.761,0,0,1,5.126,1.487c-6.193,2.726-15.664,3.5-23.709,1.43.458-1.219.731-1.824,1.064-2.931a5.957,5.957,0,0,0,4.606-3.139,13.828,13.828,0,0,0,8.162,0A5.92,5.92,0,0,0,30.89,46.892Zm-17-2.1a21.736,21.736,0,0,0,.373-2.851,13.927,13.927,0,0,0,1.879,1.082,3.971,3.971,0,0,1-2.251,1.767h0ZM33.92,30.544a11.879,11.879,0,0,1-19.627,8.964c-.17-3.957-1.1-5.6-3.825-16.17A11.661,11.661,0,0,1,13.982,17.2V19.01a1.395,1.395,0,1,0,1.946,0V15.73a11.644,11.644,0,0,1,2.532-1.148h0v2.654a1.394,1.394,0,1,0,1.946,0V14.143a11.913,11.913,0,0,1,3.3,0v3.092a1.4,1.4,0,1,0,1.946,0V14.587a11.747,11.747,0,0,1,2.532,1.151V19.01a1.4,1.4,0,1,0,1.946,0v-1.8a12.005,12.005,0,0,1,2.862,4.081,11.883,11.883,0,0,1,.607,1.856C34.1,25.277,33.85,26.5,33.92,30.544ZM37.6,29.39v0a3.988,3.988,0,0,1-1.732,1.327c0-.089,0-6.345,0-6.415,1.088.678,1.887.936,2.276,2.239C38.493,27.718,38.1,28.358,37.6,29.39Zm0,0"/>
    </g>
  </g>
</svg>
