<svg xmlns="http://www.w3.org/2000/svg" xmlns:xlink="http://www.w3.org/1999/xlink" width="110" height="110" viewBox="0 0 110 110">
  <defs>
    <filter id="Trazado_982547" x="0" y="0" width="110" height="110" filterUnits="userSpaceOnUse">
      <feOffset dy="3" input="SourceAlpha"/>
      <feGaussianBlur stdDeviation="3" result="blur"/>
      <feFlood flood-opacity="0.161"/>
      <feComposite operator="in" in2="blur"/>
      <feComposite in="SourceGraphic"/>
    </filter>
  </defs>
  <g id="Grupo_1159332" data-name="Grupo 1159332" transform="translate(-1297 -4208.649)">
    <g id="Grupo_1158899" data-name="Grupo 1158899" transform="translate(496 403.649)">
      <g id="Grupo_1157405" data-name="Grupo 1157405" transform="translate(1 3016)">
        <g id="Grupo_1155792" data-name="Grupo 1155792" transform="translate(-1 -3894.666)">
          <g id="Grupo_1154703" data-name="Grupo 1154703" transform="translate(0 1465.666)">
            <g id="Grupo_1150789" data-name="Grupo 1150789" transform="translate(3 2320)">
              <g id="Grupo_1154212" data-name="Grupo 1154212" transform="translate(-236 -5809)">
                <g id="Grupo_1152583" data-name="Grupo 1152583" transform="translate(1043 6713)">
                  <g id="Grupo_1146973" data-name="Grupo 1146973" transform="translate(0 0)">
                    <g id="Grupo_1146954" data-name="Grupo 1146954">
                      <g transform="matrix(1, 0, 0, 1, -9, -6)" filter="url(#Trazado_982547)">
                        <g id="Trazado_982547-2" data-name="Trazado 982547" transform="translate(9 6)" fill="#fef4f5">
                          <path d="M 46 90.49987030029297 C 39.99187850952148 90.49987030029297 34.16426849365234 89.32350921630859 28.67905426025391 87.00345611572266 C 23.38019943237305 84.76224517822266 18.62104034423828 81.55341339111328 14.53374671936035 77.46613311767578 C 10.44646644592285 73.37885284423828 7.237639904022217 68.61969757080078 4.996413230895996 63.32085418701172 C 2.676359891891479 57.83565521240234 1.5 52.008056640625 1.5 45.99993515014648 C 1.5 39.99181365966797 2.676359891891479 34.16421508789062 4.996413230895996 28.67901420593262 C 7.237639904022217 23.38017463684082 10.44646644592285 18.62101554870605 14.53374671936035 14.53373527526855 C 18.62104034423828 10.44645500183105 23.38019943237305 7.23762845993042 28.67905426025391 4.996415138244629 C 34.16426849365234 2.676361799240112 39.99187850952148 1.500001788139343 46 1.500001788139343 C 52.00812149047852 1.500001788139343 57.83573150634766 2.676361799240112 63.32094573974609 4.996415138244629 C 68.61979675292969 7.23762845993042 73.37895965576172 10.44645500183105 77.46625518798828 14.53373527526855 C 81.55353546142578 18.62101554870605 84.76235961914062 23.38017463684082 87.00358581542969 28.67901420593262 C 89.32363891601562 34.16421508789062 90.5 39.99181365966797 90.5 45.99993515014648 C 90.5 52.008056640625 89.32363891601562 57.83565521240234 87.00358581542969 63.32085418701172 C 84.76235961914062 68.61969757080078 81.55353546142578 73.37885284423828 77.46625518798828 77.46613311767578 C 73.37895965576172 81.55341339111328 68.61979675292969 84.76224517822266 63.32094573974609 87.00345611572266 C 57.83573150634766 89.32350921630859 52.00812149047852 90.49987030029297 46 90.49987030029297 Z" stroke="none"/>
                          <path d="M 46 2.999992370605469 C 40.1937141418457 2.999992370605469 34.56269836425781 4.136489868164062 29.26337051391602 6.377906799316406 C 24.14332580566406 8.543502807617188 19.54441070556641 11.64437866210938 15.59439849853516 15.59437561035156 C 11.64440155029297 19.54439544677734 8.54351806640625 24.14329528808594 6.377914428710938 29.26333618164062 C 4.136497497558594 34.56264877319336 3 40.19366455078125 3 45.99993515014648 C 3 51.80620574951172 4.136497497558594 57.43720626831055 6.377914428710938 62.73651885986328 C 8.54351806640625 67.8565673828125 11.64440155029297 72.45545959472656 15.59439849853516 76.40547943115234 C 19.54441070556641 80.35547637939453 24.14332580566406 83.45635223388672 29.26337051391602 85.6219482421875 C 34.56269836425781 87.86336517333984 40.1937141418457 88.99986267089844 46 88.99986267089844 C 51.8062858581543 88.99986267089844 57.43730163574219 87.86336517333984 62.73661422729492 85.6219482421875 C 67.85667419433594 83.45635223388672 72.45557403564453 80.35547637939453 76.40558624267578 76.40547943115234 C 80.35559844970703 72.45545959472656 83.45647430419922 67.8565673828125 85.6220703125 62.73651885986328 C 87.86350250244141 57.43720626831055 89 51.80620574951172 89 45.99993515014648 C 89 40.19366455078125 87.86350250244141 34.56264877319336 85.6220703125 29.26333618164062 C 83.45647430419922 24.14329528808594 80.35559844970703 19.54439544677734 76.40558624267578 15.59437561035156 C 72.45557403564453 11.64437866210938 67.85667419433594 8.543502807617188 62.73661422729492 6.377906799316406 C 57.43730163574219 4.136489868164062 51.8062858581543 2.999992370605469 46 2.999992370605469 M 46 -7.62939453125e-06 C 71.40509033203125 -7.62939453125e-06 92 20.59486389160156 92 45.99993515014648 C 92 71.40499114990234 71.40509033203125 91.99986267089844 46 91.99986267089844 C 20.59490203857422 91.99986267089844 0 71.40499114990234 0 45.99993515014648 C 0 20.59486389160156 20.59490203857422 -7.62939453125e-06 46 -7.62939453125e-06 Z" stroke="none" fill="#ff7f8f"/>
                        </g>
                      </g>
                    </g>
                  </g>
                </g>
              </g>
            </g>
          </g>
        </g>
      </g>
    </g>
    <g id="lenguaje-de-senas" transform="translate(1320.249 4229.74)">
      <g id="Grupo_1159330" data-name="Grupo 1159330" transform="translate(1.954 1.21)">
        <path id="Trazado_995069" data-name="Trazado 995069" d="M255.292,260.9h0a2.745,2.745,0,0,1,1.506-3.29,2.146,2.146,0,0,1,3.133.792l1.4,2.421c5.636-4.613,8.013,1.713,8.013,1.713s2.478,8.143-.425,13.556l.832,1.413a3.641,3.641,0,0,1-1.291,4.984l-6.256,3.682a3.641,3.641,0,0,1-4.958-1.247L256,282.878s-4.776,2.373-10.681-7.965c-.987-1.728-4.612-7.841-5.957-10.449a3.732,3.732,0,0,1-.633-2.148,2.285,2.285,0,0,1,1.351-1.942,2.357,2.357,0,0,1,3.151,1.022l2.534,4.036c.405-1.564,1.729-3.511,4.518-2.3,0,0,.01-.071.037-.192A3.291,3.291,0,0,1,255.292,260.9Z" transform="translate(-211.005 -227.39)" fill="#ffdfe5"/>
        <path id="Trazado_995070" data-name="Trazado 995070" d="M30.5,28.318V23.581a2.88,2.88,0,0,0-3.078-2.616H27.4a3.388,3.388,0,0,0-2.024.644l0-8.975a2.88,2.88,0,0,0-3.078-2.616h-.02A2.871,2.871,0,0,0,19.2,12.626v1.031a2.878,2.878,0,0,0-2.36-1.19h-.019a2.722,2.722,0,0,0-2.823,2.609l.035,6.149a2.241,2.241,0,0,0-2.048-1.587,2.284,2.284,0,0,0-2.149.989A3.732,3.732,0,0,0,9.285,22.8c-.164,2.929.029,7.587,0,9.577-.155,11.9,5.165,12.282,5.165,12.282l.034,2.4a3.641,3.641,0,0,0,3.64,3.59h7.259A3.641,3.641,0,0,0,29.027,47v-1.64C34.274,42.171,36.269,33.9,36.269,33.9S37.4,27.4,30.5,28.318Z" transform="translate(-9.218 -10.018)" fill="#ffdfe5" fill-rule="evenodd"/>
      </g>
      <g id="Grupo_1159331" data-name="Grupo 1159331" transform="translate(0.957 0)">
        <path id="Trazado_995071" data-name="Trazado 995071" d="M28.272,30.452c1.592-3.144,2.207-6.25,1.688-8.521a4.551,4.551,0,0,0-4.652-3.7h-.024l-1.193,0,.007-3.2A3.827,3.827,0,0,0,20.279,11.2h-.021a3.8,3.8,0,0,0-1.4.268V3.827A3.831,3.831,0,0,0,15.028,0h-.021a3.824,3.824,0,0,0-3.678,2.782A3.8,3.8,0,0,0,9.777,2.45H9.756A3.822,3.822,0,0,0,5.934,6.268l0,3.572a3.7,3.7,0,0,0-1.3-.235H4.632A3.666,3.666,0,0,0,.967,13.267L.957,24.126A18.384,18.384,0,0,0,2.4,32.193a11.864,11.864,0,0,0,3.413,4.129l-.015,1.723a4.85,4.85,0,0,0,4.85,4.892h7.308a4.856,4.856,0,0,0,4.85-4.85v-1.2a16.17,16.17,0,0,0,5.469-6.433ZM20.26,13.62h.018a1.4,1.4,0,0,1,1.4,1.4l-.007,3.2-2.79,0h-.033l.007-3.2A1.4,1.4,0,0,1,20.26,13.62ZM21.044,35.1a1.21,1.21,0,0,0-.661,1.078v1.905a2.434,2.434,0,0,1-2.431,2.431H10.644a2.431,2.431,0,0,1-2.431-2.452l.02-2.314a1.21,1.21,0,0,0-.468-.966,10.044,10.044,0,0,1-3.19-3.643,16.154,16.154,0,0,1-1.2-7.016l.01-10.858a1.247,1.247,0,0,1,1.246-1.245h0a1.3,1.3,0,0,1,1.3,1.3v6.059a1.21,1.21,0,1,0,2.42,0l0-13.112a1.393,1.393,0,0,1,.412-.991,1.415,1.415,0,0,1,2.41,1l-.009,13.071a1.21,1.21,0,0,0,1.209,1.211h0a1.21,1.21,0,0,0,1.21-1.209L13.6,3.82a1.4,1.4,0,0,1,1.4-1.4h.018a1.408,1.408,0,0,1,1.409,1.406V15.55h0l-.008,3.736a4.088,4.088,0,0,0-1.216,2.872,4.3,4.3,0,0,0,.994,2.694,3.736,3.736,0,0,0,1.679,1.181,9.8,9.8,0,0,0-1.413,1.4,1.21,1.21,0,0,0,1.875,1.529,9.476,9.476,0,0,1,4.384-2.8,1.21,1.21,0,0,0-.3-2.382l-3.557-.006a1.121,1.121,0,0,1-.8-.467,1.9,1.9,0,0,1-.44-1.149,1.525,1.525,0,0,1,1.247-1.521h6.39A2.141,2.141,0,0,1,27.6,22.47c.384,1.679-.186,4.319-1.488,6.889a13.163,13.163,0,0,1-5.07,5.743Z" transform="translate(-0.957 0)"/>
        <path id="Trazado_995072" data-name="Trazado 995072" d="M261.292,268.428a16.171,16.171,0,0,0,1.45-8.318c-.223-3.517-1.268-6.506-2.868-8.2a4.551,4.551,0,0,0-5.886-.829l-.022.012-1.02.6-.624-1.064a3.829,3.829,0,0,0-6.979.865,3.83,3.83,0,0,0-4.525,2.668,3.808,3.808,0,0,0-2.785.427l0,0-.01.006a3.8,3.8,0,0,0-1.08.948l-1.348-2.29a3.723,3.723,0,0,0-5.086-1.321,3.666,3.666,0,0,0-1.306,5.018l6.793,11.561c3.43,5.828,6.345,7.428,10.367,8.049l.862,1.494a4.816,4.816,0,0,0,2.965,2.266,4.885,4.885,0,0,0,1.245.162,4.822,4.822,0,0,0,2.452-.673l6.3-3.707a4.85,4.85,0,0,0,1.72-6.64Zm-13.637-16.216a1.411,1.411,0,0,1,2.583-.358l.624,1.063-2.439,1.433-.619-1.068A1.4,1.4,0,0,1,247.654,252.213Zm-4.523,2.662a1.411,1.411,0,0,1,2.583-.358l.622,1.059-1.361.8a3.237,3.237,0,0,0-.944.847l-.75-1.278A1.4,1.4,0,0,1,243.131,254.875Zm-4.387,3.73a1.405,1.405,0,0,1,.5-1.922l.012-.007a1.4,1.4,0,0,1,1.918.5l3.537,6.027a1.4,1.4,0,0,1-.5,1.922l-.01.006a1.4,1.4,0,0,1-1.92-.5Zm20.127,9.18a1.21,1.21,0,0,0-.023,1.264l.967,1.642a2.431,2.431,0,0,1-.862,3.328l-6.3,3.707a2.431,2.431,0,0,1-3.338-.88l-1.157-2a1.21,1.21,0,0,0-.893-.6,10.042,10.042,0,0,1-4.6-1.522,16.155,16.155,0,0,1-4.592-5.439l-6.792-11.559a1.246,1.246,0,0,1,.444-1.706,1.3,1.3,0,0,1,1.776.461l6.688,11.374a3.8,3.8,0,0,0,2.334,1.764,3.8,3.8,0,0,0,2.9-.4l.01-.006a3.827,3.827,0,0,0,1.882-3.524,3.258,3.258,0,0,0,1.69-.432l2.449-1.439a8.65,8.65,0,0,0,.718,7.424,1.21,1.21,0,0,0,2.085-1.227c-2.647-4.5,1.359-8.616,1.528-8.786a1.21,1.21,0,0,0-1.466-1.9l-6.539,3.842c-.5.295-1.486-.127-1.892-.766a1.578,1.578,0,0,1,.3-1.94l8.982-5.276a2.134,2.134,0,0,1,2.934.385c1.182,1.252,2.03,3.816,2.212,6.692A13.162,13.162,0,0,1,258.872,267.784Z" transform="translate(-201.198 -218.703)"/>
        <path id="Trazado_995073" data-name="Trazado 995073" d="M195.581,412.468l-4.387-3.112a1.21,1.21,0,0,0-1.4,1.974l1.29.915h-2.63a4.1,4.1,0,0,1-4.093-4.093v-2.1a1.21,1.21,0,1,0-2.42,0v2.1a6.52,6.52,0,0,0,6.513,6.513h2.63l-1.29.915a1.21,1.21,0,1,0,1.4,1.973l4.387-3.112a1.21,1.21,0,0,0,0-1.973Z" transform="translate(-160.089 -355.958)"/>
        <circle id="Elipse_11701" data-name="Elipse 11701" cx="1.207" cy="1.207" r="1.207" transform="translate(21.854 43.471)"/>
      </g>
    </g>
  </g>
</svg>
