<svg xmlns="http://www.w3.org/2000/svg" xmlns:xlink="http://www.w3.org/1999/xlink" width="108" height="108" viewBox="0 0 108 108">
  <defs>
    <filter id="Trazado_982547" x="0" y="0" width="108" height="108" filterUnits="userSpaceOnUse">
      <feOffset dy="3" input="SourceAlpha"/>
      <feGaussianBlur stdDeviation="3" result="blur"/>
      <feFlood flood-opacity="0.161"/>
      <feComposite operator="in" in2="blur"/>
      <feComposite in="SourceGraphic"/>
    </filter>
  </defs>
  <g id="Grupo_1159230" data-name="Grupo 1159230" transform="translate(-167 -741)">
    <g id="Grupo_1154355" data-name="Grupo 1154355" transform="translate(-4 -819)">
      <g id="Grupo_1153955" data-name="Grupo 1153955" transform="translate(-83 1047)">
        <g id="Grupo_1149598" data-name="Grupo 1149598" transform="translate(80 315)">
          <g id="Grupo_1148770" data-name="Grupo 1148770" transform="translate(-27 -2583)">
            <g id="Grupo_1146954" data-name="Grupo 1146954" transform="translate(-415 -1202)">
              <g transform="matrix(1, 0, 0, 1, 616, 3983)" filter="url(#Trazado_982547)">
                <g id="Trazado_982547-2" data-name="Trazado 982547" transform="translate(9 6)" fill="#fef4f5">
                  <path d="M 45 88.5 C 39.12687683105469 88.5 33.43022537231445 87.35007476806641 28.06830024719238 85.08217620849609 C 22.88852500915527 82.89131164550781 18.23629951477051 79.75458526611328 14.2408504486084 75.75914764404297 C 10.24541282653809 71.76370239257812 7.108687400817871 67.11147308349609 4.917825222015381 61.93170166015625 C 2.649924993515015 56.56977462768555 1.5 50.87312316894531 1.5 45 C 1.5 39.12687683105469 2.649924993515015 33.43022537231445 4.917825222015381 28.06830024719238 C 7.108687400817871 22.88852500915527 10.24541282653809 18.23629951477051 14.2408504486084 14.2408504486084 C 18.23629951477051 10.24541282653809 22.88852500915527 7.108687400817871 28.06830024719238 4.917825222015381 C 33.43022537231445 2.649924993515015 39.12687683105469 1.5 45 1.5 C 50.87312316894531 1.5 56.56977462768555 2.649924993515015 61.93170166015625 4.917825222015381 C 67.11147308349609 7.108687400817871 71.76370239257812 10.24541282653809 75.75914764404297 14.2408504486084 C 79.75458526611328 18.23629951477051 82.89131164550781 22.88852500915527 85.08217620849609 28.06830024719238 C 87.35007476806641 33.43022537231445 88.5 39.12687683105469 88.5 45 C 88.5 50.87312316894531 87.35007476806641 56.56977462768555 85.08217620849609 61.93170166015625 C 82.89131164550781 67.11147308349609 79.75458526611328 71.76370239257812 75.75914764404297 75.75914764404297 C 71.76370239257812 79.75458526611328 67.11147308349609 82.89131164550781 61.93170166015625 85.08217620849609 C 56.56977462768555 87.35007476806641 50.87312316894531 88.5 45 88.5 Z" stroke="none"/>
                  <path d="M 45 3 C 39.32871246337891 3 33.82865524291992 4.110054016113281 28.65262985229492 6.299339294433594 C 23.65165710449219 8.414573669433594 19.15968322753906 11.44334411621094 15.301513671875 15.301513671875 C 11.44334411621094 19.15968322753906 8.414573669433594 23.65165710449219 6.299339294433594 28.65262985229492 C 4.110054016113281 33.82865524291992 3 39.32871246337891 3 45 C 3 50.67128753662109 4.110054016113281 56.17134475708008 6.299339294433594 61.34737396240234 C 8.414573669433594 66.34834289550781 11.44334411621094 70.84031677246094 15.301513671875 74.698486328125 C 19.15968322753906 78.55665588378906 23.65165710449219 81.58542633056641 28.65262985229492 83.70066070556641 C 33.82865524291992 85.88994598388672 39.32871246337891 87 45 87 C 50.67128753662109 87 56.17134475708008 85.88994598388672 61.34737396240234 83.70066070556641 C 66.34834289550781 81.58542633056641 70.84031677246094 78.55665588378906 74.698486328125 74.698486328125 C 78.55665588378906 70.84031677246094 81.58542633056641 66.34834289550781 83.70066070556641 61.34737396240234 C 85.88994598388672 56.17134475708008 87 50.67128753662109 87 45 C 87 39.32871246337891 85.88994598388672 33.82865524291992 83.70066070556641 28.65262985229492 C 81.58542633056641 23.65165710449219 78.55665588378906 19.15968322753906 74.698486328125 15.301513671875 C 70.84031677246094 11.44334411621094 66.34834289550781 8.414573669433594 61.34737396240234 6.299339294433594 C 56.17134475708008 4.110054016113281 50.67128753662109 3 45 3 M 45 0 C 69.85281372070312 0 90 20.14718627929688 90 45 C 90 69.85281372070312 69.85281372070312 90 45 90 C 20.14718627929688 90 0 69.85281372070312 0 45 C 0 20.14718627929688 20.14718627929688 0 45 0 Z" stroke="none" fill="#ff7f8f"/>
                </g>
              </g>
            </g>
          </g>
        </g>
      </g>
    </g>
    <g id="equipo" transform="translate(186 683.193)">
      <g id="Grupo_1159229" data-name="Grupo 1159229" transform="translate(1.047 85.853)">
        <path id="Trazado_994689" data-name="Trazado 994689" d="M107.613,175.2h1.8a4.4,4.4,0,0,1,4.379,4.383l1.153,5.765-1.153,5.114H96.86V179.586a4.4,4.4,0,0,1,4.379-4.383Z" transform="translate(-84.413 -163.656)" fill="#a5cdff" fill-rule="evenodd"/>
        <path id="Trazado_994690" data-name="Trazado 994690" d="M229.115,175.2h1.848a4.4,4.4,0,0,1,4.379,4.383l1.623,6.132L235.343,203.1H218.41V179.586a4.4,4.4,0,0,1,4.379-4.383Z" transform="translate(-189.031 -163.656)" fill="#ff6978" fill-rule="evenodd"/>
        <path id="Trazado_994691" data-name="Trazado 994691" d="M350.665,175.2h1.848a4.4,4.4,0,0,1,4.379,4.383v16.155H339.96V179.586a4.4,4.4,0,0,1,4.379-4.383Z" transform="translate(-293.648 -163.656)" fill="#ccf49f" fill-rule="evenodd"/>
        <path id="Trazado_994692" data-name="Trazado 994692" d="M410.187,179.586v16.155h3.38V179.586a4.4,4.4,0,0,0-4.379-4.383h-3.38A4.4,4.4,0,0,1,410.187,179.586Z" transform="translate(-350.323 -163.656)" fill="#b3e59f" fill-rule="evenodd"/>
        <path id="Trazado_994693" data-name="Trazado 994693" d="M288.638,179.586v16.155h3.38V179.586a4.4,4.4,0,0,0-4.379-4.383h-3.38A4.4,4.4,0,0,1,288.638,179.586Z" transform="translate(-245.706 -163.656)" fill="#eb616f" fill-rule="evenodd"/>
        <path id="Trazado_994694" data-name="Trazado 994694" d="M167.088,179.586v16.155h3.38V179.586a4.4,4.4,0,0,0-4.379-4.383h-3.38A4.4,4.4,0,0,1,167.088,179.586Z" transform="translate(-141.089 -163.656)" fill="#8abfff" fill-rule="evenodd"/>
        <path id="Trazado_994695" data-name="Trazado 994695" d="M113.512,232.547a5.394,5.394,0,0,1,1.8,10.476,15.729,15.729,0,0,0,4.62-1.449l13.726-6.125a5.389,5.389,0,0,1,7.116,2.725c1.212,2.717-.312,5.37-2.725,7.112l-15.243,11.033c-3.886,2.812-7.223,2.385-10.737,2.065L90.289,256.39c-3.092-.284-5.9-2.717-7.886-4.754V238.766c.936-4.517,9.529-6.093,12.447-6.219Z" transform="translate(-71.97 -213.012)" fill="#ffcbbe"/>
        <path id="Trazado_994696" data-name="Trazado 994696" d="M140.1,264.863a5.359,5.359,0,0,1,.675,1.125c1.212,2.717-.312,5.37-2.725,7.112l-15.243,11.033c-3.886,2.812-7.223,2.385-10.737,2.065L90.29,284.2c-3.092-.284-5.9-2.717-7.886-4.754v-2.282c1.864,1.738,4.233,3.443,6.792,3.68l21.786,1.994c3.514.32,6.851.746,10.737-2.065l15.247-11.033A6.906,6.906,0,0,0,140.1,264.863Z" transform="translate(-71.971 -240.826)" fill="#f7beaf"/>
        <g id="Grupo_1159228" data-name="Grupo 1159228" transform="translate(0 0)">
          <path id="Trazado_994697" data-name="Trazado 994697" d="M16.666,244.963H11.92a4.462,4.462,0,0,0-4.407,4.49v12.869a4.459,4.459,0,0,0,4.407,4.486h4.747a4.462,4.462,0,0,0,4.411-4.486V249.453A4.466,4.466,0,0,0,16.666,244.963Z" transform="translate(-7.513 -223.698)" fill="#477b9e" fill-rule="evenodd"/>
          <path id="Trazado_994698" data-name="Trazado 994698" d="M206.473,240.928a1.048,1.048,0,0,0,0,2.1H221.2a5.393,5.393,0,0,0-.11-10.2c-.1-.036-.2-.063-.3-.091a5.245,5.245,0,0,0-1.39-.186h-3.384a5.409,5.409,0,0,1,5.394,5.394,4.323,4.323,0,0,1-.28,1.714c-.415.964-.632,1.272-2.065,1.272Z" transform="translate(-177.856 -213.014)" fill="#f7beaf" fill-rule="evenodd"/>
          <path id="Trazado_994699" data-name="Trazado 994699" d="M376.686,99.892a4.644,4.644,0,0,1-9.288,0V94.916a2.605,2.605,0,0,1,2.6-2.6h4.091a2.605,2.605,0,0,1,2.6,2.6Z" transform="translate(-317.263 -92.318)" fill="#c68b87" fill-rule="evenodd"/>
          <path id="Trazado_994700" data-name="Trazado 994700" d="M133.587,99.892a4.644,4.644,0,0,1-9.288,0V94.916a2.605,2.605,0,0,1,2.6-2.6h6a.622.622,0,0,1,.691.691Z" transform="translate(-108.03 -92.318)" fill="#ffcbbe" fill-rule="evenodd"/>
          <path id="Trazado_994701" data-name="Trazado 994701" d="M367.4,94.916v3.052l3.175-1.556a1.6,1.6,0,0,1,1.275-.083l4.837,1.639V94.916a2.605,2.605,0,0,0-2.6-2.6H370A2.605,2.605,0,0,0,367.4,94.916Z" transform="translate(-317.263 -92.318)" fill="#477b9e" fill-rule="evenodd"/>
          <path id="Trazado_994702" data-name="Trazado 994702" d="M124.3,94.916v1.5h9.288V93.009a.622.622,0,0,0-.691-.691h-6A2.605,2.605,0,0,0,124.3,94.916Z" transform="translate(-108.03 -92.318)" fill="#ffe5a0" fill-rule="evenodd"/>
          <path id="Trazado_994703" data-name="Trazado 994703" d="M255.137,99.892a4.644,4.644,0,0,1-9.288,0V94.916a2.605,2.605,0,0,1,2.6-2.6h4.091a2.605,2.605,0,0,1,2.6,2.6Z" transform="translate(-212.647 -92.318)" fill="#ffcbbe" fill-rule="evenodd"/>
          <path id="Trazado_994704" data-name="Trazado 994704" d="M245.849,94.915v1.808a3.536,3.536,0,0,0,3.033-.28c.49-.28.569-.332,1.054.091a5.561,5.561,0,0,0,5.2.869V94.915a2.605,2.605,0,0,0-2.6-2.6h-4.091A2.606,2.606,0,0,0,245.849,94.915Z" transform="translate(-212.647 -92.317)" fill="#c68b87" fill-rule="evenodd"/>
          <path id="Trazado_994705" data-name="Trazado 994705" d="M148.457,125.217a4.648,4.648,0,0,1-2.251,3.973,4.5,4.5,0,0,1-.7.351,4.641,4.641,0,0,0,6.334-4.324v-3.475h-3.38v3.475Z" transform="translate(-126.28 -117.643)" fill="#f7beaf" fill-rule="evenodd"/>
          <path id="Trazado_994706" data-name="Trazado 994706" d="M162.413,93.009v3.408h3.38V93.009a.622.622,0,0,0-.691-.691h-3.384A.624.624,0,0,1,162.413,93.009Z" transform="translate(-140.236 -92.318)" fill="#f2ce7e" fill-rule="evenodd"/>
          <path id="Trazado_994707" data-name="Trazado 994707" d="M270.006,131.317a4.648,4.648,0,0,1-2.251,3.973,4.5,4.5,0,0,1-.7.351,4.641,4.641,0,0,0,6.334-4.324v-2.488a6.169,6.169,0,0,1-3.38.111v2.377Z" transform="translate(-230.896 -123.743)" fill="#f7beaf" fill-rule="evenodd"/>
          <path id="Trazado_994708" data-name="Trazado 994708" d="M269.6,92.318a2.605,2.605,0,0,1,2.6,2.6v2.6a6.168,6.168,0,0,0,3.38-.111V94.916a2.605,2.605,0,0,0-2.6-2.6Z" transform="translate(-233.093 -92.318)" fill="#bd7d79" fill-rule="evenodd"/>
          <path id="Trazado_994709" data-name="Trazado 994709" d="M391.556,127.729A4.648,4.648,0,0,1,389.3,131.7a4.494,4.494,0,0,1-.7.351,4.641,4.641,0,0,0,6.334-4.324v-1.923l-3.38-1.145Z" transform="translate(-335.514 -120.155)" fill="#bd7d79" fill-rule="evenodd"/>
          <path id="Trazado_994710" data-name="Trazado 994710" d="M391.153,92.318a2.605,2.605,0,0,1,2.6,2.6v1.907l3.38,1.145V94.916a2.605,2.605,0,0,0-2.6-2.6Z" transform="translate(-337.709 -92.318)" fill="#365e7d" fill-rule="evenodd"/>
          <path id="Trazado_994711" data-name="Trazado 994711" d="M53.366,262.323a4.462,4.462,0,0,1-4.411,4.486h3.38a4.406,4.406,0,0,0,3.787-2.2,4.5,4.5,0,0,0,.624-2.29V249.454a4.51,4.51,0,0,0-1.118-2.977,4.362,4.362,0,0,0-3.293-1.512h-3.38a4.466,4.466,0,0,1,4.411,4.49Z" transform="translate(-43.182 -223.699)" fill="#365e7d" fill-rule="evenodd"/>
        </g>
      </g>
      <path id="Trazado_994712" data-name="Trazado 994712" d="M14.536,106.782a17.215,17.215,0,0,1,2.038-.9v-2.413a1.044,1.044,0,1,1,2.089,0v1.749a26.075,26.075,0,0,1,5.216-.869c.454-.012.92,0,1.378,0v-.877a1.044,1.044,0,1,1,2.089,0v.877h2.034v-2.563a3.343,3.343,0,0,0-3.333-3.337H24.629a5.652,5.652,0,0,1-5.343,0H17.872a3.35,3.35,0,0,0-3.337,3.337v5Zm16.933-2.436h2.038v-.877a1.044,1.044,0,1,1,2.089,0v.877H42.19v-.877a1.044,1.044,0,1,1,2.089,0v1.1a6.552,6.552,0,0,1,2.038.972v-3.759a3.35,3.35,0,0,0-3.337-3.337H41.562a5.644,5.644,0,0,1-5.339,0H34.805a3.35,3.35,0,0,0-3.337,3.337v2.563Zm16.937,3.688a6.39,6.39,0,0,1-.02,5.532c.664-.332,1.374-.624,2.053-.924v-9.173a1.045,1.045,0,1,1,2.089,0v8.237l6.595-2.942v-5.3a1.044,1.044,0,1,1,2.089,0v4.363l1.106-.494a6.7,6.7,0,0,1,.932-.332v-5.224a3.35,3.35,0,0,0-3.337-3.337H58.5a5.652,5.652,0,0,1-5.343,0H51.738a3.343,3.343,0,0,0-3.333,3.337Zm16.933-1.244a6.446,6.446,0,0,1,5.469,3.8,5.708,5.708,0,0,1,.115,4.486,8.927,8.927,0,0,1-3.179,3.9L62.1,123.056a1.043,1.043,0,0,1-1.224-1.69l5.643-4.083a6.852,6.852,0,0,0,2.452-2.95,3.694,3.694,0,0,0-.067-2.894,4.351,4.351,0,0,0-5.738-2.2l-13.691,6.109a19.555,19.555,0,0,1-2.346,1.034,9.009,9.009,0,0,1-2.737.521H29.1a1.044,1.044,0,0,1,0-2.089H44.211a4.352,4.352,0,0,0-1.627-8.384H23.946a22,22,0,0,0-5.019.877,16.342,16.342,0,0,0-3.957,1.623,5.556,5.556,0,0,1,.683,2.673V115.6a1.044,1.044,0,1,1-2.089,0v-3.988a3.412,3.412,0,0,0-3.364-3.443H5.453a3.412,3.412,0,0,0-3.364,3.443v12.869a3.472,3.472,0,0,0,1,2.436,3.313,3.313,0,0,0,2.369,1.007H10.2a3.321,3.321,0,0,0,2.373-1.007,3.478,3.478,0,0,0,.991-2.436v-3.992a1.044,1.044,0,0,1,2.089,0v3.992a5.517,5.517,0,0,1-.359,1.967,12.341,12.341,0,0,0,1.7,1.019,7.178,7.178,0,0,0,2.464.73l22.161,2.03c3.179.3,6.227.577,9.659-1.907l5.643-4.083a1.043,1.043,0,0,1,1.224,1.69L52.5,130.006c-4.063,2.942-7.491,2.622-11.073,2.29l-22.157-2.03a9.091,9.091,0,0,1-3.183-.928,13.533,13.533,0,0,1-1.888-1.113,5.407,5.407,0,0,1-4,1.785H5.453A5.392,5.392,0,0,1,1.6,128.375a5.544,5.544,0,0,1-1.6-3.9V111.608a5.512,5.512,0,0,1,5.453-5.532H10.2a5.356,5.356,0,0,1,2.247.494v-4.786a5.439,5.439,0,0,1,4.672-5.374,5.658,5.658,0,0,1-.849-2.981V88.452a3.654,3.654,0,0,1,3.645-3.645H26.6a1.045,1.045,0,0,1,1.042,1.047v7.574a5.622,5.622,0,0,1-.849,2.981,5.406,5.406,0,0,1,3.08,1.54,5.653,5.653,0,0,1,.549.64,5.282,5.282,0,0,1,.549-.64,5.409,5.409,0,0,1,3.076-1.54,5.658,5.658,0,0,1-.849-2.981V88.452a3.654,3.654,0,0,1,3.645-3.645h4.091a3.654,3.654,0,0,1,3.645,3.645v4.976a5.658,5.658,0,0,1-.849,2.981,5.408,5.408,0,0,1,3.076,1.54,5.282,5.282,0,0,1,.549.64,5.639,5.639,0,0,1,.549-.64,5.408,5.408,0,0,1,3.08-1.54,5.621,5.621,0,0,1-.849-2.981V88.452a3.654,3.654,0,0,1,3.641-3.645h4.091a3.654,3.654,0,0,1,3.645,3.645v4.976a5.658,5.658,0,0,1-.849,2.981,5.438,5.438,0,0,1,4.671,5.374Zm-5.912-14.54L55.047,90.77l-2.819,1.382v1.275a3.6,3.6,0,0,0,7.2,0V92.251Zm-7.2-2.417,2.231-1.094a1.049,1.049,0,0,1,.853-.083l4.115,1.394v-1.6A1.564,1.564,0,0,0,57.871,86.9H53.78a1.564,1.564,0,0,0-1.552,1.556Zm-33.869-.928h7.2V86.9H19.914a1.564,1.564,0,0,0-1.556,1.556Zm7.2,2.089h-7.2v2.433a3.6,3.6,0,0,0,7.2,0V90.995ZM42.49,92.223a6.168,6.168,0,0,1-4.766-1.3,4.682,4.682,0,0,1-2.429.6v1.907a3.6,3.6,0,0,0,7.195,0v-1.2Zm-7.195-2.788a2.6,2.6,0,0,0,1.868-.64,1.039,1.039,0,0,1,1.469.1,4.068,4.068,0,0,0,3.858,1.228V88.451A1.557,1.557,0,0,0,40.938,86.9H36.847A1.557,1.557,0,0,0,35.3,88.451v.984Z"/>
    </g>
  </g>
</svg>
