<svg xmlns="http://www.w3.org/2000/svg" xmlns:xlink="http://www.w3.org/1999/xlink" width="108" height="108" viewBox="0 0 108 108">
  <defs>
    <filter id="Trazado_982547" x="0" y="0" width="108" height="108" filterUnits="userSpaceOnUse">
      <feOffset dy="3" input="SourceAlpha"/>
      <feGaussianBlur stdDeviation="3" result="blur"/>
      <feFlood flood-opacity="0.161"/>
      <feComposite operator="in" in2="blur"/>
      <feComposite in="SourceGraphic"/>
    </filter>
  </defs>
  <g id="Grupo_1159932" data-name="Grupo 1159932" transform="translate(-588 -407)">
    <g id="Grupo_1149836" data-name="Grupo 1149836" transform="translate(0 -4452)">
      <g id="Grupo_1149674" data-name="Grupo 1149674" transform="translate(-158 -2821)">
        <g id="Grupo_1148534" data-name="Grupo 1148534" transform="translate(156 4253)">
          <g id="Grupo_1147066" data-name="Grupo 1147066" transform="translate(-26 -556)">
            <g transform="matrix(1, 0, 0, 1, 616, 3983)" filter="url(#Trazado_982547)">
              <g id="Trazado_982547-2" data-name="Trazado 982547" transform="translate(9 6)" fill="#fef4f5">
                <path d="M 45 88.5 C 39.12687683105469 88.5 33.43022537231445 87.35007476806641 28.06830024719238 85.08217620849609 C 22.88852500915527 82.89131164550781 18.23629951477051 79.75458526611328 14.2408504486084 75.75914764404297 C 10.24541282653809 71.76370239257812 7.108687400817871 67.11147308349609 4.917825222015381 61.93170166015625 C 2.649924993515015 56.56977462768555 1.5 50.87312316894531 1.5 45 C 1.5 39.12687683105469 2.649924993515015 33.43022537231445 4.917825222015381 28.06830024719238 C 7.108687400817871 22.88852500915527 10.24541282653809 18.23629951477051 14.2408504486084 14.2408504486084 C 18.23629951477051 10.24541282653809 22.88852500915527 7.108687400817871 28.06830024719238 4.917825222015381 C 33.43022537231445 2.649924993515015 39.12687683105469 1.5 45 1.5 C 50.87312316894531 1.5 56.56977462768555 2.649924993515015 61.93170166015625 4.917825222015381 C 67.11147308349609 7.108687400817871 71.76370239257812 10.24541282653809 75.75914764404297 14.2408504486084 C 79.75458526611328 18.23629951477051 82.89131164550781 22.88852500915527 85.08217620849609 28.06830024719238 C 87.35007476806641 33.43022537231445 88.5 39.12687683105469 88.5 45 C 88.5 50.87312316894531 87.35007476806641 56.56977462768555 85.08217620849609 61.93170166015625 C 82.89131164550781 67.11147308349609 79.75458526611328 71.76370239257812 75.75914764404297 75.75914764404297 C 71.76370239257812 79.75458526611328 67.11147308349609 82.89131164550781 61.93170166015625 85.08217620849609 C 56.56977462768555 87.35007476806641 50.87312316894531 88.5 45 88.5 Z" stroke="none"/>
                <path d="M 45 3 C 39.32871246337891 3 33.82865524291992 4.110054016113281 28.65262985229492 6.299339294433594 C 23.65165710449219 8.414573669433594 19.15968322753906 11.44334411621094 15.301513671875 15.301513671875 C 11.44334411621094 19.15968322753906 8.414573669433594 23.65165710449219 6.299339294433594 28.65262985229492 C 4.110054016113281 33.82865524291992 3 39.32871246337891 3 45 C 3 50.67128753662109 4.110054016113281 56.17134475708008 6.299339294433594 61.34737396240234 C 8.414573669433594 66.34834289550781 11.44334411621094 70.84031677246094 15.301513671875 74.698486328125 C 19.15968322753906 78.55665588378906 23.65165710449219 81.58542633056641 28.65262985229492 83.70066070556641 C 33.82865524291992 85.88994598388672 39.32871246337891 87 45 87 C 50.67128753662109 87 56.17134475708008 85.88994598388672 61.34737396240234 83.70066070556641 C 66.34834289550781 81.58542633056641 70.84031677246094 78.55665588378906 74.698486328125 74.698486328125 C 78.55665588378906 70.84031677246094 81.58542633056641 66.34834289550781 83.70066070556641 61.34737396240234 C 85.88994598388672 56.17134475708008 87 50.67128753662109 87 45 C 87 39.32871246337891 85.88994598388672 33.82865524291992 83.70066070556641 28.65262985229492 C 81.58542633056641 23.65165710449219 78.55665588378906 19.15968322753906 74.698486328125 15.301513671875 C 70.84031677246094 11.44334411621094 66.34834289550781 8.414573669433594 61.34737396240234 6.299339294433594 C 56.17134475708008 4.110054016113281 50.67128753662109 3 45 3 M 45 0 C 69.85281372070312 0 90 20.14718627929688 90 45 C 90 69.85281372070312 69.85281372070312 90 45 90 C 20.14718627929688 90 0 69.85281372070312 0 45 C 0 20.14718627929688 20.14718627929688 0 45 0 Z" stroke="none" fill="#ff7f8f"/>
              </g>
            </g>
          </g>
        </g>
      </g>
    </g>
    <g id="Layer_27" data-name="Layer 27" transform="translate(611.001 427)">
      <path id="Trazado_996686" data-name="Trazado 996686" d="M28.686,23l-1.013.127A7.618,7.618,0,0,0,21,30.686v7.686H42.138V30.686a7.618,7.618,0,0,0-6.674-7.56L34.451,23Z" transform="translate(-0.784 -0.862)" fill="#4e8c41"/>
      <path id="Trazado_996687" data-name="Trazado 996687" d="M35.542,23.127,34.53,23H28.765l-1.013.127a7.581,7.581,0,0,0-3.389,1.3A7.59,7.59,0,0,0,23,28.765a7.686,7.686,0,0,0,7.686,7.686h11.53V30.686a7.618,7.618,0,0,0-6.674-7.56Z" transform="translate(-0.862 -0.862)" fill="#5a9d4d"/>
      <path id="Trazado_996688" data-name="Trazado 996688" d="M61.138,61.956V45.622a5.765,5.765,0,0,0-5.765-5.765H53.451l-.66-3.5h-4.44l-.66,3.5H45.765A5.765,5.765,0,0,0,40,45.622V61.956Z" transform="translate(-1.529 -1.386)" fill="#c43d32"/>
      <path id="Trazado_996689" data-name="Trazado 996689" d="M55.451,39.857H53.53l-.66-3.5H48.43l-.66,3.5H45.843a5.736,5.736,0,0,0-3.612,1.275A5.765,5.765,0,0,0,42,42.74,16.334,16.334,0,0,0,58.334,59.073h2.882V45.622a5.765,5.765,0,0,0-5.765-5.765Z" transform="translate(-1.607 -1.386)" fill="#e2513a"/>
      <path id="Trazado_996690" data-name="Trazado 996690" d="M53.765,39.857l-2.882,1.922L48,39.857l.663-3.5H53.1Z" transform="translate(-1.842 -1.386)" fill="#eeb7a9"/>
      <path id="Trazado_996691" data-name="Trazado 996691" d="M50.762,41.922,48.84,44.8,44.92,40.1a5.279,5.279,0,0,1,1.038-.1h1.922Z" transform="translate(-1.721 -1.528)" fill="#a92d1f"/>
      <path id="Trazado_996692" data-name="Trazado 996692" d="M56.842,40.1,52.922,44.8,51,41.922,53.882,40H55.8A5.279,5.279,0,0,1,56.842,40.1Z" transform="translate(-1.96 -1.528)" fill="#a92d1f"/>
      <path id="Trazado_996693" data-name="Trazado 996693" d="M48.364,38,48,39.922l2.882,1.922,2.882-1.922L53.4,38Z" transform="translate(-1.842 -1.45)" fill="#ffe0d1"/>
      <path id="Trazado_996694" data-name="Trazado 996694" d="M2,52H23.138V62.569H2Z" transform="translate(-0.039 -1.999)" fill="#ffe0d1"/>
      <path id="Trazado_996695" data-name="Trazado 996695" d="M19.783,42.929A8.476,8.476,0,0,0,22.727,40l.411-.685a2.882,2.882,0,0,1-2.882-2.882V25.686a7.686,7.686,0,1,0-15.373,0V36.431A2.882,2.882,0,0,1,2,39.314L2.411,40a8.465,8.465,0,0,0,2.936,2.926Z" transform="translate(-0.039 -0.666)" fill="#efab38"/>
      <path id="Trazado_996696" data-name="Trazado 996696" d="M21.188,44.8a13.091,13.091,0,0,1-8.215,2.892H12.32A13.091,13.091,0,0,1,4.1,44.8a6.7,6.7,0,0,1,4.7-1.912h.961l.663-3.324h4.439l.663,3.324h.961a6.7,6.7,0,0,1,4.7,1.912Z" transform="translate(-0.122 -1.511)" fill="#ffe0d1"/>
      <path id="Trazado_996697" data-name="Trazado 996697" d="M15.113,39.562H10.674L10.4,40.944h4.99Z" transform="translate(-0.368 -1.511)" fill="#eeb7a9"/>
      <path id="Trazado_996698" data-name="Trazado 996698" d="M20.452,36.431V25.686A7.676,7.676,0,0,0,7.023,20.594,21.138,21.138,0,0,0,22.685,40.346c.078-.117.166-.226.238-.347l.411-.685A2.882,2.882,0,0,1,20.452,36.431Z" transform="translate(-0.236 -0.666)" fill="#f3c343"/>
      <path id="Trazado_996699" data-name="Trazado 996699" d="M18.53,27.882v5.765a5.765,5.765,0,0,1-11.53,0V27.882h.375A6.473,6.473,0,0,0,12.765,25a6.474,6.474,0,0,0,5.381,2.882Z" transform="translate(-0.235 -0.941)" fill="#eeb7a9"/>
      <path id="Trazado_996700" data-name="Trazado 996700" d="M12.765,26a6.473,6.473,0,0,1-5.381,2.882H7v4.8a5.765,5.765,0,0,0,11.53,0v-4.8h-.384A6.474,6.474,0,0,1,12.765,26Z" transform="translate(-0.235 -0.98)" fill="#ffe0d1"/>
      <path id="Trazado_996701" data-name="Trazado 996701" d="M6.843,29H5.4a2.4,2.4,0,0,0,0,4.8H6.843" transform="translate(-0.078 -1.097)" fill="#eeb7a9"/>
      <path id="Trazado_996702" data-name="Trazado 996702" d="M19,29h1.441a2.4,2.4,0,0,1,0,4.8H19" transform="translate(-0.705 -1.097)" fill="#eeb7a9"/>
      <path id="Trazado_996703" data-name="Trazado 996703" d="M23.138,49.8v1.922H19.295a15.716,15.716,0,0,1-.48,3.843,15.717,15.717,0,0,0-.48,3.9v2.825H6.8V59.469a16.182,16.182,0,0,0-.48-3.9,15.264,15.264,0,0,1-.48-3.843H2V49.8A6.68,6.68,0,0,1,4.027,45a13.152,13.152,0,0,0,8.205,2.882H12.9A13.13,13.13,0,0,0,21.11,44.99l.058.058a6.685,6.685,0,0,1,1.97,4.756Z" transform="translate(-0.039 -1.724)" fill="#56a2f0"/>
      <path id="Trazado_996704" data-name="Trazado 996704" d="M12.847,37.865a4.044,4.044,0,0,1-3.64-2.25l-.108-.2,1.717-.865.1.2a2.147,2.147,0,0,0,3.843,0l.1-.2,1.719.859-.1.2a4.046,4.046,0,0,1-3.634,2.254Z" transform="translate(-0.317 -1.315)" fill="#e2513a"/>
      <path id="Trazado_996705" data-name="Trazado 996705" d="M7.882,62.451H5.961V59.628a15.115,15.115,0,0,0-.452-3.672A17.055,17.055,0,0,1,5,51.828V49H6.922v2.823a15.144,15.144,0,0,0,.451,3.67,17.013,17.013,0,0,1,.509,4.132Z" transform="translate(-0.157 -1.881)" fill="#3985e0"/>
      <path id="Trazado_996706" data-name="Trazado 996706" d="M19.922,62.451H18V59.628a17.035,17.035,0,0,1,.508-4.128,15.122,15.122,0,0,0,.452-3.674V49h1.922v2.823a17.033,17.033,0,0,1-.51,4.139,15.132,15.132,0,0,0-.451,3.666Z" transform="translate(-0.666 -1.881)" fill="#3985e0"/>
      <path id="Trazado_996707" data-name="Trazado 996707" d="M43.005,30.912v5.814H58.378l0-6.726Z" transform="translate(-1.646 -1.137)" fill="#694d41"/>
      <path id="Trazado_996708" data-name="Trazado 996708" d="M57,26h1.441a2.4,2.4,0,0,1,0,4.8H57" transform="translate(-2.195 -0.98)" fill="#eeb7a9"/>
      <path id="Trazado_996709" data-name="Trazado 996709" d="M54.53,20.4a2.367,2.367,0,0,1-1.287,2.085,2.938,2.938,0,0,1-1.336.317,14.67,14.67,0,0,0-4.468.7,11.083,11.083,0,0,0-2.517,1.22v.961H43.48a2.626,2.626,0,0,0-.48.048V24.188A5.35,5.35,0,0,1,45.969,19.4,13.259,13.259,0,0,1,51.907,18a2.938,2.938,0,0,1,1.336.317,2.157,2.157,0,0,1,.788.644h.01a2.333,2.333,0,0,1,.49,1.441Z" transform="translate(-1.646 -0.666)" fill="#694d41"/>
      <path id="Trazado_996710" data-name="Trazado 996710" d="M58.823,23.343v2.431a2.627,2.627,0,0,0-.48-.048H56.9v-.961l-.259-1.047A3.683,3.683,0,0,0,54.8,21.354h-.01a2.253,2.253,0,0,0,.192-.913A2.333,2.333,0,0,0,54.49,19a4.336,4.336,0,0,1,4.333,4.343Z" transform="translate(-2.096 -0.705)" fill="#886f64"/>
      <path id="Trazado_996711" data-name="Trazado 996711" d="M56.53,24.861v5.592a5.765,5.765,0,1,1-11.53,0V24.861a11.083,11.083,0,0,1,2.517-1.22,14.67,14.67,0,0,1,4.468-.7,2.938,2.938,0,0,0,1.336-.317,2.244,2.244,0,0,0,1.1-1.172h.01a3.683,3.683,0,0,1,1.845,2.364Z" transform="translate(-1.724 -0.801)" fill="#eeb7a9"/>
      <path id="Trazado_996712" data-name="Trazado 996712" d="M54.426,22.63h-.01a2.244,2.244,0,0,1-1.1,1.172,2.938,2.938,0,0,1-1.336.317,14.67,14.67,0,0,0-4.468.7A11.083,11.083,0,0,0,45,26.041V30.5a5.765,5.765,0,0,0,11.53,0V26.041l-.259-1.047a3.683,3.683,0,0,0-1.845-2.364Z" transform="translate(-1.724 -0.848)" fill="#ffe0d1"/>
      <path id="Trazado_996713" data-name="Trazado 996713" d="M50.847,34.681a4.048,4.048,0,0,1-3.641-2.249l-.1-.2,1.72-.865.1.2a2.148,2.148,0,0,0,3.843,0l.1-.2,1.72.865-.1.2A4.048,4.048,0,0,1,50.847,34.681Z" transform="translate(-1.807 -1.19)" fill="#eeb7a9"/>
      <path id="Trazado_996714" data-name="Trazado 996714" d="M56.005,47h1.922V62.373H56.005Z" transform="translate(-2.156 -1.803)" fill="#a92d1f"/>
      <path id="Trazado_996715" data-name="Trazado 996715" d="M44.005,47h1.922V62.373H44.005Z" transform="translate(-1.685 -1.803)" fill="#a92d1f"/>
      <path id="Trazado_996716" data-name="Trazado 996716" d="M44.843,26H43.4a2.4,2.4,0,0,0,0,4.8h1.441" transform="translate(-1.568 -0.98)" fill="#eeb7a9"/>
      <path id="Trazado_996717" data-name="Trazado 996717" d="M24,10.7V7.765A5.765,5.765,0,0,1,29.765,2h3.843a2.882,2.882,0,0,1,2.882,2.882,2.882,2.882,0,0,1,2.882,2.882V10.7Z" transform="translate(-0.901 -0.039)" fill="#747574"/>
      <path id="Trazado_996718" data-name="Trazado 996718" d="M39.56,7.765a2.882,2.882,0,0,0-2.882-2.882A2.882,2.882,0,0,0,33.795,2H29.951a5.8,5.8,0,0,0-1.081.1A4.7,4.7,0,0,0,33.43,7.813h6.13Z" transform="translate(-1.088 -0.039)" fill="#9c9d9c"/>
      <path id="Trazado_996719" data-name="Trazado 996719" d="M29,21.2v1.729a2.882,2.882,0,1,0,5.765,0V21.2" transform="translate(-1.097 -0.792)" fill="#755748"/>
      <path id="Trazado_996720" data-name="Trazado 996720" d="M31.882,25.882A2.882,2.882,0,0,0,34.765,23H29A2.882,2.882,0,0,0,31.882,25.882Z" transform="translate(-1.097 -0.862)" fill="#886f64"/>
      <path id="Trazado_996721" data-name="Trazado 996721" d="M37.53,9.882v5.765a5.765,5.765,0,1,1-11.53,0V9.882h3.688a4.215,4.215,0,0,0,4-2.882Z" transform="translate(-0.98 -0.235)" fill="#755748"/>
      <path id="Trazado_996722" data-name="Trazado 996722" d="M29.688,10.882H26v4.8a5.765,5.765,0,0,0,11.53,0v-4.8L33.686,8a4.215,4.215,0,0,1-4,2.882Z" transform="translate(-0.98 -0.274)" fill="#886f64"/>
      <path id="Trazado_996723" data-name="Trazado 996723" d="M37,30h1.922v8.647H37Z" transform="translate(-1.411 -1.137)" fill="#2e5c24"/>
      <path id="Trazado_996724" data-name="Trazado 996724" d="M25,30h1.922v8.647H25Z" transform="translate(-0.941 -1.137)" fill="#2e5c24"/>
      <path id="Trazado_996725" data-name="Trazado 996725" d="M26.922,35.689V30H25v4.111a7.707,7.707,0,0,0,1.922,1.578Z" transform="translate(-0.941 -1.137)" fill="#427c38"/>
      <path id="Trazado_996726" data-name="Trazado 996726" d="M37,30h1.922v6.726H37Z" transform="translate(-1.411 -1.137)" fill="#427c38"/>
      <g id="Grupo_1159931" data-name="Grupo 1159931" transform="translate(21.177 10.608)">
        <path id="Trazado_996727" data-name="Trazado 996727" d="M25.843,11H24.4a2.4,2.4,0,0,0,0,4.8h1.441" transform="translate(-22 -11)" fill="#755748"/>
        <path id="Trazado_996728" data-name="Trazado 996728" d="M38,11h1.441a2.4,2.4,0,1,1,0,4.8H38" transform="translate(-22.627 -11)" fill="#755748"/>
        <path id="Trazado_996729" data-name="Trazado 996729" d="M31.847,19.865a4.047,4.047,0,0,1-3.641-2.25l-.1-.2,1.72-.859.1.2a2.148,2.148,0,0,0,3.843,0l.1-.2,1.72.859-.1.2A4.047,4.047,0,0,1,31.847,19.865Z" transform="translate(-22.239 -11.218)" fill="#755748"/>
      </g>
      <path id="Trazado_996730" data-name="Trazado 996730" d="M44.005,50.849a16.334,16.334,0,0,0,1.922,2.828V47H44.005Z" transform="translate(-1.685 -1.803)" fill="#c43d32"/>
      <path id="Trazado_996731" data-name="Trazado 996731" d="M56.005,59.221a16.4,16.4,0,0,0,1.922.221V47H56.005Z" transform="translate(-2.156 -1.803)" fill="#c43d32"/>
      <circle id="Elipse_11721" data-name="Elipse 11721" cx="12.5" cy="12.5" r="12.5" transform="translate(17.999 32)" fill="#e2513a"/>
      <path id="Trazado_996732" data-name="Trazado 996732" d="M39.649,56A12.473,12.473,0,0,1,23.7,56Z" transform="translate(-0.89 -2.156)" fill="#822ca4"/>
      <path id="Trazado_996733" data-name="Trazado 996733" d="M43.059,51a12.574,12.574,0,0,1-3.545,4.8H23.545A12.574,12.574,0,0,1,20,51Z" transform="translate(-0.745 -1.96)" fill="#3f92ed"/>
      <path id="Trazado_996734" data-name="Trazado 996734" d="M43.981,46a12.5,12.5,0,0,1-.96,4.8H19.961A12.5,12.5,0,0,1,19,46Z" transform="translate(-0.705 -1.764)" fill="#4e8c41"/>
      <path id="Trazado_996735" data-name="Trazado 996735" d="M43.981,45.8H19a12.5,12.5,0,0,1,.96-4.8H43.02a12.5,12.5,0,0,1,.961,4.8Z" transform="translate(-0.705 -1.568)" fill="#fcea52"/>
      <path id="Trazado_996736" data-name="Trazado 996736" d="M43.059,40.8H20A12.574,12.574,0,0,1,23.545,36H39.514a12.574,12.574,0,0,1,3.545,4.8Z" transform="translate(-0.745 -1.372)" fill="#ed642c"/>
      <path id="Trazado_996737" data-name="Trazado 996737" d="M16.483,35.615l.1-.2-1.72-.859-.1.2a2.147,2.147,0,0,1-3.843,0l-.1-.2-1.717.865.1.2a4.069,4.069,0,0,0,7.28,0Z" transform="translate(-0.318 -1.315)"/>
      <path id="Trazado_996738" data-name="Trazado 996738" d="M52.884,37.334h-.173l-.157-.784h4.178a.961.961,0,0,0,.961-.961V30.448a3.343,3.343,0,0,0,0-6.053V22.637a5.308,5.308,0,0,0-4.863-5.284,3.313,3.313,0,0,0-.8-.565,3.971,3.971,0,0,0-1.77-.415,14.316,14.316,0,0,0-6.37,1.5A6.28,6.28,0,0,0,40.4,23.525V24.4l-.013.008A8.551,8.551,0,0,0,34.8,21.311l-.171-.022v-.366a6.726,6.726,0,0,0,2.806-4.55h.557a3.355,3.355,0,0,0,1.441-6.388V7.726a3.85,3.85,0,0,0-2.979-3.747A3.85,3.85,0,0,0,32.707,1H28.863a6.733,6.733,0,0,0-6.726,6.726V9.985a3.355,3.355,0,0,0,1.441,6.388h.557a6.726,6.726,0,0,0,2.806,4.55v.366l-.171.022a8.6,8.6,0,0,0-5.626,3.171,8.642,8.642,0,0,0-17.263.538v2.259a3.344,3.344,0,0,0,0,6.053v2.433a1.922,1.922,0,0,1-1.922,1.922.961.961,0,0,0-.823,1.458l.41.684A9.456,9.456,0,0,0,3.67,42.267,7.665,7.665,0,0,0,1,48.08V60.57H2.922V50.918l1.952.03a17.073,17.073,0,0,0,.48,3.13,15.109,15.109,0,0,1,.45,3.669V60.57H7.726V57.747a17.013,17.013,0,0,0-.509-4.132,15.145,15.145,0,0,1-.452-3.674V47.119H4.843v1.906L2.922,49V48.08a5.734,5.734,0,0,1,1.2-3.516A14.124,14.124,0,0,0,12.2,47.119h.659a13.96,13.96,0,0,0,4.657-.8,13.309,13.309,0,0,0,.783,2.872v.754a15.127,15.127,0,0,1-.452,3.673,17.042,17.042,0,0,0-.509,4.129V60.57h1.922V57.747a15.132,15.132,0,0,1,.452-3.67,16.927,16.927,0,0,0,.34-1.781,13.527,13.527,0,0,0,2.091,2.22V60.57h1.922V55.862a13.338,13.338,0,0,0,13.456,0V60.57h1.922V54.525a13.525,13.525,0,0,0,2.887-3.4V60.57h1.922V45.2h-.054c.023-.319.049-.636.049-.961a13.381,13.381,0,0,0-.48-3.5l2.627,3.151a.961.961,0,0,0,.738.345h.051a.961.961,0,0,0,.748-.427l1.12-1.687,1.122,1.683a.961.961,0,0,0,.748.427h.051a.961.961,0,0,0,.738-.345l3.467-4.16a5.773,5.773,0,0,1,3.477,5.293V60.57H60.57V45.02a7.7,7.7,0,0,0-7.686-7.686ZM49.02,39.222l-1.826-1.216.36-1.8a6.564,6.564,0,0,0,2.969,0l.335,1.679ZM7.726,32.707V27.881a7.418,7.418,0,0,0,4.8-2.287,7.418,7.418,0,0,0,4.8,2.287v4.826a4.8,4.8,0,1,1-9.608,0Zm11.453.961h.077v2.1A3.882,3.882,0,0,0,19.464,37a13.377,13.377,0,0,0-1.6,3.555,7.75,7.75,0,0,0-1.486-.162H16.2l-.367-1.835a6.726,6.726,0,0,0,3.341-4.891Zm4.01,1.922h15.2a11.6,11.6,0,0,1,2.368,2.882H20.816a11.6,11.6,0,0,1,2.368-2.882ZM26.2,33.667a11.466,11.466,0,0,1,9.189,0Zm-6.94-4.8h.48a1.441,1.441,0,1,1,0,2.882h-.48ZM19.309,45.2H42.272a11.391,11.391,0,0,1-.624,2.882H19.928A11.391,11.391,0,0,1,19.3,45.2Zm0-1.922a11.391,11.391,0,0,1,.624-2.882H41.642a11.391,11.391,0,0,1,.624,2.882Zm23.284-5.482a13.7,13.7,0,0,0-.785-1.243h3.719l-.158.784H45.2a7.723,7.723,0,0,0-2.609.459Zm-.274-7.008h.1a6.714,6.714,0,0,0,2.114,3.843H42.32Zm0-1.922h-.48a1.441,1.441,0,1,1,0-2.882h.476Zm11.229,5.765a6.714,6.714,0,0,0,2.114-3.843h.109v3.843Zm2.707-5.765h-.489V25.981h.48a1.441,1.441,0,1,1,0,2.882Zm-.48-6.226v1.422a.945.945,0,0,0-.029-.233l-.268-1.048a4.662,4.662,0,0,0-1.668-2.55,3.345,3.345,0,0,0,.037-.493c0-.047-.008-.1-.01-.14a3.376,3.376,0,0,1,1.934,3.042Zm-2.835-.622a2.739,2.739,0,0,1,.68,1.229l.233.933-.009,5.47a4.8,4.8,0,1,1-9.608,0V24.6a9.512,9.512,0,0,1,1.847-.842A13.5,13.5,0,0,1,50.26,23.1a3.964,3.964,0,0,0,1.769-.418,3.312,3.312,0,0,0,.907-.665ZM42.32,23.525a4.368,4.368,0,0,1,2.429-3.93,12.394,12.394,0,0,1,5.511-1.3,2.034,2.034,0,0,1,.91.215,1.37,1.37,0,0,1,0,2.452,2.027,2.027,0,0,1-.909.215,15.453,15.453,0,0,0-4.765.753,11.884,11.884,0,0,0-2.73,1.319.961.961,0,0,0-.446.81ZM28.863,21.854a6.656,6.656,0,0,0,3.843,0v.283a1.922,1.922,0,1,1-3.843,0Zm9.128-7.4h-.48V11.569h.48a1.441,1.441,0,0,1,0,2.882ZM22.138,13.01a1.441,1.441,0,0,1,1.441-1.441h.48v2.882h-.48A1.441,1.441,0,0,1,22.138,13.01Zm1.922-3.363V7.726a4.81,4.81,0,0,1,4.8-4.8h3.843a1.922,1.922,0,0,1,1.922,1.922.961.961,0,0,0,.961.961,1.922,1.922,0,0,1,1.922,1.922V9.647a.961.961,0,0,0-.384-.769L33.283,6a.961.961,0,0,0-1.488.465,3.249,3.249,0,0,1-3.087,2.225H25.02A.961.961,0,0,0,24.059,9.647Zm1.922,5.765v-4.8h2.727a5.169,5.169,0,0,0,4.354-2.376l2.527,1.9v5.284a4.8,4.8,0,1,1-9.608,0Zm1.028,7.806.1-.012a3.819,3.819,0,0,0,7.348,0l.1.012a6.639,6.639,0,0,1,4.4,2.489A3.32,3.32,0,0,0,40.4,30.448v4.4A13.564,13.564,0,0,0,37.511,32.6V28.863H35.589v2.824a13.242,13.242,0,0,0-9.608,0V28.863H24.059V32.6a13.548,13.548,0,0,0-2.882,2.236V33.327a3.35,3.35,0,0,0,.429-5.813,6.687,6.687,0,0,1,5.4-4.3ZM5.8,25.02a6.726,6.726,0,1,1,13.451,0v1.922a.961.961,0,0,0-.961-.961H17.91a5.5,5.5,0,0,1-4.587-2.455,1,1,0,0,0-1.6,0A5.5,5.5,0,0,1,7.14,25.981H6.765a.961.961,0,0,0-.961.961Zm-.48,3.843H5.8v2.882h-.48a1.441,1.441,0,1,1,0-2.882ZM3.5,39.291A3.85,3.85,0,0,0,5.8,35.766v-2.1h.072a6.736,6.736,0,0,0,3.346,4.891l-.367,1.834H8.682a7.617,7.617,0,0,0-3.3.757A7.547,7.547,0,0,1,3.49,39.291ZM12.854,45.2H12.2a12.2,12.2,0,0,1-6.618-1.968,5.724,5.724,0,0,1,3.1-.915h.961a.961.961,0,0,0,.943-.769l.456-2.28a6.541,6.541,0,0,0,2.968,0l.456,2.281a.961.961,0,0,0,.946.768h.961a5.78,5.78,0,0,1,1.1.116,13.474,13.474,0,0,0-.14,1.805v.086a12.081,12.081,0,0,1-4.479.874ZM26.19,54.805H35.38a11.466,11.466,0,0,1-9.189,0Zm12.2-1.922h-15.2A11.6,11.6,0,0,1,20.816,50H40.754A11.6,11.6,0,0,1,38.386,52.884Zm8.647-11.212-2.006-2.407c.056,0,.11-.01.165-.01h.443l-.011.015,2.083,1.388Zm4.014,0-.7-1.045,1.879-1.371h.653c.059,0,.116.008.175.01Z"/>
      <path id="Trazado_996739" data-name="Trazado 996739" d="M48.926,31.572l-.1-.2-1.72.865.1.2a4.071,4.071,0,0,0,7.281,0l.1-.2-1.72-.865-.1.2a2.148,2.148,0,0,1-3.843,0Z" transform="translate(-1.807 -1.19)"/>
      <path id="Trazado_996740" data-name="Trazado 996740" d="M56.005,47h1.922V62.373H56.005Z" transform="translate(-2.156 -1.803)"/>
      <path id="Trazado_996741" data-name="Trazado 996741" d="M31.848,19.865a4.047,4.047,0,0,0,3.641-2.25l.1-.2-1.72-.859-.1.2a2.148,2.148,0,0,1-3.843,0l-.1-.2-1.72.859.1.2A4.047,4.047,0,0,0,31.848,19.865Z" transform="translate(-1.063 -0.61)"/>
    </g>
  </g>
</svg>
