<svg xmlns="http://www.w3.org/2000/svg" xmlns:xlink="http://www.w3.org/1999/xlink" width="108" height="108" viewBox="0 0 108 108">
  <defs>
    <filter id="Trazado_982547" x="0" y="0" width="108" height="108" filterUnits="userSpaceOnUse">
      <feOffset dy="3" input="SourceAlpha"/>
      <feGaussianBlur stdDeviation="3" result="blur"/>
      <feFlood flood-opacity="0.161"/>
      <feComposite operator="in" in2="blur"/>
      <feComposite in="SourceGraphic"/>
    </filter>
  </defs>
  <g id="Grupo_1159654" data-name="Grupo 1159654" transform="translate(-161 -7521)">
    <g id="Grupo_1158927" data-name="Grupo 1158927" transform="translate(-10 5961)">
      <g id="Grupo_1153955" data-name="Grupo 1153955" transform="translate(-83 1047)">
        <g id="Grupo_1149598" data-name="Grupo 1149598" transform="translate(80 315)">
          <g id="Grupo_1148770" data-name="Grupo 1148770" transform="translate(-27 -2583)">
            <g id="Grupo_1146954" data-name="Grupo 1146954" transform="translate(-415 -1202)">
              <g transform="matrix(1, 0, 0, 1, 616, 3983)" filter="url(#Trazado_982547)">
                <g id="Trazado_982547-2" data-name="Trazado 982547" transform="translate(9 6)" fill="#fef6e8">
                  <path d="M 45 88.5 C 39.12687683105469 88.5 33.43022537231445 87.35007476806641 28.06830024719238 85.08217620849609 C 22.88852500915527 82.89131164550781 18.23629951477051 79.75458526611328 14.2408504486084 75.75914764404297 C 10.24541282653809 71.76370239257812 7.108687400817871 67.11147308349609 4.917825222015381 61.93170166015625 C 2.649924993515015 56.56977462768555 1.5 50.87312316894531 1.5 45 C 1.5 39.12687683105469 2.649924993515015 33.43022537231445 4.917825222015381 28.06830024719238 C 7.108687400817871 22.88852500915527 10.24541282653809 18.23629951477051 14.2408504486084 14.2408504486084 C 18.23629951477051 10.24541282653809 22.88852500915527 7.108687400817871 28.06830024719238 4.917825222015381 C 33.43022537231445 2.649924993515015 39.12687683105469 1.5 45 1.5 C 50.87312316894531 1.5 56.56977462768555 2.649924993515015 61.93170166015625 4.917825222015381 C 67.11147308349609 7.108687400817871 71.76370239257812 10.24541282653809 75.75914764404297 14.2408504486084 C 79.75458526611328 18.23629951477051 82.89131164550781 22.88852500915527 85.08217620849609 28.06830024719238 C 87.35007476806641 33.43022537231445 88.5 39.12687683105469 88.5 45 C 88.5 50.87312316894531 87.35007476806641 56.56977462768555 85.08217620849609 61.93170166015625 C 82.89131164550781 67.11147308349609 79.75458526611328 71.76370239257812 75.75914764404297 75.75914764404297 C 71.76370239257812 79.75458526611328 67.11147308349609 82.89131164550781 61.93170166015625 85.08217620849609 C 56.56977462768555 87.35007476806641 50.87312316894531 88.5 45 88.5 Z" stroke="none"/>
                  <path d="M 45 3 C 39.32871246337891 3 33.82865524291992 4.110054016113281 28.65262985229492 6.299339294433594 C 23.65165710449219 8.414573669433594 19.15968322753906 11.44334411621094 15.301513671875 15.301513671875 C 11.44334411621094 19.15968322753906 8.414573669433594 23.65165710449219 6.299339294433594 28.65262985229492 C 4.110054016113281 33.82865524291992 3 39.32871246337891 3 45 C 3 50.67128753662109 4.110054016113281 56.17134475708008 6.299339294433594 61.34737396240234 C 8.414573669433594 66.34834289550781 11.44334411621094 70.84031677246094 15.301513671875 74.698486328125 C 19.15968322753906 78.55665588378906 23.65165710449219 81.58542633056641 28.65262985229492 83.70066070556641 C 33.82865524291992 85.88994598388672 39.32871246337891 87 45 87 C 50.67128753662109 87 56.17134475708008 85.88994598388672 61.34737396240234 83.70066070556641 C 66.34834289550781 81.58542633056641 70.84031677246094 78.55665588378906 74.698486328125 74.698486328125 C 78.55665588378906 70.84031677246094 81.58542633056641 66.34834289550781 83.70066070556641 61.34737396240234 C 85.88994598388672 56.17134475708008 87 50.67128753662109 87 45 C 87 39.32871246337891 85.88994598388672 33.82865524291992 83.70066070556641 28.65262985229492 C 81.58542633056641 23.65165710449219 78.55665588378906 19.15968322753906 74.698486328125 15.301513671875 C 70.84031677246094 11.44334411621094 66.34834289550781 8.414573669433594 61.34737396240234 6.299339294433594 C 56.17134475708008 4.110054016113281 50.67128753662109 3 45 3 M 45 0 C 69.85281372070312 0 90 20.14718627929688 90 45 C 90 69.85281372070312 69.85281372070312 90 45 90 C 20.14718627929688 90 0 69.85281372070312 0 45 C 0 20.14718627929688 20.14718627929688 0 45 0 Z" stroke="none" fill="#fdaf2f"/>
                </g>
              </g>
            </g>
          </g>
        </g>
      </g>
    </g>
    <g id="juntos" transform="translate(185 7530.096)">
      <g id="Grupo_1159653" data-name="Grupo 1159653" transform="translate(0.871 14.774)">
        <g id="Grupo_1159648" data-name="Grupo 1159648" transform="translate(0 1.589)">
          <g id="Grupo_1159646" data-name="Grupo 1159646" transform="translate(0.915)">
            <path id="Trazado_995607" data-name="Trazado 995607" d="M31.79,52.41V37.966a2.094,2.094,0,0,0-2.09-2.1,2.051,2.051,0,0,0-2.011,2.05v-.772a2.051,2.051,0,0,0-4.1,0v1.543a2.051,2.051,0,0,0-2.011-2.05,2.094,2.094,0,0,0-2.09,2.1V41a2.051,2.051,0,0,0-2.012-2.05,2.1,2.1,0,0,0-2.09,2.1V56.865a4.168,4.168,0,0,0,.889,2.573l1.681,2.142a7.352,7.352,0,0,1,1.568,4.538V87.964H31.79V59.946l2.363-1.013a2.28,2.28,0,0,0,1.338-1.65l.97-4.873Z" transform="translate(-15.385 -35.09)" fill="#ffcec0"/>
            <g id="Grupo_1159645" data-name="Grupo 1159645" transform="translate(4.137 17.32)">
              <path id="Trazado_995608" data-name="Trazado 995608" d="M161.381,184.3l-.572,2.875h-4.1V184.3Z" transform="translate(-144.443 -184.3)" fill="#fdb0a0"/>
              <path id="Trazado_995609" data-name="Trazado 995609" d="M51.027,392.7H63.295v7.74H51.027Z" transform="translate(-51.027 -368.507)" fill="#fdb0a0"/>
            </g>
          </g>
          <g id="Grupo_1159647" data-name="Grupo 1159647" transform="translate(0 29.828)">
            <path id="Trazado_995610" data-name="Trazado 995610" d="M60.374,296.192H38.528a7.352,7.352,0,0,1-4.538-1.568l-2.142-1.681a4.168,4.168,0,0,0-2.573-.889H13.462a2.094,2.094,0,0,0-2.1,2.09,2.051,2.051,0,0,0,2.05,2.011H11.148a2.094,2.094,0,0,0-2.1,2.09,2.051,2.051,0,0,0,2.05,2.012H9.551a2.051,2.051,0,1,0,0,4.1h.772a2.051,2.051,0,0,0-2.05,2.012,2.1,2.1,0,0,0,2.1,2.09H24.82v4.671l4.873-.97a2.28,2.28,0,0,0,1.65-1.338l1.013-2.363H60.374Z" transform="translate(-7.5 -292.055)" fill="#c86f5c"/>
            <path id="Trazado_995611" data-name="Trazado 995611" d="M323.747,327.7h16.165v12.268H323.747Z" transform="translate(-287.038 -323.56)" fill="#ba5d4f"/>
          </g>
        </g>
        <g id="Grupo_1159652" data-name="Grupo 1159652" transform="translate(17.32)">
          <g id="Grupo_1159650" data-name="Grupo 1159650" transform="translate(18.379)">
            <path id="Trazado_995612" data-name="Trazado 995612" d="M319.717,56.958V71.4a2.094,2.094,0,0,0,2.09,2.1,2.051,2.051,0,0,0,2.011-2.05v.772a2.051,2.051,0,0,0,4.1,0V70.684a2.051,2.051,0,0,0,2.011,2.05,2.094,2.094,0,0,0,2.09-2.1V68.369a2.051,2.051,0,0,0,2.011,2.05,2.1,2.1,0,0,0,2.09-2.1V52.5a4.168,4.168,0,0,0-.889-2.573l-1.681-2.142a7.352,7.352,0,0,1-1.568-4.538V21.4H319.717V49.422l-2.363,1.013a2.28,2.28,0,0,0-1.338,1.65l-.97,4.873Z" transform="translate(-315.046 -21.403)" fill="#ffdfd0"/>
            <g id="Grupo_1159649" data-name="Grupo 1159649" transform="translate(4.671)">
              <path id="Trazado_995613" data-name="Trazado 995613" d="M435.549,52.5V68.313a2.093,2.093,0,0,1-2.089,2.1A2.049,2.049,0,0,1,431.55,69a2.074,2.074,0,0,0,.117-.691V52.5a4.165,4.165,0,0,0-.889-2.573l-1.68-2.142a7.352,7.352,0,0,1-1.568-4.539V21.4h3.882V43.246a7.352,7.352,0,0,0,1.568,4.539l1.681,2.142a4.171,4.171,0,0,1,.888,2.573Z" transform="translate(-419.144 -21.4)" fill="#ffcec0"/>
              <path id="Trazado_995614" data-name="Trazado 995614" d="M369.253,206.152l-.132-.168a7.352,7.352,0,0,1-1.568-4.538v-1.071H355.286v5.777h13.967Z" transform="translate(-355.286 -179.6)" fill="#ffcec0"/>
            </g>
          </g>
          <g id="Grupo_1159651" data-name="Grupo 1159651" transform="translate(0 1.971)">
            <path id="Trazado_995615" data-name="Trazado 995615" d="M156.714,55.315h9.342a7.352,7.352,0,0,1,4.538,1.568l2.142,1.681a4.168,4.168,0,0,0,2.573.889h15.813a2.094,2.094,0,0,0,2.1-2.09,2.051,2.051,0,0,0-2.05-2.011h2.261a2.094,2.094,0,0,0,2.1-2.09,2.051,2.051,0,0,0-2.05-2.012h1.543a2.051,2.051,0,1,0,0-4.1h-.772a2.051,2.051,0,0,0,2.05-2.012,2.1,2.1,0,0,0-2.1-2.09H179.764V38.376l-4.873.97a2.28,2.28,0,0,0-1.65,1.338l-1.013,2.363H156.714Z" transform="translate(-156.714 -38.376)" fill="#f69583"/>
            <path id="Trazado_995616" data-name="Trazado 995616" d="M432.928,86.822h-1.543a2.051,2.051,0,0,1,2.05,2.012,2.093,2.093,0,0,1-2.1,2.089h-2.261a2.051,2.051,0,0,1,2.05,2.012,2.093,2.093,0,0,1-2.1,2.089H425.85a2.093,2.093,0,0,0,2.1-2.089,2.051,2.051,0,0,0-2.05-2.012h2.261a2.093,2.093,0,0,0,2.1-2.089,2.051,2.051,0,0,0-2.05-2.012h1.544a2.051,2.051,0,0,0,0-4.1h-.772a2.051,2.051,0,0,0,2.05-2.012,2.093,2.093,0,0,0-2.1-2.089H432.1a2.094,2.094,0,0,1,2.1,2.089,2.051,2.051,0,0,1-2.05,2.012h.771a2.051,2.051,0,1,1,0,4.1Z" transform="translate(-394.609 -73.949)" fill="#ea806f"/>
          </g>
        </g>
      </g>
      <path id="Trazado_995617" data-name="Trazado 995617" d="M59.432,27.568a2.921,2.921,0,0,0-1.3-2.43,2.875,2.875,0,0,0-.306-3.691,3.016,3.016,0,0,0-2.139-.9H54.379v-5.77a.871.871,0,0,0-1.741,0v5.77H42.111v-5.77a.871.871,0,1,0-1.741,0V16.03l-4.172.831a3.15,3.15,0,0,0-2.28,1.849l-.786,1.835H29.4a.871.871,0,1,0,0,1.741h4.307a.871.871,0,0,0,.8-.528L35.518,19.4a1.409,1.409,0,0,1,1.02-.827l3.832-.763v2.739H39.15a.871.871,0,1,0,0,1.741H55.685a1.264,1.264,0,0,1,.9.38,1.141,1.141,0,0,1,.337.823,1.186,1.186,0,0,1-1.18,1.157H43.9a.871.871,0,0,0,0,1.741H56.51a1.18,1.18,0,1,1,0,2.36H43.9a.871.871,0,0,0,0,1.741H54.967a1.186,1.186,0,0,1,1.18,1.157,1.141,1.141,0,0,1-.337.823,1.265,1.265,0,0,1-.9.38H43.9a.871.871,0,1,0,0,1.741h8.748a1.186,1.186,0,0,1,1.18,1.157,1.142,1.142,0,0,1-.337.823,1.265,1.265,0,0,1-.9.38H36.786a3.311,3.311,0,0,1-2.035-.7l-2.142-1.681a8.259,8.259,0,0,0-5.075-1.753H19.062V22.286h6.507a.871.871,0,1,0,0-1.741H19.062V19.239a3.017,3.017,0,0,0-.9-2.139,2.875,2.875,0,0,0-3.691-.306,2.92,2.92,0,0,0-5.163.585,2.872,2.872,0,0,0-3.389.492,3.025,3.025,0,0,0-.874,1.743,2.87,2.87,0,0,0-3.227.572,3.017,3.017,0,0,0-.9,2.139v8.28a.871.871,0,1,0,1.741,0v-8.28a1.265,1.265,0,0,1,.38-.9,1.132,1.132,0,0,1,.823-.337,1.186,1.186,0,0,1,1.157,1.18V31.02a.871.871,0,0,0,1.741,0V20.011a1.265,1.265,0,0,1,.38-.9,1.149,1.149,0,0,1,.823-.337,1.186,1.186,0,0,1,1.157,1.18V31.02a.871.871,0,1,0,1.741,0V18.414a1.18,1.18,0,0,1,2.36,0V31.02a.871.871,0,1,0,1.741,0V19.186a1.185,1.185,0,0,1,1.157-1.18,1.138,1.138,0,0,1,.823.337,1.265,1.265,0,0,1,.38.9V36.53a.871.871,0,0,0,1.741,0V34.554H21.8l-.763,3.832a1.409,1.409,0,0,1-.827,1.02l-2.363,1.013a.871.871,0,0,0-.528.8v4.1s-10.689.005-10.789.016a8.249,8.249,0,0,0-1.491-3.02L3.36,40.174a3.312,3.312,0,0,1-.7-2.035v-3.7a.871.871,0,1,0-1.741,0v3.7a5.061,5.061,0,0,0,1.074,3.11l1.681,2.142A6.5,6.5,0,0,1,4.9,46.028c-.073.061-.143.126-.211.194a2.871,2.871,0,0,0-.572,3.227,3.025,3.025,0,0,0-1.742.874,2.872,2.872,0,0,0-.493,3.388A2.921,2.921,0,0,0,1.3,58.875a2.875,2.875,0,0,0,.306,3.691,3.016,3.016,0,0,0,2.139.9H5.052v5.77a.871.871,0,1,0,1.741,0v-5.77H17.32v5.77a.871.871,0,1,0,1.741,0V67.981l4.172-.831A3.15,3.15,0,0,0,25.514,65.3l.786-1.835H40.37v1.306a3.017,3.017,0,0,0,.9,2.139,2.875,2.875,0,0,0,3.691.306,2.92,2.92,0,0,0,5.163-.585,2.872,2.872,0,0,0,3.389-.492,3.025,3.025,0,0,0,.874-1.743,2.87,2.87,0,0,0,3.227-.572,3.017,3.017,0,0,0,.9-2.139V45.873a5.061,5.061,0,0,0-1.074-3.11l-1.681-2.142a6.5,6.5,0,0,1-1.234-2.636q.11-.092.211-.194a2.871,2.871,0,0,0,.572-3.227,3.025,3.025,0,0,0,1.742-.874,2.872,2.872,0,0,0,.492-3.389,2.926,2.926,0,0,0,1.887-2.732ZM19.062,41.793l1.835-.786a3.15,3.15,0,0,0,1.849-2.28l.831-4.172h3.957a6.511,6.511,0,0,1,4,1.382l2.142,1.681a5.06,5.06,0,0,0,3.11,1.075H40.37v3.527l-1.835.787a3.15,3.15,0,0,0-1.849,2.28l-.831,4.172H31.9a6.511,6.511,0,0,1-4-1.382l-2.142-1.681a5.06,5.06,0,0,0-3.11-1.075H19.062Zm35.33-.1,1.681,2.142a3.312,3.312,0,0,1,.7,2.035V61.686a1.265,1.265,0,0,1-.38.9,1.147,1.147,0,0,1-.823.337,1.186,1.186,0,0,1-1.157-1.18V52.992a.871.871,0,1,0-1.741,0V64a1.265,1.265,0,0,1-.38.9,1.126,1.126,0,0,1-.823.337,1.186,1.186,0,0,1-1.157-1.18V52.992a.871.871,0,1,0-1.741,0V65.6a1.18,1.18,0,0,1-2.36,0V52.992a.871.871,0,1,0-1.741,0V64.826a1.185,1.185,0,0,1-1.157,1.18,1.144,1.144,0,0,1-.823-.337,1.265,1.265,0,0,1-.38-.9V56.983a.871.871,0,1,0-1.741,0v4.742H25.726a.871.871,0,0,0-.8.528l-1.013,2.363a1.409,1.409,0,0,1-1.02.827l-3.832.763V63.467H20.1a.871.871,0,0,0,0-1.741H3.747a1.265,1.265,0,0,1-.9-.38,1.142,1.142,0,0,1-.337-.823,1.186,1.186,0,0,1,1.18-1.157H15.527a.871.871,0,0,0,0-1.741H2.921a1.18,1.18,0,1,1,0-2.36H15.527a.871.871,0,0,0,0-1.741H4.464a1.186,1.186,0,0,1-1.18-1.157,1.141,1.141,0,0,1,.337-.823,1.265,1.265,0,0,1,.9-.38H15.527a.871.871,0,1,0,0-1.741H6.779A1.186,1.186,0,0,1,5.6,48.264a1.141,1.141,0,0,1,.337-.823,1.265,1.265,0,0,1,.9-.38H22.646a3.311,3.311,0,0,1,2.035.7l2.142,1.681A8.259,8.259,0,0,0,31.9,51.2H40.37v1.955a.871.871,0,0,0,1.741,0V47.482a.871.871,0,0,0-1.741,0v1.976H37.631l.763-3.832a1.409,1.409,0,0,1,.827-1.02l2.363-1.013a.871.871,0,0,0,.528-.8v-4.1S52.8,38.686,52.9,38.675a8.246,8.246,0,0,0,1.491,3.02Z" transform="translate(0 0)"/>
    </g>
  </g>
</svg>
