<svg xmlns="http://www.w3.org/2000/svg" xmlns:xlink="http://www.w3.org/1999/xlink" width="402" height="229" viewBox="0 0 402 229">
  <defs>
    <clipPath id="clip-path">
      <rect id="Rectángulo_409727" data-name="Rectángulo 409727" width="402" height="229" transform="translate(1020 4626)" fill="#fff" stroke="#707070" stroke-width="1" opacity="0.42"/>
    </clipPath>
    <filter id="Elipse_11702" x="235" y="63" width="156" height="156" filterUnits="userSpaceOnUse">
      <feOffset dy="3" input="SourceAlpha"/>
      <feGaussianBlur stdDeviation="3" result="blur"/>
      <feFlood flood-opacity="0.161"/>
      <feComposite operator="in" in2="blur"/>
      <feComposite in="SourceGraphic"/>
    </filter>
    <filter id="Elipse_11703" x="8" y="-1" width="237" height="237" filterUnits="userSpaceOnUse">
      <feOffset dy="3" input="SourceAlpha"/>
      <feGaussianBlur stdDeviation="3" result="blur-2"/>
      <feFlood flood-opacity="0.161"/>
      <feComposite operator="in" in2="blur-2"/>
      <feComposite in="SourceGraphic"/>
    </filter>
    <clipPath id="clip-path-2">
      <rect id="Rectángulo_409715" data-name="Rectángulo 409715" width="402" height="268" transform="translate(402 268) rotate(180)"/>
    </clipPath>
    <clipPath id="clip-path-6">
      <rect id="Rectángulo_409719" data-name="Rectángulo 409719" width="402" height="268" transform="translate(0 0)"/>
    </clipPath>
  </defs>
  <g id="Enmascarar_grupo_1098752" data-name="Enmascarar grupo 1098752" transform="translate(-1020 -4626)" clip-path="url(#clip-path)">
    <g id="Grupo_1159407" data-name="Grupo 1159407" transform="translate(-555 179)">
      <g transform="matrix(1, 0, 0, 1, 1575, 4447)" filter="url(#Elipse_11702)">
        <circle id="Elipse_11702-2" data-name="Elipse 11702" cx="69" cy="69" r="69" transform="translate(244 69)" fill="#dfecf7"/>
      </g>
      <g transform="matrix(1, 0, 0, 1, 1575, 4447)" filter="url(#Elipse_11703)">
        <circle id="Elipse_11703-2" data-name="Elipse 11703" cx="109.5" cy="109.5" r="109.5" transform="translate(17 5)" fill="#dfecf7"/>
      </g>
      <g id="OBJECTS" transform="translate(1575.206 4376.109)">
        <g id="Grupo_1159337" data-name="Grupo 1159337" transform="translate(-0.206 -0.109)">
          <g id="Grupo_1159334" data-name="Grupo 1159334" transform="translate(0)" clip-path="url(#clip-path-2)">
            <path id="Trazado_995077" data-name="Trazado 995077" d="M386.168,269.472a108.554,108.554,0,0,0-3.667-47.409c-6.92,17.768-8.93,37.561-4.712,56.157a30.751,30.751,0,0,0-15.263-14.512,40.674,40.674,0,0,0,8.342,24.516l-.152.236a33.165,33.165,0,0,0-16.5-5.173,25.347,25.347,0,0,0,10.212,15.134c-6.518,10.078-13.861,19.735-24.6,24.625-12.656,5.761-26.624,3.549-40.721,1.521a28.039,28.039,0,0,0,2.261-17.034,30.511,30.511,0,0,0-11.682,13.9,49.575,49.575,0,0,0-3.289-23.232,36.456,36.456,0,0,0-7.947,23.83,79.276,79.276,0,0,0-19.714-40.12,72.186,72.186,0,0,0,10.48,41.487c-20.821,3.027-40.2,14.866-60.468,20.359a17.433,17.433,0,0,0,.854-9.779,20.355,20.355,0,0,0-7.9,8.643,33.2,33.2,0,0,0-3.093-21.149,29.538,29.538,0,0,0-3.989,21.349,18.7,18.7,0,0,0-8.509-10.938,37.025,37.025,0,0,0,5.435,14.657q-2.273.084-4.57,0a72.807,72.807,0,0,1-19.255-3.636c3.751-1.424,7.209-3.719,9.049-8.92a19.546,19.546,0,0,0-14.9,5.449,33.409,33.409,0,0,0,3.568-23.536,30.927,30.927,0,0,0-9.267,22.708c-18.638-7.751-36.725-18.255-56.64-17.522-.981.036-1.96.1-2.939.189a14.16,14.16,0,0,0,.761-6.415,11.43,11.43,0,0,0-6.018,5.584,28.182,28.182,0,0,0-2.1-11.44c-2.651,3.223-4.718,7.28-4.6,11.451a31.246,31.246,0,0,0-7.8-15.685,34.242,34.242,0,0,0,2.22,19.827c-11.291,2.756-22.477,5.671-33.53,2.815-12.869-3.326-22.583-13.925-29.716-25.141-5.6-8.811-10.142-18.338-15.93-26.99a26.057,26.057,0,0,0,9.49-16.346,26.707,26.707,0,0,0-14.77,9.233l-.123-.147A47.039,47.039,0,0,0-.386,234.753,42.964,42.964,0,0,0-12.563,261c-7.694-6.4-17.17-10.568-26.947-9.422L-30.6,382.74H401.346V261.2A37.049,37.049,0,0,0,386.168,269.472Z" transform="translate(18.651 -102.925)" fill="#bfc4f5"/>
          </g>
          <g id="Grupo_1159335" data-name="Grupo 1159335" transform="translate(0)" opacity="0.3" clip-path="url(#clip-path-2)">
            <path id="Trazado_995078" data-name="Trazado 995078" d="M13.7-94.929,13.387-93.9C26.826-89.853,36.115-74.753,33.673-60.93S17.326-36.108,3.312-36.91C1.774-37,.152-37.2-1.415-37.4c-5.169-.648-10.514-1.318-14.7,1.743a11.62,11.62,0,0,0-4.355,7.121,18.979,18.979,0,0,0,.268,8.621,51.166,51.166,0,0,0,3.917,9.531c.928,1.885,1.888,3.835,2.67,5.8,5.708,14.367,2.532,31.938-8.091,44.763C-31.462,51.964-46.74,59.352-63.625,60.457a75.231,75.231,0,0,1-18.636-1.175,95.1,95.1,0,0,1-27.451-9.856l-.506.944a96.181,96.181,0,0,0,27.762,9.965,76.252,76.252,0,0,0,18.9,1.191A65.707,65.707,0,0,0-40.041,55.5a55.077,55.077,0,0,0,19.158-14.63A48.712,48.712,0,0,0-10.6,18.939,42.937,42.937,0,0,0-12.622-4.971c-.8-2.009-1.767-3.978-2.705-5.882a50.354,50.354,0,0,1-3.841-9.328c-1.3-4.981-.665-11.429,3.683-14.607,3.843-2.809,8.973-2.166,13.935-1.545,1.585.2,3.225.4,4.8.494a30.054,30.054,0,0,0,20.265-6.73A30.054,30.054,0,0,0,34.726-60.744a30.055,30.055,0,0,0-4.3-20.916A30.044,30.044,0,0,0,13.7-94.929Z" transform="translate(196.63 177.839) rotate(-120)" fill="#fff9f2"/>
            <path id="Trazado_995080" data-name="Trazado 995080" d="M748.238,267.47c-15.788,0-31.622-7.737-40.968-20.482a50.216,50.216,0,0,1,38.822-79.882l-.036-1.071a51.127,51.127,0,0,0-17.983,98.418,52.172,52.172,0,0,0,20.08,4.095,48.669,48.669,0,0,0,7.123-.521l-.157-1.06A47.054,47.054,0,0,1,748.238,267.47Z" transform="translate(-323.222 -76.906)" fill="#fff9f2"/>
            <path id="Trazado_995082" data-name="Trazado 995082" d="M-4.784,237.641a25.629,25.629,0,0,0-12.275-7.78,22.459,22.459,0,0,0-14.353.508l.395,1c8.383-3.324,19.075-.391,25.422,6.976C.224,245.1,2.5,255.3.341,264.961c-2.435,10.9-9.405,18.929-14.823,23.741-6.18,5.489-13.94,10.153-24.421,14.676l.424.983c10.588-4.57,18.439-9.292,24.708-14.859a53.146,53.146,0,0,0,9.5-11,41.425,41.425,0,0,0,5.661-13.307,34.52,34.52,0,0,0,.108-14.557A29.108,29.108,0,0,0-4.784,237.641Z" transform="translate(18.369 -106.114)" fill="#fff9f2"/>
          </g>
          <g id="Grupo_1159336" data-name="Grupo 1159336" transform="translate(0)" clip-path="url(#clip-path-2)">
            <line id="Línea_745" data-name="Línea 745" y1="11.691" x2="8.335" transform="translate(227.148 85.829)" fill="none" stroke="#b5bbf5" stroke-linecap="round" stroke-linejoin="round" stroke-miterlimit="10" stroke-width="2.5"/>
            <line id="Línea_746" data-name="Línea 746" y1="11.085" x2="7.903" transform="translate(216.918 100.783)" fill="none" stroke="#b5bbf5" stroke-linecap="round" stroke-linejoin="round" stroke-miterlimit="10" stroke-width="2.5"/>
            <line id="Línea_747" data-name="Línea 747" y1="1.201" x2="16.522" transform="translate(239.536 119.586)" fill="none" stroke="#b5bbf5" stroke-linecap="round" stroke-linejoin="round" stroke-miterlimit="10" stroke-width="2.5"/>
            <line id="Línea_748" data-name="Línea 748" y1="0.625" x2="8.587" transform="translate(228.11 120.993)" fill="none" stroke="#b5bbf5" stroke-linecap="round" stroke-linejoin="round" stroke-miterlimit="10" stroke-width="2.5"/>
            <line id="Línea_749" data-name="Línea 749" x1="5.566" y1="16.734" transform="translate(184.457 82.376)" fill="none" stroke="#b5bbf5" stroke-linecap="round" stroke-linejoin="round" stroke-miterlimit="10" stroke-width="2.5"/>
            <line id="Línea_750" data-name="Línea 750" x1="1.231" y1="3.703" transform="translate(191.109 102.377)" fill="none" stroke="#b5bbf5" stroke-linecap="round" stroke-linejoin="round" stroke-miterlimit="10" stroke-width="2.5"/>
            <line id="Línea_751" data-name="Línea 751" x1="4.901" y1="2.754" transform="translate(157.277 100.855)" fill="none" stroke="#b5bbf5" stroke-linecap="round" stroke-linejoin="round" stroke-miterlimit="10" stroke-width="2.5"/>
            <line id="Línea_752" data-name="Línea 752" x1="15.195" y1="8.539" transform="translate(164.767 105.064)" fill="none" stroke="#b5bbf5" stroke-linecap="round" stroke-linejoin="round" stroke-miterlimit="10" stroke-width="2.5"/>
            <line id="Línea_753" data-name="Línea 753" x1="3.501" y1="1.967" transform="translate(182.376 114.959)" fill="none" stroke="#b5bbf5" stroke-linecap="round" stroke-linejoin="round" stroke-miterlimit="10" stroke-width="2.5"/>
          </g>
        </g>
        <g id="Grupo_1159342" data-name="Grupo 1159342" transform="translate(-0.206 -0.109)">
          <g id="Grupo_1159338" data-name="Grupo 1159338" transform="translate(0)" clip-path="url(#clip-path-6)">
            <path id="Trazado_995083" data-name="Trazado 995083" d="M420.759,465.889a65.212,65.212,0,0,1-5.73-3.323,15.475,15.475,0,0,0,2.516-10.828c-.288,1.936-1.349,3.62-2.126,5.417a8.658,8.658,0,0,0-.76,5.17q-1.393-.921-2.732-1.915a37.888,37.888,0,0,0,3.485-8.071,17.635,17.635,0,0,0,.281-9.087,14.438,14.438,0,0,1-1.654,5.756,40.7,40.7,0,0,0-2.412,5.6,9.7,9.7,0,0,0-.144,5.47q-1.627-1.233-3.163-2.578a53.66,53.66,0,0,1,2.055-5.324,10.747,10.747,0,0,0,.854-6.129,17.511,17.511,0,0,1-1.749,3.941,18.041,18.041,0,0,0-1.727,3.971,5.813,5.813,0,0,0,.013,3.048c-.139-.125-.279-.25-.417-.376q-1.24-1.131-2.421-2.326a28.215,28.215,0,0,0,5.562-20.739,30.6,30.6,0,0,1-2.218,8.353c-.834,2.051-1.89,4.01-2.655,6.088a14.065,14.065,0,0,0-1.043,5.938q-1.428-1.465-2.756-3.021c.511-1.925,1.364-3.747,2.055-5.619a13.173,13.173,0,0,0,1.01-6.333c-.907,2.071-2.1,4.053-2.913,6.165a8.681,8.681,0,0,0-.663,5.178q-1.387-1.674-2.644-3.452a38.949,38.949,0,0,0,4.938-8.525,19.743,19.743,0,0,0,1.386-10.191,31.356,31.356,0,0,1-3.542,10.33c-.762,1.4-1.633,2.736-2.315,4.173a9.115,9.115,0,0,0-.788,3.75q-.747-1.085-1.442-2.208-.276-.448-.541-.9a22.508,22.508,0,0,1,1.9-3.623,16.14,16.14,0,0,0,1.977-7.274,32.2,32.2,0,0,0-3.051,5.278,11.17,11.17,0,0,0-1,5.321c-.84-1.452-1.612-2.943-2.334-4.46a26.96,26.96,0,0,0,6.57-18.815,41.236,41.236,0,0,1-2.547,6.58c-.988,2.011-2.144,3.943-2.989,6.018a12.978,12.978,0,0,0-1.261,5.734c-.627-1.342-1.217-2.7-1.784-4.076a19.736,19.736,0,0,0,3.6-10.438c-.62,1.821-1.875,3.407-2.729,5.131a9.453,9.453,0,0,0-1.206,4.481c-.509-1.256-1-2.519-1.487-3.784l0-.008a17.847,17.847,0,0,0,4.14-17.579c.029,3.031-1.237,5.817-2.359,8.633-1.013,2.544-2.209,5.5-2.049,8.25q-.689-1.791-1.378-3.586a14.65,14.65,0,0,0,2.048-9.091c-.482,1.555-1.244,3.023-1.755,4.569a9.069,9.069,0,0,0-.628,3.658c-.507-1.3-1.024-2.6-1.561-3.89a15.718,15.718,0,0,0-2.326-7.262,43.717,43.717,0,0,1-3.722-7.318,21.759,21.759,0,0,0,5.98,15.037q.541,1.393,1.056,2.8a6.9,6.9,0,0,0-2.059-1.865c-1.272-.811-2.734-1.4-4.007-2.2a9.425,9.425,0,0,0,6.539,5.358c.469,1.29.93,2.584,1.4,3.875a6.111,6.111,0,0,0-2.332-1.772c-1.079-.467-2.237-.722-3.337-1.138-3.352-1.27-5.807-3.976-8.231-6.618a8.622,8.622,0,0,0,2.689,5.593,14.266,14.266,0,0,0,5.445,3.166,41.434,41.434,0,0,0,5.994,1.405l.052.143c.47,1.285.947,2.572,1.443,3.853a9.829,9.829,0,0,0-4.677-1.561c-1.957-.3-4.234-.554-5.677-1.909a13.586,13.586,0,0,0,10.555,3.983c.621,1.585,1.273,3.16,1.976,4.713a10.793,10.793,0,0,0-5.508-3.3c-2.043-.559-4.165-.781-6.217-1.31a21.177,21.177,0,0,1-6.5-2.822,23.537,23.537,0,0,0,18.247,7.467c.709,1.563,1.471,3.1,2.307,4.608-1.581-1-3.521-1.044-5.436-1.147-2.082-.111-4.388-.056-6.074-1.283a12.039,12.039,0,0,0,11.7,2.778q.272.481.554.957.843,1.424,1.771,2.8a11.317,11.317,0,0,0-5.589-1.548c-2.1-.06-4.183.426-6.285.511a16.691,16.691,0,0,1-8.325-1.736,16.862,16.862,0,0,0,9.849,4,34.738,34.738,0,0,0,10.537-.952q1.4,2.051,2.988,3.97a3.761,3.761,0,0,0-2.45-.367,25.692,25.692,0,0,0-3.077.686,16.6,16.6,0,0,1-7.308.12,15.7,15.7,0,0,0,13.044-.187q1.321,1.573,2.765,3.036a10.263,10.263,0,0,0-4.065-.069c-1.656.216-3.266.689-4.9,1.009a27.117,27.117,0,0,1-10.861.019,25.959,25.959,0,0,0,20.28-.508q1.019,1,2.095,1.949.4.346.8.685a6.2,6.2,0,0,0-3.055-.016,28.1,28.1,0,0,0-4.266,1.288,13.74,13.74,0,0,1-4.471.974,20.308,20.308,0,0,0,12.366-1.774q1.329,1.081,2.722,2.077a12.121,12.121,0,0,0-3.956-.012,20.835,20.835,0,0,0-5.282,1.434c-1.271.509-2.51,1.1-3.807,1.539a10.3,10.3,0,0,1-4.107.69,24.851,24.851,0,0,0,17.883-3.141q1.223.841,2.492,1.608a9.59,9.59,0,0,0-4.23,1.148c-1.5.78-2.925,1.687-4.619,1.637a16.366,16.366,0,0,0,9.341-2.492,46.115,46.115,0,0,0,6.141,3.04Z" transform="translate(-173.849 -188.225)" fill="#646cbd"/>
          </g>
          <g id="Grupo_1159339" data-name="Grupo 1159339" transform="translate(0)" clip-path="url(#clip-path-6)">
            <path id="Trazado_995084" data-name="Trazado 995084" d="M502.124,445.508A54.086,54.086,0,0,0,508.783,441a19.2,19.2,0,0,0,11.251,1.419c-1.961.326-3.756-.5-5.628-1.171a11.247,11.247,0,0,0-5.1-.665q1.353-1.092,2.642-2.263a29.153,29.153,0,0,0,21.284.82,12.08,12.08,0,0,1-4.884-.153c-1.577-.305-3.111-.8-4.668-1.186a24.429,24.429,0,0,0-6.367-.83,14.209,14.209,0,0,0-4.6.64q1.463-1.376,2.835-2.846a23.822,23.822,0,0,0,14.654.1,16.118,16.118,0,0,1-5.351-.425,33.006,33.006,0,0,0-5.161-.821,7.283,7.283,0,0,0-3.548.5q.418-.458.827-.924,1.1-1.266,2.126-2.6a30.453,30.453,0,0,0,23.654-2.621,31.8,31.8,0,0,1-12.627,1.7c-1.955-.112-3.9-.408-5.86-.4a12.032,12.032,0,0,0-4.714.723q1.447-1.927,2.733-3.967a18.416,18.416,0,0,0,15.192-1.848,19.463,19.463,0,0,1-8.513,1.018,30.032,30.032,0,0,0-3.685-.31,4.41,4.41,0,0,0-2.789.815q1.54-2.476,2.845-5.087a40.764,40.764,0,0,0,12.4-.562,19.779,19.779,0,0,0,10.815-6.205,19.578,19.578,0,0,1-9.4,3.336c-2.456.235-4.952,0-7.386.4a13.277,13.277,0,0,0-6.252,2.684q.86-1.743,1.615-3.533.253-.6.492-1.2a14.123,14.123,0,0,0,13.164-5.083c-1.766,1.692-4.454,1.994-6.857,2.452-2.21.422-4.458.779-6.137,2.193.733-1.882,1.375-3.792,1.952-5.721a27.611,27.611,0,0,0,20.026-11.568,24.836,24.836,0,0,1-7.113,4.31c-2.3.938-4.732,1.533-7.019,2.506a12.657,12.657,0,0,0-5.88,4.7c.571-1.916,1.08-3.85,1.55-5.791a15.938,15.938,0,0,0,11.638-6.3c-1.463,1.8-4.07,2.458-6.3,3.118a11.528,11.528,0,0,0-5.189,2.555c.373-1.567.725-3.138,1.068-4.706.013-.058.025-.117.037-.175a48.578,48.578,0,0,0,6.745-2.583,16.737,16.737,0,0,0,5.828-4.543,10.115,10.115,0,0,0,2.24-6.927c-2.4,3.455-4.823,6.989-8.519,9-1.212.658-2.518,1.138-3.7,1.852a7.163,7.163,0,0,0-2.43,2.429c.337-1.575.668-3.151,1.009-4.726a11.055,11.055,0,0,0,6.752-7.263c-1.352,1.14-2.96,2.053-4.309,3.2a8.088,8.088,0,0,0-2.1,2.493c.253-1.142.512-2.282.785-3.419a25.523,25.523,0,0,0,4.57-18.425c-.574,3.165-2.012,6.094-3.168,9.1a18.438,18.438,0,0,0-1.554,8.808c-.42,1.584-.815,3.175-1.2,4.768a10.646,10.646,0,0,0-1.309-4.152c-.839-1.716-1.957-3.3-2.764-5.032a17.187,17.187,0,0,0,3.82,10.24c-.348,1.463-.689,2.928-1.035,4.389-.25-3.221-2.108-6.468-3.688-9.265-1.75-3.1-3.663-6.133-4.109-9.661a20.936,20.936,0,0,0,7.6,19.778l0,.01c-.364,1.547-.736,3.094-1.129,4.635a11.08,11.08,0,0,0-2.111-5.019c-1.266-1.868-2.976-3.513-3.985-5.532a23.148,23.148,0,0,0,5.834,11.563c-.441,1.685-.912,3.361-1.428,5.02a15.234,15.234,0,0,0-2.374-6.465c-1.31-2.279-2.96-4.341-4.427-6.523a48.345,48.345,0,0,1-4-7.246,31.632,31.632,0,0,0,10.615,20.829c-.6,1.878-1.26,3.733-2.006,5.553a13.1,13.1,0,0,0-2-6.027,37.751,37.751,0,0,0-4.382-5.652,18.932,18.932,0,0,0,3.45,8.142,26.348,26.348,0,0,1,2.784,3.91q-.238.568-.486,1.132-.627,1.416-1.327,2.794a10.689,10.689,0,0,0-1.51-4.233c-1.02-1.563-2.244-2.982-3.351-4.485a36.8,36.8,0,0,1-5.752-11.446,23.161,23.161,0,0,0,3.224,11.626,45.662,45.662,0,0,0,7.09,9.127q-1.175,2.267-2.528,4.434a10.181,10.181,0,0,0-1.588-5.917c-1.274-2.326-2.98-4.441-4.362-6.7a15.459,15.459,0,0,0,2.176,7.2c1.1,2.066,2.379,4.049,3.278,6.206q-1.3,2.02-2.725,3.948a16.514,16.514,0,0,0-2.153-6.737c-1.219-2.294-2.756-4.4-4.05-6.656a35.885,35.885,0,0,1-3.9-9.357,33.1,33.1,0,0,0,9.748,23.226q-1.184,1.574-2.446,3.087c-.14.169-.283.336-.425.5a6.817,6.817,0,0,0-.468-3.545,21.169,21.169,0,0,0-2.636-4.343,20.515,20.515,0,0,1-2.657-4.3,12.606,12.606,0,0,0,1.963,6.988A62.973,62.973,0,0,1,515.2,433.7q-1.571,1.807-3.269,3.5a11.374,11.374,0,0,0-1.031-6.337,47.757,47.757,0,0,0-3.691-6.126,16.935,16.935,0,0,1-2.835-6.429,20.685,20.685,0,0,0,1.766,10.518,44.469,44.469,0,0,0,5.329,8.83q-1.4,1.369-2.875,2.661a10.153,10.153,0,0,0-1.7-5.892c-1.187-1.966-2.688-3.755-3.328-5.96a18.153,18.153,0,0,0,4.639,12.187,76.633,76.633,0,0,1-6.134,4.77Z" transform="translate(-232.861 -171.219)" fill="#646cbd"/>
          </g>
          <g id="Grupo_1159340" data-name="Grupo 1159340" transform="translate(0)" clip-path="url(#clip-path-6)">
            <path id="Trazado_995085" data-name="Trazado 995085" d="M188.558,387.571c-1.2-2.78-2.661-5.482-3.318-8.438a24.028,24.028,0,0,0,4.983,17.161q.448,1.589.865,3.187a7.624,7.624,0,0,0-2.067-2.267c-1.312-1.026-2.858-1.824-4.172-2.846a10.407,10.407,0,0,0,6.621,6.58c.379,1.468.749,2.938,1.125,4.407a6.746,6.746,0,0,0-2.376-2.195c-1.137-.627-2.383-1.03-3.548-1.6-3.551-1.75-5.962-4.985-8.347-8.145a9.52,9.52,0,0,0,2.365,6.432,15.756,15.756,0,0,0,5.651,4.056,45.8,45.8,0,0,0,6.441,2.179l.042.163c.381,1.463.77,2.927,1.179,4.387a10.85,10.85,0,0,0-4.976-2.21c-2.119-.537-4.595-1.057-6.038-2.7a15,15,0,0,0,11.181,5.495c.515,1.808,1.065,3.608,1.674,5.389a11.914,11.914,0,0,0-5.706-4.2c-2.187-.831-4.5-1.3-6.7-2.1a23.376,23.376,0,0,1-6.85-3.79,25.989,25.989,0,0,0,19.268,10.137c.614,1.793,1.289,3.567,2.049,5.309-1.632-1.268-3.759-1.521-5.854-1.835-2.277-.342-4.817-.525-6.541-2.052a13.294,13.294,0,0,0,12.571,4.291q.248.558.507,1.111.776,1.655,1.651,3.263a12.5,12.5,0,0,0-5.98-2.292c-2.3-.289-4.643.027-6.962-.1a18.431,18.431,0,0,1-8.967-2.788,18.615,18.615,0,0,0,10.4,5.435,38.38,38.38,0,0,0,11.683.068q1.323,2.4,2.864,4.68a4.156,4.156,0,0,0-2.654-.663,28.229,28.229,0,0,0-3.455.429,18.326,18.326,0,0,1-8.045-.641,17.336,17.336,0,0,0,14.359,1.173q1.285,1.869,2.718,3.63a11.325,11.325,0,0,0-4.46-.5c-1.842.063-3.662.412-5.5.591a29.938,29.938,0,0,1-11.94-1.128,28.669,28.669,0,0,0,22.346,1.586q1.014,1.211,2.1,2.364.4.423.812.838a6.85,6.85,0,0,0-3.357-.34,31.024,31.024,0,0,0-4.825.964,15.182,15.182,0,0,1-5.017.6,22.425,22.425,0,0,0,13.78-.643q1.346,1.328,2.773,2.571a13.39,13.39,0,0,0-4.347-.431,23,23,0,0,0-5.958,1.018c-1.45.426-2.876.944-4.347,1.29a11.381,11.381,0,0,1-4.588.325,27.441,27.441,0,0,0,19.989-1.562q1.255,1.053,2.569,2.031a10.583,10.583,0,0,0-4.771.815c-1.736.7-3.394,1.545-5.25,1.311a18.074,18.074,0,0,0,10.53-1.753,50.874,50.874,0,0,0,6.431,3.992l.048-.084a72.117,72.117,0,0,1-5.947-4.259,17.091,17.091,0,0,0,3.911-11.636c-.521,2.1-1.865,3.837-2.909,5.729a9.561,9.561,0,0,0-1.38,5.6q-1.436-1.16-2.8-2.4a41.854,41.854,0,0,0,4.684-8.5,19.477,19.477,0,0,0,1.27-9.959,15.931,15.931,0,0,1-2.427,6.152,44.938,44.938,0,0,0-3.244,5.9,10.706,10.706,0,0,0-.735,6q-1.659-1.528-3.205-3.169a59.222,59.222,0,0,1,2.822-5.635,11.869,11.869,0,0,0,1.587-6.647,19.307,19.307,0,0,1-2.339,4.147,19.925,19.925,0,0,0-2.318,4.182,6.417,6.417,0,0,0-.308,3.352c-.14-.153-.281-.3-.419-.458q-1.243-1.374-2.416-2.812a31.157,31.157,0,0,0,8.306-22.209,33.811,33.811,0,0,1-3.321,8.947c-1.134,2.167-2.5,4.208-3.562,6.411a15.539,15.539,0,0,0-1.775,6.417q-1.414-1.76-2.71-3.612c.766-2.062,1.9-3.975,2.853-5.959a14.551,14.551,0,0,0,1.779-6.854c-1.216,2.18-2.742,4.233-3.854,6.468a9.586,9.586,0,0,0-1.276,5.622q-1.348-1.987-2.541-4.074a43,43,0,0,0,6.329-8.848,21.8,21.8,0,0,0,2.6-11.055,34.625,34.625,0,0,1-4.985,10.98c-.985,1.455-2.084,2.834-2.985,4.343a10.075,10.075,0,0,0-1.263,4.038q-.707-1.272-1.352-2.58-.255-.52-.5-1.047a24.808,24.808,0,0,1,2.473-3.781,17.816,17.816,0,0,0,2.943-7.786,35.566,35.566,0,0,0-3.912,5.48,12.335,12.335,0,0,0-1.661,5.743c-.77-1.684-1.461-3.4-2.094-5.149a29.774,29.774,0,0,0,9.211-19.987,45.507,45.507,0,0,1-3.5,6.964c-1.3,2.107-2.774,4.107-3.921,6.3a14.338,14.338,0,0,0-1.993,6.169c-.547-1.541-1.052-3.1-1.53-4.669a21.794,21.794,0,0,0,5.057-11.093c-.875,1.936-2.421,3.547-3.543,5.351a10.428,10.428,0,0,0-1.8,4.8c-.427-1.434-.834-2.876-1.234-4.317l0-.01A19.71,19.71,0,0,0,199.7,387.22c-.289,3.335-1.975,6.263-3.506,9.24-1.382,2.689-3.009,5.812-3.125,8.851q-.569-2.043-1.137-4.09a16.177,16.177,0,0,0,3.213-9.774c-.695,1.659-1.687,3.191-2.412,4.836a10.024,10.024,0,0,0-1.077,3.955c-.42-1.485-.851-2.967-1.3-4.441A17.381,17.381,0,0,0,188.558,387.571Z" transform="translate(-81.706 -175.869)" fill="#646cbd"/>
          </g>
          <g id="Grupo_1159341" data-name="Grupo 1159341" transform="translate(0)" clip-path="url(#clip-path-6)">
            <path id="Trazado_995086" data-name="Trazado 995086" d="M315.019,432.577a13.967,13.967,0,0,0-6.765,2.348q1.033-1.766,1.961-3.588.311-.609.607-1.223a14.865,14.865,0,0,0,14.2-4.347c-1.981,1.644-4.826,1.759-7.383,2.06-2.352.277-4.738.483-6.607,1.841.911-1.92,1.728-3.877,2.478-5.859a29.059,29.059,0,0,0,21.891-10.64,26.151,26.151,0,0,1-7.79,3.99c-2.486.813-5.083,1.254-7.556,2.1a13.32,13.32,0,0,0-6.526,4.5c.743-1.968,1.423-3.96,2.063-5.962a16.774,16.774,0,0,0,12.69-5.741c-1.671,1.783-4.457,2.275-6.843,2.8-2.087.459-4.1.94-5.639,2.292.51-1.616,1-3.239,1.474-4.86l.052-.181A51.129,51.129,0,0,0,324.6,409.9a17.615,17.615,0,0,0,6.459-4.331,10.641,10.641,0,0,0,2.872-7.1c-2.778,3.446-5.587,6.975-9.618,8.8-1.322.6-2.729,1.006-4.021,1.666a7.536,7.536,0,0,0-2.733,2.368c.472-1.628.938-3.258,1.414-4.885a11.636,11.636,0,0,0,7.633-7.117c-1.505,1.1-3.261,1.933-4.763,3.032a8.515,8.515,0,0,0-2.39,2.459q.526-1.77,1.08-3.53a26.861,26.861,0,0,0,6.18-19c-.84,3.279-2.569,6.246-4.008,9.31-1.348,2.87-2.468,5.983-2.292,9.13-.56,1.631-1.094,3.271-1.616,4.916a11.194,11.194,0,0,0-1.063-4.457c-.752-1.864-1.807-3.612-2.523-5.49a18.087,18.087,0,0,0,3.241,11.039c-.475,1.509-.943,3.019-1.415,4.526-.021-3.4-1.727-6.948-3.176-10-1.6-3.382-3.384-6.713-3.588-10.45a22.036,22.036,0,0,0,6.488,21.332l0,.01c-.5,1.6-1,3.192-1.533,4.779a11.662,11.662,0,0,0-1.839-5.426c-1.189-2.056-2.86-3.912-3.768-6.106a24.361,24.361,0,0,0,5.256,12.576c-.59,1.736-1.21,3.46-1.877,5.163a16.03,16.03,0,0,0-2.007-6.964c-1.2-2.49-2.782-4.779-4.157-7.18a50.875,50.875,0,0,1-3.658-7.906,33.291,33.291,0,0,0,9.58,22.662c-.769,1.927-1.6,3.824-2.523,5.679a13.789,13.789,0,0,0-1.651-6.477,39.783,39.783,0,0,0-4.176-6.263,19.922,19.922,0,0,0,3.011,8.806,27.71,27.71,0,0,1,2.629,4.313q-.292.578-.6,1.152-.764,1.439-1.6,2.834a11.249,11.249,0,0,0-1.267-4.557c-.954-1.717-2.132-3.3-3.181-4.959a38.724,38.724,0,0,1-5.179-12.447,24.372,24.372,0,0,0,2.512,12.446,48.085,48.085,0,0,0,6.757,10.113q-1.4,2.29-2.985,4.461a10.716,10.716,0,0,0-1.225-6.327c-1.163-2.537-2.8-4.886-4.075-7.366a16.26,16.26,0,0,0,1.744,7.723c1,2.252,2.193,4.429,2.975,6.761q-1.511,2.023-3.157,3.94a17.365,17.365,0,0,0-1.755-7.234c-1.107-2.5-2.562-4.829-3.751-7.291a37.8,37.8,0,0,1-3.392-10.116,34.835,34.835,0,0,0,8.49,25.113q-1.362,1.563-2.8,3.057c-.16.167-.322.331-.484.5a7.176,7.176,0,0,0-.225-3.757,22.258,22.258,0,0,0-2.441-4.756,21.618,21.618,0,0,1-2.466-4.717,13.271,13.271,0,0,0,1.536,7.484,66.165,66.165,0,0,1,2.952,6.4q-1.784,1.779-3.693,3.426a11.97,11.97,0,0,0-.608-6.728,50.33,50.33,0,0,0-3.414-6.707,17.817,17.817,0,0,1-2.493-6.961,21.765,21.765,0,0,0,1.064,11.174,46.792,46.792,0,0,0,4.931,9.669q-1.57,1.33-3.214,2.575a10.694,10.694,0,0,0-1.345-6.31c-1.1-2.153-2.539-4.143-3.047-6.506a19.1,19.1,0,0,0,3.955,13.141,80.553,80.553,0,0,1-6.8,4.547l.051.1a56.9,56.9,0,0,0,7.326-4.23,20.2,20.2,0,0,0,11.706,2.332c-2.082.195-3.905-.81-5.82-1.652a11.837,11.837,0,0,0-5.3-1.08q1.5-1.045,2.943-2.178a30.683,30.683,0,0,0,22.28,2.458,12.73,12.73,0,0,1-5.115-.526c-1.632-.439-3.206-1.069-4.811-1.6a25.718,25.718,0,0,0-6.621-1.35,14.951,14.951,0,0,0-4.873.327q1.639-1.334,3.189-2.774a25.074,25.074,0,0,0,15.375,1.21,16.971,16.971,0,0,1-5.585-.847,34.617,34.617,0,0,0-5.357-1.249,7.661,7.661,0,0,0-3.763.26q.472-.45.937-.907,1.252-1.246,2.427-2.567a32.049,32.049,0,0,0,25.027-.976,33.462,33.462,0,0,1-13.382.834c-2.044-.265-4.065-.72-6.122-.856a12.667,12.667,0,0,0-5,.4q1.663-1.914,3.166-3.959a19.379,19.379,0,0,0,16.087-.8,20.492,20.492,0,0,1-9.013.429,31.756,31.756,0,0,0-3.845-.6,4.645,4.645,0,0,0-2.989.646q1.8-2.483,3.368-5.127a42.891,42.891,0,0,0,13.057.341,20.818,20.818,0,0,0,11.818-5.7,20.6,20.6,0,0,1-10.12,2.8C320.206,432.772,317.6,432.337,315.019,432.577Z" transform="translate(-130.549 -177.324)" fill="#646cbd"/>
          </g>
        </g>
        <g id="Grupo_1159351" data-name="Grupo 1159351" transform="translate(-0.206 -0.109)">
          <g id="Grupo_1159344" data-name="Grupo 1159344" transform="translate(0)" clip-path="url(#clip-path-6)">
            <path id="Trazado_995087" data-name="Trazado 995087" d="M720.628,450.667s18.875-67.619,8.525-70.46-17.579,35.725-17.579,35.725,3.98-30.875-5.153-30.875c-30.151,0-10.554,64.36-10.554,64.36Z" transform="translate(-319.953 -176.298)" fill="#646cbd"/>
            <g id="Grupo_1159343" data-name="Grupo 1159343" transform="translate(378.571 203.759)">
              <path id="Trazado_995088" data-name="Trazado 995088" d="M719.24,389.412a3.685,3.685,0,0,0-.411-.021q-.9,0-1.746.076a157.556,157.556,0,0,0-.745,17.64c.087,7.6.618,15.2,1.12,22.782.5,7.527,1.026,15.055,1.711,22.567q.084.928.174,1.854l1.808.091c-.576-7.241-1.027-14.49-1.453-21.74C718.853,418.249,717.779,403.817,719.24,389.412Z" transform="translate(-710.933 -384.392)" fill="#41489e"/>
              <path id="Trazado_995089" data-name="Trazado 995089" d="M709.5,391.572c.024-.368.048-.738.074-1.106-.354.1-.7.2-1.032.324-.45,3-.8,6.024-1.117,9.04q-.932,9-1.118,18.055a219.078,219.078,0,0,0,2.157,35.649c.047.323.094.647.142.969l.656.032c-.832-5.479-1.49-10.985-1.9-16.533a220.058,220.058,0,0,1,.267-35.638c.253-2.84.582-5.668.949-8.492q-.607,8.339-.593,16.7a250.736,250.736,0,0,0,4,43.747l.064.352,1.213.06q-1.874-9.755-2.906-19.64A259.25,259.25,0,0,1,709.5,391.572Z" transform="translate(-706.257 -384.891)" fill="#41489e"/>
              <path id="Trazado_995090" data-name="Trazado 995090" d="M745.472,380.058Q740.8,391,737.208,402.352A242.9,242.9,0,0,0,729.3,435.31q-1.241,7.378-1.988,14.81l.324.016a262.939,262.939,0,0,1,4.954-29.358,254.215,254.215,0,0,1,9.649-32.106q1.193-3.187,2.473-6.341c-2.752,8.263-5.267,16.61-7.379,25.05a237.171,237.171,0,0,0-6.571,39.066q-.149,1.914-.262,3.834l.661.034q.038-.672.083-1.344c.435-6.623,1.205-13.223,2.256-19.775a308.385,308.385,0,0,1,8.927-38.648q1.559-5.268,3.275-10.489C745.627,380.056,745.549,380.056,745.472,380.058Z" transform="translate(-716.035 -380.057)" fill="#41489e"/>
            </g>
          </g>
          <g id="Grupo_1159346" data-name="Grupo 1159346" transform="translate(0)" clip-path="url(#clip-path-6)">
            <path id="Trazado_995091" data-name="Trazado 995091" d="M612.93,471.209s-2.98-42.926-15.36-40.643,0,25.867,0,25.867-8.322-13.462-15.425-8.476,13.382,24.267,13.382,24.267Z" transform="translate(-269.352 -199.714)" fill="#646cbd"/>
            <g id="Grupo_1159345" data-name="Grupo 1159345" transform="translate(311.921 230.847)">
              <path id="Trazado_995092" data-name="Trazado 995092" d="M584.352,467.264q-1.193-1.434-2.418-2.842c-.041.051-.08.1-.118.157a194.14,194.14,0,0,1,16.472,22.891q.115.186.229.375l.474-.027q-2.155-3.533-4.469-6.965A168.668,168.668,0,0,0,584.352,467.264Z" transform="translate(-581.816 -446.325)" fill="#41489e"/>
              <path id="Trazado_995093" data-name="Trazado 995093" d="M585.157,464.855q-1.059-.932-2.152-1.821c-.02.013-.042.027-.062.042a3.586,3.586,0,0,0-.573.5q.591.566,1.173,1.141c2.313,2.271,4.605,4.555,6.783,6.955a135.516,135.516,0,0,1,12.031,15.3.142.142,0,0,1,.014.023l1.721-.1c-1.7-2.622-3.578-5.139-5.483-7.583A105.978,105.978,0,0,0,585.157,464.855Z" transform="translate(-582.073 -445.681)" fill="#41489e"/>
              <path id="Trazado_995094" data-name="Trazado 995094" d="M620.819,459.7c-2.492-9.124-5.132-18.213-8.1-27.195q-.309-.938-.621-1.875l-.024,0c-.064.012-.128.024-.192.038.02.059.039.119.059.178q2.213,6.736,4.214,13.542c2.65,8.983,5.049,18.04,7.359,27.116l.443-.027Q622.422,465.584,620.819,459.7Z" transform="translate(-595.779 -430.634)" fill="#41489e"/>
              <path id="Trazado_995095" data-name="Trazado 995095" d="M607.926,436.28q-.779-1.718-1.617-3.413a5.344,5.344,0,0,0-.611.525,130.551,130.551,0,0,1,5.809,13.821c3,8.364,5.514,16.906,8.143,25.393l.726-.043q-1.783-5.89-3.59-11.776A203.906,203.906,0,0,0,607.926,436.28Z" transform="translate(-592.907 -431.671)" fill="#41489e"/>
              <path id="Trazado_995096" data-name="Trazado 995096" d="M606.062,438.411q-.676-1.916-1.4-3.818a5.781,5.781,0,0,0-.41.562c1.883,4.959,3.454,10.04,4.882,15.156,2.158,7.73,4.052,15.534,6.008,23.319l.8-.047q-1.127-4.366-2.258-8.73C611.39,455.972,609.115,447.069,606.062,438.411Z" transform="translate(-592.235 -432.473)" fill="#41489e"/>
            </g>
          </g>
          <g id="Grupo_1159348" data-name="Grupo 1159348" transform="translate(0)" clip-path="url(#clip-path-6)">
            <path id="Trazado_995097" data-name="Trazado 995097" d="M147.4,471.87s16.275-16.5,9.98-19.66-13.115,9.83-13.115,9.83,16.553-25.034,4.473-28.979-21.279,38.809-21.279,38.809Z" transform="translate(-58.888 -200.794)" fill="#646cbd"/>
            <g id="Grupo_1159347" data-name="Grupo 1159347" transform="translate(74.507 232.267)">
              <path id="Trazado_995098" data-name="Trazado 995098" d="M152.12,439.99q1.187-3.235,2.444-6.449-.323-.141-.679-.257h0q-3.193,5.7-5.9,11.661a157.981,157.981,0,0,0-8.458,23.427c-.337,1.233-.667,2.474-.979,3.721h1.2q.247-.956.505-1.907,1.639-6.007,3.663-11.9a189.528,189.528,0,0,1,9.568-22.843l.265-.525a240.2,240.2,0,0,0-11.2,34.491q-.329,1.34-.647,2.685h.635c.921-3.87,1.861-7.734,2.952-11.566C147.456,453.607,149.643,446.745,152.12,439.99Z" transform="translate(-138.545 -433.284)" fill="#41489e"/>
              <path id="Trazado_995099" data-name="Trazado 995099" d="M172.056,472.339q-2.818,2.7-5.489,5.55a147.343,147.343,0,0,0-9.967,11.66q-.257.34-.512.682h.5a168.019,168.019,0,0,1,14.849-17.1c.213-.213.427-.426.643-.637C172.074,472.439,172.065,472.388,172.056,472.339Z" transform="translate(-146.692 -451.421)" fill="#41489e"/>
              <path id="Trazado_995100" data-name="Trazado 995100" d="M166.243,470.5q.745-.655,1.5-1.3a3.111,3.111,0,0,0-.4-.237c-.064-.032-.127-.063-.191-.09-.131.1-.262.211-.392.318a93.168,93.168,0,0,0-17.838,19.431H150.2q1.138-1.663,2.342-3.279A96.333,96.333,0,0,1,166.243,470.5Z" transform="translate(-143.366 -449.811)" fill="#41489e"/>
            </g>
          </g>
          <g id="Grupo_1159350" data-name="Grupo 1159350" transform="translate(0)" clip-path="url(#clip-path-6)">
            <path id="Trazado_995101" data-name="Trazado 995101" d="M-11.058,451.684s-12.59-58.994,0-62.153S7.3,422.915,7.3,422.915s3.148-25.128,16.787-24.865-1.753,56.258-1.753,56.258Z" transform="translate(8.037 -180.608)" fill="#646cbd"/>
            <g id="Grupo_1159349" data-name="Grupo 1159349" transform="translate(-2.242 208.729)">
              <path id="Trazado_995102" data-name="Trazado 995102" d="M5.631,413.7c-1.344-5.363-2.667-10.738-4.184-16.055-.779-2.727-1.634-5.444-2.65-8.093-.077-.016-.154-.032-.23-.045.814,2.2,1.513,4.448,2.149,6.708,1.474,5.237,2.763,10.534,4.088,15.81,2.745,10.93,5.321,21.9,7.528,32.957q.815,4.085,1.567,8.188l.343.027c-1.324-7.685-2.9-15.323-4.631-22.929Q7.717,421.956,5.631,413.7Z" transform="translate(3.21 -389.415)" fill="#41489e"/>
              <path id="Trazado_995103" data-name="Trazado 995103" d="M-1.461,398.758c-.794-3.151-1.534-6.3-2.451-9.42a5.909,5.909,0,0,0-.838.047c.609,2.466,1.155,4.95,1.7,7.427,1.443,6.57,2.749,13.177,4.075,19.773Q4.636,434.557,7.3,452.692l1.89.147c-.766-4.827-1.6-9.646-2.469-14.456C4.32,425.117,1.834,411.836-1.461,398.758Z" transform="translate(4.751 -389.338)" fill="#41489e"/>
              <path id="Trazado_995104" data-name="Trazado 995104" d="M44.718,427.84c1.288-5.723,2.608-11.459,4.28-17.083.5-1.669,1.024-3.331,1.567-4.986a4.14,4.14,0,0,0-.676-.124q-.447,1.38-.882,2.765c-1.786,5.676-3.569,11.368-4.976,17.152a253.206,253.206,0,0,0-5.9,34.867c-.022.23-.046.459-.067.69l1.288.1q.762-8.012,2.022-15.964Q42.766,436.5,44.718,427.84Z" transform="translate(-15.133 -396.912)" fill="#41489e"/>
              <path id="Trazado_995105" data-name="Trazado 995105" d="M53.147,406c-1.966,8.922-3.825,17.867-5.51,26.848-1.781,9.5-3.359,19.05-4.474,28.653l.29.023q.643-5.6,1.469-11.185c1.552-10.453,3.518-20.839,5.631-31.191.893-4.37,1.8-8.737,2.7-13.108C53.221,406.022,53.184,406.009,53.147,406Z" transform="translate(-17.5 -397.074)" fill="#41489e"/>
              <path id="Trazado_995106" data-name="Trazado 995106" d="M43.261,409.7q.339-1.243.7-2.481a10.709,10.709,0,0,0-1.138.584,151.72,151.72,0,0,0-3.884,16.876,255.541,255.541,0,0,0-3.385,35.781q-.02.643-.039,1.284l.98.076c.166-5.7.451-11.4.919-17.087A192.88,192.88,0,0,1,43.261,409.7Z" transform="translate(-13.947 -397.643)" fill="#41489e"/>
            </g>
          </g>
        </g>
        <g id="Grupo_1159362" data-name="Grupo 1159362" transform="translate(279.08 124.034)">
          <g id="Grupo_1159353" data-name="Grupo 1159353" transform="translate(54.817 81.591)">
            <path id="Trazado_995107" data-name="Trazado 995107" d="M658.276,383.747c-3.518.542-32.068,14.207-35.045,16.914l4.505,3.518,26.48-11.23,4.059-6.495v-2.706Z" transform="translate(-623.231 -383.747)" fill="#2c2f37"/>
            <g id="Grupo_1159352" data-name="Grupo 1159352" transform="translate(1.804 23.666)">
              <path id="Trazado_995108" data-name="Trazado 995108" d="M672.644,450.956c-10.774,2.092-39.948-8.77-46.045-3.2" transform="translate(-626.599 -436.393)" fill="none" stroke="#2c2f37" stroke-linecap="round" stroke-linejoin="round" stroke-miterlimit="10" stroke-width="3.5"/>
              <path id="Trazado_995109" data-name="Trazado 995109" d="M670.59,427.934c-10.371,0-30.159,22.913-38.948,29.8" transform="translate(-628.941 -427.934)" fill="none" stroke="#2c2f37" stroke-linecap="round" stroke-linejoin="round" stroke-miterlimit="10" stroke-width="3.5"/>
            </g>
          </g>
          <g id="Grupo_1159357" data-name="Grupo 1159357">
            <path id="Trazado_995110" data-name="Trazado 995110" d="M655.046,364.937c2.162,9.433,21.421,71.883,21.421,71.883H632.446l-5.306-52.231,14.149-20.634Z" transform="translate(-570.229 -292.964)" fill="#9c4825"/>
            <path id="Trazado_995111" data-name="Trazado 995111" d="M670.893,303.383c3.93-7.075,11.595-26.968,11.2-34.315s8.057-29.357,11-32.108.786-7.468-6.682-4.716-11.791,9.259-13.756,13.374-5.9,13.156-11.4,15.514Z" transform="translate(-586.077 -231.41)" fill="#9c4825"/>
            <path id="Trazado_995112" data-name="Trazado 995112" d="M605.7,311.756l-5.5-40.876c-4.717-5.5-22.01-20.045-24.762-21.224s-7.468,2.774-7.664,4.335a38.458,38.458,0,0,0,0,4.9,8.639,8.639,0,0,0-3.93-2.358c-2.358-.59-5.9,3.145-5.9,5.11v4.52s-4.323-1.965-5.5-1.375-4.153,4.654-3.956,5.439,4.433,8.778,4.433,8.778-22.223-24.559-26.286-27.045c-4.163-2.548-6.754,1.193-5.378,4.534s18.528,27.13,21.105,30.511c9.177,12.041,22.07,40.275,35.433,44.4Z" transform="translate(-520.883 -239.783)" fill="#9c4825"/>
            <g id="Grupo_1159356" data-name="Grupo 1159356" transform="translate(7.829 14.632)">
              <g id="Grupo_1159354" data-name="Grupo 1159354" transform="translate(22.59 2.079)">
                <path id="Trazado_995113" data-name="Trazado 995113" d="M608.563,262.612s7.571,15.941,7.97,18.034-3.089,6.376-4.683,5.679-5.28-4.437-5.28-4.437a71.514,71.514,0,0,1,2.89,7.227c.3,1.494-3.305,5.081-5.289,3.985s-6.467-5.679-6.467-5.679,2.89,6.279,3.188,7.922-4.185,5.129-6.277,3.934-15.443-14.048-16.937-16.041" transform="translate(-577.677 -262.612)" fill="none" stroke="#73290a" stroke-linecap="round" stroke-linejoin="round" stroke-miterlimit="10" stroke-width="1.694"/>
                <path id="Trazado_995114" data-name="Trazado 995114" d="M603.463,295.8c-1.694-2.292-11.159-13.052-13.381-15.14" transform="translate(-583.438 -270.995)" fill="none" stroke="#73290a" stroke-linecap="round" stroke-linejoin="round" stroke-miterlimit="10" stroke-width="1.694"/>
                <path id="Trazado_995115" data-name="Trazado 995115" d="M608.428,267.088c2.758,3.082,10.963,14.868,12.422,16.877" transform="translate(-591.958 -264.691)" fill="none" stroke="#73290a" stroke-linecap="round" stroke-linejoin="round" stroke-miterlimit="10" stroke-width="1.694"/>
                <path id="Trazado_995116" data-name="Trazado 995116" d="M652.919,284.925c-10.783,5.288-20.6,32.306-6.744,46.651" transform="translate(-606.32 -272.974)" fill="none" stroke="#73290a" stroke-linecap="round" stroke-linejoin="round" stroke-miterlimit="10" stroke-width="1.694"/>
              </g>
              <g id="Grupo_1159355" data-name="Grupo 1159355">
                <path id="Trazado_995117" data-name="Trazado 995117" d="M682.119,258.73a11,11,0,0,1,5.317,1.915" transform="translate(-603.59 -258.73)" fill="none" stroke="#73290a" stroke-linecap="round" stroke-linejoin="round" stroke-miterlimit="10" stroke-width="1.694"/>
                <path id="Trazado_995118" data-name="Trazado 995118" d="M539.47,268.844a9.438,9.438,0,0,0-3.97,3.218" transform="translate(-535.5 -263.427)" fill="none" stroke="#73290a" stroke-linecap="round" stroke-linejoin="round" stroke-miterlimit="10" stroke-width="1.694"/>
                <path id="Trazado_995119" data-name="Trazado 995119" d="M550.312,293.919c1.519-1.44,3.492-3.362,5.716-4.114" transform="translate(-542.379 -273.161)" fill="none" stroke="#73290a" stroke-linecap="round" stroke-linejoin="round" stroke-miterlimit="10" stroke-width="1.694"/>
                <path id="Trazado_995120" data-name="Trazado 995120" d="M566.156,310.529l7.79-5.887" transform="translate(-549.737 -280.052)" fill="none" stroke="#73290a" stroke-linecap="round" stroke-linejoin="round" stroke-miterlimit="10" stroke-width="1.694"/>
                <path id="Trazado_995121" data-name="Trazado 995121" d="M626.6,398.042a20.125,20.125,0,0,0,12.193-5.157" transform="translate(-577.807 -321.032)" fill="none" stroke="#73290a" stroke-linecap="round" stroke-linejoin="round" stroke-miterlimit="10" stroke-width="1.694"/>
              </g>
            </g>
          </g>
          <g id="Grupo_1159361" data-name="Grupo 1159361" transform="translate(54.817 81.591)">
            <g id="Grupo_1159358" data-name="Grupo 1159358" transform="translate(1.804 23.666)">
              <path id="Trazado_995122" data-name="Trazado 995122" d="M626.6,449.15c7.238,12.3,42.858,10.421,46.045,3.2" transform="translate(-626.599 -437.787)" fill="none" stroke="#1e3ee0" stroke-linecap="round" stroke-linejoin="round" stroke-miterlimit="10" stroke-width="3.5"/>
              <path id="Trazado_995123" data-name="Trazado 995123" d="M670.59,427.934c-.827,9.84-23.714,31.6-38.948,29.8" transform="translate(-628.941 -427.934)" fill="none" stroke="#edb018" stroke-linecap="round" stroke-miterlimit="10" stroke-width="3.5"/>
            </g>
            <g id="Grupo_1159360" data-name="Grupo 1159360">
              <path id="Trazado_995124" data-name="Trazado 995124" d="M658.276,383.747c-1.253,4-23.07,16.575-35.045,16.914l1.489,7.983c9.877-.947,28.685-6.7,35.924-17.423Z" transform="translate(-623.231 -383.747)" fill="#edb018"/>
              <g id="Grupo_1159359" data-name="Grupo 1159359" transform="translate(0.588 3.023)">
                <path id="Trazado_995125" data-name="Trazado 995125" d="M682.34,394.836a11.5,11.5,0,0,1-1.7.873c-.75.315-1.538.58-2.3.837-.879.294-1.789.6-2.658.987a7.959,7.959,0,0,0-4.1,3.512,5.555,5.555,0,0,0-.351,4.055,5.407,5.407,0,0,0,.345.868c.2-.11.39-.22.583-.332a4.666,4.666,0,0,1-.288-.728,4.892,4.892,0,0,1,.31-3.562,7.315,7.315,0,0,1,3.774-3.2c.84-.374,1.734-.674,2.6-.964.776-.261,1.576-.53,2.348-.854a12.4,12.4,0,0,0,1.652-.833Z" transform="translate(-646.001 -391.92)" fill="#fccc56"/>
                <path id="Trazado_995126" data-name="Trazado 995126" d="M681.333,391.576a10.99,10.99,0,0,0,2.392-1.493l-.22-.691a10.325,10.325,0,0,1-2.449,1.575,10.52,10.52,0,0,1-4.626.928c-.3.2-.616.4-.936.608a11.29,11.29,0,0,0,5.84-.927Z" transform="translate(-648.089 -389.392)" fill="#fccc56"/>
                <path id="Trazado_995127" data-name="Trazado 995127" d="M653.888,400.91a7.408,7.408,0,0,1-1.194,3.944,7.548,7.548,0,0,1-7.063,3.264,7.441,7.441,0,0,1-3.988-1.822l-.721.241a8.147,8.147,0,0,0,4.629,2.247,7.7,7.7,0,0,0,.916.055,8.255,8.255,0,0,0,6.786-3.617,8.135,8.135,0,0,0,1.3-4.67Z" transform="translate(-632.034 -394.575)" fill="#fccc56"/>
                <path id="Trazado_995128" data-name="Trazado 995128" d="M630.754,414.811a3.931,3.931,0,0,0,.008-1.7c-.217.06-.434.118-.648.174a3.272,3.272,0,0,1-.012,1.379c-.394,1.709-2.2,2.673-3.719,2.847a7.9,7.9,0,0,1-2.056-.059l.13.695a9.265,9.265,0,0,0,1.157.077,7.448,7.448,0,0,0,.845-.047C628.2,417.972,630.286,416.836,630.754,414.811Z" transform="translate(-624.328 -400.405)" fill="#fccc56"/>
                <path id="Trazado_995129" data-name="Trazado 995129" d="M646.142,418.578c-.578-.068-1.17-.158-1.742-.244a18.663,18.663,0,0,0-5.4-.279,9.452,9.452,0,0,0-7.544,6.092c.253-.042.51-.085.77-.13a8.733,8.733,0,0,1,1.047-1.837,8.865,8.865,0,0,1,5.82-3.463A18.194,18.194,0,0,1,644.3,419c.577.086,1.174.176,1.762.245s1.165.111,1.7.123h0q.837-.359,1.663-.743A13.94,13.94,0,0,1,646.142,418.578Z" transform="translate(-627.638 -402.655)" fill="#fccc56"/>
              </g>
            </g>
          </g>
        </g>
        <g id="Grupo_1159373" data-name="Grupo 1159373" transform="translate(190.303 135.354)">
          <path id="Trazado_995130" data-name="Trazado 995130" d="M481.3,468.113c-3.546-2.6-41.828-3.955-46.558-1.57l3.62,4.87,36.875,1.193Z" transform="translate(-392.105 -351.351)" fill="#2c2f37"/>
          <g id="Grupo_1159367" data-name="Grupo 1159367">
            <path id="Trazado_995131" data-name="Trazado 995131" d="M475.477,413.09c-1.218,10.2,6.292,45.064,6.292,45.064H439.349s1.116-20.759-3.6-36.235l18.419-12.026Z" transform="translate(-392.57 -325.619)" fill="#e48a68"/>
            <g id="Grupo_1159364" data-name="Grupo 1159364">
              <path id="Trazado_995132" data-name="Trazado 995132" d="M438.039,340.017c7.1-13.142-3.958-47.95-4.262-53.582s-1.065-29.988-2.74-32.576-7.154-1.275-8.525,3.244.609,29.636-3.958,32.68a10.407,10.407,0,0,1-8.525,1.737l-25.263-6.533-3.811,12.374S367.712,282.63,366.8,279.129s-4.262-15.527-5.937-18.267-6.475-1.645-5.632,3.329c1.37,8.087,1.522,19.352,2.892,23.158s12.939,16.44,14.309,19.789,12.178,29.379,25.878,41.709Z" transform="translate(-355.131 -252.545)" fill="#e48a68"/>
              <g id="Grupo_1159363" data-name="Grupo 1159363" transform="translate(25.807 44.368)">
                <path id="Trazado_995133" data-name="Trazado 995133" d="M403.315,335.384l2.326,3.152" transform="translate(-403.315 -335.384)" fill="none" stroke="#b85935" stroke-linecap="round" stroke-linejoin="round" stroke-miterlimit="10" stroke-width="1.75"/>
                <path id="Trazado_995134" data-name="Trazado 995134" d="M449.863,371.81c9.438,5.886,22.875,26.316,8.423,32.423" transform="translate(-424.932 -352.3)" fill="none" stroke="#b85935" stroke-linecap="round" stroke-linejoin="round" stroke-miterlimit="10" stroke-width="1.75"/>
              </g>
            </g>
            <g id="Grupo_1159366" data-name="Grupo 1159366" transform="translate(22.596 5.128)">
              <path id="Trazado_995135" data-name="Trazado 995135" d="M400.548,301.809s-3.432-9.392-3.219-12.161a18.657,18.657,0,0,1,3.219-7.776c.828-.959,5.409-2.024,5.409-2.024s-.852-4.687,0-6.072,4.794-4,6.924-3.7c0,0-.532-5.67,1.278-6.523s5.965-1.718,7.35-1.338,7.031,5.435,9.161,7.861a19.629,19.629,0,0,1,3.728,7.645c.32,1.491,1.065,17.15.532,18.855s-3.728,3.3-5.007,1.811a35.8,35.8,0,0,1,.639,6.76c-.213,2.082-3.089,4.212-4.155,3.893a9.394,9.394,0,0,1-2.663-1.917s.852,2.77.32,3.941-4.367,2.876-5.752,1.278-7.031-12.783-7.883-15.659c-1.6-.533-6.5-1.385-6.5-1.385Z" transform="translate(-397.319 -262.119)" fill="#e48a68"/>
              <g id="Grupo_1159365" data-name="Grupo 1159365" transform="translate(6.613 7.953)">
                <path id="Trazado_995136" data-name="Trazado 995136" d="M440.816,323.87a6.808,6.808,0,0,1-.15,1.379c-.532,1.7-3.728,3.3-5.007,1.811a35.8,35.8,0,0,1,.639,6.76c-.213,2.082-3.089,4.212-4.155,3.893a9.393,9.393,0,0,1-2.663-1.917s.852,2.77.32,3.942-4.367,2.876-5.752,1.278-7.031-12.783-7.883-15.659c-1.6-.533-6.5-1.385-6.5-1.385" transform="translate(-409.667 -298.75)" fill="none" stroke="#b85935" stroke-linecap="round" stroke-linejoin="round" stroke-miterlimit="10" stroke-width="1.75"/>
                <path id="Trazado_995137" data-name="Trazado 995137" d="M443.418,305.279c-.912-5.624-1.622-13.945-3.347-15.975s-8.112-10.261-13.7-12.336" transform="translate(-417.426 -276.968)" fill="none" stroke="#b85935" stroke-linecap="round" stroke-linejoin="round" stroke-miterlimit="10" stroke-width="1.75"/>
                <path id="Trazado_995138" data-name="Trazado 995138" d="M413.447,295.219c3.673,1.343,10.371,6.4,11.944,8.084s5.374,16.806,5.846,19.186" transform="translate(-411.422 -285.444)" fill="none" stroke="#b85935" stroke-linecap="round" stroke-linejoin="round" stroke-miterlimit="10" stroke-width="1.75"/>
              </g>
            </g>
          </g>
          <g id="Grupo_1159372" data-name="Grupo 1159372" transform="translate(42.641 97.698)">
            <g id="Grupo_1159369" data-name="Grupo 1159369" transform="translate(2.191)">
              <path id="Trazado_995139" data-name="Trazado 995139" d="M478.156,434.956c-5.95,7.243-29.318,14.659-39.32,12.589" transform="translate(-438.836 -434.956)" fill="none" stroke="#fff" stroke-linecap="round" stroke-linejoin="round" stroke-miterlimit="10" stroke-width="1.75"/>
              <g id="Grupo_1159368" data-name="Grupo 1159368" transform="translate(1.24 0.794)">
                <path id="Trazado_995140" data-name="Trazado 995140" d="M478.494,451.289a2.139,2.139,0,1,1-2.139-2.139A2.139,2.139,0,0,1,478.494,451.289Z" transform="translate(-456.507 -442.341)" fill="#fff"/>
                <path id="Trazado_995141" data-name="Trazado 995141" d="M461.059,456.12a2.139,2.139,0,1,1-2.139-2.139A2.139,2.139,0,0,1,461.059,456.12Z" transform="translate(-448.41 -444.585)" fill="#fff"/>
                <path id="Trazado_995142" data-name="Trazado 995142" d="M445.428,457.264a2.139,2.139,0,1,1-2.139-2.139A2.139,2.139,0,0,1,445.428,457.264Z" transform="translate(-441.151 -445.116)" fill="#fff"/>
                <path id="Trazado_995143" data-name="Trazado 995143" d="M492.986,446.156a2.139,2.139,0,1,1-2.139-2.139A2.139,2.139,0,0,1,492.986,446.156Z" transform="translate(-463.237 -439.958)" fill="#fff"/>
                <path id="Trazado_995144" data-name="Trazado 995144" d="M506.343,438.577a2.139,2.139,0,1,1-2.139-2.139A2.139,2.139,0,0,1,506.343,438.577Z" transform="translate(-469.44 -436.438)" fill="#fff"/>
              </g>
            </g>
            <g id="Grupo_1159371" data-name="Grupo 1159371" transform="translate(0 17.493)">
              <path id="Trazado_995145" data-name="Trazado 995145" d="M481.3,469.187c-5.268,2.485-43.021,1.412-46.558-1.57l1.533,7.355c8.846,4.473,34.489,5.268,46.913,1.69Z" transform="translate(-434.746 -467.617)" fill="#ed500e"/>
              <g id="Grupo_1159370" data-name="Grupo 1159370" transform="translate(0.443 2.125)">
                <path id="Trazado_995146" data-name="Trazado 995146" d="M482.195,473.035c-5.847,3.454-40.778,3.531-46.621-1.45" transform="translate(-435.573 -471.585)" fill="none" stroke="#ff7e47" stroke-linecap="round" stroke-linejoin="round" stroke-miterlimit="10" stroke-width="1"/>
                <path id="Trazado_995147" data-name="Trazado 995147" d="M483.57,478.957c-9.674,3.576-41.955,2.112-46.768-1.479" transform="translate(-436.144 -474.322)" fill="none" stroke="#ff7e47" stroke-linecap="round" stroke-linejoin="round" stroke-miterlimit="10" stroke-width="1"/>
              </g>
            </g>
          </g>
        </g>
        <g id="Grupo_1159382" data-name="Grupo 1159382" transform="translate(120.075 121.509)">
          <g id="Grupo_1159374" data-name="Grupo 1159374" transform="translate(0.501 94.062)">
            <path id="Trazado_995148" data-name="Trazado 995148" d="M272.714,428.5c-2.556-5.175-36.857-23.138-45.483-26.182l.71,4.871,20.093,17.464,22.428,8.007Z" transform="translate(-226.007 -402.315)" fill="#2c2f37"/>
            <path id="Trazado_995149" data-name="Trazado 995149" d="M270.517,458.275c-3.349-4.668-38.068-25.472-45.571-25.929l2.442,7.286,21.524,16.207,19.17,5.581Z" transform="translate(-224.946 -416.261)" fill="#2c2f37"/>
          </g>
          <g id="Grupo_1159376" data-name="Grupo 1159376" transform="translate(0.501)">
            <path id="Trazado_995150" data-name="Trazado 995150" d="M232.131,305.94c-.913-6.7,2.892-44.6,4.414-47.646s7.307-17.71,7.459-25.751,5.175-6.671,6.7-2.562,4.567,12.787,3.805,16.9-3.653,14.613-3.653,14.613Z" transform="translate(-228.218 -226.694)" fill="#c96742"/>
            <path id="Trazado_995151" data-name="Trazado 995151" d="M273.2,331.56c2.588-4.11,16.44-21.92,18.571-26.639s21.463-17.049,23.138-23.747,3.2-25.726,2.892-28.922-5.48-2.131-6.7,1.674-3.349,20.55-7,23.138-11.265,6.089-11.265,6.089,1.218-10.656-.609-14.309a10.64,10.64,0,0,0-5.937-4.871s.3-7.154-.3-8.981-5.175-4.628-5.175-4.628,1.674-4.658.761-7.7-4.871-5.784-6.85-4.871-15.374,11.873-15.831,13.7a23.137,23.137,0,0,0,0,5.784c-2.131,2.131-14.765,10.5-16.288,18.114s-10.351,35.62-10.351,35.62Z" transform="translate(-228.34 -231.764)" fill="#c96742"/>
            <path id="Trazado_995152" data-name="Trazado 995152" d="M269.807,395.2l-40.948-20.55c3.324,33.568-3.913,67.136-3.913,67.136h41.406S264.769,417.408,269.807,395.2Z" transform="translate(-224.946 -295.406)" fill="#c96742"/>
            <g id="Grupo_1159375" data-name="Grupo 1159375" transform="translate(14.058 12.639)">
              <path id="Trazado_995153" data-name="Trazado 995153" d="M261,284.682a26.276,26.276,0,0,0-9.806,13.077" transform="translate(-251.194 -266.263)" fill="none" stroke="#963a17" stroke-linecap="round" stroke-linejoin="round" stroke-miterlimit="10" stroke-width="1.75"/>
              <path id="Trazado_995154" data-name="Trazado 995154" d="M318.387,261.056,312.707,278.1" transform="translate(-279.761 -255.291)" fill="none" stroke="#963a17" stroke-linecap="round" stroke-linejoin="round" stroke-miterlimit="10" stroke-width="1.75"/>
              <path id="Trazado_995155" data-name="Trazado 995155" d="M332.915,286.515q-.391,6.372-.783,12.746" transform="translate(-288.782 -267.114)" fill="none" stroke="#963a17" stroke-linecap="round" stroke-linejoin="round" stroke-miterlimit="10" stroke-width="1.75"/>
              <path id="Trazado_995156" data-name="Trazado 995156" d="M345.3,320.5q-.156,4.21-.311,8.419" transform="translate(-294.751 -282.899)" fill="none" stroke="#963a17" stroke-linecap="round" stroke-linejoin="round" stroke-miterlimit="10" stroke-width="1.75"/>
              <path id="Trazado_995157" data-name="Trazado 995157" d="M293.263,250.292a49.155,49.155,0,0,1-3.586,5.955,24.676,24.676,0,0,1-7.864,6.9" transform="translate(-265.414 -250.292)" fill="none" stroke="#963a17" stroke-linecap="round" stroke-linejoin="round" stroke-miterlimit="10" stroke-width="1.75"/>
            </g>
          </g>
          <g id="Grupo_1159381" data-name="Grupo 1159381" transform="translate(0 94.062)">
            <g id="Grupo_1159378" data-name="Grupo 1159378" transform="translate(0 16.085)">
              <path id="Trazado_995158" data-name="Trazado 995158" d="M270.083,458.275l.507,8.931c-12.076-1.218-37.447-12.279-46.58-29.226l.5-5.632C228.881,438.487,249.482,457.058,270.083,458.275Z" transform="translate(-224.01 -432.347)" fill="#1e3ee0"/>
              <g id="Grupo_1159377" data-name="Grupo 1159377" transform="translate(0.239 2.225)">
                <path id="Trazado_995159" data-name="Trazado 995159" d="M224.52,436.5l-.064.73a34.6,34.6,0,0,1,2.358,4.264,11.344,11.344,0,0,1,1.111,3.966q.594.745,1.231,1.47a10.51,10.51,0,0,0-1.373-5.459A31.815,31.815,0,0,0,224.52,436.5Z" transform="translate(-224.456 -436.501)" fill="#4260f5"/>
                <path id="Trazado_995160" data-name="Trazado 995160" d="M233.527,442.932a9.142,9.142,0,0,1-.573-1.647q-.4-.382-.766-.748a10.688,10.688,0,0,0,3.31,6.158c1.69,1.637,3.693,2.943,5.225,4.745,1.382,1.624,2.251,3.939,1.461,5.866.265.193.533.386.8.576a5.169,5.169,0,0,0,.2-3.509C241.809,449.207,235.675,447.593,233.527,442.932Z" transform="translate(-228.047 -438.375)" fill="#4260f5"/>
                <path id="Trazado_995161" data-name="Trazado 995161" d="M304.144,486.024c-.11.028-.22.059-.329.091a14.52,14.52,0,0,0-4.6,2.174,9.108,9.108,0,0,0-2.205,2.3q.962.28,1.881.51a8.7,8.7,0,0,1,1.608-1.675,12.873,12.873,0,0,1,3.727-1.968Z" transform="translate(-258.15 -459.5)" fill="#4260f5"/>
                <path id="Trazado_995162" data-name="Trazado 995162" d="M295.105,482.214l-.04-.687a23.043,23.043,0,0,1-2.9.354c-2.773.163-5.548.069-8.306.463a13.207,13.207,0,0,0-6.106,2.316q.779.349,1.551.682a15.872,15.872,0,0,1,5.769-1.987c2.694-.471,5.46-.461,8.172-.821Q294.188,482.412,295.105,482.214Z" transform="translate(-249.209 -457.411)" fill="#4260f5"/>
                <path id="Trazado_995163" data-name="Trazado 995163" d="M272.01,472.883a12.867,12.867,0,0,0,5.1-2.287q-.624-.181-1.244-.379a19.631,19.631,0,0,1-4.633,1.626,10.06,10.06,0,0,1-7.169-1.187,7.6,7.6,0,0,1-3.585-5.461,9.259,9.259,0,0,1,.062-2.209c-.235-.146-.469-.292-.7-.439-.063.3-.114.608-.152.924a8.31,8.31,0,0,0,1.336,5.8C263.483,472.743,268.018,473.747,272.01,472.883Z" transform="translate(-240.787 -448.596)" fill="#4260f5"/>
              </g>
            </g>
            <g id="Grupo_1159380" data-name="Grupo 1159380" transform="translate(0)">
              <path id="Trazado_995164" data-name="Trazado 995164" d="M271.219,428.5c-6.21.71-37.974-10.757-45.483-26.182l-1.725,4.972c4.059,6.8,29.125,31.459,47.7,30.749Z" transform="translate(-224.01 -402.315)" fill="#edb018"/>
              <g id="Grupo_1159379" data-name="Grupo 1159379" transform="translate(2.11 3.444)">
                <path id="Trazado_995165" data-name="Trazado 995165" d="M243.416,426.555q-.147.771-.268,1.547c.274.254.554.509.837.764q.181-1.269.431-2.531.3-1.52.7-3.017-.406-.3-.805-.609Q243.785,424.613,243.416,426.555Z" transform="translate(-235.007 -415.23)" fill="#fccc56"/>
                <path id="Trazado_995166" data-name="Trazado 995166" d="M253.566,436.173c.387.312.777.624,1.172.935a40.539,40.539,0,0,1,.905-6.749q-.541-.323-1.074-.658A41.54,41.54,0,0,0,253.566,436.173Z" transform="translate(-239.846 -418.478)" fill="#fccc56"/>
                <path id="Trazado_995167" data-name="Trazado 995167" d="M250.251,427.509c-.085.2-.169.394-.252.589q-.976,2.294-1.8,4.646c.262.229.529.457.8.686q.85-2.446,1.867-4.828l.233-.543Q250.669,427.788,250.251,427.509Z" transform="translate(-237.352 -417.46)" fill="#fccc56"/>
                <path id="Trazado_995168" data-name="Trazado 995168" d="M239.667,420.9c-.522,1.108-.968,2.251-1.4,3.4l.481.471c.419-1.133.85-2.26,1.352-3.357q.263-.574.548-1.134c-.16-.132-.319-.266-.475-.4C240,420.213,239.828,420.553,239.667,420.9Z" transform="translate(-232.74 -413.915)" fill="#fccc56"/>
                <path id="Trazado_995169" data-name="Trazado 995169" d="M234.833,417.879c-.233.7-.461,1.419-.672,2.141l.473.491c.229-.835.48-1.664.743-2.482q.345-1.078.738-2.142c-.142-.137-.281-.273-.419-.411Q235.238,416.665,234.833,417.879Z" transform="translate(-230.834 -411.871)" fill="#fccc56"/>
                <path id="Trazado_995170" data-name="Trazado 995170" d="M229.675,408.746a39.878,39.878,0,0,0-1.726,4.415l.181.219a39.9,39.9,0,0,1,1.73-4.388C229.8,408.911,229.735,408.828,229.675,408.746Z" transform="translate(-227.949 -408.746)" fill="#fccc56"/>
                <path id="Trazado_995171" data-name="Trazado 995171" d="M230.091,415.028c-.148.261-.288.53-.422.8l.127.147c.108-.218.22-.435.336-.648a31.584,31.584,0,0,1,1.919-3.058c-.039-.043-.077-.087-.114-.13A31.313,31.313,0,0,0,230.091,415.028Z" transform="translate(-228.748 -410.323)" fill="#fccc56"/>
                <path id="Trazado_995172" data-name="Trazado 995172" d="M290.086,446.225c-.308-.106-.62-.217-.935-.329q.028.45.049.9c.147,2.955.137,5.941.3,8.907q.4.162.805.317c.046-.876.089-1.752.081-2.629-.024-2.367-.071-4.745-.291-7.1C290.091,446.268,290.088,446.247,290.086,446.225Z" transform="translate(-256.371 -425.999)" fill="#fccc56"/>
                <path id="Trazado_995173" data-name="Trazado 995173" d="M293.083,457.4q.284.1.567.2a53.019,53.019,0,0,0,1.553-9.283q-.347-.1-.7-.213A63.478,63.478,0,0,1,293.083,457.4Z" transform="translate(-258.197 -427.02)" fill="#fccc56"/>
                <path id="Trazado_995174" data-name="Trazado 995174" d="M261.426,437.533c-.5,1.253-.983,2.512-1.425,3.781q.727.542,1.469,1.074c.513-1.517,1.062-3.023,1.631-4.519q.4-1.06.808-2.118-.715-.366-1.427-.747Q261.939,436.263,261.426,437.533Z" transform="translate(-242.834 -420.94)" fill="#fccc56"/>
                <path id="Trazado_995175" data-name="Trazado 995175" d="M305.935,450.764q-.245-.04-.5-.088a71.164,71.164,0,0,1-.479,9.558c.185.028.37.055.554.078a66.089,66.089,0,0,0,.465-7.472Q305.976,451.8,305.935,450.764Z" transform="translate(-263.71 -428.218)" fill="#fccc56"/>
                <path id="Trazado_995176" data-name="Trazado 995176" d="M302.388,449.935c-.209-.048-.422-.1-.64-.154a94.407,94.407,0,0,1,1.023,9.925c.2.036.4.07.6.1-.037-1.194-.1-2.387-.206-3.587Q302.888,453.064,302.388,449.935Z" transform="translate(-262.222 -427.803)" fill="#fccc56"/>
                <path id="Trazado_995177" data-name="Trazado 995177" d="M280.012,445.041a61.3,61.3,0,0,1-1.959,6.442c.253.142.508.28.762.415a61.344,61.344,0,0,0,1.915-6.4q.225-.93.422-1.867c-.247-.1-.5-.2-.747-.3C280.283,443.9,280.153,444.472,280.012,445.041Z" transform="translate(-251.217 -424.807)" fill="#fccc56"/>
                <path id="Trazado_995178" data-name="Trazado 995178" d="M271.892,441.987q-.1,2.707-.209,5.414.444.277.892.549l.281-6.765q.04-.942.079-1.883-.46-.213-.922-.432Z" transform="translate(-248.259 -422.736)" fill="#fccc56"/>
              </g>
            </g>
          </g>
        </g>
        <g id="Grupo_1159406" data-name="Grupo 1159406" transform="translate(8.566 106.315)">
          <path id="Trazado_995179" data-name="Trazado 995179" d="M111.617,451.639c-4.26-2.5-42.577-7.974-47.088-6.04l.609,10.737H108.9Z" transform="translate(-38.437 -312.973)" fill="#2c2f37"/>
          <g id="Grupo_1159384" data-name="Grupo 1159384">
            <path id="Trazado_995180" data-name="Trazado 995180" d="M107.969,403.213c-3.51,13.388-5.977,46.586-5.977,46.586H54.946s13.027-40.976,14.694-57.9l19.606.373Z" transform="translate(-33.987 -288.224)" fill="#d06828"/>
            <path id="Trazado_995181" data-name="Trazado 995181" d="M52.054,347.071c-2.652-1.507-16.86-13.419-18.869-16.146S24,316.143,22.277,314.134s-4.736-12.916-6.171-15.643,2.727-5.647,5.6-2.68,10.253,12.583,12.23,14.305,9.923,6.137,15.135,3.284l9.948,17.526Z" transform="translate(-15.814 -243.021)" fill="#d06828"/>
            <path id="Trazado_995182" data-name="Trazado 995182" d="M117.012,313.316c8.26-3.972,13.836-46.833,14.662-51.687s15.075-42.646,15.9-46.156-5.369-2.271-7.435,0-18.792,36.461-18.792,36.461.439-9.963-.955-11.821-6.622-4.647-8.248-4.066-4.531,4.3-4.531,4.3-1.162-4.647-2.672-5.576-6.622-.349-7.783,0-3.834,9.811-3.834,9.811-8.945-40.131-10.687-42.454-6.389-5.809-7.9-2.323,2.788,44.144,3.253,49.371-3.136,23.7-1.859,31.83l3.136,21.375L99.25,316.55Z" transform="translate(-43.03 -198.327)" fill="#d06828"/>
            <g id="Grupo_1159383" data-name="Grupo 1159383" transform="translate(32.901 41.869)">
              <path id="Trazado_995183" data-name="Trazado 995183" d="M77.694,328.8l-.452,11.462" transform="translate(-77.242 -300.787)" fill="none" stroke="#94420d" stroke-linecap="round" stroke-linejoin="round" stroke-miterlimit="10" stroke-width="1.75"/>
              <path id="Trazado_995184" data-name="Trazado 995184" d="M135.55,276.5q-.6,5.38-1.192,10.76" transform="translate(-103.767 -276.499)" fill="none" stroke="#94420d" stroke-linecap="round" stroke-linejoin="round" stroke-miterlimit="10" stroke-width="1.75"/>
              <path id="Trazado_995185" data-name="Trazado 995185" d="M162.19,298.135l2.676,1.77" transform="translate(-116.692 -286.547)" fill="none" stroke="#94420d" stroke-linecap="round" stroke-linejoin="round" stroke-miterlimit="10" stroke-width="1.75"/>
              <path id="Trazado_995186" data-name="Trazado 995186" d="M106.525,284.147c-1.03.718-3.119,2.289-4.21,3.086" transform="translate(-88.886 -280.051)" fill="none" stroke="#94420d" stroke-linecap="round" stroke-linejoin="round" stroke-miterlimit="10" stroke-width="1.75"/>
              <path id="Trazado_995187" data-name="Trazado 995187" d="M148.517,412.812a12.113,12.113,0,0,1-6.743.425" transform="translate(-107.211 -339.803)" fill="none" stroke="#94420d" stroke-linecap="round" stroke-linejoin="round" stroke-miterlimit="10" stroke-width="1.75"/>
            </g>
          </g>
          <g id="Grupo_1159405" data-name="Grupo 1159405" transform="translate(21.289 117.618)">
            <g id="Grupo_1159402" data-name="Grupo 1159402" transform="translate(7.552)">
              <g id="Grupo_1159392" data-name="Grupo 1159392">
                <g id="Grupo_1159385" data-name="Grupo 1159385" transform="translate(0 0.735)">
                  <path id="Trazado_995188" data-name="Trazado 995188" d="M73.036,427.587c-1.041,0-2.022-.023-2.931-.07a.469.469,0,1,1,.048-.936c11.391.589,34.144-2.635,44.458-7.239a.469.469,0,0,1,.382.856C105.394,424.483,85.154,427.587,73.036,427.587Z" transform="translate(-69.661 -419.301)" fill="#1e3ee0"/>
                </g>
                <g id="Grupo_1159391" data-name="Grupo 1159391" transform="translate(1.976)">
                  <g id="Grupo_1159386" data-name="Grupo 1159386" transform="translate(37.88)">
                    <path id="Trazado_995189" data-name="Trazado 995189" d="M148.353,420.068a2.139,2.139,0,1,1-2.139-2.139A2.139,2.139,0,0,1,148.353,420.068Z" transform="translate(-144.076 -417.929)" fill="#1e3ee0"/>
                  </g>
                  <g id="Grupo_1159387" data-name="Grupo 1159387" transform="translate(28.348 2.741)">
                    <path id="Trazado_995190" data-name="Trazado 995190" d="M130.555,425.185a2.139,2.139,0,1,1-2.139-2.139A2.139,2.139,0,0,1,130.555,425.185Z" transform="translate(-126.278 -423.046)" fill="#1e3ee0"/>
                  </g>
                  <g id="Grupo_1159388" data-name="Grupo 1159388" transform="translate(19.06 4.277)">
                    <path id="Trazado_995191" data-name="Trazado 995191" d="M113.215,428.054a2.139,2.139,0,1,1-2.139-2.139A2.139,2.139,0,0,1,113.215,428.054Z" transform="translate(-108.938 -425.915)" fill="#1e3ee0"/>
                  </g>
                  <g id="Grupo_1159389" data-name="Grupo 1159389" transform="translate(10.249 5.315)">
                    <path id="Trazado_995192" data-name="Trazado 995192" d="M96.763,429.991a2.139,2.139,0,1,1-2.139-2.139A2.139,2.139,0,0,1,96.763,429.991Z" transform="translate(-92.486 -427.852)" fill="#1e3ee0"/>
                  </g>
                  <g id="Grupo_1159390" data-name="Grupo 1159390" transform="translate(0 6.085)">
                    <path id="Trazado_995193" data-name="Trazado 995193" d="M77.628,431.43a2.139,2.139,0,1,1-2.139-2.139A2.139,2.139,0,0,1,77.628,431.43Z" transform="translate(-73.351 -429.291)" fill="#1e3ee0"/>
                  </g>
                </g>
              </g>
              <g id="Grupo_1159401" data-name="Grupo 1159401" transform="translate(1.32 0.605)">
                <g id="Grupo_1159393" data-name="Grupo 1159393" transform="translate(0.761 0.721)">
                  <path id="Trazado_995194" data-name="Trazado 995194" d="M113.964,433.532A81.813,81.813,0,0,1,90.3,429.994c-7.39-2.291-13.293-5.414-16.622-8.792a.469.469,0,0,1,.668-.658c3.176,3.223,9.092,6.341,16.232,8.555a80.748,80.748,0,0,0,24.678,3.485h.009a.469.469,0,0,1,.008.937Q114.622,433.531,113.964,433.532Z" transform="translate(-73.546 -420.404)" fill="#fff"/>
                </g>
                <g id="Grupo_1159400" data-name="Grupo 1159400">
                  <g id="Grupo_1159394" data-name="Grupo 1159394" transform="translate(39.458 11.241)">
                    <path id="Trazado_995195" data-name="Trazado 995195" d="M150.074,442.185a2.139,2.139,0,1,1-2.139-2.139A2.139,2.139,0,0,1,150.074,442.185Z" transform="translate(-145.797 -440.046)" fill="#fff"/>
                  </g>
                  <g id="Grupo_1159395" data-name="Grupo 1159395" transform="translate(31.796 10.733)">
                    <path id="Trazado_995196" data-name="Trazado 995196" d="M135.769,441.238a2.139,2.139,0,1,1-2.139-2.139A2.139,2.139,0,0,1,135.769,441.238Z" transform="translate(-131.492 -439.099)" fill="#fff"/>
                  </g>
                  <g id="Grupo_1159396" data-name="Grupo 1159396" transform="translate(22.967 9.363)">
                    <path id="Trazado_995197" data-name="Trazado 995197" d="M119.284,438.68a2.139,2.139,0,1,1-2.139-2.139A2.139,2.139,0,0,1,119.284,438.68Z" transform="translate(-115.007 -436.541)" fill="#fff"/>
                  </g>
                  <g id="Grupo_1159397" data-name="Grupo 1159397" transform="translate(14.384 7.225)">
                    <path id="Trazado_995198" data-name="Trazado 995198" d="M103.259,434.687a2.139,2.139,0,1,1-2.139-2.139A2.139,2.139,0,0,1,103.259,434.687Z" transform="translate(-98.982 -432.548)" fill="#fff"/>
                  </g>
                  <g id="Grupo_1159398" data-name="Grupo 1159398" transform="translate(6.647 4.275)">
                    <path id="Trazado_995199" data-name="Trazado 995199" d="M88.813,429.179a2.139,2.139,0,1,1-2.139-2.139A2.139,2.139,0,0,1,88.813,429.179Z" transform="translate(-84.536 -427.04)" fill="#fff"/>
                  </g>
                  <g id="Grupo_1159399" data-name="Grupo 1159399">
                    <path id="Trazado_995200" data-name="Trazado 995200" d="M76.4,421.2a2.139,2.139,0,1,1-2.139-2.139A2.139,2.139,0,0,1,76.4,421.2Z" transform="translate(-72.126 -419.059)" fill="#fff"/>
                  </g>
                </g>
              </g>
            </g>
            <g id="Grupo_1159404" data-name="Grupo 1159404" transform="translate(0 15.008)">
              <path id="Trazado_995201" data-name="Trazado 995201" d="M107.452,451.991c-4.189,2.537-44.45-2.865-47.088-6.04-3.5,2.364-5.937,14.77-4.262,19.489,8.423,4.059,42.927,7.383,50.429,3.887C109.271,466.588,110.83,457.167,107.452,451.991Z" transform="translate(-55.561 -445.951)" fill="#edb018"/>
              <g id="Grupo_1159403" data-name="Grupo 1159403" transform="translate(0.013 0.997)">
                <path id="Trazado_995202" data-name="Trazado 995202" d="M63.9,455.4a10.834,10.834,0,0,1-1.177-4.561,15.784,15.784,0,0,1,.138-2.793q-.356-.12-.67-.237a12.663,12.663,0,0,0,.881,7.812c.562,1.169,1.3,2.241,1.932,3.372s1.39,2.584.957,3.925c-.794,2.457-4.517,2.781-6.595,2.279a7.747,7.747,0,0,1-3.78-2.24c.016.5.052.983.108,1.434a8.229,8.229,0,0,0,9.206,1.028,3.927,3.927,0,0,0,2.036-2.59A6,6,0,0,0,66,458.942C65.349,457.735,64.533,456.622,63.9,455.4Z" transform="translate(-55.585 -447.813)" fill="#fccc56"/>
                <path id="Trazado_995203" data-name="Trazado 995203" d="M82.224,460.891c2.223-.309,4.073-1.711,6.2-2.334a11.046,11.046,0,0,1,6.98.257c2.007.762,3.653,2.052,5.861,2.239a9.141,9.141,0,0,0,5.3-1.347,8.935,8.935,0,0,0,3.962-5.224c-.144,0-.288,0-.435,0a8.793,8.793,0,0,1-3.172,4.283,8.18,8.18,0,0,1-5.077,1.5,7.755,7.755,0,0,1-2.616-.553c-.948-.391-1.821-.943-2.764-1.349a12.57,12.57,0,0,0-5.675-.994,17.056,17.056,0,0,0-5.617,1.593c-1.856.78-3.893,1.476-5.766.351a7.965,7.965,0,0,1-3.243-4.7,9.9,9.9,0,0,1-.2-4.44q-.566-.131-1.094-.261a10.633,10.633,0,0,0-.12,3.128C75.16,456.788,77.842,461.5,82.224,460.891Z" transform="translate(-64.454 -448.784)" fill="#fccc56"/>
                <path id="Trazado_995204" data-name="Trazado 995204" d="M87.117,456.936c3.3,1.588,6.615-.794,8.811-3.131l-.831-.114c-2.108,1.751-4.515,3.767-7.4,2.8-1.971-.661-2.588-2.47-2.518-4.4-.106-.019-.21-.039-.315-.059C84.663,454.043,85.183,456.006,87.117,456.936Z" transform="translate(-69.162 -449.771)" fill="#fccc56"/>
                <path id="Trazado_995205" data-name="Trazado 995205" d="M121.838,459.95a4.7,4.7,0,0,0,4.384-2.2c.041-.069.08-.137.118-.206l-.842-.049a3.883,3.883,0,0,1-3.825,1.5,4.612,4.612,0,0,1-2.826-2.055q-.627-.064-1.261-.132c.034.076.07.15.106.223A5.423,5.423,0,0,0,121.838,459.95Z" transform="translate(-84.378 -451.99)" fill="#fccc56"/>
                <path id="Trazado_995206" data-name="Trazado 995206" d="M59.1,463.4a2.851,2.851,0,0,0,3.256-3.314,11,11,0,0,0-1.434-3.283,24.457,24.457,0,0,1-1.615-3.713q-.45-1.319-.775-2.643-.141.267-.277.554a23.877,23.877,0,0,0,2.049,5.892c.79,1.567,2.892,5.06-.088,5.7-1.992.43-3.405-1.3-4.321-2.872-.066.509-.119,1.012-.16,1.508A4.892,4.892,0,0,0,59.1,463.4Z" transform="translate(-55.656 -449.037)" fill="#fccc56"/>
                <path id="Trazado_995207" data-name="Trazado 995207" d="M100.185,466.867a21.562,21.562,0,0,0,6.784.657c3.963-.233,8.574-1.236,11.343-4.313a10.522,10.522,0,0,0,2.049-3.42,10.272,10.272,0,0,0-.43-.956,10.291,10.291,0,0,1-2.413,3.723,13.084,13.084,0,0,1-5.506,2.95,25.091,25.091,0,0,1-6.781,1.012,25.111,25.111,0,0,1-6.978-1.243,14.172,14.172,0,0,0-5.732-.453,13.361,13.361,0,0,0-9.3,5.53,12.1,12.1,0,0,0-1.864,4.372q.711.113,1.441.221A12.008,12.008,0,0,1,84.29,471.1a11.807,11.807,0,0,1,9.578-5.384A21.012,21.012,0,0,1,100.185,466.867Z" transform="translate(-67.555 -452.932)" fill="#fccc56"/>
                <path id="Trazado_995208" data-name="Trazado 995208" d="M134.191,481.434a11.792,11.792,0,0,0-6.735,5.534c.441,0,.873,0,1.3-.006a10.551,10.551,0,0,1,3.929-3.8,13.186,13.186,0,0,1,9.235-1.484c.036-.118.071-.238.105-.36A13,13,0,0,0,134.191,481.434Z" transform="translate(-88.962 -463.119)" fill="#fccc56"/>
                <path id="Trazado_995209" data-name="Trazado 995209" d="M133.2,475.491c-3.421.265-6.841.125-10.151,1.182a12.645,12.645,0,0,0-6.9,4.989,10.261,10.261,0,0,0-1.141,2.4q.554.028,1.1.052A9.65,9.65,0,0,1,117.137,482a12.911,12.911,0,0,1,7.522-5.139c3.676-.972,8.25-.359,12.169-1.2.031-.241.056-.486.078-.731A22.392,22.392,0,0,1,133.2,475.491Z" transform="translate(-83.185 -460.404)" fill="#fccc56"/>
                <path id="Trazado_995210" data-name="Trazado 995210" d="M100.014,480.1c-3.217-2-6.834.419-8.385,3.322a11.418,11.418,0,0,0-.694,1.567q.693.086,1.394.169a9.809,9.809,0,0,1,.726-1.489,6.249,6.249,0,0,1,4.077-3.154,3.6,3.6,0,0,1,4.2,2.673,5.95,5.95,0,0,1,.077,2.8l.525.035C102.436,483.775,102.169,481.432,100.014,480.1Z" transform="translate(-72.002 -462.465)" fill="#fccc56"/>
              </g>
            </g>
          </g>
        </g>
      </g>
    </g>
  </g>
</svg>
