<svg xmlns="http://www.w3.org/2000/svg" xmlns:xlink="http://www.w3.org/1999/xlink" width="108" height="108" viewBox="0 0 108 108">
  <defs>
    <filter id="Trazado_982547" x="0" y="0" width="108" height="108" filterUnits="userSpaceOnUse">
      <feOffset dy="3" input="SourceAlpha"/>
      <feGaussianBlur stdDeviation="3" result="blur"/>
      <feFlood flood-opacity="0.161"/>
      <feComposite operator="in" in2="blur"/>
      <feComposite in="SourceGraphic"/>
    </filter>
  </defs>
  <g id="Grupo_1159408" data-name="Grupo 1159408" transform="translate(-191 -5469)">
    <g id="Grupo_1158918" data-name="Grupo 1158918" transform="translate(-10 4766)">
      <g id="Grupo_1153120" data-name="Grupo 1153120" transform="translate(0 338)">
        <g id="Grupo_1152564" data-name="Grupo 1152564" transform="translate(0 -68)">
          <g id="Grupo_1146955" data-name="Grupo 1146955" transform="translate(210 439)">
            <g id="Grupo_1146954" data-name="Grupo 1146954">
              <g transform="matrix(1, 0, 0, 1, -9, -6)" filter="url(#Trazado_982547)">
                <g id="Trazado_982547-2" data-name="Trazado 982547" transform="translate(9 6)" fill="#fef4f5">
                  <path d="M 45 88.5 C 39.12687683105469 88.5 33.43022537231445 87.35007476806641 28.06830024719238 85.08217620849609 C 22.88852500915527 82.89131164550781 18.23629951477051 79.75458526611328 14.2408504486084 75.75914764404297 C 10.24541282653809 71.76370239257812 7.108687400817871 67.11147308349609 4.917825222015381 61.93170166015625 C 2.649924993515015 56.56977462768555 1.5 50.87312316894531 1.5 45 C 1.5 39.12687683105469 2.649924993515015 33.43022537231445 4.917825222015381 28.06830024719238 C 7.108687400817871 22.88852500915527 10.24541282653809 18.23629951477051 14.2408504486084 14.2408504486084 C 18.23629951477051 10.24541282653809 22.88852500915527 7.108687400817871 28.06830024719238 4.917825222015381 C 33.43022537231445 2.649924993515015 39.12687683105469 1.5 45 1.5 C 50.87312316894531 1.5 56.56977462768555 2.649924993515015 61.93170166015625 4.917825222015381 C 67.11147308349609 7.108687400817871 71.76370239257812 10.24541282653809 75.75914764404297 14.2408504486084 C 79.75458526611328 18.23629951477051 82.89131164550781 22.88852500915527 85.08217620849609 28.06830024719238 C 87.35007476806641 33.43022537231445 88.5 39.12687683105469 88.5 45 C 88.5 50.87312316894531 87.35007476806641 56.56977462768555 85.08217620849609 61.93170166015625 C 82.89131164550781 67.11147308349609 79.75458526611328 71.76370239257812 75.75914764404297 75.75914764404297 C 71.76370239257812 79.75458526611328 67.11147308349609 82.89131164550781 61.93170166015625 85.08217620849609 C 56.56977462768555 87.35007476806641 50.87312316894531 88.5 45 88.5 Z" stroke="none"/>
                  <path d="M 45 3 C 39.32871246337891 3 33.82865524291992 4.110054016113281 28.65262985229492 6.299339294433594 C 23.65165710449219 8.414573669433594 19.15968322753906 11.44334411621094 15.301513671875 15.301513671875 C 11.44334411621094 19.15968322753906 8.414573669433594 23.65165710449219 6.299339294433594 28.65262985229492 C 4.110054016113281 33.82865524291992 3 39.32871246337891 3 45 C 3 50.67128753662109 4.110054016113281 56.17134475708008 6.299339294433594 61.34737396240234 C 8.414573669433594 66.34834289550781 11.44334411621094 70.84031677246094 15.301513671875 74.698486328125 C 19.15968322753906 78.55665588378906 23.65165710449219 81.58542633056641 28.65262985229492 83.70066070556641 C 33.82865524291992 85.88994598388672 39.32871246337891 87 45 87 C 50.67128753662109 87 56.17134475708008 85.88994598388672 61.34737396240234 83.70066070556641 C 66.34834289550781 81.58542633056641 70.84031677246094 78.55665588378906 74.698486328125 74.698486328125 C 78.55665588378906 70.84031677246094 81.58542633056641 66.34834289550781 83.70066070556641 61.34737396240234 C 85.88994598388672 56.17134475708008 87 50.67128753662109 87 45 C 87 39.32871246337891 85.88994598388672 33.82865524291992 83.70066070556641 28.65262985229492 C 81.58542633056641 23.65165710449219 78.55665588378906 19.15968322753906 74.698486328125 15.301513671875 C 70.84031677246094 11.44334411621094 66.34834289550781 8.414573669433594 61.34737396240234 6.299339294433594 C 56.17134475708008 4.110054016113281 50.67128753662109 3 45 3 M 45 0 C 69.85281372070312 0 90 20.14718627929688 90 45 C 90 69.85281372070312 69.85281372070312 90 45 90 C 20.14718627929688 90 0 69.85281372070312 0 45 C 0 20.14718627929688 20.14718627929688 0 45 0 Z" stroke="none" fill="#ff7f8f"/>
                </g>
              </g>
            </g>
          </g>
        </g>
      </g>
    </g>
    <g id="ley_2_" data-name="ley (2)" transform="translate(213.703 5489)">
      <path id="Trazado_995211" data-name="Trazado 995211" d="M120.7,28.838A20.834,20.834,0,1,1,99.861,8,20.834,20.834,0,0,1,120.7,28.838Zm0,0" transform="translate(-68.478 -6.961)" fill="#bdd5ea"/>
      <path id="Trazado_995212" data-name="Trazado 995212" d="M124.236,182.254a5.209,5.209,0,0,1-5.209-5.209V176h10.417v1.042A5.21,5.21,0,0,1,124.236,182.254Zm0,0" transform="translate(-103.27 -153.085)" fill="#495867"/>
      <path id="Trazado_995213" data-name="Trazado 995213" d="M284.236,182.254a5.209,5.209,0,0,1-5.209-5.209V176h10.417v1.042A5.209,5.209,0,0,1,284.236,182.254Zm0,0" transform="translate(-242.435 -153.085)" fill="#495867"/>
      <path id="Trazado_995214" data-name="Trazado 995214" d="M218.152,40l-3.125,4.167,3.125,4.167,3.125-4.167Zm0,0" transform="translate(-186.769 -34.795)" fill="#fe5f55"/>
      <path id="Trazado_995215" data-name="Trazado 995215" d="M26.18,234.417,21.3,228.31a2.217,2.217,0,0,0-1.731-.832,3.079,3.079,0,0,0-2.2,1.3l-4.1-11.074a2.562,2.562,0,0,0-4.961,1.121l1.774,17.464a4.169,4.169,0,0,0,.96,2.266l6.463,7.66-2.083,4.167H26.88l1.532-4.954c.353-2.827-.452-8.781-2.231-11Zm0,0" transform="translate(-6.955 -187.872)" fill="#ffdbac"/>
      <path id="Trazado_995216" data-name="Trazado 995216" d="M318.227,234.417l4.885-6.107a2.217,2.217,0,0,1,1.731-.832,3.079,3.079,0,0,1,2.2,1.3l4.1-11.074a2.561,2.561,0,0,1,4.96,1.121l-1.774,17.464a4.17,4.17,0,0,1-.961,2.266l-6.462,7.66,2.083,4.167H317.527L316,245.422c-.353-2.827.452-8.781,2.231-11Zm0,0" transform="translate(-274.519 -187.872)" fill="#ffdbac"/>
      <path id="Trazado_995217" data-name="Trazado 995217" d="M5.243,208.271a3.6,3.6,0,0,0-4.928,3.708L2.09,229.441a5.184,5.184,0,0,0,1.2,2.832l6.019,7.137-1.777,3.553L9.4,243.9l2.083-4.167a1.043,1.043,0,0,0-.135-1.137L4.882,230.93a3.108,3.108,0,0,1-.72-1.7L2.389,211.768a1.526,1.526,0,0,1,.832-1.513,1.521,1.521,0,0,1,2.111.847l4.059,11.364a3.234,3.234,0,0,0,.506,2.09l3.952,5.927,1.733-1.155L11.63,223.4a1.158,1.158,0,0,1-.058-1.208,1.211,1.211,0,0,1,1.954-.179l4.885,6.106c1.552,1.939,2.322,7.467,2.021,10.137l-1.5,4.864,1.991.614,1.531-4.954a1.134,1.134,0,0,0,.039-.178c.375-3-.411-9.235-2.451-11.785l-4.885-6.106a3.246,3.246,0,0,0-4.4-.633L7.294,210.4a3.607,3.607,0,0,0-2.05-2.131Zm0,0" transform="translate(0 -180.925)"/>
      <path id="Trazado_995218" data-name="Trazado 995218" d="M328.4,229.442l1.774-17.463A3.6,3.6,0,0,0,323.2,210.4l-3.456,9.677a3.245,3.245,0,0,0-4.4.633l-4.885,6.106c-2.04,2.551-2.826,8.783-2.451,11.785a1.084,1.084,0,0,0,.039.178l1.532,4.954,1.991-.614-1.5-4.864c-.3-2.669.468-8.2,2.02-10.137l4.885-6.106a1.21,1.21,0,0,1,1.954.18,1.158,1.158,0,0,1-.058,1.207l-3.952,5.927,1.734,1.155,3.952-5.927a3.226,3.226,0,0,0,.506-2.089l4.059-11.365a1.52,1.52,0,0,1,2.11-.847,1.528,1.528,0,0,1,.833,1.512l-1.775,17.465a3.112,3.112,0,0,1-.72,1.7l-6.462,7.661a1.039,1.039,0,0,0-.135,1.137L321.1,243.9l1.863-.932-1.777-3.553,6.019-7.136A5.185,5.185,0,0,0,328.4,229.442Zm0,0" transform="translate(-267.562 -180.925)"/>
      <path id="Trazado_995219" data-name="Trazado 995219" d="M112.069,49.873a1.041,1.041,0,0,0-1.042,1.042v1.042a6.25,6.25,0,0,0,12.5,0V50.915a1.041,1.041,0,0,0-1.042-1.042h-1.362l-2.344-6.25h7.872V65.5h-2.083v2.083h6.25V65.5h-2.083V43.623h7.872l-2.344,6.25H132.9a1.041,1.041,0,0,0-1.042,1.042v1.042a6.25,6.25,0,0,0,12.5,0V50.915a1.041,1.041,0,0,0-1.042-1.042h-1.362l-2.872-7.659a1.042,1.042,0,0,0-.975-.675H129L131.653,38a1.039,1.039,0,0,0,0-1.249l-3.125-4.167a1.078,1.078,0,0,0-1.666,0l-3.125,4.167a1.039,1.039,0,0,0,0,1.249l2.656,3.542h-9.115a1.044,1.044,0,0,0-.976.675l-2.871,7.659Zm30.21,2.083a4.167,4.167,0,0,1-8.334,0Zm-2.545-2.083H136.49l1.622-4.325Zm-13.862-12.5,1.823-2.43,1.823,2.43-1.823,2.43Zm-4.427,14.584a4.167,4.167,0,0,1-8.334,0Zm-4.167-6.409,1.622,4.325h-3.244Zm0,0" transform="translate(-96.311 -27.996)"/>
      <path id="Trazado_995220" data-name="Trazado 995220" d="M166.627,10.586a21.659,21.659,0,0,0-2.034.88l.925,1.868a19.566,19.566,0,0,1,1.839-.8Zm0,0" transform="translate(-142.903 -9.207)"/>
      <path id="Trazado_995221" data-name="Trazado 995221" d="M264.054,2.272a21.864,21.864,0,0,0-2.171-.436L261.578,3.9c.655.1,1.316.23,1.964.394Zm0,0" transform="translate(-227.259 -1.597)"/>
      <path id="Trazado_995222" data-name="Trazado 995222" d="M214.088,318.293l-.311,2.062c.727.108,1.468.183,2.2.219l.1-2.081c-.667-.034-1.338-.1-1.995-.2Zm0,0" transform="translate(-185.682 -276.846)"/>
      <path id="Trazado_995223" data-name="Trazado 995223" d="M232.127,2.106l.1-2.081C231.881.009,231.534,0,231.189,0c-.407,0-.787.009-1.177.029l.108,2.081c.336-.018.674-.027,1.017-.027S231.8,2.091,232.127,2.106Zm0,0" transform="translate(-199.803 0)"/>
      <path id="Trazado_995224" data-name="Trazado 995224" d="M198.6,2a21.269,21.269,0,0,0-2.17.45l.528,2.017a19.435,19.435,0,0,1,1.959-.407Zm0,0" transform="translate(-170.597 -1.736)"/>
      <path id="Trazado_995225" data-name="Trazado 995225" d="M248.883,318.25a19.432,19.432,0,0,1-1.993.2l.105,2.081a21.9,21.9,0,0,0,2.2-.224Zm0,0" transform="translate(-214.483 -276.809)"/>
      <path id="Trazado_995226" data-name="Trazado 995226" d="M104.213,256.61a19.791,19.791,0,0,1-1.23-1.582l-1.709,1.194c.421.6.878,1.19,1.361,1.749Zm0,0" transform="translate(-87.828 -221.819)"/>
      <path id="Trazado_995227" data-name="Trazado 995227" d="M71.135,170.539l2.072-.214a19.991,19.991,0,0,1-.1-2l-2.083,0C71.022,169.066,71.06,169.809,71.135,170.539Zm0,0" transform="translate(-61.513 -146.406)"/>
      <path id="Trazado_995228" data-name="Trazado 995228" d="M126.424,279.637a19.909,19.909,0,0,1-1.522-1.3l-1.433,1.512a21.965,21.965,0,0,0,1.682,1.44Zm0,0" transform="translate(-107.133 -242.089)"/>
      <path id="Trazado_995229" data-name="Trazado 995229" d="M87.522,229.992a19.811,19.811,0,0,1-.887-1.8l-1.913.826a22.123,22.123,0,0,0,.98,1.986Zm0,0" transform="translate(-73.432 -198.48)"/>
      <path id="Trazado_995230" data-name="Trazado 995230" d="M378.516,101.97a19.635,19.635,0,0,1,.7,1.876l1.986-.63a21.663,21.663,0,0,0-.778-2.075Zm0,0" transform="translate(-328.969 -87.971)"/>
      <path id="Trazado_995231" data-name="Trazado 995231" d="M150.355,298.9a21.954,21.954,0,0,0,1.936,1.073l.917-1.872a19.635,19.635,0,0,1-1.753-.972Zm0,0" transform="translate(-130.518 -258.435)"/>
      <path id="Trazado_995232" data-name="Trazado 995232" d="M137.655,25.652c-.624.393-1.235.821-1.811,1.271l1.28,1.644a19.745,19.745,0,0,1,1.641-1.15Zm0,0" transform="translate(-117.897 -22.312)"/>
      <path id="Trazado_995233" data-name="Trazado 995233" d="M181.6,310.66l-.718,1.955a21.838,21.838,0,0,0,2.113.659l.518-2.019A19.644,19.644,0,0,1,181.6,310.66Zm0,0" transform="translate(-157.071 -270.207)"/>
      <path id="Trazado_995234" data-name="Trazado 995234" d="M74.5,199.328a21.706,21.706,0,0,0,.559,2.145l1.986-.627a19.905,19.905,0,0,1-.5-1.939Zm0,0" transform="translate(-64.541 -173.006)"/>
      <path id="Trazado_995235" data-name="Trazado 995235" d="M343.355,47.344a19.612,19.612,0,0,1,1.387,1.448l1.576-1.363a21.857,21.857,0,0,0-1.532-1.6Zm0,0" transform="translate(-298.387 -39.86)"/>
      <path id="Trazado_995236" data-name="Trazado 995236" d="M292.072,10.227l-.717,1.955c.626.23,1.246.495,1.844.785l.913-1.872a21.753,21.753,0,0,0-2.04-.868Zm0,0" transform="translate(-253.158 -8.895)"/>
      <path id="Trazado_995237" data-name="Trazado 995237" d="M321.9,26.377a21.959,21.959,0,0,0-1.821-1.259l-1.1,1.77c.565.351,1.12.734,1.649,1.142Zm0,0" transform="translate(-277.186 -21.846)"/>
      <path id="Trazado_995238" data-name="Trazado 995238" d="M332.133,279.432l1.278,1.646a21.941,21.941,0,0,0,1.679-1.444l-1.435-1.509C333.171,278.583,332.66,279.023,332.133,279.432Zm0,0" transform="translate(-288.626 -241.909)"/>
      <path id="Trazado_995239" data-name="Trazado 995239" d="M111.273,48.155l1.584,1.354c.433-.507.9-1,1.377-1.456L112.8,46.547A22.092,22.092,0,0,0,111.273,48.155Zm0,0" transform="translate(-96.525 -40.485)"/>
      <path id="Trazado_995240" data-name="Trazado 995240" d="M387.82,133.958a19.706,19.706,0,0,1,.308,1.978l2.072-.216a21.946,21.946,0,0,0-.341-2.189Zm0,0" transform="translate(-337.062 -116.143)"/>
      <path id="Trazado_995241" data-name="Trazado 995241" d="M390.358,167.606a19.937,19.937,0,0,1-.1,2l2.073.21q.109-1.093.11-2.229l-.635-.041Zm0,0" transform="translate(-339.182 -145.73)"/>
      <path id="Trazado_995242" data-name="Trazado 995242" d="M363.484,72.7a19.624,19.624,0,0,1,1.067,1.7l1.818-1.02a22.1,22.1,0,0,0-1.181-1.874Zm0,0" transform="translate(-315.895 -62.196)"/>
      <path id="Trazado_995243" data-name="Trazado 995243" d="M354.4,256.369l1.583,1.355c.48-.562.936-1.15,1.355-1.75l-1.71-1.193C355.251,255.326,354.838,255.859,354.4,256.369Zm0,0" transform="translate(-307.995 -221.605)"/>
      <path id="Trazado_995244" data-name="Trazado 995244" d="M386.639,199.011l-2.041-.417a19.954,19.954,0,0,1-.5,1.941l1.989.621A22.05,22.05,0,0,0,386.639,199.011Zm0,0" transform="translate(-333.824 -172.734)"/>
      <path id="Trazado_995245" data-name="Trazado 995245" d="M71.844,136.759l2.073.205c.066-.664.166-1.33.3-1.983l-2.043-.411a22.09,22.09,0,0,0-.327,2.189Zm0,0" transform="translate(-62.23 -117.047)"/>
      <path id="Trazado_995246" data-name="Trazado 995246" d="M371.98,229.721l1.822,1.012c.358-.647.687-1.317.976-1.989l-1.915-.822C372.6,228.529,372.305,229.135,371.98,229.721Zm0,0" transform="translate(-323.284 -198.243)"/>
      <path id="Trazado_995247" data-name="Trazado 995247" d="M91.914,74.246l1.823,1.007c.323-.582.679-1.154,1.057-1.7l-1.712-1.189a21.912,21.912,0,0,0-1.169,1.883Zm0,0" transform="translate(-79.687 -62.94)"/>
      <path id="Trazado_995248" data-name="Trazado 995248" d="M78.57,104.18l1.99.619c.2-.629.429-1.263.692-1.883l-1.918-.815c-.289.683-.547,1.382-.763,2.079Zm0,0" transform="translate(-68.081 -88.806)"/>
      <path id="Trazado_995249" data-name="Trazado 995249" d="M279.184,310.539a19.717,19.717,0,0,1-1.91.6l.521,2.017a21.7,21.7,0,0,0,2.114-.664Zm0,0" transform="translate(-240.91 -270.102)"/>
      <path id="Trazado_995250" data-name="Trazado 995250" d="M308.93,298.738l-1.106-1.766a20.011,20.011,0,0,1-1.749.975l.919,1.87A22.035,22.035,0,0,0,308.93,298.738Zm0,0" transform="translate(-265.961 -258.302)"/>
    </g>
  </g>
</svg>
