<svg xmlns="http://www.w3.org/2000/svg" xmlns:xlink="http://www.w3.org/1999/xlink" width="108" height="108" viewBox="0 0 108 108">
  <defs>
    <filter id="Trazado_982547" x="0" y="0" width="108" height="108" filterUnits="userSpaceOnUse">
      <feOffset dy="3" input="SourceAlpha"/>
      <feGaussianBlur stdDeviation="3" result="blur"/>
      <feFlood flood-opacity="0.161"/>
      <feComposite operator="in" in2="blur"/>
      <feComposite in="SourceGraphic"/>
    </filter>
  </defs>
  <g id="Grupo_1159946" data-name="Grupo 1159946" transform="translate(-1218 -407)">
    <g id="Grupo_1149838" data-name="Grupo 1149838" transform="translate(0 -4452)">
      <g id="Grupo_1149676" data-name="Grupo 1149676" transform="translate(472 -2821)">
        <g id="Grupo_1148534" data-name="Grupo 1148534" transform="translate(156 4253)">
          <g id="Grupo_1147066" data-name="Grupo 1147066" transform="translate(-26 -556)">
            <g transform="matrix(1, 0, 0, 1, 616, 3983)" filter="url(#Trazado_982547)">
              <g id="Trazado_982547-2" data-name="Trazado 982547" transform="translate(9 6)" fill="#fef4f5">
                <path d="M 45 88.5 C 39.12687683105469 88.5 33.43022537231445 87.35007476806641 28.06830024719238 85.08217620849609 C 22.88852500915527 82.89131164550781 18.23629951477051 79.75458526611328 14.2408504486084 75.75914764404297 C 10.24541282653809 71.76370239257812 7.108687400817871 67.11147308349609 4.917825222015381 61.93170166015625 C 2.649924993515015 56.56977462768555 1.5 50.87312316894531 1.5 45 C 1.5 39.12687683105469 2.649924993515015 33.43022537231445 4.917825222015381 28.06830024719238 C 7.108687400817871 22.88852500915527 10.24541282653809 18.23629951477051 14.2408504486084 14.2408504486084 C 18.23629951477051 10.24541282653809 22.88852500915527 7.108687400817871 28.06830024719238 4.917825222015381 C 33.43022537231445 2.649924993515015 39.12687683105469 1.5 45 1.5 C 50.87312316894531 1.5 56.56977462768555 2.649924993515015 61.93170166015625 4.917825222015381 C 67.11147308349609 7.108687400817871 71.76370239257812 10.24541282653809 75.75914764404297 14.2408504486084 C 79.75458526611328 18.23629951477051 82.89131164550781 22.88852500915527 85.08217620849609 28.06830024719238 C 87.35007476806641 33.43022537231445 88.5 39.12687683105469 88.5 45 C 88.5 50.87312316894531 87.35007476806641 56.56977462768555 85.08217620849609 61.93170166015625 C 82.89131164550781 67.11147308349609 79.75458526611328 71.76370239257812 75.75914764404297 75.75914764404297 C 71.76370239257812 79.75458526611328 67.11147308349609 82.89131164550781 61.93170166015625 85.08217620849609 C 56.56977462768555 87.35007476806641 50.87312316894531 88.5 45 88.5 Z" stroke="none"/>
                <path d="M 45 3 C 39.32871246337891 3 33.82865524291992 4.110054016113281 28.65262985229492 6.299339294433594 C 23.65165710449219 8.414573669433594 19.15968322753906 11.44334411621094 15.301513671875 15.301513671875 C 11.44334411621094 19.15968322753906 8.414573669433594 23.65165710449219 6.299339294433594 28.65262985229492 C 4.110054016113281 33.82865524291992 3 39.32871246337891 3 45 C 3 50.67128753662109 4.110054016113281 56.17134475708008 6.299339294433594 61.34737396240234 C 8.414573669433594 66.34834289550781 11.44334411621094 70.84031677246094 15.301513671875 74.698486328125 C 19.15968322753906 78.55665588378906 23.65165710449219 81.58542633056641 28.65262985229492 83.70066070556641 C 33.82865524291992 85.88994598388672 39.32871246337891 87 45 87 C 50.67128753662109 87 56.17134475708008 85.88994598388672 61.34737396240234 83.70066070556641 C 66.34834289550781 81.58542633056641 70.84031677246094 78.55665588378906 74.698486328125 74.698486328125 C 78.55665588378906 70.84031677246094 81.58542633056641 66.34834289550781 83.70066070556641 61.34737396240234 C 85.88994598388672 56.17134475708008 87 50.67128753662109 87 45 C 87 39.32871246337891 85.88994598388672 33.82865524291992 83.70066070556641 28.65262985229492 C 81.58542633056641 23.65165710449219 78.55665588378906 19.15968322753906 74.698486328125 15.301513671875 C 70.84031677246094 11.44334411621094 66.34834289550781 8.414573669433594 61.34737396240234 6.299339294433594 C 56.17134475708008 4.110054016113281 50.67128753662109 3 45 3 M 45 0 C 69.85281372070312 0 90 20.14718627929688 90 45 C 90 69.85281372070312 69.85281372070312 90 45 90 C 20.14718627929688 90 0 69.85281372070312 0 45 C 0 20.14718627929688 20.14718627929688 0 45 0 Z" stroke="none" fill="#ff7f8f"/>
              </g>
            </g>
          </g>
        </g>
      </g>
    </g>
    <g id="empatia" transform="translate(1225.5 422.003)">
      <g id="Grupo_1159945" data-name="Grupo 1159945" transform="translate(18.548 6.583)">
        <path id="Trazado_996780" data-name="Trazado 996780" d="M158.428,99c11.247,0,16.6,7.67,16.225,18.917.993,2.106,3.207,5.36,4.834,8.076a1.727,1.727,0,0,1,.012,1.795,1.839,1.839,0,0,1-1.544.969c-1.663.072-3.482.144-4.487.227-.048,2.716-.024,3.314-.084,6.03a4.688,4.688,0,0,1-1.436,3.326,4.62,4.62,0,0,1-3.35,1.388h-3.613a4.8,4.8,0,0,0-4.666,3.709c-.3,1.232-.586,2.465-.885,3.685H142.144c.969-4.044,1.149-5.492,2.118-9.536,1.855-7.753-2.225-7.729-4.475-14.322C135.91,111.922,139.44,99,158.428,99Z" transform="translate(-124.089 -88.459)" fill="#fad1a2" fill-rule="evenodd"/>
        <path id="Trazado_996781" data-name="Trazado 996781" d="M165.523,343.776c.311-1.46.6-2.872,1.113-5.013,1.448-6.078-.742-7.382-2.836-10.828a6.507,6.507,0,0,1,6.856,10.709Z" transform="translate(-146.463 -289.646)" fill="#b79876" fill-rule="evenodd"/>
        <path id="Trazado_996782" data-name="Trazado 996782" d="M179.194,159.877a3.422,3.422,0,0,1,2.776-1.867,5.219,5.219,0,0,1,4.8,2.417c9.01-.227,9.321,11.69.682,11.714-.85,3.637-3.254,4.942-7.263,4.008-2.046,3.075-4.69-.694-5.073,1.795.024,1.256.227,1.819,1.567,4.224-2.369-.395-5.3-3.039-6.2-4.846-4.666,1.579-9.2-5.384-5.348-9.632-.993-2.489,1.867-6.377,5.384-5.36a4.491,4.491,0,0,1,4.1-3.757,6.663,6.663,0,0,1,4.571,1.3Z" transform="translate(-146.361 -140.386)" fill="#b79876" fill-rule="evenodd"/>
        <path id="Trazado_996783" data-name="Trazado 996783" d="M174.768,130.478a3.43,3.43,0,0,1,2.776-1.867,5.243,5.243,0,0,1,4.8,2.417c9.01-.227,9.321,11.69.682,11.714-.85,3.637-3.255,4.942-7.263,4.008-2.034,3.075-4.678-.694-5.073,1.795.024,1.256.227,1.819,1.567,4.224-2.369-.395-5.3-3.039-6.186-4.846-4.678,1.579-9.2-5.384-5.348-9.632-.981-2.489,1.867-6.377,5.4-5.36a4.491,4.491,0,0,1,4.1-3.757,6.7,6.7,0,0,1,4.547,1.3Z" transform="translate(-142.474 -114.505)" fill="#f6851f" fill-rule="evenodd"/>
        <path id="Trazado_996784" data-name="Trazado 996784" d="M28.927,10.9h3.625v2.357a9.57,9.57,0,0,1,3.613,1.5l1.663-1.663,2.561,2.561-1.663,1.663a9.651,9.651,0,0,1,1.5,3.613h2.357v3.625H40.222a9.57,9.57,0,0,1-1.5,3.613l1.663,1.663-2.561,2.561-1.663-1.663a9.57,9.57,0,0,1-3.613,1.5v2.357H28.939V32.222a9.491,9.491,0,0,1-3.613-1.5l-1.663,1.663L21.1,29.829l1.663-1.663a9.651,9.651,0,0,1-1.5-3.613H18.9V20.939h2.357a9.57,9.57,0,0,1,1.5-3.613L21.09,15.65,23.65,13.09l1.663,1.663a9.651,9.651,0,0,1,3.613-1.5Zm1.819,5.815a6.03,6.03,0,1,1-6.03,6.03A6.038,6.038,0,0,1,30.745,16.715Z" transform="translate(-18.9 -10.9)" fill="#dd6e42" fill-rule="evenodd"/>
        <path id="Trazado_996785" data-name="Trazado 996785" d="M22.6,326.814a6.512,6.512,0,1,1,9.62-8.758,6.506,6.506,0,1,1,9.225,9.177l-9.2,9.2c-3.207-3.183-6.461-6.437-9.644-9.62Z" transform="translate(-20.485 -279.229)" fill="#ed2024" fill-rule="evenodd"/>
      </g>
      <path id="Trazado_996786" data-name="Trazado 996786" d="M20.8,54.587A7.094,7.094,0,1,1,30.872,44.6a7.075,7.075,0,0,1,3.889-1.639,25.952,25.952,0,0,1-1.95-8.9,20.659,20.659,0,0,1,.156-3.231.486.486,0,0,1-.227.048H29.113a.587.587,0,0,1-.586-.586V28.4a10.492,10.492,0,0,1-2.955-1.22l-1.316,1.316a.585.585,0,0,1-.826,0l-2.561-2.561a.585.585,0,0,1,0-.826L22.2,23.777a10.349,10.349,0,0,1-1.22-2.955h-1.89a.587.587,0,0,1-.586-.586V16.622a.587.587,0,0,1,.586-.586h1.89A10.492,10.492,0,0,1,22.2,13.08l-1.34-1.34a.585.585,0,0,1,0-.826l2.561-2.561a.585.585,0,0,1,.826,0l1.328,1.328a10.349,10.349,0,0,1,2.955-1.22V6.583A.585.585,0,0,1,29.161,6h3.566a.587.587,0,0,1,.586.586v1.89a10.42,10.42,0,0,1,2.943,1.22L37.6,8.366a.585.585,0,0,1,.826,0l2.561,2.561a.585.585,0,0,1,0,.826L39.654,13.08a10.349,10.349,0,0,1,1.22,2.955h1.89a.587.587,0,0,1,.586.586v1.484A30.493,30.493,0,0,1,54.228,16.55c10.912.359,16.021,7.993,16.021,18.4,0,.287,0,.6-.012.957.67,1.388,1.855,3.266,3.039,5.157.6.957,1.208,1.914,1.711,2.74a2.433,2.433,0,0,1-2.01,3.649l-3.936.191-.072,5.492A5.415,5.415,0,0,1,63.6,58.428H59.983a4.223,4.223,0,0,0-4.1,3.254l-.885,3.685a.576.576,0,0,1-.562.443H37.142a.582.582,0,0,1-.55-.778c.467-1.95.754-3.326,1.041-4.7.2-.969.407-1.938.682-3.171l-7.047,7.047a.585.585,0,0,1-.826,0ZM36.041,42.933A7.091,7.091,0,0,1,42.55,50a7.643,7.643,0,0,1-2.68,5.636l-.048.2c-.885,3.685-1.1,5.217-1.95,8.806H53.952l.778-3.243a5.382,5.382,0,0,1,2.656-3.494,8.534,8.534,0,0,1-4.451-3.506.584.584,0,0,1,.168-.814.592.592,0,0,1,.814.156,7.633,7.633,0,0,0,6.569,3.494H63.6a4.23,4.23,0,0,0,4.212-4.128c.024-1.364.036-2.19.036-3s.012-1.639.036-2.979a.584.584,0,0,1,.538-.61l4.511-.227a1.268,1.268,0,0,0,1.053-1.879c-1.472-2.453-3.865-6.006-4.858-8.124a.652.652,0,0,1-.06-.263c.012-.323.012-.67.012-1.065,0-10.194-5-17.242-15.662-17.242a28.136,28.136,0,0,0-10.075,1.639v.885a.587.587,0,0,1-.586.586h-1.89a10.492,10.492,0,0,1-1.22,2.955l.658.658a4.591,4.591,0,0,1,1.938-.108c.873-3.015,4.044-4.26,7.047-3.41a8.027,8.027,0,0,1,1.89.826,4.627,4.627,0,0,1,5.9-1.041,5.92,5.92,0,0,1,2.166,1.831A6.927,6.927,0,0,1,65.822,26.3a6.289,6.289,0,0,1-5.755,9.117c-1.029,3.7-3.745,4.846-7.466,4.092-1.28,1.639-2.68,1.268-3.793.969a4.145,4.145,0,0,0-.562-.132c-.179-.024-.311.024-.371.359a3.886,3.886,0,0,0,.251,1.424A20.683,20.683,0,0,0,49.358,44.6a.586.586,0,0,1-.61.861c-2.357-.395-5.181-2.776-6.377-4.738-5,1.161-9.416-5.911-5.719-10.445a4.111,4.111,0,0,1,.168-2.513l-.562-.562a8.994,8.994,0,0,1-1.436.73c-1.448,4.224-.957,9.034.5,13.305.227.574.455,1.137.718,1.7ZM19.888,49.562a5.887,5.887,0,0,0,1.735,4.188l9.225,9.225,8.794-8.794a5.922,5.922,0,1,0-8.4-8.352.587.587,0,0,1-.861-.036,5.924,5.924,0,0,0-10.493,3.769Zm21.286-24.11a.609.609,0,0,1-.168.479l-2.572,2.561a.571.571,0,0,1-.646.12,2.578,2.578,0,0,0,.072,1.508.173.173,0,0,1,.024.084c.251.8,1.125,2.106,2.2,2.19A.588.588,0,0,1,40,33.565a3.8,3.8,0,0,1-2.8-2.058c-1.687,2.692-.275,6.33,2.249,7.67a3.834,3.834,0,0,0,2.979.311,2.052,2.052,0,0,0,.873-1.065A2.014,2.014,0,0,0,43.292,37a.59.59,0,0,1,.347-.754.6.6,0,0,1,.754.347,3.247,3.247,0,0,1-.945,3.6,11.277,11.277,0,0,0,4.2,3.661,11.634,11.634,0,0,1-.61-1.328,5.03,5.03,0,0,1-.323-1.819.682.682,0,0,1,.012-.156c.263-1.711,1.28-1.52,2.4-1.208a2.129,2.129,0,0,0,2.74-.8c.024-.036.048-.06.072-.1a1.836,1.836,0,0,0-.084-2.261.608.608,0,0,1-.108-.156,3.906,3.906,0,0,1-2.908-.311.583.583,0,0,1,.55-1.029A2.736,2.736,0,0,0,53.4,31.973a.584.584,0,0,1,1.161-.132,3.92,3.92,0,0,1-1.735,3.7,3,3,0,0,1,.443,2.9c3.111.514,5.049-.55,5.779-3.721a2.68,2.68,0,0,0-.838-2.68.585.585,0,0,1,.766-.885,3.833,3.833,0,0,1,1.316,3.075c3.195-.275,5.073-2.513,5.013-5.2a5.156,5.156,0,0,0-.538-2.214c-.861-1.783-2.788-3.147-5.767-3.1a.962.962,0,0,0-.479.3,1.581,1.581,0,0,0-.012,2.07c.012.012.024.012.024.024A3.931,3.931,0,0,1,62.1,27.367a.585.585,0,0,1-.873.778,2.716,2.716,0,0,0-2.908-.778,2.76,2.76,0,0,0-1.795,1.938.586.586,0,0,1-1.137-.287,3.858,3.858,0,0,1,1.962-2.513,2.806,2.806,0,0,1,.67-3.613,4.556,4.556,0,0,0-3.817-1.6,3.2,3.2,0,0,0-1.4.491,2.709,2.709,0,0,0-.873.969,2.338,2.338,0,0,0,.347,1.615,2.3,2.3,0,0,0,1.412.993.583.583,0,0,1-.263,1.137,3.5,3.5,0,0,1-2.68-3.661c-1.9-1.232-4.571-1.508-6.282.048a3.848,3.848,0,0,0-1.077,1.735,5.122,5.122,0,0,1,2.692,2.321A3.893,3.893,0,0,1,49.585,28.2a.585.585,0,1,1-.873.778,2.738,2.738,0,0,0-4.7,1.161.585.585,0,0,1-1.137-.275,3.912,3.912,0,0,1,2.058-2.572,4.039,4.039,0,0,0-2.381-1.711,3.377,3.377,0,0,0-1.376-.132Zm-7.705,2.9-.144.036V28.9C33.373,28.707,33.42,28.527,33.468,28.348ZM32.152,7.17H29.7V8.941a.577.577,0,0,1-.479.574,9.757,9.757,0,0,0-1.771.526,8.884,8.884,0,0,0-1.591.861.587.587,0,0,1-.778-.048L23.836,9.6,22.1,11.334l1.256,1.244a.6.6,0,0,1,.072.742,8.528,8.528,0,0,0-.873,1.627,9.121,9.121,0,0,0-.526,1.735.591.591,0,0,1-.574.514H19.673v2.441h1.771a.577.577,0,0,1,.574.479,9.756,9.756,0,0,0,.526,1.771,7.856,7.856,0,0,0,.861,1.591.587.587,0,0,1-.048.778L22.1,25.512l1.735,1.735,1.256-1.256a.6.6,0,0,1,.742-.072,8.8,8.8,0,0,0,1.615.873,8.53,8.53,0,0,0,1.735.514.594.594,0,0,1,.514.586v1.771h2.453V27.893a.577.577,0,0,1,.479-.574,9.757,9.757,0,0,0,1.771-.526,9.244,9.244,0,0,0,1.591-.861.587.587,0,0,1,.778.048l1.256,1.256L39.762,25.5l-1.256-1.256a.6.6,0,0,1-.072-.742,8.527,8.527,0,0,0,.873-1.627,8.311,8.311,0,0,0,.514-1.735.594.594,0,0,1,.586-.514h1.771V17.208H40.408a.577.577,0,0,1-.574-.479,9.757,9.757,0,0,0-.526-1.771,9.244,9.244,0,0,0-.861-1.591.587.587,0,0,1,.048-.778l1.256-1.256L38.015,9.6l-1.256,1.256a.6.6,0,0,1-.742.072,8.528,8.528,0,0,0-1.627-.873,8.311,8.311,0,0,0-1.735-.514.594.594,0,0,1-.514-.586V7.17Zm-1.22,4.63a6.623,6.623,0,1,1-6.617,6.629A6.618,6.618,0,0,1,30.932,11.8Zm3.853,2.776A5.432,5.432,0,1,0,36.4,18.429a5.557,5.557,0,0,0-1.615-3.853Z" transform="translate(0 0)"/>
    </g>
  </g>
</svg>
