<svg xmlns="http://www.w3.org/2000/svg" xmlns:xlink="http://www.w3.org/1999/xlink" width="108" height="108" viewBox="0 0 108 108">
  <defs>
    <filter id="Trazado_982547" x="0" y="0" width="108" height="108" filterUnits="userSpaceOnUse">
      <feOffset dy="3" input="SourceAlpha"/>
      <feGaussianBlur stdDeviation="3" result="blur"/>
      <feFlood flood-opacity="0.161"/>
      <feComposite operator="in" in2="blur"/>
      <feComposite in="SourceGraphic"/>
    </filter>
  </defs>
  <g id="Grupo_1159235" data-name="Grupo 1159235" transform="translate(-616 -1843)">
    <g id="Grupo_1154366" data-name="Grupo 1154366" transform="translate(0 -2067)">
      <g id="Grupo_1153177" data-name="Grupo 1153177" transform="translate(362 3397)">
        <g id="Grupo_1149598" data-name="Grupo 1149598" transform="translate(80 315)">
          <g id="Grupo_1148770" data-name="Grupo 1148770" transform="translate(-27 -2583)">
            <g id="Grupo_1146954" data-name="Grupo 1146954" transform="translate(-415 -1202)">
              <g transform="matrix(1, 0, 0, 1, 616, 3983)" filter="url(#Trazado_982547)">
                <g id="Trazado_982547-2" data-name="Trazado 982547" transform="translate(9 6)" fill="#effcf6">
                  <path d="M 45 88.5 C 39.12687683105469 88.5 33.43022537231445 87.35007476806641 28.06830024719238 85.08217620849609 C 22.88852500915527 82.89131164550781 18.23629951477051 79.75458526611328 14.2408504486084 75.75914764404297 C 10.24541282653809 71.76370239257812 7.108687400817871 67.11147308349609 4.917825222015381 61.93170166015625 C 2.649924993515015 56.56977462768555 1.5 50.87312316894531 1.5 45 C 1.5 39.12687683105469 2.649924993515015 33.43022537231445 4.917825222015381 28.06830024719238 C 7.108687400817871 22.88852500915527 10.24541282653809 18.23629951477051 14.2408504486084 14.2408504486084 C 18.23629951477051 10.24541282653809 22.88852500915527 7.108687400817871 28.06830024719238 4.917825222015381 C 33.43022537231445 2.649924993515015 39.12687683105469 1.5 45 1.5 C 50.87312316894531 1.5 56.56977462768555 2.649924993515015 61.93170166015625 4.917825222015381 C 67.11147308349609 7.108687400817871 71.76370239257812 10.24541282653809 75.75914764404297 14.2408504486084 C 79.75458526611328 18.23629951477051 82.89131164550781 22.88852500915527 85.08217620849609 28.06830024719238 C 87.35007476806641 33.43022537231445 88.5 39.12687683105469 88.5 45 C 88.5 50.87312316894531 87.35007476806641 56.56977462768555 85.08217620849609 61.93170166015625 C 82.89131164550781 67.11147308349609 79.75458526611328 71.76370239257812 75.75914764404297 75.75914764404297 C 71.76370239257812 79.75458526611328 67.11147308349609 82.89131164550781 61.93170166015625 85.08217620849609 C 56.56977462768555 87.35007476806641 50.87312316894531 88.5 45 88.5 Z" stroke="none"/>
                  <path d="M 45 3 C 39.32871246337891 3 33.82865524291992 4.110054016113281 28.65262985229492 6.299339294433594 C 23.65165710449219 8.414573669433594 19.15968322753906 11.44334411621094 15.301513671875 15.301513671875 C 11.44334411621094 19.15968322753906 8.414573669433594 23.65165710449219 6.299339294433594 28.65262985229492 C 4.110054016113281 33.82865524291992 3 39.32871246337891 3 45 C 3 50.67128753662109 4.110054016113281 56.17134475708008 6.299339294433594 61.34737396240234 C 8.414573669433594 66.34834289550781 11.44334411621094 70.84031677246094 15.301513671875 74.698486328125 C 19.15968322753906 78.55665588378906 23.65165710449219 81.58542633056641 28.65262985229492 83.70066070556641 C 33.82865524291992 85.88994598388672 39.32871246337891 87 45 87 C 50.67128753662109 87 56.17134475708008 85.88994598388672 61.34737396240234 83.70066070556641 C 66.34834289550781 81.58542633056641 70.84031677246094 78.55665588378906 74.698486328125 74.698486328125 C 78.55665588378906 70.84031677246094 81.58542633056641 66.34834289550781 83.70066070556641 61.34737396240234 C 85.88994598388672 56.17134475708008 87 50.67128753662109 87 45 C 87 39.32871246337891 85.88994598388672 33.82865524291992 83.70066070556641 28.65262985229492 C 81.58542633056641 23.65165710449219 78.55665588378906 19.15968322753906 74.698486328125 15.301513671875 C 70.84031677246094 11.44334411621094 66.34834289550781 8.414573669433594 61.34737396240234 6.299339294433594 C 56.17134475708008 4.110054016113281 50.67128753662109 3 45 3 M 45 0 C 69.85281372070312 0 90 20.14718627929688 90 45 C 90 69.85281372070312 69.85281372070312 90 45 90 C 20.14718627929688 90 0 69.85281372070312 0 45 C 0 20.14718627929688 20.14718627929688 0 45 0 Z" stroke="none" fill="#3d7e5e"/>
                </g>
              </g>
            </g>
          </g>
        </g>
      </g>
    </g>
    <g id="social_1_" data-name="social (1)" transform="translate(637.999 1833.223)">
      <g id="Grupo_1159234" data-name="Grupo 1159234" transform="translate(0.922 34.702)">
        <path id="Trazado_994713" data-name="Trazado 994713" d="M306.881,100.226,303.889,88.4l-8.926-.262-2.419,12.032Z" transform="translate(-257.365 -82.351)" fill="#686564"/>
        <path id="Trazado_994714" data-name="Trazado 994714" d="M113.464,137.338V138.8l-2.43.439a1.221,1.221,0,0,0-1.221,1.221l-.591,7.565.006-.072v6.2H100.19l-.654-13.691a1.221,1.221,0,0,0-1.221-1.221l-2.362-.439v-1.462a4.885,4.885,0,0,1,4.884-4.884h7.743A4.885,4.885,0,0,1,113.464,137.338Z" transform="translate(-85.034 -121.203)" fill="#bbf39b"/>
        <path id="Trazado_994715" data-name="Trazado 994715" d="M289.232,182.932l1.308,5.23a.611.611,0,0,1-.592.759H273.6l.636-6.754-.967-12.738c0-2.7,3.154-4.993,5.851-4.993h7.01a4.884,4.884,0,0,1,4.884,4.884v1.95Z" transform="translate(-240.465 -149.238)" fill="#fece85"/>
        <path id="Trazado_994716" data-name="Trazado 994716" d="M390.442,211.9v10.9a1.874,1.874,0,0,1-3.749,0v-7.159a3.738,3.738,0,0,1,3.739-3.738Z" transform="translate(-339.896 -190.843)" fill="#e88f77"/>
        <path id="Trazado_994717" data-name="Trazado 994717" d="M207.726,183.88v10.286a2.118,2.118,0,1,1-4.236,0v-1.133l-.006.072v-8a1.221,1.221,0,0,1,1.221-1.221Z" transform="translate(-179.295 -166.283)" fill="#ffb5a5"/>
        <path id="Trazado_994718" data-name="Trazado 994718" d="M100.189,185.1v11.533a2.119,2.119,0,1,1-4.237,0V183.88h3.016A1.221,1.221,0,0,1,100.189,185.1Z" transform="translate(-85.033 -166.283)" fill="#ffb5a5"/>
        <path id="Trazado_994719" data-name="Trazado 994719" d="M153.015,103h-4.552V106.7a2.276,2.276,0,0,0,4.552,0Z" transform="translate(-131.064 -95.385)" fill="#ff9d86"/>
        <path id="Trazado_994720" data-name="Trazado 994720" d="M195.374,264.379l-.186,7.73c0,.9-.91-.075-1.81-.075a1.63,1.63,0,0,1-1.63-1.63v-6.379l2.894-.378A.732.732,0,0,1,195.374,264.379Z" transform="translate(-169.007 -236.205)" fill="#ffdcd0"/>
        <path id="Trazado_994721" data-name="Trazado 994721" d="M292.059,262.817V269.2a1.631,1.631,0,0,1-1.63,1.63c-.451,0-1.213,1.1-1.509.807a1.474,1.474,0,0,1-.488-1.08V263a.732.732,0,0,1,.733-.733Z" transform="translate(-253.761 -234.998)" fill="#ffdcd0"/>
        <path id="Trazado_994722" data-name="Trazado 994722" d="M218.167,308.315v14.292H226.8l.4-1.569V308.315l-4.519-.907Z" transform="translate(-192.166 -274.567)" fill="#b3dafe"/>
        <path id="Trazado_994723" data-name="Trazado 994723" d="M207.3,226.384v.972h-2.528a.732.732,0,0,0-.733.733v7.838h-9.037v-7.838a.732.732,0,0,0-.733-.733h-2.528v-.972a4.885,4.885,0,0,1,4.884-4.884h5.789A4.885,4.885,0,0,1,207.3,226.384Z" transform="translate(-169.007 -199.26)" fill="#f7786b"/>
        <path id="Trazado_994724" data-name="Trazado 994724" d="M241.907,203.746h-4.219v2.14a2.11,2.11,0,0,0,4.219,0v-2.14Z" transform="translate(-209.278 -183.697)" fill="#ffc7b6"/>
        <path id="Trazado_994725" data-name="Trazado 994725" d="M231.444,424.884H237.5v5.5h-6.052Z" transform="translate(-203.805 -377.547)" fill="#f2fbff"/>
        <g id="Grupo_1159233" data-name="Grupo 1159233" transform="translate(0 10.172)">
          <g id="Grupo_1159231" data-name="Grupo 1159231" transform="translate(32.513 0)">
            <path id="Trazado_994726" data-name="Trazado 994726" d="M433.849,127.928l-1.381,9.478-.922,1.892.274,2.561-7.666,2.509,5.353-16.69c.274-.965.593-2.155,1.568-2.282,0,0,.215-.021.321-.021a8.555,8.555,0,0,0,.958-.094,2.488,2.488,0,0,1,1.494,2.646Z" transform="translate(-405.248 -125.087)" fill="#ffc7b6"/>
            <path id="Trazado_994727" data-name="Trazado 994727" d="M432.469,136.024l-.032.222-.616,4.231-4.545,1.487-3.121,1.022,1.335-4.816L429,125.513a2.488,2.488,0,0,1,2.071-1.787h.006a2.4,2.4,0,0,1,.315-.021,2.462,2.462,0,0,1,.966.195l-3.342,11.844a.494.494,0,0,0,.652.594A5.14,5.14,0,0,1,432.469,136.024Z" transform="translate(-405.248 -123.705)" fill="#ffb5a5"/>
            <path id="Trazado_994728" data-name="Trazado 994728" d="M318.556,246.868a2.783,2.783,0,0,1-1.452,2.446l-1.368.858-.818,1.73.454.886-.064.463a4.873,4.873,0,0,1-2.427,3.567l-8.919,5.041a.374.374,0,0,0-.188.322v4.091l-5.486,1.535-5.9-1.535v-8.221c0-1.842.111-3.41,1.266-4.866l.048-.06a11.47,11.47,0,0,1,2.487-2.431,7.917,7.917,0,0,1,2.662-.751l1.831-.184a13.4,13.4,0,0,0,4.067-1.071l10.31-4.544a2.3,2.3,0,0,1,3.259,1.6A2.776,2.776,0,0,1,318.556,246.868Z" transform="translate(-289.739 -229.084)" fill="#ffc7b6"/>
            <path id="Trazado_994729" data-name="Trazado 994729" d="M290.576,298.819a8.159,8.159,0,0,0-1.629,4.89v11.369l-2.962-.68v-8.221a8.169,8.169,0,0,1,1.778-5.084l.048-.061A7.931,7.931,0,0,1,290.576,298.819Z" transform="translate(-284.128 -277.21)" fill="#ffb5a5"/>
            <path id="Trazado_994730" data-name="Trazado 994730" d="M274.959,425.263l3.289-.38h9.894a1.178,1.178,0,0,1,1.178,1.178v3.145a1.178,1.178,0,0,1-1.178,1.178h-9.894l-3.266-.211A1.178,1.178,0,0,1,273.8,429l-.023-2.555A1.178,1.178,0,0,1,274.959,425.263Z" transform="translate(-273.43 -387.717)" fill="#72706f"/>
            <path id="Trazado_994731" data-name="Trazado 994731" d="M275.757,424.884v5.5h-3.639a1.178,1.178,0,0,1-1.178-1.178v-3.145a1.177,1.177,0,0,1,1.178-1.177Z" transform="translate(-270.939 -387.718)" fill="#686564"/>
            <path id="Trazado_994732" data-name="Trazado 994732" d="M411.952,300.515a1.134,1.134,0,0,0,1.427.285l6.585-3.588.364-2.616-7.214,3.818-.767.367a1.134,1.134,0,0,0-.395,1.733Z" transform="translate(-394.332 -273.509)" fill="#ffb5a5"/>
          </g>
          <g id="Grupo_1159232" data-name="Grupo 1159232">
            <path id="Trazado_994733" data-name="Trazado 994733" d="M14.894,140.8,12.824,127.02c-.216-1.5.507-2.8,2.021-2.8.108,0,.177-.354.282-.34a2.486,2.486,0,0,1,2.071,1.786l3.507,12.657-.425,1.837,1.76,2.979Z" transform="translate(-12.13 -123.853)" fill="#ffc7b6"/>
            <path id="Trazado_994734" data-name="Trazado 994734" d="M18.724,142.985l-4.2-1.373-3.469-1.135-.616-4.231-1.413-9.7a2.485,2.485,0,0,1,2.781-2.82l1.519,12.2a.862.862,0,0,0,.514.686c1.034.446,3.486,1.536,3.545,1.559Z" transform="translate(-8.814 -123.704)" fill="#ffb5a5"/>
            <path id="Trazado_994735" data-name="Trazado 994735" d="M32.648,252.966l-.048-.061a7.938,7.938,0,0,0-5.427-2.964l-1.831-.184a13.4,13.4,0,0,1-4.067-1.071l-10.31-4.544a2.3,2.3,0,0,0-3.259,1.6,2.783,2.783,0,0,0,1.212,3.574l1.369.858L11.1,251.9l-.454.886.064.462a4.87,4.87,0,0,0,2.427,3.568l8.919,5.041c.116.066.587.5.587.629l.093,3.784,4.994,1.535,6.691-1.535v-8.222a8.169,8.169,0,0,0-1.778-5.083Z" transform="translate(-7.465 -229.083)" fill="#ffc7b6"/>
            <path id="Trazado_994736" data-name="Trazado 994736" d="M128.893,390.437v3.1l-1.8,1.535-1.166-1.535v-4.091a.37.37,0,0,0-.188-.322l1.79-.026A1.34,1.34,0,0,1,128.893,390.437Z" transform="translate(-111.148 -356.347)" fill="#ffb5a5"/>
            <path id="Trazado_994737" data-name="Trazado 994737" d="M116.245,425.263l3.289-.38h9.894a1.178,1.178,0,0,1,1.178,1.178v3.145a1.178,1.178,0,0,1-1.178,1.178h-9.894l-3.266-.211A1.178,1.178,0,0,1,115.09,429l-.023-2.555A1.178,1.178,0,0,1,116.245,425.263Z" transform="translate(-101.789 -387.717)" fill="#72706f"/>
            <path id="Trazado_994738" data-name="Trazado 994738" d="M117.042,424.884v5.5H113.4a1.178,1.178,0,0,1-1.178-1.178v-3.145a1.177,1.177,0,0,1,1.178-1.177Z" transform="translate(-99.297 -387.718)" fill="#686564"/>
            <path id="Trazado_994739" data-name="Trazado 994739" d="M38.7,300.515a1.134,1.134,0,0,1-1.427.285l-6.585-3.588-.364-2.616,7.214,3.818.767.367A1.134,1.134,0,0,1,38.7,300.515Z" transform="translate(-27.502 -273.509)" fill="#ffb5a5"/>
          </g>
        </g>
        <path id="Trazado_994740" data-name="Trazado 994740" d="M142.39,45.214c0,2.537-1.763,5.659-3.938,5.659s-3.938-3.122-3.938-5.659a3.938,3.938,0,0,1,7.876,0Z" transform="translate(-118.836 -41.276)" fill="#ffb5a5"/>
        <path id="Trazado_994741" data-name="Trazado 994741" d="M230.964,143.252c0,2.275-1.822,5.07-4.069,5.07s-4.069-2.8-4.069-5.07a4.07,4.07,0,1,1,8.139,0Z" transform="translate(-196.249 -127.057)" fill="#ffdcd0"/>
        <path id="Trazado_994742" data-name="Trazado 994742" d="M336.495,132.5v3.779a2.316,2.316,0,1,1-4.633,0v-3.826Z" transform="translate(-291.831 -121.203)" fill="#e08369"/>
        <path id="Trazado_994743" data-name="Trazado 994743" d="M322.591,86.807c-.031,2.664-2.076,5.994-4.594,5.994s-4.563-3.329-4.594-5.994c1.208.286,2.573-.616,3.507-1.3a1.852,1.852,0,0,1,2.174,0C320.018,86.191,321.383,87.093,322.591,86.807Z" transform="translate(-275.65 -79.736)" fill="#e88f77"/>
        <path id="Trazado_994744" data-name="Trazado 994744" d="M322.591,63.694v.06a4.361,4.361,0,0,1-3.507-.54,1.852,1.852,0,0,0-2.174,0,4.361,4.361,0,0,1-3.507.54v-.06a4.6,4.6,0,1,1,9.188,0Z" transform="translate(-275.65 -56.683)" fill="#72706f"/>
      </g>
      <path id="Trazado_994745" data-name="Trazado 994745" d="M62.857,61.3a3.688,3.688,0,0,0-1.576-1.726l.568-3.937a.925.925,0,1,0-1.832-.264L59.48,59.1a3.68,3.68,0,0,0-1.508.313l-3.885,1.712,3.987-14.044a1.561,1.561,0,0,1,3.046.649L60.634,51.1a.925.925,0,1,0,1.832.264l.486-3.368a3.412,3.412,0,0,0-6.659-1.418L52.485,59.992v-5.2A5.781,5.781,0,0,0,51.329,51.3s-2.681-10.58-2.688-10.6a5.462,5.462,0,0,0-10.665-.15c-.018.042-2.029,7.58-2.047,7.64a4.959,4.959,0,0,0-7.572-1.408,5.892,5.892,0,0,0-3.88-1.459h-.7v-2a8.244,8.244,0,0,0,1.587-4.791.925.925,0,0,0-.925-.91h-.015a.925.925,0,0,0-.91.94c.06,2.185-1.58,4.813-3.012,4.808s-3.013-2.477-3.013-4.734A2.8,2.8,0,0,1,20.5,35.628a3.465,3.465,0,0,1,1.4.274.925.925,0,1,0,.742-1.7,5.3,5.3,0,0,0-2.137-.429,4.653,4.653,0,0,0-4.864,4.864A8.055,8.055,0,0,0,17.3,43.413V45.33h-.7a5.9,5.9,0,0,0-5.892,5.72s0,8.729-.017,8.943l-1.4-4.94a.926.926,0,0,0-1.781.505l1.581,5.567L5.2,59.413A3.683,3.683,0,0,0,3.694,59.1L2.054,47.73A1.561,1.561,0,0,1,5.1,47.081l1.248,4.4a.926.926,0,1,0,1.781-.505l-1.248-4.4A3.412,3.412,0,0,0,.222,47.994l1.67,11.581A3.687,3.687,0,0,0,.317,61.3a3.729,3.729,0,0,0,1.615,4.763l.942.513.381,2.738a5.83,5.83,0,0,0,2.889,4.246l8.637,4.881v2.843a2.161,2.161,0,0,0-1.856,2.136v3.033a2.162,2.162,0,0,0,2.16,2.16H48.091a2.162,2.162,0,0,0,2.16-2.16V83.42a2.161,2.161,0,0,0-1.856-2.136V78.442l8.637-4.881a5.83,5.83,0,0,0,2.889-4.246l.381-2.738.942-.513A3.729,3.729,0,0,0,62.857,61.3ZM32.534,86.762H30.64a2.156,2.156,0,0,0,.025-.309V83.42a2.156,2.156,0,0,0-.025-.309h1.894a2.155,2.155,0,0,0-.025.309v3.033A2.154,2.154,0,0,0,32.534,86.762ZM24.584,66.3V64.042h1.344a.384.384,0,0,1,.384.384v3.3A8.881,8.881,0,0,0,24.584,66.3ZM41.879,48.833a3.894,3.894,0,0,0,2.782.016v1.2a1.391,1.391,0,1,1-2.782,0V48.833Zm4.633-1.215a7.244,7.244,0,0,0,.783-.936,8.325,8.325,0,0,0,.667-1.13l.993,3.916a6.1,6.1,0,0,0-2.118-.409h-.325Zm-3.222-.371c-1.634,0-3.116-2.032-3.545-4.023q.224.02.447.02a4.276,4.276,0,0,0,2.695-.887.627.627,0,0,1,.806,0,4.391,4.391,0,0,0,3.142.865C46.406,45.214,44.924,47.247,43.289,47.247Zm-4.005-.565a7.3,7.3,0,0,0,.743.9v1.481H39.7a5.912,5.912,0,0,0-2.2.422l1.074-4.014a8.335,8.335,0,0,0,.707,1.215ZM30.353,56.44a3.7,3.7,0,0,0,2.443,0v.951a1.222,1.222,0,1,1-2.443,0V56.44Zm-1.851-1.2v.992a5.857,5.857,0,0,0-2.445.588V53.955a.318.318,0,0,1,.317-.317h.97a6.654,6.654,0,0,0,1.158,1.6Zm-3.918,6.885a4.05,4.05,0,0,1,4-4.044,3.072,3.072,0,0,0,5.984,0,4.085,4.085,0,0,1,4,4.108H37.222a2.238,2.238,0,0,0-2.235,2.235v5.739H28.163V64.426a2.238,2.238,0,0,0-2.235-2.235H24.584v-.064Zm9.782,11.861v7.274H28.808V73.987a9.018,9.018,0,0,0-.221-1.971h6a9.026,9.026,0,0,0-.22,1.971Zm2.472-9.562a.385.385,0,0,1,.384-.384h1.344v2.273a8.873,8.873,0,0,0-1.728,1.44Zm3.579-2.3a5.9,5.9,0,0,0-5.77-5.893V55.225a8.067,8.067,0,0,0,1.45-2.109A4.032,4.032,0,0,1,39.7,50.909h.443a3.241,3.241,0,0,0,6.248,0h.443A3.9,3.9,0,0,1,50.6,54.292L48.824,55.5a4.851,4.851,0,0,0-2.12,4.011v4.772a12.458,12.458,0,0,1-2.42.488l-1.831.184a8.8,8.8,0,0,0-2.035.455V62.127Zm8.137-2.612a3,3,0,0,1,1.312-2.481l.768-.523v6.138l-2.079.916ZM43.289,38.2a3.745,3.745,0,0,1,3.6,3.151,2.628,2.628,0,0,1-2.028-.433,2.471,2.471,0,0,0-3.14,0,2.628,2.628,0,0,1-2.028.433,3.745,3.745,0,0,1,3.6-3.151ZM31.567,47.457a3.172,3.172,0,0,1,3.144,3.193c0,1.827-1.48,4.145-3.144,4.145s-3.144-2.318-3.144-4.145A3.173,3.173,0,0,1,31.567,47.457ZM21.929,44.9v1.419a1.391,1.391,0,0,1-2.782,0v-1.39a3.245,3.245,0,0,0,2.782-.03ZM16.6,47.181h.816a3.241,3.241,0,0,0,6.248,0h.816a4.043,4.043,0,0,1,2.711,1.044,5.051,5.051,0,0,0-.617,2.425,5.871,5.871,0,0,0,.116,1.137h-.314a2.171,2.171,0,0,0-2.168,2.168v4.278a5.87,5.87,0,0,0-1.473,3.893v3.279a8.8,8.8,0,0,0-2.011-.447l-1.831-.183a12.468,12.468,0,0,1-2.029-.376l0-10.443A2.171,2.171,0,0,0,14.7,51.787l-2.143,0v-.559A4.049,4.049,0,0,1,16.6,47.181ZM12.54,53.638H14.7a.317.317,0,0,1,.317.317l0,9.781L12.54,62.647ZM28.5,86.762H15.083a.309.309,0,0,1-.309-.309V83.42a.309.309,0,0,1,.309-.309h4.875a.925.925,0,1,0,0-1.851H16.631V77.9a.925.925,0,0,0-.47-.806L7.054,71.949a3.968,3.968,0,0,1-1.966-2.89L4.9,67.679l5.619,3.061a.925.925,0,1,0,.886-1.625L2.817,64.438a1.858,1.858,0,0,1,1.639-3.331l9.9,4.365a14.3,14.3,0,0,0,4.348,1.145l1.831.183a7.267,7.267,0,0,1,6.42,7.187v7.274H24.285a.926.926,0,1,0,0,1.851H28.5a.309.309,0,0,1,.309.309v3.033a.309.309,0,0,1-.309.309h0Zm19.9-.309a.309.309,0,0,1-.308.309H34.669a.309.309,0,0,1-.309-.309V83.42a.309.309,0,0,1,.309-.309H48.091a.309.309,0,0,1,.308.309ZM60.357,64.438l-8.583,4.676a.925.925,0,1,0,.886,1.625l5.619-3.061-.192,1.381a3.967,3.967,0,0,1-1.966,2.89L47.013,77.1a.926.926,0,0,0-.47.806v3.359H36.217V73.987a7.293,7.293,0,0,1,6.42-7.187l1.831-.183a14.3,14.3,0,0,0,4.348-1.145l9.9-4.364a1.858,1.858,0,0,1,1.639,3.331Z" transform="translate(0)"/>
    </g>
  </g>
</svg>
