<svg xmlns="http://www.w3.org/2000/svg" xmlns:xlink="http://www.w3.org/1999/xlink" width="108" height="108" viewBox="0 0 108 108">
  <defs>
    <filter id="Trazado_982547" x="0" y="0" width="108" height="108" filterUnits="userSpaceOnUse">
      <feOffset dy="3" input="SourceAlpha"/>
      <feGaussianBlur stdDeviation="3" result="blur"/>
      <feFlood flood-opacity="0.161"/>
      <feComposite operator="in" in2="blur"/>
      <feComposite in="SourceGraphic"/>
    </filter>
  </defs>
  <g id="Grupo_1159972" data-name="Grupo 1159972" transform="translate(-616 -954)">
    <g id="Grupo_1158938" data-name="Grupo 1158938" transform="translate(0 -2956)">
      <g id="Grupo_1153177" data-name="Grupo 1153177" transform="translate(362 3397)">
        <g id="Grupo_1149598" data-name="Grupo 1149598" transform="translate(80 315)">
          <g id="Grupo_1148770" data-name="Grupo 1148770" transform="translate(-27 -2583)">
            <g id="Grupo_1146954" data-name="Grupo 1146954" transform="translate(-415 -1202)">
              <g transform="matrix(1, 0, 0, 1, 616, 3983)" filter="url(#Trazado_982547)">
                <g id="Trazado_982547-2" data-name="Trazado 982547" transform="translate(9 6)" fill="#fef6e8">
                  <path d="M 45 88.5 C 39.12687683105469 88.5 33.43022537231445 87.35007476806641 28.06830024719238 85.08217620849609 C 22.88852500915527 82.89131164550781 18.23629951477051 79.75458526611328 14.2408504486084 75.75914764404297 C 10.24541282653809 71.76370239257812 7.108687400817871 67.11147308349609 4.917825222015381 61.93170166015625 C 2.649924993515015 56.56977462768555 1.5 50.87312316894531 1.5 45 C 1.5 39.12687683105469 2.649924993515015 33.43022537231445 4.917825222015381 28.06830024719238 C 7.108687400817871 22.88852500915527 10.24541282653809 18.23629951477051 14.2408504486084 14.2408504486084 C 18.23629951477051 10.24541282653809 22.88852500915527 7.108687400817871 28.06830024719238 4.917825222015381 C 33.43022537231445 2.649924993515015 39.12687683105469 1.5 45 1.5 C 50.87312316894531 1.5 56.56977462768555 2.649924993515015 61.93170166015625 4.917825222015381 C 67.11147308349609 7.108687400817871 71.76370239257812 10.24541282653809 75.75914764404297 14.2408504486084 C 79.75458526611328 18.23629951477051 82.89131164550781 22.88852500915527 85.08217620849609 28.06830024719238 C 87.35007476806641 33.43022537231445 88.5 39.12687683105469 88.5 45 C 88.5 50.87312316894531 87.35007476806641 56.56977462768555 85.08217620849609 61.93170166015625 C 82.89131164550781 67.11147308349609 79.75458526611328 71.76370239257812 75.75914764404297 75.75914764404297 C 71.76370239257812 79.75458526611328 67.11147308349609 82.89131164550781 61.93170166015625 85.08217620849609 C 56.56977462768555 87.35007476806641 50.87312316894531 88.5 45 88.5 Z" stroke="none"/>
                  <path d="M 45 3 C 39.32871246337891 3 33.82865524291992 4.110054016113281 28.65262985229492 6.299339294433594 C 23.65165710449219 8.414573669433594 19.15968322753906 11.44334411621094 15.301513671875 15.301513671875 C 11.44334411621094 19.15968322753906 8.414573669433594 23.65165710449219 6.299339294433594 28.65262985229492 C 4.110054016113281 33.82865524291992 3 39.32871246337891 3 45 C 3 50.67128753662109 4.110054016113281 56.17134475708008 6.299339294433594 61.34737396240234 C 8.414573669433594 66.34834289550781 11.44334411621094 70.84031677246094 15.301513671875 74.698486328125 C 19.15968322753906 78.55665588378906 23.65165710449219 81.58542633056641 28.65262985229492 83.70066070556641 C 33.82865524291992 85.88994598388672 39.32871246337891 87 45 87 C 50.67128753662109 87 56.17134475708008 85.88994598388672 61.34737396240234 83.70066070556641 C 66.34834289550781 81.58542633056641 70.84031677246094 78.55665588378906 74.698486328125 74.698486328125 C 78.55665588378906 70.84031677246094 81.58542633056641 66.34834289550781 83.70066070556641 61.34737396240234 C 85.88994598388672 56.17134475708008 87 50.67128753662109 87 45 C 87 39.32871246337891 85.88994598388672 33.82865524291992 83.70066070556641 28.65262985229492 C 81.58542633056641 23.65165710449219 78.55665588378906 19.15968322753906 74.698486328125 15.301513671875 C 70.84031677246094 11.44334411621094 66.34834289550781 8.414573669433594 61.34737396240234 6.299339294433594 C 56.17134475708008 4.110054016113281 50.67128753662109 3 45 3 M 45 0 C 69.85281372070312 0 90 20.14718627929688 90 45 C 90 69.85281372070312 69.85281372070312 90 45 90 C 20.14718627929688 90 0 69.85281372070312 0 45 C 0 20.14718627929688 20.14718627929688 0 45 0 Z" stroke="none" fill="#fdaf2f"/>
                </g>
              </g>
            </g>
          </g>
        </g>
      </g>
    </g>
    <g id="diversidad_3_" data-name="diversidad (3)" transform="translate(622.585 971.757)">
      <g id="Grupo_1159971" data-name="Grupo 1159971" transform="translate(14.415 -2.757)">
        <path id="Trazado_996787" data-name="Trazado 996787" d="M282.086,134.329l-6.938,12.018,3.659.69h6.254V135.606Z" transform="translate(-239.757 -115.721)" fill="#596c76"/>
        <g id="Grupo_1159950" data-name="Grupo 1159950" transform="translate(23.258 0)">
          <g id="Grupo_1159949" data-name="Grupo 1159949">
            <g id="Grupo_1159947" data-name="Grupo 1159947" transform="translate(1.402)">
              <circle id="Elipse_11724" data-name="Elipse 11724" cx="6.746" cy="6.746" r="6.746" transform="translate(0 13.115) rotate(-76.408)" fill="#ffdcd5"/>
            </g>
            <path id="Trazado_996788" data-name="Trazado 996788" d="M185.762,110.621a8.983,8.983,0,0,1,7.288-3.721h4.5a8.995,8.995,0,0,1,8.995,8.995v5.622a1.124,1.124,0,0,1-1.124,1.124H192.7Z" transform="translate(-185.762 -92.015)" fill="#26a6fe"/>
            <path id="Trazado_996789" data-name="Trazado 996789" d="M246.079,7.5a6.761,6.761,0,0,0-1.561.184,6.746,6.746,0,0,1,0,13.125A6.746,6.746,0,1,0,246.079,7.5Z" transform="translate(-236.543 -6.108)" fill="#ffc4bd"/>
            <g id="Grupo_1159948" data-name="Grupo 1159948" transform="translate(8.647 14.885)">
              <path id="Trazado_996790" data-name="Trazado 996790" d="M252.6,106.9h-3.138a9,9,0,0,1,8.995,8.995v5.622a1.124,1.124,0,0,1-1.124,1.124h3.138a1.124,1.124,0,0,0,1.124-1.124v-5.622A9,9,0,0,0,252.6,106.9Z" transform="translate(-249.465 -106.9)" fill="#0593fc"/>
            </g>
          </g>
        </g>
        <g id="Grupo_1159954" data-name="Grupo 1159954" transform="translate(0 12.202)">
          <g id="Grupo_1159953" data-name="Grupo 1159953" transform="translate(0 0)">
            <circle id="Elipse_11725" data-name="Elipse 11725" cx="6.746" cy="6.746" r="6.746" transform="matrix(0.807, -0.591, 0.591, 0.807, 0, 7.974)" fill="#d88a55"/>
            <g id="Grupo_1159951" data-name="Grupo 1159951" transform="translate(12.937 6.355)">
              <path id="Trazado_996791" data-name="Trazado 996791" d="M110.507,150.525a8.983,8.983,0,0,1,.421-8.172l2.249-3.895a8.995,8.995,0,0,1,12.287-3.292l4.869,2.811a1.124,1.124,0,0,1,.412,1.536l-6.358,11.012Z" transform="translate(-109.721 -133.959)" fill="#97d729"/>
            </g>
            <path id="Trazado_996792" data-name="Trazado 996792" d="M36.854,110.266a6.76,6.76,0,0,0-.622,1.444A6.746,6.746,0,0,1,47.6,118.272a6.746,6.746,0,1,0-10.745-8.006Z" transform="translate(-33.271 -104.21)" fill="#c57a44"/>
            <g id="Grupo_1159952" data-name="Grupo 1159952" transform="translate(14.823 6.355)">
              <path id="Trazado_996793" data-name="Trazado 996793" d="M125.186,138.458l-1.569,2.718a8.995,8.995,0,0,1,12.287-3.292l4.869,2.811a1.124,1.124,0,0,1,.412,1.536l1.569-2.718a1.124,1.124,0,0,0-.412-1.536l-4.869-2.811A8.995,8.995,0,0,0,125.186,138.458Z" transform="translate(-123.617 -133.959)" fill="#8bc727"/>
            </g>
          </g>
        </g>
        <g id="Grupo_1159959" data-name="Grupo 1159959" transform="translate(0.348 28.046)">
          <g id="Grupo_1159958" data-name="Grupo 1159958" transform="translate(0)">
            <g id="Grupo_1159955" data-name="Grupo 1159955" transform="translate(0 11.487)">
              <circle id="Elipse_11726" data-name="Elipse 11726" cx="6.746" cy="6.746" r="6.746" transform="matrix(0.89, -0.456, 0.456, 0.89, 0, 6.153)" fill="#ffdcd5"/>
            </g>
            <g id="Grupo_1159956" data-name="Grupo 1159956" transform="translate(12.588)">
              <path id="Trazado_996794" data-name="Trazado 996794" d="M120.043,227.456a8.983,8.983,0,0,1-6.867-4.451l-2.249-3.895a8.995,8.995,0,0,1,3.292-12.287l4.869-2.811a1.124,1.124,0,0,1,1.536.412l6.358,11.012Z" transform="translate(-109.721 -203.862)" fill="#fe93bb"/>
            </g>
            <path id="Trazado_996795" data-name="Trazado 996795" d="M35.049,315.812a6.757,6.757,0,0,0,.939,1.26,6.746,6.746,0,0,1,11.367-6.563,6.746,6.746,0,1,0-12.306,5.3Z" transform="translate(-31.814 -291.87)" fill="#ffc4bd"/>
            <g id="Grupo_1159957" data-name="Grupo 1159957" transform="translate(12.588 0)">
              <path id="Trazado_996796" data-name="Trazado 996796" d="M110.928,219.111l1.569,2.718a9,9,0,0,1,3.292-12.287l4.869-2.811a1.124,1.124,0,0,1,1.536.412l-1.569-2.718a1.124,1.124,0,0,0-1.536-.412l-4.869,2.811A9,9,0,0,0,110.928,219.111Z" transform="translate(-109.721 -203.862)" fill="#fe5694"/>
            </g>
          </g>
        </g>
        <g id="Grupo_1159963" data-name="Grupo 1159963" transform="translate(21.551 39.621)">
          <g id="Grupo_1159962" data-name="Grupo 1159962">
            <circle id="Elipse_11727" data-name="Elipse 11727" cx="6.746" cy="6.746" r="6.746" transform="translate(1.694 22.484) rotate(-45)" fill="#d88a55"/>
            <g id="Grupo_1159960" data-name="Grupo 1159960" transform="translate(0)">
              <path id="Trazado_996797" data-name="Trazado 996797" d="M193.965,301.153a8.983,8.983,0,0,1-7.288,3.721h-4.5a9,9,0,0,1-8.995-8.995v-5.622a1.124,1.124,0,0,1,1.124-1.124h12.716Z" transform="translate(-173.185 -289.133)" fill="#fee45a"/>
            </g>
            <path id="Trazado_996798" data-name="Trazado 996798" d="M213.064,418.592a6.761,6.761,0,0,0,1.561-.184,6.746,6.746,0,0,1,0-13.125,6.746,6.746,0,1,0-1.561,13.309Z" transform="translate(-201.82 -389.359)" fill="#c57a44"/>
            <g id="Grupo_1159961" data-name="Grupo 1159961" transform="translate(0 0)">
              <path id="Trazado_996799" data-name="Trazado 996799" d="M182.179,304.874h3.138a8.995,8.995,0,0,1-8.995-8.995v-5.622a1.124,1.124,0,0,1,1.124-1.124h-3.138a1.124,1.124,0,0,0-1.124,1.124v5.622A9,9,0,0,0,182.179,304.874Z" transform="translate(-173.184 -289.133)" fill="#fac600"/>
            </g>
          </g>
        </g>
        <g id="Grupo_1159966" data-name="Grupo 1159966" transform="translate(31.479 35.123)">
          <g id="Grupo_1159965" data-name="Grupo 1159965">
            <g id="Grupo_1159964" data-name="Grupo 1159964" transform="translate(15.135 3.955)">
              <circle id="Elipse_11728" data-name="Elipse 11728" cx="6.746" cy="6.746" r="6.746" transform="translate(0 9.539) rotate(-45)" fill="#ffdcd5"/>
            </g>
            <path id="Trazado_996800" data-name="Trazado 996800" d="M266.714,256a8.983,8.983,0,0,1-.421,8.172l-2.249,3.895a8.995,8.995,0,0,1-12.287,3.292l-4.869-2.811a1.124,1.124,0,0,1-.412-1.536L252.835,256Z" transform="translate(-246.326 -255.998)" fill="#e30256"/>
            <path id="Trazado_996801" data-name="Trazado 996801" d="M391.066,329.273a6.759,6.759,0,0,0,.622-1.444,6.746,6.746,0,0,1-11.367-6.563,6.746,6.746,0,1,0,10.745,8.006Z" transform="translate(-360.538 -312.408)" fill="#ffc4bd"/>
            <path id="Trazado_996802" data-name="Trazado 996802" d="M264.044,320.879l1.569-2.718a8.995,8.995,0,0,1-12.287,3.292l-4.869-2.811a1.124,1.124,0,0,1-.412-1.536l-1.569,2.718a1.124,1.124,0,0,0,.412,1.536l4.869,2.811A8.995,8.995,0,0,0,264.044,320.879Z" transform="translate(-246.326 -308.812)" fill="#b30059"/>
          </g>
        </g>
        <g id="Grupo_1159970" data-name="Grupo 1159970" transform="translate(35.391 13.071)">
          <g id="Grupo_1159969" data-name="Grupo 1159969" transform="translate(0 0)">
            <circle id="Elipse_11729" data-name="Elipse 11729" cx="6.746" cy="6.746" r="6.746" transform="matrix(0.322, -0.947, 0.947, 0.322, 12.238, 12.777)" fill="#d88a55"/>
            <g id="Grupo_1159967" data-name="Grupo 1159967" transform="translate(0 5.535)">
              <path id="Trazado_996803" data-name="Trazado 996803" d="M291.2,142.66l-2.249-3.895a8.983,8.983,0,0,0-6.867-4.451v0a8.952,8.952,0,0,1,1.709,5.272v5.622a1.124,1.124,0,0,1-1.124,1.124h-7.523l6.358,11.012a1.124,1.124,0,0,0,1.536.412l4.869-2.811A9,9,0,0,0,291.2,142.66Z" transform="translate(-275.148 -134.315)" fill="#596c76"/>
            </g>
            <path id="Trazado_996804" data-name="Trazado 996804" d="M392.87,123.727a6.756,6.756,0,0,0-.939-1.26,6.746,6.746,0,0,1-11.367,6.563,6.746,6.746,0,1,0,12.306-5.3Z" transform="translate(-366.255 -118.54)" fill="#c57a44"/>
            <g id="Grupo_1159968" data-name="Grupo 1159968" transform="translate(4.789 11.162)">
              <path id="Trazado_996805" data-name="Trazado 996805" d="M321.694,178.493l-1.569-2.718a8.995,8.995,0,0,1-3.292,12.287l-4.869,2.811a1.124,1.124,0,0,1-1.536-.412L312,193.179a1.124,1.124,0,0,0,1.536.412l4.869-2.811A9,9,0,0,0,321.694,178.493Z" transform="translate(-310.428 -175.775)" fill="#465a61"/>
            </g>
          </g>
        </g>
      </g>
      <path id="Trazado_996806" data-name="Trazado 996806" d="M85.014,41.517a7.714,7.714,0,0,0-5.892-.776,7.874,7.874,0,0,0-.83.274,10.062,10.062,0,0,0-.359-6.272,10.036,10.036,0,0,0,.362-6.261,7.889,7.889,0,0,0,.827.273,7.8,7.8,0,0,0,2.022.268,7.768,7.768,0,1,0-7.686-8.917,10.063,10.063,0,0,0-5.615-2.829A10.035,10.035,0,0,0,62.6,13.833,7.763,7.763,0,0,0,54.556.692,1.018,1.018,0,1,0,55.4,2.545,5.722,5.722,0,1,1,52.544,5.4a1.018,1.018,0,0,0-1.854-.842,7.761,7.761,0,0,0,2.24,9.277,10.059,10.059,0,0,0-5.26,3.449,10.035,10.035,0,0,0-5.6,2.816,7.921,7.921,0,0,0-.177-.853,7.766,7.766,0,1,0-7.513,9.772,7.819,7.819,0,0,0,2.854-.541,10.063,10.063,0,0,0,.358,6.276,10.035,10.035,0,0,0-.362,6.261,7.888,7.888,0,0,0-.827-.273,7.768,7.768,0,1,0,5.664,8.649,10.061,10.061,0,0,0,5.615,2.829,10.035,10.035,0,0,0,5.246,3.445,7.764,7.764,0,1,0,9.6-.053,1.018,1.018,0,0,0-.8-1.828,8.023,8.023,0,0,1-1.716.185h-4.5a7.986,7.986,0,0,1-7.977-7.977V40.37a.106.106,0,0,1,.106-.106H58.6l-2.88,4.988a2.142,2.142,0,0,0,.784,2.927l4.869,2.811A9.986,9.986,0,0,0,65.3,52.277a1.017,1.017,0,0,0,1.72.868,10.113,10.113,0,0,0,.831-.923,10.163,10.163,0,0,0,1.12-.233A9.951,9.951,0,0,0,73.459,49.4a7.762,7.762,0,1,0,11.555-7.88ZM63.491,61.734a5.728,5.728,0,1,1-5.728-5.728A5.735,5.735,0,0,1,63.491,61.734ZM78.268,16.3a5.694,5.694,0,0,1,2.855-.77,5.756,5.756,0,0,1,1.492.2,5.728,5.728,0,1,1-6.443,8.4v0A5.734,5.734,0,0,1,78.268,16.3Zm-4.984,6.9,1.124,1.946h0l1.124,1.946a7.986,7.986,0,0,1-2.92,10.9l-4.869,2.811a.106.106,0,0,1-.145-.039l-5.476-9.485h5.759a2.145,2.145,0,0,0,2.142-2.142V23.505a9.955,9.955,0,0,0-.728-3.74,7.993,7.993,0,0,1,3.987,3.426ZM60.011,15.528a7.986,7.986,0,0,1,7.977,7.977v5.622a.107.107,0,0,1-.106.106H56.929l2.88-4.988a2.145,2.145,0,0,0-.784-2.927l-4.869-2.811a9.959,9.959,0,0,0-3.606-1.241,8,8,0,0,1,4.963-1.739ZM31.529,26.217a5.728,5.728,0,1,1,7.826-2.1v0a5.735,5.735,0,0,1-7.824,2.1Zm8.464.869,1.123-1.946v0h0l1.124-1.946a7.986,7.986,0,0,1,10.9-2.92l4.869,2.811a.107.107,0,0,1,.039.145L52.57,32.713l-2.88-4.988a2.142,2.142,0,0,0-2.927-.784l-4.869,2.811a9.958,9.958,0,0,0-2.876,2.5A7.993,7.993,0,0,1,39.993,27.086ZM37.257,53.2a5.728,5.728,0,1,1,2.1-7.825,5.735,5.735,0,0,1-2.1,7.825ZM45.5,40.371v5.622a9.955,9.955,0,0,0,.728,3.74,7.993,7.993,0,0,1-3.987-3.426l-2.249-3.895a7.986,7.986,0,0,1,2.92-10.9L47.782,28.7a.106.106,0,0,1,.145.039L53.4,38.228H47.644A2.145,2.145,0,0,0,45.5,40.371Zm10.253-2.142-2.009-3.479,2.009-3.479h4.018l2.009,3.479-2.009,3.479ZM68.44,50.023a8.082,8.082,0,0,1-1.185.224.984.984,0,0,0-.1.009,7.916,7.916,0,0,1-4.77-1.03l-4.869-2.811a.106.106,0,0,1-.039-.145l5.476-9.485,2.88,4.988a2.129,2.129,0,0,0,1.3,1,2.13,2.13,0,0,0,1.626-.214l4.869-2.811a9.954,9.954,0,0,0,2.876-2.5,7.993,7.993,0,0,1-.974,5.166l-1.124,1.947h0l-1.124,1.947a7.925,7.925,0,0,1-4.844,3.717Zm17.653,1.082A5.728,5.728,0,1,1,84,43.281a5.735,5.735,0,0,1,2.1,7.825Z" transform="translate(-10.553 -2.383)"/>
    </g>
  </g>
</svg>
