<svg xmlns="http://www.w3.org/2000/svg" xmlns:xlink="http://www.w3.org/1999/xlink" width="108" height="108" viewBox="0 0 108 108">
  <defs>
    <filter id="Trazado_982547" x="0" y="0" width="108" height="108" filterUnits="userSpaceOnUse">
      <feOffset dy="3" input="SourceAlpha"/>
      <feGaussianBlur stdDeviation="3" result="blur"/>
      <feFlood flood-opacity="0.161"/>
      <feComposite operator="in" in2="blur"/>
      <feComposite in="SourceGraphic"/>
    </filter>
  </defs>
  <g id="Grupo_1159800" data-name="Grupo 1159800" transform="translate(-715 -2135)">
    <g id="Grupo_1158929" data-name="Grupo 1158929" transform="translate(544 -570)">
      <g id="Grupo_1153182" data-name="Grupo 1153182" transform="translate(-83 2192)">
        <g id="Grupo_1149598" data-name="Grupo 1149598" transform="translate(80 315)">
          <g id="Grupo_1148770" data-name="Grupo 1148770" transform="translate(-27 -2583)">
            <g id="Grupo_1146954" data-name="Grupo 1146954" transform="translate(-415 -1202)">
              <g transform="matrix(1, 0, 0, 1, 616, 3983)" filter="url(#Trazado_982547)">
                <g id="Trazado_982547-2" data-name="Trazado 982547" transform="translate(9 6)" fill="#fef6e8">
                  <path d="M 45 88.5 C 39.12687683105469 88.5 33.43022537231445 87.35007476806641 28.06830024719238 85.08217620849609 C 22.88852500915527 82.89131164550781 18.23629951477051 79.75458526611328 14.2408504486084 75.75914764404297 C 10.24541282653809 71.76370239257812 7.108687400817871 67.11147308349609 4.917825222015381 61.93170166015625 C 2.649924993515015 56.56977462768555 1.5 50.87312316894531 1.5 45 C 1.5 39.12687683105469 2.649924993515015 33.43022537231445 4.917825222015381 28.06830024719238 C 7.108687400817871 22.88852500915527 10.24541282653809 18.23629951477051 14.2408504486084 14.2408504486084 C 18.23629951477051 10.24541282653809 22.88852500915527 7.108687400817871 28.06830024719238 4.917825222015381 C 33.43022537231445 2.649924993515015 39.12687683105469 1.5 45 1.5 C 50.87312316894531 1.5 56.56977462768555 2.649924993515015 61.93170166015625 4.917825222015381 C 67.11147308349609 7.108687400817871 71.76370239257812 10.24541282653809 75.75914764404297 14.2408504486084 C 79.75458526611328 18.23629951477051 82.89131164550781 22.88852500915527 85.08217620849609 28.06830024719238 C 87.35007476806641 33.43022537231445 88.5 39.12687683105469 88.5 45 C 88.5 50.87312316894531 87.35007476806641 56.56977462768555 85.08217620849609 61.93170166015625 C 82.89131164550781 67.11147308349609 79.75458526611328 71.76370239257812 75.75914764404297 75.75914764404297 C 71.76370239257812 79.75458526611328 67.11147308349609 82.89131164550781 61.93170166015625 85.08217620849609 C 56.56977462768555 87.35007476806641 50.87312316894531 88.5 45 88.5 Z" stroke="none"/>
                  <path d="M 45 3 C 39.32871246337891 3 33.82865524291992 4.110054016113281 28.65262985229492 6.299339294433594 C 23.65165710449219 8.414573669433594 19.15968322753906 11.44334411621094 15.301513671875 15.301513671875 C 11.44334411621094 19.15968322753906 8.414573669433594 23.65165710449219 6.299339294433594 28.65262985229492 C 4.110054016113281 33.82865524291992 3 39.32871246337891 3 45 C 3 50.67128753662109 4.110054016113281 56.17134475708008 6.299339294433594 61.34737396240234 C 8.414573669433594 66.34834289550781 11.44334411621094 70.84031677246094 15.301513671875 74.698486328125 C 19.15968322753906 78.55665588378906 23.65165710449219 81.58542633056641 28.65262985229492 83.70066070556641 C 33.82865524291992 85.88994598388672 39.32871246337891 87 45 87 C 50.67128753662109 87 56.17134475708008 85.88994598388672 61.34737396240234 83.70066070556641 C 66.34834289550781 81.58542633056641 70.84031677246094 78.55665588378906 74.698486328125 74.698486328125 C 78.55665588378906 70.84031677246094 81.58542633056641 66.34834289550781 83.70066070556641 61.34737396240234 C 85.88994598388672 56.17134475708008 87 50.67128753662109 87 45 C 87 39.32871246337891 85.88994598388672 33.82865524291992 83.70066070556641 28.65262985229492 C 81.58542633056641 23.65165710449219 78.55665588378906 19.15968322753906 74.698486328125 15.301513671875 C 70.84031677246094 11.44334411621094 66.34834289550781 8.414573669433594 61.34737396240234 6.299339294433594 C 56.17134475708008 4.110054016113281 50.67128753662109 3 45 3 M 45 0 C 69.85281372070312 0 90 20.14718627929688 90 45 C 90 69.85281372070312 69.85281372070312 90 45 90 C 20.14718627929688 90 0 69.85281372070312 0 45 C 0 20.14718627929688 20.14718627929688 0 45 0 Z" stroke="none" fill="#fdaf2f"/>
                </g>
              </g>
            </g>
          </g>
        </g>
      </g>
    </g>
    <g id="discriminacion" transform="translate(740 2157.004)">
      <g id="Grupo_1159798" data-name="Grupo 1159798" transform="translate(0.839 0.835)">
        <g id="Grupo_1159793" data-name="Grupo 1159793">
          <g id="Grupo_1159780" data-name="Grupo 1159780" transform="translate(0)">
            <path id="Trazado_996204" data-name="Trazado 996204" d="M14.239,25.6l-3.976-2.973L7.632,19.995a.448.448,0,0,1-.131-.316l.007-11.73A.447.447,0,0,1,7.955,7.5h3.871a.448.448,0,0,1,.286.1l.266.222,7.257,5.413Z" transform="translate(-7.501 -7.501)" fill="#ffbd86"/>
            <path id="Trazado_996205" data-name="Trazado 996205" d="M37.059,61.02l-1.682.087.08.538a2.387,2.387,0,0,1-.485,1.825l-.365.464a3.893,3.893,0,0,0-.845,2,.341.341,0,0,1-.183.261,2.454,2.454,0,0,0-1.367,2.03L34.1,70.108l.854-.847a2.579,2.579,0,0,0,1.707.758c.694.021.282-2.009.77-2.5l2.216-2.646A4.15,4.15,0,0,0,40.7,62.444l.886-3.608Z" transform="translate(-29.448 -53.097)" fill="#fcad77"/>
            <path id="Trazado_996206" data-name="Trazado 996206" d="M69.066,112.083l3.469,4a1.682,1.682,0,0,1,.395,1.757,1.62,1.62,0,0,1-.435.572A1.582,1.582,0,0,1,70.2,118.4l-3.638-3.6Z" transform="translate(-59.961 -100.391)" fill="#fed2a4"/>
            <g id="Grupo_1159777" data-name="Grupo 1159777" transform="translate(4.009 14.021)">
              <path id="Trazado_996207" data-name="Trazado 996207" d="M45.95,133.378l1.638.974.878,1.543a1.581,1.581,0,0,1,.415,1.507c-.067.268-.429.3-.638.508a1.208,1.208,0,0,1-1.9,0l-2.517-2.517a1.208,1.208,0,0,1,0-1.9c.112-.112.124-.315.256-.386a1.584,1.584,0,0,1,1.87.275Z" transform="translate(-43.359 -132.914)" fill="#fed2a4"/>
            </g>
            <path id="Trazado_996208" data-name="Trazado 996208" d="M46.122,138.628l-2.517-2.517a1.58,1.58,0,0,1-.414-1.506,1.582,1.582,0,0,0-.368,2.512l2.517,2.517a1.582,1.582,0,0,0,2.653-.732A1.584,1.584,0,0,1,46.122,138.628Z" transform="translate(-38.462 -120.395)" fill="#ffbd86"/>
            <g id="Grupo_1159778" data-name="Grupo 1159778" transform="translate(8.613 8.498)">
              <path id="Trazado_996209" data-name="Trazado 996209" d="M86.566,83.509l4.317,4.819a1.681,1.681,0,0,1,.391,1.763,1.645,1.645,0,0,1-.448.557,1.541,1.541,0,0,1-2.259-.037l-4.025-4.006Z" transform="translate(-84.542 -83.509)" fill="#fed2a4"/>
            </g>
            <path id="Trazado_996210" data-name="Trazado 996210" d="M110.112,58.841l9.445,9.444a1.686,1.686,0,0,1,.44,1.607c-.072.283-.34.4-.561.625a1.45,1.45,0,0,1-2.179,0l-7.89-8.292Z" transform="translate(-97.978 -53.101)" fill="#fed2a4"/>
            <g id="Grupo_1159779" data-name="Grupo 1159779" transform="translate(4.486 0.098)">
              <path id="Trazado_996211" data-name="Trazado 996211" d="M117.437,84.951l-8.614-8.64-.423,1.921,7.919,7.949a1.682,1.682,0,0,0,2.379,0,1.513,1.513,0,0,0,.44-.772,1.687,1.687,0,0,1-1.7-.457Z" transform="translate(-101.606 -68.716)" fill="#ffbd86"/>
              <path id="Trazado_996212" data-name="Trazado 996212" d="M88.925,106.832,84.889,102.8,83.883,103.8l4.036,4.036a1.681,1.681,0,0,0,2.77-.616A1.682,1.682,0,0,1,88.925,106.832Z" transform="translate(-79.83 -92.24)" fill="#ffbd86"/>
              <path id="Trazado_996213" data-name="Trazado 996213" d="M67.634,128.054,63.6,124.018l-1.013,1.017,4.036,4.036a1.7,1.7,0,0,0,2.385-.011,1.673,1.673,0,0,0,.39-.616A1.681,1.681,0,0,1,67.634,128.054Z" transform="translate(-60.914 -111.089)" fill="#ffbd86"/>
              <path id="Trazado_996214" data-name="Trazado 996214" d="M47.63,8.377A9.656,9.656,0,0,0,48.543,9a4,4,0,0,0,2.2.586,4.039,4.039,0,0,1,2.679,1.179l1.384,1.384a2.4,2.4,0,0,1,.666,2.111l-.811,4.609a3,3,0,0,1-.832,1.6L51,23.288a.811.811,0,0,1-1.147,0,2.3,2.3,0,0,1-.246-3.126l1.4-1.773a.224.224,0,0,0,.046-.171L50.7,15.845Z" transform="translate(-47.63 -8.377)" fill="#ffbd86"/>
            </g>
          </g>
          <g id="Grupo_1159784" data-name="Grupo 1159784" transform="translate(0 30.998)">
            <path id="Trazado_996215" data-name="Trazado 996215" d="M7.5,294.191l3.81-.56,4.924,12.554-4.914.709H7.948a.447.447,0,0,1-.447-.447V301.2l.335-.843L7.5,299.51Z" transform="translate(-7.501 -292.639)" fill="#c68d7a"/>
            <path id="Trazado_996216" data-name="Trazado 996216" d="M60.078,350.431l5.284.378a1.682,1.682,0,0,1,1.521.963,1.62,1.62,0,0,1,.1.712,1.582,1.582,0,0,1-1.632,1.612l-5.115.029Z" transform="translate(-54.2 -343.089)" fill="#d1a08f"/>
            <path id="Trazado_996217" data-name="Trazado 996217" d="M17.819,298.369l-1.128,1.251.436.324a2.387,2.387,0,0,1,.948,1.634l.07.587a3.893,3.893,0,0,0,.815,2.01.341.341,0,0,1,.055.313,2.454,2.454,0,0,0,.469,2.4h2.667l0-1.2a2.579,2.579,0,0,0,1.743-.671c.506-.476-1.221-1.62-1.222-2.311l-.3-3.437A4.151,4.151,0,0,0,21.4,296.8l-1.925-3.178Z" transform="translate(-15.664 -292.635)" fill="#bc7c63"/>
            <g id="Grupo_1159781" data-name="Grupo 1159781" transform="translate(4.555 10.619)">
              <path id="Trazado_996218" data-name="Trazado 996218" d="M49.772,380.21l1.847-.47,1.712.47a1.581,1.581,0,0,1,1.359.772c.142.237-.092.514-.092.811a1.208,1.208,0,0,1-1.346,1.346H49.693a1.208,1.208,0,0,1-1.346-1.346c0-.158-.135-.311-.092-.455A1.584,1.584,0,0,1,49.772,380.21Z" transform="translate(-48.247 -379.74)" fill="#d1a08f"/>
            </g>
            <g id="Grupo_1159782" data-name="Grupo 1159782" transform="translate(4.702 4)">
              <path id="Trazado_996219" data-name="Trazado 996219" d="M49.56,320.538l6.46.355a1.681,1.681,0,0,1,1.523.97,1.644,1.644,0,0,1,.077.711A1.541,1.541,0,0,1,56,324.145l-5.679.013Z" transform="translate(-49.56 -320.538)" fill="#d1a08f"/>
            </g>
            <path id="Trazado_996220" data-name="Trazado 996220" d="M41.582,293.625H54.938a1.686,1.686,0,0,1,1.447.825c.149.251.045.527.045.839a1.45,1.45,0,0,1-1.541,1.54l-11.443-.285Z" transform="translate(-37.772 -292.633)" fill="#d1a08f"/>
            <g id="Grupo_1159783" data-name="Grupo 1159783" transform="translate(0)">
              <path id="Trazado_996221" data-name="Trazado 996221" d="M63.414,301.884l-12.2-.018,1.059,1.657,11.22.021a1.682,1.682,0,0,0,1.682-1.682,1.513,1.513,0,0,0-.235-.857A1.687,1.687,0,0,1,63.414,301.884Z" transform="translate(-46.327 -299.189)" fill="#c68d7a"/>
              <path id="Trazado_996222" data-name="Trazado 996222" d="M62,333.366H56.295v1.423H62a1.681,1.681,0,0,0,1.523-2.394A1.682,1.682,0,0,1,62,333.366Z" transform="translate(-50.84 -327.069)" fill="#c68d7a"/>
              <path id="Trazado_996223" data-name="Trazado 996223" d="M61.99,363.394H56.283l0,1.436h5.707a1.7,1.7,0,0,0,1.679-1.694,1.673,1.673,0,0,0-.16-.712A1.681,1.681,0,0,1,61.99,363.394Z" transform="translate(-50.829 -353.74)" fill="#c68d7a"/>
              <path id="Trazado_996224" data-name="Trazado 996224" d="M52.709,391.972H49.15a1.58,1.58,0,0,1-1.358-.772,1.582,1.582,0,0,0,1.516,2.037h3.559a1.582,1.582,0,0,0,1.359-2.394A1.585,1.585,0,0,1,52.709,391.972Z" transform="translate(-43.228 -378.983)" fill="#c68d7a"/>
              <path id="Trazado_996225" data-name="Trazado 996225" d="M7.949,284.759h1.7a2.4,2.4,0,0,1,1.963,1.022l2.686,3.833a3,3,0,0,1,.543,1.72v3.993a.811.811,0,0,1-.811.811A2.3,2.3,0,0,1,11.65,294.1l-.267-2.24a.223.223,0,0,0-.089-.153l-1.926-1.43L7.5,289.484v-4.278a.447.447,0,0,1,.447-.447Z" transform="translate(-7.502 -284.759)" fill="#c68d7a"/>
            </g>
          </g>
          <g id="Grupo_1159788" data-name="Grupo 1159788" transform="translate(33.495)">
            <path id="Trazado_996226" data-name="Trazado 996226" d="M401.367,25.6l3.976-2.973,2.632-2.632a.448.448,0,0,0,.131-.316L408.1,7.948a.447.447,0,0,0-.447-.447h-3.871a.448.448,0,0,0-.286.1l-.266.222-7.257,5.413Z" transform="translate(-386.035 -7.501)" fill="#c68d7a"/>
            <path id="Trazado_996227" data-name="Trazado 996227" d="M400.5,61.02l1.682.087-.08.538a2.386,2.386,0,0,0,.485,1.825l.365.464a3.893,3.893,0,0,1,.845,2,.341.341,0,0,0,.183.261,2.454,2.454,0,0,1,1.367,2.03l-1.886,1.886-.854-.847a2.579,2.579,0,0,1-1.707.758c-.694.021-.282-2.009-.77-2.5l-2.215-2.646a4.15,4.15,0,0,1-1.052-2.432l-.886-3.608Z" transform="translate(-386.037 -53.097)" fill="#bc7c63"/>
            <path id="Trazado_996228" data-name="Trazado 996228" d="M391.581,112.083l-3.47,4a1.682,1.682,0,0,0-.395,1.757,1.62,1.62,0,0,0,.435.572,1.582,1.582,0,0,0,2.294-.014l3.638-3.6Z" transform="translate(-378.616 -100.391)" fill="#d1a08f"/>
            <g id="Grupo_1159785" data-name="Grupo 1159785" transform="translate(12.492 14.021)">
              <path id="Trazado_996229" data-name="Trazado 996229" d="M421.8,133.378l-1.638.974-.878,1.543a1.581,1.581,0,0,0-.415,1.507c.067.268.429.3.638.508a1.208,1.208,0,0,0,1.9,0l2.517-2.517a1.208,1.208,0,0,0,0-1.9c-.112-.112-.124-.315-.256-.386A1.584,1.584,0,0,0,421.8,133.378Z" transform="translate(-418.825 -132.914)" fill="#d1a08f"/>
            </g>
            <path id="Trazado_996230" data-name="Trazado 996230" d="M421.125,138.628l2.517-2.517a1.58,1.58,0,0,0,.414-1.506,1.582,1.582,0,0,1,.368,2.512l-2.517,2.517a1.582,1.582,0,0,1-2.653-.732A1.584,1.584,0,0,0,421.125,138.628Z" transform="translate(-406.714 -120.395)" fill="#c68d7a"/>
            <path id="Trazado_996231" data-name="Trazado 996231" d="M317.03,58.841l-9.445,9.444a1.686,1.686,0,0,0-.44,1.607c.072.283.34.4.561.625a1.45,1.45,0,0,0,2.179,0l7.89-8.292Z" transform="translate(-307.093 -53.101)" fill="#d1a08f"/>
            <path id="Trazado_996232" data-name="Trazado 996232" d="M309.261,84.951l8.614-8.64.423,1.921-7.919,7.949a1.682,1.682,0,0,1-2.379,0,1.513,1.513,0,0,1-.44-.772,1.687,1.687,0,0,0,1.7-.457Z" transform="translate(-307.508 -68.618)" fill="#c68d7a"/>
            <g id="Grupo_1159786" data-name="Grupo 1159786" transform="translate(6.625 8.498)">
              <path id="Trazado_996233" data-name="Trazado 996233" d="M371.156,83.509l-4.317,4.819a1.681,1.681,0,0,0-.391,1.763,1.645,1.645,0,0,0,.448.557,1.541,1.541,0,0,0,2.259-.037l4.025-4.006Z" transform="translate(-366.348 -83.509)" fill="#d1a08f"/>
            </g>
            <g id="Grupo_1159787" data-name="Grupo 1159787" transform="translate(6.725 0.098)">
              <path id="Trazado_996234" data-name="Trazado 996234" d="M369.012,106.832l4.036-4.036,1.006,1.006-4.036,4.036a1.681,1.681,0,0,1-2.77-.616A1.682,1.682,0,0,0,369.012,106.832Z" transform="translate(-367.248 -92.24)" fill="#c68d7a"/>
              <path id="Trazado_996235" data-name="Trazado 996235" d="M390.258,128.054l4.036-4.036,1.013,1.017-4.036,4.036a1.7,1.7,0,0,1-2.385-.011,1.672,1.672,0,0,1-.39-.616A1.681,1.681,0,0,0,390.258,128.054Z" transform="translate(-386.12 -111.089)" fill="#c68d7a"/>
              <path id="Trazado_996236" data-name="Trazado 996236" d="M401.784,8.377a9.654,9.654,0,0,1-.913.619,4,4,0,0,1-2.2.586,4.039,4.039,0,0,0-2.679,1.179l-1.384,1.384a2.4,2.4,0,0,0-.666,2.111l.811,4.609a3,3,0,0,0,.832,1.6l2.824,2.824a.811.811,0,0,0,1.147,0,2.3,2.3,0,0,0,.246-3.126l-1.4-1.773a.224.224,0,0,1-.046-.171l.351-2.373Z" transform="translate(-390.926 -8.377)" fill="#c68d7a"/>
            </g>
          </g>
          <g id="Grupo_1159792" data-name="Grupo 1159792" transform="translate(36.716 30.998)">
            <path id="Trazado_996237" data-name="Trazado 996237" d="M435.113,294.191l-3.81-.56-4.924,12.554,4.914.709h3.373a.447.447,0,0,0,.447-.447V301.2l-.335-.843.335-.849Z" transform="translate(-416.264 -292.639)" fill="#ffbd86"/>
            <path id="Trazado_996238" data-name="Trazado 996238" d="M397.085,350.431l-5.284.378a1.682,1.682,0,0,0-1.521.963,1.62,1.62,0,0,0-.1.712,1.582,1.582,0,0,0,1.632,1.612l5.115.029Z" transform="translate(-384.115 -343.089)" fill="#fed2a4"/>
            <path id="Trazado_996239" data-name="Trazado 996239" d="M436.183,298.369l1.128,1.251-.436.324a2.387,2.387,0,0,0-.948,1.634l-.07.587a3.893,3.893,0,0,1-.815,2.01.341.341,0,0,0-.055.313,2.454,2.454,0,0,1-.469,2.4h-2.667l0-1.2a2.579,2.579,0,0,1-1.743-.671c-.506-.476,1.221-1.62,1.222-2.311l.3-3.437a4.151,4.151,0,0,1,.975-2.464l1.925-3.178Z" transform="translate(-419.491 -292.635)" fill="#fcad77"/>
            <g id="Grupo_1159789" data-name="Grupo 1159789" transform="translate(7.805 10.619)">
              <path id="Trazado_996240" data-name="Trazado 996240" d="M410.684,380.21l-1.847-.47-1.712.47a1.581,1.581,0,0,0-1.359.772c-.142.237.092.514.092.811a1.208,1.208,0,0,0,1.346,1.346h3.559a1.208,1.208,0,0,0,1.346-1.346c0-.158.135-.311.092-.455A1.584,1.584,0,0,0,410.684,380.21Z" transform="translate(-405.721 -379.74)" fill="#fed2a4"/>
            </g>
            <g id="Grupo_1159790" data-name="Grupo 1159790" transform="translate(6.084 4)">
              <path id="Trazado_996241" data-name="Trazado 996241" d="M398.389,320.538l-6.46.355a1.681,1.681,0,0,0-1.523.97,1.644,1.644,0,0,0-.077.711,1.541,1.541,0,0,0,1.623,1.571l5.679.013Z" transform="translate(-390.326 -320.538)" fill="#fed2a4"/>
            </g>
            <path id="Trazado_996242" data-name="Trazado 996242" d="M352.176,293.625H338.82a1.685,1.685,0,0,0-1.447.825c-.149.251-.045.527-.045.839a1.45,1.45,0,0,0,1.54,1.54l11.443-.285Z" transform="translate(-337.138 -292.633)" fill="#fed2a4"/>
            <g id="Grupo_1159791" data-name="Grupo 1159791">
              <path id="Trazado_996243" data-name="Trazado 996243" d="M337.67,301.884l12.2-.018-1.059,1.657-11.22.021a1.682,1.682,0,0,1-1.682-1.682,1.514,1.514,0,0,1,.235-.857A1.687,1.687,0,0,0,337.67,301.884Z" transform="translate(-335.909 -299.189)" fill="#ffbd86"/>
              <path id="Trazado_996244" data-name="Trazado 996244" d="M391.3,333.366h5.707v1.423H391.3a1.681,1.681,0,0,1-1.523-2.394A1.682,1.682,0,0,0,391.3,333.366Z" transform="translate(-383.612 -327.069)" fill="#ffbd86"/>
              <path id="Trazado_996245" data-name="Trazado 996245" d="M391.311,363.394h5.707l0,1.436h-5.707a1.7,1.7,0,0,1-1.679-1.694,1.673,1.673,0,0,1,.16-.712A1.68,1.68,0,0,0,391.311,363.394Z" transform="translate(-383.623 -353.74)" fill="#ffbd86"/>
              <path id="Trazado_996246" data-name="Trazado 996246" d="M405.868,391.972h3.559a1.58,1.58,0,0,0,1.358-.772,1.582,1.582,0,0,1-1.516,2.037H405.71a1.582,1.582,0,0,1-1.359-2.394A1.585,1.585,0,0,0,405.868,391.972Z" transform="translate(-396.5 -378.983)" fill="#ffbd86"/>
              <path id="Trazado_996247" data-name="Trazado 996247" d="M445.714,284.759h-1.7a2.4,2.4,0,0,0-1.963,1.022l-2.686,3.833a3,3,0,0,0-.543,1.72v3.993a.811.811,0,0,0,.811.811,2.3,2.3,0,0,0,2.384-2.037l.267-2.24a.223.223,0,0,1,.089-.153l1.926-1.43,1.865-.794v-4.278A.447.447,0,0,0,445.714,284.759Z" transform="translate(-427.313 -284.759)" fill="#ffbd86"/>
            </g>
          </g>
        </g>
        <g id="Grupo_1159797" data-name="Grupo 1159797" transform="translate(13.177 9.859)">
          <g id="Grupo_1159796" data-name="Grupo 1159796">
            <path id="Trazado_996248" data-name="Trazado 996248" d="M227.339,266.258v-2.086l-1.283-8.528h-5.688l-1.283,8.528v2.086l4.127,8.575Z" transform="translate(-208.606 -237.76)" fill="#c68d7a"/>
            <path id="Trazado_996249" data-name="Trazado 996249" d="M219.084,264.172c.354.2.718.379,1.094.543a7.578,7.578,0,0,0,6.066,0c.376-.164.74-.347,1.094-.543v-8.528h-8.254v8.528Z" transform="translate(-208.606 -237.76)" fill="#bc7c63"/>
            <g id="Grupo_1159794" data-name="Grupo 1159794" transform="translate(0 28.498)">
              <path id="Trazado_996250" data-name="Trazado 996250" d="M154.058,381.783v7.187l-2.061.513h-2.1l-.838-.257-.839.257H140.8l-.967-.257-.71.257h-7.412l-.611-.257-1.066.257H125.36v-7.7a6.073,6.073,0,0,1,3.751-5.612l2.817-1.165,7.09,1.264.947.168.947-.168,7.09-1.264.5.207,1.8.958A6.072,6.072,0,0,1,154.058,381.783Z" transform="translate(-125.36 -372.275)" fill="#f2fbff"/>
              <path id="Trazado_996251" data-name="Trazado 996251" d="M184.737,350.578l-3.551.9a1.024,1.024,0,0,0-.469,1.721l4.685,4.64a.257.257,0,0,0,.362,0l3.1-3.1Z" transform="translate(-174.258 -350.578)" fill="#caefb1"/>
              <path id="Trazado_996252" data-name="Trazado 996252" d="M263.678,351.48l-3.551-.9L256,354.741l3.1,3.1a.257.257,0,0,0,.362,0l4.685-4.64A1.024,1.024,0,0,0,263.678,351.48Z" transform="translate(-241.394 -350.578)" fill="#caefb1"/>
              <path id="Trazado_996253" data-name="Trazado 996253" d="M334.454,381.783v7.187a.513.513,0,0,1-.513.513h-2.053l-.008-.021v-6.107c0-5.665-3.009-7.484-4-8.35l2.816,1.165A6.072,6.072,0,0,1,334.454,381.783Z" transform="translate(-305.243 -372.275)" fill="#dcf2f7"/>
            </g>
            <path id="Trazado_996254" data-name="Trazado 996254" d="M187.859,138.852a5.654,5.654,0,0,1-4.526,0,11,11,0,0,1-6.6-10.083v-3.983a8.862,8.862,0,1,1,17.724,0v3.983A11,11,0,0,1,187.859,138.852Z" transform="translate(-170.99 -113.661)" fill="#d1a08f"/>
            <path id="Trazado_996255" data-name="Trazado 996255" d="M176.439,109.317a2.088,2.088,0,0,1-3.205,1.626,2.17,2.17,0,0,1-.691-.784,2.673,2.673,0,0,1-.322-1.276c0-.014,0-.028,0-.042a.255.255,0,0,0-.263-.262h-.071a2.436,2.436,0,0,1-2.261-1.53.256.256,0,0,0-.4-.108,5.24,5.24,0,0,1-6.372,0,.257.257,0,0,0-.4.108,2.436,2.436,0,0,1-2.261,1.53l-.1,0a.254.254,0,0,0-.263.262c0,.014,0,.028,0,.042a2.69,2.69,0,0,1-.265,1.169,2.207,2.207,0,0,1-4.209-.726q0-.075,0-.151a2.465,2.465,0,0,1,.282-1.146.254.254,0,0,0-.052-.305,2.723,2.723,0,0,1,1.011-4.606.255.255,0,0,0,.171-.321,2.457,2.457,0,0,1-.128-.784,2.485,2.485,0,0,1,2.485-2.485h.073a.256.256,0,0,0,.265-.257h0a2.279,2.279,0,0,1,2.485-2.229,2.469,2.469,0,0,1,1.174.3.261.261,0,0,0,.358-.11,2.865,2.865,0,0,1,5.09,0,.26.26,0,0,0,.3.132.782.782,0,0,0,.1-.01c.35-.188.7-.051,1.127-.051a2.07,2.07,0,0,1,2.229,2.229h0a.256.256,0,0,0,.264.257h.074a2.485,2.485,0,0,1,2.485,2.485,2.459,2.459,0,0,1-.128.784.255.255,0,0,0,.171.321,2.424,2.424,0,0,1,1.9,2.34,2.715,2.715,0,0,1-.886,2.009.254.254,0,0,0-.052.305,2.464,2.464,0,0,1,.282,1.146Q176.443,109.247,176.439,109.317Z" transform="translate(-151.426 -95.681)" fill="#8abbd5"/>
            <g id="Grupo_1159795" data-name="Grupo 1159795" transform="translate(17.454 1.363)">
              <path id="Trazado_996256" data-name="Trazado 996256" d="M289.067,118.557a2.724,2.724,0,0,0-1.011-4.606.255.255,0,0,1-.171-.321,2.459,2.459,0,0,0,.128-.784,2.485,2.485,0,0,0-2.485-2.485h-.074a.256.256,0,0,1-.264-.257h0a2.279,2.279,0,0,0-2.485-2.229,2.469,2.469,0,0,0-1.174.3.275.275,0,0,1-.054.022,2.1,2.1,0,0,1,1.148,1.911h0a.256.256,0,0,0,.264.257h.074a2.485,2.485,0,0,1,2.485,2.485,2.457,2.457,0,0,1-.128.784.255.255,0,0,0,.171.321,2.723,2.723,0,0,1,1.011,4.606.254.254,0,0,0-.052.305,2.464,2.464,0,0,1,.282,1.145q0,.071,0,.141a2.061,2.061,0,0,1-.9,1.626,2.194,2.194,0,0,0,3.462-1.626q0-.07,0-.141a2.464,2.464,0,0,0-.282-1.145A.253.253,0,0,1,289.067,118.557Z" transform="translate(-281.477 -107.876)" fill="#6cabca"/>
            </g>
          </g>
        </g>
      </g>
      <g id="Grupo_1159799" data-name="Grupo 1159799" transform="translate(0 -0.004)">
        <path id="Trazado_996257" data-name="Trazado 996257" d="M14.473,287.7a2.51,2.51,0,0,0-.645-1.682,2.515,2.515,0,0,0,.5-2.526h3.629a2.522,2.522,0,0,0,2.521-2.521,2.523,2.523,0,0,0-2.521-2.52H11.221a.839.839,0,1,0,0,1.677h6.736a.845.845,0,0,1,.844.843.845.845,0,0,1-.844.844H7.678L6.5,280.129h.812a.839.839,0,1,0,0-1.677H5.271a3.238,3.238,0,0,0-2.329-.992H.839a.839.839,0,1,0,0,1.677h2.1a1.56,1.56,0,0,1,1.277.664L6.9,283.634a2.148,2.148,0,0,1,.391,1.238v4.078a1.466,1.466,0,0,1-1.524-1.293l-.279-2.448a.839.839,0,0,0-.333-.578l-1.011-.751-.006,0-.986-.732a.838.838,0,0,0-1,1.347l.063.047a5.723,5.723,0,0,1-1.573.632.838.838,0,1,0,.386,1.632,7.418,7.418,0,0,0,2.622-1.2l.214.159.237,2.078a3.045,3.045,0,0,0,.776,1.745,2.424,2.424,0,0,0-.313,2.126H.839a.839.839,0,1,0,0,1.677H10.43a2.42,2.42,0,0,0,2.265-3.277A2.525,2.525,0,0,0,14.473,287.7Zm-2.521.844H8.972v-1.687h2.98a.844.844,0,0,1,0,1.687Zm.844-4.208a.845.845,0,0,1-.844.844H8.972v-.307a3.82,3.82,0,0,0-.258-1.38h3.238a.844.844,0,0,1,.844.844ZM10.43,291.71H6.871a.744.744,0,0,1-.563-1.231,3.487,3.487,0,0,0,1.015.149,1.641,1.641,0,0,0,1.081-.407H10.43a.744.744,0,0,1,0,1.489Z" transform="translate(0 -246.439)"/>
        <path id="Trazado_996258" data-name="Trazado 996258" d="M348.482,291.711h-3.728a2.422,2.422,0,0,0-.313-2.124,3.031,3.031,0,0,0,.775-1.738l.238-2.086.214-.159a7.418,7.418,0,0,0,2.622,1.2.838.838,0,0,0,.386-1.632,5.724,5.724,0,0,1-1.573-.632l.063-.047a.838.838,0,1,0-1-1.347l-.986.732-.006,0-1.012.751a.838.838,0,0,0-.333.578l-.28,2.456a1.465,1.465,0,0,1-1.523,1.285v-4.078a2.148,2.148,0,0,1,.391-1.239L345.1,279.8a1.56,1.56,0,0,1,1.277-.664h2.1a.839.839,0,0,0,0-1.677h-2.1a3.238,3.238,0,0,0-2.329.992H331.365a2.521,2.521,0,1,0,0,5.041h3.629a2.515,2.515,0,0,0,.5,2.526,2.519,2.519,0,0,0,1.133,4.091,2.42,2.42,0,0,0,2.265,3.277h9.591a.839.839,0,0,0,0-1.677Zm-17.961-10.737a.845.845,0,0,1,.844-.844h11.461l-1.182,1.687H331.365A.844.844,0,0,1,330.521,280.973Zm10.086,2.521a3.82,3.82,0,0,0-.258,1.38v.307h-2.98a.844.844,0,0,1,0-1.687Zm-3.238,3.364h2.98v1.687h-2.98a.844.844,0,0,1,0-1.687Zm.778,4.109a.745.745,0,0,1,.744-.744h2.026a1.641,1.641,0,0,0,1.081.407,3.49,3.49,0,0,0,1.014-.149.744.744,0,0,1-.562,1.231h-3.559A.745.745,0,0,1,338.147,290.966Z" transform="translate(-292.079 -246.44)"/>
        <path id="Trazado_996259" data-name="Trazado 996259" d="M379.21,419.83a.839.839,0,0,0-.7.957,5.264,5.264,0,0,1,.062.8v7.7a.839.839,0,0,0,1.677,0v-7.7a6.944,6.944,0,0,0-.081-1.056A.838.838,0,0,0,379.21,419.83Z" transform="translate(-336.183 -372.884)"/>
        <path id="Trazado_996260" data-name="Trazado 996260" d="M39.825,42.313l-1.933-.8a1.861,1.861,0,0,0-.018-.917,1.842,1.842,0,0,0-1.339-1.316l-2.919-.741V35.271a11.814,11.814,0,0,0,2.04-1.95.839.839,0,1,0-1.3-1.064,10.185,10.185,0,0,1-3.782,2.859,4.81,4.81,0,0,1-3.854,0,10.162,10.162,0,0,1-6.007-7.971,3.072,3.072,0,0,0,2.236-1.716,3.5,3.5,0,0,0,.313-1.026A3.259,3.259,0,0,0,25.528,23,6.079,6.079,0,0,0,31.8,23a3.259,3.259,0,0,0,2.239,1.4,3.517,3.517,0,0,0,.387,1.172,3.059,3.059,0,0,0,2.161,1.57,10.109,10.109,0,0,1-.457,1.943.838.838,0,1,0,1.586.543,11.784,11.784,0,0,0,.578-2.66,2.9,2.9,0,0,0,1.859-2.592,3.313,3.313,0,0,0-.2-1.327,3.538,3.538,0,0,0,.86-2.32,3.579,3.579,0,0,0-1.7-3.031L40.4,16.423a2.5,2.5,0,0,0,2.14,1.432,2.519,2.519,0,0,0,3.694,2.094,2.42,2.42,0,0,0,3.916.716l6.877-6.877A.839.839,0,1,0,55.837,12.6l-2.732,2.732a2.424,2.424,0,0,0-1.8-1.294,3.044,3.044,0,0,0-.684-1.844l-1.228-1.561.039-.265a7.4,7.4,0,0,0,5.287-3.717A.839.839,0,0,0,53.273,5.8a5.733,5.733,0,0,1-3.579,2.8l.012-.079a.838.838,0,1,0-1.659-.246l-.18,1.215V9.5l-.184,1.247a.838.838,0,0,0,.17.641l1.462,1.859a1.465,1.465,0,0,1-.168,1.986l-2.8-2.8a2.148,2.148,0,0,1-.6-1.152l-.811-4.609a1.56,1.56,0,0,1,.433-1.372L46.748,3.91a3.193,3.193,0,0,1,2.123-.934,5.733,5.733,0,0,0,3.648-1.527A.839.839,0,0,0,51.376.221,4.053,4.053,0,0,1,48.8,1.3a4.867,4.867,0,0,0-3.235,1.424L44.178,4.108a3.238,3.238,0,0,0-.946,2.348l-7.285,7.262a3.325,3.325,0,0,0-4.289-2.323,3.708,3.708,0,0,0-6.016,0,3.325,3.325,0,0,0-4.288,2.32l-1.989-1.962a.838.838,0,1,0-1.178,1.194l1.5,1.478a3.34,3.34,0,0,0-1.026,1.38l-5.268-5.268.357-2.029,1.668,1.668A.839.839,0,1,0,16.6,8.99L14.07,6.456a3.238,3.238,0,0,0-.946-2.348L11.74,2.724A4.867,4.867,0,0,0,8.506,1.3,4.054,4.054,0,0,1,5.926.221.839.839,0,1,0,4.785,1.45,5.733,5.733,0,0,0,8.432,2.976a3.192,3.192,0,0,1,2.122.934l1.384,1.384a1.56,1.56,0,0,1,.433,1.372l-.811,4.609a2.149,2.149,0,0,1-.6,1.152l-2.8,2.8a1.465,1.465,0,0,1-.168-1.986l1.462-1.859a.838.838,0,0,0,.17-.641L9.256,8.278A.838.838,0,1,0,7.6,8.524l.012.079A5.735,5.735,0,0,1,4.03,5.8a.839.839,0,0,0-1.446.849A7.4,7.4,0,0,0,7.87,10.37l.039.265L6.682,12.2A3.042,3.042,0,0,0,6,14.039a2.424,2.424,0,0,0-1.8,1.294L1.466,12.6A.839.839,0,0,0,.28,13.787l6.877,6.877a2.415,2.415,0,0,0,3.917-.717,2.515,2.515,0,0,0,3.694-2.093,2.5,2.5,0,0,0,2.14-1.431L18.183,17.7a3.579,3.579,0,0,0-1.7,3.031,3.538,3.538,0,0,0,.86,2.32,3.311,3.311,0,0,0-.2,1.341,2.892,2.892,0,0,0,1.858,2.587,11.828,11.828,0,0,0,4.677,8.3v3.267l-2.919.741A1.842,1.842,0,0,0,19.428,40.6a1.861,1.861,0,0,0-.018.917l-1.933.8a6.89,6.89,0,0,0-4.27,6.387v7.7a.839.839,0,0,0,1.677,0V48.7a5.218,5.218,0,0,1,3.234-4.837l2.3-.952,4.361,4.32a.839.839,0,0,0,1.183,0l1.848-1.848V56.4a.839.839,0,0,0,1.677,0V45.379l1.848,1.848a.839.839,0,0,0,1.183,0l4.361-4.319,2.3.952a5.179,5.179,0,0,1,1.6,1.043.839.839,0,1,0,1.157-1.214,6.858,6.858,0,0,0-2.122-1.378Zm4.084-31.776-5.268,5.268a3.34,3.34,0,0,0-1.027-1.381l5.938-5.919Zm-2.084,4.8a.838.838,0,0,1,.247-.6l2.29-2.29a3.823,3.823,0,0,0,.793,1.158l.217.217-2.107,2.107a.843.843,0,0,1-1.44-.6Zm2.626,2.975a.844.844,0,0,1,0-1.193l2.107-2.107,1.193,1.193-2.107,2.107a.844.844,0,0,1-1.193,0Zm7.243-1.881a.739.739,0,0,1-.218.526L48.96,19.479a.744.744,0,1,1-1.053-1.053h0l1.533-1.533a1.637,1.637,0,0,0,.873-.456,3.5,3.5,0,0,0,.568-.743.745.745,0,0,1,.813.741ZM9.4,19.479a.744.744,0,0,1-1.053,0L5.827,16.963h0a.744.744,0,0,1,.6-1.266,3.507,3.507,0,0,0,.569.743,1.637,1.637,0,0,0,.873.456L9.4,18.426A.745.745,0,0,1,9.4,19.479Zm3.456-1.162a.844.844,0,0,1-1.193,0L9.551,16.21l1.193-1.193,2.107,2.107A.844.844,0,0,1,12.851,18.317Zm2.626-2.975a.844.844,0,0,1-1.44.6L11.93,13.831l.217-.217a3.822,3.822,0,0,0,.793-1.158l2.29,2.29A.837.837,0,0,1,15.477,15.342Zm3.345,8.848a1.638,1.638,0,0,1,.254-.874.839.839,0,0,0-.19-1.1,1.885,1.885,0,0,1,.779-3.328.839.839,0,0,0,.591-1.17,1.713,1.713,0,0,1-.151-.684,1.649,1.649,0,0,1,1.647-1.647,1.666,1.666,0,0,1,.225.018.839.839,0,0,0,.951-.876,1.645,1.645,0,0,1,2.583-1.334.839.839,0,0,0,1.257-.379,2.027,2.027,0,0,1,3.767,0,.839.839,0,0,0,1.257.379,1.645,1.645,0,0,1,2.583,1.333.838.838,0,0,0,.951.877,1.666,1.666,0,0,1,.225-.018A1.649,1.649,0,0,1,37.2,17.028a1.63,1.63,0,0,1-.151.684.839.839,0,0,0,.591,1.17,1.885,1.885,0,0,1,.779,3.328.839.839,0,0,0-.19,1.1,1.639,1.639,0,0,1,.251.969,1.258,1.258,0,0,1-1.021,1.192,1.391,1.391,0,0,1-1.557-.7,1.822,1.822,0,0,1-.221-.877,1.84,1.84,0,0,1,.016-.228.839.839,0,0,0-.954-.932,1.614,1.614,0,0,1-.235.02,1.593,1.593,0,0,1-1.554-1.229.838.838,0,0,0-1.371-.434,4.4,4.4,0,0,1-5.835,0,.838.838,0,0,0-1.371.434,1.578,1.578,0,0,1-1.8,1.207.839.839,0,0,0-.963.932,1.823,1.823,0,0,1,.017.231,1.842,1.842,0,0,1-.182.806,1.4,1.4,0,0,1-1.568.787,1.283,1.283,0,0,1-1.051-1.3Zm7.231,12.464a6.489,6.489,0,0,0,5.2,0q.35-.153.69-.329v2.523l-3.288,3.317-3.288-3.317V36.324q.339.175.69.329Zm-.684,8.8-4.274-4.233a.186.186,0,0,1,.085-.312l3.086-.784,3.2,3.23Zm6.565,0-2.1-2.1,3.2-3.23,3.086.784a.186.186,0,0,1,.085.312Z" transform="translate(-0.03 0.004)"/>
        <path id="Trazado_996261" data-name="Trazado 996261" d="M232.924,266.865a.838.838,0,0,0,.831,1.457,2.784,2.784,0,0,1,2.746,0,.838.838,0,0,0,.831-1.457A4.467,4.467,0,0,0,232.924,266.865Z" transform="translate(-206.507 -236.513)"/>
        <path id="Trazado_996262" data-name="Trazado 996262" d="M168.049,430.273a.838.838,0,0,0-.839.839v7.46a.839.839,0,0,0,1.677,0v-7.46A.839.839,0,0,0,168.049,430.273Z" transform="translate(-148.516 -382.168)"/>
        <path id="Trazado_996263" data-name="Trazado 996263" d="M330.63,430.273a.838.838,0,0,0-.838.839v7.46a.839.839,0,1,0,1.677,0v-7.46A.839.839,0,0,0,330.63,430.273Z" transform="translate(-292.921 -382.168)"/>
      </g>
    </g>
  </g>
</svg>
