<svg xmlns="http://www.w3.org/2000/svg" xmlns:xlink="http://www.w3.org/1999/xlink" width="662" height="402" viewBox="0 0 662 402">
  <defs>
    <clipPath id="clip-path">
      <rect id="Rectángulo_409697" data-name="Rectángulo 409697" width="270" height="140" transform="translate(136 1230)" fill="#fff" stroke="#707070" stroke-width="1" opacity="0.44"/>
    </clipPath>
    <clipPath id="clip-path-2">
      <rect id="Rectángulo_409698" data-name="Rectángulo 409698" width="258" height="167" transform="translate(447.269 1230)" fill="#fff" stroke="#707070" stroke-width="1" opacity="0.61"/>
    </clipPath>
    <clipPath id="clip-path-3">
      <path id="Trazado_994438" data-name="Trazado 994438" d="M665.688-61.53l30.33-35.908-42.495,20.99-6.266-59.468L624.374-82.064,583.683-99.552l24.035,41.631L567.455-37.314l40.154,4.367L601.1,8.52,631.261-25.7,648.468,4l1.854-28.781L689.914-10.5l-20.4-28.07,40.676-6.467Z" transform="translate(-567.455 135.916)"/>
    </clipPath>
    <clipPath id="clip-path-4">
      <rect id="Rectángulo_409700" data-name="Rectángulo 409700" width="79" height="122" transform="translate(136 1507)" fill="#fff" stroke="#707070" stroke-width="1"/>
    </clipPath>
    <clipPath id="clip-path-5">
      <rect id="Rectángulo_409699" data-name="Rectángulo 409699" width="610" height="319" transform="translate(180 1313)" fill="#fff" stroke="#707070" stroke-width="1" opacity="0.5"/>
    </clipPath>
    <filter id="Trazado_994425" x="36.264" y="164.653" width="626.736" height="296.681" filterUnits="userSpaceOnUse">
      <feOffset dy="3" input="SourceAlpha"/>
      <feGaussianBlur stdDeviation="3" result="blur"/>
      <feFlood flood-opacity="0.161"/>
      <feComposite operator="in" in2="blur"/>
      <feComposite in="SourceGraphic"/>
    </filter>
    <clipPath id="clip-path-6">
      <path id="Trazado_994568" data-name="Trazado 994568" d="M575.341,310.472c.4,5.391,2.66,10.867,6.962,14.238,6.817,5.341,16.753,4.118,24.5.526,11.965-5.547,21.786-17.4,21.071-30.6-.733-13.536-15.9-31.974-30.931-26.028C583.264,274.017,574.359,297.093,575.341,310.472Z" transform="translate(-575.268 -267.458)"/>
    </clipPath>
  </defs>
  <g id="Grupo_1161780" data-name="Grupo 1161780" transform="translate(-136 -1230)">
    <g id="Enmascarar_grupo_1098745" data-name="Enmascarar grupo 1098745" clip-path="url(#clip-path)">
      <g id="Grupo_1159216" data-name="Grupo 1159216" transform="translate(87.922 1203.775)">
        <path id="Trazado_994427" data-name="Trazado 994427" d="M147.1-24.451a26.708,26.708,0,0,0-2.945-7.57C136.8-44.578,120.361-47.8,105.881-49.25c-43.94-4.4-88.6-4.1-131.914,4.5-6.676,1.327-13.637,3.011-18.679,7.584-4.266,3.869-6.652,9.371-8.457,14.84-14.142,42.842,1.2,91.358,40.656,114.554C1.756,100.618,21.265,102.4,34.147,92c19.38-15.639,17.188-48.362,37.72-60.876,14.608-8.9,34.081-1.777,50.244-7.384,14.526-5.04,24-20.119,25.6-35.411A39.294,39.294,0,0,0,147.1-24.451Z" transform="translate(94.404 59.939)" fill="#fee6bf"/>
        <path id="Trazado_994439" data-name="Trazado 994439" d="M135.374,36.124c.911-5.418,2.572-12.827-1.493-17.391-5.622-6.31-9.655.773-11.361,6.189-1.451,4.6-7.587,2.578-7.711-1.639-.2-6.689,1.494-19.051-3.707-24.446-6.217-6.451-11.2,6.1-12.6,10.391-1.6,4.919-8.817,2.23-7.5-2.647C92.6.695,94.357-14.254,86.49-16.987c-4.089-1.42-6.839,3.793-8.619,6.641C75.406-6.4,73.042-2.388,70.629,1.59c-2.655,4.376-9.166-.185-6.522-4.544,5.161-8.505,12.958-27.384,26.132-21.115,6.2,2.95,8.933,9.261,9.712,16.08A11.621,11.621,0,0,1,112.5-9.811c7.579,3.178,9.53,11.829,10.026,20.334,3.455-2.607,7.823-3.376,12.934-.544,9.875,5.469,9.464,17.085,7.833,26.779C142.455,41.774,134.525,41.171,135.374,36.124Z" transform="translate(88.093 58.555)" fill="#ff4622"/>
        <path id="Trazado_994444" data-name="Trazado 994444" d="M210,4.7a11.56,11.56,0,0,0,16.348,0,11.56,11.56,0,0,0,0-16.348,11.56,11.56,0,0,0-16.348,0A11.56,11.56,0,0,0,210,4.7Z" transform="translate(80.679 58.021)" fill="none" stroke="#000" stroke-linecap="round" stroke-linejoin="round" stroke-miterlimit="10" stroke-width="3"/>
        <circle id="Elipse_11664" data-name="Elipse 11664" cx="58.679" cy="58.679" r="58.679" transform="translate(0 82.984) rotate(-45)" fill="#ffbd42"/>
        <path id="Trazado_994447" data-name="Trazado 994447" d="M-9.491,40.584c11.26-4.321,23.784-.762,32.133,7.206C25.665,36.366,31.789,26,44.8,24.266c20.527-2.733,29,19.127,32.314,35.209,1.492,7.234-9.553,10.662-11.054,3.378-1.975-9.58-5.573-28.144-18.962-27.266-12.954.849-14.737,18.832-15.54,28.362-.5,5.979-9.583,8.706-11.3,1.849C17.65,55.431,6.341,47.6-4.383,51.014-14.858,54.352-20.176,67.98-15.5,77.734c3.189,6.649-6.6,12.806-9.814,6.106C-32.872,68.077-26.57,47.139-9.491,40.584Z" transform="translate(92.857 55.998)" fill="#00a47d"/>
        <circle id="Elipse_11665" data-name="Elipse 11665" cx="8.761" cy="8.761" r="8.761" transform="translate(129.294 113.796) rotate(-45)" fill="none" stroke="#000" stroke-linecap="round" stroke-linejoin="round" stroke-miterlimit="10" stroke-width="1"/>
        <path id="Trazado_994448" data-name="Trazado 994448" d="M84.692,26.5a5.476,5.476,0,1,0,5.476-5.476A5.476,5.476,0,0,0,84.692,26.5Z" transform="translate(86.995 56.154)" fill="#0073cc"/>
        <path id="Trazado_994688" data-name="Trazado 994688" d="M208.005-6.912a4.756,4.756,0,0,0,6.726,0,4.756,4.756,0,0,0,0-6.726,4.756,4.756,0,0,0-6.726,0A4.756,4.756,0,0,0,208.005-6.912Z" transform="translate(72.679 83.021)" fill="none" stroke="#000" stroke-linecap="round" stroke-linejoin="round" stroke-miterlimit="10" stroke-width="1"/>
      </g>
    </g>
    <g id="Grupo_1159226" data-name="Grupo 1159226">
      <g id="Enmascarar_grupo_1098746" data-name="Enmascarar grupo 1098746" transform="translate(92.731)" clip-path="url(#clip-path-2)">
        <g id="Grupo_1159218" data-name="Grupo 1159218" transform="translate(458.32 1201.781)">
          <g id="Grupo_1159217" data-name="Grupo 1159217" transform="translate(0)">
            <path id="Trazado_994426" data-name="Trazado 994426" d="M645.132-60.873c-.56-2.628-1.2-5.232-1.883-7.794-1.753-6.568-3.867-13.237-8.11-18.548-12.2-15.27-45.307-13.442-62.675-15.212a706.959,706.959,0,0,0-74.9-4.029c-21.206.1-42.088,2.527-63.181,4.247-16.289,1.328-33.108,9.093-33.565,28.244a26.806,26.806,0,0,0,9.638,21.4c9.058,7.215,21.752,7.038,33.321,6.517l33.413-1.5c2.966-.133,6.042-.249,8.787.883,6.827,2.814,8.46,11.451,11.486,18.186,7.6,16.912,30.622,24.726,46.945,15.934,10.494-5.653,19.511-17.187,31.29-15.363,12.087,1.873,17.419,16.554,27.942,22.79,13.839,8.2,32.875-1.632,39.562-16.263C648.789-33.609,647.97-47.554,645.132-60.873Z" transform="translate(-400.814 123.741)" fill="#fee6bf"/>
            <path id="Trazado_994428" data-name="Trazado 994428" d="M665.688-61.53l30.33-35.908-42.495,20.99-6.266-59.468L624.374-82.064,583.683-99.552l24.035,41.631L567.455-37.314l40.154,4.367L601.1,8.52,631.261-25.7,648.468,4l1.854-28.781L689.914-10.5l-20.4-28.07,40.676-6.467Z" transform="translate(-469.698 135.916)" fill="#ffbd42"/>
            <g id="Grupo_1159162" data-name="Grupo 1159162" transform="translate(97.758)">
              <g id="Grupo_1159161" data-name="Grupo 1159161" clip-path="url(#clip-path-3)">
                <path id="Trazado_994429" data-name="Trazado 994429" d="M617.814-148.7C660.327-82.119,720.291-26.9,754.967,44.073" transform="translate(-588.272 141.199)" fill="none" stroke="#fff" stroke-miterlimit="10" stroke-width="1.335"/>
                <path id="Trazado_994430" data-name="Trazado 994430" d="M585.738-130.57A1748.589,1748.589,0,0,1,723.594,49.7" transform="translate(-575.013 133.706)" fill="none" stroke="#fff" stroke-miterlimit="10" stroke-width="1.335"/>
                <path id="Trazado_994431" data-name="Trazado 994431" d="M556.1-107.7q72.85,87.124,141.587,177.579" transform="translate(-562.763 124.253)" fill="none" stroke="#fff" stroke-miterlimit="10" stroke-width="1.335"/>
                <path id="Trazado_994432" data-name="Trazado 994432" d="M532.73-83.083c8.685,14.639,19.99,27.519,31.224,40.306L666.984,74.475" transform="translate(-553.101 114.077)" fill="none" stroke="#fff" stroke-miterlimit="10" stroke-width="1.335"/>
                <path id="Trazado_994433" data-name="Trazado 994433" d="M666.392-107.275c-63.8,28.55-114.49,80.19-175.941,113.5" transform="translate(-535.624 124.077)" fill="none" stroke="#fff" stroke-miterlimit="10" stroke-width="1.335"/>
                <path id="Trazado_994434" data-name="Trazado 994434" d="M704.068-104.024Q611.148-46.554,520.946,15.164" transform="translate(-548.23 122.733)" fill="none" stroke="#fff" stroke-miterlimit="10" stroke-width="1.335"/>
                <path id="Trazado_994435" data-name="Trazado 994435" d="M717.906-78.263c-8.851,9.092-19.573,16.1-30.2,23.04L543.186,39.1" transform="translate(-557.423 112.084)" fill="none" stroke="#fff" stroke-miterlimit="10" stroke-width="1.335"/>
                <path id="Trazado_994436" data-name="Trazado 994436" d="M742.018-51.851,573.052,57.268" transform="translate(-569.769 101.167)" fill="none" stroke="#fff" stroke-miterlimit="10" stroke-width="1.335"/>
                <path id="Trazado_994437" data-name="Trazado 994437" d="M767.119-28.524A981.2,981.2,0,0,0,619.989,81.332" transform="translate(-589.171 91.524)" fill="none" stroke="#fff" stroke-miterlimit="10" stroke-width="1.335"/>
              </g>
            </g>
            <path id="Trazado_994440" data-name="Trazado 994440" d="M555.39-49.394c-3.955,5.349-7.479,11.059-11.1,16.635-3.18,4.895-6.434,10.678-4.623,16.706,1.482,4.934,6.062,8.279,10.913,9.462,5.581,1.361,11.316-.484,16-3.559,5.442-3.577,9.466-8.73,13.763-13.524,10.008-11.166,21.179-9.693,18.673-27.636-.915-6.523-6.245-10.531-12.321-12.071C574.176-66.554,562.557-59.088,555.39-49.394Zm26.864-9.594c5.041.333,11.118,2.811,11.8,8.479.626,5.227-2.54,9.774-5.662,13.736-6.5,3.286-11.621,9.653-16.533,15.114-5.776,6.421-17.587,15.889-25.652,7.079-3.963-4.328-1.126-9.986,1.488-14.2,2.985-4.807,6.16-9.531,9.328-14.219C562.87-51.66,570.941-59.736,582.254-58.988Z" transform="translate(-457.995 106.239)" fill="#00a47d"/>
            <circle id="Elipse_11663" data-name="Elipse 11663" cx="27.475" cy="27.475" r="27.475" transform="translate(178.714 112.338)" fill="#ff4622"/>
            <path id="Trazado_994441" data-name="Trazado 994441" d="M596.588,30a5.762,5.762,0,1,0,5.762-5.762A5.762,5.762,0,0,0,596.588,30Z" transform="translate(-481.74 69.713)" fill="none" stroke="#000" stroke-linecap="round" stroke-linejoin="round" stroke-miterlimit="10" stroke-width="3"/>
            <path id="Trazado_994442" data-name="Trazado 994442" d="M738.838,99.963a4.265,4.265,0,1,0,.032-6A4.242,4.242,0,0,0,738.838,99.963Z" transform="translate(-540.034 41.412)" fill="none" stroke="#000" stroke-linecap="round" stroke-linejoin="round" stroke-miterlimit="10" stroke-width="1"/>
            <path id="Trazado_994445" data-name="Trazado 994445" d="M608.36,61.089a2.584,2.584,0,1,0,2.584-2.584A2.584,2.584,0,0,0,608.36,61.089Z" transform="translate(-486.606 55.55)" fill="none" stroke="#000" stroke-linecap="round" stroke-linejoin="round" stroke-miterlimit="10" stroke-width="1"/>
            <path id="Trazado_994446" data-name="Trazado 994446" d="M735.72,158.8c7.625,2.63,17.707,4.707,24.008-1.866,6.147-6.414,1.946-15.114-2.8-20.89a2.223,2.223,0,0,0-3.759.652,34.027,34.027,0,0,0-4.783-2.408c-4.434-1.836-9.45-3.713-14.255-4.144-7.911-.709-13.88,4.678-13.37,12.717C721.287,151.162,728.466,156.3,735.72,158.8Zm-10.514-19.34c1.143-4.444,5.294-5.65,9.472-5.025a52.314,52.314,0,0,1,11.577,3.514c3.964,1.6,7.617,3.7,10.128,7.259a1.882,1.882,0,0,0,1.782.854,10.014,10.014,0,0,1,.5,2.991c.027,4.43-3.845,7.265-7.9,7.917-4.272.686-8.862-.512-12.909-1.856-3.805-1.264-7.686-3.07-10.319-6.2A10.759,10.759,0,0,1,725.206,139.465Z" transform="translate(-533.056 25.961)" fill="#0073cc"/>
          </g>
        </g>
      </g>
    </g>
    <g id="Grupo_1159227" data-name="Grupo 1159227">
      <g id="Enmascarar_grupo_1098748" data-name="Enmascarar grupo 1098748" transform="translate(0 1)" clip-path="url(#clip-path-4)">
        <g id="Grupo_1159224" data-name="Grupo 1159224" transform="translate(-10)">
          <circle id="Elipse_11664-2" data-name="Elipse 11664" cx="49.756" cy="49.756" r="49.756" transform="translate(60.515 1571.827) rotate(-45)" fill="#ffbd42"/>
          <path id="Trazado_994447-2" data-name="Trazado 994447" d="M-18.832,32.437c5.718-2.194,12.077-.387,16.317,3.659C-.98,30.3,2.13,25.031,8.735,24.151c10.423-1.388,14.726,9.713,16.409,17.879.757,3.673-4.851,5.414-5.613,1.716-1-4.865-2.83-14.292-9.629-13.846-6.578.431-7.483,9.563-7.891,14.4-.256,3.036-4.866,4.421-5.74.939C-5.05,39.977-10.793,36-16.238,37.734c-5.319,1.695-8.02,8.615-5.644,13.568,1.619,3.376-3.352,6.5-4.983,3.1C-30.7,46.4-27.5,35.766-18.832,32.437Z" transform="translate(154.786 1504.29)" fill="#00a47d"/>
        </g>
      </g>
      <g id="Enmascarar_grupo_1098747" data-name="Enmascarar grupo 1098747" clip-path="url(#clip-path-5)">
        <g id="Grupo_1159223" data-name="Grupo 1159223" transform="translate(2169.15 -1101.317)">
          <g transform="matrix(1, 0, 0, 1, -2033.15, 2331.32)" filter="url(#Trazado_994425)">
            <path id="Trazado_994425-2" data-name="Trazado 994425" d="M-29.223,350.077q2.015,40.163,4.03,80.326C-24.268,448.836-22.632,469-9.838,482.3c7.268,7.557,17.217,11.815,26.88,15.882,15.2,6.394,30.558,12.838,46.81,15.6,18.117,3.082,36.651,1.481,55.02.925,41.548-1.258,83.1,2.882,124.659,2.3,84.475-1.18,167.345-21.782,251.2-32.089,36.856-4.53,71.18-17.917,76.311-59.038q2.809-22.513,5.618-45.027c3.087-24.744,5.724-51.717-7.423-72.9-8.8-14.184-23.8-23.746-39.746-28.675a97.089,97.089,0,0,0-70.576,5.5c-7.5,3.673-14.651,8.374-22.8,10.223-22.117,5.022-42.445-11.74-61.02-24.752-42.921-30.066-101.981-43.94-148-18.867-22.982,12.522-45.08,34.642-70.656,29.085-18.486-4.017-33.146-22.3-52-20.774-15.378,1.241-28.231,15.76-43.545,13.892-6.856-.836-12.81-4.891-18.917-8.114-14.293-7.543-50.524-18.708-64.044-4.687-2.513,2.606-3.859,6.122-4.738,9.635-3.315,13.254-.454,26.717-1.6,40.115A287.468,287.468,0,0,0-29.223,350.077Z" transform="translate(74.83 -67.73)" fill="#fee6bf"/>
          </g>
          <path id="Trazado_994443" data-name="Trazado 994443" d="M-1.151,251.528a5.79,5.79,0,1,0,0-8.188A5.789,5.789,0,0,0-1.151,251.528Z" transform="translate(-1965.392 2262.723)" fill="#0073cc"/>
          <path id="Trazado_994449" data-name="Trazado 994449" d="M2.915,311.222c-.979.871-1.94,1.764-2.925,2.628-5.386,4.731-11.4,9.33-18.871,7.039-6.068-1.861-10.382-7.479-11.845-13.588-2.109-8.809,2.17-17.348,6.423-24.777,3.79-6.619,14.507-1.647,10.672,5.051-2.391,4.175-5.533,8.927-5.844,13.876-.449,7.117,4.582,9.324,9.758,5.183,7.5-6,14.483-12.882,21.479-19.468,5.444-5.125,13.786,1.357,9.019,7.672a29.061,29.061,0,0,0-6.175,17.75c.012,1.719.088,5.875,1.069,7.337,2.632,3.928,6.582.883,9.458-.816A56.655,56.655,0,0,0,46.493,296C50,289.181,60.7,294.177,57.165,301.05a71.727,71.727,0,0,1-17.054,21.872c-6.441,5.53-16.273,12.66-25.222,10.77C4.327,331.462,1.768,321.614,2.915,311.222Z" transform="translate(-1957.869 2252.733)" fill="#ff4622"/>
          <path id="Trazado_994450" data-name="Trazado 994450" d="M9.237,267.2a20.876,20.876,0,0,0,0-41.752" transform="translate(-1968.589 2267.007)" fill="none" stroke="#000" stroke-linecap="round" stroke-linejoin="round" stroke-miterlimit="10" stroke-width="3"/>
          <g id="Grupo_1159177" data-name="Grupo 1159177" transform="translate(-1638.297 2474.834)">
            <path id="Trazado_994451" data-name="Trazado 994451" d="M510.3,310.5c-2.081-2.567-1.787-6.43-2-10.5-.355-6.807-.032-13.648-.835-20.43a2.99,2.99,0,0,0-.63-1.783,2.321,2.321,0,0,0-1.58-.593c-2.79-.129-5.033,2.127-6.988,4.121-3.517,3.588-6.892,2.851-11.191,4.524-4.7,1.827-9.913,1.946-13.927,5.4-8.033,6.91-4.8,23.038-16.087,26.012-3.02.8-10.636,1.959-11.268,2.244a21.022,21.022,0,0,0,1.263,4.74,31.724,31.724,0,0,0,5.211,9.236,31.166,31.166,0,0,0,22.881,11.092c10.536.518,20.205-.566,29.133-6.767A40.343,40.343,0,0,0,520.3,314.433c-.17.627-5.63-1.38-6.12-1.526A7.567,7.567,0,0,1,510.3,310.5Z" transform="translate(-445.791 -221.516)" fill="#703e24"/>
            <path id="Trazado_994452" data-name="Trazado 994452" d="M498.14,241.783c2.851-5.519,3.564-12.387.766-17.933-7.6-15.076-33.911-12.2-38.5,3.7a4.52,4.52,0,0,1-.8,1.833,6.628,6.628,0,0,1-2.075,1.177,5.2,5.2,0,0,0-2.534,5.1c.069.752,1.18,2.507.974,3.061-.252.682-2.35,1.316-2.862,2.339a5.118,5.118,0,0,0,.157,4.628,6.763,6.763,0,0,0,3.6,3.031c-.971-.366-.41,3.457-.2,3.815.594.993,1.992,1.768,2.89,2.512,2.368,1.964,4.831,4.066,7.757,5.152,7.13,2.645,18.031-2.319,22.923-7.5A46.729,46.729,0,0,0,498.14,241.783Z" transform="translate(-447.6 -204.784)"/>
            <path id="Trazado_994453" data-name="Trazado 994453" d="M513.521,249.7a34.685,34.685,0,0,0-15.2-24.027c-9.238-6.024-24.085-9.23-31.956.6-4.821,6.022-4.1,12.171-4.409,19.226-.607,13.908-3.194,33.531,11.566,41.29,7.958,4.183,18.158,3.147,25.621-1.866C510.785,277.107,515.655,263.133,513.521,249.7Z" transform="translate(-449.921 -206.38)" fill="#703e24"/>
            <path id="Trazado_994454" data-name="Trazado 994454" d="M521.278,242.437a6.685,6.685,0,0,0-1.551-.7c3.329-1.754,6.114-3.943,4.858-8.552a7.576,7.576,0,0,0-6.848-5.426c.371.013.271-12.929-7.736-10.347a7.976,7.976,0,0,0-13.559-7.9,11.232,11.232,0,0,0-21.416-.37,10.3,10.3,0,0,0-13.007.342c-2.26,2.056-3.257,6.123-.835,7.985-2.536-1.266-6.043-.99-7.7,1.307s-.038,6.37,2.792,6.218c-2.651.321-3.826,4.045-2.347,6.267.856,1.286,3.181,3,4.859,2.806,1.173-.134,3.36-2.248,1.9-3.494a3.876,3.876,0,0,0,6.388-3.184,7.258,7.258,0,0,0,6.229,3.1,7.257,7.257,0,0,0,5.9-3.693c.9,3.291,4.2,5.559,7.584,5.954a15.464,15.464,0,0,0,9.7-2.6q-.108,6.44-.215,12.88a4.234,4.234,0,0,0,.341,2.149c1.286,2.316,3.392-.367,4.944.429,1.3.666,1.911,3.18,2.318,4.417.743,2.259,1.018,6.239,2.5,8.525a2.341,2.341,0,0,0-.079.246c-.506,2.375-.529,5.055.817,7.179a4.806,4.806,0,0,0,3.517,2.233c2.556.869,4.867-1.284,5.1-3.888a5.127,5.127,0,0,0,2.521.032c2.781-.65,3.917-3.414,4.028-6.022a10.92,10.92,0,0,0-1.11-5.169,5.662,5.662,0,0,0,3.3-6.186A6.881,6.881,0,0,0,521.278,242.437Z" transform="translate(-447.649 -201.486)"/>
            <path id="Trazado_994455" data-name="Trazado 994455" d="M517.475,258.5c.385-1.812,1.986-3.29,3.33-4.441a6.505,6.505,0,0,1,8.838-.164,8.941,8.941,0,0,1,2.872,8.553,9.4,9.4,0,0,1-6.058,6.745c-1.988.68-4.419.588-5.918-.885a8.2,8.2,0,0,1-1.658-2.9c-.681-1.7-1.6-4.493-1.485-6.339A3.805,3.805,0,0,1,517.475,258.5Z" transform="translate(-464.733 -214.922)" fill="#703e24"/>
            <path id="Trazado_994456" data-name="Trazado 994456" d="M530.94,259.58c-5.163-2.473-7.833,1.454-7.529,4.1" transform="translate(-466.321 -216.648)" fill="none" stroke="#000" stroke-linecap="round" stroke-linejoin="round" stroke-miterlimit="10" stroke-width="1"/>
            <path id="Trazado_994457" data-name="Trazado 994457" d="M519.8,253.622a14.632,14.632,0,0,0-4.568,8.564" transform="translate(-464.163 -215.28)" fill="none" stroke="#000" stroke-linecap="round" stroke-linejoin="round" stroke-miterlimit="10" stroke-width="1"/>
            <path id="Trazado_994458" data-name="Trazado 994458" d="M490,272.961c1.792-3.437,10.96-1.789,6.2,1.907a5.381,5.381,0,0,1-4.375.937,3.127,3.127,0,0,1-1.808-1.024,1.5,1.5,0,0,1-.058-1.842" transform="translate(-457.4 -219.898)" fill="#703e24"/>
            <path id="Trazado_994459" data-name="Trazado 994459" d="M465.03,272.595c-1.215-.3-2.31-.623-3.457-1,0,.06-.008.12-.01.179-.033.944-.031,1.889-.011,2.833.013.6.038,1.2.06,1.8.081.027.161.054.242.076a7.654,7.654,0,0,0,3.713.064c.964-.225,1.441-.718,1.56-1.285A2.612,2.612,0,0,0,465.03,272.595Z" transform="translate(-449.957 -220.034)" fill="#703e24"/>
            <path id="Trazado_994460" data-name="Trazado 994460" d="M476.368,290.615a4.909,4.909,0,0,0,2.92-3.162,1.68,1.68,0,0,0-.372-1.689,2,2,0,0,0-.86-.35,18.31,18.31,0,0,0-7.57-.085c-2.552.509-5.864,1.045-3.076,4.069C469.718,291.9,473.429,291.9,476.368,290.615Z" transform="translate(-451.23 -223.575)" fill="#fff"/>
            <path id="Trazado_994461" data-name="Trazado 994461" d="M475.308,256.232a21.822,21.822,0,0,1-.724,6.648,28.982,28.982,0,0,1-2.332,4.913c-.432.867-.889,1.946-.332,2.738a2.18,2.18,0,0,0,1.348.755,12.245,12.245,0,0,0,2.88.185l4.393-.065" transform="translate(-452.636 -215.97)" fill="none" stroke="#000" stroke-linecap="round" stroke-linejoin="round" stroke-miterlimit="10" stroke-width="1"/>
            <path id="Trazado_994462" data-name="Trazado 994462" d="M494.455,260.363a2.425,2.425,0,1,1-2.534-2.311A2.425,2.425,0,0,1,494.455,260.363Z" transform="translate(-457.384 -216.451)"/>
            <path id="Trazado_994463" data-name="Trazado 994463" d="M466.849,259.118a2.425,2.425,0,1,1-2.534-2.311A2.425,2.425,0,0,1,466.849,259.118Z" transform="translate(-450.08 -216.122)"/>
            <path id="Trazado_994464" data-name="Trazado 994464" d="M499.341,255.24a6.5,6.5,0,0,0-8.313-.866" transform="translate(-457.759 -215.183)" fill="none" stroke="#000" stroke-linecap="round" stroke-linejoin="round" stroke-miterlimit="10" stroke-width="1"/>
            <path id="Trazado_994465" data-name="Trazado 994465" d="M459.491,254.037A6.681,6.681,0,0,1,468.9,255.2" transform="translate(-449.416 -215.012)" fill="none" stroke="#000" stroke-linecap="round" stroke-linejoin="round" stroke-miterlimit="10" stroke-width="1"/>
            <path id="Trazado_994466" data-name="Trazado 994466" d="M502.1,261.624c-.1-3.41.572-6.817.565-10.258a2,2,0,0,0-.275-1.228,1.323,1.323,0,0,0-1.436-.362,3.04,3.04,0,0,0-1.264.913,13.543,13.543,0,0,0-2.67,4.827c-1.722,5.01-1.819,10.455-3.443,15.5-.388,1.2-1.044,3.3-2.337,3.788-1.565.593-4.356-.146-5.983-.325-7.512-.828-15.067-1.808-22.6-1.339q-.493.031-.986.07a21.413,21.413,0,0,0-.854-4.76c.018.06-.833,2.1-.9,2.443-1.571,7.888,1.192,16.734,8,21.4,7.052,4.835,17.438,2.6,23.773-2.472a27.646,27.646,0,0,0,8.582-12.421,50.9,50.9,0,0,0,1.679-7.6A37.037,37.037,0,0,0,502.1,261.624Zm-25.132,24.432a7.113,7.113,0,0,0-3.09-2.681,7.317,7.317,0,0,0-7.29.789c-1.542-1.617-3.042-5.322-.368-6.437a6.582,6.582,0,0,1,2.576-.333l3.94.016a9.616,9.616,0,0,1,3.784.525,4.863,4.863,0,0,1,2.726,3.124,4.763,4.763,0,0,1,.182,1.531A4.18,4.18,0,0,1,476.967,286.056Z" transform="translate(-449.413 -214.243)"/>
          </g>
          <path id="Trazado_994467" data-name="Trazado 994467" d="M475.843,354.138c6.609-.549,14.15-2.77,19.447-6.762,5.611-4.229,11.968-10.232,13.082-17.17a304.072,304.072,0,0,0,49.743,10.036c-.809-.1-16.633,22.1-17.8,24.331-4.282,8.214-5.194,20.426-7.147,29.473q-6.787,31.442-10.67,63.418c-1.546,12.737-2.759,25.606-6.448,37.9-2.25,7.5-5.767,15.152-12.363,19.368-5.255,3.359-11.742,4.065-17.973,4.339a170.1,170.1,0,0,1-29.211-1.232c-7.181-.926-14.668-2.481-20.147-7.215-9.555-8.256-9.692-22.754-9.115-35.37,1.12-24.466,2.053-48.983.994-73.469-.231-5.35-6.6-64.619-8.738-63.993a301.351,301.351,0,0,1,30.211-7.179c1.755,2.546,2.025,5.757,3.164,8.6C456.452,348.138,466.054,355.008,475.843,354.138Z" transform="translate(-2077.133 2239.293)" fill="#fff"/>
          <g id="Grupo_1159178" data-name="Grupo 1159178" transform="translate(-1672.205 2613.063)">
            <path id="Trazado_994468" data-name="Trazado 994468" d="M536.993,400.831c-1.54-5.6-8.677-10.809-14.653-8.32-19.041,7.932-39.291,9.338-59.659,7.326a166,166,0,0,1-26.406-4.563c-6.907-1.835-22.065-11.671-25.7-.777C407,405.2,422.654,413.526,430.4,416.753c10.083,4.2,21.5,5.63,32.285,6.726,22.13,2.249,45.281.564,65.992-8C534.615,413.028,538.848,407.58,536.993,400.831Z" transform="translate(-402.427 -389.444)" fill="#ff86a1"/>
            <path id="Trazado_994469" data-name="Trazado 994469" d="M518.576,470.824a10.347,10.347,0,0,0-1.47-5.435c-3.219-4.894-9.453-6.88-14.733-3.863-1.928,1.1-7.191,1.4-9.813,1.766-3.49.489-7.015.783-10.533.975a153.627,153.627,0,0,1-21.745-.359,177.12,177.12,0,0,1-20.523-3.151c-3.826-.8-7.632-1.7-11.45-2.535-3.795-.83-7.9-.663-11.59-1.755-6.3-1.865-9.805,7.051-4.39,10.413,3.838,2.383,6.781,5.539,10.957,7.5a102.817,102.817,0,0,0,11.447,4.608,128.446,128.446,0,0,0,26.383,5.42,139.014,139.014,0,0,0,25.09.5c8.557-.6,19.285-.891,27.037-4.787A10.538,10.538,0,0,0,518.576,470.824Z" transform="translate(-402.323 -407.109)" fill="#ff86a1"/>
            <path id="Trazado_994470" data-name="Trazado 994470" d="M504.937,518.647c-4.856-1.5-9.355.087-14.217.685a125.053,125.053,0,0,1-13.5.85,205.061,205.061,0,0,1-25.348-1.412c-8.444-.93-16.791-2.491-25.2-3.678-3.543-.5-7.048-1.208-10.564-1.858-2.054-.38-4.1-.864-6.162-1.2a7.887,7.887,0,0,0-4.163,0q-3.518,1.527-.439.118c-4.41-.563-6.675,4.769-5.226,8.249.049.329.111.735.2,1.264a7.824,7.824,0,0,0,2.014,3.455,25.38,25.38,0,0,0,5.142,4.386c3.981,2.62,8.613,3.979,13.186,5.145,9.613,2.453,19.579,3.837,29.4,5.13a189.639,189.639,0,0,0,28.963,1.8c9.644-.215,22.7.115,30.274-6.406C515.194,530.108,511.578,520.7,504.937,518.647Z" transform="translate(-399.685 -421.803)" fill="#ff9787"/>
          </g>
          <path id="Trazado_994471" data-name="Trazado 994471" d="M450.886,339.827c.8,10.967,8.346,20.94,18.325,25.556s21.972,4.092,31.967-.491,18.008-12.963,23.084-22.717" transform="translate(-2085.437 2236.747)" fill="none" stroke="#000" stroke-linecap="round" stroke-linejoin="round" stroke-miterlimit="10" stroke-width="1"/>
          <path id="Trazado_994472" data-name="Trazado 994472" d="M403.916,503.984c-.011-7.8-1.552-9.408-1.564-17.205.616-.166.932,1.011.315,1.175q-2.044-65.569-.2-131.181a152.422,152.422,0,0,1,1.605-21.159c.549-3.242.79-6.547,1.573-9.745a19.918,19.918,0,0,1,1.547-4.295c.6-1.189,1.3-2.847,2.546-3.454.655-.32,1.377-.474,2.05-.752a11.972,11.972,0,0,0,3.067-2.427c1.937-1.7,5.405-10.27,5.444-12.9a3.475,3.475,0,0,1-2.582-.253c-5.406-2.595-10.836-5.143-16.333-7.539a199.835,199.835,0,0,0-33.253-11.557c-18.623-4.45-38.817-5.069-56.985,1.664-14.507,5.376-28.482,11.336-37.13,25.01a44.457,44.457,0,0,0-6.489,18.186c-.486,3.847-.762,7.995,1.155,11.366,3.379,5.941,11.53,6.6,18.364,6.539,13.573-.115,27.779-1.512,41.227-.929,3.417.148,40.182,7.387,40.182,8.2-1.552,22.721-7.438,44.889-11.418,67.314A545.02,545.02,0,0,0,348.888,491c-.283,6.514.171,6.551,6.191,8.521a106.924,106.924,0,0,0,16.026,3.795C373.86,503.767,403.92,506.305,403.916,503.984Z" transform="translate(-2036.833 2252.755)" fill="#e64f2e"/>
          <path id="Trazado_994473" data-name="Trazado 994473" d="M581.423,336.421a45.782,45.782,0,0,1,13.589,5.913c7.855,5.416,10.6,15.643,11.909,25.094a156.585,156.585,0,0,1,1.461,19.651c.073,6.617.8,14.5-4.527,19.293-4.432,3.989-11.042,5.219-16.752,5.967q-13.226,1.734-26.576,2.195L552.605,514.6a4.457,4.457,0,0,1-.784,2.631,4.411,4.411,0,0,1-2.775,1.141,181.354,181.354,0,0,1-40.941,1.637q3.719-48.852,9.469-97.521c2.546-21.549,5.952-43.019,7.857-64.621.954-10.81.042-22.655,3.513-32.937.382-1.13,32.788,6.98,35.687,7.649C569.878,333.792,575.776,334.828,581.423,336.421Z" transform="translate(-2100.575 2240.716)" fill="#e64f2e"/>
          <path id="Trazado_994474" data-name="Trazado 994474" d="M374.779,383.219a97.144,97.144,0,0,0,16.146-14.3" transform="translate(-2065.301 2229.05)" fill="none" stroke="#000" stroke-linecap="round" stroke-linejoin="round" stroke-miterlimit="10" stroke-width="1"/>
          <path id="Trazado_994475" data-name="Trazado 994475" d="M578.71,440.029q1.845-14.161,2.469-28.446" transform="translate(-2119.255 2217.762)" fill="none" stroke="#000" stroke-linecap="round" stroke-linejoin="round" stroke-miterlimit="10" stroke-width="1"/>
          <path id="Trazado_994476" data-name="Trazado 994476" d="M461.921,310.808c-14.074,8.666-20.742,24.96-23.749,40.744-1.394,7.316-2.931,14.627-4.71,21.865-.328,1.333,6.645,4.357,6.877,6.408a7.1,7.1,0,0,1-5.864,7.543,323.107,323.107,0,0,1,11.3,33.694" transform="translate(-2080.824 2244.425)" fill="none" stroke="#000" stroke-linecap="round" stroke-linejoin="round" stroke-miterlimit="10" stroke-width="1"/>
          <path id="Trazado_994477" data-name="Trazado 994477" d="M534.318,325.693c1.077,1.725,4.922,6.77,5.866,8.571,4.407,8.4,5.734,18.15,5.247,27.623-.455,8.847-1.436,17.63-2.492,26.419a.836.836,0,0,1-.172.5.826.826,0,0,1-.7.143c-2.906-.315-6.069-1.343-8.586.142a5.947,5.947,0,0,0-2.418,6.428c.591,2.472,2.4,4.174,4.33,5.65-6.253,8.347-10.323,19.082-15.015,28.509" transform="translate(-2103.823 2240.487)" fill="none" stroke="#000" stroke-linecap="round" stroke-linejoin="round" stroke-miterlimit="10" stroke-width="1"/>
          <path id="Trazado_994478" data-name="Trazado 994478" d="M699.584,401.752c-.834-7.3-4.745-13.844-9.266-19.68q-.52-.671-1.049-1.33c-9.39-11.692-22.723-24.524-36.517-30.813-16.247-7.407-37.272-5.147-54.509-4.068-2.93.183-6.049.435-8.386,2.211-3.593,2.731-3.99,7.942-3.616,12.439.493,5.928,1.846,11.954,5.224,16.849,4.588,6.648,12.349,10.414,20.129,12.582s15.891,3.026,23.613,5.394c18.656,5.72,31.647,35.481,54.361,26.114C696.881,418.436,700.481,409.61,699.584,401.752Z" transform="translate(-2121.218 2235.465)" fill="#e64f2e"/>
          <g id="Grupo_1159183" data-name="Grupo 1159183" transform="translate(-1854.238 2464.568)">
            <g id="Grupo_1159180" data-name="Grupo 1159180" transform="translate(0 79.603)">
              <path id="Trazado_994479" data-name="Trazado 994479" d="M194.41,299.17c1.238,3,4.831,5.591,7.451,6.989a28.642,28.642,0,0,0,10.883,3.078c4.237.385,8.652.072,12.474-1.8a14.041,14.041,0,0,0,5.663-4.962,12.089,12.089,0,0,0,1.509-4.6,36.19,36.19,0,0,1,11.855-.631c3.946.456,7.837,1.306,11.787,1.721,6.339.666,12.746,1.65,18.537,4.311,4.407,2.026,9.449,5.507,11.615,10.028,1.965,4.1.116,11.277-.1,15.783-.655,13.583-1.95,27.13-3.579,40.63a74.472,74.472,0,0,1-2.984,15.115c-4.379,12.883-15.268,22.954-27.84,28.157s-26.667,5.9-40.136,3.97a67.209,67.209,0,0,1-18.977-5.268c-11.2-5.231-20.125-14.706-25.907-25.634s-8.574-23.256-9.469-35.587a124.733,124.733,0,0,1,.566-23.871c.77-6.424,1.174-13.983,6.49-18.448a38.6,38.6,0,0,1,14.349-7.2,75.817,75.817,0,0,1,7.917-1.769c.6-.1,7.571-1.044,7.589-.967A5.98,5.98,0,0,0,194.41,299.17Z" transform="translate(-153.409 -296.096)" fill="#00a47d"/>
              <path id="Trazado_994480" data-name="Trazado 994480" d="M268.572,329.21h12.445c.6-8.663,14.2-12.131,13.992-20.913-4.876-2.145-2.6-8.341-7.778-9.573-7.286-1.732-35.413-3.263-42.9-2.9-3.573.171-7.117.744-10.663,1.2a.425.425,0,0,0-.213.068.444.444,0,0,0-.1.381c.143,3.124-1.6,6.2-3.824,8.274a21.793,21.793,0,0,1-8.379,4.847A28.757,28.757,0,0,1,202.5,309.53c-5.3-2.042-10.489-5.906-11.619-11.476a144.232,144.232,0,0,0-32.61,4.774,125.067,125.067,0,0,0-5.78,47.577c0,15.625,3.624,32.068,4.473,47.912l2.869,53.577a4.871,4.871,0,0,0,.991,3.263,4.792,4.792,0,0,0,2.421,1.068,228.165,228.165,0,0,0,100.454.289,10.359,10.359,0,0,0,4.4-1.75,5.415,5.415,0,0,0,.469-.458V329.21Z" transform="translate(-152.165 -295.766)" fill="#00a47d"/>
            </g>
            <g id="Grupo_1159181" data-name="Grupo 1159181" transform="translate(38.179)">
              <path id="Trazado_994481" data-name="Trazado 994481" d="M271.736,234.416c-2.68-.252-5.5-1.028-7.251-3.07a8.3,8.3,0,0,1-1.344-7.621,15.509,15.509,0,0,1,4.38-6.661c3.525-3.4,7.1-3.249,11.206-.916,2.561,1.454,5.46,3.408,6.4,6.367C287.7,230.649,278.292,235.033,271.736,234.416Z" transform="translate(-219.607 -194.649)"/>
              <path id="Trazado_994482" data-name="Trazado 994482" d="M207.555,283.023a5.535,5.535,0,0,0-.647,1.747c-.2,1.588,1.008,2.984,2.215,4.035,9.673,8.427,25.224,9.138,35.626,1.628q2.614-19.615,5.228-39.231a3.03,3.03,0,0,0-2.728-4.221c-7-1.712-13.976-3.537-21-5.138-6.1-1.391-7.871-1.094-8.638,5.055C216.033,259.566,213.32,271.523,207.555,283.023Z" transform="translate(-204.822 -201.716)" fill="#ff9869"/>
              <path id="Trazado_994483" data-name="Trazado 994483" d="M268.84,247.726c-1.6,5.843-4.087,11.554-8.1,16.093s-9.689,7.815-15.742,8.056c-9.844.391-18.634-7.418-22.067-16.652a32.891,32.891,0,0,1,1.636-26.3c5.536-10.628,27.368-29.465,40.441-22.1C275.806,212.914,271.414,238.333,268.84,247.726Z" transform="translate(-208.54 -192.193)" fill="#ff9869"/>
              <path id="Trazado_994484" data-name="Trazado 994484" d="M206,230.069a43.289,43.289,0,0,1-.073-6.421c.311-5.683,1.213-11.551,4.346-16.3a21.8,21.8,0,0,1-6.2,2.236,23.9,23.9,0,0,1,6.655-8.279c.632-.5,8.021-5.6,8.385-5.194l-3.837-4.333a22.793,22.793,0,0,1,7.258.421,6.848,6.848,0,0,1,3.487,1.922.789.789,0,0,0,.364.222.807.807,0,0,0,.559-.188c11.607-7.52,26.3-9.4,38.431-1.64a14.539,14.539,0,0,0-4.624,3.739c.847-1.039,6.534,1.58,7.45,2.067a20.666,20.666,0,0,1,6.47,5.447c3.315,4.194,5.328,10.056,4.057,15.389.416-1.746-5.32-4.8-6.449-5.569.935,1.951.045,6.172-.375,8.3a25.455,25.455,0,0,1-3.585,8.894q-3.922-4.577-8.235-8.8a19.123,19.123,0,0,1-.227,4.409,23.222,23.222,0,0,1-10.228-12.408c.156.443-2.277,3.35-2.716,3.832a19.483,19.483,0,0,1-5.144,3.836c-3.32,1.752-7.926,2.535-11.627,3.017a8.805,8.805,0,0,0-4.071,1.155,7.476,7.476,0,0,0-1.764,2.019c-4.2,6.272-8.149,13.074-10.033,20.437.51-1.994-4.613-6.967-5.579-8.791A24.734,24.734,0,0,1,206,230.069Z" transform="translate(-204.079 -187.527)"/>
              <circle id="Elipse_11666" data-name="Elipse 11666" cx="10.411" cy="10.411" r="10.411" transform="translate(3.784 54.365) rotate(-80.706)" fill="#ff9869"/>
              <path id="Trazado_994485" data-name="Trazado 994485" d="M255.235,293.631a20.24,20.24,0,0,1-18.165-3.45" transform="translate(-212.807 -214.686)" fill="none" stroke="#000" stroke-linecap="round" stroke-linejoin="round" stroke-miterlimit="10" stroke-width="1"/>
              <path id="Trazado_994486" data-name="Trazado 994486" d="M233.354,236.57c2.231,1.347,4.649,6.51,3.748,8.955" transform="translate(-211.824 -200.502)" fill="none" stroke="#000" stroke-linecap="round" stroke-linejoin="round" stroke-miterlimit="10" stroke-width="1"/>
              <path id="Trazado_994487" data-name="Trazado 994487" d="M222.2,241.829a7.131,7.131,0,0,1,6.3,7.868" transform="translate(-208.872 -201.894)" fill="none" stroke="#000" stroke-linecap="round" stroke-linejoin="round" stroke-miterlimit="10" stroke-width="1"/>
              <path id="Trazado_994488" data-name="Trazado 994488" d="M266.9,244.514a16.153,16.153,0,0,0-1.469,5.783c0,2.543,1.2,4.974,1.192,7.517a4.182,4.182,0,0,1-.7,2.517c-1.172,1.566-3.722,1.122-4.983-.071" transform="translate(-219.124 -202.604)" fill="none" stroke="#000" stroke-linecap="round" stroke-linejoin="round" stroke-miterlimit="10" stroke-width="1"/>
              <path id="Trazado_994489" data-name="Trazado 994489" d="M251.227,272.91q.022-.875.045-1.75a5.469,5.469,0,0,0,1.765,5.252,7.442,7.442,0,0,0,9.569.595" transform="translate(-216.523 -209.654)" fill="none" stroke="#000" stroke-linecap="round" stroke-linejoin="round" stroke-miterlimit="10" stroke-width="1"/>
              <circle id="Elipse_11667" data-name="Elipse 11667" cx="1.772" cy="1.772" r="1.772" transform="translate(36.331 44.458)"/>
              <path id="Trazado_994490" data-name="Trazado 994490" d="M284.628,254.051a1.829,1.829,0,1,1-1.829-1.829A1.829,1.829,0,0,1,284.628,254.051Z" transform="translate(-224.422 -204.643)"/>
              <path id="Trazado_994491" data-name="Trazado 994491" d="M248.831,244.346a5.806,5.806,0,0,1,8.759,1.305" transform="translate(-215.919 -202.177)" fill="none" stroke="#000" stroke-linecap="round" stroke-linejoin="round" stroke-miterlimit="10" stroke-width="1"/>
              <path id="Trazado_994492" data-name="Trazado 994492" d="M285.741,249.857a5.666,5.666,0,0,0-5.051-2.744,16.691,16.691,0,0,0-5.854,1.362" transform="translate(-222.799 -203.291)" fill="none" stroke="#000" stroke-linecap="round" stroke-linejoin="round" stroke-miterlimit="10" stroke-width="1"/>
              <path id="Trazado_994493" data-name="Trazado 994493" d="M280.912,199.063a13.147,13.147,0,0,0-3.723,1.33" transform="translate(-223.422 -190.579)" fill="none" stroke="#0073cc" stroke-miterlimit="10" stroke-width="1"/>
              <path id="Trazado_994494" data-name="Trazado 994494" d="M212.766,207.389l5.894-2.559" transform="translate(-206.377 -192.105)" fill="none" stroke="#0073cc" stroke-miterlimit="10" stroke-width="1"/>
              <path id="Trazado_994495" data-name="Trazado 994495" d="M296.665,223.167a8.9,8.9,0,0,0-3.588-4.181" transform="translate(-227.625 -195.85)" fill="none" stroke="#0073cc" stroke-miterlimit="10" stroke-width="1"/>
              <path id="Trazado_994496" data-name="Trazado 994496" d="M233.183,196.764a16.664,16.664,0,0,0-2.729,3.951" transform="translate(-211.057 -189.971)" fill="none" stroke="#0073cc" stroke-miterlimit="10" stroke-width="1"/>
              <path id="Trazado_994497" data-name="Trazado 994497" d="M280.117,233.742a15.791,15.791,0,0,1-1.53-3.38" transform="translate(-223.792 -198.86)" fill="none" stroke="#0073cc" stroke-miterlimit="10" stroke-width="1"/>
              <path id="Trazado_994498" data-name="Trazado 994498" d="M265.772,221.417l-2.18-10.745" transform="translate(-219.824 -193.65)" fill="none" stroke="#0073cc" stroke-miterlimit="10" stroke-width="1"/>
              <path id="Trazado_994499" data-name="Trazado 994499" d="M206.909,300.458c-.2,1.588,1.008,2.984,2.215,4.035,9.673,8.427,25.224,9.138,35.626,1.628" transform="translate(-204.822 -217.405)" fill="none" stroke="#000" stroke-linecap="round" stroke-linejoin="round" stroke-miterlimit="10" stroke-width="1"/>
            </g>
            <g id="Grupo_1159182" data-name="Grupo 1159182" transform="translate(25.508 92.804)">
              <path id="Trazado_994500" data-name="Trazado 994500" d="M201.061,368.125a3.727,3.727,0,1,1-3.727-3.727A3.727,3.727,0,0,1,201.061,368.125Z" transform="translate(-188.638 -327.126)" fill="#fff"/>
              <path id="Trazado_994501" data-name="Trazado 994501" d="M271.619,359.018a3.727,3.727,0,1,1-3.727-3.727A3.727,3.727,0,0,1,271.619,359.018Z" transform="translate(-207.305 -324.716)" fill="#fff"/>
              <circle id="Elipse_11668" data-name="Elipse 11668" cx="3.727" cy="3.727" r="3.727" transform="translate(33.544 14.909)" fill="#fff"/>
              <circle id="Elipse_11669" data-name="Elipse 11669" cx="3.727" cy="3.727" r="3.727" transform="translate(75.165)" fill="#fff"/>
              <path id="Trazado_994502" data-name="Trazado 994502" d="M233.159,434.01a3.727,3.727,0,1,1-3.727-3.727A3.727,3.727,0,0,1,233.159,434.01Z" transform="translate(-197.13 -344.557)" fill="#fff"/>
              <path id="Trazado_994503" data-name="Trazado 994503" d="M250.052,477.089a3.727,3.727,0,1,1-3.727-3.727A3.727,3.727,0,0,1,250.052,477.089Z" transform="translate(-201.599 -355.955)" fill="#fff"/>
              <circle id="Elipse_11670" data-name="Elipse 11670" cx="3.727" cy="3.727" r="3.727" transform="translate(5.591 112.437)" fill="#fff"/>
              <circle id="Elipse_11671" data-name="Elipse 11671" cx="3.727" cy="3.727" r="3.727" transform="translate(0 73.302)" fill="#fff"/>
              <path id="Trazado_994504" data-name="Trazado 994504" d="M276.519,414.3a3.727,3.727,0,1,1-3.727-3.727A3.727,3.727,0,0,1,276.519,414.3Z" transform="translate(-208.602 -339.343)" fill="#fff"/>
              <path id="Trazado_994505" data-name="Trazado 994505" d="M305.8,363.057a3.727,3.727,0,1,1-3.727-3.727A3.727,3.727,0,0,1,305.8,363.057Z" transform="translate(-216.349 -325.785)" fill="#fff"/>
              <circle id="Elipse_11672" data-name="Elipse 11672" cx="3.727" cy="3.727" r="3.727" transform="translate(66.261 102.429)" fill="#fff"/>
              <path id="Trazado_994506" data-name="Trazado 994506" d="M243.3,379.106a3.727,3.727,0,1,1-3.727-3.727A3.727,3.727,0,0,1,243.3,379.106Z" transform="translate(-199.812 -330.031)" fill="#fff"/>
              <circle id="Elipse_11673" data-name="Elipse 11673" cx="3.727" cy="3.727" r="3.727" transform="translate(0.621 11.803)" fill="#fff"/>
            </g>
          </g>
          <g id="Grupo_1159184" data-name="Grupo 1159184" transform="translate(-1963.152 2549.705)">
            <path id="Trazado_994507" data-name="Trazado 994507" d="M70.247,310.652c18.232-7.289,55.2-11.354,71.989-1.59,1.494.869-12.8,3.479-12.056,5.038a8.172,8.172,0,0,1,0,5.722c-3.732,13.019,4.494,23.551-4.115,32.135-9.25,9.224-37.753,10.813-48.34,18.881C68.026,378.231,58.239,388.964,45,388.7c-9.922-.2-16.99-.229-25.978-5.488-4.151-2.429-8.534-5.188-10.4-9.622-2.856-6.8-7.334-12.149-2.246-17.487,16.841-17.669,39.144-34.279,59.126-43.417Q67.838,311.617,70.247,310.652Z" transform="translate(-4.069 -303.292)" fill="#00a47d"/>
            <path id="Trazado_994508" data-name="Trazado 994508" d="M54.275,350.481a3.727,3.727,0,1,1-3.727-3.727A3.727,3.727,0,0,1,54.275,350.481Z" transform="translate(-15.38 -314.791)" fill="#fff"/>
            <circle id="Elipse_11674" data-name="Elipse 11674" cx="3.727" cy="3.727" r="3.727" transform="translate(60.154 11.808)" fill="#fff"/>
          </g>
          <path id="Trazado_994509" data-name="Trazado 994509" d="M334.211,386.645q2.02-35.651,1.33-71.386c-.365-18.9-5.1-34.194,5.468-51.633a6.024,6.024,0,0,1,2.445-2.589c3.348-1.494,6.065,3.072,6.806,6.664,2.55,12.366,3.362,25.016,4.166,37.617q2.507,39.264,5.014,78.529a90.321,90.321,0,0,0,24.816-15.753,8.416,8.416,0,0,0,2.5-3.146,8.808,8.808,0,0,0,.3-3.537c-1.808-34.559-3.777-69.873-16.829-101.924-3.709-9.107-8.542-18-17.726-22.556-3.568-1.769-7.9-2.429-11.534-.8a9.423,9.423,0,0,1-1.85.745,7.77,7.77,0,0,1-2.553-.09c-11.258-1.4-18,6.971-21.863,16.455-3.961,9.73-4.616,20.439-5.223,30.926l-4.21,72.749a17.028,17.028,0,0,0,.512,6.736,15.733,15.733,0,0,0,4.255,5.725A102.072,102.072,0,0,0,334.211,386.645Z" transform="translate(-2046.885 2264.429)"/>
          <g id="Grupo_1159186" data-name="Grupo 1159186" transform="translate(-1737.616 2540.911)">
            <path id="Trazado_994510" data-name="Trazado 994510" d="M365.341,339.027l-.026-.024c-3.144-2.928-4.622-7.22-5.538-11.079-1.084-4.571-1.041-10.391-1.309-15.056-.291-5.057-.859-9.119-3.075-13.786s-7.7-8.62-13.3-7.582a11.838,11.838,0,0,0-8.115,6.416c-1.548,3.039-3.2,6.561-3.571,9.879-.874,7.871,2.075,19.546-2.856,26.314-4.586,6.289-13.024,8.035-16.81,15.226,3.454,5.191,9.828,8.5,16.479,9.772s13.586.693,20.259-.479c11.131-1.954,22.892-6.324,27.863-15.357C374.213,345.322,366.244,339.829,365.341,339.027Z" transform="translate(-310.743 -291.334)" fill="#ffbf8a"/>
            <path id="Trazado_994511" data-name="Trazado 994511" d="M351.01,376.639a17.719,17.719,0,0,0-8.3-3.571" transform="translate(-319.2 -312.958)" fill="none" stroke="#000" stroke-linecap="round" stroke-linejoin="round" stroke-miterlimit="10" stroke-width="1"/>
            <path id="Trazado_994512" data-name="Trazado 994512" d="M364.3,375.484a12.531,12.531,0,0,1,4.5-4.9" transform="translate(-324.912 -312.3)" fill="none" stroke="#000" stroke-linecap="round" stroke-linejoin="round" stroke-miterlimit="10" stroke-width="1"/>
          </g>
          <g id="Grupo_1159187" data-name="Grupo 1159187" transform="translate(-1744.316 2594.291)">
            <path id="Trazado_994513" data-name="Trazado 994513" d="M314.533,399.106c-.409,26.651,1.023,53.473-1.166,79.765h52.475c.866-18.61,3.144-37.251,5.494-55.728,2.506-19.7,1.5-39.547,3.774-59.225A51.291,51.291,0,0,1,353,373.633c-13.942,2.572-28.947-.219-40.527-8.463C314.87,376.274,314.707,387.749,314.533,399.106Z" transform="translate(-304.5 -363.918)" fill="#9fc0df"/>
            <path id="Trazado_994514" data-name="Trazado 994514" d="M305.711,375.434c9.458,7.245,21.538,11.113,33.366,11.735,6.414.338,11.875-1.726,18.186-2.406a58.136,58.136,0,0,1,20.919,1.545,81.047,81.047,0,0,1-34.552,5.561c-14.225-.838-29.561-5.214-42,1.742,3.765,5.339,10.918,6.775,17.352,7.912q19.875,3.512,39.44,8.557c2.277.587,4.832,1.419,5.8,3.56-14.77,5.394-31.076,1.947-46.8,1.661-2.145-.039-4.738.249-5.664,2.184,6.588,6.014,16.188,6.917,25.013,8.216a172.1,172.1,0,0,1,31.428,7.7c-1.516,1.807-4.081,2.258-6.43,2.463-16.731,1.462-33.63-3.505-50.272-1.244.888,3.516,4.34,5.724,7.678,7.141,15.045,6.387,33.244,4.082,47.008,12.9-18.82,2.767-38.249-4.93-56.831-.859a530.621,530.621,0,0,0,60.51,11.655" transform="translate(-301.632 -366.965)" fill="none" stroke="#fff" stroke-linecap="round" stroke-linejoin="round" stroke-miterlimit="10" stroke-width="1"/>
          </g>
          <g id="Grupo_1159188" data-name="Grupo 1159188" transform="translate(-1773.001 2580.224)">
            <path id="Trazado_994515" data-name="Trazado 994515" d="M405.625,530.8c-7.563-54.847-7.34-107.6,3.894-161.853-.4-2.65-.466-8.51-1.227-10.828-2.669-8.14-3.185-7.8-12.968-10.25-1.593-.4-18.992-3.717-19.092-2.973-5.927,44.243-10.316,89.153-12.669,133.73-.562,10.648-1.021,21.347.04,31.957.865,8.647,2.982,17.667,8.982,23.953,5.625,5.894,14.464,10.356,22.056,8.938,3.938-.736,7.54-3.052,10.184-7.572a22.513,22.513,0,0,0,1.191-2.384C405.888,532.614,405.75,531.709,405.625,530.8Z" transform="translate(-289.174 -344.791)" fill="#ffbd42"/>
            <path id="Trazado_994516" data-name="Trazado 994516" d="M287.644,545.612c-4.582,2.855-10.962-.726-13.035-5.711s-1.144-10.645-.257-15.971c4.58-27.5,5.036-55.091,5.448-82.978q.33-22.341-.276-44.682c-.1-3.775-3.2-41.236-1.947-41.659,2.241-.755,30.518-9.791,30.563-9.491,7.519,50.346,5.066,100.917-.063,151.562C306.017,517.03,305,534.8,287.644,545.612Z" transform="translate(-265.467 -344.876)" fill="#ffbd42"/>
            <path id="Trazado_994517" data-name="Trazado 994517" d="M302.326,406.266a438.752,438.752,0,0,1-5.931,114.684c-1.48,7.99-3.265,16.148-7.707,22.953s-12.126,12.06-20.226,11.4a34.52,34.52,0,0,1-5.833-1.163" transform="translate(-262.628 -361.055)" fill="none" stroke="#000" stroke-linecap="round" stroke-linejoin="round" stroke-miterlimit="10" stroke-width="1"/>
            <path id="Trazado_994518" data-name="Trazado 994518" d="M383.208,408.626c-7.833,38.647-12.454,77.92-9.373,117.193.77,7.7,4.621,14.631,7.7,21.562,5.391,11.551,20.021,4.621,28-1" transform="translate(-291.795 -361.68)" fill="none" stroke="#000" stroke-linecap="round" stroke-linejoin="round" stroke-miterlimit="10" stroke-width="1"/>
            <path id="Trazado_994519" data-name="Trazado 994519" d="M419.144,348.236a37.286,37.286,0,0,1,5.039,22.622c1.586-4.922,2.706-8.071,4.293-12.994" transform="translate(-304.038 -345.702)" fill="none" stroke="#000" stroke-linecap="round" stroke-linejoin="round" stroke-miterlimit="10" stroke-width="1"/>
          </g>
          <g id="Grupo_1159189" data-name="Grupo 1159189" transform="translate(-1746.535 2501.807)">
            <path id="Trazado_994520" data-name="Trazado 994520" d="M335.106,306.865a17.031,17.031,0,0,0,5.147,3.145c3.829,1.319,8.023.307,11.942-.713a24.784,24.784,0,0,0,7.872-3.043,18.892,18.892,0,0,0,5.025-5.522c7.994-12.368,9.679-33.474-1.642-44.494-10.226-9.954-25.187-5.943-33.835,3.914-7.1,8.094-8.83,25.854-4.1,35.453A34.781,34.781,0,0,0,334.7,306.53Q334.9,306.7,335.106,306.865Z" transform="translate(-305.03 -241.42)" fill="#ffbf8a"/>
            <path id="Trazado_994521" data-name="Trazado 994521" d="M343.507,261.189a24.435,24.435,0,0,1-4.422,3.379,2.754,2.754,0,0,1-1.54.519c-1.391-.095-1.84-1.9-1.913-3.29a62.665,62.665,0,0,1-8.038,7.526,9.305,9.305,0,0,1-3.349,1.894,3.51,3.51,0,0,1-3.551-.94c-1.423-1.739-.4-5.466-.108-7.485a33.077,33.077,0,0,1,2.81-9.23c2.009-4.256,4.807-6.2,8.453-8.8a10.885,10.885,0,0,1,3.222-1.372c3.441-1.044,7.027-2.1,10.579-1.54a3.046,3.046,0,0,1,1.3.44c3.593,2.524,3.376,8.493,1.732,11.831A25.385,25.385,0,0,1,343.507,261.189Z" transform="translate(-304.262 -239.097)"/>
            <path id="Trazado_994522" data-name="Trazado 994522" d="M378.993,270.55c-5-1.511-7.713-6.1-12.029-8.643-5.041-2.977-8.938-7.508-12.582-12.005-1.6-1.969-3.212-4.033-3.841-6.488a3.67,3.67,0,0,1,.435-3.293,3.823,3.823,0,0,1,1.412-.934c5.344-2.339,10.761-.452,14.707,3.426A39.461,39.461,0,0,1,378.993,270.55Z" transform="translate(-312.304 -238.162)"/>
            <path id="Trazado_994523" data-name="Trazado 994523" d="M322.944,388.067q-.956-43.86-1.912-87.719c-.219-10.066-.4-20.188.872-30.2a29.328,29.328,0,0,1,3.84-11.708c2.154-3.54,4.976-6.685,6.565-10.553a4.769,4.769,0,0,0,.466-2.161,4.7,4.7,0,0,0-2.133-3.115,8.781,8.781,0,0,0-3.551-1.733c-3.165-.618-6.268,1.32-8.591,3.557-9.172,8.827-11.7,22.8-13.5,34.834a576.607,576.607,0,0,0-6.34,92.395A62.256,62.256,0,0,0,322.944,388.067Z" transform="translate(-298.615 -238.85)"/>
            <path id="Trazado_994524" data-name="Trazado 994524" d="M370.672,371.125c-.267,2.617-1.317,13.188-2.613,22.707,13.8-4.508,24.933-12.965,31.625-26.138.268-2.809.726-9.069.677-12.118-.424-25.993-.633-53.935-12.877-77.574-4.274-8.253-10.515-15.773-18.817-19.951,4.374,5.928,6.23,13.319,7.465,20.582C381.645,311.074,374.954,329.2,370.672,371.125Z" transform="translate(-316.988 -243.424)"/>
            <circle id="Elipse_11675" data-name="Elipse 11675" cx="8.377" cy="8.377" r="8.377" transform="matrix(0.987, -0.16, 0.16, 0.987, 9.071, 34.979)" fill="#ffbf8a"/>
            <path id="Trazado_994525" data-name="Trazado 994525" d="M327.833,283.673a7.314,7.314,0,0,1,4.362,4.445" transform="translate(-306.346 -250.203)" fill="none" stroke="#000" stroke-linecap="round" stroke-linejoin="round" stroke-miterlimit="10" stroke-width="1"/>
            <path id="Trazado_994526" data-name="Trazado 994526" d="M321.3,289.328a10.227,10.227,0,0,1,4.008,1.2,4.374,4.374,0,0,1,1.4,1.088,5.249,5.249,0,0,1,.774,2.919" transform="translate(-304.616 -251.699)" fill="none" stroke="#000" stroke-linecap="round" stroke-linejoin="round" stroke-miterlimit="10" stroke-width="1"/>
            <path id="Trazado_994527" data-name="Trazado 994527" d="M336.754,286.678A4.914,4.914,0,0,1,339,285.346a6.714,6.714,0,0,1,3.705-.235,4,4,0,0,1,2.776,2.324" transform="translate(-308.706 -250.54)" fill="none" stroke="#000" stroke-linecap="round" stroke-linejoin="round" stroke-miterlimit="10" stroke-width="1"/>
            <path id="Trazado_994528" data-name="Trazado 994528" d="M378.115,287.252a5.287,5.287,0,0,0-9.3.379" transform="translate(-317.187 -250.463)" fill="none" stroke="#000" stroke-linecap="round" stroke-linejoin="round" stroke-miterlimit="10" stroke-width="1"/>
            <path id="Trazado_994529" data-name="Trazado 994529" d="M356.442,285.375c.091,1.936-5.055,16.1,1.322,12.648" transform="translate(-313.418 -250.653)" fill="none" stroke="#000" stroke-linecap="round" stroke-linejoin="round" stroke-miterlimit="10" stroke-width="1"/>
            <path id="Trazado_994530" data-name="Trazado 994530" d="M347.54,308.718a8.407,8.407,0,0,0,4.948,2.779,7.106,7.106,0,0,0,4.245-.549,10.91,10.91,0,0,0,3.154-2.609" transform="translate(-311.559 -256.729)" fill="none" stroke="#000" stroke-linecap="round" stroke-linejoin="round" stroke-miterlimit="10" stroke-width="1"/>
            <path id="Trazado_994531" data-name="Trazado 994531" d="M336.78,324.38a23.65,23.65,0,0,0,31.682-3.623" transform="translate(-308.713 -260.014)" fill="none" stroke="#000" stroke-linecap="round" stroke-linejoin="round" stroke-miterlimit="10" stroke-width="1"/>
            <path id="Trazado_994532" data-name="Trazado 994532" d="M341.3,299.61c6.312,0,3.3-6.071-1.669-4.87a2.8,2.8,0,0,0-2.209,1.847,2.367,2.367,0,0,0,1.153,2.4A5.071,5.071,0,0,0,341.3,299.61Z" transform="translate(-308.871 -253.089)" fill="#f0765b"/>
            <path id="Trazado_994533" data-name="Trazado 994533" d="M369.39,296.17c-1.027.55-2,1.668-1.615,2.769.307.887,1.324,1.28,2.233,1.511a6.215,6.215,0,0,0,3.665.083c2.093-.778,3.338-4.129.6-4.964A6.864,6.864,0,0,0,369.39,296.17Z" transform="translate(-316.891 -253.293)" fill="#f0765b"/>
            <path id="Trazado_994534" data-name="Trazado 994534" d="M367.136,279.378a8.43,8.43,0,0,1,10.008-1.272" transform="translate(-316.744 -248.44)" fill="none" stroke="#000" stroke-linecap="round" stroke-linejoin="round" stroke-miterlimit="10" stroke-width="1"/>
            <path id="Trazado_994535" data-name="Trazado 994535" d="M344.829,279.33c-.417-1.733-2.42-2.692-4.2-2.548a11.409,11.409,0,0,0-4.887,2.04" transform="translate(-308.438 -248.376)" fill="none" stroke="#000" stroke-linecap="round" stroke-linejoin="round" stroke-miterlimit="10" stroke-width="1"/>
            <path id="Trazado_994536" data-name="Trazado 994536" d="M329.041,305.753c.271,14.359,1.325,62.225,1.6,76.585" transform="translate(-306.665 -256.045)" fill="none" stroke="#0073cc" stroke-miterlimit="10" stroke-width="1"/>
            <path id="Trazado_994537" data-name="Trazado 994537" d="M325.253,420.383q-.654-15.678-.392-31.377" transform="translate(-305.539 -278.071)" fill="none" stroke="#0073cc" stroke-miterlimit="10" stroke-width="1"/>
            <path id="Trazado_994538" data-name="Trazado 994538" d="M373.635,258.395c2.2,8.463,3.251,17.178,4.293,25.861" transform="translate(-318.463 -243.515)" fill="none" stroke="#0073cc" stroke-miterlimit="10" stroke-width="1"/>
            <path id="Trazado_994539" data-name="Trazado 994539" d="M379.51,310.9c.626,16.7-4.246,51.564-6.808,68.082" transform="translate(-318.217 -257.406)" fill="none" stroke="#0073cc" stroke-miterlimit="10" stroke-width="1"/>
            <path id="Trazado_994540" data-name="Trazado 994540" d="M340.151,267.074a32.146,32.146,0,0,0,4.489-7.963" transform="translate(-309.604 -243.704)" fill="none" stroke="#0073cc" stroke-miterlimit="10" stroke-width="1"/>
            <path id="Trazado_994541" data-name="Trazado 994541" d="M358.959,255.557a13.167,13.167,0,0,0,.846-7.726" transform="translate(-314.581 -240.72)" fill="none" stroke="#0073cc" stroke-miterlimit="10" stroke-width="1"/>
          </g>
          <g id="Grupo_1159190" data-name="Grupo 1159190" transform="translate(-1761.308 2581.944)">
            <path id="Trazado_994542" data-name="Trazado 994542" d="M281.944,417.777c.065,1.869.328,25.273.329,27.143" transform="translate(-279.432 -365.82)" fill="none" stroke="#000" stroke-linecap="round" stroke-linejoin="round" stroke-miterlimit="10" stroke-width="1"/>
            <path id="Trazado_994543" data-name="Trazado 994543" d="M278.747,347.129c-1.026,16.545,1.864,31.556,2.139,47.961" transform="translate(-278.528 -347.129)" fill="none" stroke="#000" stroke-linecap="round" stroke-linejoin="round" stroke-miterlimit="10" stroke-width="1"/>
          </g>
          <g id="Grupo_1159191" data-name="Grupo 1159191" transform="translate(-1918.494 2561.513)">
            <circle id="Elipse_11676" data-name="Elipse 11676" cx="3.727" cy="3.727" r="3.727" transform="translate(0 48.109)" fill="#ff86a1"/>
            <path id="Trazado_994544" data-name="Trazado 994544" d="M79.8,360.617a3.727,3.727,0,1,1-3.727-3.727A3.727,3.727,0,0,1,79.8,360.617Z" transform="translate(-66.792 -329.281)" fill="#fff"/>
            <circle id="Elipse_11677" data-name="Elipse 11677" cx="3.727" cy="3.727" r="3.727" transform="translate(15.496)" fill="#fff"/>
          </g>
          <g id="Grupo_1159194" data-name="Grupo 1159194" transform="translate(-1590.379 2590.005)">
            <g id="Grupo_1159193" data-name="Grupo 1159193">
              <path id="Trazado_994545" data-name="Trazado 994545" d="M515.21,506.019H643.54c.266-6.764,8.243-11.974,7.437-18.912-1.1-9.509-.462-93.034-2.208-103.258-1.467-8.585-16.294-7.259-20.91-14.967a23.656,23.656,0,0,0-7.2-8.057c-6.6-4.213-15.22-2.813-22.774-.745-8.28,2.267-15.059,7.278-23.373,9.274-8.18,1.964-23.227,1.151-30.175,6.44-5.51,4.195-8.543,10.837-10.833,17.374-8.728,24.916-12.16,50.548-19.045,76.093-2.141,7.943-4.129,16.124-3.325,24.31A29.583,29.583,0,0,0,515.21,506.019Z" transform="translate(-510.949 -358.09)" fill="#0073cc"/>
              <path id="Trazado_994546" data-name="Trazado 994546" d="M695.953,399.03c-3.485,6.549-5.867,9.419-8.49,16.358" transform="translate(-557.649 -368.922)" fill="none" stroke="#000" stroke-linecap="round" stroke-linejoin="round" stroke-miterlimit="10" stroke-width="1"/>
            </g>
            <path id="Trazado_994547" data-name="Trazado 994547" d="M554.744,440.477q-3.925,50.9-7.85,101.8" transform="translate(-520.459 -379.887)" fill="none" stroke="#000" stroke-linecap="round" stroke-linejoin="round" stroke-miterlimit="10" stroke-width="1"/>
          </g>
          <g id="Grupo_1159196" data-name="Grupo 1159196" transform="translate(-1504.038 2419.486)">
            <g id="Grupo_1159195" data-name="Grupo 1159195">
              <path id="Trazado_994548" data-name="Trazado 994548" d="M633.919,165.414c2.9,3.972,6,7.812,9.085,11.645,1.835,2.278,3.725,4.6,6.237,6.1a4.489,4.489,0,0,1,1.079.768,3.693,3.693,0,0,1,.709,1.564,26.2,26.2,0,0,0,1.362,4.254c.458.985,1.283,2.5,2.35,2.942a8.91,8.91,0,0,0,3.213.09,60.588,60.588,0,0,0,15.4-2.354,2.926,2.926,0,0,0,2.055-1.352,2.64,2.64,0,0,0,.147-1.1,21.52,21.52,0,0,0-1.588-6.806c-.963-2.623-2.055-5.2-3.105-7.787a4.11,4.11,0,0,1-.365-1.3,4.964,4.964,0,0,1,.143-1.174c.683-3.649-.311-7.381-1.3-10.96a66.963,66.963,0,0,0-2.2-6.989c-.885-2.228-2.037-4.182-2.752-6.472-1.562-5.005-3.231-9.979-5.107-14.877-.421-1.1-1.188-3.578-2.7-3.64-1.741-.072-1.63,2.727-1.57,3.919.2,3.879,2.238,7.484,1.963,11.414a1.369,1.369,0,0,1-.238.794.519.519,0,0,1-.739.092.757.757,0,0,1-.148-.31c-.665-2.195-1.144-4.359-1.756-6.573-.829-2.6-1.468-5.244-2.413-7.813a5.822,5.822,0,0,0-2.35-2.77,2.036,2.036,0,0,0-2.242-.249,2.246,2.246,0,0,0-.781,1.7c-.23,2.43.827,4.769,1.694,7.051a49.471,49.471,0,0,1,2.761,10.817c-1-.088-1.5-1.224-1.81-2.178a61.5,61.5,0,0,0-7.208-14.833c-.474-.713-1.144-1.5-1.994-1.393-1.191.154-1.4,1.792-1.2,2.976,1.083,6.338,4.864,12.093,5.183,18.515a42.178,42.178,0,0,1-5.684-8c-.576-1.052-4.541-8.252-5.937-4.717a3.577,3.577,0,0,0-.056,1.868c1.261,8.008,5.311,15.258,8.171,22.844a16.1,16.1,0,0,0-1.77-1.19c-.59-.445-1.219-.851-1.809-1.313-2.079-1.628-3.964-3.339-6.745-3.395a1.8,1.8,0,0,0-1.024.21,1.372,1.372,0,0,0-.5,1.375,3.941,3.941,0,0,0,.634,1.4C630.55,160.668,632.2,163.064,633.919,165.414Z" transform="translate(-628.35 -126.226)" fill="#ffbb9c"/>
              <path id="Trazado_994549" data-name="Trazado 994549" d="M664.779,151.983a29.27,29.27,0,0,0-17,7.161" transform="translate(-633.49 -133.041)" fill="none" stroke="#000" stroke-linecap="round" stroke-linejoin="round" stroke-miterlimit="10" stroke-width="1.001"/>
            </g>
            <path id="Trazado_994550" data-name="Trazado 994550" d="M643.145,173.309a18.5,18.5,0,0,1,8.749,5.124" transform="translate(-632.265 -138.683)" fill="none" stroke="#000" stroke-linecap="round" stroke-linejoin="round" stroke-miterlimit="10" stroke-width="1.001"/>
          </g>
          <g id="Grupo_1159197" data-name="Grupo 1159197" transform="translate(-1503.078 2468.941)">
            <path id="Trazado_994551" data-name="Trazado 994551" d="M671.989,265.908c.32,1.075,4.222,13.1,6.08,17.653,1.866,4.571,1.754,7.378,5.881,10.071,6.548,4.273,14.838,5.469,22.534,4.09,2.547-.457,1.865,7.561,3.68,5.718,13.459-13.667,8.943-28.093,6.361-37.15-3.673-12.884-9.238-25.118-13.489-37.806-2.916-8.705-5.252-17.877-10.833-25.165s-15.6-12.2-24.079-8.68c-6.692,2.779-10.619,10.1-11.327,17.315s1.248,14.4,3.365,21.326C663.506,244.223,668.729,254.945,671.989,265.908Z" transform="translate(-636.798 -193.474)" fill="#0073cc"/>
            <path id="Trazado_994552" data-name="Trazado 994552" d="M631.394,357.214c-3.318,10.9-1.455,19.423,1.98,29.792,2.5,7.551,5.141,17.781,15.434,17.343,5.37-.229,16-4.641,18.5-9.63,11.181-22.361,21.376-38.5,32.759-57.372,2.277-3.776,4.56-7.565,6.6-11.469a54.919,54.919,0,0,0,4.259-10.378,21.246,21.246,0,0,0,.617-10.563c-1.309-5.516-7.6-10.856-12.6-13.13-16.38-7.445-29.219,5.41-38.189,17.783C650.174,324.181,636.673,339.87,631.394,357.214Z" transform="translate(-629.656 -218.908)" fill="#0073cc"/>
            <path id="Trazado_994553" data-name="Trazado 994553" d="M736.569,313.411a11.4,11.4,0,0,1-.716,7.874" transform="translate(-657.752 -225.206)" fill="none" stroke="#000" stroke-linecap="round" stroke-linejoin="round" stroke-miterlimit="10" stroke-width="1"/>
            <path id="Trazado_994554" data-name="Trazado 994554" d="M681.514,302.741q.44,3.206.88,6.412" transform="translate(-643.376 -222.383)" fill="none" stroke="#000" stroke-linecap="round" stroke-linejoin="round" stroke-miterlimit="10" stroke-width="1"/>
          </g>
          <g id="Grupo_1159201" data-name="Grupo 1159201" transform="translate(-1559.653 2515.699)">
            <path id="Trazado_994555" data-name="Trazado 994555" d="M577.774,342.176c-9.8-3.085-18.587-7.885-24.354-16.595a3.706,3.706,0,0,1-.668-1.441,3.885,3.885,0,0,1,.268-1.728c1.476-4.674,3-9.447,5.936-13.375,1.736-2.325,3.934-4.3,5.43-6.791,3.865-6.428,2.295-14.747,4.709-21.849,4.36-12.827,19.258-17.3,30.989-12.231,8.916,3.851,15.323,12.387,17.911,21.747s1.657,19.436-1.2,28.717c-2.716,8.814-7.366,17.345-14.767,22.848S586.57,344.947,577.774,342.176Z" transform="translate(-552.728 -259.453)"/>
            <path id="Trazado_994556" data-name="Trazado 994556" d="M610.142,374.727c3.854-.288,7.515-2.005,10.875-4.125,1.514-.955,2.967-1.993,4.349-3.018,4.421-3.28,7.319-6.552,6.783-12.341-.218-2.348-.822-4.641-1.255-6.96-1.777-9.522-.652-19.486-3.162-28.841a6.027,6.027,0,0,0-6.234-4.515,17.023,17.023,0,0,0-6.592,2.662,116.891,116.891,0,0,0-12.833,8.648,3.274,3.274,0,0,0-.952.985,3.377,3.377,0,0,0-.292,1.38q-.818,12.2-.621,24.448a14.828,14.828,0,0,1-.18,3.252,17.184,17.184,0,0,1-1.817,4.271C593.995,368.758,602.512,375.3,610.142,374.727Z" transform="translate(-564.466 -272.357)" fill="#ffbb9c"/>
            <path id="Trazado_994557" data-name="Trazado 994557" d="M575.341,310.472c.4,5.391,2.66,10.867,6.962,14.238,6.817,5.341,16.753,4.118,24.5.526,11.965-5.547,21.786-17.4,21.071-30.6-.733-13.536-15.9-31.974-30.931-26.028C583.264,274.017,574.359,297.093,575.341,310.472Z" transform="translate(-558.692 -259.806)" fill="#ffbb9c"/>
            <path id="Trazado_994558" data-name="Trazado 994558" d="M606.664,345.027a3.892,3.892,0,0,0,2.009,1.417,14.36,14.36,0,0,0,5.114.632,69.957,69.957,0,0,0,20.58-3.761A102.667,102.667,0,0,0,656.447,333.2a14.741,14.741,0,0,0-.358-5.991c-.876-2.531-3.062-4.449-3.9-6.992-1.523-4.613,1.775-9.764.352-14.407-.863-2.813-3.283-4.833-4.811-7.348-2.36-3.885-1.594-8.262-1.9-12.549-.522-7.379-4.5-14.289-10.127-19.095-5.728-4.894-13.485-7.851-20.759-9.475-6.564-1.465-15.2,2.881-20.88,5.73-3.126,1.569-6.5,3.4-7.786,6.658,7.462-1.654,14.349,2.1,18.856,7.766a26,26,0,0,1,1.6,2.244,42.417,42.417,0,0,1,6.142,16.546c1.278,7.675.177,15.441-1.492,22.965-.74,3.334-1.377,6.762-2.172,10.045-.674,2.78-1.605,5.494-2.2,8.293C606.614,339.447,605.589,343.364,606.664,345.027Z" transform="translate(-561.605 -257.053)"/>
            <path id="Trazado_994559" data-name="Trazado 994559" d="M588.962,349.095c5.387.678,10.9.663,15.842-1.591" transform="translate(-562.315 -280.984)" fill="none" stroke="#000" stroke-linecap="round" stroke-linejoin="round" stroke-miterlimit="10" stroke-width="1"/>
            <path id="Trazado_994560" data-name="Trazado 994560" d="M589.5,300.806a27.2,27.2,0,0,1-5.626,8.869,7.153,7.153,0,0,0-2.217,3.26c-.259,1.308.8,2.931,2.1,2.637" transform="translate(-560.371 -268.629)" fill="none" stroke="#000" stroke-linecap="round" stroke-linejoin="round" stroke-miterlimit="10" stroke-width="1"/>
            <path id="Trazado_994561" data-name="Trazado 994561" d="M578.588,326.612a8.96,8.96,0,0,0,10.348,1.783" transform="translate(-559.57 -275.456)" fill="none" stroke="#000" stroke-linecap="round" stroke-linejoin="round" stroke-miterlimit="10" stroke-width="1"/>
            <path id="Trazado_994562" data-name="Trazado 994562" d="M596.9,307.664a4.635,4.635,0,0,1,7.447,3.494" transform="translate(-564.414 -270.195)" fill="none" stroke="#000" stroke-linecap="round" stroke-linejoin="round" stroke-miterlimit="10" stroke-width="1"/>
            <path id="Trazado_994563" data-name="Trazado 994563" d="M578.3,300.479a3.513,3.513,0,0,1,4.82,1.62" transform="translate(-559.495 -268.432)" fill="none" stroke="#000" stroke-linecap="round" stroke-linejoin="round" stroke-miterlimit="10" stroke-width="1"/>
            <path id="Trazado_994564" data-name="Trazado 994564" d="M604.121,315.548c.9.485,1.862,1.122,2.072,2.122a2.344,2.344,0,0,1-.933,2.239,4.316,4.316,0,0,1-2.391.793c-2.208.145-7.395-1.491-6.81-4.537C596.755,312.544,602.194,314.508,604.121,315.548Z" transform="translate(-564.181 -272.139)" fill="#e64f2e"/>
            <path id="Trazado_994565" data-name="Trazado 994565" d="M599.244,299.884a4.7,4.7,0,0,1,5.85,2.487" transform="translate(-565.035 -268.309)" fill="none" stroke="#000" stroke-linecap="round" stroke-linejoin="round" stroke-miterlimit="10" stroke-width="1"/>
            <path id="Trazado_994566" data-name="Trazado 994566" d="M584.4,295.417a5.09,5.09,0,0,0-4.851-1.763" transform="translate(-559.823 -266.713)" fill="none" stroke="#000" stroke-linecap="round" stroke-linejoin="round" stroke-miterlimit="10" stroke-width="1"/>
            <g id="Grupo_1159199" data-name="Grupo 1159199" transform="translate(16.576 7.652)">
              <g id="Grupo_1159198" data-name="Grupo 1159198" clip-path="url(#clip-path-6)">
                <path id="Trazado_994567" data-name="Trazado 994567" d="M569.667,305.1c-3.423,1.18-1.075,5.133,1.549,5.919,1.682.5,4.155.681,5.511-.664,3.017-2.994-4.511-5.969-6.779-5.341Q569.8,305.057,569.667,305.1Z" transform="translate(-573.333 -277.373)" fill="#e64f2e"/>
              </g>
            </g>
            <g id="Grupo_1159200" data-name="Grupo 1159200" transform="translate(44.935 34.982)">
              <path id="Trazado_994569" data-name="Trazado 994569" d="M629.084,319.541a8.352,8.352,0,1,1-1.733-11.927A8.526,8.526,0,0,1,629.084,319.541Z" transform="translate(-613.829 -305.013)" fill="#ffbb9c"/>
              <path id="Trazado_994570" data-name="Trazado 994570" d="M625.941,304.619c-1.83.241-5.04,1.083-6.38,2.353" transform="translate(-615.345 -304.619)" fill="none" stroke="#000" stroke-linecap="round" stroke-linejoin="round" stroke-miterlimit="10" stroke-width="1"/>
              <path id="Trazado_994571" data-name="Trazado 994571" d="M620.189,315.583a12.1,12.1,0,0,1,3.09-4,4.128,4.128,0,0,1,4.746-.323" transform="translate(-615.511 -306.213)" fill="none" stroke="#000" stroke-linecap="round" stroke-linejoin="round" stroke-miterlimit="10" stroke-width="1"/>
            </g>
          </g>
          <path id="Trazado_994572" data-name="Trazado 994572" d="M536.265,484.9a25.021,25.021,0,0,1,4.349,1.242" transform="translate(-2108.025 2198.364)" fill="none" stroke="#ffebdd" stroke-linecap="round" stroke-miterlimit="10" stroke-width="2"/>
          <path id="Trazado_994573" data-name="Trazado 994573" d="M547.942,444.079q-.207,2.692-.414,5.384" transform="translate(-2111.005 2209.165)" fill="none" stroke="#ffebdd" stroke-linecap="round" stroke-miterlimit="10" stroke-width="2"/>
          <g id="Grupo_1159202" data-name="Grupo 1159202" transform="translate(-1552.669 2482)">
            <path id="Trazado_994574" data-name="Trazado 994574" d="M600.967,370.208l1.269,5.685" transform="translate(-572.474 -253.291)" fill="none" stroke="#000" stroke-linecap="round" stroke-linejoin="round" stroke-miterlimit="10" stroke-width="1"/>
            <path id="Trazado_994575" data-name="Trazado 994575" d="M576.247,437.6l4.141,6.833" transform="translate(-565.934 -271.122)" fill="none" stroke="#ffebdd" stroke-linecap="round" stroke-miterlimit="10" stroke-width="2"/>
            <path id="Trazado_994576" data-name="Trazado 994576" d="M610.057,477.146q1.718-4.077,3.081-8.292" transform="translate(-574.879 -279.39)" fill="none" stroke="#ffebdd" stroke-linecap="round" stroke-miterlimit="10" stroke-width="2"/>
            <path id="Trazado_994577" data-name="Trazado 994577" d="M634.248,435.476a41.913,41.913,0,0,0,4.141-4.349" transform="translate(-581.279 -269.408)" fill="none" stroke="#ffebdd" stroke-linecap="round" stroke-miterlimit="10" stroke-width="2"/>
            <path id="Trazado_994578" data-name="Trazado 994578" d="M606.64,420.435l2.51,5.58" transform="translate(-573.975 -266.58)" fill="none" stroke="#ffebdd" stroke-linecap="round" stroke-miterlimit="10" stroke-width="2"/>
            <path id="Trazado_994579" data-name="Trazado 994579" d="M562.224,407.288l6.759-4.663" transform="translate(-562.224 -261.868)" fill="none" stroke="#ffebdd" stroke-linecap="round" stroke-miterlimit="10" stroke-width="2"/>
            <path id="Trazado_994580" data-name="Trazado 994580" d="M659.743,487.428a18.164,18.164,0,0,0,4.454-4.2" transform="translate(-588.025 -283.193)" fill="none" stroke="#ffebdd" stroke-linecap="round" stroke-miterlimit="10" stroke-width="2"/>
            <path id="Trazado_994581" data-name="Trazado 994581" d="M672.251,441.844l4.141,1.863" transform="translate(-591.334 -272.244)" fill="none" stroke="#ffebdd" stroke-linecap="round" stroke-miterlimit="10" stroke-width="2"/>
            <path id="Trazado_994582" data-name="Trazado 994582" d="M668.9,388.606a38.074,38.074,0,0,1,1.428,7.873" transform="translate(-590.447 -258.159)" fill="none" stroke="#ffebdd" stroke-linecap="round" stroke-miterlimit="10" stroke-width="2"/>
            <path id="Trazado_994583" data-name="Trazado 994583" d="M571.46,491.325a35.346,35.346,0,0,0,2.485-6.419" transform="translate(-564.668 -283.637)" fill="none" stroke="#ffebdd" stroke-linecap="round" stroke-miterlimit="10" stroke-width="2"/>
            <path id="Trazado_994584" data-name="Trazado 994584" d="M699.305,365.766a6.209,6.209,0,0,0,4.59-.7" transform="translate(-598.492 -251.931)" fill="none" stroke="#ffebdd" stroke-linecap="round" stroke-miterlimit="10" stroke-width="2"/>
            <path id="Trazado_994585" data-name="Trazado 994585" d="M687.989,324.164l2.718,3.5" transform="translate(-595.498 -241.109)" fill="none" stroke="#ffebdd" stroke-linecap="round" stroke-miterlimit="10" stroke-width="2"/>
            <path id="Trazado_994586" data-name="Trazado 994586" d="M711.958,332.276l3.521-4.763" transform="translate(-601.839 -241.995)" fill="none" stroke="#ffebdd" stroke-linecap="round" stroke-miterlimit="10" stroke-width="2"/>
            <path id="Trazado_994587" data-name="Trazado 994587" d="M697.617,282.709a27.117,27.117,0,0,1,5.981,3.974" transform="translate(-598.045 -230.141)" fill="none" stroke="#ffebdd" stroke-linecap="round" stroke-miterlimit="10" stroke-width="2"/>
            <path id="Trazado_994588" data-name="Trazado 994588" d="M721.525,297.636a13.729,13.729,0,0,0,4.771-4.752" transform="translate(-604.37 -232.833)" fill="none" stroke="#ffebdd" stroke-linecap="round" stroke-miterlimit="10" stroke-width="2"/>
            <path id="Trazado_994589" data-name="Trazado 994589" d="M706.622,255.409a25.8,25.8,0,0,1,5.144,3.565" transform="translate(-600.428 -222.919)" fill="none" stroke="#ffebdd" stroke-linecap="round" stroke-miterlimit="10" stroke-width="2"/>
            <path id="Trazado_994590" data-name="Trazado 994590" d="M679.856,244.736a27.543,27.543,0,0,1,.216,7.662" transform="translate(-593.346 -220.095)" fill="none" stroke="#ffebdd" stroke-linecap="round" stroke-miterlimit="10" stroke-width="2"/>
            <path id="Trazado_994591" data-name="Trazado 994591" d="M691.123,218.831a26.482,26.482,0,0,1,1.45,6" transform="translate(-596.327 -213.241)" fill="none" stroke="#ffebdd" stroke-linecap="round" stroke-miterlimit="10" stroke-width="2"/>
            <path id="Trazado_994592" data-name="Trazado 994592" d="M669.724,214.957a23.455,23.455,0,0,0,4.349-3.727" transform="translate(-590.665 -211.23)" fill="none" stroke="#ffebdd" stroke-linecap="round" stroke-miterlimit="10" stroke-width="2"/>
          </g>
          <g id="Grupo_1159205" data-name="Grupo 1159205" transform="translate(-1931.233 2592.569)">
            <path id="Trazado_994593" data-name="Trazado 994593" d="M139.48,583.461a193.023,193.023,0,0,0-1.55-61.088c-1.341-7.162-3.117-14.323-6.443-20.805s-8.333-12.292-14.871-15.508c-9.621-4.732-21.529-3.193-30.806,2.181s-16.188,14.132-21.3,23.554q-2.344,4.317-4.254,8.829c-5.539,13.01-8.579,27.073-10.556,41.119a200.8,200.8,0,0,0-2.225,21.716H139.48Z" transform="translate(-47.472 -393.763)" fill="#b33434"/>
            <path id="Trazado_994594" data-name="Trazado 994594" d="M147.137,531.641a158.631,158.631,0,0,1,2.3,41.888" transform="translate(-73.84 -406.57)" fill="none" stroke="#000" stroke-linecap="round" stroke-linejoin="round" stroke-miterlimit="10" stroke-width="1"/>
            <path id="Trazado_994595" data-name="Trazado 994595" d="M128.529,536.534a114.313,114.313,0,0,0-1.8,15.557" transform="translate(-68.442 -407.865)" fill="none" stroke="#000" stroke-linecap="round" stroke-linejoin="round" stroke-miterlimit="10" stroke-width="1"/>
            <path id="Trazado_994596" data-name="Trazado 994596" d="M91.977,525.144c-6.309,10.317-13.983,28.355-15.955,40.287" transform="translate(-55.026 -404.851)" fill="none" stroke="#000" stroke-linecap="round" stroke-linejoin="round" stroke-miterlimit="10" stroke-width="1"/>
            <path id="Trazado_994597" data-name="Trazado 994597" d="M155.223,481.462c.154-1.58.241-3.168.285-4.74a99.209,99.209,0,0,0-5.756-36.085,5.883,5.883,0,0,1-.5-3.65,5.412,5.412,0,0,1,1.274-1.931c2.657-2.942,5.672-5.673,7.439-9.223,2.349-4.72,2.174-10.378.655-15.427s-4.273-9.621-7-14.133l-8.31-13.753a27.265,27.265,0,0,0-5.43-7.09c-3.3-2.767-5.474-1.735-9.089-1.836-3.722-.1-7.62-1.423-11.164-2.524a91.922,91.922,0,0,1-20.913-9.5c-11.4,8.487-17.67,21.724-22.21,34.817-1.963,5.661-4.841,10.884-6.807,16.443-2.586,7.311-2.4,16.407-3.326,24.083-1.248,10.313-4.108,21.92-.852,32.133,1.245,3.9,4.046,6.045,5.914,9.517,2.442,4.538,3.5,9.467,6.55,13.772,4.746,6.7,12.009,11.359,19.805,13.928s16.126,3.164,24.328,2.843c11.367-.444,23.868-3.362,30.306-12.741C153.416,492.012,154.7,486.775,155.223,481.462Z" transform="translate(-51.32 -361.576)" fill="#ff86a1"/>
            <g id="Grupo_1159204" data-name="Grupo 1159204" transform="translate(61.573 136.316)">
              <path id="Trazado_994598" data-name="Trazado 994598" d="M144.6,587.9c-2.92-4.613-5.514-9.461-8.086-14.278-1.8-3.361-4.151-6.612-4.872-10.434-.685-3.634-.8-9.57,1.182-12.827a6.943,6.943,0,0,1,5.939-3.428c2.853.091,5.23,2.193,7.019,4.417s3.329,4.752,5.714,6.321c1.237.814,2.656,1.335,3.851,2.209a15.808,15.808,0,0,1,3.207,3.537L169.4,578.13c1.4,1.9.163,4.01-2.011,2.386l-4.761-3.562a84.818,84.818,0,0,1,8.346,17.433c.282.817.324,2.056-.528,2.2a1.45,1.45,0,0,1-.931-.269,13.113,13.113,0,0,1-2.651-2.026c.965,1.7,3.261,6.219-.318,6.623a4.912,4.912,0,0,1-2.456-.524,1.947,1.947,0,0,1-.069,2.248c-1.4,1.782-3.459-.575-5-.944-.808-.193-1.814.3-2.842-.11a8.937,8.937,0,0,1-3.013-2.359A77.06,77.06,0,0,1,144.6,587.9Z" transform="translate(-131.196 -546.932)" fill="#ce7142"/>
              <path id="Trazado_994599" data-name="Trazado 994599" d="M164.983,614.971a92.232,92.232,0,0,1-11.22-17.861" transform="translate(-137.167 -560.208)" fill="none" stroke="#000" stroke-linecap="round" stroke-linejoin="round" stroke-miterlimit="10" stroke-width="1"/>
              <path id="Trazado_994600" data-name="Trazado 994600" d="M172.456,613.57a109.6,109.6,0,0,1-11.418-18.7" transform="translate(-139.092 -559.614)" fill="none" stroke="#000" stroke-linecap="round" stroke-linejoin="round" stroke-miterlimit="10" stroke-width="1"/>
              <path id="Trazado_994601" data-name="Trazado 994601" d="M177.343,606.975c-4.1-6.236-6.216-10.525-10.049-16.93" transform="translate(-140.747 -558.339)" fill="none" stroke="#000" stroke-linecap="round" stroke-linejoin="round" stroke-miterlimit="10" stroke-width="1"/>
            </g>
            <path id="Trazado_994602" data-name="Trazado 994602" d="M133.44,416.594q-1.255,9.853-1.59,19.8A215.728,215.728,0,0,0,134.166,476c1.473,9.694,6.923,19.993,2.947,29.52a2.788,2.788,0,0,0-.3,1.775,2.843,2.843,0,0,0,.538.928l2.724,3.562c-5.546,4.924-20.533,8.764-21.219,5.872-.111-.468-.295-.887-.385-1.359-.282-1.485-1.958-2.174-3.373-2.7-12.779-4.795-21.965-16.631-26.459-29.519C85.246,474.352,84.2,464,84.082,453.749c-.121-10.069-.093-19.4,1.9-29.4,1.372-6.876,2.857-13.736,4.782-20.479a59.807,59.807,0,0,1,6.186-15.188c2.884-4.665,6.948-8.746,12.014-10.847a14.611,14.611,0,0,1,8.061-1.113c3.071.544,5.761,2.331,8.293,4.152,3.356,2.412,6.747,5.124,8.384,8.919a21.964,21.964,0,0,1,1.349,8.065c.074,2.036.656,3.94.63,5.991C135.629,408.2,133.984,412.317,133.44,416.594Z" transform="translate(-57.147 -365.538)" fill="#ff86a1"/>
            <path id="Trazado_994603" data-name="Trazado 994603" d="M151.365,551.132a5.785,5.785,0,0,1-1.809,2.194,25.825,25.825,0,0,1-13.034,5.744" transform="translate(-71.032 -411.727)" fill="none" stroke="#000" stroke-linecap="round" stroke-linejoin="round" stroke-miterlimit="10" stroke-width="1"/>
            <path id="Trazado_994604" data-name="Trazado 994604" d="M174.141,587.687q-1.865-2.082-3.542-4.321" transform="translate(-80.048 -420.255)" fill="none" stroke="#000" stroke-linecap="round" stroke-linejoin="round" stroke-miterlimit="10" stroke-width="1"/>
          </g>
          <path id="Trazado_994605" data-name="Trazado 994605" d="M152.2,504.31c-7.3-26.736-20.049-63.293-22.225-90.921" transform="translate(-2000.533 2217.285)" fill="none" stroke="#000" stroke-linecap="round" stroke-linejoin="round" stroke-miterlimit="10" stroke-width="1"/>
          <g id="Grupo_1159207" data-name="Grupo 1159207" transform="translate(-1977.09 2516.462)">
            <g id="Grupo_1159206" data-name="Grupo 1159206">
              <path id="Trazado_994606" data-name="Trazado 994606" d="M-3.271,485.763c4.265,2.859,10.67,6.267,15.963,6.055,6.9-.276,15.12-.985,21.714-3.065,8.845-2.79,15.807-9.858,20.562-17.822s7.61-16.884,10.766-25.605a183.342,183.342,0,0,1,12.944-29c4.719-8.228,9.365-17.888,17.4-23.411a50.491,50.491,0,0,1,7.538-4.013l16.054-7.415a9.139,9.139,0,0,0-4.653-5.613,32.3,32.3,0,0,0-7.045-2.542c-5.478-1.575-10.867-3.579-16.509-4.391-6.8-.98-13.805-.2-20.521-1.655a11.054,11.054,0,0,0-3.486-.439,9.049,9.049,0,0,0-3.1,1.125,114.264,114.264,0,0,0-25.927,18.32c-7.291,6.857-15.527,11.575-23.406,17.646a82.068,82.068,0,0,0-20.28,22.042C-14.917,441.857-21.727,473.391-3.271,485.763Z" transform="translate(14.883 -286.855)" fill="#ffbd42"/>
              <path id="Trazado_994607" data-name="Trazado 994607" d="M158.594,335.338a17.568,17.568,0,0,0,12.744-3.977,32.995,32.995,0,0,0,8.4-10.7,59.893,59.893,0,0,0,6.6-34.217c-.4-3.693-1.2-7.5-3.473-10.436-3.4-4.4-9.318-5.952-14.853-6.459-.773-.071-1.919.576-1.363,1.118,8.163,7.955,8.921,20.145,8.2,31.52s-6.843,22.857-17.161,27.7c-1.366.641-3.04,1.527-2.979,3.036C154.783,334.834,156.68,335.473,158.594,335.338Z" transform="translate(-29.985 -261.118)" fill="#ffbd42"/>
              <path id="Trazado_994608" data-name="Trazado 994608" d="M141.649,315.8a20.375,20.375,0,0,0,4.335,9.972c4.5,5.052,12.379,5.711,18.257,2.587s9.844-9.356,11.751-15.978c3.465-12.038,4.979-41.589-14.514-36.123C146.727,280.4,139.011,301.412,141.649,315.8Z" transform="translate(-26.395 -262.72)" fill="#ce7142"/>
              <path id="Trazado_994609" data-name="Trazado 994609" d="M180.658,288.754a2.86,2.86,0,0,0,.543-1.065,5.787,5.787,0,0,0-.4-3.65c-.391-.99-.969-2.934-1.816-3.486-.769-.5-1.967-.48-2.845-1.067a10.634,10.634,0,0,0-4.919-1.871c-4.091-.451-9.725,1.6-13.077,3.855a23.767,23.767,0,0,0-7.352,8.577c-.427.791-3.989,10.4-3.293,10.445a5.955,5.955,0,0,0,4.507-2.086,10.4,10.4,0,0,0,2.256-10.358c1.96.527,4.547.872,6.4-.076.521-.266,4.568-3.88,3.456-4.58,2.942,1.851,6.042,4.485,9.337,5.579C175.459,289.634,179.035,290.708,180.658,288.754Z" transform="translate(-28.055 -263.238)"/>
              <path id="Trazado_994610" data-name="Trazado 994610" d="M146.554,277.969c-6.838,3.9-10.48,11.185-12.193,19.089a43.511,43.511,0,0,0,1.6,23.064c.557,1.638,1.187,3.5.361,5.021a5.187,5.187,0,0,1-1.524,1.586c-4.649,3.5-38.438,10.534-38.584,11.961.168-1.64,1.875-21.583.972-21.625-1.7-.078-3.66-.295-4.6-1.714a5.171,5.171,0,0,1-.664-2.264c-1.464-11.883,1.8-22.723,7.534-32.988,3.7-6.633,7.886-13.8,14.828-17.483a39.787,39.787,0,0,1,23.673-4.185,40.412,40.412,0,0,1,6.233,1.314,48.537,48.537,0,0,1,12.838,5.917,54.12,54.12,0,0,1,5.705,4.254c.9.766,1.805,1.548,2.631,2.394.791.81.946,2.083,1.288,3.155.059.184.1.418-.042.543a.4.4,0,0,1-.224.079,2.808,2.808,0,0,1-1.082-.246,13.454,13.454,0,0,0-2.731-.174c-.819-.09-1.619-.359-2.447-.445a23.4,23.4,0,0,0-9.316.906A21.392,21.392,0,0,0,146.554,277.969Z" transform="translate(-13.283 -258.089)" fill="#ffbd42"/>
              <path id="Trazado_994611" data-name="Trazado 994611" d="M90.026,356.9c.169.1.338.2.5.29a120.809,120.809,0,0,0,37.411,13.585,93.311,93.311,0,0,0,19.972,1.39c1.755-.073,14.307.212,10.342-4.268a11.352,11.352,0,0,0,2.493-2.122c3.015-3.671-1.369-9.19-5.5-9.205a6.545,6.545,0,0,0-3.905-12.257c2.352-2.821,4.592-5.342,5.7-8.974-2.544,2.589-4.645,4.236-8.439,3.514-6.615-1.259-12.591-4.747-18.086-8.641s-10.673-8.26-16.5-11.641a8.094,8.094,0,0,0-3.83-1.371c-3.5-.048-4.21,5.86-4.905,8.49a32.446,32.446,0,0,0-.724,13.174c-.386-2.517-7.272-3.09-9.008-3.014-3.32.146-5.458,2.443-5.8,5.822a11.328,11.328,0,0,0,1.949,7.072c-2.168.285-4.708,1.277-5.036,3.44C86.356,354.224,88.2,355.812,90.026,356.9Z" transform="translate(-11.975 -273.728)" fill="#ffbd42"/>
            </g>
            <path id="Trazado_994612" data-name="Trazado 994612" d="M164.83,340.186a36.488,36.488,0,0,1-29.374-21.806" transform="translate(-24.892 -274.04)" fill="none" stroke="#000" stroke-linecap="round" stroke-linejoin="round" stroke-miterlimit="10" stroke-width="1"/>
            <path id="Trazado_994613" data-name="Trazado 994613" d="M170.569,352.747a33.751,33.751,0,0,1-18.7-5.091" transform="translate(-29.233 -281.786)" fill="none" stroke="#000" stroke-linecap="round" stroke-linejoin="round" stroke-miterlimit="10" stroke-width="1"/>
            <path id="Trazado_994614" data-name="Trazado 994614" d="M159.681,363.757c-17.768,1.919-47.209-9.377-61.06-20.67" transform="translate(-15.147 -280.577)" fill="none" stroke="#000" stroke-linecap="round" stroke-linejoin="round" stroke-miterlimit="10" stroke-width="1"/>
            <path id="Trazado_994615" data-name="Trazado 994615" d="M164.888,386.832c4.141,1.035,11.957-.936,14.7-1.035" transform="translate(-32.679 -291.876)" fill="none" stroke="#000" stroke-linecap="round" stroke-linejoin="round" stroke-miterlimit="10" stroke-width="1"/>
            <path id="Trazado_994616" data-name="Trazado 994616" d="M87.748,368.375a59.822,59.822,0,0,1,10.746,4.9c11.767,5.883,27.761,11.4,40.187,12.261" transform="translate(-12.27 -287.267)" fill="none" stroke="#000" stroke-linecap="round" stroke-linejoin="round" stroke-miterlimit="10" stroke-width="1"/>
            <path id="Trazado_994617" data-name="Trazado 994617" d="M177.325,309.832a46.689,46.689,0,0,0-.015,8.936,5.062,5.062,0,0,1-.138,2.39,2.385,2.385,0,0,1-4.207.4" transform="translate(-34.816 -271.779)" fill="none" stroke="#000" stroke-linecap="round" stroke-linejoin="round" stroke-miterlimit="10" stroke-width="1"/>
            <path id="Trazado_994618" data-name="Trazado 994618" d="M164.5,330.6a5.77,5.77,0,0,0,8.6,5.525" transform="translate(-32.572 -277.274)" fill="none" stroke="#000" stroke-linecap="round" stroke-linejoin="round" stroke-miterlimit="10" stroke-width="1"/>
            <ellipse id="Elipse_11678" data-name="Elipse 11678" cx="1.795" cy="2.194" rx="1.795" ry="2.194" transform="translate(130.564 36.222)"/>
            <ellipse id="Elipse_11679" data-name="Elipse 11679" cx="1.795" cy="2.194" rx="1.795" ry="2.194" transform="translate(148.514 36.821)"/>
            <path id="Trazado_994619" data-name="Trazado 994619" d="M167.086,304.255a4.583,4.583,0,0,0-7.437-.989" transform="translate(-31.293 -269.651)" fill="none" stroke="#000" stroke-linecap="round" stroke-linejoin="round" stroke-miterlimit="10" stroke-width="1"/>
            <path id="Trazado_994620" data-name="Trazado 994620" d="M190.482,303.818a4.246,4.246,0,0,0-5.8-.29" transform="translate(-37.917 -269.844)" fill="none" stroke="#000" stroke-linecap="round" stroke-linejoin="round" stroke-miterlimit="10" stroke-width="1"/>
            <path id="Trazado_994621" data-name="Trazado 994621" d="M96.715,337.176A14.548,14.548,0,0,1,104,338.732a43.472,43.472,0,0,1,6.387,3.986" transform="translate(-14.642 -279.004)" fill="none" stroke="#000" stroke-linecap="round" stroke-linejoin="round" stroke-miterlimit="10" stroke-width="1"/>
            <path id="Trazado_994622" data-name="Trazado 994622" d="M139.81,313.449a34.415,34.415,0,0,1,1.805-26.753" transform="translate(-25.544 -265.657)" fill="none" stroke="#000" stroke-linecap="round" stroke-linejoin="round" stroke-miterlimit="10" stroke-width="1"/>
            <path id="Trazado_994623" data-name="Trazado 994623" d="M189.814,281.98a18.041,18.041,0,0,0-6.354-5.879" transform="translate(-37.593 -262.854)" fill="none" stroke="#000" stroke-linecap="round" stroke-linejoin="round" stroke-miterlimit="10" stroke-width="1"/>
            <path id="Trazado_994624" data-name="Trazado 994624" d="M168.73,272.236a21.037,21.037,0,0,0-8.4,1.161,62.956,62.956,0,0,0-7.826,3.391" transform="translate(-29.404 -261.815)" fill="none" stroke="#000" stroke-linecap="round" stroke-linejoin="round" stroke-miterlimit="10" stroke-width="1"/>
            <path id="Trazado_994625" data-name="Trazado 994625" d="M178.5,462.534a22.417,22.417,0,0,1-7.974,5.559" transform="translate(-34.171 -312.179)" fill="none" stroke="#000" stroke-linecap="round" stroke-linejoin="round" stroke-miterlimit="10" stroke-width="1"/>
            <path id="Trazado_994626" data-name="Trazado 994626" d="M121.356,410.574c-6.081,7.293-12.569,19.913-16.91,28.3" transform="translate(-16.688 -298.432)" fill="none" stroke="#000" stroke-linecap="round" stroke-linejoin="round" stroke-miterlimit="10" stroke-width="1"/>
          </g>
          <path id="Trazado_994627" data-name="Trazado 994627" d="M92.808,359.745a11.492,11.492,0,0,1,4.036,1.572c6.825,3.747,13.635,8.018,21.336,9.163" transform="translate(-1990.699 2231.477)" fill="none" stroke="#000" stroke-linecap="round" stroke-linejoin="round" stroke-miterlimit="10" stroke-width="1"/>
          <g id="Grupo_1159208" data-name="Grupo 1159208" transform="translate(-1964.448 2522.792)">
            <path id="Trazado_994628" data-name="Trazado 994628" d="M104.1,317.5a.736.736,0,0,0,0,1.471A.736.736,0,0,0,104.1,317.5Z" transform="translate(-29.05 -280.139)"/>
            <path id="Trazado_994629" data-name="Trazado 994629" d="M122.68,305.27a.736.736,0,0,0,0,1.471A.736.736,0,0,0,122.68,305.27Z" transform="translate(-33.966 -276.902)"/>
            <path id="Trazado_994630" data-name="Trazado 994630" d="M103.533,295.7a.736.736,0,0,0,0,1.471A.736.736,0,0,0,103.533,295.7Z" transform="translate(-28.901 -274.37)"/>
            <path id="Trazado_994631" data-name="Trazado 994631" d="M143.233,266.7a.736.736,0,0,0,0,1.471A.736.736,0,0,0,143.233,266.7Z" transform="translate(-39.404 -266.697)"/>
            <path id="Trazado_994632" data-name="Trazado 994632" d="M128.029,328.766a.736.736,0,0,0,0,1.471A.736.736,0,0,0,128.029,328.766Z" transform="translate(-35.382 -283.119)"/>
            <path id="Trazado_994633" data-name="Trazado 994633" d="M137.884,379.01a.736.736,0,0,0,0,1.471A.736.736,0,0,0,137.884,379.01Z" transform="translate(-37.989 -296.412)"/>
            <path id="Trazado_994634" data-name="Trazado 994634" d="M149.709,384.389a.736.736,0,0,0,0,1.471A.736.736,0,0,0,149.709,384.389Z" transform="translate(-41.117 -297.835)"/>
            <path id="Trazado_994635" data-name="Trazado 994635" d="M148.02,297.639a.736.736,0,0,0,0,1.471A.736.736,0,0,0,148.02,297.639Z" transform="translate(-40.671 -274.883)"/>
            <path id="Trazado_994636" data-name="Trazado 994636" d="M170.263,276.241a.736.736,0,0,0,0,1.471A.736.736,0,0,0,170.263,276.241Z" transform="translate(-46.556 -269.222)"/>
            <path id="Trazado_994637" data-name="Trazado 994637" d="M135.631,284.716a.736.736,0,0,0,0,1.471A.736.736,0,0,0,135.631,284.716Z" transform="translate(-37.393 -271.464)"/>
            <path id="Trazado_994638" data-name="Trazado 994638" d="M117.611,279.648a.736.736,0,0,0,0,1.471A.736.736,0,0,0,117.611,279.648Z" transform="translate(-32.625 -270.123)"/>
            <path id="Trazado_994639" data-name="Trazado 994639" d="M137.039,351.98a.736.736,0,0,0,0,1.471A.736.736,0,0,0,137.039,351.98Z" transform="translate(-37.765 -289.26)"/>
            <path id="Trazado_994640" data-name="Trazado 994640" d="M80.164,385.767a.736.736,0,0,0,0,1.471A.736.736,0,0,0,80.164,385.767Z" transform="translate(-22.718 -298.199)"/>
            <path id="Trazado_994641" data-name="Trazado 994641" d="M169.137,362.708a.736.736,0,0,0,0,1.471A.736.736,0,0,0,169.137,362.708Z" transform="translate(-46.258 -292.099)"/>
            <path id="Trazado_994642" data-name="Trazado 994642" d="M168.011,378.476a.736.736,0,0,0,0,1.471A.736.736,0,0,0,168.011,378.476Z" transform="translate(-45.96 -296.271)"/>
            <path id="Trazado_994643" data-name="Trazado 994643" d="M102.407,355.669a.736.736,0,0,0,0,1.471A.736.736,0,0,0,102.407,355.669Z" transform="translate(-28.603 -290.236)"/>
            <path id="Trazado_994644" data-name="Trazado 994644" d="M97.058,418.176a.736.736,0,0,0,0,1.471A.736.736,0,0,0,97.058,418.176Z" transform="translate(-27.188 -306.774)"/>
            <path id="Trazado_994645" data-name="Trazado 994645" d="M107.194,393.243a.736.736,0,0,0,0,1.471A.736.736,0,0,0,107.194,393.243Z" transform="translate(-29.869 -300.177)"/>
            <path id="Trazado_994646" data-name="Trazado 994646" d="M130,393.243a.736.736,0,0,0,0,1.471A.736.736,0,0,0,130,393.243Z" transform="translate(-35.903 -300.177)"/>
            <path id="Trazado_994647" data-name="Trazado 994647" d="M72.28,411.544a.736.736,0,0,0,0,1.471A.736.736,0,0,0,72.28,411.544Z" transform="translate(-20.632 -305.019)"/>
            <path id="Trazado_994648" data-name="Trazado 994648" d="M99.873,436.322a.736.736,0,0,0,0,1.471A.736.736,0,0,0,99.873,436.322Z" transform="translate(-27.932 -311.575)"/>
            <path id="Trazado_994649" data-name="Trazado 994649" d="M63.27,492.071a.736.736,0,0,0,0,1.471A.736.736,0,0,0,63.27,492.071Z" transform="translate(-18.248 -326.324)"/>
            <path id="Trazado_994650" data-name="Trazado 994650" d="M21.318,492.352a.736.736,0,0,0,0,1.471A.736.736,0,0,0,21.318,492.352Z" transform="translate(-7.149 -326.399)"/>
            <path id="Trazado_994651" data-name="Trazado 994651" d="M13.153,459.973a.736.736,0,0,0,0,1.471A.736.736,0,0,0,13.153,459.973Z" transform="translate(-4.989 -317.832)"/>
            <path id="Trazado_994652" data-name="Trazado 994652" d="M41.027,485.6a.736.736,0,0,0,0,1.471A.736.736,0,0,0,41.027,485.6Z" transform="translate(-12.363 -324.611)"/>
            <path id="Trazado_994653" data-name="Trazado 994653" d="M3.017,479.682a.736.736,0,0,0,0,1.471A.736.736,0,0,0,3.017,479.682Z" transform="translate(-2.307 -323.047)"/>
          </g>
          <g id="Grupo_1159210" data-name="Grupo 1159210" transform="translate(-1970.756 2590.212)">
            <path id="Trazado_994654" data-name="Trazado 994654" d="M53,464.391a34.01,34.01,0,0,0,5.267-5.764c3.415-4.746,8.149-10.6,9.578-16.339,1.38-5.547-2.06-10.822-7.874-9.975-5.936.864-11.156,5.013-13.972,10.219-3.32,6.136-3.668,13.55-2.232,20.377a5.358,5.358,0,0,0,1.709,3.39C47.658,467.882,50.5,466.485,53,464.391Z" transform="translate(-6.756 -377.911)"/>
            <path id="Trazado_994655" data-name="Trazado 994655" d="M87.661,440.5l2.581.572c1.035.229,2.3.707,2.365,1.764a2.061,2.061,0,0,1-.888,1.6c-3.754,3.137-8.3.286-12.454.62,2.333,2.44,6.278,4.2,9.223,5.8a69.55,69.55,0,0,1,11.064,7.154c2.236,1.84,4.031,5.108.785,6.967,1,1.322,2.578,2.478,2.544,4.135a3.222,3.222,0,0,1-2.015,2.681,8.816,8.816,0,0,1-3.466.572c1.483-.033-.507,4.018-1.43,4.385a7.507,7.507,0,0,1-3.665.168.661.661,0,0,1,.19.914,1.688,1.688,0,0,1-.831.614c-3.182,1.377-6.808-.3-10.028-.918a90.491,90.491,0,0,1-16.751-4.617,45.35,45.35,0,0,1-14.365-8.91c-6.51-6.166-3.768-17.825.957-24.34a11.385,11.385,0,0,1,6.876-4.733,17.271,17.271,0,0,1,6.833.58Z" transform="translate(-7.738 -378.587)" fill="#ff9869"/>
            <path id="Trazado_994656" data-name="Trazado 994656" d="M25.453,369.558q3.231,6.366,6.834,12.532c3.892,6.661,6.565,13.536,11.166,19.941,1.022,1.422,7.37,9.268,10.006,12.555-4.037,1.09-6.856,1.971-9.9,5.128A40.227,40.227,0,0,0,32.4,447.142c-8.858-5.209-15.924-12.683-22.1-20.785C4.261,418.428-.525,408.149-3.984,398.784c-1.47-3.98-2.716-8.775-2.143-13.074.495-3.713,3.59-7.227,5.837-10.088a66.306,66.306,0,0,1,9.76-10.028c.824-.684,10.531-7.515,10.665-7.213Q22.65,364.036,25.453,369.558Z" transform="translate(6.27 -358.372)" fill="#00a47d"/>
            <path id="Trazado_994657" data-name="Trazado 994657" d="M114.224,472.917c-6.348-2.673-12.834-5.432-17.909-10.088" transform="translate(-20.871 -386.008)" fill="none" stroke="#000" stroke-linecap="round" stroke-linejoin="round" stroke-miterlimit="10" stroke-width="1"/>
            <path id="Trazado_994658" data-name="Trazado 994658" d="M109.372,482.751a73.271,73.271,0,0,1-19.484-9.721" transform="translate(-19.171 -388.707)" fill="none" stroke="#000" stroke-linecap="round" stroke-linejoin="round" stroke-miterlimit="10" stroke-width="1"/>
            <path id="Trazado_994659" data-name="Trazado 994659" d="M102.575,489.378a58.154,58.154,0,0,1-18.484-7.291" transform="translate(-17.637 -391.103)" fill="none" stroke="#000" stroke-linecap="round" stroke-linejoin="round" stroke-miterlimit="10" stroke-width="1"/>
          </g>
          <path id="Trazado_994660" data-name="Trazado 994660" d="M51.912,402.715c-3.4-3.915-4.143-9.858-8.282-12.976" transform="translate(-1977.688 2223.542)" fill="none" stroke="#000" stroke-linecap="round" stroke-linejoin="round" stroke-miterlimit="10" stroke-width="1"/>
          <path id="Trazado_994661" data-name="Trazado 994661" d="M51.716,437.112a3.727,3.727,0,1,1-3.123-4.246A3.727,3.727,0,0,1,51.716,437.112Z" transform="translate(-1977.866 2212.143)" fill="#fff"/>
          <path id="Trazado_994662" data-name="Trazado 994662" d="M16.979,415.868a3.727,3.727,0,1,1-3.123-4.246A3.727,3.727,0,0,1,16.979,415.868Z" transform="translate(-1968.676 2217.764)" fill="#fff"/>
          <path id="Trazado_994663" data-name="Trazado 994663" d="M39.591,380.324a3.727,3.727,0,1,1-3.123-4.246A3.727,3.727,0,0,1,39.591,380.324Z" transform="translate(-1974.659 2227.168)" fill="#fff"/>
          <path id="Trazado_994664" data-name="Trazado 994664" d="M727.437,514.123c-.2,2.57-.471,5.286-2.008,7.355-3.031,4.078-9.3,3.671-14.044,1.847a36.854,36.854,0,0,1-14.8-10.5c-3.7-4.358-6.431-10.105-5.24-15.695a16.612,16.612,0,0,1,3.361-6.731,17.246,17.246,0,0,1,8.837-6.2c5.539-1.472,11.6.878,15.686,4.894C725.919,495.658,728.127,505.054,727.437,514.123Z" transform="translate(-2148.979 2198.669)"/>
          <g id="Grupo_1159212" data-name="Grupo 1159212" transform="translate(-1475.312 2611.254)">
            <path id="Trazado_994665" data-name="Trazado 994665" d="M670.871,516.777l-2,1.651c-.8.662-1.689,1.641-1.277,2.6a2.021,2.021,0,0,0,1.49,1c4.677,1.063,7.377-3.456,11.148-5.016-.948,3.171-3.607,6.466-5.463,9.18a68.183,68.183,0,0,0-6.466,11.182,6.888,6.888,0,0,0-.746,4.507c.491,1.74,1.544,1.969,3.109,2.288a5.135,5.135,0,0,0-1.055,3.769,3.093,3.093,0,0,0,2.652,2.614c1.393.086,2.577-.97,3.92-1.35a1.979,1.979,0,0,0,1.288,2.721,4.075,4.075,0,0,0,3.29-.76,31.955,31.955,0,0,1,2.863-1.984c-.416.211,1.361,1.84,1.647,1.923.922.266,1-.1,1.786-.368,1.834-.624,4.06-3.12,5.6-4.316a88.76,88.76,0,0,0,12.563-11.505,44.467,44.467,0,0,0,8.565-14.188c2.932-8.288-4.665-17.241-11.7-20.821a11.167,11.167,0,0,0-8.115-1.064,16.935,16.935,0,0,0-5.707,3.555Z" transform="translate(-667.411 -416.482)" fill="#86463a"/>
            <path id="Trazado_994666" data-name="Trazado 994666" d="M697.87,413.062c-1.484,7.707-1.625,16.017-1.713,23.76a130.5,130.5,0,0,1-1.463,18.069c-.295,1.945-2.634,13.039-3.59,17.675,7.525-1.594,15.416-.838,22.061,3.037a31.658,31.658,0,0,1,14.088,17.618c-.238-.755,3.821-5.866,4.36-6.818a75.438,75.438,0,0,0,3.8-7.72,77.261,77.261,0,0,0,4.878-16.41,81.255,81.255,0,0,0-8.112-51.457c-3.924-7.391-9.42-13.819-15.1-19.96-1.644-1.776-3.535-3.648-5.947-3.853-2.595-.22-4.928,1.59-6.589,3.595-4.91,5.925-4.541,13.131-6.181,20.164Q698.092,411.9,697.87,413.062Z" transform="translate(-673.68 -386.983)" fill="#e64f2e"/>
            <path id="Trazado_994667" data-name="Trazado 994667" d="M683.524,522.293l6.887-6.278" transform="translate(-671.674 -421.121)" fill="none" stroke="#000" stroke-linecap="round" stroke-linejoin="round" stroke-miterlimit="10" stroke-width="1"/>
            <path id="Trazado_994668" data-name="Trazado 994668" d="M670.263,554.542q7.365-8.888,14.34-18.089" transform="translate(-668.166 -426.529)" fill="none" stroke="#000" stroke-linecap="round" stroke-linejoin="round" stroke-miterlimit="10" stroke-width="1"/>
            <path id="Trazado_994669" data-name="Trazado 994669" d="M678.23,560.236a208.032,208.032,0,0,0,14.88-18.929" transform="translate(-670.273 -427.813)" fill="none" stroke="#000" stroke-linecap="round" stroke-linejoin="round" stroke-miterlimit="10" stroke-width="1"/>
            <path id="Trazado_994670" data-name="Trazado 994670" d="M688.552,561.252A93.028,93.028,0,0,0,702.8,543.106" transform="translate(-673.004 -428.289)" fill="none" stroke="#000" stroke-linecap="round" stroke-linejoin="round" stroke-miterlimit="10" stroke-width="1"/>
          </g>
          <path id="Trazado_994671" data-name="Trazado 994671" d="M699.059,420.074c-.153,5.742-1.069,12.557-1.222,18.3a246.1,246.1,0,0,1-2.147,25.1" transform="translate(-2150.205 2215.516)" fill="none" stroke="#000" stroke-linecap="round" stroke-linejoin="round" stroke-miterlimit="10" stroke-width="1"/>
        </g>
      </g>
    </g>
  </g>
</svg>
