<svg xmlns="http://www.w3.org/2000/svg" xmlns:xlink="http://www.w3.org/1999/xlink" width="610" height="282" viewBox="0 0 610 282">
  <defs>
    <clipPath id="clip-path">
      <rect id="Rectángulo_409713" data-name="Rectángulo 409713" width="610" height="282" transform="translate(180 2770)" fill="#fff" stroke="#707070" stroke-width="1"/>
    </clipPath>
    <clipPath id="clip-path-2">
      <rect id="Rectángulo_409712" data-name="Rectángulo 409712" width="610" height="473.175" fill="#97c2e6"/>
    </clipPath>
    <clipPath id="clip-path-3">
      <rect id="Rectángulo_409711" data-name="Rectángulo 409711" width="610" height="295" transform="translate(180 2757)" fill="#fff" stroke="#707070" stroke-width="1" opacity="0.41"/>
    </clipPath>
    <clipPath id="clip-path-4">
      <rect id="Rectángulo_409703" data-name="Rectángulo 409703" width="632.136" height="658.205" fill="none"/>
    </clipPath>
    <filter id="Trazado_994749" x="140.729" y="23.632" width="360.873" height="360.873" filterUnits="userSpaceOnUse">
      <feOffset dy="3" input="SourceAlpha"/>
      <feGaussianBlur stdDeviation="3" result="blur"/>
      <feFlood flood-opacity="0.161"/>
      <feComposite operator="in" in2="blur"/>
      <feComposite in="SourceGraphic"/>
    </filter>
    <clipPath id="clip-path-5">
      <path id="Trazado_994755" data-name="Trazado 994755" d="M130.1,251.527A171.437,171.437,0,1,0,301.537,80.091,171.437,171.437,0,0,0,130.1,251.527" transform="translate(-130.101 -80.091)" fill="none"/>
    </clipPath>
    <clipPath id="clip-path-7">
      <rect id="Rectángulo_409707" data-name="Rectángulo 409707" width="5.333" height="5.333" fill="none"/>
    </clipPath>
    <clipPath id="clip-path-8">
      <rect id="Rectángulo_409708" data-name="Rectángulo 409708" width="12.348" height="7.191" fill="none"/>
    </clipPath>
  </defs>
  <g id="Enmascarar_grupo_1098751" data-name="Enmascarar grupo 1098751" transform="translate(-180 -2770)" clip-path="url(#clip-path)">
    <g id="Grupo_1159260" data-name="Grupo 1159260">
      <g id="Grupo_1159259" data-name="Grupo 1159259" transform="translate(139 2271.947)" opacity="0.41">
        <g id="Grupo_1159258" data-name="Grupo 1159258" transform="translate(41 349)">
          <g id="Grupo_1159257" data-name="Grupo 1159257" clip-path="url(#clip-path-2)">
            <path id="Trazado_994912" data-name="Trazado 994912" d="M34.055,414.544c-3.37-75.234,33.877-139.852,90.1-176.265a41.883,41.883,0,0,0,18.768-30.542q.113-1.012.24-2.028C153.47,123.1,230.675,65.074,312.908,76.263c78.661,10.7,135.286,52.269,126.921,132.315-.038.376-.081.924-.128,1.618a38.226,38.226,0,0,0,37.451,40.669q6.851.162,13.8.884c93.843,9.806,161.917,94.14,151.924,188.292a170.691,170.691,0,0,1-54.582,108.015H99.116c-37.184-35.586-62.886-84.95-65.061-133.513" transform="translate(-33.845 -74.882)" fill="#97c2e6"/>
          </g>
        </g>
      </g>
      <g id="Enmascarar_grupo_1098750" data-name="Enmascarar grupo 1098750" clip-path="url(#clip-path-3)">
        <g id="Grupo_1159251" data-name="Grupo 1159251" transform="translate(1728 -147.499)">
          <path id="Trazado_994882" data-name="Trazado 994882" d="M574.205,500h0Z" transform="translate(-1513.937 2906.018)" fill="#fff"/>
          <g id="Grupo_1159238" data-name="Grupo 1159238" transform="translate(-1560 2911.617)">
            <path id="Trazado_994748" data-name="Trazado 994748" d="M454.375,234.271l19.229,9.341,10.238-18.766,21.366.713,1.72-21.308,19.809-8.039-7.1-20.166,14.827-15.4-14.683-15.536,7.28-20.1-19.733-8.22-1.525-21.324-21.371.517L474.37,77.121l-19.313,9.164L438.19,73.15,424.273,89.378l-20.751-5.14-6.113,20.485-21.047,3.745,2.747,21.2-17.7,11.981L372.539,159.9l-11.3,18.147,17.593,12.143-2.942,21.174L396.9,215.3l5.925,20.542,20.8-4.95,13.767,16.356Z" transform="translate(61.722 -76.81)" fill="#f9bd53"/>
          </g>
          <g id="Grupo_1159240" data-name="Grupo 1159240" transform="translate(-1547.681 2772)">
            <g id="Grupo_1159239" data-name="Grupo 1159239" clip-path="url(#clip-path-4)">
              <g transform="matrix(1, 0, 0, 1, -0.32, 145.5)" filter="url(#Trazado_994749)">
                <path id="Trazado_994749-2" data-name="Trazado 994749" d="M472.974,251.527A171.437,171.437,0,1,1,301.538,80.09,171.436,171.436,0,0,1,472.974,251.527" transform="translate(19.63 -50.46)" fill="#b2e8ed"/>
              </g>
            </g>
          </g>
          <g id="Grupo_1159242" data-name="Grupo 1159242" transform="translate(-1398.271 2947.132)">
            <g id="Grupo_1159241" data-name="Grupo 1159241" transform="translate(0 0)" clip-path="url(#clip-path-5)">
              <path id="Trazado_994750" data-name="Trazado 994750" d="M262.563,389.029c7.9-2.383,10.7-12.368,9.8-20.575s-4.178-16.27-3.166-24.462a23.893,23.893,0,0,1,5.336-12.306c5.1-6.115,13.873-11.206,12.823-19.1-.245-1.841-1.059-3.6-1.1-5.453-.152-6.207,7.5-9.293,10.771-14.575,4.2-6.791.388-15.523-3.429-22.538-1.874-3.444-1.609-7.9-3.484-11.344.717-5.625-3.119-10.832-7.43-14.515s-9.384-6.633-12.684-11.243c-1.28-1.788-2.3-3.824-4-5.213-2.458-2-5.842-2.274-8.991-2.634-6.778-.775-13.595-2.4-19.386-6.005s-10.467-9.416-11.509-16.157c-.79-5.108.508-10.282,1.8-15.288,1.069-4.158,2.231-8.494,5.108-11.682,3.782-4.192,10.7-7.179,9.984-12.779-.233-1.812-1.337-3.534-1.046-5.338.566-3.523,5.5-4.207,7.676-7.033,4.495-5.837-5.23-15.607-.212-21,2.321-2.5,6.5-2.149,9.184-4.246,2.722-2.123,3.116-6.231,1.983-9.493s-3.453-5.941-5.488-8.728a58.872,58.872,0,0,1-10.9-28.095c-33.73,12.295-66.294,25.154-93.782,48.247s-49.6,53.5-58.9,88.172a52.177,52.177,0,0,1,30.145,12.782c1.344,1.168,2.832,2.481,4.611,2.412a5.89,5.89,0,0,0,3.557-1.847c2.54-2.329,4.559-5.218,7.305-7.3s6.645-3.229,9.635-1.517c1.856,1.063,3.044,3.038,4.874,4.143,4.354,2.63,9.827-.637,13.616-4.031s8.37-7.354,13.283-6.037c2.19.588,4.064,2.2,6.319,2.437,2.066.219,4.049-.75,6.088-1.152,6.939-1.369,14.2,5.341,13.387,12.366-1.581,13.619-9.691,28.112-20.689,36.3-6.8,5.059-15.515,9.012-18.19,17.049-1.894,5.693-.122,11.883,1.648,17.615,1.7,5.5,3.717,11.447,8.535,14.606a28.389,28.389,0,0,1,4.313,2.779c2.266,2.165,2.7,5.559,3.143,8.662,1.106,7.8,3.694,16.383,10.634,20.119,3.233,1.741,7.021,2.176,10.344,3.74,11.145,5.244,13.069,20.392,21.568,29.307,5.19,5.443,12.946,8.658,16.195,15.441,1.667,3.482,3.729,8.643,7.383,7.4,1.646-.56,2.5-2.308,3.4-3.8,2.762-4.606,4.808-6.538,9.951-8.088" transform="translate(-135.828 -80.22)" fill="#dcfcff"/>
              <path id="Trazado_994751" data-name="Trazado 994751" d="M267.991,76.083a120.694,120.694,0,0,0,3.309,25.994c.372,1.554.864,3.233,2.171,4.153,1.216.857,2.816.83,4.3.962A17.754,17.754,0,0,1,292.584,118.7c.62,1.759,1.02,3.724,2.392,4.989,3.1,2.858,8.032.048,12.236.365,6.8.512,10.878,9.232,17.69,9.465,5.477.187,10.267-5.357,15.621-4.191,1.411.307,2.687,1.069,4.085,1.432,4.007,1.037,8.025-1.323,11.492-3.582,7.286-4.746,24.295-15.293,31.58-20.04-13.1-14.805-39.818-20.877-58.69-26.761s-41.234-4.516-61-4.293" transform="translate(-109.637 -80.73)" fill="#dcfcff"/>
              <path id="Trazado_994752" data-name="Trazado 994752" d="M406.426,370.472c-5.077-7.31-21.116-25.334-27.9-31.094s-15.5-9.788-24.373-9.116c-6.036.458-13.881,2.213-16.708-3.14-1.493-2.823-.928-7-3.722-8.546-2.6-1.441-5.74.814-8.714.694-5.457-.22-7.353-7.551-11.923-10.544-5.553-3.636-15.118-.958-17.878-6.995a10.672,10.672,0,0,1-.456-5.658,68.849,68.849,0,0,1,14.926-35.43c3.719-4.567,8.666-8.923,14.556-8.932,2.757,0,5.69.934,8.165-.281,2.091-1.027,3.217-3.3,4.917-4.9,2.665-2.5,6.588-3.173,9.5-5.375,4.789-3.616,5.765-10.292,6.363-16.262a28.356,28.356,0,0,0,0-8.479c-.7-3.427-2.63-6.452-4.383-9.478-3.708-6.393-6.836-13.374-7.141-20.76s2.7-15.254,8.978-19.153c1.563-.969,3.335-1.718,4.495-3.146,1.757-2.161,1.636-5.223,1.828-8,.814-11.847,28.544-36.113,39.951-39.409,19.838,18.423,55.642,63.6,61.487,90.035,11.085,50.12-25.579,119.939-51.97,163.965" transform="translate(-105.689 -74.692)" fill="#dcfcff"/>
              <path id="Trazado_994753" data-name="Trazado 994753" d="M387.925,360.721c-14.682-7.522-45.025-27.34-61.293-30.081-4.87-.821-10.714-1.075-13.837,2.752-1.133,1.39-1.733,3.157-2.892,4.525-4.018,4.737-12.107,2.451-17.335,5.806-7.126,4.572-4.953,16.27-10.772,22.419-3.291,3.477-8.672,4.6-11.469,8.488-3.1,4.3-1.925,10.368-3.982,15.254,37.678-3.551,93.873-3.383,121.58-29.163" transform="translate(-109.881 -42.981)" fill="#dcfcff"/>
              <path id="Trazado_994754" data-name="Trazado 994754" d="M138.973,347.292a42.447,42.447,0,0,0,5.734-43.057,6.83,6.83,0,0,0-2.768-3.549,12.649,12.649,0,0,0-2.922-.765c-5.143-1.22-8.151-6.832-8.528-12.1s1.186-10.463,1.9-15.7a49.245,49.245,0,0,0-1.787-21.262c-2.115-6.761-6.254-13.521-12.93-15.891-5.492-1.95-11.543-.562-17.2.853-1.139,38.938,14.865,80.508,38.5,111.475" transform="translate(-134.506 -57.249)" fill="#dcfcff"/>
            </g>
          </g>
          <g id="Grupo_1159250" data-name="Grupo 1159250" transform="translate(-1547.681 2772)">
            <g id="Grupo_1159249" data-name="Grupo 1159249" clip-path="url(#clip-path-4)">
              <path id="Trazado_994756" data-name="Trazado 994756" d="M367.167,184.081l11.94,26.689-25.285-18.964-25.285,6.322-28.8-5.619s-19.665-2.107-18.963-4.215-3.512-29.5-3.512-29.5l16.856-9.13,34.414-7.024,14.047-2.81,28.094,9.131,11.94,18.261Z" transform="translate(41.15 20.753)" fill="#fd715b"/>
              <path id="Trazado_994757" data-name="Trazado 994757" d="M328.538,198.128l-28.8-5.619s-19.665-2.106-18.964-4.214-3.511-29.5-3.511-29.5l16.855-9.13,34.416-7.024,14.046-2.809,28.095,9.13" transform="translate(41.15 20.753)" fill="none" stroke="#2b3440" stroke-miterlimit="10" stroke-width="0.8"/>
              <path id="Trazado_994758" data-name="Trazado 994758" d="M91.474,146.594c.238-6.648.018-13.292,1.744-18.617,1.7-5.239,5.276-9.2,13.02-10.641a141.1,141.1,0,0,1,26.394-2.371c.415,0,.831.01,1.247.023a15.222,15.222,0,0,1,4.084.328,19.01,19.01,0,0,1,10.5,4.522c9.386,8.626,10.08,38.588,2.077,50.365a85.652,85.652,0,0,1-23.483,26.454c-.887.657-1.849-.424-1.686-1.3a90.974,90.974,0,0,0,1.532-17.929,140.982,140.982,0,0,1-20.659-2.273c-14.026-2.606-15.189-16.791-14.769-28.564" transform="translate(23.632 23.349)" fill="#27cd6b"/>
              <path id="Trazado_994759" data-name="Trazado 994759" d="M128.245,114.964q.622,0,1.247.023a15.213,15.213,0,0,1,4.083.328,19,19,0,0,1,10.5,4.522c9.387,8.626,10.08,38.588,2.077,50.365a85.619,85.619,0,0,1-23.483,26.453c-.885.657-1.848-.424-1.686-1.3a90.887,90.887,0,0,0,1.532-17.929" transform="translate(28.637 23.348)" fill="none" stroke="#2b3440" stroke-miterlimit="10" stroke-width="0.8"/>
              <path id="Trazado_994760" data-name="Trazado 994760" d="M200.393,220.68l12.38,13.653c-.354.467-.7.943-1.012,1.434a18.485,18.485,0,0,0-3.062,10.4,20.45,20.45,0,0,0,4.07,11.416,30.877,30.877,0,0,0,2.207,2.755,30.282,30.282,0,0,0,2.654,2.507,31.925,31.925,0,0,0,6.58,4.394q1.838.928,3.866,1.748a34.692,34.692,0,0,0,4.181,1.269,39.481,39.481,0,0,0,9.167,1.192,41.052,41.052,0,0,0,4.857-.269l2.49-.3,2.483-.551a38.276,38.276,0,0,0,5.023-1.464q2.493-.959,5.006-2.114,2.453-1.325,4.783-2.779a44.027,44.027,0,0,0,4.421-3.256q1.053-.872,2.086-1.731l1.944-1.92c1.26-1.309,2.5-2.552,3.617-3.96a57.743,57.743,0,0,0,5.853-8.677c.816-1.507,1.6-2.937,2.261-4.463s1.243-3.048,1.766-4.528a47.611,47.611,0,0,0,2.2-8.708c.222-1.393.394-2.716.472-4.031q.1-2,.011-3.832c-.234-4.88-1.462-8.781-3.6-11.583a12.342,12.342,0,0,0-8.118-4.787,15.6,15.6,0,0,0-2.411-.189,24.818,24.818,0,0,0-2.589.039,44.73,44.73,0,0,0-5.456.9q-1.425.319-2.86.788c-.959.307-1.989.549-2.98.9-1.96.752-4.081,1.4-6.145,2.329-1.036.456-2.143.813-3.2,1.308-.535.237-1.068.489-1.6.753q-.83.322-1.657.687c-1.115.452-2.169,1.1-3.317,1.557q-1.7.739-3.376,1.662-1.738.753-3.381,1.65c-1.084.639-2.214,1.061-3.273,1.674q-.8.436-1.582.9c-.533.26-1.06.527-1.58.807-1.043.539-2.04,1.216-3.043,1.763-2.011,1.077-3.9,2.4-5.733,3.526-.912.583-1.787,1.285-2.647,1.888-.536.369-1.058.756-1.571,1.152Z" transform="translate(29.741 30.022)" fill="#f9bd53"/>
              <path id="Trazado_994761" data-name="Trazado 994761" d="M213.092,260.335a29.94,29.94,0,0,0,2.653,2.507,31.966,31.966,0,0,0,6.58,4.395q1.84.927,3.867,1.747a34.61,34.61,0,0,0,4.18,1.269,39.481,39.481,0,0,0,9.168,1.193,41.292,41.292,0,0,0,4.855-.27l2.491-.3,2.482-.551a38.278,38.278,0,0,0,5.023-1.464q2.493-.959,5.007-2.113,2.451-1.326,4.783-2.78a44.465,44.465,0,0,0,4.421-3.255q1.051-.873,2.086-1.732l1.944-1.919c1.26-1.31,2.5-2.553,3.616-3.96a57.826,57.826,0,0,0,5.855-8.679c.815-1.507,1.6-2.935,2.26-4.463s1.244-3.047,1.767-4.528a47.8,47.8,0,0,0,2.205-8.708c.22-1.393.393-2.716.472-4.03q.1-2,.011-3.832c-.234-4.881-1.462-8.781-3.6-11.584A12.349,12.349,0,0,0,277.1,202.5a15.735,15.735,0,0,0-2.409-.189,24.507,24.507,0,0,0-2.589.04,44.555,44.555,0,0,0-5.457.9q-1.425.319-2.858.789c-.96.305-1.989.548-2.98.9-1.96.752-4.081,1.4-6.145,2.329-1.037.457-2.143.814-3.2,1.308q-.8.357-1.6.755-.83.322-1.657.686c-1.114.452-2.169,1.1-3.315,1.557q-1.7.741-3.377,1.662-1.738.753-3.381,1.65c-1.084.64-2.214,1.061-3.273,1.676q-.8.434-1.582.9-.8.388-1.579.807" transform="translate(31.625 30.022)" fill="none" stroke="#2b3440" stroke-miterlimit="10" stroke-width="0.8"/>
              <path id="Trazado_994762" data-name="Trazado 994762" d="M476.307,147.609c.06-18.828-21.993-36.246-42.058-23-6.3,4.16-11.61,10.916-13.245,18.347-1.673,7.613,1.908,15.45,7.049,20.952a34.532,34.532,0,0,0,5.421,4.719,68.482,68.482,0,0,1-4.3,7.993c-.353.56.022,1.584.82,1.37a64.882,64.882,0,0,0,12.83-4.955,24.683,24.683,0,0,0,4.447.745c7.39.543,14.523-2.427,19.994-7.3,6.34-5.647,9.018-12.343,9.039-18.87" transform="translate(126.109 72.144)" fill="#8680f1"/>
              <path id="Trazado_994763" data-name="Trazado 994763" d="M449.294,119.965a26.44,26.44,0,0,0-15.044,4.642c-6.3,4.16-11.612,10.916-13.245,18.347-1.673,7.612,1.908,15.45,7.048,20.952a34.692,34.692,0,0,0,5.421,4.718,67.954,67.954,0,0,1-4.3,7.993c-.351.56.023,1.585.821,1.37" transform="translate(126.108 72.145)" fill="none" stroke="#2b3440" stroke-miterlimit="10" stroke-width="0.8"/>
              <rect id="Rectángulo_409704" data-name="Rectángulo 409704" width="127.456" height="11.591" transform="translate(257.118 364.262)" fill="none" stroke="#2b3440" stroke-linecap="round" stroke-linejoin="round" stroke-width="0.8"/>
              <line id="Línea_695" data-name="Línea 695" y2="183.783" transform="translate(320.995 375.853)" fill="none" stroke="#2b3440" stroke-linecap="round" stroke-linejoin="round" stroke-width="0.8"/>
              <path id="Trazado_994764" data-name="Trazado 994764" d="M248.429,522.86l35.548-35.548,35.547,35.548" transform="translate(36.87 72.323)" fill="none" stroke="#2b3440" stroke-linecap="round" stroke-linejoin="round" stroke-width="0.8"/>
              <rect id="Rectángulo_409705" data-name="Rectángulo 409705" width="117.3" height="11.591" transform="translate(399.602 424.663)" fill="none" stroke="#2b3440" stroke-linecap="round" stroke-linejoin="round" stroke-width="0.8"/>
              <path id="Trazado_994765" data-name="Trazado 994765" d="M343.538,538.8,363.85,379.876h86.832L470.995,538.8" transform="translate(50.985 56.378)" fill="none" stroke="#2b3440" stroke-linecap="round" stroke-linejoin="round" stroke-width="0.8"/>
              <line id="Línea_696" data-name="Línea 696" x2="109.116" transform="translate(403.506 527.161)" fill="none" stroke="#2b3440" stroke-linecap="round" stroke-linejoin="round" stroke-width="0.8"/>
              <rect id="Rectángulo_409706" data-name="Rectángulo 409706" width="117.3" height="11.591" transform="translate(126.377 424.663)" fill="none" stroke="#2b3440" stroke-linecap="round" stroke-linejoin="round" stroke-width="0.8"/>
              <path id="Trazado_994766" data-name="Trazado 994766" d="M105.623,538.8l20.312-158.929h86.832L233.079,538.8" transform="translate(15.676 56.378)" fill="none" stroke="#2b3440" stroke-linecap="round" stroke-linejoin="round" stroke-width="0.8"/>
              <line id="Línea_697" data-name="Línea 697" x2="109.116" transform="translate(130.281 527.161)" fill="none" stroke="#2b3440" stroke-linecap="round" stroke-linejoin="round" stroke-width="0.8"/>
              <path id="Trazado_994767" data-name="Trazado 994767" d="M465.159,318.262s22.543,40.772,2.18,61H373l14.587,107.359s8.372,4.971,7.588,10.2-19.885,34.014-29.566,33.49c0,0-2.616-2.094,0-8.9s6.279-21.977,2.878-34.8-38.722-91.835-38.722-91.835l-20.669,53.375s-1.047,3.4-17.531.523-42.646-12.82-27.733-16.221,29.565-3.14,32.443-11.512,13.605-92.1,13.605-92.1,3.4-30.088,32.182-20.407l48.033,29.827,5.3-.262a69.29,69.29,0,0,1,8.675-19.754Z" transform="translate(38.498 45.493)" fill="#f9bd53"/>
              <path id="Trazado_994768" data-name="Trazado 994768" d="M305.944,351.921c-3.368,24.946-7.941,57.26-9.673,62.3-2.878,8.372-17.529,8.11-32.443,11.512s11.25,13.343,27.733,16.221,17.531-.523,17.531-.523l20.669-53.375,9.161-22.5c-4.87-9.959-25.362-12.882-32.978-13.633" transform="translate(38.497 52.229)" fill="#f9aa87"/>
              <path id="Trazado_994769" data-name="Trazado 994769" d="M263.829,417.7c-14.913,3.4,11.251,13.343,27.734,16.221s17.529-.524,17.529-.524l6.181-15.961c-3.521,2.7-10.035,6.584-9.844-1.831.262-11.512-9.157-9.418-9.157-9.418-2.878,8.372-17.529,8.11-32.443,11.512" transform="translate(38.497 60.261)" fill="#404f60"/>
              <path id="Trazado_994770" data-name="Trazado 994770" d="M273.508,418.835c-7.428-1.561-11.607-1.37-13.966-.635-2.045,4.342,18.325,11.607,32.019,14,10.826,1.89,14.994,1.073,16.578.287-4.813-5.883-21.97-10.99-34.632-13.65" transform="translate(38.498 61.984)" fill="#2b3440"/>
              <path id="Trazado_994771" data-name="Trazado 994771" d="M376.075,472.331l-9.439-69.47c-9.776,11.221-24.238,17.884-29.7,20.124,9.07,20.957,18.376,43.073,20.04,49.346,3.4,12.82-.262,27.995-2.878,34.8s0,8.9,0,8.9c9.68.524,28.78-28.257,29.565-33.49s-7.588-10.2-7.588-10.2" transform="translate(50.005 59.789)" fill="#f9aa87"/>
              <path id="Trazado_994772" data-name="Trazado 994772" d="M365.112,472.074a11.136,11.136,0,0,0-9.278-4.033c1.608,11.646-1.5,24.121-3.8,30.11-2.617,6.8,0,8.9,0,8.9,9.68.523,28.78-28.257,29.565-33.49s-7.588-10.2-7.588-10.2c.7,8.024-3.14,15.35-8.9,8.721" transform="translate(52.073 68.767)" fill="#404f60"/>
              <line id="Línea_698" data-name="Línea 698" x1="2.028" y1="10.116" transform="translate(409.466 414.644)" fill="none" stroke="#2b3440" stroke-linecap="round" stroke-linejoin="round" stroke-width="0.75"/>
              <line id="Línea_699" data-name="Línea 699" x1="6.738" transform="translate(411.494 424.76)" fill="#2b3440"/>
              <path id="Trazado_994773" data-name="Trazado 994773" d="M320.668,391.078l21.427-52.625,38.9-3.888,33.074-3.009" transform="translate(47.591 49.207)" fill="none" stroke="#2b3440" stroke-linecap="round" stroke-linejoin="round" stroke-width="0.75"/>
              <line id="Línea_700" data-name="Línea 700" y1="6.288" x2="2.557" transform="translate(389.685 381.372)" fill="none" stroke="#2b3440" stroke-linecap="round" stroke-linejoin="round" stroke-width="0.75"/>
              <path id="Trazado_994774" data-name="Trazado 994774" d="M397.408,316.746s-3.816,9.77-3.827,16.855" transform="translate(58.412 47.009)" fill="none" stroke="#2b3440" stroke-linecap="round" stroke-linejoin="round" stroke-width="0.75"/>
              <line id="Línea_701" data-name="Línea 701" x2="28.213" transform="translate(475.443 363.755)" fill="#2b3440"/>
              <path id="Trazado_994775" data-name="Trazado 994775" d="M388.415,236.35l-17.267,9.157s-10.858,7.98-13.083,19.23c-1.34,6.781-2.824,24.543-3.79,37.583L382.4,315.495s6.933,9.026,7.587,13.474h61.092l.916-20.931,5.232,6.149,29.275-10.15s-3.894-8.26-7.134-14.314c-6.243-11.664-15.378-26.682-25.629-36.934,0,0-9.594-9.419-19.536-12.559-6.428-2.029-28.52-5.843-28.52-5.843Z" transform="translate(52.578 34.786)" fill="#fff"/>
              <path id="Trazado_994776" data-name="Trazado 994776" d="M380.684,310.44a79.094,79.094,0,0,0-9.157-8.372c-4.841-3.663-7.195-8.766-4.71-19.1s1.439-14.521,1.439-14.521" transform="translate(54.291 39.841)" fill="none" stroke="#2b3440" stroke-linecap="round" stroke-linejoin="round" stroke-width="0.75"/>
              <line id="Línea_702" data-name="Línea 702" x1="8.896" y1="11.251" transform="translate(486.257 318.884)" fill="none" stroke="#2b3440" stroke-linecap="round" stroke-linejoin="round" stroke-width="0.75"/>
              <line id="Línea_703" data-name="Línea 703" x2="1.046" y2="5.19" transform="translate(440.994 271.135)" fill="none" stroke="#2b3440" stroke-linecap="round" stroke-linejoin="round" stroke-width="0.75"/>
              <path id="Trazado_994777" data-name="Trazado 994777" d="M442.87,249.655s-10.993-4.372-15.892-11.516c0,0,7.5-5.684,6.544-13.169s-7.3-27.3-14.912-29.717-23.834-2.958-28.871,6.683c-2.5,4.781-5.731,16.8-3.877,25.026-4.226,5.561-4.524,18.108-4.524,18.108l-10.851,8.9s5.67,26.4,24.2,24.738l4.561-1.233s-4.889,18.7-6.01,32.436l24.406.237s.95-38.706,6.076-48.542Z" transform="translate(54.984 28.756)" fill="#27cd6b"/>
              <line id="Línea_704" data-name="Línea 704" y1="15.871" x2="24.474" transform="translate(454.229 290.355)" fill="none" stroke="#2b3440" stroke-miterlimit="10" stroke-width="0.8"/>
              <line id="Línea_705" data-name="Línea 705" x1="10.774" y2="8.363" transform="translate(471.189 266.895)" fill="none" stroke="#2b3440" stroke-miterlimit="10" stroke-width="0.8"/>
              <path id="Trazado_994778" data-name="Trazado 994778" d="M386.294,224.427s-.354,22.685,5.062,23.681,12.023-7.932,12.023-7.932" transform="translate(57.33 33.307)" fill="none" stroke="#2b3440" stroke-miterlimit="10" stroke-width="0.8"/>
              <path id="Trazado_994779" data-name="Trazado 994779" d="M379.938,238.438s-.626,15.357,5.91,19.884" transform="translate(56.385 35.387)" fill="none" stroke="#2b3440" stroke-miterlimit="10" stroke-width="0.8"/>
              <path id="Trazado_994780" data-name="Trazado 994780" d="M409.6,227.353s4.555-24.955-6.842-28-14.008,12.1-15.365,17.07c0,0-6.842,2.669-5.517,9.659s15.678,9.148,27.724,1.268" transform="translate(56.65 29.527)" fill="#f9aa87"/>
              <g id="Grupo_1159245" data-name="Grupo 1159245" transform="translate(455.911 250.161)" opacity="0.5" style="mix-blend-mode: multiply;isolation: isolate">
                <g id="Grupo_1159244" data-name="Grupo 1159244">
                  <g id="Grupo_1159243" data-name="Grupo 1159243" clip-path="url(#clip-path-7)">
                    <path id="Trazado_994781" data-name="Trazado 994781" d="M397,220.6a2.667,2.667,0,1,0,2.564-2.765A2.666,2.666,0,0,0,397,220.6" transform="translate(-396.993 -217.832)" fill="#f9aa87"/>
                  </g>
                </g>
              </g>
              <path id="Trazado_994782" data-name="Trazado 994782" d="M389.222,206.868c2.169-4.931,5.82-9.275,12.424-7.512,4.38,1.169,6.4,5.577,7.232,10.557-3.938-1.587-12.146-4.3-19.655-3.046" transform="translate(57.765 29.527)" fill="#fff"/>
              <line id="Línea_706" data-name="Línea 706" x1="3.131" y2="11.593" transform="translate(463.122 256.88)" fill="none" stroke="#2b3440" stroke-miterlimit="10" stroke-width="0.8"/>
              <path id="Trazado_994783" data-name="Trazado 994783" d="M394.985,212.141l-1.268,3.488s-.926,1.37-2.007,1.411l2.7.815" transform="translate(58.134 31.484)" fill="none" stroke="#2b3440" stroke-linecap="round" stroke-linejoin="round" stroke-width="0.8"/>
              <path id="Trazado_994784" data-name="Trazado 994784" d="M399.058,213.43a.626.626,0,1,0,.6-.649.627.627,0,0,0-.6.649" transform="translate(59.225 31.579)" fill="#2b3440"/>
              <path id="Trazado_994785" data-name="Trazado 994785" d="M391.111,213.185a.626.626,0,1,0,.6-.65.626.626,0,0,0-.6.65" transform="translate(58.045 31.543)" fill="#2b3440"/>
              <line id="Línea_707" data-name="Línea 707" x1="2.18" y1="0.255" transform="translate(458.151 241.516)" fill="none" stroke="#2b3440" stroke-miterlimit="10" stroke-width="0.8"/>
              <line id="Línea_708" data-name="Línea 708" x1="2.312" y2="0.087" transform="translate(448.594 241.162)" fill="none" stroke="#2b3440" stroke-miterlimit="10" stroke-width="0.8"/>
              <path id="Trazado_994786" data-name="Trazado 994786" d="M392.434,220.978s3.867,1.95,3.719-1.955" transform="translate(58.242 32.505)" fill="none" stroke="#2b3440" stroke-linecap="round" stroke-linejoin="round" stroke-width="0.8"/>
              <path id="Trazado_994787" data-name="Trazado 994787" d="M387.5,327.908c1.283-6.064,2.357-18.146,2.575-20.7-2.752-4.465-9.116-8.862-9.116-8.862L362,293.541c-.636,8.592-1.05,15.137-1.05,15.137s-27.865-8.373-34.667-7.98-16.221,13.736-21.455,15.568-1.963,4.71,4.71,2.092c0,0-2.878,3.925-3.009,5.5s2.878,0,2.878,0-1.57,2.485-.262,3.662,9.943-10.2,13.343-12.166a83.411,83.411,0,0,1,8.635-4.055s-3.533,4.71-7.719,6.41c-1.955.794-.655,3.924,3.531,2.747s9.419-2.943,12.952-6.933L379,337.2s7.064-2.486,8.5-9.288" transform="translate(44.855 43.565)" fill="#f9aa87"/>
              <line id="Línea_709" data-name="Línea 709" x2="11.381" y2="3.402" transform="translate(405.804 352.243)" fill="none" stroke="#2b3440" stroke-linecap="round" stroke-linejoin="round" stroke-width="0.75"/>
              <path id="Trazado_994788" data-name="Trazado 994788" d="M308.479,321.834s4.186-6.933,8.242-10.989l3.7-3.7" transform="translate(45.782 45.584)" fill="none" stroke="#2b3440" stroke-linecap="round" stroke-linejoin="round" stroke-width="0.75"/>
              <line id="Línea_710" data-name="Línea 710" y1="10.107" x2="7.954" transform="translate(354.392 351.816)" fill="none" stroke="#2b3440" stroke-linecap="round" stroke-linejoin="round" stroke-width="0.75"/>
              <line id="Línea_711" data-name="Línea 711" y1="2.551" x2="1.635" transform="translate(384.742 354.533)" fill="none" stroke="#2b3440" stroke-linecap="round" stroke-linejoin="round" stroke-width="0.75"/>
              <path id="Trazado_994789" data-name="Trazado 994789" d="M424.1,356.274s-8.111,2.354-10.6,2.354-3.533,5.757,5.3,4.71Z" transform="translate(61.109 52.875)" fill="#f9aa87"/>
              <g id="Grupo_1159248" data-name="Grupo 1159248" transform="translate(472.863 409.149)" opacity="0.5" style="mix-blend-mode: multiply;isolation: isolate">
                <g id="Grupo_1159247" data-name="Grupo 1159247">
                  <g id="Grupo_1159246" data-name="Grupo 1159246" clip-path="url(#clip-path-8)">
                    <path id="Trazado_994790" data-name="Trazado 994790" d="M424.1,356.274s-8.111,2.354-10.6,2.354-3.533,5.757,5.3,4.71Z" transform="translate(-411.754 -356.274)" fill="#f9aa87"/>
                  </g>
                </g>
              </g>
              <path id="Trazado_994791" data-name="Trazado 994791" d="M458.577,375.515c3.291-6.995,19.007-46.99,20.184-69.651a14.967,14.967,0,0,0-1.376-7.042,263.051,263.051,0,0,0-15.833-29.293c-13.773,4.861-28.092,20.6-28.092,20.6l9.418,12.689,5.233,6.149s-1.832,51.15-7.064,60.177c0,0-11.513-6.889-14.478-5.232-2.275,1.271-7.732,8.753-10.15,12.168a3.927,3.927,0,0,0-.482,3.626l1.391,3.806a3.621,3.621,0,0,0,3.4,2.377H433.2a4.712,4.712,0,0,0,3.052-1.133h15.175s3.662-1.832,7.151-9.245" transform="translate(61.694 40.001)" fill="#f9aa87"/>
              <path id="Trazado_994792" data-name="Trazado 994792" d="M421.253,372.951v-7.9a3.864,3.864,0,0,1,.605-2.076l3.973-6.245" transform="translate(62.519 52.943)" fill="none" stroke="#2b3440" stroke-linecap="round" stroke-linejoin="round" stroke-width="0.75"/>
              <path id="Trazado_994793" data-name="Trazado 994793" d="M423.759,372.715l3.2-8.989a3.832,3.832,0,0,1,.559-1.036l3.3-4.366" transform="translate(62.891 53.179)" fill="none" stroke="#2b3440" stroke-linecap="round" stroke-linejoin="round" stroke-width="0.75"/>
              <line id="Línea_712" data-name="Línea 712" y1="10.989" x2="8.634" transform="translate(490.182 414.905)" fill="none" stroke="#2b3440" stroke-linecap="round" stroke-linejoin="round" stroke-width="0.75"/>
              <line id="Línea_713" data-name="Línea 713" y1="6.061" x2="6.627" transform="translate(497.944 418.699)" fill="none" stroke="#2b3440" stroke-linecap="round" stroke-linejoin="round" stroke-width="0.75"/>
              <line id="Línea_714" data-name="Línea 714" x2="6.191" y2="3.663" transform="translate(502.74 409.149)" fill="none" stroke="#2b3440" stroke-linecap="round" stroke-linejoin="round" stroke-width="0.75"/>
              <line id="Línea_715" data-name="Línea 715" x2="28.213" transform="translate(475.443 363.755)" fill="none" stroke="#2b3440" stroke-linecap="round" stroke-linejoin="round" stroke-width="0.75"/>
              <line id="Línea_716" data-name="Línea 716" x2="27.314" y2="12.053" transform="translate(227.107 525.325)" fill="none" stroke="#2b3440" stroke-linecap="round" stroke-linejoin="round" stroke-width="0.8"/>
              <path id="Trazado_994794" data-name="Trazado 994794" d="M256.378,492.874s6.523,10.983,11.891,13.75,18.48,1.9,20.848,15.284l-49.657.059s-3.561-11.521-2.678-19.052Z" transform="translate(35.12 73.148)" fill="#8680f1"/>
              <path id="Trazado_994795" data-name="Trazado 994795" d="M110.484,327.134s-6.333,32.708,23.408,53.15,73.992,44.492,73.992,44.492l44.973,103.893,26.815-10.341L257.667,418.281s11.3-38,3.127-50.263-70.707-40.885-70.707-40.885Z" transform="translate(16.313 48.55)" fill="#404f60"/>
              <path id="Trazado_994796" data-name="Trazado 994796" d="M246.5,414.979,241.314,396.4a34.445,34.445,0,0,0-14.278-19.539l-41.863-27.48" transform="translate(27.482 51.852)" fill="none" stroke="#fff" stroke-linecap="round" stroke-linejoin="round" stroke-width="0.8"/>
              <line id="Línea_717" data-name="Línea 717" x1="29.396" y2="10.784" transform="translate(263.727 553.86)" fill="none" stroke="#2b3440" stroke-linecap="round" stroke-linejoin="round" stroke-width="0.8"/>
              <path id="Trazado_994797" data-name="Trazado 994797" d="M220.847,480.369s3.368,10.4,7.829,14.475,17.349,6.642,16.149,20.186l-48.9-13.549s2.106-17.4,3.059-28.961Z" transform="translate(29.077 70.127)" fill="#8680f1"/>
              <path id="Trazado_994798" data-name="Trazado 994798" d="M125.908,336.977s6.253,7.576,0,22.787" transform="translate(18.686 50.011)" fill="none" stroke="#fff" stroke-linecap="round" stroke-linejoin="round" stroke-width="0.8"/>
              <path id="Trazado_994799" data-name="Trazado 994799" d="M201.18,419.067l-4.489,60.605,25.011,8.978,8.659-38.8Z" transform="translate(29.191 62.194)" fill="#404f60"/>
              <line id="Línea_718" data-name="Línea 718" x2="29.028" y2="67.061" transform="translate(224.198 473.325)" fill="none" stroke="#fff" stroke-linecap="round" stroke-linejoin="round" stroke-width="0.8"/>
              <path id="Trazado_994800" data-name="Trazado 994800" d="M234.87,306.042l26.515,21.323-15.261,11.854-43.359-15.38s21.042-21.645,32.106-17.8" transform="translate(30.092 45.352)" fill="#fd715b"/>
              <path id="Trazado_994801" data-name="Trazado 994801" d="M240.028,335.94c1.22,1.792,5.837.774,10.314-2.273s7.116-6.97,5.9-8.761-5.836-.774-10.313,2.273-7.117,6.97-5.9,8.761" transform="translate(35.579 48.088)" fill="#2b3440"/>
              <path id="Trazado_994802" data-name="Trazado 994802" d="M227.1,309.232a8.14,8.14,0,0,0,6.253,0l5.932,3.891s.117-9.453-4.158-15.177a7.328,7.328,0,0,0-5.07-2.853l-11.4-1.277Z" transform="translate(32.451 43.606)" fill="#f7bc8b"/>
              <line id="Línea_719" data-name="Línea 719" y1="1.444" x2="2.646" transform="translate(265.804 351.394)" fill="none" stroke="#2b3440" stroke-linecap="round" stroke-linejoin="round" stroke-width="0.8"/>
              <path id="Trazado_994803" data-name="Trazado 994803" d="M252.338,324.189s5.449,3.622,7.794,8.071,2.345,17.8,3.126,23.028-.6,9.981-2.886,9.92c0,0-1.442,4.63-2.885,4.991,0,0,.361,3.787-.722,4.509s-3.607-.3-4.209-3.186-1.623-14.009-3.005-17.135a15.89,15.89,0,0,0-3.187-4.819s-.3,10.47-4.209,11.732-1.2-8.8-1.563-11.732-1.6-15.323.922-18.51c0,0,3.067-4.945,10.824-6.869" transform="translate(35.614 48.113)" fill="#f7bc8b"/>
              <path id="Trazado_994804" data-name="Trazado 994804" d="M255.517,366.46s-1.143-13.768-2.285-17.075" transform="translate(37.582 51.853)" fill="none" stroke="#2b3440" stroke-linecap="round" stroke-linejoin="round" stroke-width="0.8"/>
              <path id="Trazado_994805" data-name="Trazado 994805" d="M257.9,361.672s-.361-9.62-1.262-13.648" transform="translate(38.088 51.651)" fill="none" stroke="#2b3440" stroke-linecap="round" stroke-linejoin="round" stroke-width="0.8"/>
              <path id="Trazado_994806" data-name="Trazado 994806" d="M155.826,232.164l-24.5,8.667a20.2,20.2,0,0,0-8.314,5.531c-3.5,3.9-7.877,10.772-10.352,22.237-4.57,21.164-2.165,72.63-2.165,72.63H147.77l12.024,18.037s9.139,12.506,23.809,8.418,59.644-49.3,59.644-49.3.24-12.506-10.1-16.113l-3.126,1.2-21.4-44.01s-4.892-10.12-13.949-15.151a186.888,186.888,0,0,0-16.955-8.418Z" transform="translate(16.305 34.456)" fill="#fd715b"/>
              <line id="Línea_720" data-name="Línea 720" x1="49.622" y2="27.738" transform="translate(196.702 337.927)" fill="none" stroke="#2b3440" stroke-linecap="round" stroke-linejoin="round" stroke-width="0.8"/>
              <line id="Línea_721" data-name="Línea 721" x1="34.447" y1="62.966" transform="translate(168.644 299.127)" fill="none" stroke="#2b3440" stroke-linecap="round" stroke-linejoin="round" stroke-width="0.8"/>
              <line id="Línea_722" data-name="Línea 722" x1="13.868" y1="23.889" transform="translate(150.206 351.795)" fill="none" stroke="#2b3440" stroke-linecap="round" stroke-linejoin="round" stroke-width="0.8"/>
              <path id="Trazado_994807" data-name="Trazado 994807" d="M190.379,275.688s-1.537,22.852-5.177,40.125" transform="translate(27.486 40.915)" fill="none" stroke="#2b3440" stroke-linecap="round" stroke-linejoin="round" stroke-width="0.8"/>
              <path id="Trazado_994808" data-name="Trazado 994808" d="M175.742,237.1s8.3,18.988-7.607,22.354-22.96-25.622-22.96-25.622" transform="translate(21.546 34.703)" fill="none" stroke="#2b3440" stroke-linecap="round" stroke-linejoin="round" stroke-width="0.8"/>
              <line id="Línea_723" data-name="Línea 723" x1="17.143" y2="16.526" transform="translate(242.407 352.837)" fill="#fd715b"/>
              <path id="Trazado_994809" data-name="Trazado 994809" d="M152.171,210.567s-2.767-13.709,7.454-16.233,17.916,3.366,19.721,16.233a12.669,12.669,0,0,1,5.411,13.107c-1.562,9.018-10.7,6.974-10.7,6.974l-2.285,10.943s6.614,15.632-5.771,17.8-16.115-21.524-16.115-21.524l5.892-14.911Z" transform="translate(22.245 28.756)" fill="#f7bc8b"/>
              <path id="Trazado_994810" data-name="Trazado 994810" d="M151.92,210.567s-2.767-13.709,7.454-16.233c8-1.978,14.442,1.227,17.734,8.878-5.924,3.334-15.208,1.943-15.208,1.943-1.013,7.52-5.587,10.407-8.218,11.46Z" transform="translate(22.496 28.757)" fill="#2b3440"/>
              <path id="Trazado_994811" data-name="Trazado 994811" d="M149.446,216.962c1.439,2.993,4.522,4.5,6.886,3.36s3.114-4.485,1.676-7.477-4.522-4.5-6.887-3.36-3.113,4.485-1.674,7.477" transform="translate(22.071 31.034)" fill="#f7bc8b"/>
              <path id="Trazado_994812" data-name="Trazado 994812" d="M171.787,226.281a22.229,22.229,0,0,1-6.619-3.087s2.512,5.081,5.888,6.588Z" transform="translate(24.513 33.124)" fill="#2b3440"/>
              <line id="Línea_724" data-name="Línea 724" x1="4.33" y1="2.715" transform="translate(173.856 243.681)" fill="none" stroke="#2b3440" stroke-linecap="round" stroke-linejoin="round" stroke-width="0.8"/>
              <path id="Trazado_994813" data-name="Trazado 994813" d="M152.933,213.131a2.628,2.628,0,0,0,.782,3.43" transform="translate(22.647 31.631)" fill="none" stroke="#2b3440" stroke-linecap="round" stroke-linejoin="round" stroke-width="0.8"/>
              <path id="Trazado_994814" data-name="Trazado 994814" d="M171.309,216.629l-2.725-.51s-.8,2.755.882,3.235,1.843-2.725,1.843-2.725" transform="translate(24.991 32.074)" fill="#fff"/>
              <line id="Línea_725" data-name="Línea 725" x1="1.563" y2="6.012" transform="translate(192.453 270.347)" fill="none" stroke="#2b3440" stroke-linecap="round" stroke-linejoin="round" stroke-width="0.8"/>
              <line id="Línea_726" data-name="Línea 726" x2="1.906" y2="4.58" transform="translate(195.927 238.912)" fill="none" stroke="#2b3440" stroke-miterlimit="10" stroke-width="0.8"/>
              <path id="Trazado_994815" data-name="Trazado 994815" d="M171.352,212.836s1.885-1.673,2.9-.966-.606,2.37-.606,2.37" transform="translate(25.431 31.418)" fill="none" stroke="#2b3440" stroke-miterlimit="10" stroke-width="0.8"/>
              <path id="Trazado_994816" data-name="Trazado 994816" d="M167.169,208.339a1.37,1.37,0,0,0-1.145.234c-.656.408-.675.763-.675.763l.763-.21a.785.785,0,0,0,.087.441.874.874,0,0,0,1.537-.827.8.8,0,0,0-.566-.4" transform="translate(24.54 30.913)" fill="#2b3440"/>
              <path id="Trazado_994817" data-name="Trazado 994817" d="M172.746,207.856a1.366,1.366,0,0,1,1.109-.367c.771.026.966.325.966.325l-.766.2a.786.786,0,0,1,.144.425.874.874,0,0,1-1.744.051.8.8,0,0,1,.292-.63" transform="translate(25.594 30.793)" fill="#2b3440"/>
              <path id="Trazado_994818" data-name="Trazado 994818" d="M421.658,495.551s-1.919,11.164-11.686,14.651-17.094,6.978-14.826,11.513h45.7s1.57-7.675,0-14.3l.7-10.815Z" transform="translate(58.582 73.545)" fill="#2b3440"/>
              <line id="Línea_727" data-name="Línea 727" x2="6.627" y2="5.071" transform="translate(475.008 579.462)" fill="none" stroke="#fff" stroke-linecap="round" stroke-linejoin="round" stroke-width="0.8"/>
              <line id="Línea_728" data-name="Línea 728" x2="6.454" y2="4.971" transform="translate(468.554 583.748)" fill="none" stroke="#fff" stroke-linecap="round" stroke-linejoin="round" stroke-width="0.8"/>
              <path id="Trazado_994819" data-name="Trazado 994819" d="M496.372,492s0,15.616-9.767,19.1-17.094,6.977-14.827,11.512l47.026-.094a62.892,62.892,0,0,0-1.326-14.208l1.34-18.832Z" transform="translate(69.956 72.645)" fill="#2b3440"/>
              <line id="Línea_729" data-name="Línea 729" x2="6.629" y2="5.071" transform="translate(563.014 579.462)" fill="none" stroke="#fff" stroke-linecap="round" stroke-linejoin="round" stroke-width="0.8"/>
              <line id="Línea_730" data-name="Línea 730" x2="6.454" y2="4.971" transform="translate(556.56 583.748)" fill="none" stroke="#fff" stroke-linecap="round" stroke-linejoin="round" stroke-width="0.8"/>
              <path id="Trazado_994820" data-name="Trazado 994820" d="M514.011,309.417s1.671,67.648-8.583,115.174a24.524,24.524,0,0,0-.048,10.192l15.474,88.392s-13.995,4.586-26.727,0l-25.635-74.294a47.956,47.956,0,0,1-2.622-15.637v-59.2Z" transform="translate(69.14 45.921)" fill="#fd715b"/>
              <path id="Trazado_994821" data-name="Trazado 994821" d="M522.116,309.417s4.535,34.449-8.721,60.961-39.42,57.91-39.42,57.91L442.229,529.106s-17.442,3.489-30.968-4.535c0,0,18.132-92.455,21.549-105.307,4.413-16.6,22.946-86.3,22.946-86.3Z" transform="translate(61.036 45.921)" fill="#fd715b"/>
              <path id="Trazado_994822" data-name="Trazado 994822" d="M513.875,335.559c-1.145,9.939-3.614,21-8.585,30.939-13.256,26.513-39.419,57.91-39.419,57.91" transform="translate(69.14 49.801)" fill="none" stroke="#2b3440" stroke-linecap="round" stroke-linejoin="round" stroke-width="0.8"/>
              <path id="Trazado_994823" data-name="Trazado 994823" d="M413.621,484.785s15.463,6.478,32.369,5.234" transform="translate(61.386 71.947)" fill="none" stroke="#2b3440" stroke-linecap="round" stroke-linejoin="round" stroke-width="0.8"/>
              <path id="Trazado_994824" data-name="Trazado 994824" d="M486.313,484.544s16.553-1.9,29.9-8.154" transform="translate(72.174 70.702)" fill="none" stroke="#2b3440" stroke-linecap="round" stroke-linejoin="round" stroke-width="0.8"/>
              <path id="Trazado_994825" data-name="Trazado 994825" d="M477.141,329.922s-2.441,18.053,8.024,24.42" transform="translate(70.776 48.964)" fill="none" stroke="#2b3440" stroke-linecap="round" stroke-linejoin="round" stroke-width="0.8"/>
              <path id="Trazado_994826" data-name="Trazado 994826" d="M513.595,244.911c-11.774-20.991-39.508-22.675-39.508-22.675l-20.058,10.029s-11.207,5.843-16.963,14.347S411.979,286.9,411.979,286.9l-37.024-17.269c-.219-2.662-1.121-8.7-4.808-11.25-4.8-3.314-6.716-6.541-6.8-10.116s-4.447-.524-4.185,4.8l.872,5.319s-21.89,1.919-23.46,6.541,13.867.436,13.867.436-3.14,3.313,0,5.581c0,0,.087,3.924,2.7,4.535a5.512,5.512,0,0,0,4.186,4.1,14.2,14.2,0,0,0,6.017,0,12.7,12.7,0,0,0,3.528.684l39.219,35.291s10.074,7.064,19.885,0,22.6-27.341,22.6-27.341l18.28,57.692s48.569-12.035,66.36-23.548c0,0-9.524-59.442-19.622-77.444" transform="translate(49.934 32.982)" fill="#8680f1"/>
              <line id="Línea_731" data-name="Línea 731" x1="4.579" y1="17.4" transform="translate(493.932 303.795)" fill="none" stroke="#2b3440" stroke-linecap="round" stroke-linejoin="round" stroke-width="0.8"/>
              <path id="Trazado_994827" data-name="Trazado 994827" d="M436.276,233.951s-2.527,13.369,7.3,14.477c13.911,1.57,18.547-10.116,19.416-25.8" transform="translate(64.705 33.04)" fill="none" stroke="#2b3440" stroke-linecap="round" stroke-linejoin="round" stroke-width="0.8"/>
              <path id="Trazado_994828" data-name="Trazado 994828" d="M440.31,234.688l-11.424-17.355,12.645-11.426,18.839,18.751s-1.57,22.675-12.472,22.675c-10.727,0-7.588-12.646-7.588-12.646" transform="translate(63.651 30.559)" fill="#bb583b"/>
              <path id="Trazado_994829" data-name="Trazado 994829" d="M438.262,208.481l-9.376,8.47,5.932,9.01c3.444-4.649,3.444-17.48,3.444-17.48" transform="translate(63.651 30.941)" fill="#bb583b"/>
              <path id="Trazado_994830" data-name="Trazado 994830" d="M427.633,196.073a25.94,25.94,0,0,0-4.273,7.064s-3.489-.872-3.576.7a2.627,2.627,0,0,0,.873,2.267s-5.408,1.483-6.192,6.716,6.54,14.564,19.361,11.774a13.288,13.288,0,0,0,7.675-7.762c2.791-7.762,8.27-6.954,8.27-6.954s3.181-1.28,2.919-6.862-3.22-9.393-7.875-12.187c-11.36-6.816-17.181,5.246-17.181,5.246" transform="translate(61.503 28.011)" fill="#2b3440"/>
              <path id="Trazado_994831" data-name="Trazado 994831" d="M435.747,199.136a7.966,7.966,0,0,1-6.541,0c-3.575-1.57-2.267-4.011-2.267-4.011a25.92,25.92,0,0,0-4.273,7.064s-3.489-.872-3.576.7a2.628,2.628,0,0,0,.872,2.267c4.449-.262,10.2,7.151,13.606,7.064s6.017-6.8,6.017-6.8c-3.75-1.744-3.837-6.28-3.837-6.28" transform="translate(62.197 28.959)" fill="#bb583b"/>
              <path id="Trazado_994832" data-name="Trazado 994832" d="M450.034,208.964a5.2,5.2,0,1,1-5.988-3.808,5.024,5.024,0,0,1,5.988,3.808" transform="translate(65.264 30.433)" fill="#bb583b"/>
              <path id="Trazado_994833" data-name="Trazado 994833" d="M447.472,212.745a5.469,5.469,0,0,1-1.986.788,5.393,5.393,0,0,1-3.484-.5" transform="translate(65.598 31.574)" fill="none" stroke="#2b3440" stroke-linecap="round" stroke-linejoin="round" stroke-width="0.8"/>
              <line id="Línea_732" data-name="Línea 732" y1="1.587" x2="4.971" transform="translate(507.764 238.73)" fill="none" stroke="#2b3440" stroke-linecap="round" stroke-linejoin="round" stroke-width="0.8"/>
              <path id="Trazado_994834" data-name="Trazado 994834" d="M444.712,208.481s1.121,2.187-.973,3.1" transform="translate(65.856 30.941)" fill="none" stroke="#2b3440" stroke-linecap="round" stroke-linejoin="round" stroke-width="0.8"/>
              <path id="Trazado_994835" data-name="Trazado 994835" d="M426.059,201.517c-.188.516-.617.834-.957.71s-.461-.643-.272-1.16.618-.834.957-.71.462.643.272,1.16" transform="translate(63.036 29.731)" fill="#2b3440"/>
              <path id="Trazado_994836" data-name="Trazado 994836" d="M422.355,209.308l2.006-.362s.087,2.617-1,2.878-1-2.516-1-2.516" transform="translate(62.682 31.01)" fill="#fff"/>
              <line id="Línea_733" data-name="Línea 733" x2="2.354" y2="3.489" transform="translate(503.962 265.248)" fill="none" stroke="#2b3440" stroke-linecap="round" stroke-linejoin="round" stroke-width="0.8"/>
              <path id="Trazado_994837" data-name="Trazado 994837" d="M416.484,276.358h0c-2.685,4.388-4.506,7.382-4.506,7.382l-37.021-17.269c-.22-2.662-1.122-8.7-4.81-11.25-4.8-3.314-6.716-6.541-6.8-10.117s-4.448-.522-4.186,4.8l.872,5.321s-21.89,1.919-23.46,6.54,13.867.436,13.867.436-3.14,3.314,0,5.581c0,0,.087,3.925,2.7,4.535a5.512,5.512,0,0,0,4.186,4.1,61.2,61.2,0,0,0,9.544.684l39.221,35.291s10.074,7.064,19.885,0c4.054-2.919,8.614-8.093,12.573-13.16-7.2-12.481-22.064-22.872-22.064-22.872" transform="translate(49.934 36.147)" fill="#bb583b"/>
              <line id="Línea_734" data-name="Línea 734" x2="5.073" y2="2.616" transform="translate(461.912 319.886)" fill="none" stroke="#2b3440" stroke-linecap="round" stroke-linejoin="round" stroke-width="0.8"/>
              <path id="Trazado_994838" data-name="Trazado 994838" d="M348.629,260.1s9.233-3.431,11.845-2.137c2.371,1.177-.873,3.141-.873,3.141s4.542-.218,2.878,2.094a8.308,8.308,0,0,1-2.7,2.442s3.663.272.786,3.14a15.4,15.4,0,0,1-5.364,3.477" transform="translate(51.74 38.242)" fill="none" stroke="#2b3440" stroke-linecap="round" stroke-linejoin="round" stroke-width="0.8"/>
              <path id="Trazado_994839" data-name="Trazado 994839" d="M348.629,265.242a62.964,62.964,0,0,1,10.972-4.579" transform="translate(51.74 38.685)" fill="none" stroke="#2b3440" stroke-linecap="round" stroke-linejoin="round" stroke-width="0.8"/>
              <path id="Trazado_994840" data-name="Trazado 994840" d="M350.984,269.191s4.348-2.115,8.443-4.579" transform="translate(52.09 39.271)" fill="none" stroke="#2b3440" stroke-linecap="round" stroke-linejoin="round" stroke-width="0.8"/>
              <path id="Trazado_994841" data-name="Trazado 994841" d="M357.558,268.6a5.271,5.271,0,0,1,0,2.66" transform="translate(53.066 39.863)" fill="none" stroke="#2b3440" stroke-linecap="round" stroke-linejoin="round" stroke-width="0.8"/>
              <line id="Línea_735" data-name="Línea 735" y2="3.096" transform="translate(424.89 302.618)" fill="none" stroke="#2b3440" stroke-linecap="round" stroke-linejoin="round" stroke-width="0.8"/>
              <path id="Trazado_994842" data-name="Trazado 994842" d="M360.171,263.126a5.542,5.542,0,0,0,4.607,4" transform="translate(53.453 39.051)" fill="none" stroke="#2b3440" stroke-linecap="round" stroke-linejoin="round" stroke-width="0.8"/>
              <line id="Línea_736" data-name="Línea 736" x2="0.684" y2="2.703" transform="translate(410.437 293.24)" fill="none" stroke="#2b3440" stroke-linecap="round" stroke-linejoin="round" stroke-width="0.8"/>
              <path id="Trazado_994843" data-name="Trazado 994843" d="M477.217,285.8h26.519s1.854,18.751-3.641,23.983-60.089,31.4-60.089,31.4-8.635,14.913-11.686,15.961l-3.389,1.354a8.694,8.694,0,0,1-2.8,1.524,47.571,47.571,0,0,1-6.629.872s-3.663,2.965-4.971,2.355.524-4.274.524-4.274-2.878,1.657-2.7-2.092,4.884-7.413,4.884-7.413,6.278-5.233,7.412-10.727c0,0-9.724,1.177-11.861-3.576,0,0-1.133-3.924,2.792-2.7s7.848-.784,10.2-2.181,10.553-1.656,10.553-1.656l40.9-34.275Z" transform="translate(60.602 42.416)" fill="#bb583b"/>
              <path id="Trazado_994844" data-name="Trazado 994844" d="M413.621,351.476s8.32-6.41,9.764-8.634S427.1,336.3,427.1,336.3" transform="translate(61.386 49.911)" fill="none" stroke="#2b3440" stroke-linecap="round" stroke-linejoin="round" stroke-width="0.8"/>
              <path id="Trazado_994845" data-name="Trazado 994845" d="M417.494,353.005s7.369-4.666,9.027-7.282,3.75-6.8,3.75-6.8" transform="translate(61.961 50.3)" fill="none" stroke="#2b3440" stroke-linecap="round" stroke-linejoin="round" stroke-width="0.8"/>
              <path id="Trazado_994846" data-name="Trazado 994846" d="M425.708,350.288s4.652-5.278,5.961-9.2" transform="translate(63.18 50.621)" fill="none" stroke="#2b3440" stroke-linecap="round" stroke-linejoin="round" stroke-width="0.8"/>
              <path id="Trazado_994847" data-name="Trazado 994847" d="M478.741,323.443s19.85-5.1,33.36-14.026" transform="translate(71.05 45.921)" fill="none" stroke="#2b3440" stroke-linecap="round" stroke-linejoin="round" stroke-width="0.8"/>
              <line id="Línea_737" data-name="Línea 737" x1="3.924" y1="35.147" transform="translate(532.655 293.068)" fill="none" stroke="#2b3440" stroke-linecap="round" stroke-linejoin="round" stroke-width="0.8"/>
              <path id="Trazado_994848" data-name="Trazado 994848" d="M496.8,267.953l1.548,20.495H467.237" transform="translate(69.343 39.767)" fill="none" stroke="#2b3440" stroke-linecap="round" stroke-linejoin="round" stroke-width="0.8"/>
              <path id="Trazado_994849" data-name="Trazado 994849" d="M103.669,271.334s15.506,8.9,27.537-.454c0,0-8.021-46.5-7.526-49.97s2.874-10.529-.258-13.735-7.5-2.13-9.153-5.86-2.249-7.933-10.3-6.807-27.043,6.739-25.339,18.848S65.51,236.833,66.816,243.295c.656,3.245-1.926,12.556-5.193,21.8A14.191,14.191,0,0,0,78.284,283.61c9.025-2.154,18.579-5.872,25.384-12.275" transform="translate(9.023 28.84)" fill="#f9bd53"/>
              <path id="Trazado_994850" data-name="Trazado 994850" d="M92.029,484.326s-.4,9.3.665,12.628,5.848,20.6,5.848,20.6,1.463,5.716-2.657,5.982H67.04s-2.925-2.392-1.063-7.178,7.842-19.407,7.842-19.407l1.6-13.691Z" transform="translate(9.7 71.722)" fill="#ff9997"/>
              <path id="Trazado_994851" data-name="Trazado 994851" d="M70.78,502.429c10.113-10.217,16.168-4.666,19.122-1.006,2.04,2.528,4.073,2.3,5.2,1.873,1.638,5.791,3.435,12.283,3.435,12.283s1.462,5.716-2.659,5.981H67.038s-2.924-2.392-1.063-7.178c.965-2.478,3.034-7.6,4.8-11.954" transform="translate(9.7 73.7)" fill="#404f60"/>
              <path id="Trazado_994852" data-name="Trazado 994852" d="M162.195,491.906s2.525,12.893,6.779,16.084c4.019,3.016,15.685,7.444,15.685,7.444s5.051,2.659,3.855,7.178H144.781s-.4-8.906,0-14.488-1.063-14.622-1.063-14.622Z" transform="translate(21.329 73.004)" fill="#ff9997"/>
              <path id="Trazado_994853" data-name="Trazado 994853" d="M144.624,507.457c3.529,3.328,9.9,2.823,13.469-1.585a11.9,11.9,0,0,1,7.22-4.625c.984,2.289,2.175,4.327,3.546,5.356,4.019,3.015,15.685,7.444,15.685,7.444s5.051,2.657,3.855,7.178H144.668s-.365-8.173-.044-13.768" transform="translate(21.444 74.391)" fill="#404f60"/>
              <path id="Trazado_994854" data-name="Trazado 994854" d="M140.261,312.584s8.639,26.053,15.73,67.525,23.394,138.765,23.394,138.765-12.406,7.972-25.167,3.9l-42.89-126.359L98.653,509.522s-15.6,7.973-27.648,0c0,0-3.63-67.736-6.721-122.678-2.5-44.416,13.5-66.151,13.5-66.151Z" transform="translate(9.501 46.391)" fill="#8680f1"/>
              <path id="Trazado_994855" data-name="Trazado 994855" d="M105.214,395.915l3.9-22.331s13.376-24.886,10.232-57.636" transform="translate(15.615 46.89)" fill="none" stroke="#2b3440" stroke-miterlimit="10" stroke-width="0.8"/>
              <path id="Trazado_994856" data-name="Trazado 994856" d="M108.609,367.442s14.356-4.076,22.331-10.1" transform="translate(16.119 53.033)" fill="none" stroke="#2b3440" stroke-miterlimit="10" stroke-width="0.8"/>
              <path id="Trazado_994857" data-name="Trazado 994857" d="M86.772,327.709s-1.241,14.533-11.343,21.8" transform="translate(11.195 48.636)" fill="none" stroke="#2b3440" stroke-miterlimit="10" stroke-width="0.8"/>
              <path id="Trazado_994858" data-name="Trazado 994858" d="M121.686,315.123s1.615,12.149,0,21.01l-4.326,1.944" transform="translate(17.418 46.768)" fill="none" stroke="#2b3440" stroke-miterlimit="10" stroke-width="0.8"/>
              <path id="Trazado_994859" data-name="Trazado 994859" d="M64.931,259.117C69.185,246.754,91,238.1,91,238.1l17.324-3.171s11.689-2.115,19.407,0c11.564,3.171,25.123,29.6,49.049,51.575L169.6,309.627c-16.217-3.456-29.643-18.742-29.643-18.742l-3.057,3.722,3.324,29.642a189.282,189.282,0,0,1-62.474,8.109s-17.076-60.88-12.822-73.241" transform="translate(9.535 34.726)" fill="#c5c6fc"/>
              <path id="Trazado_994860" data-name="Trazado 994860" d="M106.153,225.93l.8,10.191s11.864,13.245,1.685,17.634c-9.659,4.165-19.85-7.729-21.091-14.464l1.078-10.948" transform="translate(12.993 33.531)" fill="#ff9997"/>
              <path id="Trazado_994861" data-name="Trazado 994861" d="M127.514,289.172s8.241-6.026,1.329-18.565" transform="translate(18.925 40.161)" fill="none" stroke="#2b3440" stroke-miterlimit="10" stroke-width="0.8"/>
              <path id="Trazado_994862" data-name="Trazado 994862" d="M124.626,270.762s-2.57,47.675-25.61,59.195c0,0-4.615,1.135-6.916-4.306s-1.415-23.342,2.484-29.367,19.5-25.521,19.5-25.521" transform="translate(13.483 40.184)" fill="#ff9997"/>
              <line id="Línea_738" data-name="Línea 738" x1="15.592" y1="32.342" transform="translate(96.725 298.186)" fill="none" stroke="#2b3440" stroke-miterlimit="10" stroke-width="0.8"/>
              <path id="Trazado_994863" data-name="Trazado 994863" d="M203.9,291.691a9.666,9.666,0,0,1,5.76-2.673c5.139-.62,8.773.8,16.659-1.684s2.038,5.582-6.114,6.381c0,0,18.7,7.709,19.052,11.7,0,0,.71,1.685-1.063,1.507,0,0,2.215,1.241,2.038,2.393s-1.063.974-1.063.974,1.772,3.013-4.607,2.038c0,0,1.24,2.57-2.925,1.418s-9.925-4.254-14-4.342c-3.323-.072-9.888-1.089-13.735-3.335v.233s-31.37,0-47.587-3.456c-.848-.181-1.685-.4-2.516-.642,1.436-15.632,9.694-22.487,9.694-22.487L203.9,291.676Z" transform="translate(22.825 41.513)" fill="#ff9997"/>
              <path id="Trazado_994864" data-name="Trazado 994864" d="M197.664,290.13a8,8,0,0,0-1.86,4.586" transform="translate(29.059 43.059)" fill="none" stroke="#2b3440" stroke-miterlimit="10" stroke-width="0.8"/>
              <path id="Trazado_994865" data-name="Trazado 994865" d="M225.775,310.105a80.69,80.69,0,0,0-12.783-6.757s2.095-6.681,1.6-8.69" transform="translate(31.61 43.731)" fill="none" stroke="#2b3440" stroke-miterlimit="10" stroke-width="0.8"/>
              <path id="Trazado_994866" data-name="Trazado 994866" d="M230.255,307.348s-9.748-6.181-16.394-7.843" transform="translate(31.739 44.45)" fill="none" stroke="#2b3440" stroke-miterlimit="10" stroke-width="0.8"/>
              <path id="Trazado_994867" data-name="Trazado 994867" d="M229.2,304.367s-9.238-6.07-14.821-7.466" transform="translate(31.817 44.063)" fill="none" stroke="#2b3440" stroke-miterlimit="10" stroke-width="0.8"/>
              <path id="Trazado_994868" data-name="Trazado 994868" d="M212.115,292.048c-.554-.11-3.81-1.108-3.81-1.108" transform="translate(30.915 43.179)" fill="none" stroke="#2b3440" stroke-miterlimit="10" stroke-width="0.8"/>
              <path id="Trazado_994869" data-name="Trazado 994869" d="M212.247,301.58s-4.919-6.779-11.7-4.32" transform="translate(29.764 44.037)" fill="none" stroke="#2b3440" stroke-miterlimit="10" stroke-width="0.8"/>
              <path id="Trazado_994870" data-name="Trazado 994870" d="M106.73,241.061l.808-19.081H90.8l-2.749,19.647s11.8,8.247,18.677-.566" transform="translate(13.068 32.944)" fill="#ff9997"/>
              <path id="Trazado_994871" data-name="Trazado 994871" d="M97.885,201.915s6.63.566,9.54,4.2,3.882,9.379,3.882,9.379,4.447.808,4.851,6.226-3.962,8.327-12.775,8.893-14.391-5.175-15.119-10.026a8.136,8.136,0,0,1,4.527-5.093c3.639-1.537,5.175-9.055,5.094-13.583" transform="translate(13.099 29.966)" fill="#ff9997"/>
              <path id="Trazado_994872" data-name="Trazado 994872" d="M107.279,227.447a33.366,33.366,0,0,1-4.48.565,15.57,15.57,0,0,1-10.592-2.981" transform="translate(13.685 33.397)" fill="none" stroke="#2b3440" stroke-linecap="round" stroke-linejoin="round" stroke-width="0.8"/>
              <path id="Trazado_994873" data-name="Trazado 994873" d="M83.494,221.9c1.67,2.892,4.854,4.178,7.113,2.874s2.737-4.706,1.067-7.6S86.82,213,84.562,214.3s-2.738,4.705-1.068,7.6" transform="translate(12.244 31.729)" fill="#ff9997"/>
              <line id="Línea_739" data-name="Línea 739" x1="5.175" y1="1.342" transform="translate(96.674 249.386)" fill="none" stroke="#2b3440" stroke-miterlimit="10" stroke-width="0.8"/>
              <path id="Trazado_994874" data-name="Trazado 994874" d="M86.162,217.67s-.411,2.775,1.852,3.341" transform="translate(12.783 32.305)" fill="none" stroke="#2b3440" stroke-miterlimit="10" stroke-width="0.8"/>
              <path id="Trazado_994875" data-name="Trazado 994875" d="M103.153,215.988s3.305-.493,3.31,1.051c.006,1.577-2.2,1.925-2.2,1.925" transform="translate(15.309 32.044)" fill="none" stroke="#2b3440" stroke-miterlimit="10" stroke-width="0.8"/>
              <line id="Línea_740" data-name="Línea 740" x1="1.452" y1="4.467" transform="translate(117.713 243.503)" fill="none" stroke="#2b3440" stroke-miterlimit="10" stroke-width="0.8"/>
              <path id="Trazado_994876" data-name="Trazado 994876" d="M101.507,220.975l-2.365-.4s.181,2.578,1.182,2.639,1.183-2.244,1.183-2.244" transform="translate(14.714 32.737)" fill="#fff"/>
              <path id="Trazado_994877" data-name="Trazado 994877" d="M97.579,214.811c.189.647.661,1.077,1.053.962s.558-.733.37-1.378-.661-1.077-1.054-.962-.557.732-.369,1.378" transform="translate(14.47 31.673)" fill="#2b3440"/>
              <path id="Trazado_994878" data-name="Trazado 994878" d="M105.437,212.841c.157.655.608,1.109,1.006,1.013s.593-.705.435-1.359-.609-1.108-1.006-1.012-.593.7-.435,1.357" transform="translate(15.64 31.385)" fill="#2b3440"/>
              <line id="Línea_741" data-name="Línea 741" y2="5.671" transform="translate(119.943 269.651)" fill="none" stroke="#2b3440" stroke-miterlimit="10" stroke-width="0.8"/>
              <path id="Trazado_994879" data-name="Trazado 994879" d="M110.683,274.76s5.4-10.552,6.715-12.434,5.29-12.028,8.622-13.474l1.779,4.82s11.484-2.489,16.888-4.807,6.113-.784,5.709.232-5.975,4.056-5.975,4.056a8.64,8.64,0,0,1-1.38,3.191,5.159,5.159,0,0,1-1.442,3.923s.242.86-1.21,3.049-10.349,7.83-10.349,7.83-8.679,7.64-9,7.356-8.285,1.085-10.356-3.742" transform="translate(16.427 36.754)" fill="#ff9997"/>
              <path id="Trazado_994880" data-name="Trazado 994880" d="M141.586,252.441s-8.331,3.786-11.8,5.879" transform="translate(19.262 37.465)" fill="none" stroke="#2b3440" stroke-linecap="round" stroke-linejoin="round" stroke-width="0.8"/>
              <line id="Línea_742" data-name="Línea 742" x1="9.742" y2="6.4" transform="translate(149.726 293.099)" fill="none" stroke="#2b3440" stroke-linecap="round" stroke-linejoin="round" stroke-width="0.8"/>
              <line id="Línea_743" data-name="Línea 743" x1="7.204" y2="4.896" transform="translate(150.821 297.021)" fill="none" stroke="#2b3440" stroke-linecap="round" stroke-linejoin="round" stroke-width="0.8"/>
              <path id="Trazado_994881" data-name="Trazado 994881" d="M120.727,253.68s2.614-4.1,4.038-4.876,3.632-2.17,4.2-4.54,2.221-.6,2.221-.6c1.777,2.527-1.766,7.126-1.766,7.126l-.712,6.537" transform="translate(17.917 36.068)" fill="#ff9997"/>
              <line id="Línea_744" data-name="Línea 744" x2="516.991" transform="translate(62.351 595.183)" fill="none" stroke="#2b3440" stroke-linecap="round" stroke-linejoin="round" stroke-width="0.8"/>
            </g>
          </g>
          <text id="مرحبا" transform="translate(-1200.3 2963.222)" fill="#fff" font-size="18" font-family="NotoNaskhArabic-Medium, Noto Naskh Arabic" font-weight="500"><tspan x="0" y="0">مرحبا</tspan></text>
          <text id="Hello" transform="translate(-1419.415 2946.955)" fill="#fff" font-size="16" font-family="KleeOne-SemiBold, Klee One" font-weight="600"><tspan x="0" y="0">Hello</tspan></text>
          <text id="你好" transform="translate(-1287.463 3045.34)" fill="#fff" font-size="16" font-family="PingFangSC-Regular, PingFang SC"><tspan x="0" y="0">你好</tspan></text>
          <text id="Hola" transform="translate(-991 2995.499)" fill="#fff" font-size="17" font-family="KleeOne-SemiBold, Klee One" font-weight="600"><tspan x="0" y="0">Hola</tspan></text>
          <rect id="Rectángulo_409710" data-name="Rectángulo 409710" width="632.136" height="658.205" transform="translate(-1547.681 2772)" fill="none"/>
        </g>
      </g>
    </g>
  </g>
</svg>
