<svg xmlns="http://www.w3.org/2000/svg" xmlns:xlink="http://www.w3.org/1999/xlink" width="110" height="110" viewBox="0 0 110 110">
  <defs>
    <filter id="Trazado_982547" x="0" y="0" width="110" height="110" filterUnits="userSpaceOnUse">
      <feOffset dy="3" input="SourceAlpha"/>
      <feGaussianBlur stdDeviation="3" result="blur"/>
      <feFlood flood-opacity="0.161"/>
      <feComposite operator="in" in2="blur"/>
      <feComposite in="SourceGraphic"/>
    </filter>
  </defs>
  <g id="Grupo_1159256" data-name="Grupo 1159256" transform="translate(-344 -3251)">
    <g id="Grupo_1158890" data-name="Grupo 1158890" transform="translate(-457 -554)">
      <g id="Grupo_1157405" data-name="Grupo 1157405" transform="translate(1 3016)">
        <g id="Grupo_1155792" data-name="Grupo 1155792" transform="translate(-1 -3894.666)">
          <g id="Grupo_1154703" data-name="Grupo 1154703" transform="translate(0 1465.666)">
            <g id="Grupo_1150789" data-name="Grupo 1150789" transform="translate(3 2320)">
              <g id="Grupo_1154212" data-name="Grupo 1154212" transform="translate(-236 -5809)">
                <g id="Grupo_1152583" data-name="Grupo 1152583" transform="translate(1043 6713)">
                  <g id="Grupo_1146973" data-name="Grupo 1146973" transform="translate(0 0)">
                    <g id="Grupo_1146954" data-name="Grupo 1146954">
                      <g transform="matrix(1, 0, 0, 1, -9, -6)" filter="url(#Trazado_982547)">
                        <g id="Trazado_982547-2" data-name="Trazado 982547" transform="translate(9 6)" fill="#fef4f5">
                          <path d="M 46 90.49987030029297 C 39.99187850952148 90.49987030029297 34.16426849365234 89.32350921630859 28.67905426025391 87.00345611572266 C 23.38019943237305 84.76224517822266 18.62104034423828 81.55341339111328 14.53374671936035 77.46613311767578 C 10.44646644592285 73.37885284423828 7.237639904022217 68.61969757080078 4.996413230895996 63.32085418701172 C 2.676359891891479 57.83565521240234 1.5 52.008056640625 1.5 45.99993515014648 C 1.5 39.99181365966797 2.676359891891479 34.16421508789062 4.996413230895996 28.67901420593262 C 7.237639904022217 23.38017463684082 10.44646644592285 18.62101554870605 14.53374671936035 14.53373527526855 C 18.62104034423828 10.44645500183105 23.38019943237305 7.23762845993042 28.67905426025391 4.996415138244629 C 34.16426849365234 2.676361799240112 39.99187850952148 1.500001788139343 46 1.500001788139343 C 52.00812149047852 1.500001788139343 57.83573150634766 2.676361799240112 63.32094573974609 4.996415138244629 C 68.61979675292969 7.23762845993042 73.37895965576172 10.44645500183105 77.46625518798828 14.53373527526855 C 81.55353546142578 18.62101554870605 84.76235961914062 23.38017463684082 87.00358581542969 28.67901420593262 C 89.32363891601562 34.16421508789062 90.5 39.99181365966797 90.5 45.99993515014648 C 90.5 52.008056640625 89.32363891601562 57.83565521240234 87.00358581542969 63.32085418701172 C 84.76235961914062 68.61969757080078 81.55353546142578 73.37885284423828 77.46625518798828 77.46613311767578 C 73.37895965576172 81.55341339111328 68.61979675292969 84.76224517822266 63.32094573974609 87.00345611572266 C 57.83573150634766 89.32350921630859 52.00812149047852 90.49987030029297 46 90.49987030029297 Z" stroke="none"/>
                          <path d="M 46 2.999992370605469 C 40.1937141418457 2.999992370605469 34.56269836425781 4.136489868164062 29.26337051391602 6.377906799316406 C 24.14332580566406 8.543502807617188 19.54441070556641 11.64437866210938 15.59439849853516 15.59437561035156 C 11.64440155029297 19.54439544677734 8.54351806640625 24.14329528808594 6.377914428710938 29.26333618164062 C 4.136497497558594 34.56264877319336 3 40.19366455078125 3 45.99993515014648 C 3 51.80620574951172 4.136497497558594 57.43720626831055 6.377914428710938 62.73651885986328 C 8.54351806640625 67.8565673828125 11.64440155029297 72.45545959472656 15.59439849853516 76.40547943115234 C 19.54441070556641 80.35547637939453 24.14332580566406 83.45635223388672 29.26337051391602 85.6219482421875 C 34.56269836425781 87.86336517333984 40.1937141418457 88.99986267089844 46 88.99986267089844 C 51.8062858581543 88.99986267089844 57.43730163574219 87.86336517333984 62.73661422729492 85.6219482421875 C 67.85667419433594 83.45635223388672 72.45557403564453 80.35547637939453 76.40558624267578 76.40547943115234 C 80.35559844970703 72.45545959472656 83.45647430419922 67.8565673828125 85.6220703125 62.73651885986328 C 87.86350250244141 57.43720626831055 89 51.80620574951172 89 45.99993515014648 C 89 40.19366455078125 87.86350250244141 34.56264877319336 85.6220703125 29.26333618164062 C 83.45647430419922 24.14329528808594 80.35559844970703 19.54439544677734 76.40558624267578 15.59437561035156 C 72.45557403564453 11.64437866210938 67.85667419433594 8.543502807617188 62.73661422729492 6.377906799316406 C 57.43730163574219 4.136489868164062 51.8062858581543 2.999992370605469 46 2.999992370605469 M 46 -7.62939453125e-06 C 71.40509033203125 -7.62939453125e-06 92 20.59486389160156 92 45.99993515014648 C 92 71.40499114990234 71.40509033203125 91.99986267089844 46 91.99986267089844 C 20.59490203857422 91.99986267089844 0 71.40499114990234 0 45.99993515014648 C 0 20.59486389160156 20.59490203857422 -7.62939453125e-06 46 -7.62939453125e-06 Z" stroke="none" fill="#ff7f8f"/>
                        </g>
                      </g>
                    </g>
                  </g>
                </g>
              </g>
            </g>
          </g>
        </g>
      </g>
    </g>
    <g id="indigena" transform="translate(318.286 3271)">
      <g id="Grupo_1159254" data-name="Grupo 1159254" transform="translate(56.635 0.921)">
        <path id="Trazado_994883" data-name="Trazado 994883" d="M158.4,196.9H137.019l-4.475,19.61h30.327Z" transform="translate(-124.029 -173.641)" fill="#7a6d79"/>
        <path id="Trazado_994884" data-name="Trazado 994884" d="M318.815,196.9h-3.389l4.475,19.61h3.389Z" transform="translate(-284.448 -173.641)" fill="#665d66"/>
        <path id="Trazado_994885" data-name="Trazado 994885" d="M184.176,143.514H175.16a6.18,6.18,0,0,1-6.18-6.18V125.44h21.376v11.894A6.18,6.18,0,0,1,184.176,143.514Z" transform="translate(-155.989 -110.954)" fill="#fed2a4"/>
        <path id="Trazado_994886" data-name="Trazado 994886" d="M276.467,125.441v11.894a6.18,6.18,0,0,1-6.18,6.18h2.753a6.18,6.18,0,0,0,6.18-6.18V125.441Z" transform="translate(-244.853 -110.955)" fill="#ffbd86"/>
        <path id="Trazado_994887" data-name="Trazado 994887" d="M109.448,289.787a7.394,7.394,0,0,0-5.652-6.463L91.29,280.357h0V272.6H82.5v7.76h0L69.99,283.323a7.394,7.394,0,0,0-5.652,6.463L63.214,301.08h47.358Z" transform="translate(-63.214 -240.037)" fill="#fed2a4"/>
        <path id="Trazado_994888" data-name="Trazado 994888" d="M290.292,289.787a7.394,7.394,0,0,0-5.652-6.463l-12.505-2.966h0V272.6h-2.753v7.76h0l12.505,2.966c3.07.728,2.84,3.324,3.152,6.463l1.124,11.294h5.254Z" transform="translate(-244.059 -240.037)" fill="#ffbd86"/>
        <g id="Grupo_1159253" data-name="Grupo 1159253" transform="translate(8.515 18.273)">
          <path id="Trazado_994889" data-name="Trazado 994889" d="M137.018,161.261H133.8A1.261,1.261,0,0,1,132.543,160v-2.469a1.261,1.261,0,0,1,1.261-1.261h3.214Z" transform="translate(-132.543 -156.27)" fill="#fed2a4"/>
          <path id="Trazado_994890" data-name="Trazado 994890" d="M343.02,161.261h3.214A1.261,1.261,0,0,0,347.5,160v-2.469a1.261,1.261,0,0,0-1.261-1.261H343.02Z" transform="translate(-317.168 -156.27)" fill="#fed2a4"/>
          <g id="Grupo_1159252" data-name="Grupo 1159252" transform="translate(2.137 0)">
            <path id="Trazado_994891" data-name="Trazado 994891" d="M352.331,156.271h-2.36a1.261,1.261,0,0,1,1.261,1.261V160a1.261,1.261,0,0,1-1.261,1.261h2.36A1.261,1.261,0,0,0,353.593,160v-2.469A1.261,1.261,0,0,0,352.331,156.271Z" transform="translate(-325.402 -156.271)" fill="#ffbd86"/>
            <path id="Trazado_994892" data-name="Trazado 994892" d="M149.94,156.271h2.339v4.991H149.94Z" transform="translate(-149.94 -156.271)" fill="#ffbd86"/>
          </g>
        </g>
        <path id="Trazado_994893" data-name="Trazado 994893" d="M186.958,335.776l4.4,3.623v6.332a11.878,11.878,0,0,1-9.052-8.852Z" transform="translate(-167.676 -295.456)" fill="#4f66d0"/>
        <path id="Trazado_994894" data-name="Trazado 994894" d="M204.931,335.776l-2.138.507,3.782,3.116v5.367a11.089,11.089,0,0,0,2.753.965V339.4Z" transform="translate(-185.649 -295.456)" fill="#3c58bc"/>
        <path id="Trazado_994895" data-name="Trazado 994895" d="M260.4,335.776,256,339.4v6.332a11.878,11.878,0,0,0,9.052-8.852Z" transform="translate(-232.321 -295.456)" fill="#4f66d0"/>
        <path id="Trazado_994896" data-name="Trazado 994896" d="M260.4,335.776l-.615.507,2.517.6a11.609,11.609,0,0,1-6.3,7.886v.965a11.878,11.878,0,0,0,9.052-8.852Z" transform="translate(-232.321 -295.456)" fill="#3c58bc"/>
        <path id="Trazado_994897" data-name="Trazado 994897" d="M168.98,88.794h21.376v4.5H168.98Z" transform="translate(-155.989 -78.809)" fill="#bec6ed"/>
        <path id="Trazado_994898" data-name="Trazado 994898" d="M320.6,88.794h2.754v4.5H320.6Z" transform="translate(-288.988 -78.809)" fill="#a2aee6"/>
        <path id="Trazado_994899" data-name="Trazado 994899" d="M174.423,44.482h10.491a5.443,5.443,0,0,1,5.443,5.443H168.98A5.443,5.443,0,0,1,174.423,44.482Z" transform="translate(-155.989 -39.94)" fill="#7a6d79"/>
        <path id="Trazado_994900" data-name="Trazado 994900" d="M279.043,44.482H276.29a5.443,5.443,0,0,1,5.443,5.443h2.753A5.443,5.443,0,0,0,279.043,44.482Z" transform="translate(-250.119 -39.94)" fill="#665d66"/>
        <path id="Trazado_994901" data-name="Trazado 994901" d="M204.726,88.794l1.533,4.5h9.529l1.533-4.5Z" transform="translate(-187.345 -78.809)" fill="#eaf6ff"/>
        <path id="Trazado_994902" data-name="Trazado 994902" d="M231.39,7.5l-2.86,3.411a2.51,2.51,0,0,0-.42,2.51l3.28,8.565,3.28-8.565a2.509,2.509,0,0,0-.42-2.51Z" transform="translate(-207.711 -7.5)" fill="#ffe177"/>
        <path id="Trazado_994903" data-name="Trazado 994903" d="M249.027,10.911,246.168,7.5l-1.377,1.642,1.483,1.769a2.509,2.509,0,0,1,.42,2.51l-1.9,4.97,1.377,3.6,3.28-8.565A2.509,2.509,0,0,0,249.027,10.911Z" transform="translate(-222.489 -7.5)" fill="#ffd15b"/>
      </g>
      <g id="Grupo_1159255" data-name="Grupo 1159255" transform="translate(55.714 0)">
        <path id="Trazado_994904" data-name="Trazado 994904" d="M102.959,51.588a.921.921,0,0,0,.826-1.008,8.317,8.317,0,0,0-6.356-7.269l-1.181-.28L92.157,25.106h2.059A2.185,2.185,0,0,0,96.4,22.924V20.455a2.185,2.185,0,0,0-2.182-2.182H91.923V10.906h0a6.371,6.371,0,0,0-6.364-6.364H84.38a3.426,3.426,0,0,0-.5-.8L81.019.329a.921.921,0,0,0-1.412,0L76.748,3.74a3.423,3.423,0,0,0-.5.8H75.068A6.364,6.364,0,0,0,68.7,10.906h0v7.367H66.411a2.185,2.185,0,0,0-2.182,2.182v2.469a2.185,2.185,0,0,0,2.182,2.182H68.47L64.38,43.031l-1.182.28a8.317,8.317,0,0,0-6.356,7.268L55.718,61.874a.921.921,0,0,0,.825,1.008q.047,0,.092,0a.921.921,0,0,0,.916-.83l1.124-11.294A6.474,6.474,0,0,1,63.623,45.1l6.991-1.658A12.468,12.468,0,0,0,76,50.422,12.7,12.7,0,0,0,80.153,52.1a.938.938,0,0,0,.322,0,12.693,12.693,0,0,0,4.148-1.682,12.468,12.468,0,0,0,5.39-6.976L97,45.1a6.474,6.474,0,0,1,4.948,5.658.921.921,0,0,0,.916.83c.03,0,.061,0,.092,0ZM85.632,40.513V34.355a7.118,7.118,0,0,0,5.754-4.347L94.25,42.557ZM75.805,32.56A5.265,5.265,0,0,1,70.547,27.3V16.328H90.081V27.3a5.264,5.264,0,0,1-5.259,5.259Zm6.866-20.733h2.653l-.905,2.659H81.653Zm-3.7,2.659H76.209L75.3,11.827h2.653Zm15.242,5.629a.34.34,0,0,1,.34.34v2.469a.34.34,0,0,1-.34.34H91.923V20.115h2.293Zm-4.135-8.288v2.659H86.365l.905-2.659Zm-.094-1.842h-6.61l1.077-2.813a3.427,3.427,0,0,0,.2-.787h.909A4.529,4.529,0,0,1,89.986,9.984ZM80.314,2.355l2.154,2.569a1.588,1.588,0,0,1,.342.723v0a1.587,1.587,0,0,1-.077.862l-2.42,6.319-2.42-6.319a1.588,1.588,0,0,1-.077-.862v0a1.586,1.586,0,0,1,.342-.723ZM71.871,7.709a4.492,4.492,0,0,1,3.2-1.325h.909a3.42,3.42,0,0,0,.2.787l1.077,2.813H70.64A4.49,4.49,0,0,1,71.871,7.709Zm1.486,4.118.905,2.659H70.547V11.827Zm-7.286,11.1V20.455a.34.34,0,0,1,.34-.34H68.7v3.148H66.411A.34.34,0,0,1,66.071,22.924Zm3.17,7.084A7.172,7.172,0,0,0,75.917,34.4H83.79v6.4l-3.476,2.864-3.476-2.864v-2.99a.921.921,0,1,0-1.842,0v2.7l-8.618,2.044ZM72.41,43.02l3.274-.776L79.393,45.3v4.695a11.79,11.79,0,0,1-2.479-1.176A10.484,10.484,0,0,1,72.41,43.02Zm11.3,5.8a11.784,11.784,0,0,1-2.479,1.176V45.3l3.708-3.056,3.274.776a10.483,10.483,0,0,1-4.5,5.8Z" transform="translate(-55.714 0)"/>
        <path id="Trazado_994905" data-name="Trazado 994905" d="M438.157,447.925l-.7-6.988a.921.921,0,1,0-1.833.182l.7,6.988a.921.921,0,0,0,.916.83q.046,0,.092,0A.921.921,0,0,0,438.157,447.925Z" transform="translate(-388.961 -386.051)"/>
        <path id="Trazado_994906" data-name="Trazado 994906" d="M140.619,448.543a.921.921,0,0,0-.921.921v5.951a.921.921,0,0,0,1.842,0v-5.951A.921.921,0,0,0,140.619,448.543Z" transform="translate(-129.383 -393.451)"/>
        <path id="Trazado_994907" data-name="Trazado 994907" d="M358.224,448.543a.921.921,0,0,0-.921.921v5.951a.921.921,0,1,0,1.842,0v-5.951A.921.921,0,0,0,358.224,448.543Z" transform="translate(-320.261 -393.451)"/>
        <path id="Trazado_994908" data-name="Trazado 994908" d="M249.421,166.5a.921.921,0,0,0,.921-.921V162.8a.921.921,0,0,0-1.842,0v2.781A.921.921,0,0,0,249.421,166.5Z" transform="translate(-224.821 -141.992)"/>
        <path id="Trazado_994909" data-name="Trazado 994909" d="M234.293,215.432a3.5,3.5,0,0,1-2.625.524,3.063,3.063,0,0,1-1.1-.466.921.921,0,0,0-1.137,1.449,4.991,4.991,0,0,0,2.915.937,5.506,5.506,0,0,0,2.908-.874.921.921,0,1,0-.963-1.571Z" transform="translate(-207.789 -188.853)"/>
        <path id="Trazado_994910" data-name="Trazado 994910" d="M223.923,438.911h-8.3a.921.921,0,1,0,0,1.842h8.3a.921.921,0,1,0,0-1.842Z" transform="translate(-195.171 -385.002)"/>
        <path id="Trazado_994911" data-name="Trazado 994911" d="M223.923,466.882h-8.3a.921.921,0,1,0,0,1.842h8.3a.921.921,0,1,0,0-1.842Z" transform="translate(-195.171 -409.538)"/>
        <circle id="Elipse_11680" data-name="Elipse 11680" cx="0.921" cy="0.921" r="0.921" transform="translate(27.437 23.264)"/>
        <circle id="Elipse_11681" data-name="Elipse 11681" cx="0.921" cy="0.921" r="0.921" transform="translate(30.59 23.264)"/>
        <circle id="Elipse_11682" data-name="Elipse 11682" cx="0.921" cy="0.921" r="0.921" transform="translate(16.691 23.264)"/>
        <circle id="Elipse_11683" data-name="Elipse 11683" cx="0.921" cy="0.921" r="0.921" transform="translate(19.844 23.264)"/>
      </g>
    </g>
  </g>
</svg>
