<svg xmlns="http://www.w3.org/2000/svg" xmlns:xlink="http://www.w3.org/1999/xlink" width="108" height="108" viewBox="0 0 108 108">
  <defs>
    <filter id="Trazado_982547" x="0" y="0" width="108" height="108" filterUnits="userSpaceOnUse">
      <feOffset dy="3" input="SourceAlpha"/>
      <feGaussianBlur stdDeviation="3" result="blur"/>
      <feFlood flood-opacity="0.161"/>
      <feComposite operator="in" in2="blur"/>
      <feComposite in="SourceGraphic"/>
    </filter>
  </defs>
  <g id="Grupo_1159826" data-name="Grupo 1159826" transform="translate(-616 -3261)">
    <g id="Grupo_1158931" data-name="Grupo 1158931" transform="translate(0 -649)">
      <g id="Grupo_1153177" data-name="Grupo 1153177" transform="translate(362 3397)">
        <g id="Grupo_1149598" data-name="Grupo 1149598" transform="translate(80 315)">
          <g id="Grupo_1148770" data-name="Grupo 1148770" transform="translate(-27 -2583)">
            <g id="Grupo_1146954" data-name="Grupo 1146954" transform="translate(-415 -1202)">
              <g transform="matrix(1, 0, 0, 1, 616, 3983)" filter="url(#Trazado_982547)">
                <g id="Trazado_982547-2" data-name="Trazado 982547" transform="translate(9 6)" fill="#effcf6">
                  <path d="M 45 88.5 C 39.12687683105469 88.5 33.43022537231445 87.35007476806641 28.06830024719238 85.08217620849609 C 22.88852500915527 82.89131164550781 18.23629951477051 79.75458526611328 14.2408504486084 75.75914764404297 C 10.24541282653809 71.76370239257812 7.108687400817871 67.11147308349609 4.917825222015381 61.93170166015625 C 2.649924993515015 56.56977462768555 1.5 50.87312316894531 1.5 45 C 1.5 39.12687683105469 2.649924993515015 33.43022537231445 4.917825222015381 28.06830024719238 C 7.108687400817871 22.88852500915527 10.24541282653809 18.23629951477051 14.2408504486084 14.2408504486084 C 18.23629951477051 10.24541282653809 22.88852500915527 7.108687400817871 28.06830024719238 4.917825222015381 C 33.43022537231445 2.649924993515015 39.12687683105469 1.5 45 1.5 C 50.87312316894531 1.5 56.56977462768555 2.649924993515015 61.93170166015625 4.917825222015381 C 67.11147308349609 7.108687400817871 71.76370239257812 10.24541282653809 75.75914764404297 14.2408504486084 C 79.75458526611328 18.23629951477051 82.89131164550781 22.88852500915527 85.08217620849609 28.06830024719238 C 87.35007476806641 33.43022537231445 88.5 39.12687683105469 88.5 45 C 88.5 50.87312316894531 87.35007476806641 56.56977462768555 85.08217620849609 61.93170166015625 C 82.89131164550781 67.11147308349609 79.75458526611328 71.76370239257812 75.75914764404297 75.75914764404297 C 71.76370239257812 79.75458526611328 67.11147308349609 82.89131164550781 61.93170166015625 85.08217620849609 C 56.56977462768555 87.35007476806641 50.87312316894531 88.5 45 88.5 Z" stroke="none"/>
                  <path d="M 45 3 C 39.32871246337891 3 33.82865524291992 4.110054016113281 28.65262985229492 6.299339294433594 C 23.65165710449219 8.414573669433594 19.15968322753906 11.44334411621094 15.301513671875 15.301513671875 C 11.44334411621094 19.15968322753906 8.414573669433594 23.65165710449219 6.299339294433594 28.65262985229492 C 4.110054016113281 33.82865524291992 3 39.32871246337891 3 45 C 3 50.67128753662109 4.110054016113281 56.17134475708008 6.299339294433594 61.34737396240234 C 8.414573669433594 66.34834289550781 11.44334411621094 70.84031677246094 15.301513671875 74.698486328125 C 19.15968322753906 78.55665588378906 23.65165710449219 81.58542633056641 28.65262985229492 83.70066070556641 C 33.82865524291992 85.88994598388672 39.32871246337891 87 45 87 C 50.67128753662109 87 56.17134475708008 85.88994598388672 61.34737396240234 83.70066070556641 C 66.34834289550781 81.58542633056641 70.84031677246094 78.55665588378906 74.698486328125 74.698486328125 C 78.55665588378906 70.84031677246094 81.58542633056641 66.34834289550781 83.70066070556641 61.34737396240234 C 85.88994598388672 56.17134475708008 87 50.67128753662109 87 45 C 87 39.32871246337891 85.88994598388672 33.82865524291992 83.70066070556641 28.65262985229492 C 81.58542633056641 23.65165710449219 78.55665588378906 19.15968322753906 74.698486328125 15.301513671875 C 70.84031677246094 11.44334411621094 66.34834289550781 8.414573669433594 61.34737396240234 6.299339294433594 C 56.17134475708008 4.110054016113281 50.67128753662109 3 45 3 M 45 0 C 69.85281372070312 0 90 20.14718627929688 90 45 C 90 69.85281372070312 69.85281372070312 90 45 90 C 20.14718627929688 90 0 69.85281372070312 0 45 C 0 20.14718627929688 20.14718627929688 0 45 0 Z" stroke="none" fill="#214433"/>
                </g>
              </g>
            </g>
          </g>
        </g>
      </g>
    </g>
    <g id="protesta_1_" data-name="protesta (1)" transform="translate(643 3285)">
      <g id="Grupo_1159824" data-name="Grupo 1159824" transform="translate(0.886 0.886)">
        <g id="Grupo_1159801" data-name="Grupo 1159801">
          <path id="Trazado_996264" data-name="Trazado 996264" d="M1,1H54.162V24.037H1Z" transform="translate(-1 -1)" fill="#e6e9ed"/>
        </g>
        <g id="Grupo_1159802" data-name="Grupo 1159802" transform="translate(2.658 23.037)">
          <path id="Trazado_996265" data-name="Trazado 996265" d="M6.658,54.467H4.886A.886.886,0,0,1,4,53.581V27H7.544V53.581A.886.886,0,0,1,6.658,54.467Z" transform="translate(-4 -27)" fill="#aab2bd"/>
        </g>
        <g id="Grupo_1159803" data-name="Grupo 1159803" transform="translate(46.959 23.037)">
          <path id="Trazado_996266" data-name="Trazado 996266" d="M56.658,54.467H54.886A.886.886,0,0,1,54,53.581V27h3.544V53.581A.886.886,0,0,1,56.658,54.467Z" transform="translate(-54 -27)" fill="#aab2bd"/>
        </g>
        <g id="Grupo_1159804" data-name="Grupo 1159804" transform="translate(6.574 38.985)">
          <path id="Trazado_996267" data-name="Trazado 996267" d="M36.4,59.176H20.452v-6.2H17.67a8.847,8.847,0,0,1-3.181-.594L8.42,50.05a6,6,0,0,0,2.286-4.7V45l6.2,2.658h6.4L24,53.86,27.54,51.2h1.772l3.544,2.658.691-6.2h6.4L46.147,45v.346a6,6,0,0,0,2.286,4.7l-6.069,2.33a8.847,8.847,0,0,1-3.181.594H36.4Z" transform="translate(-8.42 -45)" fill="#75b1f2"/>
        </g>
        <g id="Grupo_1159805" data-name="Grupo 1159805" transform="translate(27.467 41.643)">
          <path id="Trazado_996268" data-name="Trazado 996268" d="M36.235,48l-.691,6.2L32,51.544,34.126,48Z" transform="translate(-32 -48)" fill="#5d9cec"/>
        </g>
        <g id="Grupo_1159806" data-name="Grupo 1159806" transform="translate(21.46 41.643)">
          <path id="Trazado_996269" data-name="Trazado 996269" d="M27.338,48.018l2.118,3.526L25.911,54.2,25.22,48h2.118Z" transform="translate(-25.22 -48)" fill="#5d9cec"/>
        </g>
        <g id="Grupo_1159807" data-name="Grupo 1159807" transform="translate(15.062 23.037)">
          <path id="Trazado_996270" data-name="Trazado 996270" d="M25.974,27.886l-.222.328a8.18,8.18,0,0,1-4.209,3.216V33.2h-.886A2.637,2.637,0,0,0,19,33.787a6.363,6.363,0,0,1-1-3.411v-.3A6.423,6.423,0,0,1,18.789,27H40.638v.009a8.926,8.926,0,0,1,.4,2.631,8.745,8.745,0,0,1-1.046,4.111,2.607,2.607,0,0,0-1.613-.549h-.886V30.544H35.57a18.684,18.684,0,0,1-9.6-2.658Z" transform="translate(-18 -27)" fill="#656d78"/>
        </g>
        <g id="Grupo_1159808" data-name="Grupo 1159808" transform="translate(40.757 3.544)">
          <path id="Trazado_996271" data-name="Trazado 996271" d="M47,5h8.86v5.316H47Z" transform="translate(-47 -5)" fill="#ff826e"/>
        </g>
        <g id="Grupo_1159809" data-name="Grupo 1159809" transform="translate(49.617 38.099)">
          <path id="Trazado_996272" data-name="Trazado 996272" d="M59.658,44a.889.889,0,0,1,.886.886V48.43a.889.889,0,0,1-.886.886h-.886A1.776,1.776,0,0,1,57,47.544V45.772a1.819,1.819,0,0,1,.3-.992,1.8,1.8,0,0,1,.585-.54A1.767,1.767,0,0,1,58.772,44Z" transform="translate(-57 -44)" fill="#cf9e76"/>
        </g>
        <g id="Grupo_1159810" data-name="Grupo 1159810" transform="translate(44.301 36.327)">
          <path id="Trazado_996273" data-name="Trazado 996273" d="M56.316,42.886a4.319,4.319,0,0,1-.452,1.489,2.73,2.73,0,0,1-.328.39,2.652,2.652,0,0,1-1.878.78v4.023l-.372.142A6,6,0,0,1,51,45v-.346l.478-1.444A1.78,1.78,0,0,1,53.162,42H55.43a.889.889,0,0,1,.886.886Z" transform="translate(-51 -42)" fill="#cf9e76"/>
        </g>
        <g id="Grupo_1159811" data-name="Grupo 1159811" transform="translate(3.544 36.327)">
          <path id="Trazado_996274" data-name="Trazado 996274" d="M10.316,44.658V45a6,6,0,0,1-2.286,4.7l-.372-.142V45.544A2.662,2.662,0,0,1,5,42.886.889.889,0,0,1,5.886,42H8.154a1.78,1.78,0,0,1,1.683,1.214Z" transform="translate(-5 -42)" fill="#cf9e76"/>
        </g>
        <g id="Grupo_1159812" data-name="Grupo 1159812" transform="translate(0 38.099)">
          <path id="Trazado_996275" data-name="Trazado 996275" d="M2.772,44a1.776,1.776,0,0,1,1.772,1.772v1.772a1.776,1.776,0,0,1-1.772,1.772H1.886A.889.889,0,0,1,1,48.43V44.886A.889.889,0,0,1,1.886,44Z" transform="translate(-1 -44)" fill="#cf9e76"/>
        </g>
        <g id="Grupo_1159813" data-name="Grupo 1159813" transform="translate(23.577 41.643)">
          <path id="Trazado_996276" data-name="Trazado 996276" d="M27.61,48h6.016L31.5,51.544H29.728L27.61,48.018Z" transform="translate(-27.61 -48)" fill="#cf9e76"/>
        </g>
        <g id="Grupo_1159814" data-name="Grupo 1159814" transform="translate(34.555 29.239)">
          <path id="Trazado_996277" data-name="Trazado 996277" d="M42.5,34.549a2.657,2.657,0,0,1-1.613,4.767H40V34h.886A2.607,2.607,0,0,1,42.5,34.549Z" transform="translate(-40 -34)" fill="#cf9e76"/>
        </g>
        <g id="Grupo_1159815" data-name="Grupo 1159815" transform="translate(18.607 23.923)">
          <path id="Trazado_996278" data-name="Trazado 996278" d="M22,38.632V31.544a8.18,8.18,0,0,0,4.209-3.216L26.43,28a18.684,18.684,0,0,0,9.6,2.658h1.923v7.974a7.086,7.086,0,0,1-7.088,7.088H29.088A7.086,7.086,0,0,1,22,38.632Z" transform="translate(-22 -28)" fill="#cf9e76"/>
        </g>
        <g id="Grupo_1159816" data-name="Grupo 1159816" transform="translate(24.809 34.555)">
          <path id="Trazado_996279" data-name="Trazado 996279" d="M32.544,41.772v.337a1.429,1.429,0,0,1-1.435,1.435h-.673A1.429,1.429,0,0,1,29,42.109v-.337l.487-.983a1.441,1.441,0,0,1,2.569,0Z" transform="translate(-29 -40)" fill="#ff826e"/>
        </g>
        <g id="Grupo_1159817" data-name="Grupo 1159817" transform="translate(15.062 29.239)">
          <path id="Trazado_996280" data-name="Trazado 996280" d="M21.544,34v5.316h-.886a2.658,2.658,0,0,1,0-5.316Z" transform="translate(-18 -34)" fill="#cf9e76"/>
        </g>
        <g id="Grupo_1159818" data-name="Grupo 1159818" transform="translate(15.062)">
          <circle id="Elipse_11711" data-name="Elipse 11711" cx="11.5" cy="11.5" r="11.5" transform="translate(0.052 0.114)" fill="#ffeaa7"/>
        </g>
        <g id="Grupo_1159819" data-name="Grupo 1159819" transform="translate(30.125 5.316)">
          <path id="Trazado_996281" data-name="Trazado 996281" d="M38.544,8.772v3.544a1.777,1.777,0,0,1-1.772,1.772A1.785,1.785,0,0,1,35,12.316V8.772A1.777,1.777,0,0,1,36.772,7a1.785,1.785,0,0,1,1.772,1.772Z" transform="translate(-35 -7)" fill="#cf9e76"/>
        </g>
        <g id="Grupo_1159820" data-name="Grupo 1159820" transform="translate(26.581 5.316)">
          <path id="Trazado_996282" data-name="Trazado 996282" d="M31.886,12.369v-.044A1.762,1.762,0,0,0,31,10.783V8.772A1.777,1.777,0,0,1,32.772,7a1.785,1.785,0,0,1,1.772,1.772v3.544a1.777,1.777,0,0,1-1.772,1.772,1.746,1.746,0,0,1-1.32-.594,1.651,1.651,0,0,0,.434-1.125Z" transform="translate(-31 -7)" fill="#cf9e76"/>
        </g>
        <g id="Grupo_1159821" data-name="Grupo 1159821" transform="translate(19.493 8.858)">
          <path id="Trazado_996283" data-name="Trazado 996283" d="M24.843,11c.478.018,1.081.027,1.7.018.948,0,1.949-.027,2.667-.018a1.728,1.728,0,0,1,.877.23v.009a1.762,1.762,0,0,1,.886,1.542v.044a1.651,1.651,0,0,1-.434,1.125,1.746,1.746,0,0,0,1.32.594,1.777,1.777,0,0,0,1.772-1.772A1.785,1.785,0,0,0,35.4,14.544a1.777,1.777,0,0,0,1.772-1.772v3.845a3.548,3.548,0,0,1-1.037,2.507l-1.621,1.621V24.29a11.525,11.525,0,0,1-4.43.886,11.362,11.362,0,0,1-4.43-.886V20.746l-1.621-1.621A3.548,3.548,0,0,1,23,16.617V12.772A1.771,1.771,0,0,1,24.843,11Z" transform="translate(-23 -10.998)" fill="#cf9e76"/>
        </g>
        <g id="Grupo_1159822" data-name="Grupo 1159822" transform="translate(23.037 5.316)">
          <path id="Trazado_996284" data-name="Trazado 996284" d="M30.544,8.772v2a1.728,1.728,0,0,0-.877-.23c-.718-.009-1.719.018-2.667.018V8.772A1.777,1.777,0,0,1,28.772,7a1.785,1.785,0,0,1,1.772,1.772Z" transform="translate(-27 -7)" fill="#cf9e76"/>
        </g>
        <g id="Grupo_1159823" data-name="Grupo 1159823" transform="translate(19.493 5.316)">
          <path id="Trazado_996285" data-name="Trazado 996285" d="M26.544,10.562c-.62.009-1.223,0-1.7-.018A1.771,1.771,0,0,0,23,12.316V8.772A1.777,1.777,0,0,1,24.772,7a1.785,1.785,0,0,1,1.772,1.772v1.772Z" transform="translate(-23 -7)" fill="#cf9e76"/>
        </g>
      </g>
      <g id="Grupo_1159825" data-name="Grupo 1159825">
        <path id="Trazado_996286" data-name="Trazado 996286" d="M54.934,24.809V0H0V24.809H2.658V38.1H1.772A1.774,1.774,0,0,0,0,39.871v3.544a1.774,1.774,0,0,0,1.772,1.772h.886V50.5A1.774,1.774,0,0,0,4.43,52.276H6.2A1.774,1.774,0,0,0,7.974,50.5V46.068l5.235,2.014a9.722,9.722,0,0,0,3.5.649h1.9v6.2H36.327v-6.2h1.9a9.722,9.722,0,0,0,3.5-.649l5.235-2.014V50.5a1.774,1.774,0,0,0,1.772,1.772H50.5A1.774,1.774,0,0,0,52.276,50.5V45.187h.886a1.774,1.774,0,0,0,1.772-1.772V39.871A1.774,1.774,0,0,0,53.162,38.1h-.886V24.809ZM53.162,1.772V23.037H33.823a12.37,12.37,0,0,0,0-21.265Zm-6.2,34.586a2.653,2.653,0,0,0-2.131,1.787l-.356,1.069L38.8,41.643h-5.45a7.969,7.969,0,0,0,2.921-5.316h.052a3.548,3.548,0,0,0,3.544-3.544,3.511,3.511,0,0,0-.867-2.3,9.34,9.34,0,0,0,.7-5.678h7.253ZM27.851,45.187h-.769l-1.063-1.772h2.9Zm-2.441.657-1.665,1.248-.408-3.676h.616Zm-9.28-4.2-5.669-2.429-.356-1.069a2.652,2.652,0,0,0-2.131-1.786V24.809h7.44A7.289,7.289,0,0,0,15.062,27v.3a7.234,7.234,0,0,0,.8,3.269,3.505,3.505,0,0,0-.8,2.216,3.548,3.548,0,0,0,3.544,3.544h.052a7.967,7.967,0,0,0,2.921,5.316ZM7.583,38.1a.885.885,0,0,1,.841.606l.436,1.31v.206a5.07,5.07,0,0,1-.886,2.863V39.871H7.088A1.774,1.774,0,0,1,5.316,38.1Zm28.744-7.088a1.772,1.772,0,1,1,0,3.544Zm1.555-6.2a7.968,7.968,0,0,1,.217,1.753,7.864,7.864,0,0,1-.572,2.9,3.508,3.508,0,0,0-1.2-.223V26.581H33.52a17.776,17.776,0,0,1-7.715-1.772ZM28.353,41.643H26.581a6.209,6.209,0,0,1-6.2-6.2V28.967a9.1,9.1,0,0,0,3.813-2.984,19.54,19.54,0,0,0,9.328,2.37h1.035v7.088A6.209,6.209,0,0,1,28.353,41.643ZM24.809,7.974a.886.886,0,1,1,1.772,0V8.86c-.421,0-.939,0-1.485.011l-.287,0Zm3.544,0a.886.886,0,1,1,1.772,0v3.544a.887.887,0,0,1-.886.886.828.828,0,0,1-.146-.032,2.6,2.6,0,0,0-.74-2.818Zm-5.316.906c-.279,0-.545-.008-.774-.018a2.572,2.572,0,0,0-1,.149V7.974a.886.886,0,1,1,1.772,0Zm-1.772,2.639a.877.877,0,0,1,.273-.641.913.913,0,0,1,.651-.245c.8.035,1.932.021,2.927.01.54-.006,1.051-.012,1.471-.011a.9.9,0,0,1,.88.939.834.834,0,0,1-.833.833H22.267l1.591,2.387a2.535,2.535,0,0,1,.158,2.532l1.585.793a4.311,4.311,0,0,0-.049-3.94h1.082a2.563,2.563,0,0,0,1.3-.361,2.592,2.592,0,0,0,3.081-.33,2.576,2.576,0,0,0,2.658.528v1.354a2.676,2.676,0,0,1-.778,1.879l-1.88,1.879v3.291a10.436,10.436,0,0,1-7.088,0V19.126l-1.88-1.88a2.676,2.676,0,0,1-.778-1.879Zm12.4-.886v.886a.886.886,0,1,1-1.772,0V7.974a.886.886,0,1,1,1.772,0Zm-.886,9.227L34.144,18.5a4.4,4.4,0,0,0,1.3-3.132V7.974a2.647,2.647,0,0,0-4.43-1.967,2.617,2.617,0,0,0-3.544,0,2.617,2.617,0,0,0-3.544,0,2.647,2.647,0,0,0-4.43,1.967v7.392a4.4,4.4,0,0,0,1.3,3.132l1.361,1.361V21.6a10.632,10.632,0,1,1,10.632,0Zm-13.57,7.653-.606.2v1.525a3.507,3.507,0,0,0-1.3.256,5.463,5.463,0,0,1-.469-2.2V27a5.543,5.543,0,0,1,.462-2.19h5.539a7.3,7.3,0,0,1-3.623,2.7Zm-.606,3.5v3.544a1.772,1.772,0,1,1,0-3.544Zm12.374,12.4H31.6l-.408,3.676-1.664-1.248ZM1.772,1.772H21.11a12.37,12.37,0,0,0,0,21.265H1.772ZM6.2,24.809V36.327H5.316a1.753,1.753,0,0,0-.886.246V24.809ZM1.772,43.415V39.871h.886a.887.887,0,0,1,.886.886v1.772a.887.887,0,0,1-.886.886ZM6.2,50.5H4.43V44.5a2.644,2.644,0,0,0,.886-1.967V41.155a3.5,3.5,0,0,0,.886.376Zm34.886-4.076a7.95,7.95,0,0,1-2.863.532h-1.9V45.187H34.555v7.974H20.379V45.187H18.607v1.772h-1.9a7.95,7.95,0,0,1-2.863-.532L9.051,44.584a6.825,6.825,0,0,0,1.508-3.4l4.291,1.839-.628,1.885,1.681.561.685-2.053h4.967l.773,6.956,4.254-3.191v4.209h1.772V47.181l4.254,3.191.773-6.956h4.967l.684,2.052,1.681-.561-.628-1.885,4.291-1.839a6.825,6.825,0,0,0,1.508,3.4Zm6.757-6.557h-.886v3.212a5.07,5.07,0,0,1-.886-2.863v-.206l.437-1.31a.884.884,0,0,1,.84-.606h2.267A1.774,1.774,0,0,1,47.845,39.871ZM50.5,50.5H48.731V41.532a3.5,3.5,0,0,0,.886-.376v1.373A2.644,2.644,0,0,0,50.5,44.5Zm2.658-10.632v3.544h-.887a.887.887,0,0,1-.886-.886V40.757a.887.887,0,0,1,.886-.886Zm-2.658-3.3a1.753,1.753,0,0,0-.886-.246h-.886V24.809H50.5Z"/>
        <path id="Trazado_996287" data-name="Trazado 996287" d="M30.658,39a2.307,2.307,0,0,0-2.075,1.282L28,41.449V42a2.322,2.322,0,0,0,2.32,2.32H31A2.322,2.322,0,0,0,33.316,42v-.548l-.583-1.166A2.306,2.306,0,0,0,30.658,39Zm.886,3a.548.548,0,0,1-.548.548H30.32A.548.548,0,0,1,29.772,42v-.129l.4-.793a.568.568,0,0,1,.979,0l.4.793Z" transform="translate(-3.191 -4.445)"/>
        <path id="Trazado_996288" data-name="Trazado 996288" d="M35.961,33.168,32.2,35.677l3.764,2.509.983-1.474-1.552-1.035,1.552-1.035Z" transform="translate(-3.67 -3.78)"/>
        <path id="Trazado_996289" data-name="Trazado 996289" d="M25.428,33.168l-.983,1.474L26,35.677l-1.552,1.035.983,1.474,3.764-2.509Z" transform="translate(-2.786 -3.78)"/>
        <path id="Trazado_996290" data-name="Trazado 996290" d="M4,4h9.746V5.772H4Z" transform="translate(-0.456 -0.456)"/>
        <path id="Trazado_996291" data-name="Trazado 996291" d="M4,8h9.746V9.772H4Z" transform="translate(-0.456 -0.912)"/>
        <path id="Trazado_996292" data-name="Trazado 996292" d="M4,12H5.772v1.772H4Z" transform="translate(-0.456 -1.368)"/>
        <path id="Trazado_996293" data-name="Trazado 996293" d="M8,12h6.2v1.772H8Z" transform="translate(-0.912 -1.368)"/>
        <path id="Trazado_996294" data-name="Trazado 996294" d="M4,16h9.746v1.772H4Z" transform="translate(-0.456 -1.824)"/>
        <path id="Trazado_996295" data-name="Trazado 996295" d="M4,20h9.746v1.772H4Z" transform="translate(-0.456 -2.279)"/>
        <path id="Trazado_996296" data-name="Trazado 996296" d="M56.632,4H46v7.088H56.632ZM54.86,9.316H47.772V5.772H54.86Z" transform="translate(-5.243 -0.456)"/>
        <path id="Trazado_996297" data-name="Trazado 996297" d="M47,14h9.746v1.772H47Z" transform="translate(-5.357 -1.596)"/>
        <path id="Trazado_996298" data-name="Trazado 996298" d="M47,18h9.746v1.772H47Z" transform="translate(-5.357 -2.052)"/>
        <path id="Trazado_996299" data-name="Trazado 996299" d="M47,22h9.746v1.772H47Z" transform="translate(-5.357 -2.507)"/>
      </g>
    </g>
  </g>
</svg>
